<?xml version="1.0" encoding="UTF-8" standalone="no"?>
<!-- Generator: Adobe Illustrator 17.0.0, SVG Export Plug-In . SVG Version: 6.00 Build 0)  -->

<svg
   xmlns:dc="http://purl.org/dc/elements/1.1/"
   xmlns:cc="http://creativecommons.org/ns#"
   xmlns:rdf="http://www.w3.org/1999/02/22-rdf-syntax-ns#"
   xmlns:svg="http://www.w3.org/2000/svg"
   xmlns="http://www.w3.org/2000/svg"
   xmlns:xlink="http://www.w3.org/1999/xlink"
   xmlns:sodipodi="http://sodipodi.sourceforge.net/DTD/sodipodi-0.dtd"
   xmlns:inkscape="http://www.inkscape.org/namespaces/inkscape"
   version="1.1"
   x="0px"
   y="0px"
   width="800px"
   height="391px"
   viewBox="0 0 800 391"
   enable-background="new 0 0 800 391"
   xml:space="preserve"
   id="svg9789"
   inkscape:version="0.48.4 r9939"
   sodipodi:docname="lancement.svg"><metadata
     id="metadata10318"><rdf:RDF><cc:Work
         rdf:about=""><dc:format>image/svg+xml</dc:format><dc:type
           rdf:resource="http://purl.org/dc/dcmitype/StillImage" /><dc:title /></cc:Work></rdf:RDF></metadata><defs
     id="defs10316"><linearGradient
       id="linearGradient8147"><stop
         style="stop-color:#ffffff;stop-opacity:1;"
         offset="0"
         id="stop8149" /><stop
         style="stop-color:#ffffff;stop-opacity:0;"
         offset="1"
         id="stop8151" /></linearGradient><linearGradient
       id="linearGradient7326"><stop
         style="stop-color:#0098c3;stop-opacity:0.7478261;"
         offset="0"
         id="stop7328" /><stop
         id="stop7354"
         offset="0.62871337"
         style="stop-color:#00546c;stop-opacity:1;" /><stop
         style="stop-color:#003a4d;stop-opacity:1;"
         offset="0.7479521"
         id="stop8133" /><stop
         style="stop-color:#00212e;stop-opacity:1;"
         offset="1"
         id="stop7330" /></linearGradient><linearGradient
       id="linearGradient7286"><stop
         id="stop7316"
         offset="0"
         style="stop-color:#00212e;stop-opacity:1;" /><stop
         style="stop-color:#00212e;stop-opacity:0;"
         offset="1"
         id="stop7290" /></linearGradient><clipPath
       clipPathUnits="userSpaceOnUse"
       id="clipPath7348"><rect
         style="fill:#00212e"
         y="1383.2976"
         x="-39.285713"
         id="rect7350"
         height="303.5"
         width="800" /></clipPath><radialGradient
       inkscape:collect="always"
       xlink:href="#linearGradient7326"
       id="radialGradient7352"
       gradientUnits="userSpaceOnUse"
       gradientTransform="matrix(1.3678484,-0.05018927,0.02831315,0.77164116,-180.01976,503.12759)"
       cx="356.91205"
       cy="1561.0818"
       fx="356.91205"
       fy="1561.0818"
       r="400.5" /><linearGradient
       inkscape:collect="always"
       xlink:href="#linearGradient8147"
       id="linearGradient8159"
       x1="362.72906"
       y1="309.00208"
       x2="437.27094"
       y2="309.00208"
       gradientUnits="userSpaceOnUse"
       gradientTransform="matrix(0,1,-1,0,709.00208,-90.997926)" /></defs><sodipodi:namedview
     pagecolor="#ffffff"
     bordercolor="#666666"
     borderopacity="1"
     objecttolerance="10"
     gridtolerance="10"
     guidetolerance="10"
     inkscape:pageopacity="0"
     inkscape:pageshadow="2"
     inkscape:window-width="1280"
     inkscape:window-height="748"
     id="namedview10314"
     showgrid="false"
     inkscape:zoom="0.84"
     inkscape:cx="392.83754"
     inkscape:cy="214.62178"
     inkscape:window-x="0"
     inkscape:window-y="0"
     inkscape:window-maximized="1"
     inkscape:current-layer="svg9789" /><rect
     style="fill:url(#radialGradient7352);fill-opacity:1;stroke:#004b60;stroke-width:2.04677892;stroke-opacity:1"
     y="1265.2683"
     x="-230.42899"
     id="rect9792-5-0"
     height="858.60626"
     width="1184.6676"
     clip-path="url(#clipPath7348)"
     transform="matrix(1.007845,0,0,1.007845,35.755908,-1397.3006)" /><g
     id="Calque_3"
     transform="translate(-727.30983,-569.0526)"><rect
       width="800"
       height="303.5"
       id="rect9792"
       x="0"
       y="0"
       style="fill:#00212e" /><path
       d="M 150.268,0 C 87.972,18.677 36.197,44.297 0,74.512 V 230.633 H 800 V 84.889 C 763.699,50.153 707.406,20.78 638.093,0 H 150.268 z"
       id="path9794"
       inkscape:connector-curvature="0"
       style="fill:#002633" /><path
       d="M 800,303.5 V 140.462 C 726.872,62.184 572.636,8.231 394.189,8.231 224.705,8.231 77.058,56.9 0,128.855 V 303.5 h 800 z"
       id="path9796"
       inkscape:connector-curvature="0"
       style="fill:#003745" /><path
       d="M 794.655,303.496 C 712.666,199.708 566.574,130.623 400,130.623 233.426,130.623 87.335,199.708 5.345,303.496 h 789.31 z"
       id="path9798"
       inkscape:connector-curvature="0"
       style="fill:#004b60" /></g><g
     id="g9801"><polygon
       style="fill:#002633"
       id="polygon9803"
       points="305.835,188.638 326.212,175.167 385.23,233.944 495.739,158.429 563.018,215.442 616.591,191.583 646.806,208.518 734.71,179.583 798.335,269.962 798.335,303.5 -1.665,303.5 -1.665,195.5 55.243,136.168 96.414,160.922 145.518,143.25 227.731,200 281.64,166.303 " /><polygon
       style="fill:#00212e"
       id="polygon9805"
       points="55.243,136.168 79.7,190.25 96.414,160.922 " /><polygon
       style="fill:#00212e"
       id="polygon9807"
       points="145.518,143.25 203.7,227.75 227.731,200 " /><polygon
       style="fill:#001a25;fill-opacity:1"
       id="polygon9809"
       points="281.64,166.303 291.7,207.75 305.835,188.638 " /><path
       style="fill:#001a25;fill-opacity:1"
       d="M 347.38767,220.27976 365.14071,213.85471 326.212,175.167 z"
       id="polygon9811"
       inkscape:connector-curvature="0"
       sodipodi:nodetypes="cccc" /><polygon
       style="fill:#001a25;fill-opacity:1"
       id="polygon9813"
       points="495.739,158.429 526.033,230.633 563.018,215.442 " /><polygon
       style="fill:#00212e"
       id="polygon9815"
       points="616.591,191.583 630.7,219.834 646.806,208.518 " /><polyline
       style="fill:#00212e"
       id="polyline9817"
       points="734.71,179.583 755.791,303.496 798.335,303.5 798.335,269.962 736.366,179.583   " /></g><polygon
     style="fill:#ffffff;opacity:0.15"
     id="polygon10061"
     points="149.911,159.414 147.703,160.305 150.005,160.963 150.812,162.965 151.444,160.757 153.29,160.012 151.389,159.468 150.515,157.302 " /><polygon
     style="fill:#ffffff;opacity:0.15"
     id="polygon10063"
     points="174.015,164.95 171.651,165.233 173.701,166.47 173.958,168.613 175.145,166.646 177.121,166.409 175.428,165.387 175.15,163.068 " /><g
     id="g6520"
     style="opacity:0.4"
     transform="matrix(1.1452134,0,0,1.1452134,-78.215237,0.17044727)"><polygon
       points="680.06,74.511 682.985,73.302 679.955,72.463 678.536,69.031 677.604,72.397 674.107,73.843 677.774,74.859 679.085,78.03 "
       id="polygon9873"
       style="opacity:0.50000000000000000;fill:#ffffff"
       transform="translate(-11.434758,-31.705465)" /><polygon
       points="770.231,71.283 771.388,67.82 774.372,66.765 771.39,65.769 770.152,62.268 769.045,65.581 765.477,66.843 769.087,68.048 "
       id="polygon9877"
       style="opacity:0.50000000000000000;fill:#ffffff" /><polygon
       points="782.546,75.119 785.037,72.45 788.189,72.73 785.891,70.585 786.22,66.887 783.837,69.44 780.067,69.105 782.849,71.702 "
       id="polygon9879"
       style="opacity:0.50000000000000000;fill:#ffffff" /><polygon
       points="754.706,50.181 758.329,50.632 759.952,53.349 760.34,50.23 763.528,48.326 760.062,47.894 758.122,44.645 757.652,48.422 "
       id="polygon9881"
       style="opacity:0.80000000000000004;fill:#ffffff" /><polygon
       points="779.951,51.186 782.443,48.517 785.595,48.797 783.297,46.652 783.626,42.954 781.243,45.507 777.473,45.172 780.255,47.769 "
       id="polygon9883"
       style="opacity:0.50000000000000000;fill:#ffffff" /><polygon
       points="735.422,53.942 737.913,51.273 741.065,51.553 738.767,49.408 739.096,45.71 736.713,48.263 732.943,47.928 735.726,50.525 "
       id="polygon9885"
       style="opacity:0.50000000000000000;fill:#ffffff" /><polygon
       points="728.17,42.954 730.661,40.285 733.813,40.565 731.515,38.42 731.844,34.721 729.461,37.275 725.691,36.94 728.474,39.536 "
       id="polygon9887"
       style="opacity:0.50000000000000000;fill:#ffffff" /><polygon
       points="734.257,33.744 736.318,29.359 740.415,28.431 736.639,26.656 735.55,21.85 733.578,26.045 728.68,27.155 733.251,29.303 "
       id="polygon9889"
       style="opacity:0.50000000000000000;fill:#ffffff" /><polygon
       points="767.813,59.405 771.119,55.862 775.303,56.234 772.253,53.388 772.69,48.48 769.527,51.869 764.524,51.424 768.217,54.87 "
       id="polygon9891"
       style="opacity:0.50000000000000000;fill:#ffffff" /><polygon
       points="725.124,24.823 727.615,22.154 730.767,22.434 728.469,20.289 728.798,16.59 726.415,19.144 722.645,18.809 725.428,21.405 "
       id="polygon9893"
       style="opacity:0.50000000000000000;fill:#ffffff" /><polygon
       points="712.482,40.75 712.606,37.1 715.167,35.24 712.025,35.134 709.842,32.129 709.724,35.62 706.662,37.845 710.466,37.974 "
       id="polygon9895"
       style="opacity:0.50000000000000000;fill:#ffffff" /><polygon
       points="455.129,13.887 457.62,11.218 460.773,11.498 458.475,9.353 458.804,5.655 456.421,8.209 452.651,7.873 455.433,10.47 "
       id="polygon9905"
       style="opacity:0.50000000000000000;fill:#ffffff" /><polygon
       points="464.519,11.944 465.26,8.369 468.1,6.97 465.022,6.332 463.381,3.001 462.671,6.421 459.276,8.093 463.003,8.866 "
       id="polygon9907"
       style="opacity:0.50000000000000000;fill:#ffffff" /><polygon
       points="519.26,136.642 520.785,135.008 522.714,135.18 521.307,133.867 521.509,131.603 520.05,133.166 517.743,132.961 519.446,134.55 "
       id="polygon9919"
       style="opacity:0.14999999999999999;fill:#ffffff" /><polygon
       points="481.418,20.421 482.669,19.081 484.252,19.222 483.098,18.145 483.263,16.288 482.067,17.57 480.174,17.402 481.571,18.705 "
       id="polygon9923"
       style="opacity:0.50000000000000000;fill:#ffffff" /><polygon
       points="532.206,60.733 533.789,60.873 532.635,59.797 532.8,57.94 531.604,59.222 529.711,59.054 531.108,60.357 530.956,62.073 "
       id="polygon9929"
       style="opacity:0.14999999999999999;fill:#ffffff"
       transform="translate(16.538717,56.599165)" /><polygon
       points="582.402,118.894 583.653,117.554 585.236,117.695 584.082,116.618 584.247,114.762 583.051,116.043 581.158,115.875 582.555,117.179 "
       id="polygon9931"
       style="opacity:0.14999999999999999;fill:#ffffff" /><polygon
       points="529.007,66.479 531.316,66.684 529.633,65.113 529.874,62.404 528.129,64.275 525.368,64.029 527.406,65.931 527.183,68.434 "
       id="polygon9955"
       style="opacity:0.50000000000000000;fill:#ffffff"
       transform="translate(22.41915,-47.043461)" /><polygon
       points="460.519,88.741 462.343,86.786 464.652,86.991 462.969,85.42 463.21,82.711 461.465,84.581 458.704,84.336 460.742,86.238 "
       id="polygon9959"
       style="opacity:0.14999999999999999;fill:#ffffff" /><polygon
       points="472.369,87.907 472.968,86.535 474.226,86.213 473.044,85.697 472.667,84.222 472.094,85.535 470.59,85.919 472.021,86.544 "
       id="polygon9961"
       style="opacity:0.14999999999999999;fill:#ffffff" /><polygon
       points="460.926,83.673 460.181,82.374 460.672,81.173 459.554,81.814 458.145,81.239 458.857,82.481 458.271,83.917 459.624,83.141 "
       id="polygon9965"
       style="opacity:0.14999999999999999;fill:#ffffff" /><polygon
       points="500.409,8.252 502.233,6.297 504.542,6.502 502.859,4.931 503.1,2.222 501.354,4.092 498.593,3.847 500.631,5.749 "
       id="polygon9969"
       style="opacity:0.50000000000000000;fill:#ffffff" /><polygon
       points="508.144,10.186 509.969,8.231 512.278,8.436 510.595,6.865 510.835,4.156 509.09,6.026 506.329,5.781 508.367,7.683 "
       id="polygon9971"
       style="opacity:0.50000000000000000;fill:#ffffff" /><polygon
       points="517.818,26.942 519.791,24.828 522.288,25.05 520.468,23.351 520.728,20.421 518.84,22.444 515.854,22.178 518.058,24.235 "
       id="polygon9973"
       style="opacity:0.50000000000000000;fill:#ffffff" /><polygon
       points="158.692,36.87 161.183,34.2 164.335,34.481 162.037,32.336 162.366,28.637 159.983,31.191 156.213,30.856 158.996,33.452 "
       id="polygon9979"
       style="opacity:0.50000000000000000;fill:#ffffff" /><polygon
       points="127.941,45.102 130.433,42.433 133.585,42.713 131.287,40.568 131.616,36.87 129.233,39.423 125.463,39.088 128.245,41.685 "
       id="polygon9981"
       style="opacity:0.50000000000000000;fill:#ffffff" /><polygon
       points="61.064,125.8 61.861,122.237 64.721,120.882 61.653,120.196 60.064,116.84 59.302,120.249 55.881,121.868 59.596,122.699 "
       id="polygon9983"
       style="opacity:0.50000000000000000;fill:#ffffff" /><polygon
       points="76.638,69.836 78.654,66.791 81.809,66.546 79.188,64.811 78.901,61.109 76.973,64.021 73.199,64.314 76.373,66.415 "
       id="polygon9985"
       style="opacity:0.50000000000000000;fill:#ffffff" /><polygon
       points="109.269,25.614 108.873,23.088 110.389,21.471 108.214,21.812 106.316,20.033 106.695,22.45 104.882,24.384 107.516,23.971 "
       id="polygon9987"
       style="opacity:0.50000000000000000;fill:#ffffff" /><polygon
       points="55.999,60.663 58.565,56.786 62.584,56.475 59.246,54.265 58.88,49.551 56.425,53.26 51.62,53.633 55.661,56.308 "
       id="polygon9989"
       style="opacity:0.50000000000000000;fill:#ffffff" /><polygon
       points="30.08,113.159 32.05,110.181 35.136,109.942 32.573,108.245 32.292,104.625 30.406,107.473 26.717,107.759 29.82,109.814 "
       id="polygon9991"
       style="opacity:0.50000000000000000;fill:#ffffff" /><polygon
       points="35.444,73.012 37.414,70.035 40.5,69.795 37.937,68.099 37.656,64.478 35.77,67.327 32.081,67.613 35.184,69.667 "
       id="polygon9993"
       style="opacity:0.80000000000000004;fill:#ffffff" /><polygon
       points="28.442,67.403 31.431,65.45 34.359,66.453 32.678,63.879 33.854,60.444 30.994,62.312 27.493,61.114 29.529,64.229 "
       id="polygon9995"
       style="opacity:0.50000000000000000;fill:#ffffff" /><polygon
       points="404.679,48.201 408.975,43.598 414.413,44.081 410.449,40.382 411.016,34.003 406.905,38.407 400.404,37.829 405.203,42.307 "
       id="polygon9999"
       style="opacity:0.50000000000000000;fill:#ffffff" /><polygon
       points="218.894,12.203 220.203,8.794 223.231,7.872 220.296,6.745 219.214,3.193 217.962,6.454 214.342,7.556 217.895,8.921 "
       id="polygon10003"
       style="opacity:0.50000000000000000;fill:#ffffff" /><polygon
       points="270.97,81.944 274.122,82.224 271.824,80.079 272.153,76.381 269.77,78.934 266,78.599 268.782,81.196 268.479,84.613 "
       id="polygon10009"
       style="opacity:0.14999999999999999;fill:#ffffff"
       transform="translate(19.750946,9.8754728)" /><polygon
       points="297.143,87.17 294.126,86.287 292.757,82.835 291.776,86.188 288.258,87.582 291.911,88.651 293.175,91.841 294.201,88.337 "
       id="polygon10013"
       style="opacity:0.14999999999999999;fill:#ffffff"
       transform="translate(35.343798,18.19166)" /><polygon
       points="235.736,22.052 237.749,19.895 240.297,20.122 238.439,18.388 238.705,15.4 236.779,17.463 233.733,17.192 235.982,19.291 "
       id="polygon10021"
       style="opacity:0.50000000000000000;fill:#ffffff" /><polygon
       points="275.857,119.528 274,117.795 274.266,114.806 272.34,116.869 269.294,116.598 271.542,118.697 271.297,121.459 273.31,119.301 "
       id="polygon10029"
       style="opacity:0.14999999999999999;fill:#ffffff"
       transform="translate(35.343798,18.19166)" /><polygon
       points="264.544,30.963 265.762,28.276 268.248,27.676 265.934,26.627 265.231,23.71 264.066,26.281 261.092,26.998 263.894,28.268 "
       id="polygon10031"
       style="opacity:0.50000000000000000;fill:#ffffff" /><polygon
       points="301.194,12.358 303.207,10.201 305.755,10.427 303.897,8.694 304.163,5.705 302.237,7.769 299.191,7.498 301.44,9.596 "
       id="polygon10033"
       style="opacity:0.50000000000000000;fill:#ffffff" /><polygon
       points="194.228,28.194 196.719,25.525 199.872,25.805 197.574,23.66 197.903,19.962 195.52,22.515 191.75,22.18 194.532,24.777 "
       id="polygon10035"
       style="opacity:0.50000000000000000;fill:#ffffff" /><polygon
       points="232.842,132.06 235.333,129.39 238.486,129.671 236.188,127.526 236.517,123.827 234.134,126.381 230.364,126.046 233.146,128.642 "
       id="polygon10039"
       style="opacity:0.14999999999999999;fill:#ffffff" /><polygon
       points="217.81,141.198 220.301,138.528 223.454,138.809 221.155,136.664 221.484,132.965 219.101,135.519 215.331,135.184 218.114,137.78 "
       id="polygon10041"
       style="opacity:0.14999999999999999;fill:#ffffff" /><polygon
       points="164.432,134.525 166.923,131.856 170.076,132.137 167.778,129.992 168.107,126.293 165.723,128.847 161.954,128.511 164.736,131.108 "
       id="polygon10043"
       style="opacity:0.50000000000000000;fill:#ffffff" /><polygon
       points="365.84,15.888 367.691,13.905 370.033,14.113 368.326,12.519 368.57,9.771 366.799,11.669 363.998,11.419 366.066,13.349 "
       id="polygon10047"
       style="opacity:0.50000000000000000;fill:#ffffff" /><polygon
       points="224.129,69.509 226.471,69.717 224.763,68.124 225.008,65.375 223.237,67.273 220.436,67.024 222.503,68.953 222.278,71.492 "
       id="polygon10051"
       style="opacity:0.50000000000000000;fill:#ffffff"
       transform="translate(-129.94043,36.903083)" /><polygon
       points="227.893,114.212 228.814,110.797 231.64,109.606 228.699,108.813 227.302,105.497 226.421,108.765 223.042,110.188 226.602,111.149 "
       id="polygon10057"
       style="opacity:0.14999999999999999;fill:#ffffff" /><polygon
       points="204.043,127.122 204.674,124.914 206.521,124.169 204.619,123.625 203.745,121.459 203.141,123.571 200.933,124.462 203.235,125.12 "
       id="polygon10065"
       style="opacity:0.14999999999999999;fill:#ffffff" /><polygon
       points="157.917,133.241 158.549,131.033 160.396,130.288 158.494,129.744 157.62,127.578 157.016,129.69 154.808,130.581 157.11,131.239 "
       id="polygon10067"
       style="opacity:0.50000000000000000;fill:#ffffff" /><polygon
       points="64.898,111.44 65.252,110.204 66.286,109.787 65.221,109.482 64.732,108.269 64.393,109.452 63.157,109.951 64.446,110.32 "
       id="polygon10073"
       style="opacity:0.50000000000000000;fill:#ffffff" /><polygon
       points="86.971,49.762 87.381,48.327 88.581,47.843 87.345,47.489 86.778,46.082 86.385,47.455 84.95,48.033 86.446,48.461 "
       id="polygon10075"
       style="opacity:0.50000000000000000;fill:#ffffff" /><polygon
       points="205.569,42.7 207.42,40.717 209.762,40.925 208.054,39.332 208.299,36.583 206.528,38.481 203.727,38.232 205.794,40.161 "
       id="polygon10091"
       style="opacity:0.50000000000000000;fill:#ffffff" /><polygon
       points="203.878,37.706 204.483,35.926 206.022,35.391 204.49,34.871 203.862,33.065 203.283,34.767 201.443,35.407 203.298,36.037 "
       id="polygon10093"
       style="opacity:0.50000000000000000;fill:#ffffff" /><polygon
       points="166.86,11.89 168.142,10.516 169.765,10.66 168.582,9.556 168.751,7.652 167.525,8.967 165.585,8.794 167.017,10.131 "
       id="polygon10095"
       style="opacity:0.50000000000000000;fill:#ffffff" /><polygon
       points="358.165,7.885 358.861,6.14 360.425,5.684 358.922,5.086 358.388,3.25 357.722,4.921 355.852,5.465 357.672,6.19 "
       id="polygon10097"
       style="opacity:0.50000000000000000;fill:#ffffff" /><polygon
       points="777.282,69.005 778.564,67.631 780.187,67.776 779.004,66.672 779.173,64.768 777.946,66.082 776.006,65.91 777.438,67.246 "
       id="polygon10099"
       style="opacity:0.80000000000000004;fill:#ffffff" /><polygon
       points="760.327,104.785 761.61,103.411 763.232,103.555 762.049,102.451 762.219,100.547 760.992,101.862 759.052,101.689 760.484,103.026 "
       id="polygon10101"
       style="opacity:0.50000000000000000;fill:#ffffff" /><polygon
       points="413.292,38.637 415.154,38.382 416.32,39.519 416.101,37.916 417.435,36.548 415.654,36.791 414.259,35.431 414.525,37.372 "
       id="polygon10103"
       style="opacity:0.50000000000000000;fill:#ffffff" /><circle
       cx="650.51398"
       cy="24.205999"
       r="3.1930001"
       id="circle10107"
       sodipodi:cx="650.51398"
       sodipodi:cy="24.205999"
       sodipodi:rx="3.1930001"
       sodipodi:ry="3.1930001"
       style="opacity:0.50000000000000000;fill:#004b60"
       d="m 653.70698,24.205999 c 0,1.763446 -1.42956,3.193 -3.193,3.193 -1.76345,0 -3.193,-1.429554 -3.193,-3.193 0,-1.763445 1.42955,-3.193 3.193,-3.193 1.76344,0 3.193,1.429555 3.193,3.193 z" /><path
       d="m 650.514,21.013 c -0.143,0 -0.28,0.024 -0.419,0.042 1.106,0.502 1.879,1.61 1.879,2.903 0,1.62 -1.211,2.944 -2.775,3.151 0.402,0.182 0.845,0.29 1.315,0.29 1.764,0 3.193,-1.43 3.193,-3.193 0,-1.764 -1.429,-3.193 -3.193,-3.193 z"
       id="path10109"
       inkscape:connector-curvature="0"
       style="opacity:0.50000000000000000;fill:#00212e" /><polygon
       transform="translate(84.717665,-33.993179)"
       points="529.711,54.921 531.108,56.224 530.956,57.94 532.206,56.6 533.789,56.741 532.635,55.664 532.8,53.807 531.604,55.089 "
       id="polygon9925-0"
       style="opacity:0.50000000000000000;fill:#ffffff" /><polygon
       transform="translate(84.717665,-33.993179)"
       points="529.047,49.49 530.667,49.512 531.55,50.675 531.57,49.121 532.644,48.307 531.306,48.289 530.35,47.03 530.331,48.517 "
       id="polygon9927-8"
       style="opacity:0.50000000000000000;fill:#ffffff" /><polygon
       transform="translate(143.45074,-54.004006)"
       points="531.108,60.357 530.956,62.073 532.206,60.733 533.789,60.873 532.635,59.797 532.8,57.94 531.604,59.222 529.711,59.054 "
       id="polygon9929-9"
       style="opacity:0.50000000000000000;fill:#ffffff" /><polygon
       transform="translate(84.717665,-33.993179)"
       points="570.278,87.831 571.875,86.781 573.506,87.334 572.498,85.803 573.008,84.298 571.69,85.165 569.924,84.567 570.888,86.032 "
       id="polygon9935-9"
       style="opacity:0.50000000000000000;fill:#ffffff" /><g
       id="g8350"
       style="opacity:0.50000000000000000"><polygon
         style="opacity:0.33000000000000002;fill:#ffffff"
         id="polygon9875"
         points="700.159,89.859 702.65,87.19 705.802,87.47 703.504,85.325 703.833,81.627 701.45,84.18 697.68,83.845 700.462,86.442 " /><polygon
         style="opacity:0.33000000000000002;fill:#ffffff"
         id="polygon9897"
         points="722.109,107.555 724.6,104.886 727.753,105.166 725.455,103.021 725.784,99.323 723.4,101.876 719.631,101.541 722.413,104.138 " /><polygon
         style="opacity:0.33000000000000002;fill:#ffffff"
         id="polygon9899"
         points="367.657,41.642 370.148,38.972 373.301,39.253 371.003,37.108 371.332,33.409 368.948,35.963 365.179,35.628 367.961,38.224 " /><polygon
         style="opacity:0.33000000000000002;fill:#ffffff"
         id="polygon9901"
         points="391.735,23.076 394.226,20.406 397.379,20.687 395.081,18.542 395.409,14.843 393.026,17.397 389.257,17.062 392.039,19.658 " /><polygon
         style="opacity:0.33000000000000002;fill:#ffffff"
         id="polygon9903"
         points="434.283,34.003 436.774,31.333 439.926,31.614 437.628,29.469 437.957,25.77 435.574,28.324 431.804,27.988 434.586,30.585 " /><polygon
         style="opacity:0.33000000000000002;fill:#ffffff"
         id="polygon9909"
         points="530.167,76.666 532.659,73.997 535.811,74.277 533.513,72.132 533.842,68.434 531.459,70.987 527.689,70.652 530.471,73.249 " /><polygon
         style="opacity:0.33000000000000002;fill:#ffffff"
         id="polygon9913"
         points="499.405,76.666 501.896,73.997 505.049,74.277 502.75,72.132 503.079,68.434 500.696,70.987 496.926,70.652 499.709,73.249 " /><polygon
         style="opacity:0.33000000000000002;fill:#ffffff"
         id="polygon9925"
         points="530.956,57.94 532.206,56.6 533.789,56.741 532.635,55.664 532.8,53.807 531.604,55.089 529.711,54.921 531.108,56.224 " /><polygon
         style="opacity:0.33000000000000002;fill:#ffffff"
         id="polygon9927"
         points="531.55,50.675 531.57,49.121 532.644,48.307 531.306,48.289 530.35,47.03 530.331,48.517 529.047,49.49 530.667,49.512 " /><polygon
         style="opacity:0.33000000000000002;fill:#ffffff"
         id="polygon9933"
         points="592.831,103.494 591.824,101.963 592.334,100.458 591.015,101.325 589.25,100.727 590.214,102.192 589.604,103.991 591.2,102.941 " /><polygon
         style="opacity:0.33000000000000002;fill:#ffffff"
         id="polygon9935"
         points="573.506,87.334 572.498,85.803 573.008,84.298 571.69,85.165 569.924,84.567 570.888,86.032 570.278,87.831 571.875,86.781 " /><polygon
         style="opacity:0.33000000000000002;fill:#ffffff"
         id="polygon9937"
         points="564.618,72.289 565.907,70.986 567.485,71.173 566.363,70.063 566.582,68.212 565.349,69.459 563.462,69.236 564.821,70.579 " /><polygon
         style="opacity:0.33000000000000002;fill:#ffffff"
         id="polygon9939"
         points="592.557,66.599 592.605,64.467 594.089,63.364 592.253,63.322 590.959,61.581 590.912,63.621 589.138,64.94 591.361,64.991 " /><polygon
         style="opacity:0.33000000000000002;fill:#ffffff"
         id="polygon9941"
         points="614.968,92.209 615.031,89.445 616.955,88.015 614.575,87.96 612.897,85.704 612.837,88.348 610.537,90.058 613.418,90.124 " /><polygon
         style="opacity:0.33000000000000002;fill:#ffffff"
         id="polygon9943"
         points="562.45,56.855 562.492,55.023 563.767,54.075 562.189,54.039 561.077,52.543 561.037,54.296 559.512,55.43 561.422,55.473 " /><polygon
         style="opacity:0.33000000000000002;fill:#ffffff"
         id="polygon9945"
         points="563.508,52.252 564.909,49.909 567.258,49.619 565.241,48.412 564.9,45.657 563.559,47.898 560.752,48.245 563.193,49.706 " /><polygon
         style="opacity:0.33000000000000002;fill:#ffffff"
         id="polygon9947"
         points="576.429,55.924 579.398,54.049 582.262,55.079 580.648,52.522 581.856,49.162 579.016,50.956 575.591,49.725 577.546,52.819 " /><polygon
         style="opacity:0.33000000000000002;fill:#ffffff"
         id="polygon9949"
         points="478.291,38.452 478.442,35.782 480.348,34.462 478.049,34.332 476.501,32.096 476.356,34.65 474.078,36.228 476.86,36.386 " /><polygon
         style="opacity:0.33000000000000002;fill:#ffffff"
         id="polygon9951"
         points="497.141,51.422 498.002,48.891 500.191,48.13 498.011,47.389 497.119,44.82 496.295,47.242 493.677,48.151 496.316,49.049 " /><polygon
         style="opacity:0.33000000000000002;fill:#ffffff"
         id="polygon9953"
         points="516.891,52.626 517.181,49.968 519.154,48.749 516.865,48.499 515.436,46.185 515.158,48.728 512.799,50.185 515.57,50.488 " /><polygon
         style="opacity:0.33000000000000002;fill:#ffffff"
         id="polygon9957"
         points="470.092,81.778 471.917,79.823 474.226,80.029 472.542,78.458 472.783,75.749 471.038,77.619 468.277,77.374 470.315,79.275 " /><polygon
         style="opacity:0.33000000000000002;fill:#ffffff"
         id="polygon9963"
         points="462.796,67.781 463.395,66.409 464.652,66.088 463.471,65.572 463.094,64.097 462.521,65.409 461.017,65.794 462.447,66.418 " /><polygon
         style="opacity:0.33000000000000002;fill:#ffffff"
         id="polygon9967"
         points="503.89,38.422 505.714,36.467 508.023,36.672 506.34,35.101 506.581,32.392 504.835,34.262 502.074,34.017 504.112,35.919 " /><polygon
         style="opacity:0.33000000000000002;fill:#ffffff"
         id="polygon9975"
         points="528.454,48.447 530.428,46.333 532.925,46.555 531.104,44.856 531.365,41.926 529.477,43.949 526.491,43.683 528.695,45.74 " /><polygon
         style="opacity:0.33000000000000002;fill:#ffffff"
         id="polygon9977"
         points="616.224,103.439 618.715,100.769 621.868,101.05 619.57,98.905 619.899,95.206 617.515,97.76 613.746,97.425 616.528,100.021 " /><polygon
         style="opacity:0.33000000000000002;fill:#ffffff"
         id="polygon9997"
         points="646.072,82.694 649.313,79.221 653.415,79.586 650.425,76.795 650.853,71.982 647.752,75.305 642.847,74.869 646.467,78.247 " /><polygon
         style="opacity:0.33000000000000002;fill:#ffffff"
         id="polygon10001"
         points="293.786,33.993 297.028,30.52 301.13,30.885 298.139,28.094 298.567,23.281 295.466,26.604 290.561,26.168 294.182,29.547 " /><polygon
         transform="translate(19.750946,9.8754728)"
         style="opacity:0.33000000000000002;fill:#ffffff"
         id="polygon10005"
         points="287.409,60.67 290.561,60.951 288.263,58.806 288.592,55.107 286.208,57.661 282.439,57.325 285.221,59.922 284.917,63.34 " /><polygon
         transform="translate(19.750946,9.8754728)"
         style="opacity:0.33000000000000002;fill:#ffffff"
         id="polygon10007"
         points="308.822,64.949 311.974,65.23 309.676,63.085 310.005,59.386 307.622,61.94 303.852,61.604 306.635,64.201 306.331,67.618 " /><polygon
         transform="translate(19.750946,9.8754728)"
         style="opacity:0.33000000000000002;fill:#ffffff"
         id="polygon10011"
         points="254.531,61.891 257.684,62.171 255.385,60.026 255.714,56.328 253.331,58.881 249.561,58.546 252.344,61.143 252.04,64.56 " /><polygon
         transform="translate(-80.563068,-20.270707)"
         style="opacity:0.33000000000000002;fill:#ffffff"
         id="polygon10017"
         points="229.473,91.314 231.976,88.448 228.265,89.165 224.903,86.228 225.699,90.351 222.706,93.778 227.198,92.911 230.305,95.624 " /><polygon
         style="opacity:0.33000000000000002;fill:#ffffff"
         id="polygon10027"
         points="280.386,38.768 282.399,36.611 284.947,36.838 283.089,35.104 283.355,32.116 281.429,34.179 278.383,33.908 280.632,36.007 " /><polygon
         style="opacity:0.33000000000000002;fill:#ffffff"
         id="polygon10037"
         points="203.511,50.386 206.003,47.717 209.155,47.997 206.857,45.852 207.186,42.154 204.803,44.708 201.033,44.372 203.815,46.969 " /><polygon
         style="opacity:0.33000000000000002;fill:#ffffff"
         id="polygon10045"
         points="202.551,62.282 204.402,60.298 206.745,60.507 205.037,58.913 205.281,56.165 203.511,58.062 200.71,57.813 202.777,59.743 " /><polygon
         transform="translate(-129.94043,36.903083)"
         style="opacity:0.33000000000000002;fill:#ffffff"
         id="polygon10049"
         points="218.544,64.577 220.887,64.786 219.179,63.192 219.423,60.444 217.653,62.341 214.852,62.092 216.919,64.021 216.693,66.561 " /><polygon
         transform="translate(-80.563068,-20.270707)"
         style="opacity:0.33000000000000002;fill:#ffffff"
         id="polygon10053"
         points="240.857,83.143 243.2,83.352 241.492,81.758 241.737,79.01 239.966,80.907 237.165,80.658 239.232,82.588 239.007,85.127 " /><polygon
         transform="translate(-80.563068,-20.270707)"
         style="opacity:0.33000000000000002;fill:#ffffff"
         id="polygon10055"
         points="233.605,100.876 235.948,101.084 234.24,99.49 234.484,96.742 232.713,98.64 229.913,98.391 231.98,100.32 231.754,102.859 " /><polygon
         transform="translate(-80.563068,-20.270707)"
         style="opacity:0.33000000000000002;fill:#ffffff"
         id="polygon10059"
         points="226.869,98.676 228.715,97.931 226.814,97.387 225.94,95.221 225.335,97.334 223.128,98.224 225.429,98.883 226.237,100.884 " /><polygon
         style="opacity:0.33000000000000002;fill:#ffffff"
         id="polygon10069"
         points="204.043,115.518 204.674,113.31 206.521,112.565 204.619,112.021 203.745,109.855 203.141,111.967 200.933,112.858 203.235,113.516 " /><polygon
         style="opacity:0.33000000000000002;fill:#ffffff"
         id="polygon10071"
         points="177.361,96.153 177.715,94.916 178.749,94.499 177.684,94.194 177.195,92.982 176.856,94.164 175.62,94.663 176.909,95.032 " /><polygon
         transform="translate(-80.563068,-20.270707)"
         style="opacity:0.33000000000000002;fill:#ffffff"
         id="polygon10077"
         points="231.039,86.497 233.03,86.451 231.442,85.271 231.388,82.936 230.078,84.7 227.698,84.755 229.62,86.183 229.67,88.34 " /><polygon
         style="opacity:0.33000000000000002;fill:#ffffff"
         id="polygon10079"
         points="245.359,89.2 246.262,87.985 247.574,87.955 246.528,87.177 246.492,85.638 245.628,86.801 244.059,86.837 245.326,87.778 " /><polygon
         transform="translate(19.750946,9.8754728)"
         style="opacity:0.33000000000000002;fill:#ffffff"
         id="polygon10081"
         points="297.964,60.935 300.009,59.775 297.698,59.434 296.338,57.034 295.959,59.602 293.513,60.989 296.311,61.401 297.568,63.619 " /><polygon
         transform="translate(38.98213,5.1976172)"
         style="opacity:0.33000000000000002;fill:#ffffff"
         id="polygon10083"
         points="318.009,67.844 316.302,66.25 316.546,63.502 314.775,65.4 311.974,65.151 314.042,67.08 313.816,69.619 315.667,67.636 " /><polygon
         transform="translate(38.98213,5.1976172)"
         style="opacity:0.33000000000000002;fill:#ffffff"
         id="polygon10085"
         points="326.604,64.971 324.329,64.445 323.166,61.943 322.581,64.471 320.031,65.656 322.786,66.293 323.86,68.605 324.472,65.962 " /><polygon
         transform="translate(-129.94043,36.903083)"
         style="opacity:0.33000000000000002;fill:#ffffff"
         id="polygon10087"
         points="246.376,59.241 248.719,59.449 247.011,57.855 247.255,55.107 245.485,57.004 242.684,56.755 244.751,58.685 244.525,61.224 " /><polygon
         transform="translate(-129.94043,36.903083)"
         style="opacity:0.33000000000000002;fill:#ffffff"
         id="polygon10089"
         points="225.797,61.024 228.139,61.232 226.431,59.638 226.676,56.89 224.905,58.787 222.104,58.538 224.172,60.468 223.946,63.007 " /><polygon
         style="opacity:0.33000000000000002;fill:#ffffff"
         id="polygon10105"
         points="401.438,45.572 401.612,42.966 403.486,41.697 401.243,41.547 399.753,39.349 399.587,41.841 397.346,43.359 400.062,43.54 " /><g
         transform="matrix(0.71798913,0,0,0.71798913,190.40298,30.614689)"
         style="opacity:0.33000000000000002"
         id="g10115"><polygon
           style="fill:#ffffff"
           id="polygon10117"
           points="685.982,109.742 682.859,112.17 678.329,111.025 681.027,114.495 679.859,119.112 683.64,116.172 687.826,117.231 685.006,113.603 " /><path
           style="opacity:0.80000000000000004;fill:#ffffff"
           inkscape:connector-curvature="0"
           id="path10119"
           d="m 680.449,116.09 c 0,0 -23.588,-15.558 -19.61,-22.101 0,0 -2.66,6.604 19.524,20.726 l 0.23,0.634" /><path
           style="opacity:0.80000000000000004;fill:#ffffff"
           inkscape:connector-curvature="0"
           id="path10121"
           d="m 682.717,111.264 1.924,-0.851 c 0,0 -10.103,-10.488 -21.996,-15.099 0,0 16.935,9.374 20.072,15.95 z" /><path
           style="opacity:0.80000000000000004;fill:#ffffff"
           inkscape:connector-curvature="0"
           id="path10123"
           d="m 676.76,110.949 c 0,0 -9.38,-6.282 -10.497,-11.099 0,0 2.589,6.001 10.197,9.387 0,0 1.677,-1.901 -4.727,-6.162 0,0 7.469,3.799 6.941,6.982 0,0 -2.287,-0.723 -1.914,0.892 z" /><path
           style="opacity:0.80000000000000004;fill:#ffffff"
           inkscape:connector-curvature="0"
           id="path10125"
           d="m 679.745,110.17 c 0,0 0.45,-1.64 -1.668,-3.591 0,0 3.596,3.27 4.34,4.922 l -2.672,-1.331 z" /><path
           style="opacity:0.80000000000000004;fill:#ffffff"
           inkscape:connector-curvature="0"
           id="path10127"
           d="m 666.421,103.383 c 0,0 -3.619,-3.185 -4.196,-6.539 0,0 1.241,3.276 4.196,6.539 z" /><path
           style="opacity:0.80000000000000004;fill:#ffffff"
           inkscape:connector-curvature="0"
           id="path10129"
           d="m 673.538,106.451 c 0,0 -3.555,-2.015 -4.604,-4.428 0,0 3.932,2.669 4.604,4.428 z" /><path
           style="opacity:0.80000000000000004;fill:#ffffff"
           inkscape:connector-curvature="0"
           id="path10131"
           d="m 665.395,98.391 c 0,0 4.084,2.113 7.09,4.26 -10e-4,0 -2.479,-2.664 -7.09,-4.26 z" /></g><polygon
         style="opacity:0.33000000000000002;fill:#ffffff"
         id="polygon9909-2"
         points="527.689,70.652 530.471,73.249 530.167,76.666 532.659,73.997 535.811,74.277 533.513,72.132 533.842,68.434 531.459,70.987 "
         transform="translate(84.717665,-33.993179)" /><polygon
         style="opacity:0.33000000000000002;fill:#ffffff"
         id="polygon9913-3"
         points="496.926,70.652 499.709,73.249 499.405,76.666 501.896,73.997 505.049,74.277 502.75,72.132 503.079,68.434 500.696,70.987 "
         transform="translate(84.717665,-33.993179)" /><polygon
         style="opacity:0.33000000000000002;fill:#ffffff"
         id="polygon9937-4"
         points="563.462,69.236 564.821,70.579 564.618,72.289 565.907,70.986 567.485,71.173 566.363,70.063 566.582,68.212 565.349,69.459 "
         transform="translate(84.717665,-33.993179)" /></g><polygon
       transform="translate(84.717665,-33.993179)"
       points="589.138,64.94 591.361,64.991 592.557,66.599 592.605,64.467 594.089,63.364 592.253,63.322 590.959,61.581 590.912,63.621 "
       id="polygon9939-5"
       style="opacity:0.50000000000000000;fill:#ffffff" /><polygon
       transform="translate(84.717665,-33.993179)"
       points="559.512,55.43 561.422,55.473 562.45,56.855 562.492,55.023 563.767,54.075 562.189,54.039 561.077,52.543 561.037,54.296 "
       id="polygon9943-9"
       style="opacity:0.50000000000000000;fill:#ffffff" /><polygon
       transform="translate(84.717665,-33.993179)"
       points="560.752,48.245 563.193,49.706 563.508,52.252 564.909,49.909 567.258,49.619 565.241,48.412 564.9,45.657 563.559,47.898 "
       id="polygon9945-5"
       style="opacity:0.50000000000000000;fill:#ffffff" /><polygon
       transform="translate(122.14051,-0.20866667)"
       points="577.546,52.819 576.429,55.924 579.398,54.049 582.262,55.079 580.648,52.522 581.856,49.162 579.016,50.956 575.591,49.725 "
       id="polygon9947-4"
       style="opacity:0.80000000000000004;fill:#ffffff" /><polygon
       transform="translate(84.717665,-33.993179)"
       points="493.677,48.151 496.316,49.049 497.141,51.422 498.002,48.891 500.191,48.13 498.011,47.389 497.119,44.82 496.295,47.242 "
       id="polygon9951-5"
       style="opacity:0.50000000000000000;fill:#ffffff" /><polygon
       transform="translate(84.717665,-33.993179)"
       points="512.799,50.185 515.57,50.488 516.891,52.626 517.181,49.968 519.154,48.749 516.865,48.499 515.436,46.185 515.158,48.728 "
       id="polygon9953-4"
       style="opacity:0.50000000000000000;fill:#ffffff" /><polygon
       transform="translate(16.725162,-49.796842)"
       points="527.406,65.931 527.183,68.434 529.007,66.479 531.316,66.684 529.633,65.113 529.874,62.404 528.129,64.275 525.368,64.029 "
       id="polygon9955-0"
       style="opacity:0.50000000000000000;fill:#ffffff" /><polygon
       transform="translate(84.717665,-33.993179)"
       points="526.491,43.683 528.695,45.74 528.454,48.447 530.428,46.333 532.925,46.555 531.104,44.856 531.365,41.926 529.477,43.949 "
       id="polygon9975-4"
       style="opacity:0.50000000000000000;fill:#ffffff" /></g><polygon
     style="fill:#6d8d90"
     id="polygon10134"
     points="292.333,251.167 284.333,267.833 249.667,229.833 165.667,243.833 81.667,256.587 37,218.044 15,244.5 22.333,265.833 15,273.833 22.333,287.833 15,303.5 380.536,303.5 337,243.833 " /><polygon
     style="fill:#46737b"
     id="polygon10136"
     points="32.25,262 30.5,278 43.5,293.5 52.25,286.264 46.25,279.25 56.25,255.772 64.25,253.5 87.75,291 112.25,295.167 118.25,279 155,278.5 171.5,296.25 247.25,293.25 255.653,303.5 204.882,306.234 166.333,311.875 153,315.625 142.438,315.625 131.375,310.375 129.875,303.583 87.333,303.5 44.333,314.417 20.333,311.875 15,303.5 22.333,287.833 15,273.833 22.333,265.833 15,244.5 37,218.044 24,246 " /><polygon
     style="fill:#f0f0f0"
     id="polygon10138"
     points="198.951,223 206.5,182.039 188.5,176.972 194.5,158 181,147.5 168.779,164.111 155,167.657 155,136 138.5,136 121.5,160 65.5,150.5 44.5,158 53,179.054 44.5,198.286 54,225 41.667,243.673 52.5,268.038 58.5,295.167 83.5,299 81.5,282.62 98,289.751 106,281.538 99.917,264.697 136.5,268.038 132.167,288.917 158,299 163,268.038 210,267.663 205,295.167 250,299 260,289.751 259.5,260.979 295.5,293 327.5,295.167 349.618,289.751 219,215.488 " /><polygon
     style="fill:#ccd6dd"
     id="polygon10140"
     points="157,262.833 145,218.044 136.667,253.5 102.166,255.167 86,225.833 74.408,248.5 91.333,250.254 91.333,270.167 74.408,265.5 73,281.833 68.333,281.833 49.667,247.833 62.667,228.833 53.667,201.833 57.333,185.111 47.15,164.564 53,179.054 44.5,198.286 54,225 41.667,243.673 52.5,268.038 58.5,295.167 83.5,299 81.5,282.62 98,289.751 106,281.538 99.917,264.697 136.5,268.038 124.33,289.022 146.167,303.583 158.5,301.583 160.5,295.167 162.665,271.672 159.333,275.064 157,292.5 147.667,292.5 " /><path
     style="fill:#ccd6dd"
     inkscape:connector-curvature="0"
     id="path10142"
     d="m 188.5,176.972 6,-18.972 -13.5,-10.5 2.125,11 4.875,6.064 -6.25,11.936 -1.376,5.846 -7.624,1.779 V 173.25 L 178.375,170 175,164.564 158.25,176.5 c 0,0 4.5,19.75 5.125,20.125 0.625,0.375 11,3.375 11,3.375 l 8.875,-2.5 0.312,-6.646 3.355,0.604 0.417,-8.708 12.458,0.25 3.458,5.292 -5.85,5.009 6.766,1.199 2.333,-12.461 -17.999,-5.067 z" /><polygon
     style="fill:#ccd6dd"
     id="polygon10144"
     points="148.25,139.5 152.625,144.938 152.625,148.5 147.625,147.5 147.063,150.938 154,154 155,151.75 155,136 138.5,136 129.875,147.5 136.188,150.375 136.75,144.25 " /><path
     style="fill:#ccd6dd"
     inkscape:connector-curvature="0"
     id="path10146"
     d="m 68,208 v 27.687 l -9.75,7.063 8,10.75 L 76,231.782 V 205.5 l 22.875,2.75 1.375,21.25 13.5,2.282 L 133,215 c 0,0 -9.75,-23 -9.75,-23.75 0,-0.75 -39.5,-9.75 -39.5,-9.75 l -0.5,-28 -17.75,-3 -11.624,4.152 v 5.598 l 16.624,-1 -1.75,12.275 L 64.5,197 68,208 z" /><polygon
     style="fill:#adbcb3"
     id="polygon10148"
     points="532.053,217.705 527.535,198.857 543.913,173.59 539.395,156.647 561.42,144.44 581.186,144.44 589.093,173.59 576.668,184.071 578.927,198.857 597.564,189.45 613.377,201.332 611.118,213.655 631.449,226.205 631.449,245.031 610.553,259.577 628.061,284.476 572.15,291.648 524.711,273.121 490,250.5 " /><path
     style="fill:none"
     inkscape:connector-curvature="0"
     id="path10150"
     d="m 607.375,215.917 2,-5.625 -4.5,-3.25 -0.375,7.792 -5.792,-1.458 -2.292,-8 5.583,-5.25 -5.208,-4.333 -11.208,4.875 -7.25,15.667 -15.667,-6 -0.5,-21.833 7.083,-4.333 -2.833,-6.083 -5.692,-9.132 1.109,-6.908 7.167,-7.546 5.5,2.667 -1.833,3.626 2.167,0.957 7.583,-0.25 -2.167,-13.25 -18.667,-1.417 -14.917,8.75 3.334,18.334 -14.047,15.595 5.464,1.821 2.667,4.083 -1.25,6.417 6.083,1 2.583,4.917 -2.75,5.833 5.25,13.917 c 0,0 -2.046,2.558 -3.453,4.384 l 17.328,9.616 5.875,-13.5 8.125,0.75 5.208,3.25 0.917,-5.875 6.125,-6.375 8.75,2.375 -2,6.5 7.125,6.5 -2.875,7.875 10.75,-14.125 0.449,-6.022 -1.033,0.897 -7.916,-7.833 z" /><path
     style="fill:#93a49f"
     inkscape:connector-curvature="0"
     id="path10152"
     d="m 618.181,221.24 2.194,-1.906 -9.257,-5.679 2.259,-12.322 -15.813,-11.883 -18.651,9.315 -2.245,-14.694 12.424,-10.481 -7.906,-29.15 H 561.42 l -22.025,12.207 4.518,16.943 -16.378,25.267 4.518,18.848 -10.741,8.376 11.938,13.002 c 0,0 5.795,-1.851 10.41,-3.392 l 11.09,4.809 13.125,16.456 9,7.544 23.375,-8.125 21.75,-9.875 0.75,-23.25 -4.569,-2.01 z m -2.306,7.635 -10.75,14.125 2.875,-7.875 -7.125,-6.5 2,-6.5 -8.75,-2.375 -6.125,6.375 -0.917,5.875 -5.208,-3.25 -8.125,-0.75 -5.875,13.5 -17.328,-9.616 C 551.954,230.059 554,227.5 554,227.5 l -5.25,-13.917 2.75,-5.833 -2.583,-4.917 -6.083,-1 1.25,-6.417 -2.667,-4.083 -5.464,-1.821 14.047,-15.595 -3.333,-18.333 14.917,-8.75 18.667,1.417 2.167,13.25 -7.583,0.25 -2.167,-0.957 1.833,-3.626 -5.501,-2.668 -7.167,7.543 -1.109,6.908 5.692,9.132 2.833,6.083 -7.083,4.333 0.5,21.833 15.667,6 7.25,-15.667 11.208,-4.875 5.208,4.333 -5.583,5.25 2.292,8 5.792,1.458 0.375,-7.792 4.5,3.25 -2,5.625 7.917,7.833 1.033,-0.897 -0.45,6.025 z" /><polygon
     style="fill:#f07e51"
     id="polygon10154"
     points="636,208.018 645,186.994 659,189.755 673,194.902 673,174.5 685,163.429 700,172.5 704,154.651 735.5,148.5 738,137.737 752.5,134.604 763.5,104.776 800,104.776 800,240.5 784.333,260.5 768.333,256.587 772.333,278.5 762.333,291.648 706.333,303.5 589,272.5 589,237.5 " /><polygon
     style="fill:#f07e51"
     id="polygon10156"
     points="205,194.643 171,188.639 167.667,151.833 116.333,143.167 100.333,124.5 41.667,175.165 74.333,237.375 109.667,218.052 123.667,237.497 97,268.038 132.333,295.167 176.333,274.723 217.667,295.167 249,264.697 275,281.538 356.234,295.167 245.667,185.111 " /><polygon
     style="fill:#ea5046"
     id="polygon10158"
     points="130.625,237.25 105.75,208.5 77.5,217.5 60.375,176.083 98.125,136 115.625,150 116.333,143.167 100.333,124.5 41.667,175.165 74.333,237.375 109.653,218.059 123.667,237.497 97,268.038 109.569,278.638 121.25,292 134.522,298.69 173.875,275.938 142.5,278.563 123.5,266.5 " /><polygon
     style="fill:#ea5046"
     id="polygon10160"
     points="148.5,266.5 188,272.75 226.5,268.115 190,265.5 167.333,257.358 165,227.51 197.768,216 220.75,226.875 199.667,230.167 198.951,237.25 190,239.667 198.951,244.626 244.375,235.875 297.861,259.881 301.25,259.125 207.5,209.833 168,205.951 142.438,226.5 " /><polygon
     style="fill:#ea5046"
     id="polygon10162"
     points="347.75,298.333 359.917,299 245.667,185.111 221.417,187.333 205,194.643 171,188.639 167.667,151.833 116.333,143.167 102.112,157.5 98.875,184 115.5,209 141.5,218.625 148.875,207.625 147.375,180.896 138,187.75 136.333,200.917 119,199.167 109,173.375 121.5,151.75 137.504,150.629 161.25,159 167,200 204.417,202 218,216 222.19,217.301 217,202.472 221.333,195.5 243,193.464 331.968,273.772 " /><polygon
     style="fill:#adbcb3"
     id="polygon10164"
     points="305.833,270.333 294.5,262.25 274.313,265.625 269.438,255.438 254.563,248.375 243,248.5 240.333,235.833 232.333,225.941 239,211.359 219.667,203.5 195.642,208.018 197.768,225.931 213.667,238.5 178.333,243.167 178.333,256.587 184.5,266.75 169.639,271 169.639,299 175.667,303.5 341.667,303.5 304.764,282.929 " /><polygon
     style="fill:none"
     id="polygon10166"
     points="281.333,286.264 269.833,281.5 268,271.833 273.1,267.488 269.5,257.344 254.875,250.254 246.806,250.254 242.352,255.544 241.667,263 250.833,265.667 263,294.625 312.125,299.875 291.667,280.5 282.833,278.5 " /><path
     style="fill:#ea5046"
     inkscape:connector-curvature="0"
     id="path10168"
     d="m 763.5,104.776 -11,29.827 -14.5,3.134 -2.5,10.763 -31.5,6.151 -4,17.849 -15,-9.071 -12,11.071 v 20.402 l -14,-5.147 -14,-2.761 -9,21.024 -47,29.482 v 35 l 10.167,-14.167 0.667,-19 41,-19.667 L 647,200 l 15.333,5.167 14.833,17.5 20.833,-8 -9.167,-15.333 9.168,-11.667 13.833,8.333 15.833,6.833 c 0,0 11.833,-20 11.833,-20.5 0,-0.5 -4,-10.809 -4,-10.809 l 18.75,-3.025 15.932,10.509 8.569,-14.008 7,-18.167 14.25,2.417 v -44.474 h -36.5 z" /><polygon
     style="fill:#ea5046"
     id="polygon10170"
     points="633.333,262.25 633.333,251.5 647.333,236.167 664.667,243 721,245.167 741.667,221 777,205.951 792.333,215.833 800,204.138 800,240.5 784.333,260.5 757.333,250.5 749.333,267.167 751.333,291.648 696,297.167 614.333,275.167 620.333,262.25 " /><polygon
     style="fill:#ea5046"
     id="polygon10172"
     points="794.167,189.833 800,196.833 800,170.333 794.167,175.167 " /><polygon
     style="fill:#6d8d90"
     id="polygon10174"
     points="520.333,254.726 528.333,233.072 557.667,218.044 576.333,238.5 576.333,261.833 598.333,254.726 633.667,276.5 649,241.833 673,245.167 679,218.044 713.667,217.5 725.667,233.072 719.667,279.167 743.667,289.167 734.333,303.5 396.116,303.5 425.723,289.167 477,233.072 " /><polygon
     style="fill:#46737b"
     id="polygon10176"
     points="694.044,217.5 688,243.833 674.667,273.167 654,268.115 649,241.833 633.667,276.5 598.333,254.726 592.333,260.5 606.5,273.667 601.167,282.667 581.667,286.5 564.833,262.25 576.333,261.833 576.333,238.5 557.667,218.044 545.683,224.183 560.725,235.687 560.725,253.5 548.667,248.833 538.333,254.726 540,271.167 546.667,281.5 523.512,292.412 516.833,273.833 490,239.568 477,233.072 471.544,239.04 484.833,244.833 478.189,258.5 464.833,262.25 469.5,276.5 490,284 518.624,298.158 520.333,303.5 611.5,303.5 620.5,309.75 636.25,314 648.5,314 650.25,309.75 663,303.5 699.333,303.5 709.333,287.833 693,278.167 709.333,246.207 703.462,218.075 " /><polygon
     style="fill:#f0f0f0"
     id="polygon10178"
     points="402.25,269.25 405.917,253.5 421,244.75 435.926,275.064 459.667,268.115 466.018,289.833 479.878,284.012 501.667,281.5 507.625,273.5 483.5,260.772 490,239.568 511.5,221 539.5,235.5 551.5,271.5 529.5,283 537,303.5 380.536,303.5 389.883,277.866 " /><polygon
     style="fill:#f0f0f0"
     id="polygon10180"
     points="677,209.674 701.667,221 723.667,185.167 743.667,189.167 749.667,175.167 769.667,175.167 773,200 749,219.75 773.25,229.625 787.667,227.51 792.333,260.772 783.667,277.167 743.667,281.167 772.333,299.333 773,303.5 768,307.5 752.25,307.5 737.667,309.75 663,303.5 669.667,277.5 659.667,227.155 " /><polygon
     style="fill:#ccd6dd"
     id="polygon10182"
     points="775.019,232.882 785.25,230.438 789.333,258.333 779,272.5 748.833,275.167 748.833,269.667 755.833,261.333 750,260.5 740.333,264.5 743.667,281.167 783.667,277.167 792.333,260.772 787.667,227.51 774.063,228.75 " /><polygon
     style="fill:#ccd6dd"
     id="polygon10184"
     points="755.667,217.5 755.508,215.016 773,200 769.667,175.167 765.917,175.167 763.625,199 755.067,208.128 754.833,204.47 743.667,189.167 723.667,185.167 701.667,221 677,209.674 659.667,227.155 660.358,230.633 678.667,216.167 694.5,223.833 700.251,246.537 685,252.25 669.667,277.5 663,303.5 737.667,309.75 687,299.333 685,278.75 705.178,254.339 715.25,260.5 716.25,270.25 723,270.25 726,260.5 709.48,247.663 703.333,233.833 714.167,208.167 731,191.167 748.167,205.833 751,216.167 744.833,218.044 746.905,220.668 736.125,225.875 730.25,241.125 730.25,254.339 733.625,255 738.833,233.167 750.125,224.5 770.75,229.625 769.25,243.25 760.458,250.652 749.25,248 749.5,243.375 745.875,241.5 743.667,249.5 754.875,255 769.625,252 777.25,233.875 774.125,225.625 751.897,219.052 " /><g
     id="g10186"><path
       style="fill:#93a49f"
       inkscape:connector-curvature="0"
       id="path10188"
       d="m 223.5,280.75 1.25,6.125 5.5,-2.375 0.5,5.75 -14.25,-0.625 -4.75,8 -27.375,1.708 -9,-8.708 1.5,-15 15.125,3.625 -8,13.333 c 0,0 8.661,-1.897 9.144,-2.022 0.483,-0.125 2.498,-7.895 2.498,-7.895 l 17.17,-0.542 17.337,-9.822 0,0 -8.263,-27.646 -22.157,-4.316 -21.396,2.826 v 13.42 l 6.167,10.163 21.875,6 10.25,-10.75 -5.5,-8.5 -14.75,12 L 182.75,251.249 194,243 l 25.875,8.5 3.25,18.875 -18.625,7.875 -26.167,-9.737 -8.694,2.487 v 28 l 6.028,4.5 h 40.208 l 9,-4.5 -0.875,-4.375 10.75,-0.5 5.375,-8.625 -4.375,-8.125 -12.25,3.375 z" /><path
       style="fill:#93a49f"
       inkscape:connector-curvature="0"
       id="path10190"
       d="m 304.764,282.929 1.07,-12.596 -11.334,-8.083 -17.5,1.917 -0.637,0.543 -2.238,-9.209 -16.625,-11 -15.107,1.119 -2.06,-9.786 -8,-9.893 6.667,-14.582 -19.333,-7.859 -24.024,4.518 2.126,17.913 15.899,12.569 9.458,-4 -1.875,-17.375 -7.125,-1.75 -1.313,2.669 5.062,13.956 -11.5,-4 -4.375,-9.956 7.75,-10.044 18.25,4.75 -0.125,15 6,11.625 4,4.125 -1,20.875 9.5,7.375 4.717,6.325 -9.759,9.758 v 12.333 L 251.5,303.5 h 4.153 l 0.847,-6.333 -3.333,2.167 -8.333,-0.833 0.833,-8.25 9.986,-0.446 2.722,7.696 22.125,6 h 61.167 L 304.764,282.929 z M 263,294.625 250.833,265.667 241.667,263 l 0.686,-7.456 4.454,-5.29 h 8.069 l 14.625,7.09 3.6,10.144 -5.1,4.345 1.833,9.667 11.5,4.764 1.5,-7.764 8.833,2 20.458,19.375 -49.125,-5.25 z" /></g><polygon
     style="fill:#ccd6dd"
     id="polygon10192"
     points="406.25,273.25 397.625,280.375 401.125,298.375 451.125,301.875 461.625,299 458.125,275.875 440.125,281.063 444.813,288.063 439.5,289.188 434.375,281.125 435.926,275.064 459.667,268.115 474.25,300.083 476.583,295.833 486.375,301.25 495.6,297.142 493.736,287.528 478.917,284.25 490,281.5 501.667,281.5 514.667,296.583 526.75,300.75 518.833,287.667 524,276.875 544.25,269.125 535.953,237.625 511.625,229.375 496.25,240.875 493.625,263.125 505.875,269.875 507.762,262.25 511.625,262.875 511.875,271.875 508,274.625 488.875,267.125 483.5,260.772 490,239.568 511.5,221 539.5,235.5 551.5,271.5 529.5,283 537,303.5 537,307.083 530.5,309.75 518,309.083 504.5,303.5 380.536,303.5 389.883,277.866 402.25,269.25 405.917,253.5 421,244.75 408.375,256.956 " /><path
     style="fill:#ea5046"
     inkscape:connector-curvature="0"
     id="path10194"
     d="M 130.625,237.25" /><rect
     style="fill:#00212e"
     y="608.29761"
     x="-38.095238"
     id="rect9792-5"
     height="303.5"
     width="800" /><path
     style="fill:#002633"
     inkscape:connector-curvature="0"
     id="path9794-6"
     d="m 112.17276,608.29761 c -62.295998,18.677 -114.070998,44.297 -150.267998,74.512 v 156.121 H 761.90476 v -145.744 c -36.301,-34.736 -92.594,-64.109 -161.907,-84.889 h -487.825 z" /><path
     style="fill:#003745"
     inkscape:connector-curvature="0"
     id="path9796-5"
     d="m 761.90476,911.79761 v -163.038 c -73.128,-78.278 -227.364,-132.231 -405.811,-132.231 -169.484,0 -317.130998,48.669 -394.188998,120.624 v 174.645 H 761.90476 z" /><path
     style="fill:#004b60"
     inkscape:connector-curvature="0"
     id="path9798-0"
     d="m 756.55976,911.79361 c -81.989,-103.788 -228.081,-172.873 -394.655,-172.873 -166.574,0 -312.664998,69.085 -394.654998,172.873 H 756.55976 z" /><g
     id="g8301"><path
       sodipodi:nodetypes="sscss"
       d="m 400,260.772 c -31.94789,0 -17.25194,57.83827 -6.98707,89.07107 3.79662,11.55193 8.74078,19.2137 8.74078,19.2137 0,0 1.67501,-8.25268 5.65332,-20.49895 C 417.64199,317.05204 431.51459,260.772 400,260.772 z"
       id="path10196"
       inkscape:connector-curvature="0"
       style="fill:#80cff5;fill-opacity:1;stroke:#6dc8f3;stroke-opacity:1" /><path
       sodipodi:nodetypes="sscss"
       d="m 400,271.73113 c -19.87549,0 -11.21026,33.57917 -4.74215,52.51865 2.54056,7.43907 4.17223,22.02324 4.17223,22.02324 0,0 2.94003,-14.98071 5.59972,-22.87103 6.42997,-19.07532 14.55242,-51.67086 -5.0298,-51.67086 z"
       id="path10198"
       inkscape:connector-curvature="0"
       style="opacity:0.42857145;fill:url(#linearGradient8159);fill-opacity:1;stroke:none" /><path
       inkscape:connector-curvature="0"
       id="path8135"
       d="m 400.46283,261.33683 c 0,0 10.90358,-0.70346 15.47605,8.61733 4.57246,9.3208 3.16556,25.85203 2.81382,29.54518 -0.35172,3.69315 -3.51728,20.75197 -4.04487,23.0382 -0.5276,2.28624 12.31049,-59.09035 -14.245,-61.20071 z"
       style="opacity:0.26785715;fill:#59c0f2;fill-opacity:1;stroke:none" /></g><g
     id="Calque_1"
     transform="matrix(0.95160714,0,0,0.95160714,19.35713,20.207138)"><circle
       cx="399.828"
       cy="117.447"
       r="20.948999"
       id="circle10201"
       sodipodi:cx="399.828"
       sodipodi:cy="117.447"
       sodipodi:rx="20.948999"
       sodipodi:ry="20.948999"
       style="fill:#80b39b"
       d="m 420.777,117.447 c 0,11.56981 -9.37918,20.949 -20.949,20.949 -11.56981,0 -20.949,-9.37919 -20.949,-20.949 0,-11.56981 9.37919,-20.949001 20.949,-20.949001 11.56982,0 20.949,9.379191 20.949,20.949001 z" /><g
       id="g10203"><path
         d="m 390.816,127.434 c 0,0 0.59,-0.401 0.778,-0.489 0.189,-0.088 5.046,0.871 5.046,0.871 l 0.28,0.347 0.271,0.33 0.151,0.255 -3.058,0.641 -3.09,-0.733 -0.432,-0.886 0.054,-0.336 z"
         id="path10205"
         inkscape:connector-curvature="0"
         style="fill:#628ea0" /><polygon
         points="414.722,124.448 411.484,125.379 411.743,125.721 413.51,126.324 415.151,125.093 414.465,124.283 "
         id="polygon10207"
         style="fill:#628ea0" /><path
         d="m 413.872,127.887 c -0.512,-0.261 -1.203,-0.919 -2.129,-2.166 -0.346,-0.466 -0.779,-0.837 -1.275,-1.127 -0.044,0.097 -0.105,0.232 -0.155,0.341 -0.048,-0.005 -0.094,-0.009 -0.143,-0.016 -1.055,-0.135 -1.948,-0.285 -2.557,-0.47 -2.408,0.359 -5.258,0.803 -7.368,1.192 -0.065,0.534 -0.557,1.512 -3.057,2.294 -0.105,0.033 -0.208,0.06 -0.311,0.086 0.111,0.439 0.363,0.675 0.363,0.675 0,0 -0.023,0.788 -0.683,1.643 0.01,0.05 0.017,0.081 0.017,0.081 l 3.867,15.553 14.942,-1.622 c -0.079,-3.401 -1.164,-13.947 -1.47,-16.184 -0.012,-0.097 -0.027,-0.187 -0.041,-0.28 z"
         id="path10209"
         inkscape:connector-curvature="0"
         style="fill:#ffffff" /><path
         d="m 404.71,131.454 -0.164,0.896 c 0,0 2.12,-1.758 3.927,-1.293 l -0.544,-0.5 -3.213,0.871"
         id="path10211"
         inkscape:connector-curvature="0"
         style="fill:#cfe1eb" /><path
         d="m 398.335,127.65 c 0,0 4.889,-1.633 5.769,-6.236 0,0 2.543,3.542 7.366,3.806 -3.639,5.622 -13.135,2.43 -13.135,2.43 z"
         id="path10213"
         inkscape:connector-curvature="0"
         style="fill:#fdd08f" /><g
         id="g10215"><path
           d="m 404.723,128.537 c -3.318,0.143 -6.388,-0.887 -6.388,-0.887 0,0 4.889,-1.633 5.769,-6.236 0,0 1.953,2.72 5.683,3.57 -0.509,1.064 -1.801,2.634 -5.064,3.553 z"
           id="path10217"
           inkscape:connector-curvature="0"
           style="fill:none" /><path
           d="m 409.787,124.984 c 0.526,0.12 1.087,0.203 1.684,0.236 -1.57,2.426 -4.23,3.209 -6.748,3.318 3.263,-0.92 4.555,-2.49 5.064,-3.554 z"
           id="path10219"
           inkscape:connector-curvature="0"
           style="fill:#f7ae83" /></g><path
         d="m 388.227,112.105 0.472,-2.739 c 1.639,-8.561 10.517,-9.251 14.878,-8.732 4.36,0.519 6.997,5.557 7.147,10.047 0.148,4.46 4.357,8.329 4.413,8.38 0.107,0.195 0.17,0.304 0.17,0.304 0,0 -7.685,2.089 -9.242,0.838 -1.557,-1.251 -8.28,4.623 -8.28,4.623 0,0 -1.277,-0.166 -2.989,-1.369 -1.02,0.946 -2.629,2.19 -3.443,1.775 -1.236,-0.629 -0.838,-1.077 -0.429,-3.218 0.21,-1.097 -0.255,-2.639 -0.758,-3.883 -0.367,-0.652 -0.696,-1.342 -0.978,-2.071 -0.008,-0.014 -0.013,-0.024 -0.013,-0.024 0,0 0.002,-0.003 0.003,-0.004 -0.462,-1.198 -0.794,-2.503 -0.951,-3.927 z"
         id="path10221"
         inkscape:connector-curvature="0"
         style="fill:#fdd08f" /><ellipse
         transform="matrix(0.9949,-0.1004,0.1004,0.9949,-9.1622,40.7361)"
         cx="400.09601"
         cy="111.387"
         rx="0.57599998"
         ry="2.131"
         id="ellipse10223"
         sodipodi:cx="400.09601"
         sodipodi:cy="111.387"
         sodipodi:rx="0.57599998"
         sodipodi:ry="2.131"
         style="fill:#2b4d5a"
         d="m 400.67201,111.387 c 0,1.17692 -0.25789,2.131 -0.576,2.131 -0.31812,0 -0.576,-0.95408 -0.576,-2.131 0,-1.17692 0.25788,-2.131 0.576,-2.131 0.31811,0 0.576,0.95408 0.576,2.131 z" /><ellipse
         transform="matrix(0.9561,-0.293,0.293,0.9561,-14.6402,123.2917)"
         cx="404.18701"
         cy="110.51"
         rx="1.058"
         ry="2.677"
         id="ellipse10225"
         sodipodi:cx="404.18701"
         sodipodi:cy="110.51"
         sodipodi:rx="1.058"
         sodipodi:ry="2.677"
         style="fill:#2b4d5a"
         d="m 405.24501,110.51 c 0,1.47847 -0.47368,2.677 -1.058,2.677 -0.58432,0 -1.058,-1.19853 -1.058,-2.677 0,-1.47846 0.47368,-2.677 1.058,-2.677 0.58432,0 1.058,1.19854 1.058,2.677 z" /><path
         d="m 389.273,116.928 c 0,0 0.478,-1.485 1.111,-1.12 0,0 0.217,0.106 0.569,0.326 0.022,0.029 0.046,0.06 0.071,0.094 -0.062,0.022 -0.097,0.036 -0.097,0.036 0,0 2.481,2.8 1.523,5.35 -0.554,1.474 -0.297,3.022 0.036,4.067 -0.283,-0.102 -0.537,-0.226 -0.738,-0.364 -1.534,-1.049 -1.219,-2.023 -1.219,-2.023 0,0 1.133,-3.469 -1.256,-6.366 z"
         id="path10227"
         inkscape:connector-curvature="0"
         style="fill:#f7ae83" /><path
         d="m 390.063,111.497 c 0,0 -5.288,-1.967 -5.706,-1.367 -0.418,0.599 0.132,2.698 1.059,4.534 0.927,1.835 2.046,3.122 5.477,1.792 3.431,-1.33 -0.83,-4.959 -0.83,-4.959 z"
         id="path10229"
         inkscape:connector-curvature="0"
         style="fill:#fdd08f" /><path
         d="m 388.116,112.357 c 0,0 -2.778,-1.922 -2.68,-0.608 0.098,1.314 0.712,2.637 1.912,3.199 0,0 0.398,0.151 -0.121,-0.434 -0.518,-0.586 -1.407,-2.474 -0.988,-2.316 0.419,0.158 2.884,0.77 1.877,0.159 z"
         id="path10231"
         inkscape:connector-curvature="0"
         style="fill:#f7ae83" /><path
         d="m 388.939,114.031 c 0,0 0.239,0.536 -0.344,0.581 -0.584,0.045 -0.442,0.677 -0.005,0.656 0.437,-0.021 1.125,-0.988 0.349,-1.237 z"
         id="path10233"
         inkscape:connector-curvature="0"
         style="fill:#f7ae83" /><path
         d="m 394.925,128.784 c -1.669,-0.131 -3.133,-0.644 -4.109,-1.35 -2.672,1.725 -6.826,5.225 -9.437,9.471 l 0.416,4.895 24.788,2.354 -9.342,-15.457 c -0.714,0.115 -1.497,0.151 -2.316,0.087 z"
         id="path10235"
         inkscape:connector-curvature="0"
         style="fill:#529eb2" /><path
         d="m 406.427,137.07 c 0.053,0.447 0.682,6.169 0.799,7.242 l 6.899,-0.404 c -1.143,-2.329 -5.328,-10.429 -6.451,-11.373 l 0.255,-1.977 c 0,0 -1.264,-1.465 -2.15,-0.79 -0.886,0.676 -1.069,1.687 -1.069,1.687 l 1.859,1.672 c 0,0 -0.26,2.94 -0.142,3.943 z"
         id="path10237"
         inkscape:connector-curvature="0"
         style="fill:#167c9c" /><path
         d="m 425.683,143.25 -1.606,-7.524 c -0.35,-0.83 -0.784,-1.68 -1.323,-2.509 -2.006,-3.089 -3.806,-6.364 -7.604,-8.124 -0.83,0.286 -1.875,0.504 -3.025,0.602 -0.13,0.011 -0.256,0.016 -0.384,0.023 l 0.001,0.004 c 0,0 3.654,7.464 2.133,16.95 l 11.808,0.578 z"
         id="path10239"
         inkscape:connector-curvature="0"
         style="fill:#529eb2" /><path
         d="m 398.774,129.528 c 0,0 3.147,2.479 4.99,2.681 l -0.585,0.559 c -10e-4,0 -2.923,-1.423 -4.405,-3.24 z"
         id="path10241"
         inkscape:connector-curvature="0"
         style="fill:#cfe1eb" /><path
         d="m 408.97,131.088 0.828,0.554 c 0,0 1.704,-3.134 1.508,-4.478 0,0.001 -1.109,3.663 -2.336,3.924 z"
         id="path10243"
         inkscape:connector-curvature="0"
         style="fill:#cfe1eb" /><polygon
         points="394.973,133.225 391.741,130.623 394.306,128.033 394.009,127.965 391.179,130.57 394.315,133.22 392.536,136.053 403.639,143.873 404.562,144.116 393.056,135.998 "
         id="polygon10245"
         style="fill:#195e72" /><polygon
         points="415.285,129.001 416.031,126.663 412.894,125.241 412.569,125.293 415.566,126.802 414.936,129.031 417.023,130.76 415.753,142.893 416.132,142.781 417.519,130.495 "
         id="polygon10247"
         style="fill:#195e72" /><path
         d="m 420.709,134.239 -0.124,-0.279 c 0,0 -1.663,0.843 -3.627,0.901 l -0.016,0.144 -0.054,0.061 c 2.725,-0.21 3.821,-0.827 3.821,-0.827 z"
         id="path10249"
         inkscape:connector-curvature="0"
         style="fill:#195e72" /><path
         d="m 421.284,135.757 c -0.103,-0.548 -0.297,-1.024 -0.454,-1.349 l -10e-4,-0.002 -0.002,-0.002 c -0.135,-0.277 -0.242,-0.444 -0.242,-0.444 l 0.013,0.155 c 0.014,0.021 0.028,0.045 0.042,0.07 l -0.034,0.023 c 0,0 0.449,1.183 0.493,1.652 l 0.125,-0.058 -0.003,-0.017 0.063,-0.028 z"
         id="path10251"
         inkscape:connector-curvature="0"
         style="fill:#34606f" /><path
         d="m 421.27,135.686 c -0.019,0.026 -0.053,0.051 -0.1,0.077 l -0.004,-0.013 c 0,0 -1.327,0.525 -4.427,0.728 l 0.005,0.06 c -0.013,10e-4 -0.022,0.002 -0.022,0.002 l 0.009,0.111 c 1.917,-0.146 4.56,-0.712 4.56,-0.712 0.037,-0.083 -0.021,-0.253 -0.021,-0.253 z"
         id="path10253"
         inkscape:connector-curvature="0"
         style="fill:#34606f" /><path
         d="m 409.949,107.419 2.152,-2.321 c 0,0 0.671,-0.529 0.726,1.173 0.055,1.702 0.62,5.488 -1.61,5.284 -2.23,-0.205 -1.268,-4.136 -1.268,-4.136 z"
         id="path10255"
         inkscape:connector-curvature="0"
         style="fill:#fdd08f" /><g
         id="g10257"><path
           d="m 410.196,110.123 c 0.782,0.15 1.717,-3.887 1.972,-5.065 0.171,-0.082 0.615,-0.158 0.659,1.213 0.055,1.702 0.62,5.488 -1.61,5.284 -0.906,-0.083 -1.285,-0.781 -1.416,-1.58 0.115,0.067 0.245,0.119 0.395,0.148 z"
           id="path10259"
           inkscape:connector-curvature="0"
           style="fill:none" /><path
           d="m 410.196,110.123 c -0.15,-0.029 -0.28,-0.081 -0.395,-0.149 -0.192,-1.169 0.148,-2.556 0.148,-2.556 l 2.152,-2.321 c 0,0 0.026,-0.02 0.067,-0.04 -0.255,1.179 -1.19,5.216 -1.972,5.066 z"
           id="path10261"
           inkscape:connector-curvature="0"
           style="fill:#f7ae83" /></g><path
         d="m 390.066,125.745 c -2.985,-2.872 -2.199,-4.971 -2.199,-4.971 l 0,0.001 c 0.267,-1.052 1.122,-1.906 2.26,-2.116 1.379,-0.254 2.709,0.524 3.195,1.788 -0.388,-0.902 -1.368,-1.449 -2.385,-1.261 -1.179,0.217 -1.96,1.339 -1.745,2.505 0.13,0.704 0.594,1.262 1.201,1.547 0.212,0.093 0.412,0.15 0.595,0.181 0.044,0.007 0.089,0.013 0.134,0.018 l -0.001,0.002 c 0.514,0.06 0.854,-0.071 0.854,-0.071 0.685,-0.173 1.22,-0.741 1.822,-1.381 0.5,-0.531 0.748,-0.929 0.987,-1.261 0.458,-0.638 1.908,-2.659 4.111,-3.151 0.344,-0.077 1.666,-0.352 3.063,0.326 0.225,0.109 1.508,0.761 2.109,2.079 0.091,-1.446 1.057,-2.512 1.228,-2.695 1.063,-1.132 2.396,-1.347 2.745,-1.398 2.233,-0.327 4.309,1.044 4.964,1.477 0.342,0.226 0.716,0.508 1.372,0.826 0.79,0.383 1.493,0.722 2.194,0.64 0,0 0.364,0.001 0.823,-0.238 l -10e-4,-0.001 c 0.041,-0.02 0.08,-0.042 0.119,-0.064 0.159,-0.095 0.326,-0.219 0.491,-0.381 0.465,-0.482 0.7,-1.17 0.57,-1.874 -0.215,-1.166 -1.345,-1.935 -2.524,-1.718 -1.017,0.188 -1.737,1.048 -1.778,2.029 0.003,-1.354 0.968,-2.556 2.347,-2.81 1.137,-0.21 2.241,0.283 2.866,1.17 l 0,0 c 0,0 1.482,1.679 -0.28,5.426 -0.003,0.006 -0.005,0.011 -0.008,0.017 -0.031,0.065 -0.062,0.131 -0.095,0.197 -0.018,0.037 -0.037,0.073 -0.055,0.109 0,0.001 -0.001,0.002 -0.001,0.002 -1.937,3.798 -5.544,4.416 -5.544,4.416 l 0.002,-0.003 c -0.189,0.048 -0.381,0.092 -0.576,0.128 -3.349,0.618 -6.603,-0.785 -8.508,-3.344 -0.867,3.07 -3.405,5.542 -6.755,6.16 -0.195,0.036 -0.389,0.063 -0.583,0.086 l 0.003,0.002 c 0,0 -3.661,0.724 -6.847,-2.231 -0.055,-0.051 -0.108,-0.101 -0.161,-0.152 -0.002,-0.004 -0.005,-0.007 -0.009,-0.011 z"
         id="path10263"
         inkscape:connector-curvature="0"
         style="fill:#0d4759" /></g><polygon
       points="397.665,96.87 394.044,97.374 419.968,120.664 420.963,117.441 "
       id="polygon10265"
       style="opacity:0.5;fill:#ffffff" /><polygon
       points="393.795,97.773 392.408,98.248 419.492,123.387 420.41,122.238 "
       id="polygon10267"
       style="opacity:0.5;fill:#ffffff" /><path
       d="m 364.463,158.429 c 0,0 -26.45,10.989 -35.687,53.504 -9.237,42.515 -2.507,52.68 2.696,44.845 5.203,-7.835 13.515,-52.102 46.372,-36.894 l -13.381,-61.455 z"
       id="path10269"
       inkscape:connector-curvature="0"
       style="fill:#007673" /><path
       d="m 334.268,224.494 c 7.514,-34.586 26.418,-48.307 33.208,-52.223 l -3.014,-13.842 c 0,0 -26.45,10.989 -35.687,53.504 -8.202,37.754 -3.814,49.983 0.915,46.766 -0.02,-7.594 1.221,-18.754 4.578,-34.205 z"
       id="path10271"
       inkscape:connector-curvature="0"
       style="fill:#00988b" /><path
       d="m 435.048,158.232 c 0,0 26.511,10.841 35.985,53.304 9.474,42.463 2.802,52.665 -2.445,44.859 -5.247,-7.806 -13.806,-52.026 -46.578,-36.634 l 13.038,-61.529 z"
       id="path10273"
       inkscape:connector-curvature="0"
       style="fill:#00988b" /><path
       d="m 471.033,211.536 c -9.474,-42.463 -35.986,-53.304 -35.986,-53.304 l -2.183,10.301 c 8.276,4.816 18.403,13.493 26.264,29.036 16.005,31.647 11.926,41.054 5.88,35.943 -5.499,-4.648 -18.826,-32.541 -40.947,-23.435 l -2.052,9.684 c 32.772,-15.392 41.331,28.828 46.578,36.634 5.248,7.806 11.92,-2.396 2.446,-44.859 z"
       id="path10275"
       inkscape:connector-curvature="0"
       style="fill:#007673" /><g
       id="g10277"><circle
         cx="399.828"
         cy="117.447"
         r="20.948999"
         id="circle10279"
         sodipodi:cx="399.828"
         sodipodi:cy="117.447"
         sodipodi:rx="20.948999"
         sodipodi:ry="20.948999"
         style="fill:none"
         d="m 420.777,117.447 c 0,11.56981 -9.37918,20.949 -20.949,20.949 -11.56981,0 -20.949,-9.37919 -20.949,-20.949 0,-11.56981 9.37919,-20.949001 20.949,-20.949001 11.56982,0 20.949,9.379191 20.949,20.949001 z" /><path
         d="m 366.54,89.782 c -0.005,0.025 -0.011,0.046 -0.017,0.071 -2.743,12.9 -4.455,38.818 -5.216,52.74 -0.07,0.007 -0.139,0.018 -0.209,0.024 -0.112,3.039 -0.197,6.139 -0.252,9.301 -10e-4,0.017 -10e-4,0.029 -10e-4,0.029 l 10e-4,0 c -0.057,3.257 -0.083,6.58 -0.074,9.975 0.066,23.747 3.314,42.834 7.914,57.994 l 62.458,-0.175 c 4.515,-15.185 7.656,-34.29 7.59,-58.037 C 438.409,45.672 399.325,9.038 399.325,9.038 c 0,0 -22.032,20.903 -32.785,80.744 z m 53.266,33.968 c -3.481,11.034 -15.248,17.156 -26.281,13.675 -11.033,-3.481 -17.156,-15.248 -13.675,-26.281 3.481,-11.034 15.248,-17.156 26.281,-13.675 11.033,3.481 17.156,15.247 13.675,26.281 z"
         id="path10281"
         inkscape:connector-curvature="0"
         style="fill:#ee7246" /></g><path
       d="m 399.11,9.305 c 3.438,22.399 5.856,53.242 6.64,88.054 0.127,0.038 0.255,0.07 0.382,0.11 11.034,3.481 17.156,15.248 13.675,26.281 -2.16,6.846 -7.51,11.798 -13.895,13.742 -0.457,31.755 -2.291,60.343 -5.059,82.431 l 30.247,-0.084 c 4.515,-15.186 7.656,-34.29 7.59,-58.037 C 438.365,45.77 399.281,9.135 399.281,9.135 c 0,0 -0.062,0.061 -0.171,0.17 z"
       id="path10283"
       inkscape:connector-curvature="0"
       style="fill:#ea542d" /><path
       d="m 383.408,229.388 -3.262,15.345 c 0,0 8.749,8.304 17.054,-0.048 l -2.819,-15.328 -10.973,0.031 z"
       id="path10285"
       inkscape:connector-curvature="0"
       style="fill:#006f81" /><path
       d="m 406.03,229.033 -3.262,15.345 c 0,0 8.749,8.304 17.054,-0.048 l -2.819,-15.328 -10.973,0.031 z"
       id="path10287"
       inkscape:connector-curvature="0"
       style="fill:#006f81" /><polygon
       points="399.872,204.379 378.335,204.44 374.909,233.977 399.954,233.907 424.999,233.837 421.409,204.319 "
       id="polygon10289"
       style="fill:#ea542d" /><path
       d="m 360.96,171.015 c 0.755,19.584 3.728,35.727 7.725,48.9 l 62.458,-0.175 c 3.923,-13.195 6.806,-29.354 7.452,-48.942 l -77.635,0.217 z"
       id="path10291"
       inkscape:connector-curvature="0"
       style="fill:#00799d" /><path
       d="m 438.704,166.303 -77.878,0.218 c 0.016,0.769 0.042,1.523 0.064,2.282 l 77.762,-0.217 c 0.019,-0.76 0.041,-1.514 0.052,-2.283 z"
       id="path10293"
       inkscape:connector-curvature="0"
       style="fill:#00799d" /><path
       d="m 438.728,162.64 -77.946,0.218 c 0.005,0.766 0.014,1.525 0.026,2.282 l 77.908,-0.218 c 0.007,-0.756 0.012,-1.516 0.012,-2.282 z"
       id="path10295"
       inkscape:connector-curvature="0"
       style="fill:#00799d" /><path
       d="m 399.325,9.038 c 0,0 -6.334,6.008 -13.866,20.796 l 27.848,-0.078 C 405.693,15.011 399.325,9.038 399.325,9.038 z"
       id="path10297"
       inkscape:connector-curvature="0"
       style="fill:#00799d" /><path
       d="m 400.924,219.825 30.219,-0.084 c 3.923,-13.195 6.806,-29.354 7.452,-48.942 0,-0.001 -13.516,38.558 -37.671,49.026 z"
       id="path10299"
       inkscape:connector-curvature="0"
       style="fill:#005c78" /><ellipse
       transform="matrix(1,-0.0028,0.0028,1,-0.6007,1.1188)"
       cx="399.90201"
       cy="215.442"
       rx="8.9230003"
       ry="54.52"
       id="ellipse10301"
       sodipodi:cx="399.90201"
       sodipodi:cy="215.442"
       sodipodi:rx="8.9230003"
       sodipodi:ry="54.52"
       style="fill:#00988b"
       d="m 408.82501,215.442 c 0,30.11057 -3.99496,54.52 -8.923,54.52 -4.92804,0 -8.923,-24.40943 -8.923,-54.52 0,-30.11056 3.99496,-54.52 8.923,-54.52 4.92804,0 8.923,24.40944 8.923,54.52 z" /><path
       d="m 404.477,169.104 c 1.173,9.171 1.888,20.628 1.923,33.067 0.084,30.111 -3.843,54.531 -8.771,54.545 -1.727,0.005 -3.346,-2.996 -4.727,-8.181 1.667,13.029 4.26,21.436 7.152,21.428 4.928,-0.014 8.855,-24.434 8.771,-54.545 -0.054,-19.561 -1.789,-36.702 -4.348,-46.314 z"
       id="path10303"
       inkscape:connector-curvature="0"
       style="fill:#007673" /><path
       d="m 420.686,124.027 c -3.629,11.501 -15.937,17.905 -27.438,14.277 -11.501,-3.629 -17.905,-15.937 -14.277,-27.438 3.628,-11.501 15.937,-17.905 27.438,-14.277 11.501,3.628 17.905,15.938 14.277,27.438 z m -39.957,-12.606 c -3.323,10.531 2.542,21.802 13.073,25.125 10.531,3.323 21.802,-2.542 25.125,-13.073 3.323,-10.531 -2.542,-21.802 -13.073,-25.125 -10.532,-3.323 -21.802,2.542 -25.125,13.073 z"
       id="path10305"
       inkscape:connector-curvature="0"
       style="fill:#0f637c" /></g><g
     id="Calque_4"><polygon
       fill="#F0F0F0"
       points="264,282.167 259.522,262.25 273.656,246.563 287,249 291,213.595 304.5,200 321,205.951    320.343,227.155 314.5,232.13 330,241 332.851,260.5 324.5,275 354.493,289.5 376.893,302.918 311.208,303.5 293.375,311.875    263.667,300.833 257.667,294.833  "
       id="polygon10308" /><polygon
       fill="#CCD6DD"
       points="294.5,309.917 264.833,297.667 271.667,287.417 266,260.772 283.167,253.5 286.333,270.5    301.167,284 312.125,279.667 315.667,266.333 311.208,264.167 309.833,270 304.667,275.064 295,253.5 297.167,216.333    311.208,202.419 304.5,200 291,213.595 287,249 273.656,246.563 259.522,262.25 264,282.167 253.333,294.25 260.375,306.943    287.5,314.417 312.833,314.417 376.893,302.918 319.333,288.667  "
       id="polygon10310" /><polygon
       fill="#CCD6DD"
       points="314.5,232.13 307.5,240.167 312.583,247.417 317.583,243.25 327.25,245.417 329.75,255.667    324.5,275 332.851,260.5 330,241  "
       id="polygon10312" /></g></svg>