<?xml version="1.0" encoding="UTF-8" standalone="no"?>
<!-- Created with Inkscape (http://www.inkscape.org/) -->

<svg
   xmlns:dc="http://purl.org/dc/elements/1.1/"
   xmlns:cc="http://creativecommons.org/ns#"
   xmlns:rdf="http://www.w3.org/1999/02/22-rdf-syntax-ns#"
   xmlns:svg="http://www.w3.org/2000/svg"
   xmlns="http://www.w3.org/2000/svg"
   version="1.1"
   width="31"
   height="31"
   id="svg6053">
  <defs
     id="defs6055" />
  <metadata
     id="metadata6058">
    <rdf:RDF>
      <cc:Work
         rdf:about="">
        <dc:format>image/svg+xml</dc:format>
        <dc:type
           rdf:resource="http://purl.org/dc/dcmitype/StillImage" />
        <dc:title></dc:title>
      </cc:Work>
    </rdf:RDF>
  </metadata>
  <g
     transform="translate(0,-1021.3622)"
     id="layer1">
    <path
       d="m 15.59375,0.53125 c -3.971715,0 -7.3495897,2.4984922 -8.6875,6 C 5.9643871,5.9548998 2.7692197,4.0341148 2.34375,4.4375 c -0.4957316,0.4699 -0.3772507,2.5195 0.125,4.375 0.4633128,1.711741 1.168809,2.972109 3.9375,2.71875 0.014597,0.06545 0.049472,0.121472 0.0625,0.1875 0.00401,0.02032 -0.00386,0.04213 0,0.0625 0.094554,0.499111 0.125,1.035875 0.125,1.5625 0,3.1781 -1.8021098,5.90655 -4.4375,7.28125 1.7729533,5.7339 7.1212009,9.90625 13.4375,9.90625 6.321459,0 11.668889,-4.16525 13.4375,-9.90625 -2.620997,-1.3794 -4.40625,-4.11405 -4.40625,-7.28125 0,-0.615358 0.05943,-1.23578 0.1875,-1.8125 2.768694,0.253359 3.505438,-1.007009 3.96875,-2.71875 0.501979,-1.8555 0.589481,-3.9051 0.09375,-4.375 -0.42547,-0.4033852 -3.620636,1.5173998 -4.5625,2.09375 -1.337018,-3.503289 -4.745755,-6 -8.71875,-6 z"
       transform="translate(0,1021.3622)"
       id="path3"
       style="fill:#bad2e1" />
    <path
       d="m 29.613225,1042.7735 c 2.284711,-3.1857 1.193287,-5.0035 1.193287,-5.0035 l -2.72e-4,0 c -0.429181,-0.933 -1.37175,-1.5812 -2.466162,-1.5812 -1.327478,0 -2.431397,0.9532 -2.666904,2.2125 0.206442,-0.9062 1.024603,-1.5831 2.003031,-1.5831 1.134342,0 2.053822,0.9097 2.053822,2.0318 0,0.6778 -0.336554,1.277 -0.852114,1.6461 -0.181452,0.1231 -0.358285,0.21 -0.522352,0.2706 -0.0402,0.014 -0.0804,0.028 -0.121692,0.039 l 8.15e-4,0 c -0.468025,0.1437 -0.806752,0.08 -0.806752,0.08 -0.666865,-0.043 -1.262829,-0.4805 -1.932406,-0.9722 -0.556034,-0.4082 -0.855918,-0.7355 -1.135157,-1.0042 -0.535662,-0.5153 -2.232286,-2.1473 -4.36624,-2.2268 -0.333295,-0.013 -1.610517,-0.041 -2.794568,0.8295 -0.190687,0.1402 -1.273147,0.967 -1.605355,2.297 -0.33248,-1.33 -1.41494,-2.1565 -1.605356,-2.297 -1.183779,-0.8708 -2.461273,-0.842 -2.794567,-0.8295 -2.1339546,0.08 -3.8305787,1.7115 -4.3662404,2.2268 -0.2792395,0.2687 -0.5791231,0.596 -1.1351573,1.0042 -0.6693055,0.4917 -1.2652697,0.9285 -1.9324021,0.9722 0,0 -0.3384556,0.064 -0.8067521,-0.08 l 8.149e-4,0 c -0.041288,-0.011 -0.08149,-0.025 -0.121692,-0.039 -0.1640667,-0.061 -0.3409003,-0.1478 -0.5223516,-0.2706 -0.5155608,-0.3691 -0.8521149,-0.9681 -0.8521149,-1.6461 0,-1.1221 0.9194801,-2.0318 2.0538225,-2.0318 0.9784246,0 1.7965852,0.6769 2.0030269,1.5831 -0.2352348,-1.259 -1.3394258,-2.2125 -2.6668997,-2.2125 -1.0944123,0 -2.03670961,0.6482 -2.4661625,1.5812 l -2.7164e-4,0 c 0,0 -1.09088098,1.817 1.19192874,5.0013 0.00353,0 0.00679,0.01 0.010322,0.015 0.03993,0.055 0.080404,0.1111 0.1222351,0.1673 0.023361,0.031 0.046993,0.062 0.070353,0.092 5.432e-4,0 0.00109,0 0.00163,0 2.453939,3.2012 5.916997,3.1572 5.916997,3.1572 l -0.00272,0 c 0.1844393,0.013 0.3699651,0.021 0.557664,0.021 3.2229341,0 6.0098961,-1.8642 7.3436171,-4.5726 1.333722,2.7084 4.120412,4.5726 7.343617,4.5726 0.187699,0 0.373225,-0.01 0.557664,-0.021 l -0.0027,0 c 0,0 3.531238,0.045 5.988712,-3.2517 0.04238,-0.057 0.08339,-0.113 0.123593,-0.169 0.0033,0 0.006,-0.01 0.0084,-0.011 z"
       id="path21-5"
       style="fill:#5792a7" />
  </g>
</svg>
