<?xml version="1.0" encoding="UTF-8" standalone="no"?>
<svg
   xmlns:dc="http://purl.org/dc/elements/1.1/"
   xmlns:cc="http://creativecommons.org/ns#"
   xmlns:rdf="http://www.w3.org/1999/02/22-rdf-syntax-ns#"
   xmlns:svg="http://www.w3.org/2000/svg"
   xmlns="http://www.w3.org/2000/svg"
   xmlns:sodipodi="http://sodipodi.sourceforge.net/DTD/sodipodi-0.dtd"
   xmlns:inkscape="http://www.inkscape.org/namespaces/inkscape"
   version="1.1"
   x="0px"
   y="0px"
   viewBox="0 0 60 60"
   enable-background="new 0 0 60 60"
   xml:space="preserve"
   id="svg2"
   inkscape:version="0.48.4 r9939"
   width="100%"
   height="100%"
   sodipodi:docname="social.svg"><metadata
     id="metadata100"><rdf:RDF><cc:Work
         rdf:about=""><dc:format>image/svg+xml</dc:format><dc:type
           rdf:resource="http://purl.org/dc/dcmitype/StillImage" /></cc:Work></rdf:RDF></metadata><defs
     id="defs98" /><sodipodi:namedview
     pagecolor="#ffffff"
     bordercolor="#666666"
     borderopacity="1"
     objecttolerance="10"
     gridtolerance="10"
     guidetolerance="10"
     inkscape:pageopacity="0"
     inkscape:pageshadow="2"
     inkscape:window-width="640"
     inkscape:window-height="480"
     id="namedview96"
     showgrid="false"
     inkscape:zoom="3.1466667"
     inkscape:cx="30"
     inkscape:cy="37.5"
     inkscape:window-x="0"
     inkscape:window-y="0"
     inkscape:window-maximized="0"
     inkscape:current-layer="svg2" /><rect
     x="-490"
     y="-106"
     display="none"
     width="802"
     height="805"
     id="rect4"
     style="fill:#000000;display:none" /><g
     id="g6"
     transform="translate(0.31779661,-0.06355932)"><path
       d="m 7.2880859,31.062988 0.019531,0.09814 c 0.046875,0.237793 0.2558594,0.402344 0.4892578,0.402344 0.033203,0 0.06543,-0.0029 0.098633,-0.0098 C 8.1660156,31.5 8.3417969,31.236816 8.2880859,30.96582 L 8.2685549,30.86768 C 8.2148438,30.596191 7.9482422,30.420898 7.6806641,30.475098 7.4101562,30.528809 7.234375,30.791992 7.2880859,31.062988 z"
       id="path8"
       inkscape:connector-curvature="0" /><path
       d="m 7.2685547,28.416016 c -0.2705078,0.05371 -0.4462891,0.316894 -0.3925781,0.58789 l 0.019531,0.09814 c 0.046875,0.237793 0.2558594,0.402344 0.4892578,0.402344 0.033203,0 0.06543,-0.0029 0.098633,-0.0098 0.2705078,-0.05371 0.4462891,-0.316895 0.3925781,-0.587891 l -0.019531,-0.09814 C 7.8027344,28.536621 7.5332031,28.358887 7.2685547,28.416016 z"
       id="path10"
       inkscape:connector-curvature="0" /><path
       d="m 6.8554688,26.356934 c -0.2705078,0.05371 -0.4462891,0.316894 -0.3925781,0.58789 l 0.019531,0.09814 c 0.046875,0.237793 0.2558594,0.402344 0.4892578,0.402344 0.033203,0 0.06543,-0.0029 0.098633,-0.0098 0.2705078,-0.05371 0.4462891,-0.316895 0.3925781,-0.587891 l -0.019531,-0.09814 C 7.3896484,26.478027 7.1210938,26.300293 6.8554688,26.356934 z"
       id="path12"
       inkscape:connector-curvature="0" /><path
       d="m 37.288086,16.873535 -0.0332,0.09424 c -0.0918,0.260254 0.06152,0.498536 0.322265,0.590332 0.0459,0.0166 0.09375,0.02393 0.141602,0.02393 0.219727,0 0.4375,-0.162109 0.512695,-0.376465 0.0918,-0.260253 -0.04492,-0.545898 -0.305664,-0.637695 -0.260742,-0.09033 -0.545898,0.04541 -0.637695,0.305664 z"
       id="path14"
       inkscape:connector-curvature="0" /><path
       d="m 38.280273,15.579102 c 0.0459,0.0166 0.09375,0.02393 0.141602,0.02393 0.219727,0 0.4375,-0.162109 0.512695,-0.376464 0.0918,-0.260254 -0.04492,-0.545899 -0.305664,-0.637696 -0.260742,-0.08984 -0.545898,0.04541 -0.637695,0.305664 l -0.0332,0.09424 c -0.0918,0.260253 0.06152,0.498535 0.322265,0.590332 z"
       id="path16"
       inkscape:connector-curvature="0" /><path
       d="m 35.881836,20.831055 -0.0332,0.09424 c -0.0918,0.260254 0.06152,0.498535 0.322265,0.590332 0.0459,0.0166 0.09375,0.02393 0.141602,0.02393 0.219727,0 0.4375,-0.16211 0.512695,-0.376465 0.0918,-0.260254 -0.04492,-0.545898 -0.305664,-0.637695 -0.260742,-0.08984 -0.545898,0.04541 -0.637695,0.305664 z"
       id="path18"
       inkscape:connector-curvature="0" /><path
       d="m 36.584961,18.852051 -0.0332,0.09424 c -0.0918,0.260254 0.06152,0.498535 0.322265,0.590332 0.0459,0.0166 0.09375,0.02393 0.141602,0.02393 0.219727,0 0.4375,-0.162109 0.512695,-0.376465 0.0918,-0.260254 -0.04492,-0.545898 -0.305664,-0.637695 -0.260742,-0.08984 -0.545898,0.04541 -0.637695,0.305664 z"
       id="path20"
       inkscape:connector-curvature="0" /><path
       d="m 50.394531,35.098633 -0.0098,0.09961 c -0.02637,0.274902 0.174804,0.519531 0.449218,0.546387 0.0166,0.0015 0.0332,0.0024 0.0498,0.0024 0.253906,0 0.47168,-0.192871 0.49707,-0.451172 l 0.0098,-0.09961 c 0.02637,-0.274902 -0.174805,-0.519531 -0.449219,-0.546387 -0.269531,-0.01953 -0.519531,0.17334 -0.546875,0.448731 z"
       id="path22"
       inkscape:connector-curvature="0" /><path
       d="m 51.083984,33.606934 c 0.259766,0 0.486328,-0.242676 0.509766,-0.505372 0.02441,-0.274902 -0.178711,-0.517578 -0.454102,-0.541992 -0.260742,-0.02979 -0.517578,0.177735 -0.541992,0.454102 l -0.0088,0.09912 c -0.02441,0.274902 0.183594,0.468262 0.458008,0.492187 0.0127,0.0015 0.02539,0.002 0.03711,0.002 z"
       id="path24"
       inkscape:connector-curvature="0" /><path
       d="m 45.276367,15.407715 c 0.09766,0.135254 0.250977,0.207031 0.405274,0.207031 0.101562,0 0.204101,-0.03076 0.292968,-0.09473 0.223633,-0.161621 0.274414,-0.474609 0.112305,-0.698242 l -0.05859,-0.08105 c -0.163086,-0.225098 -0.475586,-0.273926 -0.698242,-0.112305 -0.223633,0.161621 -0.274414,0.474609 -0.112305,0.698242 l 0.05859,0.08105 z"
       id="path26"
       inkscape:connector-curvature="0" /><path
       d="m 44.745117,13.817383 c 0.223633,-0.161621 0.274414,-0.47461 0.112305,-0.698242 l -0.05859,-0.08106 c -0.162109,-0.224609 -0.474609,-0.273438 -0.698242,-0.112305 -0.223633,0.161621 -0.274414,0.47461 -0.112305,0.698242 l 0.05859,0.08106 c 0.09766,0.135254 0.250977,0.207031 0.405273,0.207031 0.101563,0 0.204102,-0.03076 0.292969,-0.09473 z"
       id="path28"
       inkscape:connector-curvature="0" /><path
       d="m 46.504883,17.11084 c 0.09766,0.135254 0.250976,0.207031 0.405273,0.207031 0.101563,0 0.204102,-0.03076 0.292969,-0.09473 0.223633,-0.161621 0.274414,-0.474609 0.112305,-0.698242 l -0.05859,-0.08105 c -0.16211,-0.224609 -0.47461,-0.274414 -0.698242,-0.112304 -0.223633,0.161621 -0.274414,0.474609 -0.112305,0.698242 l 0.05859,0.08105 z"
       id="path30"
       inkscape:connector-curvature="0" /><path
       d="m 27.344727,43.90332 c 0.05566,0.02441 0.114257,0.03565 0.172851,0.03565 0.208985,0 0.418946,-0.141114 0.50586,-0.338379 0.110351,-0.25293 -0.0039,-0.547852 -0.256836,-0.658692 -0.250977,-0.107421 -0.547852,0.0044 -0.65918,0.257325 l -0.04004,0.09131 c -0.110352,0.25293 0.02441,0.501954 0.277344,0.612793 z"
       id="path32"
       inkscape:connector-curvature="0" /><path
       d="m 26.268555,45.125 -0.04004,0.0918 c -0.110352,0.25293 0.0049,0.547363 0.257812,0.658203 0.06543,0.02832 0.132813,0.0415 0.200195,0.0415 0.192383,0 0.375977,-0.112305 0.458008,-0.300293 l 0.04004,-0.0918 c 0.110352,-0.25293 -0.0049,-0.547852 -0.257812,-0.658203 -0.250977,-0.10791 -0.546875,0.0054 -0.658203,0.258789 z"
       id="path34"
       inkscape:connector-curvature="0" /><path
       d="m 18.311523,47.355469 c 0.141602,0 0.283203,-0.06006 0.381836,-0.177246 0.178711,-0.21045 0.152344,-0.525879 -0.05859,-0.70459 l -0.07617,-0.06445 c -0.210938,-0.177735 -0.487305,-0.121094 -0.666993,0.09131 -0.178711,0.21045 -0.114257,0.558106 0.09668,0.736817 0.09375,0.0791 0.208985,0.118164 0.323242,0.118164 z"
       id="path36"
       inkscape:connector-curvature="0" /><path
       d="m 16.285156,45.147949 c -0.178711,0.210449 -0.114258,0.558106 0.09668,0.736817 0.09375,0.0791 0.208984,0.118164 0.323242,0.118164 0.141602,0 0.283203,-0.06006 0.381836,-0.177246 0.178711,-0.21045 0.152344,-0.525879 -0.05859,-0.70459 l -0.07617,-0.06445 c -0.210937,-0.177247 -0.487304,-0.120606 -0.666992,0.09131 z"
       id="path38"
       inkscape:connector-curvature="0" /><path
       d="m 11.570313,17.358887 -0.08984,0.04443 c -0.247071,0.122559 -0.348633,0.422364 -0.226563,0.669922 0.08691,0.17627 0.264649,0.27832 0.448242,0.27832 0.0752,0 0.150391,-0.0166 0.22168,-0.05176 l 0.08984,-0.04443 c 0.24707,-0.122559 0.348633,-0.422363 0.226562,-0.669922 -0.12207,-0.248535 -0.424804,-0.348144 -0.669921,-0.226562 z"
       id="path40"
       inkscape:connector-curvature="0" /><path
       d="m 13.447266,16.422363 -0.08984,0.04492 c -0.247071,0.123535 -0.34668,0.423828 -0.223633,0.670899 0.08789,0.175293 0.264648,0.276367 0.447266,0.276367 0.0752,0 0.151367,-0.01709 0.223632,-0.05273 l 0.08984,-0.04492 c 0.247071,-0.123535 0.34668,-0.423828 0.223633,-0.670898 -0.124023,-0.247559 -0.423828,-0.345703 -0.670898,-0.223633 z"
       id="path42"
       inkscape:connector-curvature="0" /><path
       d="m 15.058594,16.178223 c 0.08398,0.169433 0.272461,0.259277 0.46289,0.259277 0.08692,0 0.173829,-0.01904 0.251954,-0.05762 0.24707,-0.123535 0.346679,-0.423828 0.223632,-0.670899 -0.125,-0.247558 -0.421875,-0.346191 -0.670898,-0.223632 l -0.08887,0.04443 c -0.247071,0.123535 -0.302735,0.401856 -0.178711,0.648438 z"
       id="path44"
       inkscape:connector-curvature="0" /><path
       d="m 18.859375,21.087891 c -0.242188,-0.124024 -0.546875,-0.03076 -0.673828,0.214843 l -0.0459,0.08887 c -0.126953,0.245605 -0.03027,0.546875 0.214844,0.673828 0.07324,0.0376 0.151367,0.05566 0.229492,0.05566 0.180665,0 0.355469,-0.09863 0.444336,-0.270508 l 0.0459,-0.08887 c 0.126953,-0.245606 0.03027,-0.546875 -0.214844,-0.673828 z"
       id="path46"
       inkscape:connector-curvature="0" /><path
       d="m 13.34082,31.856445 c 0.07324,0.0376 0.151368,0.05566 0.229493,0.05566 0.180664,0 0.355468,-0.09863 0.444335,-0.270507 l 0.0459,-0.08887 c 0.126953,-0.245605 0.03027,-0.546875 -0.214844,-0.673828 -0.242187,-0.125 -0.545898,-0.03125 -0.673828,0.214844 l -0.0459,0.08887 c -0.126954,0.245606 -0.03027,0.546875 0.214843,0.673828 z"
       id="path48"
       inkscape:connector-curvature="0" /><path
       d="m 15.84668,26.960449 c -0.247071,-0.125 -0.547852,-0.02734 -0.671875,0.220703 l -0.04492,0.08887 c -0.125,0.246582 -0.0029,0.50293 0.243164,0.627442 0.0625,0.03125 0.128906,0.0459 0.196289,0.0459 0.200195,0 0.405273,-0.126953 0.498047,-0.311035 0.125,-0.246582 0.02539,-0.547363 -0.220703,-0.671875 z"
       id="path50"
       inkscape:connector-curvature="0" /><path
       d="m 14.174805,29.13623 -0.0459,0.08936 c -0.126953,0.245605 -0.0293,0.546875 0.215821,0.67334 0.07324,0.0376 0.151367,0.05518 0.228515,0.05518 0.180664,0 0.356446,-0.09912 0.444336,-0.271485 l 0.0459,-0.08936 c 0.126953,-0.245606 0.0293,-0.546875 -0.215821,-0.67334 -0.24414,-0.125 -0.547851,-0.0293 -0.672851,0.216308 z"
       id="path52"
       inkscape:connector-curvature="0" /><path
       d="m 17.581055,24.07959 c 0.180664,0 0.356445,-0.09912 0.444336,-0.271485 l 0.0459,-0.08936 c 0.126953,-0.245606 0.0293,-0.546875 -0.21582,-0.67334 -0.245118,-0.126465 -0.547852,-0.02979 -0.672852,0.216309 l -0.0459,0.08936 c -0.126953,0.245606 -0.0293,0.546875 0.21582,0.67334 0.07324,0.0376 0.151367,0.05518 0.228516,0.05518 z"
       id="path54"
       inkscape:connector-curvature="0" /><path
       d="m 16.375977,25.939453 c 0.0625,0.03125 0.128906,0.0459 0.196289,0.0459 0.200195,0 0.405273,-0.126953 0.498047,-0.311035 0.125,-0.246582 0.02539,-0.547363 -0.220704,-0.671875 -0.246093,-0.124511 -0.547851,-0.02686 -0.671875,0.220703 l -0.04492,0.08887 c -0.125001,0.246582 -0.0029,0.502929 0.243164,0.627441 z"
       id="path56"
       inkscape:connector-curvature="0" /><path
       d="m 19.862305,19.129883 c -0.242188,-0.125 -0.546875,-0.03125 -0.673828,0.214844 l -0.0459,0.08887 c -0.126953,0.245605 -0.03027,0.546875 0.214844,0.673828 0.07324,0.0376 0.151367,0.05566 0.229492,0.05566 0.180664,0 0.355469,-0.09863 0.444336,-0.270508 l 0.0459,-0.08887 c 0.126954,-0.245606 0.03027,-0.546875 -0.214843,-0.673828 z"
       id="path58"
       inkscape:connector-curvature="0" /><path
       d="m 18.200195,36.276367 c -0.263672,0.07959 -0.414062,0.358887 -0.333984,0.623047 0.06445,0.216309 0.263672,0.355957 0.478516,0.355957 0.04785,0 0.0957,-0.0068 0.144531,-0.021 l 0.0957,-0.02881 c 0.263672,-0.07959 0.366211,-0.344238 0.286133,-0.608886 -0.0791,-0.264649 -0.402344,-0.398438 -0.670899,-0.320313 z"
       id="path60"
       inkscape:connector-curvature="0" /><path
       d="m 19.87793,36.297852 c 0.06445,0.216308 0.263672,0.355957 0.478515,0.355957 0.04785,0 0.0957,-0.0068 0.144531,-0.021 l 0.0957,-0.02881 c 0.263671,-0.07959 0.36621,-0.344238 0.286132,-0.608887 -0.0791,-0.264648 -0.402343,-0.396972 -0.670898,-0.320312 -0.263672,0.07959 -0.414062,0.358886 -0.333984,0.623047 z"
       id="path62"
       inkscape:connector-curvature="0" /><path
       d="m 43.210937,27.380859 c -0.252929,0.108887 -0.370117,0.403321 -0.260742,0.656739 0.08105,0.189453 0.265625,0.302246 0.458985,0.302246 0.06641,0 0.133789,-0.01318 0.198242,-0.04102 l 0.0918,-0.03955 c 0.252929,-0.108886 0.324219,-0.3833 0.214844,-0.637207 -0.108399,-0.253906 -0.450196,-0.352051 -0.703126,-0.241211 z"
       id="path64"
       inkscape:connector-curvature="0" /><path
       d="m 41.3125,20.110352 c 0.06445,0.02734 0.130859,0.04004 0.196289,0.04004 0.194336,0 0.378906,-0.11377 0.459961,-0.303711 0.108398,-0.254395 -0.0098,-0.547852 -0.263672,-0.65625 l -0.09277,-0.03955 c -0.256836,-0.10791 -0.547852,0.0098 -0.65625,0.263672 -0.108399,0.254394 0.0098,0.547852 0.263672,0.65625 l 0.09277,0.03955 z"
       id="path66"
       inkscape:connector-curvature="0" /><path
       d="m 43.636719,20.019043 -0.0918,-0.03955 c -0.25586,-0.108887 -0.501953,0.02734 -0.611328,0.280762 -0.109375,0.253906 0.05371,0.567871 0.30664,0.676758 0.06445,0.02783 0.131836,0.04102 0.198243,0.04102 0.193359,0 0.377929,-0.112793 0.458984,-0.302246 0.109375,-0.253418 -0.0078,-0.547851 -0.260742,-0.656738 z"
       id="path68"
       inkscape:connector-curvature="0" /><path
       d="m 39.578125,19.323242 c 0.193359,0 0.37793,-0.112793 0.458984,-0.302246 0.109375,-0.253418 -0.0078,-0.547852 -0.260742,-0.656738 l -0.0918,-0.03955 c -0.254883,-0.108887 -0.502929,0.02734 -0.611328,0.280762 -0.109375,0.253906 0.05371,0.567871 0.306641,0.676757 0.06445,0.02783 0.131836,0.04102 0.198242,0.04102 z"
       id="path70"
       inkscape:connector-curvature="0" /><path
       d="m 34.141602,15.948242 c -0.254883,-0.108398 -0.50293,0.02734 -0.611329,0.280762 -0.109375,0.253906 0.05371,0.567871 0.306641,0.676758 0.06445,0.02783 0.131836,0.04102 0.198242,0.04102 0.19336,0 0.37793,-0.113281 0.458985,-0.302246 0.109375,-0.253418 -0.0078,-0.547851 -0.260743,-0.656738 l -0.0918,-0.03955 z"
       id="path72"
       inkscape:connector-curvature="0" /><path
       d="m 31.90625,16.078613 c 0.06445,0.02783 0.131836,0.04102 0.198242,0.04102 0.19336,0 0.37793,-0.112793 0.458985,-0.302246 0.109375,-0.253418 -0.0078,-0.547852 -0.260743,-0.656738 l -0.0918,-0.03955 c -0.254882,-0.109375 -0.501953,0.02783 -0.611328,0.280761 -0.109375,0.253907 0.05371,0.567872 0.306641,0.676758 z"
       id="path74"
       inkscape:connector-curvature="0" /><path
       d="m 21.859375,32.605469 c 0,5.718261 4.652344,10.370605 10.370117,10.370605 5.717774,0 10.370117,-4.652344 10.370117,-10.370605 0,-5.718262 -4.652343,-10.370117 -10.370117,-10.370117 -5.717773,0 -10.370117,4.651855 -10.370117,10.370117 z m 4.440979,7.248962 c 0.01971,-0.0188 0.04504,-0.02875 0.06195,-0.05121 0.947265,-1.264649 2.620117,-2.476075 3.727539,-2.699707 0.629883,-0.125489 1.110351,-0.569336 1.253906,-1.15625 0.04785,-0.192871 0.05957,-0.521973 0.07617,-1.095215 0.0039,-0.15918 -0.06738,-0.311035 -0.192383,-0.408692 -0.625977,-0.489257 -1.171875,-1.271484 -1.459961,-2.092773 -0.06348,-0.180176 -0.22168,-0.305176 -0.404297,-0.330078 -0.04297,-0.05811 -0.108398,-0.1875 -0.142578,-0.371582 -0.03125,-0.193848 -0.01172,-0.339844 0.0098,-0.408691 0.169922,-0.08789 0.284179,-0.279297 0.284179,-0.476075 -0.0029,-1.108398 -0.0049,-2.064941 0.334961,-2.702636 0.215821,-0.404785 0.695313,-0.94336 2.395508,-0.946289 1.666992,0.0029 2.147461,0.541015 2.363281,0.945312 0.340821,0.636719 0.337891,1.592773 0.335938,2.729492 0,0.196778 0.114258,0.371094 0.285156,0.452637 0.02051,0.06982 0.04004,0.21289 0.0088,0.398437 -0.03418,0.190918 -0.100586,0.320801 -0.142578,0.379395 -0.182617,0.0249 -0.34082,0.149902 -0.404297,0.330078 -0.288086,0.821289 -0.833984,1.603515 -1.459961,2.092773 -0.125,0.09766 -0.196289,0.248535 -0.192382,0.407227 0.01465,0.550781 0.02734,0.898926 0.07617,1.094726 0.143555,0.588868 0.624024,1.032715 1.251954,1.158204 1.107421,0.223632 2.78125,1.435058 3.729492,2.699707 0.0166,0.02222 0.04016,0.03442 0.05951,0.05304 -1.616028,1.323486 -3.679687,2.119812 -5.926697,2.119812 -2.248108,0 -4.312744,-0.796997 -5.929138,-2.121643 z m 15.299255,-7.248962 c 0,2.565124 -1.037536,4.891235 -2.712951,6.585022 -1.095337,-1.452332 -2.990357,-2.798218 -4.323182,-3.067444 -0.24707,-0.04932 -0.425781,-0.20459 -0.477539,-0.416504 -0.01953,-0.08643 -0.03223,-0.37793 -0.04004,-0.639648 0.63086,-0.552246 1.161133,-1.309571 1.495117,-2.136231 0.326172,-0.168945 0.584961,-0.574219 0.682618,-1.119629 0.0918,-0.553711 -0.01953,-1.024414 -0.279297,-1.291015 9.76e-4,-1.100098 -0.02637,-2.13086 -0.453125,-2.930664 -0.529297,-0.989258 -1.589844,-1.471192 -3.280274,-1.474122 -1.654296,0.0029 -2.71582,0.485352 -3.24414,1.475586 -0.423828,0.794922 -0.453125,1.817383 -0.453125,2.929688 -0.257813,0.26709 -0.369141,0.739258 -0.27832,1.298828 0.09863,0.539551 0.356445,0.942383 0.682617,1.111328 0.333984,0.826172 0.864258,1.583984 1.495117,2.135742 -0.0088,0.261719 -0.02051,0.555176 -0.04004,0.641602 -0.05176,0.210449 -0.230469,0.365723 -0.479492,0.415039 -1.332825,0.269226 -3.226868,1.615112 -4.321228,3.067444 -1.675415,-1.693787 -2.712952,-4.019898 -2.712952,-6.585022 0,-5.166504 4.203125,-9.370117 9.370117,-9.370117 5.166992,0 9.370117,4.203613 9.370117,9.370117 z"
       id="path76"
       inkscape:connector-curvature="0" /><path
       d="m 15.989258,11.947266 c 0,4.162597 3.386719,7.549316 7.549804,7.549316 3.023438,0 5.747071,-1.794922 6.939454,-4.573242 0.405273,-0.941895 0.610351,-1.94336 0.610351,-2.976074 0,-4.1625981 -3.386719,-7.5493168 -7.549804,-7.5493168 -4.163086,0 -7.549805,3.3867188 -7.549805,7.5493168 z m 3.529297,5.159118 c 0.657959,-0.84143 1.792968,-1.659668 2.520507,-1.806579 0.504883,-0.100586 0.890625,-0.458496 1.00586,-0.930176 0.03906,-0.15625 0.04785,-0.405762 0.05859,-0.814453 0.0039,-0.158692 -0.06738,-0.309571 -0.192383,-0.407715 -0.425781,-0.333496 -0.798828,-0.868164 -0.996094,-1.429688 -0.05469,-0.15625 -0.180664,-0.270507 -0.332031,-0.314453 -0.01758,-0.03564 -0.03809,-0.09033 -0.05176,-0.162109 -0.0127,-0.0791 -0.01172,-0.140625 -0.0068,-0.181152 0.133789,-0.09668 0.21875,-0.260254 0.21875,-0.430664 -0.002,-0.7714848 -0.0039,-1.4375004 0.222656,-1.860352 0.148438,-0.2783203 0.459961,-0.5981445 1.583985,-0.6000977 1.102539,0.00195 1.414062,0.3217773 1.5625,0.6000977 0.226562,0.4228516 0.224609,1.0888672 0.222656,1.881348 0,0.17041 0.08496,0.32373 0.21875,0.414551 0.0049,0.03955 0.0059,0.09717 -0.0059,0.16748 -0.01367,0.07715 -0.03516,0.134277 -0.05273,0.170898 -0.151367,0.04395 -0.277344,0.158204 -0.332031,0.314454 -0.197266,0.561523 -0.570313,1.096191 -0.996094,1.429687 -0.125,0.09815 -0.196289,0.263184 -0.191406,0.421387 0.0098,0.395019 0.01855,0.644531 0.05762,0.797363 0.115235,0.475098 0.500977,0.833008 1.004883,0.933594 0.727112,0.146667 1.858948,0.962097 2.517517,1.801758 -1.127197,0.877807 -2.524841,1.395019 -4.01654,1.395019 -1.51587,0 -2.909302,-0.5224 -4.020508,-1.390198 z m 10.570312,-5.159118 c 0,0.895996 -0.177734,1.764648 -0.52832,2.581543 -0.309021,0.719421 -0.747437,1.350952 -1.26471,1.899719 -0.821838,-1.022339 -2.105835,-1.916199 -3.061462,-2.109192 -0.04492,-0.0093 -0.196289,-0.0498 -0.229492,-0.187988 -0.01465,-0.07227 -0.02051,-0.206543 -0.02441,-0.363282 0.432617,-0.394043 0.797851,-0.917968 1.037109,-1.488769 0.249023,-0.15332 0.441406,-0.465332 0.515625,-0.876953 0.06836,-0.414551 -0.01074,-0.773438 -0.198242,-1 0,-0.7832033 -0.02637,-1.5166018 -0.339844,-2.1044924 -0.405273,-0.7573242 -1.204102,-1.1269531 -2.46875,-1.1289062 -1.239258,0.00195 -2.038086,0.371582 -2.443359,1.1289062 -0.311524,0.5839844 -0.338868,1.3120117 -0.339844,2.1049804 -0.1875,0.227051 -0.265625,0.588379 -0.197266,1.008301 0.07422,0.405762 0.265625,0.716309 0.514649,0.868652 0.239257,0.570313 0.604492,1.094727 1.037109,1.488281 -0.0039,0.153809 -0.0098,0.29004 -0.02344,0.361817 -0.03418,0.139648 -0.185547,0.180176 -0.231446,0.189453 -0.955871,0.193237 -2.241882,1.088989 -3.063598,2.112976 -1.106263,-1.173218 -1.789917,-2.749145 -1.789917,-4.485046 0,-3.6113285 2.938476,-6.5493168 6.549804,-6.5493168 3.611328,0 6.549805,2.9379883 6.549805,6.5493168 z"
       id="path78"
       inkscape:connector-curvature="0" /><path
       d="m 51.950195,16.253418 c -4.162109,0 -7.548828,3.386719 -7.548828,7.549316 0,4.163086 3.386719,7.549805 7.548828,7.549805 4.163086,0 7.549805,-3.386719 7.549805,-7.549805 0,-4.162597 -3.386719,-7.549316 -7.549805,-7.549316 z m -4.020202,12.708679 c 0.656921,-0.841125 1.79248,-1.659363 2.522155,-1.806335 0.504883,-0.101563 0.889649,-0.459473 1.004883,-0.934082 0.03809,-0.155274 0.04785,-0.410156 0.05859,-0.811035 0.0039,-0.158692 -0.06738,-0.309571 -0.192383,-0.407715 -0.425781,-0.333496 -0.798828,-0.867676 -0.996094,-1.429688 -0.05469,-0.155761 -0.180664,-0.270508 -0.332031,-0.314453 -0.01758,-0.03564 -0.03906,-0.09033 -0.05176,-0.163574 -0.0127,-0.07813 -0.01172,-0.13916 -0.0068,-0.179199 0.132812,-0.09668 0.217773,-0.258789 0.217773,-0.428711 -0.002,-0.771973 -0.0039,-1.438965 0.222656,-1.862305 0.148438,-0.278808 0.459961,-0.598633 1.584961,-0.600586 1.102539,0.002 1.414063,0.321778 1.5625,0.600586 0.226563,0.42334 0.224609,1.090332 0.222656,1.88086 0,0.169921 0.08496,0.323242 0.21875,0.414062 0.0039,0.03955 0.0049,0.09766 -0.0068,0.169434 -0.01367,0.07666 -0.03516,0.133301 -0.05273,0.169433 -0.151367,0.04443 -0.277344,0.158692 -0.332031,0.314453 -0.197266,0.562012 -0.570313,1.096192 -0.996094,1.429688 -0.125,0.09814 -0.196289,0.249023 -0.192383,0.407715 0.01074,0.400879 0.02051,0.655761 0.05859,0.811035 0.115234,0.474609 0.5,0.832519 1.004883,0.934082 0.729553,0.146973 1.864868,0.965027 2.521911,1.80603 -1.111267,0.868103 -2.504882,1.390747 -4.020935,1.390747 -1.515869,0 -2.90924,-0.522522 -4.020202,-1.390442 z m 8.780517,-0.67456 c -0.821777,-1.02417 -2.107422,-1.919495 -3.064026,-2.112244 -0.0459,-0.0093 -0.197265,-0.0498 -0.230468,-0.185547 -0.01367,-0.07275 -0.01953,-0.210449 -0.02441,-0.366211 0.432617,-0.393555 0.797851,-0.91748 1.037109,-1.487793 0.25,-0.15332 0.442383,-0.46582 0.515625,-0.876465 0.06934,-0.415039 -0.0088,-0.774414 -0.197266,-1.001465 0,-0.782714 -0.02637,-1.516113 -0.339843,-2.103515 -0.405274,-0.758301 -1.204102,-1.12793 -2.469727,-1.129883 -1.239258,0.002 -2.038086,0.371582 -2.443359,1.129883 -0.311524,0.583984 -0.338868,1.3125 -0.339844,2.104004 -0.1875,0.227539 -0.265625,0.588379 -0.196289,1.006836 0.07324,0.407226 0.264648,0.718261 0.514648,0.871093 0.239258,0.569825 0.604492,1.09375 1.037109,1.487305 -0.0049,0.155274 -0.0098,0.291992 -0.02344,0.361817 -0.03418,0.140136 -0.185547,0.180664 -0.231445,0.189941 -0.956726,0.192749 -2.242554,1.088318 -3.06427,2.112549 -1.105896,-1.17334 -1.789246,-2.749329 -1.789246,-4.485108 0,-3.611328 2.9375,-6.549316 6.548828,-6.549316 3.611328,0 6.549805,2.937988 6.549805,6.549316 0,1.735657 -0.683472,3.311524 -1.78949,4.484803 z"
       id="path80"
       inkscape:connector-curvature="0" /><path
       d="m 1.9228516,39.415039 c 0,4.162598 3.3867188,7.549317 7.5488281,7.549317 4.1630863,0 7.5498043,-3.386719 7.5498043,-7.549317 0,-4.162598 -3.386718,-7.549316 -7.5498043,-7.549316 -4.1621094,0 -7.5488281,3.386718 -7.5488281,7.549316 z m 3.5284423,5.158936 C 6.1093139,43.732727 7.2442016,42.914978 7.9726562,42.768066 8.477539,42.666504 8.8623046,42.308594 8.977539,41.837402 9.016602,41.681152 9.025391,41.431641 9.036133,41.022949 9.0400391,40.864258 8.96875,40.713379 8.84375,40.615234 8.4179688,40.281738 8.0449219,39.747559 7.8476562,39.185547 7.7929687,39.029785 7.6669921,38.915527 7.515625,38.871582 7.498047,38.835942 7.477539,38.780762 7.463867,38.708984 c -0.012695,-0.0791 -0.011719,-0.140625 -0.00684,-0.181152 0.1337891,-0.09668 0.21875,-0.260254 0.21875,-0.430664 -0.00195,-0.771484 -0.00391,-1.4375 0.2226562,-1.860352 0.1484375,-0.27832 0.4599609,-0.598144 1.5839844,-0.600097 1.1025394,0.002 1.4140624,0.321777 1.5625004,0.600097 0.226562,0.422852 0.224609,1.088868 0.222656,1.881348 0,0.17041 0.08496,0.323731 0.21875,0.414551 0.0049,0.03955 0.0059,0.09668 -0.0059,0.16748 -0.01367,0.07764 -0.03516,0.134766 -0.05371,0.171387 -0.150391,0.04395 -0.276367,0.158203 -0.331055,0.313965 -0.197265,0.562012 -0.570312,1.096191 -0.996094,1.429687 -0.125,0.09815 -0.1962891,0.263184 -0.1914062,0.421387 0.00977,0.39502 0.018555,0.644531 0.057617,0.797363 0.1152352,0.47461 0.5000002,0.83252 1.0048832,0.934082 0.728516,0.146912 1.863526,0.964783 2.521485,1.806092 -1.111207,0.867798 -2.504639,1.390197 -4.0205088,1.390197 -1.5159302,1e-6 -2.9093628,-0.522521 -4.0203858,-1.39038 z M 9.4716797,32.865723 c 3.6113283,0 6.5498043,2.937988 6.5498043,6.549316 0,1.735901 -0.683593,3.311829 -1.789856,4.485047 -0.821716,-1.024415 -2.107788,-1.919739 -3.063659,-2.112488 -0.0459,-0.0093 -0.197266,-0.0498 -0.230469,-0.188477 -0.01465,-0.07226 -0.02051,-0.206543 -0.02441,-0.363281 0.432617,-0.394043 0.798828,-0.917969 1.037109,-1.48877 0.249024,-0.15332 0.441406,-0.46582 0.515625,-0.876953 0.06738,-0.414062 -0.01074,-0.772949 -0.198242,-0.999511 0,-0.783204 -0.02637,-1.51709 -0.339844,-2.104981 -0.405273,-0.757324 -1.204101,-1.126953 -2.4687498,-1.128906 -1.2392578,0.002 -2.0380859,0.371582 -2.4433594,1.128906 -0.3115234,0.583984 -0.3388672,1.3125 -0.3398438,2.105469 -0.1875,0.227539 -0.265625,0.588379 -0.1972656,1.007812 0.074219,0.405762 0.265625,0.715821 0.5146484,0.868653 0.2392578,0.570312 0.6044922,1.094726 1.0371094,1.488281 -0.00391,0.153808 -0.00977,0.290039 -0.023437,0.361816 -0.03418,0.140137 -0.1855469,0.180664 -0.2314453,0.189942 -0.9558105,0.192749 -2.2416382,1.08789 -3.0634155,2.112182 -1.105835,-1.173218 -1.7891235,-2.749023 -1.7891235,-4.484741 2e-7,-3.611328 2.9375002,-6.549316 6.5488283,-6.549316 z"
       id="path82"
       inkscape:connector-curvature="0" /><path
       d="m 23.956055,56.851074 c 2.892578,0 5.245117,-2.353515 5.245117,-5.246094 0,-2.892578 -2.352539,-5.245605 -5.245117,-5.245605 -2.892578,0 -5.246094,2.353027 -5.246094,5.245605 0,2.892579 2.353516,5.246094 5.246094,5.246094 z m -2.461426,-1.799805 c 0.428894,-0.491943 1.062073,-0.943908 1.48291,-1.028808 0.404297,-0.08057 0.712891,-0.368652 0.802734,-0.743652 0.03027,-0.119141 0.03613,-0.277344 0.0459,-0.58545 0.0049,-0.159179 -0.06641,-0.311523 -0.192383,-0.409179 -0.263672,-0.205567 -0.494141,-0.537598 -0.617187,-0.887696 -0.04297,-0.12207 -0.128907,-0.218261 -0.236329,-0.275879 -0.0029,-0.01563 -0.0059,-0.03223 -0.0088,-0.04785 0.08691,-0.09375 0.138672,-0.220215 0.138672,-0.353516 -0.002,-0.575195 -0.0029,-1.072265 0.208008,-1.284179 0.138672,-0.139161 0.417969,-0.209961 0.844727,-0.21045 0.412109,4.89e-4 0.691406,0.07129 0.830078,0.21045 0.210937,0.211914 0.209961,0.708984 0.208008,1.295898 0,0.132812 0.05176,0.255371 0.137695,0.346191 -0.002,0.01416 -0.0049,0.0293 -0.0078,0.04346 -0.107422,0.05762 -0.193359,0.153809 -0.236328,0.275879 -0.123047,0.350098 -0.353515,0.682129 -0.617187,0.887696 -0.125977,0.09766 -0.195313,0.288574 -0.191406,0.447753 0.0088,0.269532 0.01465,0.427735 0.04297,0.538575 0.0918,0.3833 0.400391,0.671386 0.803711,0.751953 0.421509,0.08484 1.055176,0.536926 1.484864,1.028564 -0.695801,0.498841 -1.541932,0.800049 -2.461426,0.800049 -0.919312,0 -1.765503,-0.301147 -2.461426,-0.799805 z m 2.461426,-7.691894 c 2.34082,0 4.245117,1.904785 4.245117,4.245605 0,1.057862 -0.402649,2.014527 -1.0448,2.758728 -0.517456,-0.578064 -1.328796,-1.179992 -2.053833,-1.318786 -0.0049,-0.03418 -0.0088,-0.0835 -0.01074,-0.145508 0.272461,-0.263184 0.503906,-0.597656 0.663086,-0.960449 0.18457,-0.134277 0.323242,-0.371094 0.376953,-0.67334 0.04883,-0.295898 -0.0029,-0.5625 -0.13086,-0.751465 -0.002,-0.686523 -0.04199,-1.325195 -0.5,-1.784668 -0.336914,-0.338867 -0.839843,-0.503906 -1.554687,-0.504883 -0.696289,9.77e-4 -1.199219,0.166016 -1.536133,0.504883 -0.456055,0.45752 -0.498047,1.093262 -0.5,1.785156 -0.12793,0.189454 -0.179687,0.45752 -0.129883,0.756836 0.05371,0.299317 0.191407,0.53418 0.376953,0.667969 0.158204,0.361328 0.387696,0.694336 0.65918,0.956543 -0.0059,0.06055 -0.01563,0.111817 -0.03516,0.145996 -0.701904,0.141297 -1.509277,0.743347 -2.026184,1.321594 -0.642273,-0.744201 -1.045105,-1.700805 -1.045105,-2.758606 0,-2.34082 1.905273,-4.245605 4.246094,-4.245605 z"
       id="path84"
       inkscape:connector-curvature="0" /><path
       d="m 40.832031,3.1489258 c -2.892578,0 -5.246094,2.3535156 -5.246094,5.2460938 0,2.8925784 2.353516,5.2456054 5.246094,5.2456054 2.892578,0 5.246094,-2.353027 5.246094,-5.2456054 0,-2.8925782 -2.353516,-5.2460938 -5.246094,-5.2460938 z m -2.46112,8.6921392 c 0.429016,-0.491761 1.062988,-0.943726 1.485534,-1.028565 0.401368,-0.08154 0.708985,-0.369141 0.801758,-0.749512 0.02832,-0.1132809 0.03613,-0.2641599 0.04395,-0.5820309 0.0039,-0.1582031 -0.06738,-0.309082 -0.191406,-0.40625 C 40.24707,8.8686524 40.016602,8.5361329 39.892578,8.1855469 39.849609,8.0639649 39.763672,7.9682617 39.65625,7.9106446 c -0.0029,-0.015625 -0.0059,-0.032227 -0.0088,-0.047852 0.08691,-0.09375 0.138672,-0.2202148 0.138672,-0.3535156 -0.002,-0.5751953 -0.0029,-1.0722656 0.208008,-1.2841797 0.138671,-0.1391602 0.417968,-0.2099609 0.844726,-0.2104492 0.413086,4.883e-4 0.692383,0.071289 0.831055,0.2104492 0.210937,0.2119141 0.209961,0.7089844 0.208008,1.2958984 0,0.1328125 0.05176,0.2553711 0.137695,0.3457031 -0.0029,0.01416 -0.0049,0.029785 -0.0078,0.043457 -0.108398,0.057617 -0.194335,0.1542969 -0.237304,0.2763672 -0.123047,0.3500977 -0.353516,0.6821289 -0.617188,0.8881836 -0.124023,0.097168 -0.195312,0.2480469 -0.191406,0.40625 0.0078,0.3178711 0.01563,0.46875 0.04395,0.5815434 0.09277,0.380859 0.400391,0.668457 0.802735,0.75 0.421631,0.08484 1.055542,0.536804 1.484558,1.028565 -0.695862,0.498474 -1.541931,0.79956 -2.461121,0.79956 -0.919189,0 -1.765259,-0.301086 -2.46112,-0.79956 z m 5.661804,-0.687439 c -0.518067,-0.578614 -1.329163,-1.1799321 -2.053223,-1.3157354 -0.0059,-0.035156 -0.0088,-0.087402 -0.01172,-0.1484375 0.272461,-0.2631836 0.503907,-0.5981445 0.663086,-0.9619141 0.18457,-0.1342773 0.323242,-0.3701172 0.37793,-0.671875 0.04883,-0.2958984 -0.0029,-0.5625 -0.130859,-0.7514648 -0.002,-0.6865234 -0.04199,-1.324707 -0.5,-1.784668 C 42.041015,5.180664 41.538086,5.015625 40.823242,5.0146484 40.125976,5.015625 39.623047,5.180664 39.286133,5.5195312 c -0.456055,0.4580078 -0.498047,1.0932617 -0.5,1.7851562 -0.12793,0.1894531 -0.179688,0.4580078 -0.129883,0.7568359 0.05371,0.2993164 0.192383,0.534668 0.376953,0.6679688 0.15918,0.3613281 0.388672,0.6943359 0.65918,0.9560547 -0.0059,0.061523 -0.01563,0.1137695 -0.03418,0.1464844 -0.701111,0.1409302 -1.509155,0.7429198 -2.026856,1.3215938 -0.642456,-0.74414 -1.04541,-1.7008663 -1.04541,-2.7586056 0,-2.3413086 1.905274,-4.2460938 4.246094,-4.2460938 2.34082,0 4.246094,1.9047852 4.246094,4.2460938 0,1.0577394 -0.402954,2.0144656 -1.04541,2.7586066 z"
       id="path86"
       inkscape:connector-curvature="0" /><path
       d="m 44.897461,42.327637 c 0,2.892578 2.353515,5.246093 5.246094,5.246093 2.892578,0 5.245117,-2.353515 5.245117,-5.246093 0,-2.892578 -2.352539,-5.245606 -5.245117,-5.245606 -2.892578,0 -5.246094,2.353028 -5.246094,5.245606 z m 2.784668,3.446289 c 0.428345,-0.491516 1.062073,-0.943482 1.48291,-1.028809 0.404297,-0.08057 0.712891,-0.368652 0.802734,-0.743652 0.03027,-0.119141 0.03613,-0.277344 0.0459,-0.585449 0.0049,-0.15918 -0.06641,-0.311524 -0.192383,-0.40918 -0.263672,-0.206055 -0.494141,-0.537598 -0.617187,-0.887695 -0.04297,-0.121582 -0.128907,-0.218262 -0.236329,-0.275879 -0.0029,-0.01563 -0.0059,-0.03223 -0.0088,-0.04785 0.08691,-0.09375 0.138672,-0.220215 0.138672,-0.353515 -0.002,-0.575196 -0.0029,-1.072266 0.208008,-1.28418 0.138672,-0.13916 0.417969,-0.209961 0.844727,-0.210449 0.412109,4.88e-4 0.691406,0.07129 0.830078,0.210449 0.210937,0.211914 0.209961,0.708984 0.208008,1.295898 0,0.133301 0.05176,0.25586 0.137695,0.34668 -0.002,0.01367 -0.0049,0.02881 -0.0068,0.04297 -0.108398,0.05713 -0.194336,0.153808 -0.237305,0.275879 -0.123047,0.350097 -0.353515,0.68164 -0.617187,0.887695 -0.125977,0.09766 -0.195313,0.288574 -0.191406,0.447754 0.0088,0.269531 0.01465,0.427734 0.04395,0.540527 0.09277,0.382324 0.401367,0.669922 0.802734,0.75 0.421509,0.08527 1.055176,0.536987 1.484864,1.028565 -0.695801,0.49884 -1.541932,0.800048 -2.461426,0.800048 -0.919373,1e-6 -1.765503,-0.301147 -2.461426,-0.799804 z m 6.706543,-3.446289 c 0,1.0578 -0.402649,2.014465 -1.044739,2.758667 -0.516785,-0.577698 -1.328125,-1.179505 -2.053894,-1.318726 -0.0049,-0.03418 -0.0088,-0.0835 -0.01074,-0.145508 0.272461,-0.263183 0.503906,-0.598144 0.663086,-0.961914 0.18457,-0.134277 0.323242,-0.370605 0.377929,-0.674316 0.04785,-0.293945 -0.0049,-0.560059 -0.131835,-0.748047 -0.002,-0.687012 -0.04199,-1.326172 -0.5,-1.785645 -0.336915,-0.338867 -0.839844,-0.503906 -1.554688,-0.504882 -0.696289,9.76e-4 -1.199219,0.166015 -1.536133,0.504882 -0.456054,0.45752 -0.498047,1.093262 -0.5,1.785157 -0.127929,0.189453 -0.179687,0.457519 -0.129882,0.756835 0.05371,0.299317 0.191406,0.53418 0.375976,0.667969 0.15918,0.361328 0.388672,0.694336 0.660156,0.956543 -0.0059,0.06055 -0.01563,0.112305 -0.03516,0.145996 -0.701843,0.142151 -1.509827,0.743653 -2.026245,1.321534 -0.642212,-0.744202 -1.045044,-1.700806 -1.045044,-2.758545 0,-2.340821 1.905274,-4.245606 4.246094,-4.245606 2.34082,0 4.245117,1.904785 4.245117,4.245606 z"
       id="path88"
       inkscape:connector-curvature="0" /><path
       d="m 5.7460938,26.068848 c 2.8925781,0 5.2451172,-2.353028 5.2451172,-5.245606 0,-2.892578 -2.3525391,-5.246094 -5.2451172,-5.246094 C 2.8535157,15.577148 0.5,17.930664 0.5,20.823242 c 0,2.892578 2.3535156,5.245606 5.2460938,5.245606 z M 3.2849731,24.269287 c 0.428833,-0.491516 1.0618286,-0.943787 1.482605,-1.029053 0.4033203,-0.08057 0.7119141,-0.367675 0.8046875,-0.749511 0.02832,-0.116211 0.03418,-0.27295 0.043945,-0.57959 0.00488,-0.15918 -0.066406,-0.311035 -0.1923828,-0.40918 -0.2636719,-0.206055 -0.4941406,-0.537598 -0.6171875,-0.887207 -0.042969,-0.12207 -0.1289062,-0.218262 -0.2363281,-0.275879 -0.00293,-0.01563 -0.00586,-0.03271 -0.00879,-0.04834 0.086914,-0.09375 0.1386719,-0.220214 0.1386719,-0.353515 -9.766e-4,-0.477051 -0.00293,-0.927735 0.1298828,-1.176758 0.046875,-0.08643 0.1689453,-0.316406 0.9228516,-0.317871 1.0039062,0.002 1.0410156,0.286621 1.0390625,1.506836 0,0.132324 0.051758,0.254394 0.1376953,0.345215 -0.00293,0.01465 -0.00586,0.02979 -0.00781,0.04443 -0.1083984,0.05713 -0.1943359,0.153809 -0.2373047,0.275879 -0.1230469,0.350098 -0.3535156,0.681641 -0.6171875,0.886719 -0.125,0.09814 -0.1962891,0.260742 -0.1914062,0.42041 0.00781,0.283203 0.014648,0.449219 0.043945,0.56836 0.092773,0.381835 0.4003906,0.669433 0.8027344,0.75 0.4215698,0.08527 1.0553589,0.537475 1.484375,1.02893 -0.6957397,0.498535 -1.541687,0.799683 -2.4609375,0.799683 -0.9191895,0 -1.7651978,-0.301087 -2.4611207,-0.799561 z m 2.4611207,-7.692139 c 2.3408203,0 4.2451172,1.904786 4.2451172,4.246094 0,1.057495 -0.4025879,2.013916 -1.0444946,2.757996 -0.5174561,-0.577759 -1.3284302,-1.179016 -2.0531616,-1.315613 -0.00586,-0.03516 -0.00879,-0.08691 -0.011719,-0.148438 C 7.1552733,21.854004 7.385742,21.519043 7.5458983,21.155273 7.7294921,21.020508 7.8681639,20.78418 7.9228514,20.481445 7.9716794,20.180664 7.9199214,19.914062 7.791992,19.727051 7.785152,18.70459 7.6630858,17.445801 5.7363279,17.442383 4.8359373,17.443883 4.2509763,17.721191 3.948242,18.290039 3.7265623,18.70459 3.7021482,19.19873 3.7001951,19.733398 c -0.1269531,0.189453 -0.1796875,0.45752 -0.1298828,0.756348 0.053711,0.298828 0.1914062,0.533203 0.3759766,0.667481 0.1591797,0.360839 0.3886719,0.694335 0.6601562,0.956543 -0.00586,0.06152 -0.015625,0.113769 -0.035156,0.145996 C 3.8702393,22.401489 3.0621948,23.00354 2.545166,23.581543 1.902832,22.837402 1.5,21.880859 1.5,20.823242 c 0,-2.341308 1.9052734,-4.246094 4.2460938,-4.246094 z"
       id="path90"
       inkscape:connector-curvature="0" /></g></svg>