<svg id="svg4420" xmlns:rdf="http://www.w3.org/1999/02/22-rdf-syntax-ns#" xmlns="http://www.w3.org/2000/svg" version="1.1" xmlns:cc="http://creativecommons.org/ns#" xmlns:dc="http://purl.org/dc/elements/1.1/" viewBox="0 0 16 16"><g id="layer1" transform="translate(0 -1036.4)"><path id="path4257" d="m4.8855 1039.9a0.93955 0.93955 0 0 0 -0.70276 1.5909l2.6312 2.7982-2.6073 2.822a0.93955 0.93955 0 1 0 1.3798 1.2752l2.5174-2.7248 2.4936 2.6496a0.93955 0.93955 0 1 0 1.3688 -1.2862l-2.5835-2.7469 2.5578-2.7688a0.93955 0.93955 0 0 0 -0.65138 -1.5853 0.93955 0.93955 0 0 0 -0.72844 0.3101l-2.4679 2.6715-2.5413-2.7008a0.93955 0.93955 0 0 0 -0.66606 -0.3047z" style="color-rendering:auto;text-decoration-color:#000000;color:#000000;shape-rendering:auto;solid-color:#000000;text-decoration-line:none;fill-rule:evenodd;mix-blend-mode:normal;block-progression:tb;text-indent:0;image-rendering:auto;white-space:normal;text-decoration-style:solid;isolation:auto;text-transform:none"/></g></svg>
