<?xml version="1.0" encoding="utf-8"?>
<!-- Generator: Adobe Illustrator 12.0.0, SVG Export Plug-In . SVG Version: 6.00 Build 51448)  -->
<!DOCTYPE svg PUBLIC "-//W3C//DTD SVG 1.1//EN" "http://www.w3.org/Graphics/SVG/1.1/DTD/svg11.dtd" [
	<!ENTITY ns_svg "http://www.w3.org/2000/svg">
	<!ENTITY ns_xlink "http://www.w3.org/1999/xlink">
]>
<svg  version="1.1" id="Layer_1" xmlns="&ns_svg;" xmlns:xlink="&ns_xlink;" width="28.582" height="28.583"
	 viewBox="0 0 28.582 28.583" overflow="visible" enable-background="new 0 0 28.582 28.583" xml:space="preserve">
<g opacity="0.52">
	<path fill="#7FC898" d="M9.181,14.506l7.448,7.448l0.707-0.707c0,0-6.102-6.103-6.741-6.741c0.639-0.638,6.741-6.74,6.741-6.74
		l-0.707-0.707L9.181,14.506z"/>
</g>
<g>
	<path fill="#7FC898" d="M0,14.292c0,7.881,6.411,14.291,14.291,14.291s14.291-6.41,14.291-14.291C28.582,6.411,22.171,0,14.291,0
		S0,6.411,0,14.292z M1.985,14.292c0-6.785,5.52-12.306,12.306-12.306s12.306,5.521,12.306,12.306s-5.52,12.306-12.306,12.306
		S1.985,21.077,1.985,14.292z"/>
</g>
</svg>
