<?xml version="1.0" encoding="utf-8"?>
<!-- Generator: Adobe Illustrator 12.0.0, SVG Export Plug-In . SVG Version: 6.00 Build 51448)  -->
<!DOCTYPE svg PUBLIC "-//W3C//DTD SVG 1.1//EN" "http://www.w3.org/Graphics/SVG/1.1/DTD/svg11.dtd" [
	<!ENTITY ns_svg "http://www.w3.org/2000/svg">
	<!ENTITY ns_xlink "http://www.w3.org/1999/xlink">
]>
<svg  version="1.1" id="Layer_1" xmlns="&ns_svg;" xmlns:xlink="&ns_xlink;" width="28.566" height="28.565"
	 viewBox="0 0 28.566 28.565" overflow="visible" enable-background="new 0 0 28.566 28.565" xml:space="preserve">
<g>
	<path fill="#E5E5E4" d="M16.521,19.758c2.783-0.326,5.744-1.34,5.744-6.145c0-1.367-0.481-2.48-1.266-3.342
		c0.126-0.33,0.532-1.568-0.151-3.287c0,0-1.012-0.33-3.391,1.262c-1.012-0.277-2.126-0.453-3.162-0.453
		c-1.063,0-2.176,0.176-3.164,0.453C8.729,6.655,7.717,6.985,7.717,6.985c-0.683,1.719-0.278,2.957-0.152,3.287
		C6.78,11.131,6.3,12.247,6.3,13.614c0,4.805,2.96,5.818,5.743,6.145c-0.354,0.305-0.683,0.889-0.81,1.699
		c-0.709,0.301-2.555,0.883-3.669-1.039c0,0-0.657-1.188-1.896-1.264c0,0-1.24-0.025-0.102,0.756c0,0,0.835,0.383,1.392,1.822
		c0,0,0.759,2.404,4.25,1.645v2.15c0,0.33-0.252,0.709-0.885,0.609c-4.961-1.646-8.527-6.352-8.527-11.867
		c0-6.906,5.592-12.5,12.5-12.5c6.883,0,12.499,5.594,12.474,12.5c0,5.516-3.568,10.197-8.526,11.867
		c-0.633,0.125-0.887-0.254-0.887-0.609v-3.465C17.356,20.897,16.977,20.139,16.521,19.758L16.521,19.758z M28.566,14.295
		C28.566,6.401,22.164,0,14.296,0C6.401,0,0,6.401,0,14.295c0,7.869,6.401,14.27,14.296,14.27
		C22.164,28.565,28.566,22.165,28.566,14.295L28.566,14.295z"/>
</g>
</svg>
