<?xml version="1.0" encoding="utf-8"?>
<!-- Generator: Adobe Illustrator 12.0.0, SVG Export Plug-In . SVG Version: 6.00 Build 51448)  -->
<!DOCTYPE svg PUBLIC "-//W3C//DTD SVG 1.1//EN" "http://www.w3.org/Graphics/SVG/1.1/DTD/svg11.dtd" [
	<!ENTITY ns_svg "http://www.w3.org/2000/svg">
	<!ENTITY ns_xlink "http://www.w3.org/1999/xlink">
]>
<svg  version="1.1" id="Layer_1" xmlns="&ns_svg;" xmlns:xlink="&ns_xlink;" width="28.584" height="28.584"
	 viewBox="0 0 28.584 28.584" overflow="visible" enable-background="new 0 0 28.584 28.584" xml:space="preserve">
<g>
	<g>
		<g>
			<path fill="#E5E5E4" d="M14.292,0C6.399,0,0,6.398,0,14.292c0,7.893,6.399,14.292,14.292,14.292s14.292-6.399,14.292-14.292
				C28.584,6.398,22.185,0,14.292,0z M14.285,26.741c-6.863,0-12.428-5.561-12.428-12.426c0-6.863,5.564-12.428,12.428-12.428
				c6.861,0,12.426,5.564,12.426,12.428C26.711,21.18,21.146,26.741,14.285,26.741z"/>
		</g>
	</g>
	<g>
		<rect x="8.346" y="10.61" fill="#E5E5E4" width="2.99" height="9.713"/>
		<path fill="#E5E5E4" d="M9.84,9.863c-0.827,0-1.494-0.669-1.494-1.495c0-0.824,0.667-1.494,1.494-1.494s1.496,0.67,1.496,1.494
			C11.336,9.194,10.667,9.863,9.84,9.863"/>
		<path fill="#E5E5E4" d="M21.795,20.323h-2.988v-5.604c0-0.298-0.303-0.786-0.513-0.903c-0.279-0.159-0.943-0.174-1.244-0.027
			l-1.232,0.591v5.944h-2.988V10.61h2.988v0.459c1.184-0.538,2.825-0.488,3.937,0.139c1.183,0.661,2.041,2.139,2.041,3.511V20.323z"
			/>
	</g>
</g>
</svg>
