<?xml version="1.0" encoding="utf-8"?>
<!-- Generator: Adobe Illustrator 12.0.0, SVG Export Plug-In . SVG Version: 6.00 Build 51448)  -->
<!DOCTYPE svg PUBLIC "-//W3C//DTD SVG 1.1//EN" "http://www.w3.org/Graphics/SVG/1.1/DTD/svg11.dtd" [
	<!ENTITY ns_svg "http://www.w3.org/2000/svg">
	<!ENTITY ns_xlink "http://www.w3.org/1999/xlink">
]>
<svg  version="1.1" id="Layer_1" xmlns="&ns_svg;" xmlns:xlink="&ns_xlink;" width="28.385" height="28.385"
	 viewBox="0 0 28.385 28.385" overflow="visible" enable-background="new 0 0 28.385 28.385" xml:space="preserve">
<g>
	<g>
		<g>
			<path fill="#E5E5E4" d="M14.192,0C6.354,0,0,6.354,0,14.191c0,7.839,6.354,14.194,14.192,14.194
				c7.836,0,14.192-6.355,14.192-14.194C28.385,6.354,22.028,0,14.192,0z M14.184,26.554c-6.815,0-12.339-5.524-12.339-12.339
				c0-6.815,5.523-12.341,12.339-12.341c6.814,0,12.34,5.525,12.34,12.341C26.523,21.03,20.998,26.554,14.184,26.554z"/>
		</g>
	</g>
	<path fill="#E5E5E4" d="M13.574,17.464c-0.151,0.271-0.342,0.506-0.571,0.693c-0.258,0.216-0.563,0.363-0.912,0.443
		c-0.353,0.08-0.732,0.118-1.143,0.118H7.306V9.881h3.906c0.984,0.018,1.682,0.33,2.096,0.941c0.245,0.377,0.368,0.827,0.368,1.35
		c0,0.54-0.124,0.973-0.374,1.303c-0.139,0.184-0.344,0.35-0.615,0.503c0.412,0.163,0.724,0.422,0.931,0.78
		c0.212,0.355,0.317,0.787,0.317,1.293C13.935,16.575,13.816,17.047,13.574,17.464"/>
	<rect x="16.145" y="9.881" fill="#E5E5E4" width="2.945" height="1.473"/>
	<path fill="#E5E5E4" d="M20.562,15.774h-4.054c0.021,0.736,0.216,1.1,0.58,1.352c0.221,0.157,0.489,0.252,0.801,0.252
		c0.333,0,0.604-0.171,0.81-0.362c0.113-0.103,0.215,0.048,0.302-0.505h1.484c-0.04,0.553-0.219,0.831-0.539,1.215
		c-0.499,0.604-1.197,0.953-2.095,0.953c-0.741,0-1.396-0.236-1.962-0.748c-0.566-0.514-0.85-1.338-0.85-2.492
		c0-1.082,0.253-1.908,0.765-2.484c0.515-0.578,1.179-0.865,1.995-0.865c0.483,0,0.919,0.101,1.31,0.295
		c0.388,0.195,0.707,0.504,0.961,0.926c0.228,0.371,0.375,0.768,0.443,1.256c0.039,0.287,0.055,1.209,0.055,1.209"/>
</g>
</svg>
