<?xml version="1.0" encoding="utf-8"?>
<!-- Generator: Adobe Illustrator 16.0.0, SVG Export Plug-In . SVG Version: 6.00 Build 0)  -->
<!DOCTYPE svg PUBLIC "-//W3C//DTD SVG 1.1//EN" "http://www.w3.org/Graphics/SVG/1.1/DTD/svg11.dtd">
<svg version="1.1" id="Calque_1" xmlns="http://www.w3.org/2000/svg" xmlns:xlink="http://www.w3.org/1999/xlink" x="0px" y="0px"
	 width="141.732px" height="141.732px" viewBox="0 0 141.732 141.732" enable-background="new 0 0 141.732 141.732"
	 xml:space="preserve">
<path fill="#009FE3" d="M141.732,70.866C141.732,31.729,110.005,0,70.866,0S0,31.729,0,70.866s31.728,70.866,70.866,70.866
	c1.649,0,3.279-0.077,4.899-0.188c-0.051-0.612-0.093-1.228-0.093-1.853c0-11.89,9.638-21.527,21.527-21.527
	c7.034,0,13.261,3.389,17.188,8.606C131.023,113.803,141.732,93.591,141.732,70.866z"/>
<path d="M70.866,98.678c-15.738,0-29.083,14.454-33.796,34.492c10.045,5.46,21.559,8.563,33.796,8.563s23.751-3.103,33.796-8.563
	C99.949,113.132,86.604,98.678,70.866,98.678z"/>
<g>
	<path fill="#FFFFFF" d="M78.154,84.463H63.578v8.953c0,0,0,10,7.288,10s7.288-10,7.288-10V84.463z"/>
	<path fill="#FFFFFF" d="M70.866,38.316v55.623c13.229,0,23.955-12.452,23.955-27.812S84.096,38.316,70.866,38.316z"/>
	<path fill="#F6F6F6" d="M46.911,66.128c0,15.359,10.726,27.812,23.955,27.812V38.316C57.637,38.316,46.911,50.769,46.911,66.128z"
		/>
	<circle cx="60.889" cy="66.128" r="2.096"/>
	<circle cx="80.844" cy="66.128" r="2.096"/>
</g>
<polygon fill="#00405B" points="70.866,11.907 36.911,28.316 46.911,66.128 70.866,46.128 94.821,66.128 104.821,28.316 "/>
<polygon fill="#7DC9CA" points="36.911,28.316 70.866,46.128 46.911,66.128 "/>
<polygon fill="#3363AC" points="70.866,46.128 104.821,28.316 94.821,66.128 "/>
<path fill="#3363AC" d="M97.2,118.165c-11.89,0-21.527,9.638-21.527,21.527c0,0.625,0.042,1.24,0.093,1.853
	c14.514-0.992,27.818-6.349,38.623-14.773C110.461,121.554,104.234,118.165,97.2,118.165z"/>
<g>
	<path fill="#FFFFFF" d="M100.844,110.729h-7.287v4.477c0,0,0,5,3.644,5s3.644-5,3.644-5V110.729z"/>
	<path fill="#FFFFFF" d="M97.2,87.654v27.813c6.615,0,11.978-6.227,11.978-13.906S103.815,87.654,97.2,87.654z"/>
	<path fill="#F6F6F6" d="M85.223,101.561c0,7.68,5.362,13.906,11.978,13.906V87.654C90.585,87.654,85.223,93.881,85.223,101.561z"/>
	<circle cx="92.211" cy="101.561" r="1.047"/>
	<circle cx="102.189" cy="101.561" r="1.047"/>
</g>
</svg>
