<?xml version="1.0" encoding="utf-8"?>
<!-- Generator: Adobe Illustrator 16.0.0, SVG Export Plug-In . SVG Version: 6.00 Build 0)  -->
<!DOCTYPE svg PUBLIC "-//W3C//DTD SVG 1.1//EN" "http://www.w3.org/Graphics/SVG/1.1/DTD/svg11.dtd">
<svg version="1.1" id="Calque_1" xmlns="http://www.w3.org/2000/svg" xmlns:xlink="http://www.w3.org/1999/xlink" x="0px" y="0px"
	 width="141.732px" height="141.732px" viewBox="0 0 141.732 141.732" enable-background="new 0 0 141.732 141.732"
	 xml:space="preserve">
<circle fill="#009FE3" cx="71.539" cy="70.937" r="70.866"/>
<g>
	<circle fill="#00405B" cx="72.181" cy="70.937" r="49.342"/>
	<path fill="#00405B" d="M72.181,16.231c-30.213,0-54.705,24.492-54.705,54.706c0,30.212,24.492,54.704,54.705,54.704
		s54.705-24.492,54.705-54.704C126.886,40.724,102.394,16.231,72.181,16.231z M72.181,120.278c-27.251,0-49.342-22.09-49.342-49.341
		S44.93,21.595,72.181,21.595c27.25,0,49.342,22.092,49.342,49.343S99.431,120.278,72.181,120.278z"/>
	<circle fill="#FFFFFF" cx="72.181" cy="70.938" r="44.282"/>
	<path fill="#7DC9CA" d="M88.297,18.646c-5.096-1.567-10.507-2.414-16.116-2.414c-30.213,0-54.705,24.492-54.705,54.706
		c0,30.212,24.492,54.704,54.705,54.704c5.609,0,11.021-0.846,16.116-2.414c22.346-6.88,38.589-27.688,38.589-52.29
		C126.886,46.333,110.643,25.525,88.297,18.646z"/>
	<path fill="#00405B" d="M72.181,21.595c-27.251,0-49.342,22.092-49.342,49.343s22.091,49.341,49.342,49.341
		c27.25,0,49.342-22.09,49.342-49.341S99.431,21.595,72.181,21.595z M72.181,115.219c-24.457,0-44.282-19.825-44.282-44.281
		c0-24.458,19.825-44.283,44.282-44.283s44.282,19.825,44.282,44.283C116.463,95.394,96.638,115.219,72.181,115.219z"/>
	<circle opacity="0.25" fill="none" cx="72.181" cy="70.938" r="49.342"/>
	<g>
		<rect x="69.61" y="32.606" fill="#7DC9CA" width="5.141" height="13.096"/>
		
			<rect x="92.084" y="41.916" transform="matrix(0.7071 0.7071 -0.7071 0.7071 61.9927 -52.736)" fill="#7DC9CA" width="5.14" height="13.095"/>
		<rect x="97.416" y="68.366" fill="#7DC9CA" width="13.095" height="5.141"/>
		
			<rect x="92.084" y="86.864" transform="matrix(-0.7071 0.7071 -0.7071 -0.7071 227.6358 92.5324)" fill="#7DC9CA" width="5.14" height="13.095"/>
		<rect x="69.609" y="96.171" fill="#7DC9CA" width="5.143" height="13.096"/>
		
			<rect x="47.137" y="86.863" transform="matrix(-0.7073 -0.7069 0.7069 -0.7073 18.8311 194.6184)" fill="#7DC9CA" width="5.14" height="13.096"/>
		<rect x="33.85" y="68.366" fill="#7DC9CA" width="13.097" height="5.141"/>
		
			<rect x="47.137" y="41.917" transform="matrix(0.7071 -0.7071 0.7071 0.7071 -19.7101 49.3433)" fill="#7DC9CA" width="5.142" height="13.095"/>
	</g>
	<circle fill="#00405B" cx="72.181" cy="70.938" r="3.855"/>
	<circle fill="#7DC9CA" cx="72.181" cy="70.938" r="1.988"/>
	<path opacity="0.25" fill="none" d="M126.886,70.938c0-24.604-16.243-45.412-38.589-52.292
		c-22.347,6.88-38.589,27.688-38.589,52.292c0,24.603,16.242,45.41,38.589,52.29C110.643,116.348,126.886,95.54,126.886,70.938z"/>
	<polygon fill="#3363AC" points="69.097,40.655 69.61,45.702 74.751,45.702 75.264,40.655 	"/>
	<polygon fill="#3363AC" points="91.412,47.344 88.207,51.275 91.842,54.911 95.773,51.705 	"/>
	<polygon fill="#3363AC" points="102.462,67.853 97.415,68.366 97.415,73.507 102.463,74.021 	"/>
	<polygon fill="#3363AC" points="95.773,90.168 91.842,86.963 88.207,90.598 91.412,94.529 	"/>
	<polygon fill="#3363AC" points="75.265,101.218 74.752,96.171 69.61,96.171 69.097,101.219 	"/>
	<polygon fill="#3363AC" points="52.949,94.529 56.155,90.598 52.52,86.963 48.588,90.169 	"/>
	<polygon fill="#3363AC" points="41.899,74.021 46.946,73.507 46.947,68.366 41.898,67.853 	"/>
	<polygon fill="#3363AC" points="48.588,51.705 52.52,54.911 56.155,51.276 52.948,47.344 	"/>
	<polygon fill="none" points="74.751,45.702 75.264,40.655 75.264,26.654 79.182,32.798 79.182,39.154 	"/>
	<polygon fill="none" points="91.842,54.911 95.773,51.705 105.674,41.805 104.099,48.919 99.604,53.413 	"/>
	<polygon fill="none" points="97.415,73.507 102.463,74.021 116.463,74.021 110.319,77.938 103.963,77.938 	"/>
	<polygon fill="none" points="88.207,90.598 91.412,94.529 101.312,104.431 94.198,102.854 89.703,98.36 	"/>
	<polygon fill="none" points="69.61,96.171 69.097,101.219 69.097,115.219 65.18,109.075 65.18,102.719 	"/>
	<polygon fill="none" points="52.52,86.963 48.588,90.169 38.688,100.068 40.262,92.954 44.756,88.46 	"/>
	<polygon fill="none" points="46.947,68.366 41.898,67.853 27.898,67.853 34.042,63.936 40.398,63.936 	"/>
	<polygon fill="none" points="56.155,51.276 52.948,47.344 43.05,37.443 50.163,39.019 54.657,43.513 	"/>
	<g>
		
			<rect x="96.065" y="36.112" transform="matrix(0.7071 0.7071 -0.7071 0.7071 60.1306 -57.2307)" fill="#009FE3" width="6.168" height="15.714"/>
		<rect x="102.462" y="67.853" fill="#009FE3" width="15.715" height="6.169"/>
		
			<rect x="96.065" y="90.049" transform="matrix(-0.7071 0.7071 -0.7071 -0.7071 238.4868 97.0271)" fill="#009FE3" width="6.168" height="15.714"/>
		<rect x="69.096" y="101.219" fill="#009FE3" width="6.168" height="15.714"/>
		
			<rect x="42.128" y="90.048" transform="matrix(-0.7073 -0.7069 0.7069 -0.7073 7.9756 199.1131)" fill="#009FE3" width="6.168" height="15.714"/>
		<rect x="26.185" y="67.853" fill="#009FE3" width="15.715" height="6.169"/>
		
			<rect x="42.128" y="36.112" transform="matrix(0.7071 -0.7071 0.7071 0.7071 -17.8485 44.8483)" fill="#009FE3" width="6.168" height="15.714"/>
		<rect x="69.097" y="24.94" fill="#009FE3" width="6.167" height="15.715"/>
	</g>
	<path fill="#00405B" d="M72.181,70.938H34.042C34.042,70.938,54.337,79.946,72.181,70.938z"/>
	<path fill="#009FE3" d="M72.181,70.938H34.042C34.042,70.938,54.337,61.927,72.181,70.938z"/>
	<path fill="#009FE3" d="M72.18,70.938l26.968-26.969C99.147,43.969,78.427,51.948,72.18,70.938z"/>
	<path fill="#00405B" d="M72.18,70.938l26.968-26.969C99.147,43.969,91.168,64.69,72.18,70.938z"/>
</g>
</svg>
