<?xml version="1.0" encoding="utf-8"?>
<!-- Generator: Adobe Illustrator 16.0.0, SVG Export Plug-In . SVG Version: 6.00 Build 0)  -->
<!DOCTYPE svg PUBLIC "-//W3C//DTD SVG 1.1//EN" "http://www.w3.org/Graphics/SVG/1.1/DTD/svg11.dtd">
<svg version="1.1" id="Calque_1" xmlns="http://www.w3.org/2000/svg" xmlns:xlink="http://www.w3.org/1999/xlink" x="0px" y="0px"
	 width="141.732px" height="146.099px" viewBox="0 0 141.732 146.099" enable-background="new 0 0 141.732 146.099"
	 xml:space="preserve">
<g>
	<circle fill="#009FE3" cx="70.866" cy="70.866" r="70.866"/>
	<g>
		<path fill="#002D41" d="M94.949,37.66C68.049,10.76,34.271-1.293,17,12.777C-3.839,29.756,6.527,77.042,44.412,114.926
			c37.885,37.885,77.451,40.532,86.519,11.782C138.449,102.885,121.85,64.562,94.949,37.66z"/>
		<path fill="#3363AC" d="M99.9,32.709C73,5.809,39.221-6.243,21.949,7.827C1.11,24.807,11.478,72.092,49.361,109.977
			c37.885,37.885,77.451,40.532,86.52,11.782C143.398,97.935,126.801,59.61,99.9,32.709z"/>
		<path fill="#7DC9CA" d="M96.203,38.36C74.041,16.199,46.607,6.974,33.343,19.222C17.93,33.451,27.083,70.402,56.2,99.52
			c29.12,29.119,60.257,32.459,68.288,10.848C131.401,91.769,118.367,60.524,96.203,38.36z"/>
		<path fill="#009FE3" d="M88.17,47.764c-18.842-18.843-41.94-26.274-52.678-15.502c-12.166,12.206-4.113,42.531,19.532,66.176
			c23.647,23.647,49.313,27.043,56.423,9.778C117.721,92.981,107.015,66.608,88.17,47.764z"/>
		<path fill="#7DC9CA" d="M60.18,92.163c-2.405-2.405-5.352-2.912-6.599-1.107c-1.263,1.832-0.302,5.335,2.169,7.805
			c2.469,2.47,5.456,2.916,6.657,1.021C63.59,98.013,62.585,94.568,60.18,92.163z"/>
		<polygon fill="#002D41" points="75.955,68.82 73.772,70.485 75.739,70.528 77.994,68.819 		"/>
		<path fill="#7DC9CA" d="M42.617,35.03c2.144,2.144,2.936,4.87,1.753,6.106c-1.197,1.251-3.956,0.5-6.151-1.694
			c-2.194-2.194-2.949-4.958-1.701-6.158C37.75,32.098,40.474,32.887,42.617,35.03z"/>
		<path fill="#7DC9CA" d="M107.871,100.284c-2.143-2.143-4.475-2.54-5.223-0.869c-0.754,1.694,0.408,4.864,2.601,7.058
			c2.194,2.194,4.55,2.541,5.253,0.795C111.196,105.544,110.015,102.428,107.871,100.284z"/>
		<path fill="#7DC9CA" d="M88.592,49.596c-1.934-1.934-4.146-2.571-4.951-1.409c-0.813,1.175,0.12,3.737,2.096,5.714
			c1.976,1.975,4.21,2.579,4.981,1.363C91.482,54.062,90.526,51.53,88.592,49.596z"/>
		<polygon fill="#3363AC" points="61.197,94.805 57.658,97.338 74.646,71.358 77.994,68.819 		"/>
		<polygon fill="#7DC9CA" points="62.806,96.413 79.437,70.262 77.994,68.819 61.196,94.804 		"/>
		<polygon fill="#002D41" points="62.806,96.413 59.247,98.928 57.658,97.338 61.197,94.805 		"/>
		<polygon fill="#7DC9CA" points="69.225,38.568 75.955,68.82 77.994,68.819 71.5,38.568 		"/>
		<polygon fill="#3363AC" points="69.225,38.568 67.434,40.358 73.772,70.485 75.955,68.82 		"/>
		<path fill="#002D41" d="M76.795,68.116c-3.186-3.185-6.938-4.083-8.408-1.971c-1.497,2.155-0.059,6.605,3.24,9.904
			c3.298,3.298,7.113,4.101,8.495,1.832C81.481,75.656,79.98,71.302,76.795,68.116z"/>
		<path fill="#3363AC" d="M78.279,66.632c-3.185-3.185-6.938-4.084-8.407-1.972c-1.498,2.155-0.06,6.606,3.239,9.904
			c3.298,3.299,7.113,4.102,8.496,1.832C82.966,74.172,81.465,69.817,78.279,66.632z"/>
	</g>
</g>
</svg>
