<?xml version="1.0" encoding="utf-8"?>
<!-- Generator: Adobe Illustrator 16.0.0, SVG Export Plug-In . SVG Version: 6.00 Build 0)  -->
<!DOCTYPE svg PUBLIC "-//W3C//DTD SVG 1.1//EN" "http://www.w3.org/Graphics/SVG/1.1/DTD/svg11.dtd">
<svg version="1.1" id="Calque_1" xmlns="http://www.w3.org/2000/svg" xmlns:xlink="http://www.w3.org/1999/xlink" x="0px" y="0px"
	 width="297.638px" height="297.638px" viewBox="0 0 297.638 297.638" enable-background="new 0 0 297.638 297.638"
	 xml:space="preserve">
<rect x="75.357" y="125.394" fill="#3363AC" width="148.375" height="148.375"/>
<polygon opacity="0.25" fill="#FFFFFF" points="75.357,273.769 223.732,125.394 75.357,125.394 "/>
<polygon opacity="0.25" fill="#FFFFFF" points="75.357,125.394 223.732,273.769 223.732,125.394 "/>
<path fill="#3363AC" d="M149.642,44.041c-25.075,0-42.253,12.763-52.512,39.016c-4.639,11.871-6.74,23.98-7.69,32.338h10.845
	c0-0.174,0.187-17.855,6.857-34.925c8.303-21.248,22.205-31.577,42.5-31.577c20.114,0,33.944,10.146,42.279,31.019
	c6.921,17.327,7.078,35.331,7.078,35.483h10.852c-0.964-8.503-3.125-20.898-7.971-33.028
	C191.582,56.577,174.495,44.041,149.642,44.041z"/>
<path fill="#3363AC" d="M215.407,71.162c-11.99-30.684-35.346-47.582-65.766-47.582c-30.419,0-53.774,16.898-65.766,47.582
	c-8.512,21.781-8.609,43.326-8.609,44.232h14.173c0.95-8.357,3.052-20.467,7.69-32.338c10.259-26.253,27.437-39.016,52.512-39.016
	c24.854,0,41.94,12.536,52.238,38.325c4.846,12.13,7.007,24.525,7.971,33.028h14.166C224.017,114.488,223.919,92.943,215.407,71.162
	z"/>
<path opacity="0.25" fill="#FFFFFF" d="M215.407,71.162c-11.99-30.684-35.346-47.582-65.766-47.582
	c-30.419,0-53.774,16.898-65.766,47.582c-8.512,21.781-8.609,43.326-8.609,44.232h14.173c0.95-8.357,3.052-20.467,7.69-32.338
	c10.259-26.253,27.437-39.016,52.512-39.016c24.854,0,41.94,12.536,52.238,38.325c4.846,12.13,7.007,24.525,7.971,33.028h14.166
	C224.017,114.488,223.919,92.943,215.407,71.162z"/>
<path fill="#FFFFFF" d="M187.548,237.585l-28.065-38.902c5.944-3.439,9.953-9.852,9.953-17.213c0-10.986-8.905-19.891-19.891-19.891
	s-19.89,8.904-19.89,19.891c0,7.361,4.009,13.773,9.953,17.213l-28.066,38.902H187.548z"/>
</svg>
