<?xml version="1.0" encoding="utf-8"?>
<!-- Generator: Adobe Illustrator 16.0.0, SVG Export Plug-In . SVG Version: 6.00 Build 0)  -->
<!DOCTYPE svg PUBLIC "-//W3C//DTD SVG 1.1//EN" "http://www.w3.org/Graphics/SVG/1.1/DTD/svg11.dtd">
<svg version="1.1" id="Calque_1" xmlns="http://www.w3.org/2000/svg" xmlns:xlink="http://www.w3.org/1999/xlink" x="0px" y="0px"
	 width="141.732px" height="141.732px" viewBox="0 0 141.732 141.732" enable-background="new 0 0 141.732 141.732"
	 xml:space="preserve">
<circle fill="#009FE3" cx="70.866" cy="70.867" r="70.866"/>
<path fill="#3363AC" d="M104.514,98.678c9.248,0,17.667,4.996,23.996,13.178c-9.71,13.666-24.134,23.736-40.91,27.838
	c-5.957-1.459-11.622-3.664-16.881-6.523C75.432,113.133,88.775,98.678,104.514,98.678z"/>
<g>
	<path fill="#FFFFFF" d="M97.226,84.463h14.576v8.953c0,0,0,10-7.288,10s-7.288-10-7.288-10V84.463z"/>
	<path fill="#FFFFFF" d="M104.514,38.316v55.623c-13.23,0-23.955-12.451-23.955-27.811S91.283,38.316,104.514,38.316z"/>
	<path fill="#F6F6F6" d="M128.469,66.129c0,15.359-10.725,27.811-23.955,27.811V38.316C117.744,38.316,128.469,50.77,128.469,66.129
		z"/>
	<circle cx="114.491" cy="66.129" r="2.095"/>
	<circle cx="94.536" cy="66.129" r="2.095"/>
</g>
<path fill="#7DC9CA" d="M128.469,66.129c0,0,4.56-22.35-9.697-22.35L128.469,66.129z"/>
<path fill="#7DC9CA" d="M80.559,66.129c0,0-4.56-22.35,9.697-22.35L80.559,66.129z"/>
<path fill="#3363AC" d="M36.923,93.939c41.083,0,23.955-27.811,23.955-27.811h-47.91C12.968,66.129-4.16,93.939,36.923,93.939"/>
<path fill="#7DC9CA" d="M36.923,98.678c-9.248,0-17.667,4.996-23.996,13.178c9.71,13.666,24.134,23.736,40.91,27.838
	c5.958-1.459,11.622-3.664,16.882-6.523C66.006,113.133,52.66,98.678,36.923,98.678z"/>
<g>
	<path fill="#FFFFFF" d="M44.211,84.463H29.635v8.953c0,0,0,10,7.288,10s7.288-10,7.288-10V84.463z"/>
	<path fill="#FFFFFF" d="M36.923,38.316v55.623c13.229,0,23.955-12.451,23.955-27.811S50.152,38.316,36.923,38.316z"/>
	<path fill="#F6F6F6" d="M12.968,66.129c0,15.359,10.726,27.811,23.955,27.811V38.316C23.693,38.316,12.968,50.77,12.968,66.129z"/>
	<circle cx="26.945" cy="66.129" r="2.096"/>
	<circle cx="46.9" cy="66.129" r="2.096"/>
</g>
<path fill="#00405B" d="M36.923,28.316c-33.796,0-23.955,37.813-23.955,37.813L23.02,50.338H51l9.878,15.791
	C60.878,66.129,70.719,28.316,36.923,28.316"/>
<path d="M70.719,98.678c-15.738,0-29.084,14.455-33.796,34.492c10.045,5.461,21.558,8.563,33.796,8.563
	c12.237,0,23.75-3.102,33.795-8.563C99.801,113.133,86.456,98.678,70.719,98.678z"/>
<polygon fill="#3363AC" points="23.02,50.338 36.923,37.223 51.002,50.338 "/>
<polygon fill="#00405B" points="94.674,8.316 46.764,28.316 46.764,66.129 94.674,66.129 94.674,28.316 "/>
<polygon fill="#7DC9CA" points="46.764,28.316 70.866,47.223 46.764,66.129 "/>
<g>
	<path fill="#FFFFFF" d="M78.006,84.463H63.43v8.953c0,0,0,10,7.289,10c7.287,0,7.287-10,7.287-10V84.463z"/>
	<path fill="#FFFFFF" d="M70.719,38.316v55.623c13.229,0,23.955-12.451,23.955-27.811S83.948,38.316,70.719,38.316z"/>
	<path fill="#F6F6F6" d="M46.764,66.129c0,15.359,10.725,27.811,23.955,27.811V38.316C57.488,38.316,46.764,50.77,46.764,66.129z"/>
	<circle cx="60.741" cy="66.129" r="2.095"/>
	<circle cx="80.696" cy="66.129" r="2.095"/>
</g>
<polygon fill="#3363AC" points="46.764,28.316 70.866,47.223 94.674,8.316 "/>
</svg>
