<?xml version="1.0" encoding="utf-8"?>
<!-- Generator: Adobe Illustrator 16.0.0, SVG Export Plug-In . SVG Version: 6.00 Build 0)  -->
<!DOCTYPE svg PUBLIC "-//W3C//DTD SVG 1.1//EN" "http://www.w3.org/Graphics/SVG/1.1/DTD/svg11.dtd">
<svg version="1.1" id="Calque_1" xmlns="http://www.w3.org/2000/svg" xmlns:xlink="http://www.w3.org/1999/xlink" x="0px" y="0px"
	 width="141.732px" height="141.474px" viewBox="0 0 141.732 141.474" enable-background="new 0 0 141.732 141.474"
	 xml:space="preserve">
<circle fill="#009FE3" cx="70.866" cy="70.866" r="70.866"/>
<path d="M70.866,98.419c-15.738,0-29.082,14.454-33.795,34.492c10.045,5.46,21.558,8.563,33.795,8.563
	c12.238,0,23.751-3.103,33.796-8.563C99.949,112.873,86.604,98.419,70.866,98.419z"/>
<g>
	<path fill="#FFFFFF" d="M78.155,84.204H63.579v8.953c0,0,0,10,7.287,10c7.289,0,7.289-10,7.289-10V84.204z"/>
	<path fill="#FFFFFF" d="M70.866,38.058v55.623c13.23,0,23.955-12.452,23.955-27.812S84.097,38.058,70.866,38.058z"/>
	<path fill="#F6F6F6" d="M46.911,65.869c0,15.359,10.726,27.812,23.955,27.812V38.058C57.637,38.058,46.911,50.51,46.911,65.869z"/>
	<circle cx="60.889" cy="65.869" r="2.095"/>
	<circle cx="80.844" cy="65.869" r="2.095"/>
</g>
<path fill="#002D41" d="M46.911,54.194h23.954v-16.65C29.304,37.544,46.911,54.194,46.911,54.194z"/>
<path fill="#00405B" d="M70.865,37.544v16.65h23.956C94.821,54.194,112.427,37.544,70.865,37.544z"/>
<polygon fill="#002D41" points="70.865,37.544 80.845,29.621 80.845,36.246 "/>
<g>
	<path fill="#7DC9CA" d="M30.167,105.324c14.554,14.554,29.443,23.261,33.258,19.447L10.72,72.066
		C6.905,75.88,15.612,90.771,30.167,105.324z"/>
	<path fill="#00405B" d="M43.978,91.515C29.423,76.96,14.532,68.253,10.72,72.066l52.705,52.705
		C67.237,120.958,58.53,106.068,43.978,91.515z"/>
	<g>
		<ellipse fill="#3363AC" cx="49.035" cy="110.876" rx="10.022" ry="2.527"/>
		<ellipse fill="#3363AC" cx="41.964" cy="103.806" rx="10.022" ry="2.527"/>
		<ellipse fill="#3363AC" cx="34.893" cy="96.734" rx="10.022" ry="2.527"/>
		<ellipse fill="#3363AC" cx="27.822" cy="89.663" rx="10.022" ry="2.527"/>
	</g>
</g>
<path fill="#7DC9CA" d="M104.661,98.867c-9.158,0-16.583-1.132-16.583-2.527v5.056c0,1.396,7.425,2.527,16.583,2.527
	c9.159,0,16.584-1.132,16.584-2.527V96.34C121.245,97.735,113.82,98.867,104.661,98.867z"/>
<ellipse fill="#3363AC" cx="104.661" cy="96.339" rx="16.583" ry="2.528"/>
<ellipse fill="#FFFFFF" cx="104.661" cy="103.923" rx="9.265" ry="2.41"/>
<ellipse transform="matrix(0.7071 0.7071 -0.7071 0.7071 81.6335 10.765)" fill="#FFFFFF" cx="27.822" cy="103.923" rx="9.264" ry="2.41"/>
</svg>
