<?xml version="1.0" encoding="utf-8"?>
<!-- Generator: Adobe Illustrator 16.0.0, SVG Export Plug-In . SVG Version: 6.00 Build 0)  -->
<!DOCTYPE svg PUBLIC "-//W3C//DTD SVG 1.1//EN" "http://www.w3.org/Graphics/SVG/1.1/DTD/svg11.dtd">
<svg version="1.1" id="Calque_1" xmlns="http://www.w3.org/2000/svg" xmlns:xlink="http://www.w3.org/1999/xlink" x="0px" y="0px"
	 width="141.732px" height="141.38px" viewBox="0 0 141.732 141.38" enable-background="new 0 0 141.732 141.38"
	 xml:space="preserve">
<path fill="#009FE3" d="M70.865-0.176C31.727-0.176,0,31.552,0,70.689c0,15.279,4.851,29.416,13.074,40.989
	c9.71,13.666,24.134,23.736,40.91,27.838c5.412,1.322,11.062,2.039,16.881,2.039c39.139,0,70.867-31.729,70.867-70.866
	C141.732,31.552,110.004-0.176,70.865-0.176z"/>
<rect x="14.173" y="13.997" fill="#3363AC" width="113.387" height="113.387"/>
<path fill="#7DC9CA" d="M122.56,18.997v103.387H19.173V18.997H122.56 M127.56,13.997H14.173v113.387H127.56V13.997L127.56,13.997z"
	/>
<polygon fill="#7DC9CA" points="109.636,31.92 32.097,31.92 19.173,18.997 122.56,18.997 "/>
<polygon fill="#009FE3" points="87.694,28.264 54.038,28.264 48.429,22.653 93.304,22.653 "/>
<polygon fill="#00405B" points="109.636,31.92 109.636,109.46 122.56,122.384 122.56,18.997 "/>
<polygon fill="#7DC9CA" points="32.097,109.46 109.636,109.46 122.56,122.384 19.173,122.384 "/>
<polygon fill="#00405B" points="32.097,109.46 32.097,31.92 19.173,18.997 19.173,122.384 "/>
<polygon fill="#009FE3" points="27.788,111.614 27.788,85.768 23.479,81.461 23.479,115.921 "/>
<polygon fill="#009FE3" points="32.097,107.46 32.097,85.768 23.479,81.461 23.479,115.921 "/>
<polygon fill="#7DC9CA" points="51.481,28.92 41.789,28.92 32.097,28.92 32.097,70.689 41.789,70.689 51.481,70.689 61.174,70.689 
	61.174,28.92 "/>
<polygon fill="#009FE3" points="51.481,41.613 41.789,41.613 32.097,41.613 32.097,51.305 32.097,60.998 32.097,70.689 
	41.789,70.689 51.481,70.689 61.174,70.689 61.174,60.998 61.174,51.305 61.174,41.613 "/>
<polygon fill="#009FE3" points="66.02,41.613 61.173,41.613 61.173,28.92 66.02,31.92 "/>
<polygon fill="#00405B" points="66.02,67.69 61.173,70.689 61.173,41.613 66.02,41.613 "/>
<rect x="40.577" y="32.622" fill="#009FE3" width="12.116" height="5.289"/>
<rect x="98.158" y="31.92" fill="#009FE3" width="11.478" height="11.478"/>
<rect x="101.158" y="28.92" fill="#009FE3" width="11.478" height="11.478"/>
<polygon fill="#00405B" points="101.158,28.92 98.158,31.92 98.158,43.398 101.158,40.398 "/>
<polygon fill="#7DC9CA" points="112.636,40.398 101.158,40.398 98.158,43.398 109.636,43.398 "/>
<rect x="49.06" y="105.417" fill="#009FE3" width="43.613" height="10.504"/>
<rect x="57.539" y="102.082" fill="#009FE3" width="26.653" height="6.421"/>
<polygon fill="#00405B" points="49.06,105.417 57.539,102.082 84.192,102.082 92.673,105.417 "/>
<rect x="54.038" y="25.963" fill="#00405B" width="33.91" height="2.301"/>
<polygon fill="#3363AC" points="54.038,25.963 54.038,28.264 48.429,22.653 51.429,22.653 "/>
<polygon fill="#3363AC" points="87.948,25.963 87.948,28.264 93.558,22.653 90.558,22.653 "/>
<polygon fill="#7DC9CA" points="66.02,67.69 32.097,109.46 32.097,70.689 61.173,70.689 "/>
<polygon fill="#3363AC" points="32.097,85.768 29.948,85.768 23.479,83.213 23.479,81.461 "/>
<polygon fill="#3363AC" points="32.097,107.46 30.323,107.46 23.479,113.921 23.479,115.921 "/>
<circle fill="#00405B" cx="80.866" cy="80.689" r="16.101"/>
<circle fill="#009FE3" cx="80.866" cy="80.689" r="11.501"/>
</svg>
