<?xml version="1.0" encoding="UTF-8" standalone="no"?>
<!-- Generator: Adobe Illustrator 17.0.0, SVG Export Plug-In . SVG Version: 6.00 Build 0)  -->

<svg
   xmlns:dc="http://purl.org/dc/elements/1.1/"
   xmlns:cc="http://creativecommons.org/ns#"
   xmlns:rdf="http://www.w3.org/1999/02/22-rdf-syntax-ns#"
   xmlns:svg="http://www.w3.org/2000/svg"
   xmlns="http://www.w3.org/2000/svg"
   xmlns:sodipodi="http://sodipodi.sourceforge.net/DTD/sodipodi-0.dtd"
   xmlns:inkscape="http://www.inkscape.org/namespaces/inkscape"
   version="1.1"
   x="0px"
   y="0px"
   width="800"
   height="150"
   viewBox="0 0 800 150"
   enable-background="new 0 0 1415.558 150"
   xml:space="preserve"
   id="svg2"
   inkscape:version="0.48.4 r9939"
   sodipodi:docname="general_background.svg"><metadata
     id="metadata173"><rdf:RDF><cc:Work
         rdf:about=""><dc:format>image/svg+xml</dc:format><dc:type
           rdf:resource="http://purl.org/dc/dcmitype/StillImage" /></cc:Work></rdf:RDF></metadata><defs
     id="defs171" /><sodipodi:namedview
     pagecolor="#ffffff"
     bordercolor="#666666"
     borderopacity="1"
     objecttolerance="10"
     gridtolerance="10"
     guidetolerance="10"
     inkscape:pageopacity="0"
     inkscape:pageshadow="2"
     inkscape:window-width="1280"
     inkscape:window-height="748"
     id="namedview169"
     showgrid="false"
     inkscape:zoom="0.94944893"
     inkscape:cx="469.01455"
     inkscape:cy="145.16229"
     inkscape:window-x="0"
     inkscape:window-y="0"
     inkscape:window-maximized="1"
     inkscape:current-layer="g35904" /><g
     id="g3531"
     transform="matrix(1.0141092,0,0,1.0141092,-42.458286,280.74872)"><g
       id="Fenêtre-4"><polygon
         id="polygon3217"
         points="33.845,9.378 27.37,81.807 24.976,81.628 30.005,9.581 "
         style="fill:#81c1e0" /><polygon
         id="polygon3219"
         points="0.087,82.671 0.087,8.088 30.937,9.627 25.657,81.807 "
         style="fill:#cbe9fc" /><polygon
         id="polygon3221"
         points="0.651,37.939 1.215,11.11 27.089,12.35 24.762,38.671 "
         style="fill:#ffffff" /><polygon
         id="polygon3223"
         points="0.771,77.01 0.771,38.671 24.976,40.316 22.78,76.572 "
         style="fill:#ffffff" /><polygon
         id="polygon3225"
         points="0.771,76.595 1.215,9.378 0.087,9.378 0.087,77.523 "
         style="fill:#eaf1f5" /><polygon
         id="polygon3227"
         points="28.311,86.307 0.087,85.92 0.087,81.628 28.739,80.346 "
         style="fill:#81c1e0" /><rect
         id="rect3229"
         height="43.691002"
         width="0.5"
         y="12.678"
         x="18.903"
         style="fill:#81c1e0" /><polygon
         id="polygon3231"
         points="0.087,30.776 0.087,33.989 28.082,33.06 27.975,29.85 "
         style="fill:#81c1e0" /><polygon
         id="polygon3233"
         points="0.087,25.809 0.087,29.021 28.006,29.547 28.067,26.337 "
         style="fill:#81c1e0" /><polygon
         id="polygon3235"
         points="0.087,9.965 0.087,13.177 28.006,13.704 28.067,10.493 "
         style="fill:#81c1e0" /><polygon
         id="polygon3237"
         points="0.087,21.208 0.087,24.42 28.392,24.953 28.452,21.743 "
         style="fill:#81c1e0" /><polygon
         id="polygon3239"
         points="0.087,14.708 0.087,17.92 28.392,18.453 28.452,15.243 "
         style="fill:#81c1e0" /><polygon
         id="polygon3241"
         points="19.844,58.664 18.647,58.45 18.647,56.369 19.844,56.369 "
         style="fill:#81c1e0" /><polygon
         id="polygon3243"
         points="0.087,37.074 0.087,40.316 28.06,36.443 27.62,33.262 "
         style="fill:#81c1e0" /><polygon
         id="polygon3245"
         points="0.09,14.993 0.09,18.235 28.064,14.362 27.623,11.181 "
         style="fill:#81c1e0" /><polygon
         id="polygon3247"
         points="36.82,10.65 36.82,1.103 0.09,1.103 0.087,10.554 "
         style="fill:#81c1e0" /><polygon
         id="polygon3249"
         points="27.768,22.434 27.997,19.23 0.087,17.231 0.087,20.45 "
         style="fill:#81c1e0" /></g><g
       id="Cadre"><path
         id="path3252"
         d="m 970.966,99.217 v 31.719 h 58.23 V 99.217 h -58.23 z m 56.64,28.659 h -55.05 v -25.6 h 55.05 v 25.6 z"
         inkscape:connector-curvature="0"
         style="fill:#81c1e0" /><rect
         id="rect3254"
         height="13.221"
         width="73.167"
         y="136.86"
         x="963.49701"
         style="fill:#81c1e0" /><rect
         id="rect3256"
         height="5.717"
         width="87.5"
         y="134.69901"
         x="957.67603"
         style="fill:#81c1e0" /><rect
         id="rect3258"
         height="6.3649998"
         width="8.25"
         y="129.786"
         x="995.95599"
         style="fill:#81c1e0" /><polygon
         id="polygon3260"
         points="1027.61,117.743 1027.61,102.252 1015.593,102.252 "
         style="fill:#cbe9fc" /></g><g
       id="Radiateur"><g
         id="g3263"><rect
           id="rect3265"
           height="1.278"
           width="4.4429998"
           y="122.913"
           x="627.48798"
           style="fill:#81c1e0" /><rect
           id="rect3267"
           height="2.8610001"
           width="4.3000002"
           y="122.122"
           x="624.19202"
           style="fill:#81c1e0" /><rect
           id="rect3269"
           height="29.042999"
           width="44.674999"
           y="121.037"
           x="631.466"
           style="fill:#81c1e0" /><rect
           id="rect3271"
           height="18.938"
           width="6.4499998"
           y="131.14301"
           x="629.31598"
           style="fill:#cbe9fc" /><rect
           id="rect3273"
           height="18.938"
           width="6.4499998"
           y="131.14301"
           x="637.104"
           style="fill:#cbe9fc" /><rect
           id="rect3275"
           height="18.938"
           width="6.4499998"
           y="131.14301"
           x="644.797"
           style="fill:#cbe9fc" /><rect
           id="rect3277"
           height="18.938"
           width="6.4499998"
           y="131.14301"
           x="652.58502"
           style="fill:#cbe9fc" /><rect
           id="rect3279"
           height="18.938"
           width="6.4499998"
           y="131.14301"
           x="660.37402"
           style="fill:#cbe9fc" /><rect
           id="rect3281"
           height="18.938"
           width="6.4499998"
           y="131.14301"
           x="668.16199"
           style="fill:#cbe9fc" /><rect
           id="rect3283"
           height="3.632"
           width="6.4499998"
           y="121.037"
           x="629.31598"
           style="fill:#cbe9fc" /><rect
           id="rect3285"
           height="3.632"
           width="6.4499998"
           y="121.037"
           x="637.104"
           style="fill:#cbe9fc" /><rect
           id="rect3287"
           height="3.632"
           width="6.4499998"
           y="121.037"
           x="644.797"
           style="fill:#cbe9fc" /><rect
           id="rect3289"
           height="3.632"
           width="6.4499998"
           y="121.037"
           x="652.58502"
           style="fill:#cbe9fc" /><rect
           id="rect3291"
           height="3.632"
           width="6.4499998"
           y="121.037"
           x="660.37402"
           style="fill:#cbe9fc" /><rect
           id="rect3293"
           height="3.632"
           width="6.4499998"
           y="121.037"
           x="668.16199"
           style="fill:#cbe9fc" /><rect
           id="rect3295"
           height="0.98000002"
           width="6.4499998"
           y="125.923"
           x="630.84497"
           style="fill:#cbe9fc" /><rect
           id="rect3297"
           height="0.98000002"
           width="6.4499998"
           y="125.923"
           x="638.633"
           style="fill:#cbe9fc" /><rect
           id="rect3299"
           height="0.98000002"
           width="6.4499998"
           y="125.923"
           x="646.32599"
           style="fill:#cbe9fc" /><rect
           id="rect3301"
           height="0.98000002"
           width="6.4499998"
           y="125.923"
           x="654.11401"
           style="fill:#cbe9fc" /><rect
           id="rect3303"
           height="0.98000002"
           width="6.4499998"
           y="125.923"
           x="661.90302"
           style="fill:#cbe9fc" /><rect
           id="rect3305"
           height="0.98000002"
           width="6.4499998"
           y="125.923"
           x="669.69098"
           style="fill:#cbe9fc" /><rect
           id="rect3307"
           height="0.98000002"
           width="6.4499998"
           y="128.28799"
           x="630.84497"
           style="fill:#cbe9fc" /><rect
           id="rect3309"
           height="0.98000002"
           width="6.4499998"
           y="128.28799"
           x="638.633"
           style="fill:#cbe9fc" /><rect
           id="rect3311"
           height="0.98000002"
           width="6.4499998"
           y="128.28799"
           x="646.32599"
           style="fill:#cbe9fc" /><rect
           id="rect3313"
           height="0.98000002"
           width="6.4499998"
           y="128.28799"
           x="654.11401"
           style="fill:#cbe9fc" /><rect
           id="rect3315"
           height="0.98000002"
           width="6.4499998"
           y="128.28799"
           x="661.90302"
           style="fill:#cbe9fc" /><rect
           id="rect3317"
           height="0.98000002"
           width="6.4499998"
           y="128.28799"
           x="669.69098"
           style="fill:#cbe9fc" /><rect
           id="rect3319"
           height="25.098"
           width="1.147"
           y="124.983"
           x="626.06702"
           style="fill:#cbe9fc" /></g></g><g
       id="Plante-6"><path
         id="path3322"
         d="m 193.334,131.546 15.003,-13.862 -14.403,14.463 c 0,-0.001 -0.78,1.199 -0.6,-0.601 z"
         inkscape:connector-curvature="0"
         style="fill:#81c1e0" /><path
         id="path3324"
         d="m 193.815,116.579 c 0,0 -0.504,-8.126 -9.331,-2.886 0,0 6.473,0.588 6.837,5.604 0.364,5.015 0.925,3.642 2.494,-2.718 z"
         inkscape:connector-curvature="0"
         style="fill:#81c1e0" /><path
         id="path3326"
         d="m 190.76,127.787 c 0,0 -3.727,-9.246 -7.257,-9.415 -3.53,-0.168 -7.145,0.224 -7.145,0.224 0,0 -4.427,3.446 -4.903,6.276 0,0 5.184,-7.565 8.126,-5.94 2.942,1.625 7.145,9.975 7.145,9.975 0,0 2.578,5.408 2.718,5.464 0.14,0.056 3.054,1.373 2.83,-1.709 -0.225,-3.082 -1.514,-4.875 -1.514,-4.875 z"
         inkscape:connector-curvature="0"
         style="fill:#81c1e0" /><polygon
         id="polygon3328"
         points="198.953,150 199.977,142.41 181.743,142.41 184.213,150 "
         style="fill:#81c1e0" /><path
         id="path3330"
         d="m 202.735,139.408 h -24.012 c -0.829,0 -1.501,0.672 -1.501,1.501 0,0.829 0.672,1.501 1.501,1.501 h 24.012 c 0.829,0 1.501,-0.672 1.501,-1.501 0,-0.829 -0.672,-1.501 -1.501,-1.501 z"
         inkscape:connector-curvature="0"
         style="fill:#81c1e0" /><path
         id="path3332"
         d="m 201.744,127.717 c -1.429,-0.252 -1.345,-0.883 -3.194,0.42 -1.849,1.303 -4.399,3.601 -4.399,3.601 6.332,-12.721 15.579,-16.167 15.579,-16.167 -8.238,0.785 -16.111,12.189 -16.111,12.189 4.483,-10.535 12.245,-18.619 12.245,-18.619 -1.681,0.42 -9.919,10.675 -9.919,10.675 0,0 0,0 1.303,-2.648 1.303,-2.648 4.959,-8.448 8.532,-8.238 2.856,0.168 6.246,2.026 7.492,2.766 -0.928,-0.567 -2.985,-1.82 -4.592,-2.766 -2.143,-1.261 -1.471,-1.093 -8.07,-0.546 -6.599,0.546 -8.322,11.726 -8.322,11.726 -0.63,-6.851 -3.236,-15.047 -3.236,-15.047 0.462,2.648 -0.168,4.623 -0.168,4.623 -2.143,-2.984 -4.497,-2.858 -4.497,-2.858 3.362,2.27 5.254,12.861 5.254,12.861 -2.522,-9.204 -5.576,-14.542 -13.337,-19.838 -7.761,-5.296 -10.115,-5.38 -10.115,-5.38 1.177,1.513 5.716,2.27 12.104,7.986 6.388,5.716 7.481,10.76 10.003,17.4 1.267,3.338 1.643,8.246 1.703,12.304 -1.597,-2.948 -7.042,-11.849 -14.48,-11.674 -8.91,0.21 -15.257,8.154 -18.367,13.744 0,0 12.188,-13.912 17.82,-12.903 5.632,1.009 12.609,10.97 12.609,10.97 0,0 -4.623,-3.572 -7.271,-3.194 -2.648,0.378 -4.035,1.597 -4.035,3.615 0,0 1.849,-3.152 3.657,-2.858 1.807,0.294 2.606,0.841 2.606,0.841 0,0 -3.825,0.042 -4.623,1.513 0,0 3.236,-0.714 5.001,0.967 0,0 0.042,0 -3.32,0.799 -3.362,0.799 -9.877,3.362 -11.348,5.674 0,0 9.793,-5.38 12.819,-3.909 l -4.665,1.975 4.539,-1.051 -2.228,1.261 2.732,-0.672 c 0,0 1.723,-0.084 2.816,1.219 0.264,0.314 0.65,0.641 1.108,0.932 h 7.451 c 0,0 2.198,0.73 3.129,1.592 10e-4,10e-4 0.002,0.003 0.004,0.004 1.713,1.283 3.523,4.534 3.523,4.534 0.42,-2.858 -2.984,-6.262 -2.984,-6.262 3.152,-0.21 6.304,2.354 6.304,2.354 -0.378,-1.513 -5.128,-3.236 -5.128,-3.236 l 5.296,0.084 c -2.228,-1.345 -7.944,-1.471 -7.944,-1.471 6.557,-3.951 14.248,0.757 14.248,0.757 0,0 -1.261,-1.513 -4.161,-2.522 -2.9,-1.009 -9.709,-0.672 -9.709,-0.672 0.294,-1.261 1.807,-2.69 3.278,-3.783 1.471,-1.093 5.506,0.21 5.506,0.21 6.935,3.026 8.793,14.817 8.793,14.817 0.42,-5.632 -1.648,-10.32 -4.044,-13.64 -2.395,-3.324 -5.758,-4.207 -7.187,-4.459 z"
         inkscape:connector-curvature="0"
         style="fill:#81c1e0" /><path
         id="path3334"
         d="m 926.595,131.546 15.003,-13.862 -14.403,14.463 c 0,-0.001 -0.78,1.199 -0.6,-0.601 z"
         inkscape:connector-curvature="0"
         style="fill:#81c1e0" /><path
         id="path3336"
         d="m 927.076,116.579 c 0,0 -0.504,-8.126 -9.331,-2.886 0,0 6.473,0.588 6.837,5.604 0.364,5.016 0.925,3.642 2.494,-2.718 z"
         inkscape:connector-curvature="0"
         style="fill:#81c1e0" /><path
         id="path3338"
         d="m 924.022,127.787 c 0,0 -3.727,-9.246 -7.257,-9.415 -3.53,-0.168 -7.145,0.224 -7.145,0.224 0,0 -4.427,3.446 -4.903,6.276 0,0 5.184,-7.565 8.126,-5.94 2.942,1.625 7.145,9.975 7.145,9.975 0,0 2.578,5.408 2.718,5.464 0.14,0.056 3.054,1.373 2.83,-1.709 -0.225,-3.082 -1.514,-4.875 -1.514,-4.875 z"
         inkscape:connector-curvature="0"
         style="fill:#81c1e0" /><polygon
         id="polygon3340"
         points="932.215,150 933.239,142.41 915.005,142.41 917.474,150 "
         style="fill:#81c1e0" /><path
         id="path3342"
         d="m 935.997,139.408 h -24.012 c -0.829,0 -1.501,0.672 -1.501,1.501 0,0.829 0.672,1.501 1.501,1.501 h 24.012 c 0.829,0 1.501,-0.672 1.501,-1.501 0,-0.829 -0.673,-1.501 -1.501,-1.501 z"
         inkscape:connector-curvature="0"
         style="fill:#81c1e0" /><path
         id="path3344"
         d="m 935.005,127.717 c -1.429,-0.252 -1.345,-0.883 -3.194,0.42 -1.849,1.303 -4.399,3.601 -4.399,3.601 6.332,-12.721 15.579,-16.167 15.579,-16.167 -8.238,0.785 -16.111,12.189 -16.111,12.189 4.483,-10.535 12.245,-18.619 12.245,-18.619 -1.681,0.42 -9.919,10.675 -9.919,10.675 0,0 0,0 1.303,-2.648 1.303,-2.648 4.959,-8.448 8.532,-8.238 2.856,0.168 6.246,2.026 7.492,2.766 -0.928,-0.567 -2.985,-1.82 -4.592,-2.766 -2.143,-1.261 -1.471,-1.093 -8.07,-0.546 -6.599,0.546 -8.322,11.726 -8.322,11.726 -0.63,-6.851 -3.236,-15.047 -3.236,-15.047 0.462,2.648 -0.168,4.623 -0.168,4.623 -2.143,-2.984 -4.497,-2.858 -4.497,-2.858 3.362,2.27 5.254,12.861 5.254,12.861 -2.522,-9.204 -5.576,-14.542 -13.337,-19.838 -7.761,-5.296 -10.115,-5.38 -10.115,-5.38 1.177,1.513 5.716,2.27 12.104,7.986 6.388,5.716 7.481,10.76 10.003,17.4 1.267,3.338 1.643,8.246 1.703,12.304 -1.597,-2.948 -7.042,-11.849 -14.48,-11.674 -8.91,0.21 -15.257,8.154 -18.367,13.744 0,0 12.188,-13.912 17.82,-12.903 5.632,1.009 12.609,10.97 12.609,10.97 0,0 -4.623,-3.572 -7.271,-3.194 -2.648,0.378 -4.035,1.597 -4.035,3.615 0,0 1.849,-3.152 3.657,-2.858 1.808,0.294 2.606,0.841 2.606,0.841 0,0 -3.825,0.042 -4.623,1.513 0,0 3.236,-0.714 5.001,0.967 0,0 0.042,0 -3.32,0.799 -3.362,0.799 -9.877,3.362 -11.348,5.674 0,0 9.793,-5.38 12.819,-3.909 l -4.665,1.975 4.539,-1.051 -2.228,1.261 2.732,-0.672 c 0,0 1.723,-0.084 2.816,1.219 0.264,0.314 0.65,0.641 1.108,0.932 h 7.451 c 0,0 2.198,0.73 3.129,1.592 10e-4,10e-4 0.002,0.003 0.004,0.004 1.713,1.283 3.523,4.534 3.523,4.534 0.42,-2.858 -2.984,-6.262 -2.984,-6.262 3.152,-0.21 6.304,2.354 6.304,2.354 -0.378,-1.513 -5.128,-3.236 -5.128,-3.236 l 5.296,0.084 c -2.227,-1.345 -7.943,-1.471 -7.943,-1.471 6.557,-3.951 14.248,0.757 14.248,0.757 0,0 -1.261,-1.513 -4.161,-2.522 -2.9,-1.009 -9.709,-0.672 -9.709,-0.672 0.294,-1.261 1.807,-2.69 3.278,-3.783 1.471,-1.093 5.506,0.21 5.506,0.21 6.935,3.026 8.793,14.817 8.793,14.817 0.42,-5.632 -1.648,-10.32 -4.044,-13.64 -2.396,-3.324 -5.759,-4.207 -7.188,-4.459 z"
         inkscape:connector-curvature="0"
         style="fill:#81c1e0" /></g><g
       id="Étagère-4"><polygon
         id="polygon3347"
         points="94.576,46.86 82.14,49.897 86.646,150.02 94.001,150.02 "
         style="fill:#cbe9fc" /><polygon
         id="polygon3349"
         points="82.14,38.096 73.874,41.639 76.004,51.589 85.338,50.18 "
         style="fill:#cbe9fc" /><polygon
         id="polygon3351"
         points="176.338,49.913 181.915,49.897 183.743,38.566 82.14,38.096 85.338,50.18 90.163,50.166 93.86,150.02 101.169,150.02 101.169,149.997 164.689,149.997 164.689,150.02 171.434,150.02 "
         style="fill:#81c1e0" /></g><g
       id="Casier-25"><polygon
         id="polygon3354"
         points="47.599,150 60.844,150 59.106,76.268 47.599,80.993 "
         style="fill:#cbe9fc" /><polygon
         id="polygon3356"
         points="59.106,76.268 88.358,75.771 87.68,150 59.073,150 "
         style="fill:#81c1e0" /></g><g
       id="Horloge-4"><g
         id="g3359"><circle
           id="circle3361"
           r="12.067"
           cy="73.767998"
           cx="197.278"
           sodipodi:cx="197.278"
           sodipodi:cy="73.767998"
           sodipodi:rx="12.067"
           sodipodi:ry="12.067"
           style="fill:#81c1e0"
           d="m 209.345,73.767998 c 0,6.66442 -5.40258,12.067 -12.067,12.067 -6.66442,0 -12.067,-5.40258 -12.067,-12.067 0,-6.664421 5.40258,-12.067001 12.067,-12.067001 6.66442,0 12.067,5.40258 12.067,12.067001 z" /><circle
           id="circle3363"
           r="10.371"
           cy="73.767998"
           cx="197.278"
           sodipodi:cx="197.278"
           sodipodi:cy="73.767998"
           sodipodi:rx="10.371"
           sodipodi:ry="10.371"
           style="fill:#ffffff"
           d="m 207.649,73.767998 c 0,5.727745 -4.64325,10.371 -10.371,10.371 -5.72775,0 -10.371,-4.643255 -10.371,-10.371 0,-5.727746 4.64325,-10.371001 10.371,-10.371001 5.72775,0 10.371,4.643255 10.371,10.371001 z" /><circle
           id="circle3365"
           r="0.954"
           cy="73.767998"
           cx="197.278"
           sodipodi:cx="197.278"
           sodipodi:cy="73.767998"
           sodipodi:rx="0.954"
           sodipodi:ry="0.954"
           style="fill:#81c1e0"
           d="m 198.232,73.767998 c 0,0.526879 -0.42712,0.954 -0.954,0.954 -0.52688,0 -0.954,-0.427121 -0.954,-0.954 0,-0.52688 0.42712,-0.954 0.954,-0.954 0.52688,0 0.954,0.42712 0.954,0.954 z" /><polygon
           id="polygon3367"
           points="197.707,73.574 204.314,77.873 197.32,74.237 "
           style="fill:#81c1e0" /><polygon
           id="polygon3369"
           points="203.625,76.358 204.431,77.941 202.655,78.02 "
           style="fill:#81c1e0" /><polygon
           id="polygon3371"
           points="198.046,74.029 201.887,77.109 197.765,74.417 "
           style="fill:#81c1e0" /><polygon
           id="polygon3373"
           points="201.553,76.125 201.956,77.159 200.848,77.098 "
           style="fill:#81c1e0" /><rect
           id="rect3375"
           height="1.568"
           width="0.40900001"
           y="63.685001"
           x="197.07401"
           style="fill:#81c1e0" /><rect
           id="rect3377"
           height="0.40900001"
           width="1.568"
           y="73.564003"
           x="205.79401"
           style="fill:#81c1e0" /><rect
           id="rect3379"
           height="1.568"
           width="0.40900001"
           transform="matrix(0.4999,0.8661,-0.8661,0.4999,162.5606,-143.2701)"
           y="68.335999"
           x="205.12801"
           style="fill:#81c1e0" /><rect
           id="rect3381"
           height="1.568"
           width="0.40900001"
           transform="matrix(0.8659,0.5002,-0.5002,0.8659,59.9525,-92.1976)"
           y="64.931999"
           x="201.72501"
           style="fill:#81c1e0" /><rect
           id="rect3383"
           height="1.568"
           width="0.40900001"
           y="82.282997"
           x="197.07401"
           style="fill:#81c1e0" /><rect
           id="rect3385"
           height="0.40900001"
           width="1.568"
           y="73.564003"
           x="187.19501"
           style="fill:#81c1e0" /><rect
           id="rect3387"
           height="1.568"
           width="0.40900001"
           transform="matrix(-0.4999,-0.8661,0.8661,-0.4999,215.8925,281.502)"
           y="77.633003"
           x="189.02"
           style="fill:#81c1e0" /><rect
           id="rect3389"
           height="1.568"
           width="0.40900001"
           transform="matrix(-0.8659,-0.5002,0.5002,-0.8659,318.4927,249.0246)"
           y="81.036003"
           x="192.422"
           style="fill:#81c1e0" /><rect
           id="rect3391"
           height="1.568"
           width="0.40900001"
           transform="matrix(-0.8661,0.4999,-0.4999,-0.8661,417.7162,51.7545)"
           y="81.038002"
           x="201.722"
           style="fill:#81c1e0" /><rect
           id="rect3393"
           height="1.568"
           width="0.40900001"
           transform="matrix(-0.5002,0.8659,-0.8659,-0.5002,375.9452,-60.1473)"
           y="77.636002"
           x="205.12601"
           style="fill:#81c1e0" /><rect
           id="rect3395"
           height="1.568"
           width="0.40900001"
           transform="matrix(0.8661,-0.4999,0.4999,0.8661,-7.056,105.0863)"
           y="64.93"
           x="192.42599"
           style="fill:#81c1e0" /><rect
           id="rect3397"
           height="1.568"
           width="0.40900001"
           transform="matrix(0.5002,-0.8659,0.8659,0.5002,34.7229,198.3928)"
           y="68.333"
           x="189.022"
           style="fill:#81c1e0" /></g></g><g
       id="Siège-7"><path
         id="path3400"
         d="m 273.982,140.222 c -0.142,-1.775 -4.921,-1.628 -4.921,-1.628 0,0 -1.8,0.007 -4.252,0.019 -0.166,-2.005 -0.478,-6.894 0.32,-7.755 1.282,0.335 2.401,0.512 2.64,0.17 0.445,-0.635 0.722,-1.808 -0.438,-2.381 -1.159,-0.574 -2.34,-1.047 -7.623,-0.844 0,0 -4.076,0.726 -4.422,1.382 -0.346,0.656 -0.354,1.077 0.438,1.096 0.434,0.01 1.671,-0.306 3.017,-0.489 0.49,0.304 1.734,1.221 1.792,2.727 0.057,1.477 0.086,4.776 0.096,6.117 -3.895,0.022 -7.9,0.049 -8.994,0.073 -0.43,0.01 -0.789,0.02 -1.113,0.036 0.104,-0.26 0.2,-0.521 0.281,-0.782 1.846,-6.005 2.708,-9.302 0.993,-14.032 -1.715,-4.731 -5.28,-13.84 -5.014,-15.928 0.266,-2.087 1.409,-10.933 -3.793,-13.749 0,0 -11.742,-1.939 -21.049,-1.66 l -0.001,-10e-4 c -0.059,0.002 -0.119,0.003 -0.178,0.005 0,0 -0.525,0.177 -0.882,0.723 -0.277,0.425 -0.452,1.074 -0.199,2.038 0.579,2.203 2.626,1.432 2.625,9.097 -0.001,7.665 0.868,14.851 2.281,19.445 0.353,1.148 0.671,2.425 0.932,3.804 0.065,0.345 0.127,0.696 0.185,1.053 0.287,1.773 0.476,3.694 0.529,5.715 0,0.02 0.001,0.039 0.002,0.058 0.06,2.441 -0.082,5.026 -0.498,7.671 -0.096,0.607 -0.163,1.171 -0.205,1.694 -0.042,0.524 -0.059,1.007 -0.056,1.453 0.006,0.669 0.058,1.255 0.146,1.767 0.029,0.171 0.062,0.333 0.098,0.488 0.073,0.309 0.158,0.587 0.254,0.837 0.287,0.749 0.66,1.242 1.016,1.56 h 2.116 7.952 c 1.192,-0.079 2.053,-0.141 2.175,-0.159 0.177,-0.027 1.61,-0.974 3.382,-2.483 1.072,0.127 2.141,0.271 3.175,0.42 L 246.582,150 h 3.634 l -0.077,-1.707 c 0.596,0.096 1.163,0.188 1.688,0.274 3.135,0.51 9.195,-0.057 9.195,-0.057 0,0 7.817,-2.155 10.189,-3.137 2.373,-0.981 2.709,-1.884 2.709,-1.884 0,0 0.204,-1.492 0.062,-3.267 z"
         inkscape:connector-curvature="0"
         style="fill:#81c1e0" /><path
         id="path3402"
         d="m 231.051,138.502 c 1.25,-8.5 -0.25,-20.375 -2.375,-25.005 -2.125,-4.63 0,-15.12 -2.75,-19.025 -0.775,-1.1 -1.728,-1.655 -2.698,-1.903 -0.433,0.004 -0.864,0.01 -1.289,0.023 l -0.001,-0.001 c -0.059,0.002 -0.119,0.003 -0.178,0.005 0,0 -0.525,0.177 -0.882,0.723 -0.277,0.425 -0.452,1.074 -0.199,2.038 0.579,2.203 2.626,1.432 2.625,9.097 -0.001,7.665 0.868,14.851 2.281,19.445 0.353,1.148 0.671,2.425 0.932,3.804 0.065,0.345 0.127,0.696 0.185,1.053 0.287,1.773 0.476,3.694 0.529,5.715 0,0.02 0.001,0.039 0.002,0.058 0.06,2.441 -0.082,5.026 -0.498,7.671 -0.096,0.607 -0.162,1.17 -0.205,1.694 -0.042,0.524 -0.059,1.007 -0.056,1.453 0.006,0.669 0.058,1.255 0.146,1.767 0.029,0.171 0.062,0.333 0.098,0.488 0.073,0.309 0.159,0.587 0.254,0.837 0.287,0.749 0.66,1.242 1.017,1.56 h 2.116 2.27 c -1.024,-2.715 -2.015,-6.797 -1.324,-11.497 z"
         inkscape:connector-curvature="0"
         style="fill:#cbe9fc" /><path
         id="path3404"
         d="m 891.355,125.901 c 0,0 -14.497,-2.265 -19.004,-2.809 -0.101,-0.012 -0.196,-0.021 -0.291,-0.03 -0.112,-0.003 -0.236,-0.013 -0.365,-0.027 -0.383,-0.021 -0.72,-0.015 -1.016,0.014 -1.501,0.248 -1.839,1.538 -1.839,1.538 l -1.948,10.656 c 0,0 -2.899,0.715 -8.517,1.227 -5.617,0.512 -5.255,3.279 -5.255,3.279 L 854.027,150 h 34.61 c 0,0 3.986,-17.485 3.986,-20.67 0,-3.185 -1.268,-3.429 -1.268,-3.429 z"
         inkscape:connector-curvature="0"
         style="fill:#81c1e0" /></g><g
       id="Meuble_1_-7"><rect
         id="rect3407"
         height="25.538"
         width="109.735"
         y="124.462"
         x="270.44101"
         style="fill:#81c1e0" /><rect
         id="rect3409"
         height="4.7470002"
         width="114.015"
         y="122.426"
         x="268.91199"
         style="fill:#81c1e0" /><polygon
         id="polygon3411"
         points="350.751,150 373.191,127.173 380.176,127.173 380.176,150 "
         style="fill:#cbe9fc" /><rect
         id="rect3413"
         height="10.555"
         width="97.831001"
         y="139.476"
         x="742.09198"
         style="fill:#81c1e0" /><rect
         id="rect3415"
         height="7.3379998"
         width="114.015"
         y="138.289"
         x="734.086"
         style="fill:#81c1e0" /><path
         id="path3417"
         d="m 729.614,148.189 c 0,0 0,-1.75 0,-2.938 0,-1.188 -0.438,-1.188 -0.438,-1.188 l -2.125,-0.375 c 0,0 0,-1.313 0,-3.188 0,-1.875 -1.25,-1.813 -1.25,-1.813 l -14.063,-0.401 c 0,0 -1.625,-11.849 -1.625,-13.224 0,-1.375 -0.625,-1.375 -0.625,-1.375 0,0 -8.438,0.063 -12.438,0.688 -4,0.625 -3.188,2.313 -3.188,2.313 l 2.5,23.311 31.375,0.031 -0.063,-1.091 h 1.813 c 0,0 0.099,-0.055 0.12,-0.671 0.011,-0.046 0.007,-0.079 0.007,-0.079 z"
         inkscape:connector-curvature="0"
         style="fill:#81c1e0" /><path
         id="path3419"
         d="M 782.926,138.289"
         inkscape:connector-curvature="0"
         style="fill:#81c1e0" /><g
         id="g3421"><path
           id="path3423"
           d="m 788.663,119.821 -0.554,0.157 c 0.02,0.431 -0.032,0.975 -0.167,1.091 0,0 0.434,0.022 0.949,0.064 0.117,-0.183 0.244,-0.341 0.382,-0.458 0,0 -0.018,0.179 -0.051,0.488 0.557,0.054 1.122,0.131 1.298,0.231 0.38,0.217 0.38,0.217 0.38,0.217 0,0 -1.205,0.728 -1.839,0.943 -0.103,0.838 -0.241,1.875 -0.409,2.944 0.325,0.361 0.655,0.79 0.62,0.998 -0.02,0.12 -0.359,0.144 -0.804,0.11 -0.187,1.061 -0.401,2.092 -0.638,2.927 0.836,-0.659 2.194,-1.2 2.634,-1.365 0.5,-1.122 1.052,-2.56 1.553,-4.318 0.962,-3.378 -1.588,-4.104 -3.183,-4.239 -0.112,0.123 -0.171,0.21 -0.171,0.21 z"
           inkscape:connector-curvature="0"
           style="fill:none" /><path
           id="path3425"
           d="m 788.241,122.764 c -0.216,0.099 -0.439,0.228 -0.605,0.332 -0.009,0.138 -0.018,0.275 -0.028,0.411 0.12,0.137 0.259,0.324 0.36,0.543 0.076,-0.45 0.167,-0.883 0.273,-1.286 z"
           inkscape:connector-curvature="0"
           style="fill:none" /><path
           id="path3427"
           d="m 787.53,117.884 c -0.039,0.014 -0.071,0.057 -0.102,0.111 0.023,0.3 0.065,0.629 0.132,0.987 0.259,-0.101 0.479,-0.167 0.606,-0.175 0.377,-0.539 1.214,-1.554 2.328,-1.852 -0.14,-0.053 -0.274,-0.117 -0.346,-0.21 -0.176,-0.231 -0.217,-0.149 -0.543,-0.027 -0.326,0.122 -0.339,0.122 -0.611,0.081 -0.271,-0.041 -0.434,0.353 -0.76,0.926 -0.324,0.572 -0.514,0.091 -0.704,0.159 z"
           inkscape:connector-curvature="0"
           style="fill:none" /><path
           id="path3429"
           d="m 786.903,130.855 c 0,0 0.08,-0.102 0.221,-0.173 -0.009,-0.117 0.011,-0.254 0.08,-0.424 0.065,-0.158 0.185,-0.315 0.336,-0.467 0.004,-0.708 0.029,-1.939 0.135,-3.284 -0.117,-0.02 -0.232,-0.042 -0.345,-0.066 -0.051,0.449 -0.087,0.724 -0.087,0.724 0,0 -0.307,1.609 -0.34,3.69 z"
           inkscape:connector-curvature="0"
           style="fill:none" /><path
           id="path3431"
           d="m 787.163,118.698 c -0.024,0.047 -0.05,0.091 -0.08,0.123 -0.11,0.118 -0.285,0.45 -0.513,0.642 0.204,-0.119 0.425,-0.233 0.64,-0.331 -0.014,-0.111 -0.031,-0.259 -0.047,-0.434 z"
           inkscape:connector-curvature="0"
           style="fill:none" /><path
           id="path3433"
           d="m 788.106,113.535 -0.018,0.088 c 0.001,0 0.015,-0.043 0.018,-0.088 z"
           inkscape:connector-curvature="0"
           style="fill:#81c1e0" /><path
           id="path3435"
           d="m 794.728,129.505 -4.194,1.143 c 0.053,-0.276 -0.031,-0.364 0.074,-0.751 0.05,-0.185 0.063,-0.481 0.059,-0.778 1.81,-3.69 4.102,-10.015 -1.639,-9.692 0.194,-0.169 0.459,-0.352 0.8,-0.461 0.471,-0.152 1.081,-0.893 1.478,-1.434 0.071,0.126 0.308,0.746 0.308,0.746 0,0 0.516,0.421 0.38,0.176 -0.136,-0.244 -0.176,-0.197 -0.448,-0.73 -0.056,-0.11 -0.109,-0.211 -0.159,-0.305 0.196,-0.274 0.324,-0.476 0.324,-0.476 -0.215,-0.055 -0.425,-0.076 -0.627,-0.073 -0.016,-0.027 -0.026,-0.045 -0.026,-0.045 l -0.828,-0.855 c 0,0 1.099,-1.031 1.181,-0.936 0.081,0.095 0.434,0.231 0.461,0.149 0.027,-0.081 -0.054,-0.434 -0.054,-0.434 0,0 -1.045,-0.733 -1.113,-0.719 -0.068,0.014 -0.923,0 -0.923,0 0,0 -0.054,-0.488 -0.434,-0.366 -0.38,0.122 -0.733,0.353 -0.733,0.353 l -0.638,-0.014 -0.339,0.285 c 0,0 -0.041,-0.624 0.258,-0.801 0.188,-0.111 0.215,-0.028 0.21,0.048 l 0.061,-0.306 0.109,-0.407 -0.393,0.421 -0.109,-0.231 c 0,0 -0.194,0.828 -0.233,0.882 -0.039,0.054 -0.391,-0.516 -0.391,-0.516 l -0.041,-1.33 c 0,0 -0.719,-2.253 -1.343,-2.348 -0.624,-0.095 -0.434,1.628 -0.176,2.538 0.258,0.909 0.597,1.764 0.597,1.764 0,0 -0.122,-0.299 -0.502,-0.19 -0.38,0.109 -0.556,0.38 -0.556,0.38 0,0 -0.584,0.041 -0.706,0.217 -0.122,0.176 0.014,0.733 0.217,0.882 0.203,0.149 0.665,0.326 0.543,0.556 0,0 -0.611,-0.068 -1.072,0.421 -0.461,0.489 -1.045,1.126 -1.045,1.126 0,0 2.063,-0.624 2.415,-0.312 0,0 -0.163,1.791 0.407,2.348 0.18,0.176 0.346,0.201 0.494,0.146 -0.292,0.188 -0.519,0.381 -0.584,0.543 -0.217,0.543 -0.353,0.841 -0.353,0.841 l 0.353,0.407 v 1.004 c -0.95,-0.923 -1.873,-1.303 -1.873,-1.303 v -0.543 l -0.299,-0.353 c 0,0 -0.244,1.031 -0.271,1.221 -0.027,0.19 0.271,0.543 0.271,0.543 v 0.76 c 0,0 -0.516,0.543 -0.923,0.577 -0.407,0.034 -0.353,0.889 -0.353,0.889 l -0.217,0.57 c 1.086,0.651 3.311,0.136 3.311,0.136 l -0.57,0.624 c 0,0 0.109,0.461 0.109,1.004 0,0.543 1.71,1.248 1.71,1.248 -0.19,-0.19 -0.407,-1.628 -0.407,-1.628 0.126,0.075 0.352,0.153 0.624,0.225 -0.013,0.08 -0.023,0.154 -0.037,0.236 -0.294,1.774 -0.372,3.344 -0.354,4.624 -0.135,0.029 -0.312,0.011 -0.544,-0.105 -0.552,-0.276 -0.826,0.331 -0.928,0.648 -2.275,-2.027 -6.531,-3.059 -7.893,-3.004 -1.979,0.081 -2.724,0.583 -2.724,0.583 4.722,-0.226 7.841,1.456 9.719,3.064 l -5.461,1.488 c 0,0 2.808,-0.369 6.153,-0.846 0.118,0.118 0.231,0.235 0.335,0.348 h -1.125 v 5.862 h 6.131 v -2.167 c 0.815,0.068 1.749,0.006 1.749,0.006 -0.065,-0.327 0.196,-2.189 0.196,-2.189 1.078,1.013 3.038,0.915 3.038,0.915 0,0 -0.947,-3.169 -1.437,-3.691 -0.49,-0.523 -1.339,0.196 -1.339,0.196 -0.555,-0.196 -0.915,0.457 -0.915,0.457 l -0.051,-0.012 c -0.042,-0.305 -0.136,-0.524 -0.245,-0.68 2.625,-0.427 4.633,-0.816 4.689,-1.013 0.164,-0.578 -1.139,-1.556 -1.139,-1.556 z m -2.711,-5.654 c -0.501,1.758 -1.053,3.196 -1.553,4.318 -0.44,0.165 -1.798,0.706 -2.634,1.365 0.237,-0.835 0.451,-1.866 0.638,-2.927 0.446,0.034 0.784,0.01 0.804,-0.11 0.035,-0.208 -0.296,-0.637 -0.62,-0.998 0.168,-1.069 0.306,-2.106 0.409,-2.944 0.635,-0.215 1.839,-0.943 1.839,-0.943 0,0 0,0 -0.38,-0.217 -0.176,-0.101 -0.741,-0.177 -1.298,-0.231 0.034,-0.309 0.051,-0.488 0.051,-0.488 -0.139,0.117 -0.265,0.275 -0.382,0.458 -0.515,-0.043 -0.949,-0.064 -0.949,-0.064 0.136,-0.116 0.188,-0.661 0.167,-1.091 l 0.554,-0.157 c 0,0 0.058,-0.087 0.171,-0.209 1.596,0.134 4.145,0.86 3.183,4.238 z m -4.381,-0.755 c 0.166,-0.103 0.388,-0.233 0.605,-0.332 -0.106,0.402 -0.197,0.835 -0.274,1.286 -0.101,-0.219 -0.24,-0.406 -0.36,-0.543 0.011,-0.136 0.02,-0.273 0.029,-0.411 z m 0.6,-5.372 c 0.326,-0.573 0.489,-0.967 0.76,-0.926 0.271,0.041 0.285,0.041 0.611,-0.081 0.326,-0.122 0.366,-0.204 0.543,0.027 0.071,0.093 0.206,0.157 0.346,0.21 -1.114,0.298 -1.951,1.313 -2.328,1.852 -0.128,0.009 -0.347,0.074 -0.606,0.175 -0.067,-0.357 -0.11,-0.687 -0.132,-0.987 0.03,-0.054 0.063,-0.097 0.102,-0.111 0.188,-0.067 0.378,0.414 0.704,-0.159 z m -1.154,1.096 c 0.03,-0.032 0.056,-0.075 0.08,-0.123 0.017,0.175 0.034,0.323 0.047,0.433 -0.216,0.098 -0.437,0.212 -0.64,0.331 0.228,-0.191 0.403,-0.523 0.513,-0.641 z m 0.593,7.686 c -0.106,1.345 -0.131,2.576 -0.135,3.284 -0.151,0.153 -0.271,0.309 -0.336,0.467 -0.069,0.169 -0.089,0.307 -0.08,0.424 -0.141,0.072 -0.221,0.173 -0.221,0.173 0.033,-2.08 0.34,-3.69 0.34,-3.69 0,0 0.035,-0.275 0.087,-0.724 0.113,0.024 0.228,0.046 0.345,0.066 z"
           inkscape:connector-curvature="0"
           style="fill:#81c1e0" /></g></g><g
       id="Objets_meuble-23"><polygon
         id="polygon3438"
         points="359.131,121.827 361.544,121.827 360.191,116.11 359.131,116.11 358.07,116.11 356.717,121.827 "
         style="fill:#81c1e0" /><polygon
         id="polygon3440"
         points="359.131,122.448 362.593,122.448 361.544,121.827 359.131,121.827 356.717,121.827 355.669,122.448 "
         style="fill:#81c1e0" /><path
         id="path3442"
         d="m 375.972,97.19 c -0.109,-0.941 -0.9,-1.674 -1.87,-1.674 h -30.935 c -0.97,0 -1.761,0.733 -1.87,1.674 h -0.022 v 20.008 c 0,1.045 0.847,1.892 1.892,1.892 h 30.935 c 1.045,0 1.892,-0.847 1.892,-1.892 V 97.19 h -0.022 z"
         inkscape:connector-curvature="0"
         style="fill:#81c1e0" /><rect
         id="rect3444"
         height="18.479"
         width="31.155001"
         y="97.489998"
         x="343.19901"
         style="fill:#ffffff" /><circle
         id="circle3446"
         r="0.84399998"
         cy="117.506"
         cx="359.13101"
         sodipodi:cx="359.13101"
         sodipodi:cy="117.506"
         sodipodi:rx="0.84399998"
         sodipodi:ry="0.84399998"
         style="fill:#ffffff"
         d="m 359.97501,117.506 c 0,0.46613 -0.37787,0.844 -0.844,0.844 -0.46613,0 -0.844,-0.37787 -0.844,-0.844 0,-0.46613 0.37787,-0.844 0.844,-0.844 0.46613,0 0.844,0.37787 0.844,0.844 z" /><polygon
         id="polygon3448"
         points="362.593,97.49 374.354,97.49 374.354,115.968 370.945,115.968 "
         style="fill:#cbe9fc" /><g
         id="g3450"><path
           id="path3452"
           d="m 330.249,112.992 c 0.483,-0.549 1.452,-1.989 1.276,-4.503 -0.384,0.896 -1.222,1.54 -2.222,1.671 v 2.166 l 0.619,-0.186 0.327,0.852 z"
           inkscape:connector-curvature="0"
           style="fill:none" /><path
           id="path3454"
           d="m 332.366,113.263 h -1.12 c 1.635,-1.709 0.447,-6.461 0.447,-6.461 l -10e-4,0.002 c -0.267,-1.277 -1.398,-2.236 -2.754,-2.236 -1.554,0 -2.815,1.26 -2.815,2.815 0,1.555 1.26,2.815 2.815,2.815 v 2.239 l -0.305,0.092 c 0.131,-0.899 -0.664,-1.388 -0.664,-1.388 l -2.284,-0.117 c 1.3,0.175 1.615,1.483 1.682,1.885 l -1.186,0.356 h -1.254 l -4.113,4.679 h -0.251 l -0.227,-0.375 h -1.206 l -0.326,0.357 -0.016,0.017 h -0.227 l -0.227,-0.375 h -1.206 l -0.326,0.357 -0.016,0.017 h -0.319 l -0.227,-0.375 h -1.206 l -0.326,0.357 -0.016,0.017 h -0.227 l -0.227,-0.375 h -1.206 l -0.326,0.357 -0.016,0.017 h -0.291 l -0.227,-0.375 h -1.206 l -0.326,0.357 -0.016,0.017 h -1.715 l -2.976,4.484 h 5.847 22.859 l -2.273,-9.16 z m -3.063,-3.103 c 1,-0.131 1.838,-0.775 2.222,-1.671 0.176,2.514 -0.792,3.954 -1.276,4.503 l -0.327,-0.853 -0.619,0.186 v -2.165 z"
           inkscape:connector-curvature="0"
           style="fill:#81c1e0" /></g><g
         id="g3456"><rect
           id="rect3458"
           height="3.7260001"
           width="2.8610001"
           y="115.902"
           x="300.03201"
           style="fill:none" /><path
           id="path3460"
           d="m 302.893,114.505 h -2.861 v -2.528 h -9.181 v 10.449 h 9.181 v -1.401 h 2.861 0.998 v -1.397 -3.726 -1.397 h -0.998 z m 0,5.123 h -2.861 v -3.726 h 2.861 v 3.726 z"
           inkscape:connector-curvature="0"
           style="fill:#81c1e0" /></g></g><g
       id="Meuble_Ikea"><rect
         id="rect3463"
         height="80.320999"
         width="15.25"
         y="69.698997"
         x="531.849"
         style="fill:#cbe9fc" /><rect
         id="rect3465"
         height="80.320999"
         width="15.25"
         y="69.698997"
         x="560.43298"
         style="fill:#cbe9fc" /><rect
         id="rect3467"
         height="80.320999"
         width="15.25"
         y="69.698997"
         x="589.58301"
         style="fill:#cbe9fc" /><rect
         id="rect3469"
         height="75.019997"
         width="6.23"
         y="75"
         x="518.03198"
         style="fill:#81c1e0" /><rect
         id="rect3471"
         height="6.23"
         width="93.031998"
         y="69.698997"
         x="518.03198"
         style="fill:#81c1e0" /><rect
         id="rect3473"
         height="6.23"
         width="93.031998"
         y="97.698997"
         x="518.03198"
         style="fill:#81c1e0" /><rect
         id="rect3475"
         height="6.23"
         width="93.031998"
         y="124.293"
         x="518.03198"
         style="fill:#81c1e0" /><rect
         id="rect3477"
         height="75.019997"
         width="6.23"
         y="75"
         x="604.83301"
         style="fill:#81c1e0" /><rect
         id="rect3479"
         height="75.019997"
         width="6.23"
         y="75"
         x="547.099"
         style="fill:#81c1e0" /><rect
         id="rect3481"
         height="75.019997"
         width="6.23"
         y="75"
         x="575.68298"
         style="fill:#81c1e0" /><rect
         id="rect3483"
         height="80.320999"
         width="15.25"
         y="69.698997"
         x="502.78201"
         style="fill:#cbe9fc" /></g><g
       id="Casier2"><rect
         id="rect3486"
         height="44.351002"
         width="32.333"
         y="105.669"
         x="390.51001"
         style="fill:#81c1e0" /><rect
         id="rect3488"
         height="44.351002"
         width="9.1669998"
         y="105.669"
         x="389.51001"
         style="fill:#cbe9fc" /><rect
         id="rect3490"
         height="0.60500002"
         width="18.5"
         y="124.15"
         x="402.17599"
         style="fill:#cbe9fc" /><rect
         id="rect3492"
         height="0.60500002"
         width="18.5"
         y="139.877"
         x="402.17599"
         style="fill:#cbe9fc" /><rect
         id="rect3494"
         height="1.24"
         width="5.25"
         y="116.042"
         x="408.80099"
         style="fill:#cbe9fc" /><rect
         id="rect3496"
         height="1.24"
         width="5.25"
         y="134.209"
         x="408.80099"
         style="fill:#cbe9fc" /><rect
         id="rect3498"
         height="1.24"
         width="5.25"
         y="148.75999"
         x="408.80099"
         style="fill:#cbe9fc" /></g><g
       id="Machine_à_café"><g
         id="g3501"><rect
           id="rect3503"
           height="2.6359999"
           width="2.0239999"
           y="118.729"
           x="470.905"
           style="fill:none" /><path
           id="path3505"
           d="m 470.199,117.74 v 0.989 2.636 0.989 h 0.706 2.024 v 0.991 h 6.497 v -7.394 h -6.497 v 1.789 h -2.024 -0.706 z m 0.706,0.989 h 2.024 v 2.636 h -2.024 v -2.636 z"
           inkscape:connector-curvature="0"
           style="fill:#81c1e0" /></g><rect
         id="rect3507"
         height="24.4"
         width="45.400002"
         y="125.6"
         x="437.914"
         style="fill:#81c1e0" /><rect
         id="rect3509"
         height="24.4"
         width="3.0999999"
         y="125.6"
         x="437.914"
         style="fill:#cbe9fc" /><g
         id="g3511"><g
           id="g3513"><path
             id="path3515"
             d="m 459.232,110.361 -0.14,-0.242 c -0.176,-0.28 -0.379,-0.525 -0.612,-0.726 -3.416,1.103 -7.088,0.514 -8.029,-0.15 -1.914,1.343 -1.969,5.519 -1.922,7.023 h 11.674 c 0.038,-1.199 0.009,-4.094 -0.971,-5.905 z"
             inkscape:connector-curvature="0"
             style="fill:none" /><path
             id="path3517"
             d="m 462.464,111.197 c -0.982,-0.563 -1.942,-0.157 -2.372,0.089 0.389,1.124 0.683,2.712 0.683,4.98 0.013,0.014 0.002,0.221 0,0.25 l -0.238,1.545 1.813,0.379 c 2.585,-4.276 1.436,-6.485 0.114,-7.243 z"
             inkscape:connector-curvature="0"
             style="fill:none" /><path
             id="path3519"
             d="m 461.13,108.886 -1,-0.517 -0.552,0.207 h -1.341 l -0.153,-0.207 c 0,0 -1.233,-0.336 -2.732,-0.331 l 0.17,-0.489 c 2.066,-0.1 2.941,-0.456 2.941,-0.456 v -1.207 c 0,0 3.345,-5.518 2.862,-11.587 0,0 -0.31,-1.104 -9.863,-0.966 0,0 -1.138,-0.586 -3.931,-0.586 -2.793,0 -6.518,0.69 -6.518,1.241 V 123.3 l 0.897,1.31 h 5.587 c 0,0 1.31,0.989 7.357,0.989 6.046,0 7.495,-1.931 7.495,-1.931 l -0.345,-3.609 c -7.633,1.793 -14.507,0 -14.507,0 v -13.725 h 3.242 v 0.828 c 0,0 0.728,0.349 3.093,0.403 l 0.095,0.543 c -1.212,0.097 -2.693,0.286 -3.343,0.574 l -0.002,-0.003 c 0,0 -2.625,0.782 -2.625,7.587 l 0,0 v 2.971 c 0.626,0.24 2.831,0.983 6.184,0.983 4,0 6.027,-0.825 6.027,-0.825 0,0 0.024,-0.058 0.059,-0.143 l 2.121,0.416 c 0,0 3.368,-3.127 3.368,-5.782 10e-4,-2.655 -1.448,-4.793 -4.586,-5 z m -12.602,7.38 c -0.048,-1.504 0.007,-5.68 1.922,-7.023 0.942,0.664 4.614,1.253 8.029,0.15 0.233,0.201 0.436,0.446 0.612,0.726 l 0.14,0.242 c 0.981,1.811 1.009,4.706 0.971,5.905 h -11.674 z m 13.821,2.174 -1.813,-0.379 0.238,-1.545 c 0.002,-0.028 0.012,-0.236 0,-0.25 0,-2.268 -0.294,-3.856 -0.683,-4.98 0.431,-0.247 1.391,-0.652 2.372,-0.089 1.323,0.758 2.472,2.967 -0.114,7.243 z"
             inkscape:connector-curvature="0"
             style="fill:#81c1e0" /></g><polygon
           id="polygon3521"
           points="441.014,93.614 442.011,93.442 441.911,123.319 441.014,123.301 "
           style="fill:#cbe9fc" /></g><rect
         id="rect3523"
         height="2.2809999"
         width="51.428001"
         transform="matrix(1,-0.0027,0.0027,1,-0.3351,1.2482)"
         y="123.312"
         x="435.371"
         style="fill:#81c1e0" /></g></g><g
     id="g35904"
     transform="translate(-42.129702,267.52361)"><g
       id="g7062"
       transform="matrix(0.73411861,0,0,0.73411861,38.065178,-227.2842)"><g
         display="none"
         id="Background"
         style="display:none"><rect
           id="rect6681"
           height="148.978"
           width="1215.207"
           display="inline"
           y="1.103"
           x="0"
           style="fill:#c9d9e2;display:inline" /></g><g
         id="Fenêtre-6"><polygon
           id="polygon6684"
           points="30.005,9.581 33.845,9.378 27.37,81.807 24.976,81.628 "
           style="fill:#3083a2" /><polygon
           id="polygon6686"
           points="25.657,81.807 0.087,82.671 0.087,8.088 30.937,9.627 "
           style="fill:#83c2e0" /><polygon
           id="polygon6688"
           points="24.762,38.671 0.651,37.939 1.215,11.11 27.089,12.35 "
           style="fill:#e6f5fe" /><polygon
           id="polygon6690"
           points="22.78,76.572 0.771,77.01 0.771,38.671 24.976,40.316 "
           style="fill:#e6f5fe" /><polygon
           id="polygon6692"
           points="0.087,77.523 0.771,76.595 1.215,9.378 0.087,9.378 "
           style="fill:#eaf1f5" /><polygon
           id="polygon6694"
           points="28.739,80.346 28.311,86.307 0.087,85.92 0.087,81.628 "
           style="fill:#066c89" /><rect
           id="rect6696"
           height="43.691002"
           width="0.5"
           y="12.678"
           x="18.903"
           style="fill:#3083a2" /><polygon
           id="polygon6698"
           points="27.975,29.85 0.087,30.776 0.087,33.989 28.082,33.06 "
           style="fill:#3083a2" /><polygon
           id="polygon6700"
           points="28.067,26.337 0.087,25.809 0.087,29.021 28.006,29.547 "
           style="fill:#3083a2" /><polygon
           id="polygon6702"
           points="28.067,10.493 0.087,9.965 0.087,13.177 28.006,13.704 "
           style="fill:#3083a2" /><polygon
           id="polygon6704"
           points="28.452,21.743 0.087,21.208 0.087,24.42 28.392,24.953 "
           style="fill:#3083a2" /><polygon
           id="polygon6706"
           points="28.452,15.243 0.087,14.708 0.087,17.92 28.392,18.453 "
           style="fill:#3083a2" /><polygon
           id="polygon6708"
           points="19.844,56.369 19.844,58.664 18.647,58.45 18.647,56.369 "
           style="fill:#3083a2" /><polygon
           id="polygon6710"
           points="27.62,33.262 0.087,37.074 0.087,40.316 28.06,36.443 "
           style="fill:#3083a2" /><polygon
           id="polygon6712"
           points="27.623,11.181 0.09,14.993 0.09,18.235 28.064,14.362 "
           style="fill:#3083a2" /><polygon
           id="polygon6714"
           points="0.087,10.554 36.82,10.65 36.82,1.103 0.09,1.103 "
           style="fill:#066c89" /><polygon
           id="polygon6716"
           points="0.087,20.45 27.768,22.434 27.997,19.23 0.087,17.231 "
           style="fill:#3083a2" /></g><g
         id="Cadre-4"><rect
           id="rect6719"
           height="13.221"
           width="73.167"
           y="136.86"
           x="835.901"
           style="fill:#3083a2" /><rect
           id="rect6721"
           height="5.717"
           width="87.5"
           y="134.69901"
           x="830.08002"
           style="fill:#3083a2" /><rect
           id="rect6723"
           height="6.3649998"
           width="8.25"
           y="129.786"
           x="868.35999"
           style="fill:#3083a2" /><rect
           id="rect6725"
           height="31.719"
           width="58.23"
           y="99.217003"
           x="843.37"
           style="fill:#3083a2" /><rect
           id="rect6727"
           height="26"
           width="54.088001"
           y="102.076"
           x="845.44098"
           style="fill:#e6f5fe" /><polygon
           id="polygon6729"
           points="899.529,115.814 899.529,102.076 885.364,102.076 "
           style="fill:#c7e1f1" /><rect
           id="rect6731"
           height="2.161"
           width="87.5"
           y="138.254"
           x="830.08002"
           style="fill:#022d3d" /></g><g
         id="Radiateur-5"><rect
           id="rect6734"
           height="1.278"
           width="4.4429998"
           y="122.913"
           x="497.892"
           style="fill:#83c2e0" /><rect
           id="rect6736"
           height="2.8610001"
           width="4.3000002"
           y="122.122"
           x="494.59601"
           style="fill:#066c89" /><rect
           id="rect6738"
           height="29.042999"
           width="44.674999"
           y="121.037"
           x="501.87"
           style="fill:#3083a2" /><rect
           id="rect6740"
           height="18.938"
           width="6.4499998"
           y="131.14301"
           x="499.72"
           style="fill:#c7e1f1" /><rect
           id="rect6742"
           height="18.938"
           width="6.4499998"
           y="131.14301"
           x="507.508"
           style="fill:#c7e1f1" /><rect
           id="rect6744"
           height="18.938"
           width="6.4499998"
           y="131.14301"
           x="515.20099"
           style="fill:#c7e1f1" /><rect
           id="rect6746"
           height="18.938"
           width="6.4499998"
           y="131.14301"
           x="522.98901"
           style="fill:#c7e1f1" /><rect
           id="rect6748"
           height="18.938"
           width="6.4499998"
           y="131.14301"
           x="530.77802"
           style="fill:#c7e1f1" /><rect
           id="rect6750"
           height="18.938"
           width="6.4499998"
           y="131.14301"
           x="538.56598"
           style="fill:#c7e1f1" /><rect
           id="rect6752"
           height="3.632"
           width="6.4499998"
           y="121.037"
           x="499.72"
           style="fill:#c7e1f1" /><rect
           id="rect6754"
           height="3.632"
           width="6.4499998"
           y="121.037"
           x="507.508"
           style="fill:#c7e1f1" /><rect
           id="rect6756"
           height="3.632"
           width="6.4499998"
           y="121.037"
           x="515.20099"
           style="fill:#c7e1f1" /><rect
           id="rect6758"
           height="3.632"
           width="6.4499998"
           y="121.037"
           x="522.98901"
           style="fill:#c7e1f1" /><rect
           id="rect6760"
           height="3.632"
           width="6.4499998"
           y="121.037"
           x="530.77802"
           style="fill:#c7e1f1" /><rect
           id="rect6762"
           height="3.632"
           width="6.4499998"
           y="121.037"
           x="538.56598"
           style="fill:#c7e1f1" /><rect
           id="rect6764"
           height="0.98000002"
           width="6.4499998"
           y="125.923"
           x="501.24899"
           style="fill:#c7e1f1" /><rect
           id="rect6766"
           height="0.98000002"
           width="6.4499998"
           y="125.923"
           x="509.03699"
           style="fill:#c7e1f1" /><rect
           id="rect6768"
           height="0.98000002"
           width="6.4499998"
           y="125.923"
           x="516.72998"
           style="fill:#c7e1f1" /><rect
           id="rect6770"
           height="0.98000002"
           width="6.4499998"
           y="125.923"
           x="524.51801"
           style="fill:#c7e1f1" /><rect
           id="rect6772"
           height="0.98000002"
           width="6.4499998"
           y="125.923"
           x="532.30701"
           style="fill:#c7e1f1" /><rect
           id="rect6774"
           height="0.98000002"
           width="6.4499998"
           y="125.923"
           x="540.09497"
           style="fill:#c7e1f1" /><rect
           id="rect6776"
           height="0.98000002"
           width="6.4499998"
           y="128.28799"
           x="501.24899"
           style="fill:#c7e1f1" /><rect
           id="rect6778"
           height="0.98000002"
           width="6.4499998"
           y="128.28799"
           x="509.03699"
           style="fill:#c7e1f1" /><rect
           id="rect6780"
           height="0.98000002"
           width="6.4499998"
           y="128.28799"
           x="516.72998"
           style="fill:#c7e1f1" /><rect
           id="rect6782"
           height="0.98000002"
           width="6.4499998"
           y="128.28799"
           x="524.51801"
           style="fill:#c7e1f1" /><rect
           id="rect6784"
           height="0.98000002"
           width="6.4499998"
           y="128.28799"
           x="532.30701"
           style="fill:#c7e1f1" /><rect
           id="rect6786"
           height="0.98000002"
           width="6.4499998"
           y="128.28799"
           x="540.09497"
           style="fill:#c7e1f1" /><rect
           id="rect6788"
           height="25.098"
           width="1.147"
           y="124.983"
           x="496.47101"
           style="fill:#c7e1f1" /></g><g
         id="Plante"><path
           id="path6791"
           d="m 193.334,131.546 15.003,-13.862 -14.403,14.463 c 0,-0.001 -0.78,1.199 -0.6,-0.601 z"
           inkscape:connector-curvature="0"
           style="fill:#a2cde5" /><path
           id="path6793"
           d="m 193.815,116.579 c 0,0 -0.504,-8.126 -9.331,-2.886 0,0 6.473,0.588 6.837,5.604 0.364,5.015 0.925,3.642 2.494,-2.718 z"
           inkscape:connector-curvature="0"
           style="fill:#3083a2" /><path
           id="path6795"
           d="m 190.76,127.787 c 0,0 -3.727,-9.246 -7.257,-9.415 -3.53,-0.168 -7.145,0.224 -7.145,0.224 0,0 -4.427,3.446 -4.903,6.276 0,0 5.184,-7.565 8.126,-5.94 2.942,1.625 7.145,9.975 7.145,9.975 0,0 2.578,5.408 2.718,5.464 0.14,0.056 3.054,1.373 2.83,-1.709 -0.225,-3.082 -1.514,-4.875 -1.514,-4.875 z"
           inkscape:connector-curvature="0"
           style="fill:#3083a2" /><polygon
           id="polygon6797"
           points="184.213,150 198.953,150 199.977,142.41 181.743,142.41 "
           style="fill:#83c2e0" /><path
           id="path6799"
           d="m 202.735,139.408 h -24.012 c -0.829,0 -1.501,0.672 -1.501,1.501 0,0.829 0.672,1.501 1.501,1.501 h 24.012 c 0.829,0 1.501,-0.672 1.501,-1.501 0,-0.829 -0.672,-1.501 -1.501,-1.501 z"
           inkscape:connector-curvature="0"
           style="fill:#066c89" /><path
           id="path6801"
           d="m 201.744,127.717 c -1.429,-0.252 -1.345,-0.883 -3.194,0.42 -1.849,1.303 -4.399,3.601 -4.399,3.601 6.332,-12.721 15.579,-16.167 15.579,-16.167 -8.238,0.785 -16.111,12.189 -16.111,12.189 4.483,-10.535 12.245,-18.619 12.245,-18.619 -1.681,0.42 -9.919,10.675 -9.919,10.675 0,0 0,0 1.303,-2.648 1.303,-2.648 4.959,-8.448 8.532,-8.238 2.856,0.168 6.246,2.026 7.492,2.766 -0.928,-0.567 -2.985,-1.82 -4.592,-2.766 -2.143,-1.261 -1.471,-1.093 -8.07,-0.546 -6.599,0.546 -8.322,11.726 -8.322,11.726 -0.63,-6.851 -3.236,-15.047 -3.236,-15.047 0.462,2.648 -0.168,4.623 -0.168,4.623 -2.143,-2.984 -4.497,-2.858 -4.497,-2.858 3.362,2.27 5.254,12.861 5.254,12.861 -2.522,-9.204 -5.576,-14.542 -13.337,-19.838 -7.761,-5.296 -10.115,-5.38 -10.115,-5.38 1.177,1.513 5.716,2.27 12.104,7.986 6.388,5.716 7.481,10.76 10.003,17.4 1.267,3.338 1.643,8.246 1.703,12.304 -1.597,-2.948 -7.042,-11.849 -14.48,-11.674 -8.91,0.21 -15.257,8.154 -18.367,13.744 0,0 12.188,-13.912 17.82,-12.903 5.632,1.009 12.609,10.97 12.609,10.97 0,0 -4.623,-3.572 -7.271,-3.194 -2.648,0.378 -4.035,1.597 -4.035,3.615 0,0 1.849,-3.152 3.657,-2.858 1.807,0.294 2.606,0.841 2.606,0.841 0,0 -3.825,0.042 -4.623,1.513 0,0 3.236,-0.714 5.001,0.967 0,0 0.042,0 -3.32,0.799 -3.362,0.799 -9.877,3.362 -11.348,5.674 0,0 9.793,-5.38 12.819,-3.909 l -4.665,1.975 4.539,-1.051 -2.228,1.261 2.732,-0.672 c 0,0 1.723,-0.084 2.816,1.219 0.264,0.314 0.65,0.641 1.108,0.932 h 7.451 c 0,0 2.198,0.73 3.129,1.592 10e-4,10e-4 0.002,0.003 0.004,0.004 1.713,1.283 3.523,4.534 3.523,4.534 0.42,-2.858 -2.984,-6.262 -2.984,-6.262 3.152,-0.21 6.304,2.354 6.304,2.354 -0.378,-1.513 -5.128,-3.236 -5.128,-3.236 l 5.296,0.084 c -2.228,-1.345 -7.944,-1.471 -7.944,-1.471 6.557,-3.951 14.248,0.757 14.248,0.757 0,0 -1.261,-1.513 -4.161,-2.522 -2.9,-1.009 -9.709,-0.672 -9.709,-0.672 0.294,-1.261 1.807,-2.69 3.278,-3.783 1.471,-1.093 5.506,0.21 5.506,0.21 6.935,3.026 8.793,14.817 8.793,14.817 0.42,-5.632 -1.648,-10.32 -4.044,-13.64 -2.395,-3.324 -5.758,-4.207 -7.187,-4.459 z"
           inkscape:connector-curvature="0"
           style="fill:#83c2e0" /><g
           id="g6803"><path
             id="path6805"
             d="m 799.211,131.546 15.003,-13.862 -14.403,14.463 c 0,-0.001 -0.78,1.199 -0.6,-0.601 z"
             inkscape:connector-curvature="0"
             style="fill:#a2cde5" /><path
             id="path6807"
             d="m 799.691,116.579 c 0,0 -0.504,-8.126 -9.331,-2.886 0,0 6.472,0.588 6.837,5.604 0.365,5.016 0.925,3.642 2.494,-2.718 z"
             inkscape:connector-curvature="0"
             style="fill:#066c89" /><path
             id="path6809"
             d="m 796.637,127.787 c 0,0 -3.727,-9.246 -7.257,-9.415 -3.53,-0.168 -7.145,0.224 -7.145,0.224 0,0 -4.427,3.446 -4.903,6.276 0,0 5.184,-7.565 8.126,-5.94 2.942,1.625 7.145,9.975 7.145,9.975 0,0 2.578,5.408 2.718,5.464 0.14,0.056 3.054,1.373 2.83,-1.709 -0.225,-3.082 -1.514,-4.875 -1.514,-4.875 z"
             inkscape:connector-curvature="0"
             style="fill:#066c89" /><polygon
             id="polygon6811"
             points="790.089,150 804.83,150 805.854,142.41 787.62,142.41 "
             style="fill:#83c2e0" /><path
             id="path6813"
             d="M 808.612,139.408 H 784.6 c -0.829,0 -1.501,0.672 -1.501,1.501 0,0.829 0.672,1.501 1.501,1.501 h 24.012 c 0.829,0 1.501,-0.672 1.501,-1.501 0,-0.829 -0.672,-1.501 -1.501,-1.501 z"
             inkscape:connector-curvature="0"
             style="fill:#066c89" /><path
             id="path6815"
             d="m 807.621,127.717 c -1.429,-0.252 -1.345,-0.883 -3.194,0.42 -1.849,1.303 -4.399,3.601 -4.399,3.601 6.332,-12.721 15.579,-16.167 15.579,-16.167 -8.238,0.785 -16.111,12.189 -16.111,12.189 4.483,-10.535 12.245,-18.619 12.245,-18.619 -1.681,0.42 -9.919,10.675 -9.919,10.675 0,0 0,0 1.303,-2.648 1.303,-2.648 4.959,-8.448 8.532,-8.238 2.856,0.168 6.246,2.026 7.492,2.766 -0.928,-0.567 -2.985,-1.82 -4.592,-2.766 -2.143,-1.261 -1.471,-1.093 -8.07,-0.546 -6.599,0.546 -8.322,11.726 -8.322,11.726 -0.63,-6.851 -3.236,-15.047 -3.236,-15.047 0.462,2.648 -0.168,4.623 -0.168,4.623 -2.143,-2.984 -4.497,-2.858 -4.497,-2.858 3.362,2.27 5.254,12.861 5.254,12.861 -2.522,-9.204 -5.576,-14.542 -13.337,-19.838 -7.761,-5.296 -10.115,-5.38 -10.115,-5.38 1.177,1.513 5.716,2.27 12.104,7.986 6.388,5.716 7.481,10.76 10.003,17.4 1.267,3.338 1.643,8.246 1.703,12.304 -1.597,-2.948 -7.042,-11.849 -14.48,-11.674 -8.91,0.21 -15.257,8.154 -18.367,13.744 0,0 12.188,-13.912 17.82,-12.903 5.632,1.009 12.609,10.97 12.609,10.97 0,0 -4.623,-3.572 -7.271,-3.194 -2.648,0.378 -4.035,1.597 -4.035,3.615 0,0 1.849,-3.152 3.657,-2.858 1.807,0.294 2.606,0.841 2.606,0.841 0,0 -3.825,0.042 -4.623,1.513 0,0 3.236,-0.714 5.002,0.967 0,0 0.042,0 -3.32,0.799 -3.362,0.799 -9.877,3.362 -11.348,5.674 0,0 9.793,-5.38 12.819,-3.909 l -4.665,1.975 4.539,-1.051 -2.228,1.261 2.732,-0.672 c 0,0 1.723,-0.084 2.816,1.219 0.264,0.314 0.65,0.641 1.108,0.932 h 7.451 c 0,0 2.198,0.73 3.129,1.592 10e-4,10e-4 0.002,0.003 0.004,0.004 1.713,1.283 3.523,4.534 3.523,4.534 0.42,-2.858 -2.984,-6.262 -2.984,-6.262 3.152,-0.21 6.304,2.354 6.304,2.354 -0.378,-1.513 -5.128,-3.236 -5.128,-3.236 l 5.296,0.084 c -2.228,-1.345 -7.944,-1.471 -7.944,-1.471 6.557,-3.951 14.248,0.757 14.248,0.757 0,0 -1.261,-1.513 -4.161,-2.522 -2.9,-1.009 -9.709,-0.672 -9.709,-0.672 0.294,-1.261 1.807,-2.69 3.278,-3.783 1.471,-1.093 5.506,0.21 5.506,0.21 6.935,3.026 8.793,14.817 8.793,14.817 0.42,-5.632 -1.648,-10.32 -4.044,-13.64 -2.397,-3.324 -5.759,-4.207 -7.188,-4.459 z"
             inkscape:connector-curvature="0"
             style="fill:#83c2e0" /></g></g><g
         id="Étagère-5"
         transform="translate(-29.920225,0)"><polygon
           id="polygon6818"
           points="94.576,46.86 82.14,49.897 86.646,150.02 94.001,150.02 "
           style="fill:#066c89" /><polygon
           id="polygon6820"
           points="85.338,50.18 90.163,50.166 93.86,150.02 101.169,150.02 101.169,149.997 164.689,149.997 164.689,150.02 171.434,150.02 176.338,49.913 181.915,49.897 183.743,38.566 82.14,38.096 "
           style="fill:#83c2e0" /><polygon
           id="polygon6822"
           points="82.14,38.096 73.874,41.639 76.004,51.589 85.338,50.18 "
           style="fill:#066c89" /><polygon
           id="polygon6824"
           points="168.176,53.783 162.638,150.268 102.644,150.268 99.96,53.19 "
           style="fill:#3083a2" /><rect
           id="rect6826"
           height="8.776"
           width="19.73"
           y="109.221"
           x="140.787"
           style="fill:#83c2e0" /><rect
           id="rect6828"
           height="16.361"
           width="6.6989999"
           y="133.97"
           x="106.057"
           style="fill:#83c2e0" /><polygon
           id="polygon6830"
           points="123.585,150.331 123.585,137.377 118.658,137.377 118.658,150.32 118.14,150.32 118.14,137.377 113.274,137.377 113.274,150.331 "
           style="fill:#83c2e0" /><rect
           id="rect6832"
           height="15.467"
           width="3.6630001"
           y="79.903"
           x="138.905"
           style="fill:#83c2e0" /><rect
           id="rect6834"
           height="11.947"
           width="1.283"
           y="83.422997"
           x="143.45799"
           style="fill:#83c2e0" /><rect
           id="rect6836"
           height="12.62"
           width="2.2149999"
           y="82.75"
           x="146.181"
           style="fill:#83c2e0" /><rect
           id="rect6838"
           height="12.62"
           width="2.2149999"
           transform="matrix(-0.9675,-0.253,0.253,-0.9675,245.8791,209.1835)"
           y="82.473999"
           x="135.28101"
           style="fill:#83c2e0" /><rect
           id="rect6840"
           height="13.553"
           width="2.572"
           y="81.817001"
           x="149.27"
           style="fill:#83c2e0" /><rect
           id="rect6842"
           height="13.553"
           width="3.6849999"
           y="81.817001"
           x="155.457"
           style="fill:#83c2e0" /><rect
           id="rect6844"
           height="11.412"
           width="2.4059999"
           y="83.958"
           x="159.70599"
           style="fill:#83c2e0" /><rect
           id="rect6846"
           height="13.88"
           width="0.93199998"
           y="81.489998"
           x="152.67"
           style="fill:#83c2e0" /><rect
           id="rect6848"
           height="12.413"
           width="0.46599999"
           y="82.957001"
           x="154.34399"
           style="fill:#83c2e0" /><rect
           id="rect6850"
           height="16.986"
           width="2.2609999"
           y="78.384003"
           x="100.384"
           style="fill:#83c2e0" /><rect
           id="rect6852"
           height="11.947"
           width="1.283"
           y="83.422997"
           x="116.484"
           style="fill:#83c2e0" /><rect
           id="rect6854"
           height="12.62"
           width="2.2149999"
           y="82.75"
           x="113.352"
           style="fill:#83c2e0" /><rect
           id="rect6856"
           height="18.025"
           width="2.2149999"
           y="55.830002"
           x="102.904"
           style="fill:#83c2e0" /><rect
           id="rect6858"
           height="20.666"
           width="2.2149999"
           y="53.189999"
           x="99.959999"
           style="fill:#83c2e0" /><rect
           id="rect6860"
           height="13.553"
           width="2.572"
           y="81.817001"
           x="103.486"
           style="fill:#83c2e0" /><rect
           id="rect6862"
           height="13.553"
           width="2.572"
           y="81.817001"
           x="120.022"
           style="fill:#83c2e0" /><rect
           id="rect6864"
           height="13.553"
           width="3.6849999"
           y="81.817001"
           x="108.992"
           style="fill:#83c2e0" /><rect
           id="rect6866"
           height="16.037001"
           width="3.661"
           transform="matrix(-0.996,0.089,-0.089,-0.996,259.4276,162.8741)"
           y="79.202003"
           x="124.252"
           style="fill:#83c2e0" /><rect
           id="rect6868"
           height="20.204"
           width="3.6849999"
           y="53.783001"
           x="106.404"
           style="fill:#83c2e0" /><rect
           id="rect6870"
           height="13.88"
           width="0.93199998"
           y="81.489998"
           x="106.788"
           style="fill:#83c2e0" /><rect
           id="rect6872"
           height="12.413"
           width="0.46599999"
           y="82.957001"
           x="118.611"
           style="fill:#83c2e0" /><rect
           id="rect6874"
           height="19.402"
           width="4.1919999"
           transform="matrix(-0.995,0.1003,-0.1003,-0.995,234.3986,116.4697)"
           y="54.424999"
           x="112.176"
           style="fill:#83c2e0" /><rect
           id="rect6876"
           height="18.025"
           width="3.4530001"
           y="99.839996"
           x="106.432"
           style="fill:#83c2e0" /><rect
           id="rect6878"
           height="12.337"
           width="3.4530001"
           y="105.528"
           x="120.582"
           style="fill:#83c2e0" /><rect
           id="rect6880"
           height="19.072001"
           width="1.752"
           y="98.793999"
           x="103.951"
           style="fill:#83c2e0" /><rect
           id="rect6882"
           height="17.9"
           width="1.796"
           transform="matrix(-0.9975,-0.0712,0.0712,-0.9975,216.3097,225.3746)"
           y="99.880997"
           x="111.275"
           style="fill:#83c2e0" /><polygon
           id="polygon6884"
           points="118.381,98.684 114.821,99.148 116.232,117.997 119.793,117.533 "
           style="fill:#83c2e0" /><rect
           id="rect6886"
           height="19.402"
           width="7.7030001"
           y="54.585999"
           x="132.123"
           style="fill:#83c2e0" /><rect
           id="rect6888"
           height="19.402"
           width="2.6400001"
           y="54.585999"
           x="140.343"
           style="fill:#83c2e0" /><rect
           id="rect6890"
           height="16.111"
           width="4.342"
           y="57.876999"
           x="153.136"
           style="fill:#83c2e0" /><rect
           id="rect6892"
           height="19.402"
           width="4.6420002"
           y="54.585999"
           x="157.996"
           style="fill:#83c2e0" /><path
           id="path6894"
           d="m 155.552,129.818 v 20.448 h -0.518 v -20.448 h -4.711 v 20.448 h -0.518 v -20.448 h -4.506 v 20.448 h -0.518 v -20.448 h -7.321 v 20.45 h 23.02 v -20.45 h -4.928 z m -13.122,4.072 c -0.637,0 -1.154,-0.517 -1.154,-1.154 0,-0.637 0.517,-1.154 1.154,-1.154 0.637,0 1.154,0.517 1.154,1.154 0,0.637 -0.517,1.154 -1.154,1.154 z m 4.894,0 c -0.637,0 -1.154,-0.517 -1.154,-1.154 0,-0.637 0.517,-1.154 1.154,-1.154 0.637,0 1.154,0.517 1.154,1.154 0,0.637 -0.516,1.154 -1.154,1.154 z m 5.445,0 c -0.637,0 -1.154,-0.517 -1.154,-1.154 0,-0.637 0.517,-1.154 1.154,-1.154 0.637,0 1.154,0.517 1.154,1.154 0,0.637 -0.517,1.154 -1.154,1.154 z m 5.093,0.08 c -0.637,0 -1.154,-0.517 -1.154,-1.154 0,-0.637 0.517,-1.154 1.154,-1.154 0.637,0 1.154,0.517 1.154,1.154 0,0.637 -0.517,1.154 -1.154,1.154 z"
           inkscape:connector-curvature="0"
           style="fill:#83c2e0" /><polygon
           id="polygon6896"
           points="117.98,73.988 118.045,73.988 127.516,73.988 132.718,55.296 129.198,54.317 122.635,56.452 "
           style="fill:#83c2e0" /><rect
           id="rect6898"
           height="1.786"
           width="22.839001"
           y="108.531"
           x="139.093"
           style="fill:#83c2e0" /><polygon
           id="polygon6900"
           points="165.878,76.309 165.923,73.988 99.96,73.988 100.006,76.309 "
           style="fill:#022d3d" /><polygon
           id="polygon6902"
           points="165.465,97.692 165.51,95.37 100.384,95.37 100.43,97.692 "
           style="fill:#022d3d" /><polygon
           id="polygon6904"
           points="165.028,120.319 165.073,117.997 100.832,117.997 100.878,120.319 "
           style="fill:#022d3d" /></g><g
         id="Horloge-6"
         transform="translate(-15.610552,0)"><circle
           id="circle6912"
           r="12.067"
           cy="73.767998"
           cx="197.278"
           sodipodi:cx="197.278"
           sodipodi:cy="73.767998"
           sodipodi:rx="12.067"
           sodipodi:ry="12.067"
           style="fill:#83c2e0"
           d="m 209.345,73.767998 c 0,6.66442 -5.40258,12.067 -12.067,12.067 -6.66442,0 -12.067,-5.40258 -12.067,-12.067 0,-6.664421 5.40258,-12.067001 12.067,-12.067001 6.66442,0 12.067,5.40258 12.067,12.067001 z" /><circle
           id="circle6914"
           r="10.371"
           cy="73.767998"
           cx="197.278"
           sodipodi:cx="197.278"
           sodipodi:cy="73.767998"
           sodipodi:rx="10.371"
           sodipodi:ry="10.371"
           style="fill:#e6f5fe"
           d="m 207.649,73.767998 c 0,5.727745 -4.64325,10.371 -10.371,10.371 -5.72775,0 -10.371,-4.643255 -10.371,-10.371 0,-5.727746 4.64325,-10.371001 10.371,-10.371001 5.72775,0 10.371,4.643255 10.371,10.371001 z" /><circle
           id="circle6916"
           r="0.954"
           cy="73.767998"
           cx="197.278"
           sodipodi:cx="197.278"
           sodipodi:cy="73.767998"
           sodipodi:rx="0.954"
           sodipodi:ry="0.954"
           style="fill:#83c2e0"
           d="m 198.232,73.767998 c 0,0.526879 -0.42712,0.954 -0.954,0.954 -0.52688,0 -0.954,-0.427121 -0.954,-0.954 0,-0.52688 0.42712,-0.954 0.954,-0.954 0.52688,0 0.954,0.42712 0.954,0.954 z" /><polygon
           id="polygon6918"
           points="204.314,77.873 197.32,74.237 197.707,73.574 "
           style="fill:#83c2e0" /><polygon
           id="polygon6920"
           points="204.431,77.941 202.655,78.02 203.625,76.358 "
           style="fill:#83c2e0" /><polygon
           id="polygon6922"
           points="201.887,77.109 197.765,74.417 198.046,74.029 "
           style="fill:#83c2e0" /><polygon
           id="polygon6924"
           points="201.956,77.159 200.848,77.098 201.553,76.125 "
           style="fill:#83c2e0" /><rect
           id="rect6926"
           height="1.568"
           width="0.40900001"
           y="63.685001"
           x="197.07401"
           style="fill:#83c2e0" /><rect
           id="rect6928"
           height="0.40900001"
           width="1.568"
           y="73.564003"
           x="205.79401"
           style="fill:#83c2e0" /><rect
           id="rect6930"
           height="1.568"
           width="0.40900001"
           transform="matrix(0.4999,0.8661,-0.8661,0.4999,162.5606,-143.2701)"
           y="68.335999"
           x="205.12801"
           style="fill:#83c2e0" /><rect
           id="rect6932"
           height="1.568"
           width="0.40900001"
           transform="matrix(0.8659,0.5002,-0.5002,0.8659,59.9525,-92.1976)"
           y="64.931999"
           x="201.72501"
           style="fill:#83c2e0" /><rect
           id="rect6934"
           height="1.568"
           width="0.40900001"
           y="82.282997"
           x="197.07401"
           style="fill:#83c2e0" /><rect
           id="rect6936"
           height="0.40900001"
           width="1.568"
           y="73.564003"
           x="187.19501"
           style="fill:#83c2e0" /><rect
           id="rect6938"
           height="1.568"
           width="0.40900001"
           transform="matrix(-0.4999,-0.8661,0.8661,-0.4999,215.8925,281.502)"
           y="77.633003"
           x="189.02"
           style="fill:#83c2e0" /><rect
           id="rect6940"
           height="1.568"
           width="0.40900001"
           transform="matrix(-0.8659,-0.5002,0.5002,-0.8659,318.4927,249.0246)"
           y="81.036003"
           x="192.422"
           style="fill:#83c2e0" /><rect
           id="rect6942"
           height="1.568"
           width="0.40900001"
           transform="matrix(-0.8661,0.4999,-0.4999,-0.8661,417.7162,51.7545)"
           y="81.038002"
           x="201.722"
           style="fill:#83c2e0" /><rect
           id="rect6944"
           height="1.568"
           width="0.40900001"
           transform="matrix(-0.5002,0.8659,-0.8659,-0.5002,375.9452,-60.1473)"
           y="77.636002"
           x="205.12601"
           style="fill:#83c2e0" /><rect
           id="rect6946"
           height="1.568"
           width="0.40900001"
           transform="matrix(0.8661,-0.4999,0.4999,0.8661,-7.056,105.0863)"
           y="64.93"
           x="192.42599"
           style="fill:#83c2e0" /><rect
           id="rect6948"
           height="1.568"
           width="0.40900001"
           transform="matrix(0.5002,-0.8659,0.8659,0.5002,34.7229,198.3928)"
           y="68.333"
           x="189.022"
           style="fill:#83c2e0" /></g><g
         id="Siège"><path
           id="path6951"
           d="m 273.982,140.222 c -0.142,-1.775 -4.921,-1.628 -4.921,-1.628 0,0 -1.8,0.007 -4.252,0.019 -0.166,-2.005 -0.478,-6.894 0.32,-7.755 1.282,0.335 2.401,0.512 2.64,0.17 0.445,-0.635 0.722,-1.808 -0.438,-2.381 -1.159,-0.574 -2.34,-1.047 -7.623,-0.844 0,0 -4.076,0.726 -4.422,1.382 -0.346,0.656 -0.354,1.077 0.438,1.096 0.434,0.01 1.671,-0.306 3.017,-0.489 0.49,0.304 1.734,1.221 1.792,2.727 0.057,1.477 0.086,4.776 0.096,6.117 -3.895,0.022 -7.9,0.049 -8.994,0.073 -0.43,0.01 -0.789,0.02 -1.113,0.036 0.104,-0.26 0.2,-0.521 0.281,-0.782 1.846,-6.005 2.708,-9.302 0.993,-14.032 -1.715,-4.731 -5.28,-13.84 -5.014,-15.928 0.266,-2.087 1.409,-10.933 -3.793,-13.749 0,0 -11.742,-1.939 -21.049,-1.66 l -0.001,-10e-4 c -0.059,0.002 -0.119,0.003 -0.178,0.005 0,0 -0.525,0.177 -0.882,0.723 -0.277,0.425 -0.452,1.074 -0.199,2.038 0.579,2.203 2.626,1.432 2.625,9.097 -0.001,7.665 0.868,14.851 2.281,19.445 0.353,1.148 0.671,2.425 0.932,3.804 0.065,0.345 0.127,0.696 0.185,1.053 0.287,1.773 0.476,3.694 0.529,5.715 0,0.02 0.001,0.039 0.002,0.058 0.06,2.441 -0.082,5.026 -0.498,7.671 -0.096,0.607 -0.163,1.171 -0.205,1.694 -0.042,0.524 -0.059,1.007 -0.056,1.453 0.006,0.669 0.058,1.255 0.146,1.767 0.029,0.171 0.062,0.333 0.098,0.488 0.073,0.309 0.158,0.587 0.254,0.837 0.287,0.749 0.66,1.242 1.016,1.56 h 2.116 7.952 c 1.192,-0.079 2.053,-0.141 2.175,-0.159 0.177,-0.027 1.61,-0.974 3.382,-2.483 1.072,0.127 2.141,0.271 3.175,0.42 L 246.582,150 h 3.634 l -0.077,-1.707 c 0.596,0.096 1.163,0.188 1.688,0.274 3.135,0.51 9.195,-0.057 9.195,-0.057 0,0 7.817,-2.155 10.189,-3.137 2.373,-0.981 2.709,-1.884 2.709,-1.884 0,0 0.204,-1.492 0.062,-3.267 z"
           inkscape:connector-curvature="0"
           style="fill:#1481a3" /><path
           id="path6953"
           d="m 231.051,138.502 c 1.25,-8.5 -0.25,-20.375 -2.375,-25.005 -2.125,-4.63 0,-15.12 -2.75,-19.025 -0.775,-1.1 -1.728,-1.655 -2.698,-1.903 -0.433,0.004 -0.864,0.01 -1.289,0.023 l -0.001,-0.001 c -0.059,0.002 -0.119,0.003 -0.178,0.005 0,0 -0.525,0.177 -0.882,0.723 -0.277,0.425 -0.452,1.074 -0.199,2.038 0.579,2.203 2.626,1.432 2.625,9.097 -0.001,7.665 0.868,14.851 2.281,19.445 0.353,1.148 0.671,2.425 0.932,3.804 0.065,0.345 0.127,0.696 0.185,1.053 0.287,1.773 0.476,3.694 0.529,5.715 0,0.02 0.001,0.039 0.002,0.058 0.06,2.441 -0.082,5.026 -0.498,7.671 -0.096,0.607 -0.162,1.17 -0.205,1.694 -0.042,0.524 -0.059,1.007 -0.056,1.453 0.006,0.669 0.058,1.255 0.146,1.767 0.029,0.171 0.062,0.333 0.098,0.488 0.073,0.309 0.159,0.587 0.254,0.837 0.287,0.749 0.66,1.242 1.017,1.56 h 2.116 2.27 c -1.024,-2.715 -2.015,-6.797 -1.324,-11.497 z"
           inkscape:connector-curvature="0"
           style="fill:#022d3d" /><path
           id="path6955"
           d="m 761.759,125.901 c 0,0 -14.497,-2.265 -19.004,-2.809 -0.101,-0.012 -0.196,-0.021 -0.291,-0.03 -0.112,-0.003 -0.236,-0.013 -0.365,-0.027 -0.383,-0.021 -0.72,-0.015 -1.016,0.014 -1.501,0.248 -1.839,1.538 -1.839,1.538 l -1.948,10.656 c 0,0 -2.899,0.715 -8.517,1.227 -5.617,0.512 -5.255,3.279 -5.255,3.279 L 724.431,150 h 34.61 c 0,0 3.986,-17.485 3.986,-20.67 0,-3.185 -1.268,-3.429 -1.268,-3.429 z"
           inkscape:connector-curvature="0"
           style="fill:#066c89" /><path
           id="path6957"
           d="m 600.018,148.189 c 0,0 0,-1.75 0,-2.938 0,-1.188 -0.438,-1.188 -0.438,-1.188 l -2.125,-0.375 c 0,0 0,-1.313 0,-3.188 0,-1.875 -1.25,-1.813 -1.25,-1.813 l -14.063,-0.401 c 0,0 -1.625,-11.849 -1.625,-13.224 0,-1.375 -0.625,-1.375 -0.625,-1.375 0,0 -8.438,0.063 -12.438,0.688 -4,0.625 -3.188,2.313 -3.188,2.313 l 2.5,23.311 31.375,0.031 -0.063,-1.091 h 1.813 c 0,0 0.099,-0.055 0.12,-0.671 0.011,-0.046 0.007,-0.079 0.007,-0.079 z"
           inkscape:connector-curvature="0"
           style="fill:#066c89" /><path
           id="path6959"
           d="m 588.239,142.814 c -0.125,-2.25 2.083,-1.625 2.083,-1.625 1.021,-1.292 -20.771,-0.577 -20.771,-0.577 0,0 -1.25,-6.11 -2.25,-11.834 -0.402,-2.3 -1.066,-3.404 -1.717,-3.915 -1.827,0.752 -1.317,1.827 -1.317,1.827 l 2.5,23.311 4.418,0.004 -0.884,-6.877 17.938,-0.314 z"
           inkscape:connector-curvature="0"
           style="fill:#83c2e0" /><g
           id="g6961"><path
             id="path6963"
             d="m 744.348,123.298 c 0,0 -2.005,2.12 -2.338,5.87 -0.292,3.287 -0.968,9.9 -1.131,11.485 l 6.513,1.199 0.035,-0.6 6,-0.5 c 0,0 0.515,-15.136 3.966,-15.526 l -13.045,-1.928 z"
             inkscape:connector-curvature="0"
             style="fill:#022d3d" /><path
             id="path6965"
             d="m 739.896,141.088 -1.803,0.164 -8.667,2.333 c 0,0 -1.25,1.583 2.5,2.042 3.75,0.458 15.167,1.375 15.167,1.375 l 0.259,-4.467 -7.456,-1.447 z"
             inkscape:connector-curvature="0"
             style="fill:#022d3d" /></g></g><g
         id="Meuble_1_"><rect
           id="rect6968"
           height="25.538"
           width="109.735"
           y="124.462"
           x="270.44101"
           style="fill:#3083a2" /><rect
           id="rect6970"
           height="4.7470002"
           width="114.015"
           y="122.426"
           x="268.91199"
           style="fill:#022d3d" /><rect
           id="rect6972"
           height="10.555"
           width="97.831001"
           y="139.476"
           x="612.49597"
           style="fill:#3083a2" /><rect
           id="rect6974"
           height="7.3379998"
           width="114.015"
           y="138.289"
           x="604.48999"
           style="fill:#3083a2" /><rect
           id="rect6976"
           height="1.404"
           width="114.015"
           y="144.05099"
           x="604.40503"
           style="fill:#022d3d" /><path
           id="path6978"
           d="M 653.33,138.289"
           inkscape:connector-curvature="0"
           style="fill:#81c1e0" /><path
           id="path6980"
           d="m 665.132,129.505 -4.194,1.143 c 0.053,-0.276 -0.031,-0.364 0.074,-0.751 0.05,-0.185 0.063,-0.481 0.06,-0.778 1.81,-3.69 4.102,-10.015 -1.639,-9.692 0.194,-0.169 0.459,-0.352 0.8,-0.461 0.471,-0.152 1.081,-0.893 1.478,-1.434 0.071,0.126 0.308,0.746 0.308,0.746 0,0 0.516,0.421 0.38,0.176 -0.136,-0.244 -0.176,-0.197 -0.448,-0.73 -0.056,-0.11 -0.109,-0.211 -0.159,-0.305 0.196,-0.274 0.324,-0.476 0.324,-0.476 -0.215,-0.055 -0.425,-0.076 -0.627,-0.073 -0.016,-0.027 -0.026,-0.045 -0.026,-0.045 l -0.828,-0.855 c 0,0 1.099,-1.031 1.181,-0.936 0.081,0.095 0.434,0.231 0.461,0.149 0.027,-0.082 -0.054,-0.434 -0.054,-0.434 0,0 -1.045,-0.733 -1.113,-0.719 -0.068,0.014 -0.923,0 -0.923,0 0,0 -0.054,-0.488 -0.434,-0.366 -0.38,0.122 -0.733,0.353 -0.733,0.353 l -0.638,-0.014 -0.339,0.285 c 0,0 -0.041,-0.624 0.258,-0.801 0.188,-0.111 0.215,-0.028 0.21,0.048 l 0.061,-0.306 0.109,-0.407 -0.393,0.421 -0.109,-0.231 c 0,0 -0.194,0.828 -0.233,0.882 -0.039,0.054 -0.391,-0.516 -0.391,-0.516 l -0.041,-1.33 c 0,0 -0.719,-2.253 -1.343,-2.348 -0.624,-0.095 -0.434,1.628 -0.176,2.538 0.258,0.909 0.597,1.764 0.597,1.764 0,0 -0.122,-0.299 -0.502,-0.19 -0.38,0.109 -0.556,0.38 -0.556,0.38 0,0 -0.583,0.041 -0.706,0.217 -0.122,0.176 0.014,0.733 0.217,0.882 0.204,0.149 0.665,0.326 0.543,0.556 0,0 -0.611,-0.068 -1.072,0.421 -0.461,0.489 -1.045,1.126 -1.045,1.126 0,0 2.063,-0.624 2.415,-0.312 0,0 -0.163,1.791 0.407,2.348 0.18,0.176 0.346,0.201 0.494,0.146 -0.292,0.188 -0.519,0.381 -0.584,0.543 -0.217,0.543 -0.353,0.841 -0.353,0.841 l 0.353,0.407 v 1.004 c -0.95,-0.923 -1.873,-1.303 -1.873,-1.303 v -0.543 l -0.299,-0.353 c 0,0 -0.244,1.031 -0.271,1.221 -0.027,0.19 0.271,0.543 0.271,0.543 v 0.76 c 0,0 -0.516,0.543 -0.923,0.577 -0.407,0.034 -0.353,0.889 -0.353,0.889 l -0.217,0.57 c 1.086,0.651 3.311,0.136 3.311,0.136 l -0.57,0.624 c 0,0 0.109,0.461 0.109,1.004 0,0.543 1.71,1.248 1.71,1.248 -0.19,-0.19 -0.407,-1.628 -0.407,-1.628 0.126,0.075 0.352,0.153 0.624,0.225 -0.013,0.08 -0.023,0.154 -0.037,0.236 -0.294,1.774 -0.372,3.344 -0.354,4.624 -0.135,0.029 -0.312,0.011 -0.544,-0.105 -0.552,-0.276 -0.826,0.331 -0.928,0.648 -2.275,-2.027 -6.531,-3.059 -7.893,-3.004 -1.979,0.081 -2.724,0.583 -2.724,0.583 4.722,-0.226 7.841,1.456 9.719,3.064 l -5.461,1.488 c 0,0 2.808,-0.369 6.153,-0.846 0.118,0.118 0.231,0.235 0.335,0.348 h -1.125 v 5.862 h 6.131 v -2.167 c 0.815,0.068 1.749,0.006 1.749,0.006 -0.065,-0.327 0.196,-2.189 0.196,-2.189 1.078,1.013 3.038,0.915 3.038,0.915 0,0 -0.947,-3.169 -1.437,-3.691 -0.49,-0.523 -1.339,0.196 -1.339,0.196 -0.555,-0.196 -0.915,0.457 -0.915,0.457 l -0.051,-0.012 c -0.042,-0.305 -0.136,-0.524 -0.245,-0.68 2.625,-0.427 4.633,-0.816 4.689,-1.013 0.163,-0.578 -1.14,-1.556 -1.14,-1.556 z m -2.711,-5.654 c -0.501,1.758 -1.053,3.196 -1.553,4.318 -0.44,0.165 -1.798,0.706 -2.634,1.365 0.237,-0.835 0.451,-1.866 0.638,-2.927 0.446,0.034 0.784,0.01 0.804,-0.11 0.035,-0.208 -0.296,-0.637 -0.62,-0.998 0.168,-1.069 0.306,-2.106 0.409,-2.944 0.635,-0.215 1.839,-0.943 1.839,-0.943 0,0 0,0 -0.38,-0.217 -0.176,-0.101 -0.741,-0.177 -1.298,-0.231 0.034,-0.309 0.051,-0.488 0.051,-0.488 -0.139,0.117 -0.265,0.275 -0.382,0.458 -0.515,-0.043 -0.949,-0.064 -0.949,-0.064 0.136,-0.116 0.188,-0.661 0.167,-1.091 l 0.554,-0.157 c 0,0 0.058,-0.087 0.171,-0.209 1.596,0.134 4.145,0.86 3.183,4.238 z m -4.381,-0.755 c 0.166,-0.103 0.388,-0.233 0.605,-0.332 -0.106,0.402 -0.197,0.835 -0.274,1.286 -0.101,-0.219 -0.24,-0.406 -0.36,-0.543 0.011,-0.136 0.02,-0.273 0.029,-0.411 z m 0.6,-5.372 c 0.326,-0.573 0.489,-0.967 0.76,-0.926 0.271,0.041 0.285,0.041 0.611,-0.081 0.326,-0.122 0.366,-0.204 0.543,0.027 0.071,0.093 0.206,0.157 0.346,0.21 -1.114,0.298 -1.951,1.313 -2.328,1.852 -0.128,0.009 -0.347,0.074 -0.606,0.175 -0.067,-0.357 -0.11,-0.687 -0.132,-0.987 0.03,-0.054 0.063,-0.097 0.102,-0.111 0.188,-0.067 0.378,0.414 0.704,-0.159 z m -1.154,1.096 c 0.03,-0.032 0.056,-0.075 0.08,-0.123 0.017,0.175 0.034,0.323 0.048,0.433 -0.216,0.098 -0.437,0.212 -0.64,0.331 0.227,-0.191 0.402,-0.523 0.512,-0.641 z m 0.593,7.686 c -0.106,1.345 -0.131,2.576 -0.135,3.284 -0.151,0.153 -0.271,0.309 -0.336,0.467 -0.069,0.169 -0.089,0.307 -0.08,0.424 -0.141,0.072 -0.22,0.173 -0.221,0.173 0.033,-2.08 0.34,-3.69 0.34,-3.69 0,0 0.035,-0.275 0.087,-0.724 0.113,0.024 0.228,0.046 0.345,0.066 z"
           inkscape:connector-curvature="0"
           style="fill:#3083a2" /><rect
           id="rect6982"
           height="1.724"
           width="114.015"
           y="125.45"
           x="268.91199"
           style="fill:#066c89" /><rect
           id="rect6984"
           height="22.846001"
           width="6.0679998"
           y="127.173"
           x="270.44101"
           style="fill:#066c89" /><rect
           id="rect6986"
           height="22.846001"
           width="6.0679998"
           y="127.173"
           x="374.108"
           style="fill:#066c89" /></g><g
         id="Objets_meuble-3"><polygon
           id="polygon6989"
           points="359.131,116.11 358.07,116.11 356.717,121.827 359.131,121.827 361.544,121.827 360.191,116.11 "
           style="fill:#3083a2" /><polygon
           id="polygon6991"
           points="359.131,121.827 356.717,121.827 355.669,122.448 359.131,122.448 362.593,122.448 361.544,121.827 "
           style="fill:#3083a2" /><path
           id="path6993"
           d="m 375.972,97.19 c -0.109,-0.941 -0.9,-1.674 -1.87,-1.674 h -30.935 c -0.97,0 -1.761,0.733 -1.87,1.674 h -0.022 v 20.008 c 0,1.045 0.847,1.892 1.892,1.892 h 30.935 c 1.045,0 1.892,-0.847 1.892,-1.892 V 97.19 h -0.022 z"
           inkscape:connector-curvature="0"
           style="fill:#3083a2" /><rect
           id="rect6995"
           height="18.479"
           width="31.155001"
           y="97.489998"
           x="343.19901"
           style="fill:#e6f5fe" /><circle
           id="circle6997"
           r="0.84399998"
           cy="117.506"
           cx="359.13101"
           sodipodi:cx="359.13101"
           sodipodi:cy="117.506"
           sodipodi:rx="0.84399998"
           sodipodi:ry="0.84399998"
           style="fill:#e6f5fe"
           d="m 359.97501,117.506 c 0,0.46613 -0.37787,0.844 -0.844,0.844 -0.46613,0 -0.844,-0.37787 -0.844,-0.844 0,-0.46613 0.37787,-0.844 0.844,-0.844 0.46613,0 0.844,0.37787 0.844,0.844 z" /><polygon
           id="polygon6999"
           points="370.945,115.968 362.593,97.49 374.354,97.49 374.354,115.968 "
           style="fill:#c7e1f1" /><path
           id="path7001"
           d="m 332.366,113.263 h -1.12 c 1.635,-1.709 0.447,-6.461 0.447,-6.461 l -10e-4,0.002 c -0.267,-1.277 -1.398,-2.236 -2.754,-2.236 -1.554,0 -2.815,1.26 -2.815,2.815 0,1.555 1.26,2.815 2.815,2.815 v 2.239 l -0.305,0.092 c 0.131,-0.899 -0.664,-1.388 -0.664,-1.388 l -2.284,-0.117 c 1.3,0.175 1.615,1.483 1.682,1.885 l -1.186,0.356 h -1.254 l -4.113,4.679 h -0.251 l -0.227,-0.375 h -1.206 l -0.326,0.357 -0.016,0.017 h -0.227 l -0.227,-0.375 h -1.206 l -0.326,0.357 -0.016,0.017 h -0.319 l -0.227,-0.375 h -1.206 l -0.326,0.357 -0.016,0.017 h -0.227 l -0.227,-0.375 h -1.206 l -0.326,0.357 -0.016,0.017 h -0.291 l -0.227,-0.375 h -1.206 l -0.326,0.357 -0.016,0.017 h -1.715 l -2.976,4.484 h 5.847 22.859 l -2.273,-9.16 z m -3.063,-3.103 c 1,-0.131 1.838,-0.775 2.222,-1.671 0.176,2.514 -0.792,3.954 -1.276,4.503 l -0.327,-0.853 -0.619,0.186 v -2.165 z"
           inkscape:connector-curvature="0"
           style="fill:#3083a2" /><path
           id="path7003"
           d="m 302.893,114.505 h -2.861 v -2.528 h -9.181 v 10.449 h 9.181 v -1.401 h 2.861 0.998 v -1.397 -3.726 -1.397 h -0.998 z m 0,5.123 h -2.861 v -3.726 h 2.861 v 3.726 z"
           inkscape:connector-curvature="0"
           style="fill:#3083a2" /></g><g
         id="Meuble_Ikea-4"><rect
           id="rect7006"
           height="80.320999"
           width="15.25"
           y="69.698997"
           x="961.05103"
           style="fill:#066c89" /><rect
           id="rect7008"
           height="80.320999"
           width="15.25"
           y="69.698997"
           x="989.63397"
           style="fill:#066c89" /><rect
           id="rect7010"
           height="80.320999"
           width="15.25"
           y="69.698997"
           x="1018.785"
           style="fill:#066c89" /><rect
           id="rect7012"
           height="75.019997"
           width="6.23"
           y="75"
           x="947.23401"
           style="fill:#83c2e0" /><rect
           id="rect7014"
           height="6.23"
           width="93.031998"
           y="69.698997"
           x="947.23401"
           style="fill:#83c2e0" /><rect
           id="rect7016"
           height="6.23"
           width="93.031998"
           y="97.698997"
           x="947.23401"
           style="fill:#83c2e0" /><rect
           id="rect7018"
           height="6.23"
           width="93.031998"
           y="124.293"
           x="947.23401"
           style="fill:#83c2e0" /><rect
           id="rect7020"
           height="75.019997"
           width="6.23"
           y="75"
           x="1034.035"
           style="fill:#83c2e0" /><rect
           id="rect7022"
           height="75.019997"
           width="6.23"
           y="75"
           x="976.30103"
           style="fill:#83c2e0" /><rect
           id="rect7024"
           height="75.019997"
           width="6.23"
           y="75"
           x="1004.884"
           style="fill:#83c2e0" /><rect
           id="rect7026"
           height="80.320999"
           width="15.25"
           y="69.698997"
           x="931.98401"
           style="fill:#066c89" /></g><g
         id="Casier2-7"><rect
           id="rect7029"
           height="44.351002"
           width="32.333"
           y="105.669"
           x="390.51001"
           style="fill:#83c2e0" /><rect
           id="rect7031"
           height="44.351002"
           width="9.1669998"
           y="105.669"
           x="389.51001"
           style="fill:#066c89" /><rect
           id="rect7033"
           height="0.60500002"
           width="18.5"
           y="124.15"
           x="402.17599"
           style="fill:#066c89" /><rect
           id="rect7035"
           height="0.60500002"
           width="18.5"
           y="139.877"
           x="402.17599"
           style="fill:#066c89" /><rect
           id="rect7037"
           height="1.24"
           width="5.25"
           y="116.042"
           x="408.80099"
           style="fill:#c7e1f1" /><rect
           id="rect7039"
           height="1.24"
           width="5.25"
           y="134.209"
           x="408.80099"
           style="fill:#c7e1f1" /><rect
           id="rect7041"
           height="1.24"
           width="5.25"
           y="148.75999"
           x="408.80099"
           style="fill:#c7e1f1" /></g><g
         id="Machine_à_café-4"><path
           id="path7044"
           d="m 470.199,117.74 v 0.989 2.636 0.989 h 0.706 2.024 v 0.991 h 6.497 v -7.394 h -6.497 v 1.789 h -2.024 -0.706 z m 0.706,0.989 h 2.024 v 2.636 h -2.024 v -2.636 z"
           inkscape:connector-curvature="0"
           style="fill:#3083a2" /><rect
           id="rect7046"
           height="24.4"
           width="45.400002"
           y="125.6"
           x="437.914"
           style="fill:#3083a2" /><rect
           id="rect7048"
           height="24.4"
           width="3.0999999"
           y="125.6"
           x="437.914"
           style="fill:#066c89" /><path
           id="path7050"
           d="m 461.13,108.886 -1,-0.517 -0.552,0.207 h -1.341 l -0.153,-0.207 c 0,0 -1.233,-0.336 -2.732,-0.331 l 0.17,-0.489 c 2.066,-0.1 2.941,-0.456 2.941,-0.456 v -1.207 c 0,0 3.345,-5.518 2.862,-11.587 0,0 -0.31,-1.104 -9.863,-0.966 0,0 -1.138,-0.586 -3.931,-0.586 -2.793,0 -6.518,0.69 -6.518,1.241 V 123.3 l 0.897,1.31 h 5.587 c 0,0 1.31,0.989 7.357,0.989 6.046,0 7.495,-1.931 7.495,-1.931 l -0.345,-3.609 c -7.633,1.793 -14.507,0 -14.507,0 v -13.725 h 3.242 v 0.828 c 0,0 0.728,0.349 3.093,0.403 l 0.095,0.543 c -1.212,0.097 -2.693,0.286 -3.343,0.574 l -0.002,-0.003 c 0,0 -2.625,0.782 -2.625,7.587 l 0,0 v 2.971 c 0.626,0.24 2.831,0.983 6.184,0.983 4,0 6.027,-0.825 6.027,-0.825 0,0 0.024,-0.058 0.059,-0.143 l 2.121,0.416 c 0,0 3.368,-3.127 3.368,-5.782 10e-4,-2.655 -1.448,-4.793 -4.586,-5 z m -12.602,7.38 c -0.048,-1.504 0.007,-5.68 1.922,-7.023 0.942,0.664 4.614,1.253 8.029,0.15 0.233,0.201 0.436,0.446 0.612,0.726 l 0.14,0.242 c 0.981,1.811 1.009,4.706 0.971,5.905 h -11.674 z m 13.821,2.174 -1.813,-0.379 0.238,-1.545 c 0.002,-0.028 0.012,-0.236 0,-0.25 0,-2.268 -0.294,-3.856 -0.683,-4.98 0.431,-0.247 1.391,-0.652 2.372,-0.089 1.323,0.758 2.472,2.967 -0.114,7.243 z"
           inkscape:connector-curvature="0"
           style="fill:#3083a2" /><polygon
           id="polygon7052"
           points="441.014,123.301 441.014,93.614 442.011,93.442 441.911,123.319 "
           style="fill:#066c89" /><rect
           id="rect7054"
           height="2.6110001"
           width="51.428001"
           transform="matrix(1,-0.0027,0.0027,1,-0.3356,1.2483)"
           y="123.312"
           x="435.371"
           style="fill:#022d3d" /></g><g
         id="Étagère-5-9"
         transform="translate(970.15723,-0.59750871)"><polygon
           id="polygon6818-4"
           points="86.646,150.02 94.001,150.02 94.576,46.86 82.14,49.897 "
           style="fill:#066c89" /><polygon
           id="polygon6820-6"
           points="164.689,150.02 171.434,150.02 176.338,49.913 181.915,49.897 183.743,38.566 82.14,38.096 85.338,50.18 90.163,50.166 93.86,150.02 101.169,150.02 101.169,149.997 164.689,149.997 "
           style="fill:#83c2e0" /><polygon
           id="polygon6822-5"
           points="76.004,51.589 85.338,50.18 82.14,38.096 73.874,41.639 "
           style="fill:#066c89" /><polygon
           id="polygon6824-4"
           points="102.644,150.268 99.96,53.19 168.176,53.783 162.638,150.268 "
           style="fill:#3083a2" /><rect
           id="rect6826-7"
           height="8.776"
           width="19.73"
           y="109.221"
           x="140.787"
           style="fill:#83c2e0" /><rect
           id="rect6828-6"
           height="16.361"
           width="6.6989999"
           y="133.97"
           x="106.057"
           style="fill:#83c2e0" /><polygon
           id="polygon6830-2"
           points="113.274,137.377 113.274,150.331 123.585,150.331 123.585,137.377 118.658,137.377 118.658,150.32 118.14,150.32 118.14,137.377 "
           style="fill:#83c2e0" /><rect
           id="rect6832-8"
           height="15.467"
           width="3.6630001"
           y="79.903"
           x="138.905"
           style="fill:#83c2e0" /><rect
           id="rect6834-0"
           height="11.947"
           width="1.283"
           y="83.422997"
           x="143.45799"
           style="fill:#83c2e0" /><rect
           id="rect6836-3"
           height="12.62"
           width="2.2149999"
           y="82.75"
           x="146.181"
           style="fill:#83c2e0" /><rect
           id="rect6838-2"
           height="12.62"
           width="2.2149999"
           transform="matrix(-0.9675,-0.253,0.253,-0.9675,245.8791,209.1835)"
           y="82.473999"
           x="135.28101"
           style="fill:#83c2e0" /><rect
           id="rect6840-0"
           height="13.553"
           width="2.572"
           y="81.817001"
           x="149.27"
           style="fill:#83c2e0" /><rect
           id="rect6842-0"
           height="13.553"
           width="3.6849999"
           y="81.817001"
           x="155.457"
           style="fill:#83c2e0" /><rect
           id="rect6844-5"
           height="11.412"
           width="2.4059999"
           y="83.958"
           x="159.70599"
           style="fill:#83c2e0" /><rect
           id="rect6846-9"
           height="13.88"
           width="0.93199998"
           y="81.489998"
           x="152.67"
           style="fill:#83c2e0" /><rect
           id="rect6848-7"
           height="12.413"
           width="0.46599999"
           y="82.957001"
           x="154.34399"
           style="fill:#83c2e0" /><rect
           id="rect6850-4"
           height="16.986"
           width="2.2609999"
           y="78.384003"
           x="100.384"
           style="fill:#83c2e0" /><rect
           id="rect6852-6"
           height="11.947"
           width="1.283"
           y="83.422997"
           x="116.484"
           style="fill:#83c2e0" /><rect
           id="rect6854-0"
           height="12.62"
           width="2.2149999"
           y="82.75"
           x="113.352"
           style="fill:#83c2e0" /><rect
           id="rect6856-3"
           height="18.025"
           width="2.2149999"
           y="55.830002"
           x="102.904"
           style="fill:#83c2e0" /><rect
           id="rect6858-6"
           height="20.666"
           width="2.2149999"
           y="53.189999"
           x="99.959999"
           style="fill:#83c2e0" /><rect
           id="rect6860-8"
           height="13.553"
           width="2.572"
           y="81.817001"
           x="103.486"
           style="fill:#83c2e0" /><rect
           id="rect6862-9"
           height="13.553"
           width="2.572"
           y="81.817001"
           x="120.022"
           style="fill:#83c2e0" /><rect
           id="rect6864-1"
           height="13.553"
           width="3.6849999"
           y="81.817001"
           x="108.992"
           style="fill:#83c2e0" /><rect
           id="rect6866-3"
           height="16.037001"
           width="3.661"
           transform="matrix(-0.996,0.089,-0.089,-0.996,259.4276,162.8741)"
           y="79.202003"
           x="124.252"
           style="fill:#83c2e0" /><rect
           id="rect6868-8"
           height="20.204"
           width="3.6849999"
           y="53.783001"
           x="106.404"
           style="fill:#83c2e0" /><rect
           id="rect6870-6"
           height="13.88"
           width="0.93199998"
           y="81.489998"
           x="106.788"
           style="fill:#83c2e0" /><rect
           id="rect6872-9"
           height="12.413"
           width="0.46599999"
           y="82.957001"
           x="118.611"
           style="fill:#83c2e0" /><rect
           id="rect6874-5"
           height="19.402"
           width="4.1919999"
           transform="matrix(-0.995,0.1003,-0.1003,-0.995,234.3986,116.4697)"
           y="54.424999"
           x="112.176"
           style="fill:#83c2e0" /><rect
           id="rect6876-2"
           height="18.025"
           width="3.4530001"
           y="99.839996"
           x="106.432"
           style="fill:#83c2e0" /><rect
           id="rect6878-9"
           height="12.337"
           width="3.4530001"
           y="105.528"
           x="120.582"
           style="fill:#83c2e0" /><rect
           id="rect6880-1"
           height="19.072001"
           width="1.752"
           y="98.793999"
           x="103.951"
           style="fill:#83c2e0" /><rect
           id="rect6882-0"
           height="17.9"
           width="1.796"
           transform="matrix(-0.9975,-0.0712,0.0712,-0.9975,216.3097,225.3746)"
           y="99.880997"
           x="111.275"
           style="fill:#83c2e0" /><polygon
           id="polygon6884-4"
           points="116.232,117.997 119.793,117.533 118.381,98.684 114.821,99.148 "
           style="fill:#83c2e0" /><rect
           id="rect6886-5"
           height="19.402"
           width="7.7030001"
           y="54.585999"
           x="132.123"
           style="fill:#83c2e0" /><rect
           id="rect6888-8"
           height="19.402"
           width="2.6400001"
           y="54.585999"
           x="140.343"
           style="fill:#83c2e0" /><rect
           id="rect6890-2"
           height="16.111"
           width="4.342"
           y="57.876999"
           x="153.136"
           style="fill:#83c2e0" /><rect
           id="rect6892-9"
           height="19.402"
           width="4.6420002"
           y="54.585999"
           x="157.996"
           style="fill:#83c2e0" /><path
           id="path6894-8"
           d="m 155.552,129.818 v 20.448 h -0.518 v -20.448 h -4.711 v 20.448 h -0.518 v -20.448 h -4.506 v 20.448 h -0.518 v -20.448 h -7.321 v 20.45 h 23.02 v -20.45 h -4.928 z m -13.122,4.072 c -0.637,0 -1.154,-0.517 -1.154,-1.154 0,-0.637 0.517,-1.154 1.154,-1.154 0.637,0 1.154,0.517 1.154,1.154 0,0.637 -0.517,1.154 -1.154,1.154 z m 4.894,0 c -0.637,0 -1.154,-0.517 -1.154,-1.154 0,-0.637 0.517,-1.154 1.154,-1.154 0.637,0 1.154,0.517 1.154,1.154 0,0.637 -0.516,1.154 -1.154,1.154 z m 5.445,0 c -0.637,0 -1.154,-0.517 -1.154,-1.154 0,-0.637 0.517,-1.154 1.154,-1.154 0.637,0 1.154,0.517 1.154,1.154 0,0.637 -0.517,1.154 -1.154,1.154 z m 5.093,0.08 c -0.637,0 -1.154,-0.517 -1.154,-1.154 0,-0.637 0.517,-1.154 1.154,-1.154 0.637,0 1.154,0.517 1.154,1.154 0,0.637 -0.517,1.154 -1.154,1.154 z"
           inkscape:connector-curvature="0"
           style="fill:#83c2e0" /><polygon
           id="polygon6896-4"
           points="117.98,73.988 118.045,73.988 127.516,73.988 132.718,55.296 129.198,54.317 122.635,56.452 "
           style="fill:#83c2e0" /><rect
           id="rect6898-3"
           height="1.786"
           width="22.839001"
           y="108.531"
           x="139.093"
           style="fill:#83c2e0" /><polygon
           id="polygon6900-2"
           points="99.96,73.988 100.006,76.309 165.878,76.309 165.923,73.988 "
           style="fill:#022d3d" /><polygon
           id="polygon6902-5"
           points="100.384,95.37 100.43,97.692 165.465,97.692 165.51,95.37 "
           style="fill:#022d3d" /><polygon
           id="polygon6904-3"
           points="100.832,117.997 100.878,120.319 165.028,120.319 165.073,117.997 "
           style="fill:#022d3d" /></g></g></g></svg>