<?xml version="1.0" encoding="utf-8"?>
<!-- Generator: Adobe Illustrator 16.0.0, SVG Export Plug-In . SVG Version: 6.00 Build 0)  -->
<!DOCTYPE svg PUBLIC "-//W3C//DTD SVG 1.1//EN" "http://www.w3.org/Graphics/SVG/1.1/DTD/svg11.dtd">
<svg version="1.1" id="Calque_1" xmlns="http://www.w3.org/2000/svg" xmlns:xlink="http://www.w3.org/1999/xlink" x="0px" y="0px"
	 width="141.732px" height="141.732px" viewBox="0 0 141.732 141.732" enable-background="new 0 0 141.732 141.732"
	 xml:space="preserve">
<g>
	<path fill="#009FE3" d="M70.865,0C31.727,0,0,31.729,0,70.865c0,15.279,4.851,29.416,13.074,40.988
		c9.71,13.666,24.134,23.738,40.91,27.838c5.412,1.324,11.062,2.041,16.881,2.041c39.139,0,70.867-31.729,70.867-70.867
		C141.732,31.729,110.004,0,70.865,0z"/>
	<polygon fill="#00405B" points="16.68,55.563 23.055,43.47 25.68,113.031 18.742,124.281 	"/>
	<path fill="#3363AC" d="M25.68,113.031l-6.938,11.25c25.03,14.906,97.029,16.779,97.029,16.779l9.281-11.531
		C76.21,112.563,25.68,113.031,25.68,113.031z"/>
	<path fill="#3363AC" d="M79.644,14.132c-13.162-9-27.787-7.649-35.212-0.899c-5.868,5.334-4.248,24.302-3.31,32.021
		c0.406,0.068,0.808,0.133,1.205,0.188c-0.009-0.051-3.798-23.822,2.384-29.441c6.187-5.625,18.375-6.75,29.343,0.75
		c10.969,7.499,16.18,8.614,18.824,38.525c2.092,1.206,4.735,2.361,8.752,3.465l0.464,0.09
		C98.878,24.431,92.615,23.002,79.644,14.132z"/>
	<path fill="#7DC9CA" d="M103.043,59.016c-2.791-29.359-4.146-36.078-20.083-48.64c-15.938-12.563-43.499-13.313-51.374,0
		S27.65,43.088,27.65,43.088c1.989,0.041,4.615,0.298,7.873,1.038c2.03,0.462,3.864,0.841,5.599,1.128
		c-0.938-7.72-2.559-26.688,3.31-32.021c7.425-6.75,22.05-8.101,35.212,0.899c12.972,8.87,19.234,10.299,22.45,44.699
		L103.043,59.016L103.043,59.016z"/>
	<path fill="#7DC9CA" d="M116.147,61.563l-13.104-2.547l-1.413-0.274c-4.017-1.104-6.66-2.259-8.752-3.465
		c-3.013-1.737-4.88-3.578-8.043-5.526c-7.313-4.499-20.244-6.912-28.12-5.036c-5.481,1.304-9.605,1.415-14.388,0.729
		c-2.087-0.298-4.298-0.747-6.804-1.316c-3.258-0.74-5.884-0.997-7.873-1.038c-3.049-0.063-4.596,0.382-4.596,0.382l2.625,69.562
		c0,0,50.53-0.469,99.373,16.498L116.147,61.563z"/>
	<path fill="#3363AC" d="M78.062,57.177c-0.887-2.437-2.946-3.923-4.6-3.32c-0.08,0.028-0.147,0.082-0.222,0.12
		c1.11,0.484,2.155,1.645,2.721,3.2c0.844,2.317,0.311,4.64-1.167,5.38c0.629,0.274,1.279,0.337,1.878,0.12
		C78.326,62.074,78.947,59.611,78.062,57.177z"/>
	<path fill="#00405B" d="M75.961,57.177c-0.565-1.556-1.61-2.716-2.721-3.2c-1.479,0.74-2.012,3.062-1.168,5.38
		c0.565,1.555,1.609,2.715,2.722,3.2C76.271,61.816,76.805,59.494,75.961,57.177z"/>
</g>
</svg>
