<?xml version="1.0" encoding="UTF-8" standalone="no"?>
<!-- Created with Inkscape (http://www.inkscape.org/) -->

<svg
   xmlns:dc="http://purl.org/dc/elements/1.1/"
   xmlns:cc="http://creativecommons.org/ns#"
   xmlns:rdf="http://www.w3.org/1999/02/22-rdf-syntax-ns#"
   xmlns:svg="http://www.w3.org/2000/svg"
   xmlns="http://www.w3.org/2000/svg"
   xmlns:sodipodi="http://sodipodi.sourceforge.net/DTD/sodipodi-0.dtd"
   xmlns:inkscape="http://www.inkscape.org/namespaces/inkscape"
   width="40"
   height="40"
   id="svg6053"
   version="1.1"
   inkscape:version="0.48.4 r9939"
   sodipodi:docname="logo.svg">
  <defs
     id="defs6055" />
  <sodipodi:namedview
     id="base"
     pagecolor="#ffffff"
     bordercolor="#666666"
     borderopacity="1.0"
     inkscape:pageopacity="0.0"
     inkscape:pageshadow="2"
     inkscape:zoom="3.959798"
     inkscape:cx="22.765503"
     inkscape:cy="22.109141"
     inkscape:document-units="px"
     inkscape:current-layer="layer1"
     showgrid="false"
     inkscape:window-width="1280"
     inkscape:window-height="748"
     inkscape:window-x="0"
     inkscape:window-y="0"
     inkscape:window-maximized="1" />
  <metadata
     id="metadata6058">
    <rdf:RDF>
      <cc:Work
         rdf:about="">
        <dc:format>image/svg+xml</dc:format>
        <dc:type
           rdf:resource="http://purl.org/dc/dcmitype/StillImage" />
        <dc:title />
      </cc:Work>
    </rdf:RDF>
  </metadata>
  <g
     inkscape:label="Layer 1"
     inkscape:groupmode="layer"
     id="layer1"
     transform="translate(0,-1012.3622)">
    <g
       id="g4992"
       transform="matrix(0.33702691,0,0,0.33702691,3.0131928,685.79702)">
      <path
         id="path3"
         d="m 83.492008,1020.3533 c 0,-7.722 2.89,-14.766 7.642,-20.121 -1.511,-1.94395 -3.171,-3.76295 -4.938,-5.47195 -2.044,0.944 -4.312,1.485 -6.711,1.485 -8.271,0 -15.076,-6.26 -15.946,-14.3 -4.241,-1.125 -8.687,-1.744 -13.282,-1.744 -4.595,0 -9.042,0.619 -13.282,1.744 -0.87,8.04 -7.675,14.3 -15.946,14.3 -2.399,0 -4.667,-0.541 -6.71,-1.485 -1.746,1.688 -3.387,3.484 -4.8829996,5.40195 4.7879996,5.363 7.7029996,12.436 7.7029996,20.191 0,11.7 -6.628,21.846 -16.32999979,26.907 6.52700019,21.109 26.19599979,36.445 49.44899979,36.445 23.272,0 42.953,-15.362 49.464013,-36.497 -9.649013,-5.078 -16.230013,-15.195 -16.230013,-26.855 z"
         inkscape:connector-curvature="0"
         style="fill:#bad2e1" />
      <path
         id="path5"
         d="m 19.776008,996.25235 c 0,0 -16.4549996,-10.304 -18.2799998,-8.574 -1.82499999,1.73 -1.43299999,9.185 0.416,16.01595 1.8490002,6.831 4.7260002,11.944 17.2139998,9.848 12.489,-2.097 0.65,-17.28995 0.65,-17.28995 z"
         inkscape:connector-curvature="0"
         style="fill:#bad2e1" />
      <path
         id="path7"
         d="m 80.888008,996.25235 c 0,0 16.455013,-10.304 18.280013,-8.574 1.824999,1.73 1.431999,9.185 -0.416,16.01595 -1.849,6.831 -4.726,11.944 -17.214013,9.848 -12.488,-2.096 -0.65,-17.28995 -0.65,-17.28995 z"
         inkscape:connector-curvature="0"
         style="fill:#bad2e1" />
      <circle
         d="m 329.06499,65.609001 c 0,18.930665 -15.34633,34.277001 -34.277,34.277001 -18.93066,0 -34.277,-15.346336 -34.277,-34.277001 0,-18.930664 15.34634,-34.277 34.277,-34.277 18.93067,0 34.277,15.346336 34.277,34.277 z"
         id="circle19"
         r="34.277"
         cy="65.609001"
         cx="294.78799"
         transform="translate(-244.53099,941.95735)"
         sodipodi:cx="294.78799"
         sodipodi:cy="65.609001"
         sodipodi:rx="34.277"
         sodipodi:ry="34.277"
         style="fill:#bad2e1" />
      <path
         id="path21-5"
         d="m 101.86502,1050.1093 c 8.411,-11.728 4.393,-18.42 4.393,-18.42 l -0.001,0 c -1.58,-3.435 -5.05,-5.821 -9.078999,-5.821 -4.887013,0 -8.951013,3.509 -9.818013,8.145 0.76,-3.336 3.772,-5.828 7.374013,-5.828 4.176,0 7.560999,3.349 7.560999,7.48 0,2.495 -1.239,4.701 -3.136999,6.06 -0.668,0.453 -1.319,0.773 -1.923,0.996 -0.148,0.051 -0.296,0.102 -0.448,0.145 l 0.003,0.01 c -1.723,0.529 -2.97,0.295 -2.97,0.295 -2.455013,-0.16 -4.649013,-1.769 -7.114013,-3.579 -2.047,-1.503 -3.151,-2.708 -4.179,-3.697 -1.972,-1.897 -8.218,-7.905 -16.074,-8.198 -1.227,-0.046 -5.929,-0.152 -10.288,3.054 -0.702,0.516 -4.687,3.56 -5.91,8.456 -1.224,-4.896 -5.209,-7.939 -5.91,-8.456 -4.358,-3.206 -9.061,-3.1 -10.288,-3.054 -7.856,0.293 -14.102,6.301 -16.074,8.198 -1.028,0.989 -2.132,2.194 -4.179,3.697 -2.464,1.81 -4.6579996,3.418 -7.1139996,3.579 0,0 -1.246,0.234 -2.97,-0.295 l 0.003,-0.01 c -0.152,-0.042 -0.3,-0.093 -0.4480002,-0.145 -0.604,-0.223 -1.255,-0.544 -1.923,-0.996 -1.89799999,-1.359 -3.137,-3.564 -3.137,-6.06 0,-4.131 3.385,-7.48 7.5610002,-7.48 3.602,0 6.6139996,2.492 7.3739996,5.828 -0.866,-4.635 -4.9309996,-8.145 -9.8179996,-8.145 -4.02900019,0 -7.4980002,2.386 -9.0790002,5.821 l -0.001,0 c 0,0 -4.016,6.689 4.388,18.412 0.013,0.018 0.025,0.036 0.038,0.054 0.147,0.204 0.296,0.409 0.45000001,0.616 0.086,0.115 0.173,0.227 0.259,0.34 0.002,0 0.004,0.01 0.006,0.01 9.03400019,11.785 21.78299979,11.623 21.78299979,11.623 l -0.01,-0.01 c 0.679,0.046 1.362,0.076 2.053,0.076 11.865,0 22.125,-6.863 27.035,-16.834 4.91,9.971 15.169,16.834 27.035,16.834 0.691,0 1.374,-0.03 2.053,-0.076 l -0.01,0.01 c 0,0 13,0.167 22.047012,-11.971 0.156,-0.209 0.307,-0.416 0.455,-0.622 0.012,-0.013 0.022,-0.027 0.031,-0.04 z"
         inkscape:connector-curvature="0"
         style="fill:#5792a7" />
    </g>
  </g>
</svg>
