<?xml version="1.0" encoding="utf-8"?>
<!-- Generator: Adobe Illustrator 16.0.0, SVG Export Plug-In . SVG Version: 6.00 Build 0)  -->
<!DOCTYPE svg PUBLIC "-//W3C//DTD SVG 1.1//EN" "http://www.w3.org/Graphics/SVG/1.1/DTD/svg11.dtd">
<svg version="1.1" id="Calque_1" xmlns="http://www.w3.org/2000/svg" xmlns:xlink="http://www.w3.org/1999/xlink" x="0px" y="0px"
	 width="1133.858px" height="1206.811px" viewBox="0 0 1133.858 1206.811" enable-background="new 0 0 1133.858 1206.811"
	 xml:space="preserve">
<circle fill="#0081C3" cx="566.929" cy="639.881" r="566.929"/>
<path opacity="0.15" fill="#FFFFFF" d="M1133.858,639.881c0-209.842-114.011-393.05-283.464-491.076
	C680.941,246.831,566.93,430.04,566.93,639.881c0,209.843,114.012,393.052,283.465,491.077
	C1019.848,1032.933,1133.858,849.724,1133.858,639.881z"/>
<path opacity="0.15" fill="#FFFFFF" d="M566.931,1206.811c209.843,0,393.051-114.011,491.076-283.463
	c-98.025-169.454-281.233-283.465-491.076-283.466c-209.843,0-393.052,114.012-491.077,283.465
	C173.879,1092.8,357.088,1206.811,566.931,1206.811z"/>
<path fill="#996B45" d="M698.921,89.995c-76.496-23.999-143.993-31.499-281.985,40.498C278.941,202.49,355.828-39.881,524.93,7.5
	c0,0-80.994-29.998-152.991,30c-50.766,42.305-73.931,99.522-47.427,145.891c11.084,19.392,30.849,36.888,60.926,50.6
	c0,0,20.948,30.886,106.67-41.114c85.721-72,103.721-102.77,267.721-14.385C759.828,178.491,775.417,113.994,698.921,89.995z"/>
<path fill="#996B45" d="M759.828,178.491c0,0-32.41,76.497,47.087,334.483C806.915,512.974,885.232,275.986,759.828,178.491z"/>
<path fill="#FEEDBB" d="M954.388,565.92c-5.288,12.994-11.331,20.751-11.331,20.751c-26.771-118.204-101.417-87.849-83.229-35.796
	s-30.412,71.592-30.412,71.592c-23.161-22.469-25.116-77.006-12.512-123.367c-3.416,4.194-6.754,8.806-9.989,13.874
	c-79.497-257.986-47.087-334.483-47.087-334.483c-164-88.385-182-57.615-267.721,14.385c-85.722,72-106.67,41.114-106.67,41.114
	s-19.22,27.278-15.609,66.886c-216.599,368.377,0,448,0,448s102.604,85.055,261.596,22.058c0,0-29.996,94.494-65.994,118.493
	s-212.104-30.388-265.795-103.689l0,0c-81.102,50.821-194.709,153.121-122.688,300.207
	c106.494,217.489,499.475,35.999,575.971-35.998c76.497-71.997,124.494-146.993,64.497-358.482c0,0,37.498,62.997,82.496,22.499
	C937.686,679.965,963.825,625.886,954.388,565.92z"/>
<path fill="#996B45" d="M503.932,317.979c0,0,137.896,32.23,239.988-95.995C743.92,221.984,632.49,380.831,503.932,317.979z"/>
<circle fill="#010202" cx="566.93" cy="391.474" r="18.426"/>
<path fill="#FDE1B6" d="M251.943,982.449c0,0,77.997,5.999,34.499,73.496S280.442,1001.948,251.943,982.449z"/>
<path fill="#FDE1B6" d="M412.436,511.473c0,0,83.996,22.499,79.496,107.994c-4.5,85.496,6.279,129.408-122.104,129.408
	C369.828,748.875,532.43,686.964,412.436,511.473z"/>
<path fill="#996B45" d="M369.828,300.875c0,0,42.607,6.029,53.107,31.817C422.936,332.693,418.717,282.268,369.828,300.875z"/>
<path fill="#F8BD9C" d="M565.43,889.426c35.998-23.999,65.994-118.493,65.994-118.493
	c-212.403,104.058-261.596-22.058-261.596-22.058s-31.374,12.535-70.193,36.861l0,0C353.325,859.039,529.432,913.425,565.43,889.426
	z"/>
<path fill="none" d="M369.828,748.875c-168,44-288-14-230-228s230-220,230-220s-91.217-47.094-244.793,158.396
	c-133.274,178.322-96.46,342.15,128.708,318.405c66.937-13.786,107.645-26.16,114.895-28.426
	C369.039,749.125,369.423,749.002,369.828,748.875z"/>
<path fill="#FDE1B6" d="M369.828,300.875c0,0-172,6-230,220s62,272,230,228C369.828,748.875,153.229,669.252,369.828,300.875z"/>
<path fill="#FFFFFF" d="M369.828,748.875c0,0,49.192,126.115,261.596,22.058C472.432,833.93,369.828,748.875,369.828,748.875z"/>
<path fill="none" d="M369.828,748.875c-0.405,0.127-0.789,0.25-1.19,0.376C369.414,749.008,369.828,748.875,369.828,748.875z"/>
<path fill="#FEEDBB" d="M954.388,565.92c-1.805-11.467-4.903-23.148-9.479-34.947c-26.45-68.213-83.906-86.021-128.005-31.873
	c-12.604,46.361-10.649,100.898,12.512,123.367c0,0,29.998-49.498-6-70.497s40.499-89.997,80.996-55.497
	c21.528,18.341,37.547,53.213,38.59,89.969c0.018,0.078,0.037,0.151,0.055,0.229C943.057,586.671,949.1,578.915,954.388,565.92z"/>
<path fill="#FDE1B6" d="M859.828,550.875c18.188,52.053-30.412,71.592-30.412,71.592c98.995-1.5,13.499,109.494,74.996,55.497
	c28.805-25.292,39.51-59.139,38.59-91.522C916.186,468.512,841.651,498.857,859.828,550.875z"/>
<path fill="#FDCCAD" d="M904.412,496.473c-40.497-34.5-116.994,34.498-80.996,55.497s6,70.497,6,70.497s48.601-19.539,30.412-71.592
	c-18.177-52.019,56.357-82.363,83.174,35.566C941.959,549.686,925.94,514.814,904.412,496.473z"/>
<path opacity="0.25" fill="#FFFFFF" d="M537.285,120.288c-55.357,30.038-131.563,55.922-212.773,63.102
	c11.084,19.392,30.849,36.888,60.926,50.6c0,0,20.948,30.886,106.67-41.114c85.721-72,103.721-102.77,267.721-14.385
	C759.828,178.491,674.743,45.7,537.285,120.288z"/>
<circle fill="#FFFFFF" cx="572.93" cy="397.474" r="5.099"/>
</svg>
