<?xml version="1.0" encoding="UTF-8" standalone="no"?>
<!-- Created with Inkscape (http://www.inkscape.org/) -->

<svg
   xmlns:dc="http://purl.org/dc/elements/1.1/"
   xmlns:cc="http://creativecommons.org/ns#"
   xmlns:rdf="http://www.w3.org/1999/02/22-rdf-syntax-ns#"
   xmlns:svg="http://www.w3.org/2000/svg"
   xmlns="http://www.w3.org/2000/svg"
   xmlns:sodipodi="http://sodipodi.sourceforge.net/DTD/sodipodi-0.dtd"
   xmlns:inkscape="http://www.inkscape.org/namespaces/inkscape"
   width="31"
   height="31"
   id="svg6053"
   version="1.1"
   inkscape:version="0.48.4 r9939"
   sodipodi:docname="logo.svg">
  <defs
     id="defs6055" />
  <sodipodi:namedview
     id="base"
     pagecolor="#ffffff"
     bordercolor="#666666"
     borderopacity="1.0"
     inkscape:pageopacity="0.0"
     inkscape:pageshadow="2"
     inkscape:zoom="15.839192"
     inkscape:cx="16.492622"
     inkscape:cy="15.133182"
     inkscape:document-units="px"
     inkscape:current-layer="layer1"
     showgrid="false"
     inkscape:window-width="1280"
     inkscape:window-height="748"
     inkscape:window-x="0"
     inkscape:window-y="0"
     inkscape:window-maximized="1" />
  <metadata
     id="metadata6058">
    <rdf:RDF>
      <cc:Work
         rdf:about="">
        <dc:format>image/svg+xml</dc:format>
        <dc:type
           rdf:resource="http://purl.org/dc/dcmitype/StillImage" />
        <dc:title />
      </cc:Work>
    </rdf:RDF>
  </metadata>
  <g
     inkscape:label="Layer 1"
     inkscape:groupmode="layer"
     id="layer1"
     transform="translate(0,-1021.3622)">
    <path
       style="fill:#bad2e1"
       d="M 15.59375 0.53125 C 11.622035 0.53125 8.2441603 3.0297422 6.90625 6.53125 C 5.9643871 5.9548998 2.7692197 4.0341148 2.34375 4.4375 C 1.8480184 4.9074 1.9664993 6.957 2.46875 8.8125 C 2.9320628 10.524241 3.637559 11.784609 6.40625 11.53125 C 6.4208475 11.596701 6.4557215 11.652722 6.46875 11.71875 C 6.4727588 11.739066 6.4648911 11.76088 6.46875 11.78125 C 6.563304 12.280361 6.59375 12.817125 6.59375 13.34375 C 6.59375 16.52185 4.7916402 19.2503 2.15625 20.625 C 3.9292033 26.3589 9.2774509 30.53125 15.59375 30.53125 C 21.915209 30.53125 27.262639 26.366 29.03125 20.625 C 26.410253 19.2456 24.625 16.51095 24.625 13.34375 C 24.625 12.728392 24.684429 12.10797 24.8125 11.53125 C 27.581194 11.784609 28.317938 10.524241 28.78125 8.8125 C 29.283229 6.957 29.370731 4.9074 28.875 4.4375 C 28.44953 4.0341148 25.254364 5.9548998 24.3125 6.53125 C 22.975482 3.027961 19.566745 0.53125 15.59375 0.53125 z "
       transform="translate(0,1021.3622)"
       id="path3" />
    <path
       style="fill:#5792a7"
       inkscape:connector-curvature="0"
       d="m 29.613225,1042.7735 c 2.284711,-3.1857 1.193287,-5.0035 1.193287,-5.0035 l -2.72e-4,0 c -0.429181,-0.933 -1.37175,-1.5812 -2.466162,-1.5812 -1.327478,0 -2.431397,0.9532 -2.666904,2.2125 0.206442,-0.9062 1.024603,-1.5831 2.003031,-1.5831 1.134342,0 2.053822,0.9097 2.053822,2.0318 0,0.6778 -0.336554,1.277 -0.852114,1.6461 -0.181452,0.1231 -0.358285,0.21 -0.522352,0.2706 -0.0402,0.014 -0.0804,0.028 -0.121692,0.039 l 8.15e-4,0 c -0.468025,0.1437 -0.806752,0.08 -0.806752,0.08 -0.666865,-0.043 -1.262829,-0.4805 -1.932406,-0.9722 -0.556034,-0.4082 -0.855918,-0.7355 -1.135157,-1.0042 -0.535662,-0.5153 -2.232286,-2.1473 -4.36624,-2.2268 -0.333295,-0.013 -1.610517,-0.041 -2.794568,0.8295 -0.190687,0.1402 -1.273147,0.967 -1.605355,2.297 -0.33248,-1.33 -1.41494,-2.1565 -1.605356,-2.297 -1.183779,-0.8708 -2.461273,-0.842 -2.794567,-0.8295 -2.1339546,0.08 -3.8305787,1.7115 -4.3662404,2.2268 -0.2792395,0.2687 -0.5791231,0.596 -1.1351573,1.0042 -0.6693055,0.4917 -1.2652697,0.9285 -1.9324021,0.9722 0,0 -0.3384556,0.064 -0.8067521,-0.08 l 8.149e-4,-0 c -0.041288,-0.011 -0.08149,-0.025 -0.121692,-0.039 -0.1640667,-0.061 -0.3409003,-0.1478 -0.5223516,-0.2706 -0.5155608,-0.3691 -0.8521149,-0.9681 -0.8521149,-1.6461 0,-1.1221 0.9194801,-2.0318 2.0538225,-2.0318 0.9784246,0 1.7965852,0.6769 2.0030269,1.5831 -0.2352348,-1.259 -1.3394258,-2.2125 -2.6668997,-2.2125 -1.0944123,0 -2.03670961,0.6482 -2.4661625,1.5812 l -2.7164e-4,0 c 0,0 -1.09088098,1.817 1.19192874,5.0013 0.00353,0 0.00679,0.01 0.010322,0.015 0.03993,0.055 0.080404,0.1111 0.1222351,0.1673 0.023361,0.031 0.046993,0.062 0.070353,0.092 5.432e-4,0 0.00109,0 0.00163,0 2.453939,3.2012 5.916997,3.1572 5.916997,3.1572 l -0.00272,-0 c 0.1844393,0.013 0.3699651,0.021 0.557664,0.021 3.2229343,0 6.0098963,-1.8642 7.3436173,-4.5726 1.333722,2.7084 4.120412,4.5726 7.343617,4.5726 0.187699,0 0.373225,-0.01 0.557664,-0.021 l -0.0027,0 c 0,0 3.531238,0.045 5.988712,-3.2517 0.04238,-0.057 0.08339,-0.113 0.123593,-0.169 0.0033,-0 0.006,-0.01 0.0084,-0.011 z"
       id="path21-5" />
  </g>
</svg>
