<?xml version="1.0" encoding="UTF-8" standalone="no"?>
<!-- Created with Inkscape (http://www.inkscape.org/) -->

<svg
   xmlns:dc="http://purl.org/dc/elements/1.1/"
   xmlns:cc="http://creativecommons.org/ns#"
   xmlns:rdf="http://www.w3.org/1999/02/22-rdf-syntax-ns#"
   xmlns:svg="http://www.w3.org/2000/svg"
   xmlns="http://www.w3.org/2000/svg"
   xmlns:sodipodi="http://sodipodi.sourceforge.net/DTD/sodipodi-0.dtd"
   xmlns:inkscape="http://www.inkscape.org/namespaces/inkscape"
   id="svg3355"
   version="1.1"
   inkscape:version="0.91 r13725"
   xml:space="preserve"
   width="749.20001"
   height="420"
   viewBox="0 0 749.20001 420"
   sodipodi:docname="BDRC.svg"><metadata
     id="metadata3361"><rdf:RDF><cc:Work
         rdf:about=""><dc:format>image/svg+xml</dc:format><dc:type
           rdf:resource="http://purl.org/dc/dcmitype/StillImage" /><dc:title></dc:title></cc:Work></rdf:RDF></metadata><defs
     id="defs3359" /><sodipodi:namedview
     pagecolor="#ffffff"
     bordercolor="#666666"
     borderopacity="1"
     objecttolerance="10"
     gridtolerance="10"
     guidetolerance="10"
     inkscape:pageopacity="0"
     inkscape:pageshadow="2"
     inkscape:window-width="1920"
     inkscape:window-height="991"
     id="namedview3357"
     showgrid="false"
     inkscape:zoom="1.7178323"
     inkscape:cx="374.60001"
     inkscape:cy="210"
     inkscape:window-x="0"
     inkscape:window-y="27"
     inkscape:window-maximized="1"
     inkscape:current-layer="g3363" /><g
     id="g3363"
     inkscape:groupmode="layer"
     inkscape:label="ink_ext_XXXXXX"
     transform="matrix(1.25,0,0,-1.25,0,420)"><g
       id="g3365"
       transform="scale(0.1,0.1)"><path
         d="m 3500.98,2905.62 c -115.11,0 -209.74,-92.62 -211.73,-208.14 -1.97,-116.7 91.42,-213.3 208.2,-215.32 56.48,-1.05 110.06,20.16 150.73,59.47 40.66,39.3 63.57,92.08 64.5,148.6 2.01,116.72 -91.35,213.31 -208.1,215.36 l 0,0 c -1.2,0.02 -2.41,0.03 -3.6,0.03 z m 0.21,-459.79 c -1.46,0 -2.91,0.01 -4.36,0.04 -136.79,2.36 -246.19,115.51 -243.88,252.24 2.35,136.7 115.06,245.83 252.24,243.77 0,0 0,0 0.01,0 136.77,-2.38 246.13,-115.54 243.78,-252.26 -1.1,-66.21 -27.94,-128.05 -75.57,-174.1 -46.6,-45.04 -107.61,-69.69 -172.22,-69.69"
         style="fill:#100f0d;fill-opacity:1;fill-rule:nonzero;stroke:none"
         id="path3367"
         inkscape:connector-curvature="0" /><path
         d="m 3503.15,2833.02 c -36.28,0 -70.51,-13.82 -96.65,-39.09 -26.71,-25.82 -41.77,-60.51 -42.39,-97.68 -0.65,-37.18 13.21,-72.37 39.05,-99.1 25.83,-26.72 60.53,-41.78 97.71,-42.4 37.03,-0.8 72.36,13.24 99.07,39.07 26.73,25.83 41.79,60.52 42.41,97.69 0.64,37.18 -13.23,72.37 -39.06,99.09 -25.83,26.72 -60.54,41.78 -97.7,42.4 l 0,0 c -0.81,0.02 -1.63,0.02 -2.44,0.02 z m 0.19,-302.49 c -0.96,0 -1.92,0.01 -2.89,0.02 -43.62,0.73 -84.36,18.41 -114.7,49.78 -30.33,31.38 -46.61,72.7 -45.84,116.33 0.73,43.63 18.41,84.35 49.78,114.67 31.36,30.32 72.73,46.6 116.3,45.87 l 0,0 c 43.64,-0.74 84.37,-18.41 114.69,-49.78 30.33,-31.37 46.63,-72.68 45.87,-116.31 -0.73,-43.64 -18.42,-84.37 -49.78,-114.69 -30.67,-29.65 -70.86,-45.89 -113.43,-45.89"
         style="fill:#100f0d;fill-opacity:1;fill-rule:nonzero;stroke:none"
         id="path3369"
         inkscape:connector-curvature="0" /><path
         d="m 3503.19,2778.56 c -44.55,0 -82,-34.95 -84.52,-79.97 -1.26,-22.6 6.35,-44.32 21.43,-61.18 15.07,-16.87 35.83,-26.85 58.44,-28.11 46.57,-2.51 86.62,33.24 89.26,79.84 1.26,22.58 -6.36,44.31 -21.44,61.19 -15.09,16.87 -35.83,26.84 -58.4,28.1 l 0,0 c -1.6,0.09 -3.19,0.13 -4.77,0.13 z m 0.06,-181.49 c -1.78,0 -3.58,0.05 -5.38,0.15 -25.83,1.44 -49.56,12.85 -66.79,32.12 -17.24,19.27 -25.94,44.1 -24.48,69.92 2.96,53.27 48.64,94.34 102.02,91.25 25.8,-1.43 49.52,-12.84 66.76,-32.12 17.24,-19.28 25.94,-44.11 24.49,-69.93 -2.91,-51.45 -45.72,-91.39 -96.62,-91.39"
         style="fill:#100f0d;fill-opacity:1;fill-rule:nonzero;stroke:none"
         id="path3371"
         inkscape:connector-curvature="0" /><path
         d="m 4281.23,1705.07 589.29,-607.83 607.38,577.59 -589.3,619.11 -607.37,-588.87 z m 587.57,-692.96 -673.12,694.28 694.65,673.49 673.11,-707.17 -694.64,-660.6"
         style="fill:#100f0d;fill-opacity:1;fill-rule:nonzero;stroke:none"
         id="path3373"
         inkscape:connector-curvature="0" /><path
         d="m 4879.55,2004.31 c -168.89,0 -307.02,-136.63 -308.51,-305.83 -1.5,-170.11 135.69,-309.73 305.83,-311.24 0.9,-0.01 1.81,-0.01 2.7,-0.01 168.9,0 307.05,136.63 308.53,305.82 1.48,170.14 -135.72,309.76 -305.81,311.25 l 0,0 c -0.92,0 -1.83,0.01 -2.74,0.01 z m 0.02,-653.38 c -1.01,0 -2,0 -3.02,0.01 -190.16,1.69 -343.48,157.75 -341.81,347.86 1.66,189.1 156.06,341.81 344.8,341.81 1.04,0 2.03,-0.01 3.06,-0.01 190.12,-1.66 343.45,-157.71 341.8,-347.85 -1.66,-189.1 -156.08,-341.81 -344.83,-341.82"
         style="fill:#100f0d;fill-opacity:1;fill-rule:nonzero;stroke:none"
         id="path3375"
         inkscape:connector-curvature="0" /><path
         d="m 4879.51,1916.62 c -120.84,0 -219.68,-97.8 -220.76,-218.92 -0.52,-58.96 21.97,-114.62 63.31,-156.68 41.35,-42.08 96.6,-65.51 155.58,-66.01 58.65,-0.83 114.62,21.96 156.7,63.3 42.08,41.36 65.52,96.61 66.04,155.57 0.52,58.99 -21.96,114.65 -63.32,156.71 -41.35,42.07 -96.6,65.51 -155.58,66.01 l 0,0 c -0.65,0.01 -1.32,0.02 -1.97,0.02 z m 0.19,-465.82 c -0.76,0 -1.51,0 -2.28,0.01 -65.43,0.54 -126.74,26.56 -172.62,73.24 -45.88,46.68 -70.82,108.42 -70.25,173.87 1.2,134.38 110.89,242.89 244.95,242.89 0.74,0 1.46,0 2.19,-0.01 65.45,-0.56 126.75,-26.57 172.63,-73.25 45.88,-46.67 70.84,-108.43 70.26,-173.88 -0.57,-65.43 -26.6,-126.73 -73.27,-172.61 -46.14,-45.36 -107.02,-70.26 -171.61,-70.26"
         style="fill:#100f0d;fill-opacity:1;fill-rule:nonzero;stroke:none"
         id="path3377"
         inkscape:connector-curvature="0" /><path
         d="m 4879.56,1842.5 c -77.71,0 -142.75,-61.33 -146.52,-139.78 -3.84,-80.74 58.78,-149.57 139.57,-153.44 80.94,-3.61 149.62,58.76 153.5,139.53 3.81,80.8 -58.8,149.68 -139.56,153.53 l 0,0 c -2.34,0.11 -4.67,0.16 -6.99,0.16 z m 0.11,-305.49 c -2.53,0 -5.07,0.06 -7.62,0.19 -87.48,4.18 -155.24,78.69 -151.08,166.1 4.18,87.44 78.87,155.07 166.14,151.13 l 0,0 c 87.44,-4.17 155.21,-78.73 151.07,-166.19 -4.05,-84.88 -74.42,-151.23 -158.51,-151.23"
         style="fill:#100f0d;fill-opacity:1;fill-rule:nonzero;stroke:none"
         id="path3379"
         inkscape:connector-curvature="0" /><path
         d="m 3454.51,1823.26 c -60.02,0 -109.38,-48.3 -110.41,-108.54 -1.03,-60.86 47.67,-111.23 108.54,-112.26 29.38,-0.27 57.38,10.48 78.59,30.97 21.2,20.5 33.16,48.02 33.66,77.5 1.01,60.88 -47.66,111.27 -108.5,112.31 l 0,0 c -0.63,0.01 -1.25,0.02 -1.88,0.02 z m 0.16,-242 c -0.8,0 -1.59,0.01 -2.39,0.03 -72.54,1.22 -130.57,61.25 -129.35,133.8 1.24,72.53 61.59,130.69 133.81,129.32 l 0,0 c 72.52,-1.24 130.53,-61.28 129.32,-133.84 -0.6,-35.13 -14.84,-67.94 -40.11,-92.36 -24.7,-23.88 -57.04,-36.95 -91.28,-36.95"
         style="fill:#100f0d;fill-opacity:1;fill-rule:nonzero;stroke:none"
         id="path3381"
         inkscape:connector-curvature="0" /><path
         d="m 3454.52,1784.87 c -38.65,0 -70.43,-31.12 -71.11,-69.9 -0.34,-18.96 6.74,-36.92 19.93,-50.57 13.21,-13.67 30.94,-21.38 49.95,-21.69 18.46,-0.47 36.95,6.75 50.61,19.95 13.65,13.2 21.34,30.93 21.66,49.9 0.66,39.2 -30.67,71.63 -69.84,72.29 l 0,0 c -0.39,0.01 -0.79,0.02 -1.2,0.02 z m 0.05,-157.3 c -0.51,0 -1.03,0 -1.54,0.01 -23.04,0.38 -44.55,9.73 -60.58,26.3 -16,16.57 -24.57,38.36 -24.16,61.36 0.83,47.52 40.33,85.47 87.69,84.74 l 0,0 c 47.51,-0.81 85.51,-40.14 84.71,-87.68 -0.39,-23.02 -9.73,-44.51 -26.28,-60.51 -16.19,-15.65 -37.39,-24.22 -59.84,-24.22"
         style="fill:#100f0d;fill-opacity:1;fill-rule:nonzero;stroke:none"
         id="path3383"
         inkscape:connector-curvature="0" /><path
         d="m 3454.44,1751.56 c -9.31,0 -18.17,-3.37 -25.16,-9.62 -7.52,-6.74 -11.98,-15.99 -12.53,-26.07 -0.58,-10.08 2.81,-19.77 9.54,-27.31 6.74,-7.53 16,-11.99 26.08,-12.57 20.94,-1.03 38.72,14.87 39.88,35.67 1.15,20.81 -14.85,38.69 -35.66,39.84 l 0,0 c -0.72,0.04 -1.44,0.06 -2.15,0.06 z m 0.01,-84.69 c -0.86,0 -1.71,0.02 -2.59,0.07 -12.5,0.71 -23.98,6.24 -32.32,15.57 -8.37,9.35 -12.56,21.38 -11.84,33.87 0.68,12.49 6.2,23.97 15.53,32.32 9.33,8.35 21.37,12.56 33.86,11.87 l 0,0 c 25.8,-1.43 45.64,-23.6 44.21,-49.41 -1.38,-24.94 -22.14,-44.29 -46.85,-44.29"
         style="fill:#100f0d;fill-opacity:1;fill-rule:nonzero;stroke:none"
         id="path3385"
         inkscape:connector-curvature="0" /><path
         d="m 3933.38,714.68 c 28.79,-53.102 13.17,-102.86 -15.6,-138.918 -171.89,-215.25 -546.71,34.058 -757.83,185.41 101.86,148.918 171.48,311.998 285.81,434.008 136.68,-128.49 409.93,-337.211 487.62,-480.5 z m -945.42,186.16 c -149.49,118.43 -248.77,236.58 -378.36,390.6 142.18,107.53 249.3,209.28 373.4,307.64 119.24,-102.97 227.07,-202.69 337.61,-302.89 -109.75,-96.8 -220.4,-245.79 -332.65,-395.35 z M 2162.22,428.711 c -76.93,6.66 -243.83,64.129 -262.84,147.051 -29.71,129.539 404.48,482.018 517.75,570.768 C 2550.2,997.539 2659.98,865.012 2796.9,695.609 2657.82,537.32 2439.2,404.762 2162.22,428.711 Z m 89.25,1319.589 c 96.6,100.51 152.33,209.39 246.02,320.64 101.5,-100.27 278.86,-246.01 381.15,-342.82 -106.88,-90.91 -256.2,-176.55 -391.23,-274.26 -88.41,84.57 -162.98,207.55 -235.94,296.44 z m 149.03,1397.83 c 19.95,12.35 36.08,0.25 53.96,-15.62 104.93,-100.79 272.88,-284.11 384.09,-420.53 -119.23,-107.1 -191,-178.27 -314.84,-288.12 -131.08,99.65 -371.26,570.77 -123.21,724.27 z m 1116.99,14.67 457.72,-490.81 -490.78,-457.72 -457.7,490.82 490.76,457.71 z m 1393.44,-556.53 877.42,-951.67 -940.18,-865.889 -877.36,940.759 940.12,876.8 z m -1445.85,-582.92 292.86,-314.06 -314.06,-292.9 -292.87,314.06 314.07,292.9 z m -535.17,590.4 456.12,-489.12 c -89.02,-84.43 -273.5,-237.71 -348.08,-299.71 -119.63,113.81 -302.78,322.81 -401.31,449.7 89.04,124.57 214.15,266.61 293.27,339.13 z M 655.047,1497.4 c -160.832,95.03 -305.594,345.81 -229.922,620.33 42.918,155.48 233.938,299.47 398.566,330.14 337.249,62.99 645.029,-96.7 813.459,-271.99 93.77,-97.51 166.46,-217.59 238.39,-329.38 -249.83,-248.72 -790.09,-603.49 -1220.493,-349.1 z m 3199.263,111.75 c 72.94,-60.61 162.64,-151.25 245.37,-232.76 l 740.71,-794.242 1153.19,1062.062 -1074.87,1165.85 -1058.3,-986.99 -283.85,293.14 586.77,547.22 -639.27,685.48 -582.09,-542.87 -25.89,27.33 -0.01,0.01 c 0,0 0,0 0,0 -110.42,125.07 -239.3,304.8 -362.3,416.06 -158.39,143.25 -468.31,159.04 -577.66,-22.49 -204.36,-339.38 208.23,-796.82 358.04,-988.61 -75.63,-88.73 -155.46,-170.27 -259.43,-251.54 -76.75,92.38 -166.11,212.42 -252.45,316.12 -370.89,445.31 -1325.43,599.9 -1678.278,68.91 C 86.625,2285.7 22.4453,2130.15 5.58203,1996.49 -33.1641,1689.29 137.02,1361.13 292.402,1234.2 662.246,932.23 1238.94,970.82 1656.17,1208.65 c 178.66,101.92 291.49,227 428.82,344.68 67.51,-71.2 141.97,-139.85 204.11,-230.01 C 2061.52,1138.69 1848.45,946.898 1689.4,685.57 1560.98,433.141 1595.38,397.871 1643.31,202.219 1817.9,-175.738 2489.12,58.5703 2735.23,241.289 2835.87,316 2945.18,410.281 3008.71,507.07 3141.4,389.75 3344.42,98.9805 3589.91,36.1289 3693,9.80078 3918.47,0.871094 4007.21,27 c 107.97,31.8203 179.36,123.109 244.76,220.949 292.84,438.102 -417.07,764.291 -716.04,1060.731 63.54,71.06 240.9,239.8 318.38,300.47"
         style="fill:#000000;fill-opacity:1;fill-rule:evenodd;stroke:none"
         id="path3387"
         inkscape:connector-curvature="0" /></g></g></svg>
