<?xml version="1.0" encoding="utf-8"?>
<!-- Generator: Adobe Illustrator 16.0.0, SVG Export Plug-In . SVG Version: 6.00 Build 0)  -->
<!DOCTYPE svg PUBLIC "-//W3C//DTD SVG 1.1//EN" "http://www.w3.org/Graphics/SVG/1.1/DTD/svg11.dtd">
<svg version="1.1" id="Calque_1" xmlns="http://www.w3.org/2000/svg" xmlns:xlink="http://www.w3.org/1999/xlink" x="0px" y="0px"
	 width="141.732px" height="141.733px" viewBox="0 0 141.732 141.733" enable-background="new 0 0 141.732 141.733"
	 xml:space="preserve">
<path fill="#009FE3" d="M70.865,0C31.727,0,0,31.729,0,70.865c0,15.28,4.851,29.417,13.074,40.989
	c9.71,13.666,24.134,23.738,40.91,27.838c5.412,1.324,11.062,2.041,16.881,2.041c39.139,0,70.867-31.729,70.867-70.868
	C141.732,31.729,110.004,0,70.865,0z"/>
<path fill="#00405B" d="M46.367,101.114c0,0,3.661-7.174,10.949-7.174s9.977,6.746,9.977,6.746l-9.977,14.537L46.367,101.114z"/>
<path fill="#FFFFFF" d="M64.604,84.463H50.028v8.953c0,0,0,10,7.288,10s7.288-10,7.288-10V84.463z"/>
<path fill="#FFFFFF" d="M57.316,38.316V93.94c13.23,0,23.955-12.453,23.955-27.812C81.271,50.769,70.547,38.316,57.316,38.316z"/>
<path fill="#F6F6F6" d="M33.361,66.128c0,15.359,10.725,27.812,23.955,27.812V38.316C44.086,38.316,33.361,50.769,33.361,66.128z"/>
<circle cx="47.339" cy="66.128" r="2.095"/>
<circle cx="67.294" cy="66.128" r="2.095"/>
<path fill="#F6F6F6" d="M101.088,100.686L101.088,100.686c-3.166-1.307-6.514-2.008-9.978-2.008c-3.821,0-7.499,0.857-10.948,2.436
	l10.949,14.109L101.088,100.686z"/>
<g>
	<path fill="#00405B" d="M47.316,108.866l-10.002-46l20.002-20c0,0,9.998-10-10.002-10s-20,30-20,30l-16,26l10,10L47.316,108.866z"
		/>
	<polygon fill="#3363AC" points="37.314,62.866 21.314,98.866 47.316,108.866 	"/>
	<polygon fill="#7DC9CA" points="11.314,88.866 37.314,62.866 21.314,98.866 	"/>
	<path fill="#00405B" d="M67.316,108.866l10.002-46l-20.002-20c0,0-9.998-10,10.002-10s20,30,20,30l16,26l-10,10L67.316,108.866z"/>
	<polygon fill="#3363AC" points="77.318,62.866 93.318,98.866 67.316,108.866 	"/>
	<polygon fill="#7DC9CA" points="103.318,88.866 77.318,62.866 93.318,98.866 	"/>
</g>
<path fill="#7DC9CA" d="M67.293,100.686l-9.977,14.537l-10.949-14.109v36.232c2.479,0.914,5.017,1.709,7.617,2.346
	c3.3,0.807,6.689,1.385,10.151,1.717c9.694-0.926,18.818-3.807,26.976-8.238C87.436,117.542,78.51,105.313,67.293,100.686z"/>
<path fill="#F2F2F2" d="M46.367,101.114c-8.884,4.061-16.232,12.936-20.536,24.445c6.076,5.012,13.009,9.012,20.536,11.787V101.114z
	"/>
<path fill="#FFFFFF" d="M91.112,133.17c-6.988,3.797-14.688,6.451-22.847,7.717v-39.773
	C79.023,106.032,87.543,117.997,91.112,133.17z"/>
<path d="M120.752,121.19c-4.597-9.766-11.521-17.145-19.664-20.504l-9.977,14.537l-10.949-14.109
	c-10.758,4.918-19.277,16.883-22.847,32.057v7.246c4.387,0.854,8.913,1.316,13.55,1.316
	C90.323,141.733,107.944,133.885,120.752,121.19z"/>
<g>
	<g>
		<path fill="#FFFFFF" d="M98.399,84.463H83.823v8.953c0,0,0,10,7.287,10c7.289,0,7.289-10,7.289-10V84.463z"/>
		<path fill="#FFFFFF" d="M91.11,38.316V93.94c13.23,0,23.955-12.453,23.955-27.813C115.065,50.769,104.341,38.316,91.11,38.316z"/>
		<path fill="#F6F6F6" d="M67.155,66.127c0,15.36,10.726,27.813,23.955,27.813V38.316C77.881,38.316,67.155,50.769,67.155,66.127z"
			/>
		<circle cx="81.133" cy="66.127" r="2.095"/>
		<circle cx="101.088" cy="66.127" r="2.095"/>
	</g>
	<path fill="#7DC9CA" d="M91.11,18.316l-23.955,20c0,0-9.995,7.816,0,17.812v9.999c0,0,0-21.053,23.956-21.053L91.11,18.316
		L91.11,18.316z"/>
	<path fill="#7DC9CA" d="M115.065,66.127V38.316L91.111,18.317v26.757C115.067,45.074,115.065,66.127,115.065,66.127z"/>
	<path opacity="0.25" fill="#FFFFFF" d="M115.065,66.127V38.316L91.111,18.317v26.757C115.067,45.074,115.065,66.127,115.065,66.127
		z"/>
	<polygon fill="#DADADA" points="80.162,101.114 83.823,92.627 91.11,93.94 91.111,115.223 	"/>
	<polygon fill="#EDEDED" points="102.059,101.114 98.397,92.627 91.11,93.94 91.109,115.223 	"/>
	<g>
		<circle fill="#00405B" cx="91.111" cy="98.417" r="2.835"/>
		<g>
			<polygon fill="#00405B" points="76.937,106.6 91.11,98.417 70.736,98.417 			"/>
			<polygon fill="#7DC9CA" points="70.736,98.417 91.11,98.417 76.937,90.233 			"/>
		</g>
		<g>
			<polygon fill="#00405B" points="105.284,106.6 91.11,98.417 111.484,98.417 			"/>
			<polygon fill="#7DC9CA" points="111.484,98.417 91.11,98.417 105.284,90.233 			"/>
		</g>
	</g>
	<path fill="#00405B" d="M91.111,45.074c0,0-23.956,19.318-23.956-6.758s23.955-20,23.955-20S67.155,38.316,91.111,45.074z"/>
	<path fill="#00405B" d="M115.065,38.316c-10.074,10.074-23.954,6.758-23.954,6.758L115.065,38.316z"/>
	<path fill="#00405B" d="M103.271,23.357c0,14.248-12.159,21.717-12.159,21.717L103.271,23.357z"/>
</g>
<g>
	<path fill="#FFFFFF" d="M126.985,114.116c-0.664-0.85-1.409-1.701-2.237-2.529c-4.729-4.729-10.19-6.934-12.198-4.926
		c-2.01,2.01,0.195,7.471,4.925,12.199c0.98,0.982,1.992,1.846,2.999,2.596C122.81,119.165,124.983,116.709,126.985,114.116z"/>

		<ellipse transform="matrix(-0.7072 -0.7071 0.7071 -0.7072 22.856 239.9127)" fill="#FFFFFF" cx="61.111" cy="115.223" rx="5.143" ry="12.11"/>
</g>
</svg>
