<?xml version="1.0" encoding="utf-8"?>
<!-- Generator: Adobe Illustrator 16.0.0, SVG Export Plug-In . SVG Version: 6.00 Build 0)  -->
<!DOCTYPE svg PUBLIC "-//W3C//DTD SVG 1.1//EN" "http://www.w3.org/Graphics/SVG/1.1/DTD/svg11.dtd">
<svg version="1.1" id="Calque_1" xmlns="http://www.w3.org/2000/svg" xmlns:xlink="http://www.w3.org/1999/xlink" x="0px" y="0px"
	 width="141.732px" height="141.474px" viewBox="0 0 141.732 141.474" enable-background="new 0 0 141.732 141.474"
	 xml:space="preserve">
<circle fill="#009FE3" cx="70.48" cy="70.838" r="70.866"/>
<path d="M70.48,98.391c-15.738,0-29.082,14.454-33.795,34.492c10.045,5.46,21.558,8.563,33.795,8.563
	c12.238,0,23.751-3.103,33.796-8.563C99.563,112.845,86.219,98.391,70.48,98.391z"/>
<rect x="42.671" y="38.029" fill="#FFFFFF" width="55.622" height="55.623"/>
<polygon fill="#F6F6F6" points="42.671,38.029 23.109,18.467 33.109,22.467 48.671,38.029 "/>
<polygon fill="#F6F6F6" points="98.29,38.029 117.852,18.467 107.852,22.467 92.29,38.029 "/>
<polygon fill="#DADADA" points="42.671,93.652 52.671,98.391 88.29,98.391 98.293,93.652 "/>
<path fill="#FFFFFF" d="M77.77,95.099H63.193v0.923c0,0,0,7.107,7.287,7.107c7.289,0,7.289-7.107,7.289-7.107V95.099z"/>
<polygon fill="#DADADA" points="42.671,38.029 48.671,28.248 92.29,28.248 98.29,38.029 "/>
<rect x="42.671" y="38.029" fill="#F6F6F6" width="27.812" height="55.623"/>
<circle cx="60.503" cy="65.841" r="2.095"/>
<circle cx="80.458" cy="65.841" r="2.095"/>
</svg>
