<?xml version="1.0" encoding="utf-8"?>
<!-- Generator: Adobe Illustrator 16.0.0, SVG Export Plug-In . SVG Version: 6.00 Build 0)  -->
<!DOCTYPE svg PUBLIC "-//W3C//DTD SVG 1.1//EN" "http://www.w3.org/Graphics/SVG/1.1/DTD/svg11.dtd">
<svg version="1.1" id="Calque_1" xmlns="http://www.w3.org/2000/svg" xmlns:xlink="http://www.w3.org/1999/xlink" x="0px" y="0px"
	 width="141.732px" height="141.732px" viewBox="0 0 141.732 141.732" enable-background="new 0 0 141.732 141.732"
	 xml:space="preserve">
<circle fill="#009FE3" cx="70.866" cy="70.848" r="70.866"/>
<path fill="#3363AC" d="M70.866,98.696c-15.738,0-29.083,14.453-33.796,34.492c10.045,5.459,21.559,8.563,33.796,8.563
	s23.751-3.104,33.796-8.563C99.949,113.149,86.604,98.696,70.866,98.696z"/>
<path fill="#FFFFFF" d="M70.866,38.334v55.624c13.229,0,23.955-12.453,23.955-27.812C94.821,50.787,84.096,38.334,70.866,38.334z"/>
<path fill="#F6F6F6" d="M46.911,66.146c0,15.359,10.726,27.812,23.955,27.812V38.334C57.637,38.334,46.911,50.787,46.911,66.146z"/>
<rect x="53.746" y="65.785" width="14.285" height="0.723"/>
<rect x="73.701" y="65.785" width="14.285" height="0.723"/>
<polygon fill="#3363AC" points="80.844,40.859 94.821,35.961 94.821,66.146 "/>
<polygon fill="#3363AC" points="60.889,40.859 46.911,35.961 46.911,66.146 "/>
<polygon fill="#7DC9CA" points="46.911,35.961 70.866,38.334 60.889,40.859 "/>
<polygon fill="#7DC9CA" points="94.821,35.961 80.844,40.859 70.866,38.334 "/>
<path fill="#DADADA" d="M63.578,84.481v8.953c0,0,0,9.998,7.287,10V84.481H63.578z"/>
<path fill="#F6F6F6" d="M78.154,93.435v-8.953h-7.289v18.953c0,0,0,0,0.001,0C78.154,103.435,78.154,93.435,78.154,93.435z"/>
</svg>
