<?xml version="1.0" encoding="utf-8"?>
<!-- Generator: Adobe Illustrator 16.0.0, SVG Export Plug-In . SVG Version: 6.00 Build 0)  -->
<!DOCTYPE svg PUBLIC "-//W3C//DTD SVG 1.1//EN" "http://www.w3.org/Graphics/SVG/1.1/DTD/svg11.dtd">
<svg version="1.1" id="Calque_1" xmlns="http://www.w3.org/2000/svg" xmlns:xlink="http://www.w3.org/1999/xlink" x="0px" y="0px"
	 width="141.732px" height="141.732px" viewBox="0 0 141.732 141.732" enable-background="new 0 0 141.732 141.732"
	 xml:space="preserve">
<circle fill="#009FE3" cx="71.539" cy="70.838" r="70.866"/>
<g>
	<g>
		<path fill="#7DC9CA" d="M80.886,48.542c-32.87,31.76-46.84,59.146-46.84,59.146l50.047-49.781l18.639-28.525
			C94.696,35.777,87.42,42.229,80.886,48.542z"/>
		<path fill="#7DC9CA" d="M114.883,20.193l-30.79,37.714L134.47,7.265C127.547,11.456,121.026,15.789,114.883,20.193z"/>
	</g>
	<polygon fill="#009FE3" points="134.47,7.265 33.45,108.284 8.607,133.128 9.892,134.412 	"/>
	<polygon fill="#00405B" points="12.885,133.987 9.892,134.412 134.47,7.265 	"/>
	<path fill="#3363AC" d="M84.093,57.907l35.138-12.032l0.085,0.068c2.305-3.271,4.252-6.415,5.909-9.405l-12.84,5.401l16.521-12.801
		c5.81-13.212,5.564-21.874,5.564-21.874L84.093,57.907z"/>
	<path fill="#00405B" d="M84.093,57.907l-48.019,49.781c22.58-9.841,37.734-19.404,51.328-29.68l-7.956-7.956l12.267,4.608
		c12.496-10.026,21.342-19.829,27.603-28.718l-0.085-0.068L84.093,57.907z"/>
	<polygon fill="#7DC9CA" points="8.607,133.128 9.892,130.761 34.046,107.688 	"/>
</g>
</svg>
