<?xml version="1.0" encoding="UTF-8" standalone="no"?>
<!-- Created with Inkscape (http://www.inkscape.org/) -->

<svg
   xmlns:dc="http://purl.org/dc/elements/1.1/"
   xmlns:cc="http://creativecommons.org/ns#"
   xmlns:rdf="http://www.w3.org/1999/02/22-rdf-syntax-ns#"
   xmlns:svg="http://www.w3.org/2000/svg"
   xmlns="http://www.w3.org/2000/svg"
   version="1.1"
   width="150"
   height="150"
   id="svg2">
  <defs
     id="defs4" />
  <metadata
     id="metadata7">
    <rdf:RDF>
      <cc:Work
         rdf:about="">
        <dc:format>image/svg+xml</dc:format>
        <dc:type
           rdf:resource="http://purl.org/dc/dcmitype/StillImage" />
        <dc:title></dc:title>
      </cc:Work>
    </rdf:RDF>
  </metadata>
  <g
     transform="translate(0,-902.36218)"
     id="layer1">
    <g
       transform="translate(-232.36499,383.47003)"
       id="g5524">
      <circle
         cx="307.36499"
         cy="594.172"
         r="75"
         id="circle4217"
         style="fill:#ee7246" />
      <path
         d="m 341.791,645.646 c 1.443,-0.154 2.567,-1.271 2.567,-2.641 v -43.682 c 0,-1.37 -1.124,-2.486 -2.567,-2.641 v -0.031 h -30.685 c -1.603,0 -2.902,1.196 -2.902,2.672 v 43.682 c 0,1.476 1.299,2.672 2.902,2.672 h 30.685 v -0.031 z"
         id="path4509"
         style="fill:#ea542d" />
      <rect
         width="89.102997"
         height="74.375999"
         x="265.50601"
         y="548.41998"
         id="rect4511"
         style="fill:#ea542d" />
      <rect
         width="89.102997"
         height="74.375999"
         x="263.022"
         y="545.68103"
         id="rect4513"
         style="fill:#ffffff" />
      <g
         id="g4515">
        <rect
           width="36.741001"
           height="0.148"
           x="305.80899"
           y="573.20203"
           transform="matrix(1,0.0034,-0.0034,1,1.9681,-1.1085)"
           id="rect4517"
           style="fill:#b2cede" />
        <rect
           width="36.787998"
           height="0.148"
           x="305.81299"
           y="571.84601"
           transform="matrix(1,0.0034,-0.0034,1,1.9634,-1.1086)"
           id="rect4519"
           style="fill:#013e40" />
        <rect
           width="36.787998"
           height="0.148"
           x="305.823"
           y="569"
           transform="matrix(1,0.0034,-0.0034,1,1.9536,-1.1086)"
           id="rect4521"
           style="fill:#013e40" />
        <rect
           width="36.787998"
           height="0.148"
           x="305.832"
           y="566.17999"
           transform="matrix(1,0.0034,-0.0034,1,1.944,-1.1087)"
           id="rect4523"
           style="fill:#013e40" />
        <rect
           width="36.787998"
           height="0.148"
           x="305.841"
           y="563.33398"
           transform="matrix(1,0.0034,-0.0034,1,1.9342,-1.1087)"
           id="rect4525"
           style="fill:#013e40" />
        <rect
           width="36.787998"
           height="0.148"
           x="305.85001"
           y="560.48798"
           transform="matrix(1,0.0034,-0.0034,1,1.9244,-1.1088)"
           id="rect4527"
           style="fill:#013e40" />
        <rect
           width="36.787998"
           height="0.148"
           x="305.77701"
           y="582.91699"
           transform="matrix(1,0.0034,-0.0034,1,2.0014,-1.1084)"
           id="rect4529"
           style="fill:#013e40" />
        <rect
           width="36.787998"
           height="0.148"
           x="305.78699"
           y="580.09601"
           transform="matrix(1,0.0034,-0.0034,1,1.9917,-1.1084)"
           id="rect4531"
           style="fill:#013e40" />
        <rect
           width="36.787998"
           height="0.148"
           x="305.79599"
           y="577.25098"
           transform="matrix(1,0.0034,-0.0034,1,1.9819,-1.1085)"
           id="rect4533"
           style="fill:#013e40" />
        <rect
           width="36.787998"
           height="0.148"
           x="305.80499"
           y="574.40503"
           transform="matrix(1,0.0034,-0.0034,1,1.9722,-1.1085)"
           id="rect4535"
           style="fill:#013e40" />
        <rect
           width="24.709"
           height="0.17399999"
           x="293.54599"
           y="571.64502"
           transform="matrix(-0.0033,1,-1,-0.0033,878.6253,267.693)"
           id="rect4537"
           style="fill:#b2cede" />
        <rect
           width="1.832"
           height="6.928"
           x="307.056"
           y="566.367"
           transform="matrix(1,0.0034,-0.0034,1,1.9561,-1.0529)"
           id="rect4539"
           style="fill:#b2cede" />
        <rect
           width="1.832"
           height="4.3850002"
           x="308.884"
           y="568.91602"
           transform="matrix(1,0.0034,-0.0034,1,1.9605,-1.0592)"
           id="rect4541"
           style="fill:#00617b" />
        <rect
           width="1.832"
           height="3.5710001"
           x="310.703"
           y="573.30701"
           transform="matrix(1,0.0034,-0.0034,1,1.9742,-1.0654)"
           id="rect4543"
           style="fill:#ef7b45" />
        <rect
           width="1.832"
           height="2.299"
           x="312.53799"
           y="573.31299"
           transform="matrix(1,0.0034,-0.0034,1,1.9721,-1.0717)"
           id="rect4545"
           style="fill:#e73632" />
        <rect
           width="1.832"
           height="9.8509998"
           x="315.46399"
           y="563.47198"
           transform="matrix(1,0.0034,-0.0034,1,1.9513,-1.0817)"
           id="rect4547"
           style="fill:#b2cede" />
        <rect
           width="1.832"
           height="5.711"
           x="317.289"
           y="567.61902"
           transform="matrix(1,0.0034,-0.0034,1,1.9584,-1.088)"
           id="rect4549"
           style="fill:#00617b" />
        <rect
           width="1.832"
           height="2.1099999"
           x="319.10901"
           y="573.336"
           transform="matrix(1,0.0034,-0.0034,1,1.9718,-1.0942)"
           id="rect4551"
           style="fill:#ef7b45" />
        <rect
           width="1.832"
           height="1.325"
           x="320.94299"
           y="573.34198"
           transform="matrix(1,0.0034,-0.0034,1,1.9705,-1.1005)"
           id="rect4553"
           style="fill:#e73632" />
        <rect
           width="1.832"
           height="6.928"
           x="324.392"
           y="566.42603"
           transform="matrix(1,0.0034,-0.0034,1,1.9564,-1.1123)"
           id="rect4555"
           style="fill:#b2cede" />
        <rect
           width="1.832"
           height="2.4089999"
           x="326.21701"
           y="570.95099"
           transform="matrix(1,0.0034,-0.0034,1,1.9642,-1.1186)"
           id="rect4557"
           style="fill:#00617b" />
        <rect
           width="1.832"
           height="6.5479999"
           x="328.035"
           y="573.367"
           transform="matrix(1,0.0034,-0.0034,1,1.9796,-1.1248)"
           id="rect4559"
           style="fill:#ef7b45" />
        <rect
           width="1.832"
           height="2.868"
           x="329.87399"
           y="573.37299"
           transform="matrix(1,0.0034,-0.0034,1,1.9733,-1.1311)"
           id="rect4561"
           style="fill:#e73632" />
        <rect
           width="1.832"
           height="7.849"
           x="333.466"
           y="565.53601"
           transform="matrix(1,0.0034,-0.0034,1,1.955,-1.1435)"
           id="rect4563"
           style="fill:#b2cede" />
        <rect
           width="1.832"
           height="3.924"
           x="335.29199"
           y="569.46698"
           transform="matrix(1,0.0034,-0.0034,1,1.9618,-1.1497)"
           id="rect4565"
           style="fill:#00617b" />
        <rect
           width="1.832"
           height="3.95"
           x="337.11099"
           y="573.39801"
           transform="matrix(1,0.0034,-0.0034,1,1.9753,-1.1559)"
           id="rect4567"
           style="fill:#ef7b45" />
        <rect
           width="1.832"
           height="1.0549999"
           x="338.948"
           y="573.40399"
           transform="matrix(1,0.0034,-0.0034,1,1.9704,-1.1622)"
           id="rect4569"
           style="fill:#e73632" />
      </g>
      <path
         d="m 344.033,620.057 v -23.703 c 0,-1.566 -1.124,-2.842 -2.567,-3.019 V 593.3 H 310.78 c -1.603,0 -2.902,1.367 -2.902,3.054 v 23.703 h 36.155 z"
         id="path4571"
         style="fill:#b4e1fa" />
      <rect
         width="23.815001"
         height="0.17299999"
         x="272.64499"
         y="607.77802"
         id="rect4573"
         style="fill:#b2cede" />
      <rect
         width="23.815001"
         height="0.17299999"
         x="272.64499"
         y="606.02899"
         id="rect4575"
         style="fill:#b2cede" />
      <rect
         width="23.815001"
         height="0.17299999"
         x="272.64499"
         y="604.07898"
         id="rect4577"
         style="fill:#b2cede" />
      <rect
         width="23.815001"
         height="0.17299999"
         x="272.77301"
         y="602.15002"
         id="rect4579"
         style="fill:#b2cede" />
      <rect
         width="23.815001"
         height="0.17299999"
         x="272.77301"
         y="600.401"
         id="rect4581"
         style="fill:#b2cede" />
      <rect
         width="23.815001"
         height="0.17299999"
         x="272.77301"
         y="598.45099"
         id="rect4583"
         style="fill:#b2cede" />
      <rect
         width="23.815001"
         height="0.17299999"
         x="272.77301"
         y="596.48999"
         id="rect4585"
         style="fill:#b2cede" />
      <polygon
         points="272.645,595.087 272.645,609.728 272.645,609.815 272.645,609.901 296.46,609.901 296.46,609.728 272.925,609.728 272.925,595.087 "
         id="polygon4587"
         style="fill:#2b9dd8" />
      <g
         id="g4589">
        <ellipse
           cx="284.54501"
           cy="572.15601"
           rx="8.5979996"
           ry="9.1969995"
           id="ellipse4591"
           style="fill:#82c9ec" />
        <path
           d="m 284.545,572.156 3.226,8.526 c 0,0 3.654,-1.742 4.745,-5.076 l -7.971,-3.45 z"
           id="path4593"
           style="fill:#00637d" />
        <path
           d="m 284.545,572.156 h 8.598 c 0,0 0.132,1.872 -0.627,3.45 l -7.971,-3.45 z"
           id="path4595"
           style="fill:#cdeafc" />
        <path
           d="m 284.545,572.156 7.971,-3.452 c 0,0 0.753,1.605 0.627,3.452 h -8.598 z"
           id="path4597"
           style="fill:#1c9bc4" />
        <path
           d="m 284.545,572.156 7.258,-4.93 c 0,0 0.542,1.05 0.713,1.478 l -7.971,3.452 z"
           id="path4599"
           style="fill:#003545" />
      </g>
      <g
         id="g4601">
        <polygon
           points="289.49,599.797 292.519,601.122 295.243,599.412 295.299,599.501 292.528,601.241 292.502,601.23 289.494,599.914 287.244,604.505 284.314,604.261 284.301,604.25 282.07,602.337 280.111,605.297 277.187,605.286 275.893,607.073 273.666,606.228 273.703,606.129 275.855,606.945 277.133,605.18 280.055,605.191 282.048,602.179 284.357,604.159 287.181,604.394 289.443,599.776 "
           id="polygon4603"
           style="fill:#ef7b45" />
        <circle
           cx="294.19901"
           cy="596.07202"
           r="0.285"
           id="circle4605"
           style="fill:#2b9dd8" />
        <circle
           cx="292.05301"
           cy="598.896"
           r="0.285"
           id="circle4607"
           style="fill:#2b9dd8" />
        <circle
           cx="295.271"
           cy="599.45599"
           r="0.285"
           id="circle4609"
           style="fill:#ef7b45" />
        <circle
           cx="292.535"
           cy="601.12402"
           r="0.285"
           id="circle4611"
           style="fill:#ef7b45" />
        <circle
           cx="289.48001"
           cy="599.85602"
           r="0.285"
           id="circle4613"
           style="fill:#ef7b45" />
        <circle
           cx="287.21201"
           cy="604.37"
           r="0.285"
           id="circle4615"
           style="fill:#ef7b45" />
        <circle
           cx="284.267"
           cy="604.164"
           r="0.285"
           id="circle4617"
           style="fill:#ef7b45" />
        <circle
           cx="282.082"
           cy="602.258"
           r="0.285"
           id="circle4619"
           style="fill:#ef7b45" />
        <circle
           cx="280.026"
           cy="605.15302"
           r="0.285"
           id="circle4621"
           style="fill:#ef7b45" />
        <circle
           cx="275.87399"
           cy="607.00897"
           r="0.285"
           id="circle4623"
           style="fill:#ef7b45" />
        <circle
           cx="273.68399"
           cy="606.15601"
           r="0.285"
           id="circle4625"
           style="fill:#ef7b45" />
        <circle
           cx="289.69101"
           cy="601.18201"
           r="0.285"
           id="circle4627"
           style="fill:#2b9dd8" />
        <circle
           cx="286.64999"
           cy="602.27802"
           r="0.285"
           id="circle4629"
           style="fill:#2b9dd8" />
        <circle
           cx="284.26199"
           cy="605.39801"
           r="0.285"
           id="circle4631"
           style="fill:#2b9dd8" />
        <circle
           cx="280.31"
           cy="605.72498"
           r="0.285"
           id="circle4633"
           style="fill:#2b9dd8" />
        <circle
           cx="276.371"
           cy="602.466"
           r="0.285"
           id="circle4635"
           style="fill:#2b9dd8" />
        <circle
           cx="276.349"
           cy="608.06201"
           r="0.285"
           id="circle4637"
           style="fill:#2b9dd8" />
        <circle
           cx="273.85999"
           cy="608.052"
           r="0.285"
           id="circle4639"
           style="fill:#2b9dd8" />
        <polygon
           points="291.993,598.858 294.192,596.04 294.275,596.105 292.072,598.928 289.663,601.266 286.704,602.32 284.267,605.448 284.244,605.45 280.292,605.802 276.401,602.556 276.379,608.115 273.859,608.105 273.86,607.999 276.274,608.009 276.296,602.331 280.327,605.693 284.212,605.347 286.64,602.231 286.655,602.226 289.617,601.17 "
           id="polygon4641"
           style="fill:#2b9dd8" />
      </g>
      <g
         id="g4643">
        <path
           d="m 338.944,643.907 c 1.371,-0.154 2.439,-1.271 2.439,-2.641 v -43.682 c 0,-1.37 -1.068,-2.486 -2.439,-2.641 v -0.031 h -29.157 c -1.523,0 -2.757,1.196 -2.757,2.672 v 43.682 c 0,1.476 1.234,2.672 2.757,2.672 h 29.157 v -0.031 z"
           id="path4645"
           style="fill:#ffffff" />
        <rect
           width="27.809"
           height="13.393"
           x="310.302"
           y="598.04102"
           id="rect4647"
           style="fill:#006d7a" />
        <rect
           width="23.379"
           height="5.1669998"
           x="312.61899"
           y="602.10199"
           id="rect4649"
           style="fill:#b5daef" />
        <rect
           width="4.4299998"
           height="4.2410002"
           x="310.302"
           y="613.19"
           id="rect4651"
           style="fill:#b5daef" />
        <rect
           width="4.4299998"
           height="4.2410002"
           x="316.198"
           y="613.19"
           id="rect4653"
           style="fill:#b5daef" />
        <rect
           width="4.4299998"
           height="4.2410002"
           x="321.991"
           y="613.19"
           id="rect4655"
           style="fill:#b5daef" />
        <rect
           width="4.4299998"
           height="4.2410002"
           x="327.88699"
           y="613.19"
           id="rect4657"
           style="fill:#b5daef" />
        <rect
           width="4.2410002"
           height="4.4299998"
           x="310.396"
           y="619.03101"
           id="rect4659"
           style="fill:#b5daef" />
        <rect
           width="4.2410002"
           height="4.4299998"
           x="310.396"
           y="624.927"
           id="rect4661"
           style="fill:#b5daef" />
        <rect
           width="4.2410002"
           height="4.4299998"
           x="310.396"
           y="630.71997"
           id="rect4663"
           style="fill:#b5daef" />
        <rect
           width="4.2410002"
           height="4.4299998"
           x="310.396"
           y="636.61603"
           id="rect4665"
           style="fill:#b5daef" />
        <rect
           width="4.2410002"
           height="4.4299998"
           x="316.29599"
           y="618.94897"
           id="rect4667"
           style="fill:#006d7a" />
        <rect
           width="4.2410002"
           height="4.4299998"
           x="316.29599"
           y="624.84497"
           id="rect4669"
           style="fill:#006d7a" />
        <rect
           width="4.2410002"
           height="4.4299998"
           x="316.29599"
           y="630.638"
           id="rect4671"
           style="fill:#006d7a" />
        <rect
           width="4.2410002"
           height="4.4299998"
           x="316.29599"
           y="636.534"
           id="rect4673"
           style="fill:#006d7a" />
        <rect
           width="4.2410002"
           height="4.4299998"
           x="322.18301"
           y="618.94897"
           id="rect4675"
           style="fill:#006d7a" />
        <rect
           width="4.2410002"
           height="4.4299998"
           x="322.18301"
           y="624.84497"
           id="rect4677"
           style="fill:#006d7a" />
        <rect
           width="4.2410002"
           height="4.4299998"
           x="322.18301"
           y="630.638"
           id="rect4679"
           style="fill:#006d7a" />
        <rect
           width="4.2410002"
           height="4.4299998"
           x="322.17999"
           y="636.534"
           id="rect4681"
           style="fill:#006d7a" />
        <rect
           width="4.2410002"
           height="4.4299998"
           x="328.07901"
           y="618.94897"
           id="rect4683"
           style="fill:#006d7a" />
        <rect
           width="4.2410002"
           height="4.4299998"
           x="328.07901"
           y="624.84497"
           id="rect4685"
           style="fill:#006d7a" />
        <rect
           width="4.2410002"
           height="4.4299998"
           x="328.07901"
           y="630.638"
           id="rect4687"
           style="fill:#006d7a" />
        <rect
           width="4.2410002"
           height="4.4299998"
           x="328.07599"
           y="636.61603"
           id="rect4689"
           style="fill:#006d7a" />
        <rect
           width="4.2410002"
           height="4.4299998"
           x="333.77499"
           y="619.03101"
           id="rect4691"
           style="fill:#b5daef" />
        <rect
           width="4.2410002"
           height="4.4299998"
           x="333.77499"
           y="624.927"
           id="rect4693"
           style="fill:#b5daef" />
        <rect
           width="4.2410002"
           height="10.327"
           x="333.77499"
           y="630.71997"
           id="rect4695"
           style="fill:#006d7a" />
        <rect
           width="4.4299998"
           height="4.2410002"
           x="333.67999"
           y="613.19"
           id="rect4697"
           style="fill:#b5daef" />
        <g
           id="g4699">
          <polygon
             points="324.764,604.459 324.764,603.406 324.536,603.141 324.308,603.406 324.308,604.459 324.536,604.724 "
             id="polygon4701"
             style="fill:#034354" />
          <polygon
             points="326.616,604.459 326.616,603.406 326.388,603.141 326.16,603.406 326.16,604.459 326.388,604.724 "
             id="polygon4703"
             style="fill:#034354" />
          <polygon
             points="324.963,605.003 326.016,605.003 326.281,604.775 326.016,604.547 324.963,604.547 324.698,604.775 "
             id="polygon4705"
             style="fill:#034354" />
          <polygon
             points="324.963,603.248 326.016,603.248 326.281,603.02 326.016,602.792 324.963,602.792 324.698,603.02 "
             id="polygon4707"
             style="fill:#034354" />
          <polygon
             points="324.764,606.131 324.764,605.078 324.536,604.813 324.308,605.078 324.308,606.131 324.536,606.396 "
             id="polygon4709"
             style="fill:#034354" />
          <polygon
             points="327.631,604.459 327.631,603.406 327.403,603.141 327.175,603.406 327.175,604.459 327.403,604.724 "
             id="polygon4711"
             style="fill:#034354" />
          <polygon
             points="327.83,605.003 328.883,605.003 329.148,604.775 328.883,604.547 327.83,604.547 327.565,604.775 "
             id="polygon4713"
             style="fill:#034354" />
          <polygon
             points="327.83,606.713 328.883,606.713 329.148,606.485 328.883,606.257 327.83,606.257 327.565,606.485 "
             id="polygon4715"
             style="fill:#034354" />
          <polygon
             points="327.83,603.248 328.883,603.248 329.148,603.02 328.883,602.792 327.83,602.792 327.565,603.02 "
             id="polygon4717"
             style="fill:#034354" />
          <polygon
             points="327.631,606.131 327.631,605.078 327.403,604.813 327.175,605.078 327.175,606.131 327.403,606.396 "
             id="polygon4719"
             style="fill:#034354" />
          <polygon
             points="330.118,604.459 330.118,603.406 329.89,603.141 329.662,603.406 329.662,604.459 329.89,604.724 "
             id="polygon4721"
             style="fill:#034354" />
          <polygon
             points="331.97,604.459 331.97,603.406 331.742,603.141 331.514,603.406 331.514,604.459 331.742,604.724 "
             id="polygon4723"
             style="fill:#034354" />
          <polygon
             points="330.317,606.713 331.371,606.713 331.635,606.485 331.371,606.257 330.317,606.257 330.052,606.485 "
             id="polygon4725"
             style="fill:#034354" />
          <polygon
             points="330.317,603.248 331.371,603.248 331.635,603.02 331.371,602.792 330.317,602.792 330.052,603.02 "
             id="polygon4727"
             style="fill:#034354" />
          <polygon
             points="330.118,606.131 330.118,605.078 329.89,604.813 329.662,605.078 329.662,606.131 329.89,606.396 "
             id="polygon4729"
             style="fill:#034354" />
          <polygon
             points="331.97,606.131 331.97,605.078 331.742,604.813 331.514,605.078 331.514,606.131 331.742,606.396 "
             id="polygon4731"
             style="fill:#034354" />
          <polygon
             points="333.181,604.459 333.181,603.406 332.953,603.141 332.725,603.406 332.725,604.459 332.953,604.724 "
             id="polygon4733"
             style="fill:#034354" />
          <polygon
             points="335.033,604.459 335.033,603.406 334.805,603.141 334.577,603.406 334.577,604.459 334.805,604.724 "
             id="polygon4735"
             style="fill:#034354" />
          <polygon
             points="333.38,603.248 334.434,603.248 334.698,603.02 334.434,602.792 333.38,602.792 333.115,603.02 "
             id="polygon4737"
             style="fill:#034354" />
          <polygon
             points="333.181,606.131 333.181,605.078 332.953,604.813 332.725,605.078 332.725,606.131 332.953,606.396 "
             id="polygon4739"
             style="fill:#034354" />
          <polygon
             points="335.033,606.131 335.033,605.078 334.805,604.813 334.577,605.078 334.577,606.131 334.805,606.396 "
             id="polygon4741"
             style="fill:#034354" />
        </g>
      </g>
      <path
         d="m 272.326,545.681 c 0,0 -2.497,4.552 -1.375,6.94 0,0 -4.71,-1.846 -7.929,4.018 v -9.99 l 5.866,-0.968 h 3.438 z"
         id="path4743"
         style="fill:#b4e1fa" />
      <path
         d="m 272.326,545.681 c 0,0 -9.304,4.733 -9.304,10.958 v -10.958 h 9.304 z"
         id="path4745"
         style="fill:#ea542d" />
      <rect
         width="18.358999"
         height="2.2149999"
         x="276.612"
         y="630.638"
         id="rect4747"
         style="fill:#006d7a" />
      <path
         d="m 269.253,631.591 c 0.01,0.052 0.031,0.1 0.031,0.154 0,0.055 -0.021,0.102 -0.031,0.154 l 3.552,0.83 v -1.968 l -3.552,0.83 z"
         id="path4749"
         style="fill:#b4e1fa" />
      <rect
         width="11.813"
         height="0.583"
         x="282.97101"
         y="629.55103"
         id="rect4751"
         style="fill:#004b53" />
      <rect
         width="2.5940001"
         height="0.50300002"
         x="290.909"
         y="630.13501"
         id="rect4753"
         style="fill:#b5daef" />
      <rect
         width="3.313"
         height="1.3329999"
         x="294.97101"
         y="631.07202"
         id="rect4755"
         style="fill:#004b53" />
      <rect
         width="3.8069999"
         height="1.9680001"
         x="272.80499"
         y="630.76099"
         id="rect4757"
         style="fill:#004b53" />
    </g>
  </g>
</svg>
