<?xml version="1.0" encoding="utf-8"?>
<!-- Generator: Adobe Illustrator 16.0.0, SVG Export Plug-In . SVG Version: 6.00 Build 0)  -->
<!DOCTYPE svg PUBLIC "-//W3C//DTD SVG 1.1//EN" "http://www.w3.org/Graphics/SVG/1.1/DTD/svg11.dtd">
<svg version="1.1" id="Calque_1" xmlns="http://www.w3.org/2000/svg" xmlns:xlink="http://www.w3.org/1999/xlink" x="0px" y="0px"
	 width="141.732px" height="141.732px" viewBox="0 0 141.732 141.732" enable-background="new 0 0 141.732 141.732"
	 xml:space="preserve">
<path fill="#009FE3" d="M141.732,70.866C141.732,31.729,110.005,0,70.866,0S0,31.729,0,70.866c0,21.699,9.757,41.116,25.119,54.115
	c4.245-12.719,16.036-35.78,45.748-35.78c29.711,0,41.503,23.062,45.748,35.78C131.976,111.982,141.732,92.565,141.732,70.866z"/>
<path fill="#E30613" d="M70.866,98.678c-15.738,0-29.083,14.454-33.795,34.492h67.59C99.948,113.132,86.604,98.678,70.866,98.678z"
	/>
<path fill="#E72B47" d="M70.866,89.201c-29.711,0-41.503,23.062-45.748,35.78c3.682,3.116,7.683,5.867,11.952,8.188
	c4.712-20.038,18.057-34.492,33.795-34.492s29.082,14.454,33.795,34.492c4.27-2.321,8.271-5.072,11.953-8.188
	C112.369,112.263,100.577,89.201,70.866,89.201z"/>
<path fill="#3C3C3B" d="M37.071,133.17c0,0,4.845-43.969,33.795-43.969c28.951,0,33.795,43.969,33.795,43.969H37.071z"/>
<path d="M70.866,98.678c-15.738,0-29.083,14.454-33.795,34.492c10.045,5.46,21.558,8.563,33.795,8.563
	c12.238,0,23.75-3.103,33.795-8.563C99.948,113.132,86.604,98.678,70.866,98.678z"/>
<path fill="#FFFFFF" d="M78.154,89.201H63.578v8.953c0,0,0,10,7.288,10s7.288-10,7.288-10V89.201z"/>
<path fill="#FFFFFF" d="M70.866,43.055v55.623c13.23,0,23.955-12.452,23.955-27.812S84.097,43.055,70.866,43.055z"/>
<path fill="#F6F6F6" d="M46.911,70.866c0,15.359,10.725,27.812,23.955,27.812V43.055C57.636,43.055,46.911,55.507,46.911,70.866z"/>
<path fill="#00405B" d="M70.866,37.862c-30.617,0-23.955,33.004-23.955,33.004s-0.551-10.1,23.955-10.1l-12.284,5.818
	c0,0,24.567,1.983,24.567-12.221l11.672,16.502C94.821,70.866,101.483,37.862,70.866,37.862"/>
<g>
	<g>
		<path d="M91.821,31.907h-41.91v18.859c0,0-2.688,10,20.955,10s20.955-10,20.955-10V31.907z"/>
		<polygon points="111.815,29.388 70.866,8.439 29.917,29.388 70.866,50.337 		"/>
		<polygon points="111.815,25.388 70.866,4.439 29.917,25.388 70.866,46.337 		"/>
		<polygon fill="#9D9D9C" points="29.917,25.388 70.866,46.337 70.866,50.337 29.917,29.388 		"/>
		<polygon fill="#3C3C3B" points="111.815,25.388 111.815,29.388 70.866,50.337 70.866,46.337 		"/>
	</g>
	<polygon fill="#E72B47" points="50.392,29.388 42.661,31.907 42.661,35.907 42.661,48.337 45.487,50.337 45.487,37.862 
		45.487,33.553 53.392,30.388 	"/>
</g>
<circle cx="60.888" cy="70.866" r="2.095"/>
<circle cx="80.844" cy="70.866" r="2.095"/>
</svg>
