<?xml version="1.0" encoding="UTF-8" standalone="no"?>
<!-- Created with Inkscape (http://www.inkscape.org/) -->

<svg
   xmlns:dc="http://purl.org/dc/elements/1.1/"
   xmlns:cc="http://creativecommons.org/ns#"
   xmlns:rdf="http://www.w3.org/1999/02/22-rdf-syntax-ns#"
   xmlns:svg="http://www.w3.org/2000/svg"
   xmlns="http://www.w3.org/2000/svg"
   xmlns:sodipodi="http://sodipodi.sourceforge.net/DTD/sodipodi-0.dtd"
   xmlns:inkscape="http://www.inkscape.org/namespaces/inkscape"
   width="150"
   height="150"
   id="svg2"
   version="1.1"
   inkscape:version="0.48.4 r9939"
   sodipodi:docname="unlimited.svg">
  <defs
     id="defs4" />
  <sodipodi:namedview
     id="base"
     pagecolor="#ffffff"
     bordercolor="#666666"
     borderopacity="1.0"
     inkscape:pageopacity="0.0"
     inkscape:pageshadow="2"
     inkscape:zoom="1.4"
     inkscape:cx="-18.072199"
     inkscape:cy="46.586635"
     inkscape:document-units="px"
     inkscape:current-layer="layer1"
     showgrid="false"
     inkscape:window-width="1280"
     inkscape:window-height="748"
     inkscape:window-x="0"
     inkscape:window-y="0"
     inkscape:window-maximized="1" />
  <metadata
     id="metadata7">
    <rdf:RDF>
      <cc:Work
         rdf:about="">
        <dc:format>image/svg+xml</dc:format>
        <dc:type
           rdf:resource="http://purl.org/dc/dcmitype/StillImage" />
        <dc:title></dc:title>
      </cc:Work>
    </rdf:RDF>
  </metadata>
  <g
     inkscape:label="Layer 1"
     inkscape:groupmode="layer"
     id="layer1"
     transform="translate(0,-902.36218)">
    <g
       transform="matrix(0.96770597,0,0,0.96770597,-411.23481,628.30894)"
       id="g3789">
      <circle
         style="fill:#ee7246"
         sodipodi:ry="75"
         sodipodi:rx="75"
         sodipodi:cy="360.85199"
         sodipodi:cx="502.83301"
         d="m 577.83301,360.85199 c 0,41.42136 -33.57865,75 -75,75 -41.42136,0 -75,-33.57864 -75,-75 0,-41.42136 33.57864,-75 75,-75 41.42135,0 75,33.57864 75,75 z"
         id="circle3"
         r="75"
         cy="360.85199"
         cx="502.83301" />
      <rect
         style="fill:#58a3b6"
         id="rect5"
         height="102.667"
         width="68.638"
         y="308.944"
         x="468.51401" />
      <rect
         style="fill:#45818f"
         id="rect7"
         height="82.273003"
         width="57.446999"
         y="323.34201"
         x="477.23401" />
      <rect
         style="fill:#e7393b"
         id="rect305"
         height="17.884001"
         width="57.446999"
         y="320.276"
         x="474.255" />
      <rect
         style="fill:#ffffff"
         id="rect307"
         height="64.543999"
         width="57.446999"
         y="338.16101"
         x="474.255" />
      <g
         id="g309">
        <g
           id="g311">
          <path
             style="fill:#034354"
             inkscape:connector-curvature="0"
             id="path313"
             d="m 509.354,358.338 c -3.332,0 -5.537,2.724 -7.483,5.129 -1.662,2.054 -3.232,3.993 -5.144,3.993 -1.987,0 -3.207,-2.042 -3.207,-3.506 0,-1.357 1.338,-3.33 3.436,-3.33 2.035,0 3.096,1.629 3.149,1.713 0.33,0.534 1.03,0.702 1.566,0.374 0.539,-0.328 0.71,-1.031 0.381,-1.57 -0.07,-0.114 -1.746,-2.802 -5.097,-2.802 -3.372,0 -5.721,2.96 -5.721,5.616 0,2.74 2.256,5.792 5.492,5.792 3.002,0 4.994,-2.461 6.92,-4.841 1.782,-2.201 3.465,-4.281 5.707,-4.281 1.334,0 2.21,0.452 2.679,1.382 0.406,0.807 0.406,1.72 0.405,2.036 0,0.181 -0.096,1.091 -0.54,1.91 -0.506,0.933 -1.224,1.367 -2.262,1.367 -2.09,0 -3.22,-1.359 -3.645,-1.87 -0.111,-0.133 -0.19,-0.229 -0.296,-0.32 -0.479,-0.41 -1.2,-0.355 -1.611,0.124 -0.396,0.462 -0.358,1.15 0.075,1.566 0.021,0.023 0.046,0.054 0.075,0.09 0.554,0.667 2.24,2.696 5.402,2.696 3.844,0 5.087,-3.748 5.087,-5.578 0,-1.166 -0.218,-2.191 -0.65,-3.048 -0.605,-1.206 -1.916,-2.642 -4.718,-2.642 z" />
        </g>
      </g>
      <path
         style="fill:#b4e1fa"
         inkscape:connector-curvature="0"
         id="path315"
         d="m 474.255,387.41 c 0,0 7.482,4.106 11.409,2.261 0,0 -3.035,7.742 6.605,13.034 h -16.422 l -1.592,-9.643 v -5.652 z" />
      <path
         style="fill:#d9effd"
         inkscape:connector-curvature="0"
         id="path317"
         d="m 474.255,387.41 c 0,0 7.78,15.295 18.014,15.295 H 474.255 V 387.41 z" />
      <circle
         style="fill:#034354"
         sodipodi:ry="2.6659999"
         sodipodi:rx="2.6659999"
         sodipodi:cy="326.552"
         sodipodi:cx="490.14401"
         d="m 492.81001,326.552 c 0,1.47239 -1.19361,2.666 -2.666,2.666 -1.47239,0 -2.666,-1.19361 -2.666,-2.666 0,-1.47239 1.19361,-2.666 2.666,-2.666 1.47239,0 2.666,1.19361 2.666,2.666 z"
         id="circle319"
         r="2.6659999"
         cy="326.552"
         cx="490.14401" />
      <circle
         style="fill:#034354"
         sodipodi:ry="2.6659999"
         sodipodi:rx="2.6659999"
         sodipodi:cy="326.552"
         sodipodi:cx="514.72302"
         d="m 517.38902,326.552 c 0,1.47239 -1.19361,2.666 -2.666,2.666 -1.47239,0 -2.666,-1.19361 -2.666,-2.666 0,-1.47239 1.19361,-2.666 2.666,-2.666 1.47239,0 2.666,1.19361 2.666,2.666 z"
         id="circle321"
         r="2.6659999"
         cy="326.552"
         cx="514.72302" />
      <rect
         style="fill:#b4e1fa"
         id="rect323"
         height="13.851"
         width="2.181"
         y="313.35101"
         x="489.05399" />
      <rect
         style="fill:#b4e1fa"
         id="rect325"
         height="13.851"
         width="2.181"
         y="313.35101"
         x="513.63202" />
    </g>
  </g>
</svg>
