<?xml version="1.0" encoding="UTF-8" standalone="no"?>
<!-- Created with Inkscape (http://www.inkscape.org/) -->

<svg
   xmlns:dc="http://purl.org/dc/elements/1.1/"
   xmlns:cc="http://creativecommons.org/ns#"
   xmlns:rdf="http://www.w3.org/1999/02/22-rdf-syntax-ns#"
   xmlns:svg="http://www.w3.org/2000/svg"
   xmlns="http://www.w3.org/2000/svg"
   xmlns:sodipodi="http://sodipodi.sourceforge.net/DTD/sodipodi-0.dtd"
   xmlns:inkscape="http://www.inkscape.org/namespaces/inkscape"
   width="500"
   height="250"
   id="svg5553"
   version="1.1"
   inkscape:version="0.48.4 r9939"
   sodipodi:docname="welcome.svg">
  <defs
     id="defs5555" />
  <sodipodi:namedview
     id="base"
     pagecolor="#ffffff"
     bordercolor="#666666"
     borderopacity="1.0"
     inkscape:pageopacity="0.0"
     inkscape:pageshadow="2"
     inkscape:zoom="0.70000001"
     inkscape:cx="246.53922"
     inkscape:cy="123.76587"
     inkscape:document-units="px"
     inkscape:current-layer="layer1"
     showgrid="false"
     inkscape:window-width="1280"
     inkscape:window-height="748"
     inkscape:window-x="0"
     inkscape:window-y="0"
     inkscape:window-maximized="1" />
  <metadata
     id="metadata5558">
    <rdf:RDF>
      <cc:Work
         rdf:about="">
        <dc:format>image/svg+xml</dc:format>
        <dc:type
           rdf:resource="http://purl.org/dc/dcmitype/StillImage" />
        <dc:title />
      </cc:Work>
    </rdf:RDF>
  </metadata>
  <g
     inkscape:label="Layer 1"
     inkscape:groupmode="layer"
     id="layer1"
     transform="translate(0,-802.36215)">
    <g
       id="g11699"
       transform="translate(-11.428571,337.14285)">
      <path
         style="fill:#ffffff"
         inkscape:connector-curvature="0"
         id="path997"
         d="m 106.81497,1018.2448 6.85655,34.2881 h 108.11207 c 0.70455,-15.6167 1.13187,-30.7989 0.69042,-39.4318 -0.0335,-0.6481 -0.083,-1.2467 -0.1236,-1.8682 -3.23316,-2.0113 -7.42161,-6.7383 -12.83198,-15.48422 -2.02359,-3.27024 -4.66874,-5.95777 -7.78006,-8.14911 -0.34609,0.61626 -0.82638,1.46913 -1.21133,2.15956 -0.31254,-0.0636 -0.61625,-0.11478 -0.93233,-0.18188 -6.8848,-1.47973 -12.69248,-2.97535 -16.6037,-4.53631 -16.08808,1.01533 -35.13738,2.34674 -49.27604,3.73464 -0.72574,3.4839 -4.52571,9.66592 -21.45431,13.42172 -0.70808,0.1572 -1.4038,0.2773 -2.09776,0.3938 0.48559,2.9612 2.01653,4.6564 2.01653,4.6564 0,0 -0.59507,5.1843 -5.42979,10.4587 0.0388,0.3355 0.0653,0.5386 0.0653,0.5386 z" />
      <path
         style="fill:#628ea0"
         inkscape:connector-curvature="0"
         id="path1005"
         d="m 70.498029,995.31429 c 0,0 4.116049,-2.31141 5.410371,-2.78641 1.294322,-0.475 32.80126,8.57462 32.80126,8.57462 l 1.65454,2.4457 1.60157,2.3273 0.85464,1.7658 -20.536101,2.5127 -19.974583,-6.567 -2.353794,-6.08843 0.542097,-2.18428 z" />
      <polygon
         style="fill:#628ea0"
         transform="matrix(1.765787,0,0,1.765787,-37.684677,496.30995)"
         id="polygon1007"
         points="139.996,282.842 146.406,285.656 154.219,282.094 154.716,279.543 151.531,279.031 139.139,281.481 " />
      <path
         style="fill:#fdd08f"
         inkscape:connector-curvature="0"
         id="path1009"
         d="m 487.50275,913.51244 c 0,0 0.14832,-5.72644 -5.36976,-7.04372 -0.43262,-0.0795 -0.86524,-0.15892 -1.32787,-0.22249 -0.29489,-1.26607 -1.28903,-2.69989 -3.98715,-3.6852 -5.90126,-2.15955 -14.1104,1.37732 -14.1104,1.37732 -7.8295,-5.98249 -29.18493,9.3057 -32.66706,11.87668 l -20.73211,11.10504 c -9.10086,-2.26728 -12.42937,-7.31389 -12.42937,-7.31389 0,0 -2.08187,-16.81383 -10.79426,-20.23769 -8.71239,-3.42386 -13.5842,5.54281 -9.01081,15.40296 1.92294,4.1443 -0.62685,12.00559 -4.222,19.72914 l 0,0.007 c 0,0 -2.53567,6.28267 -1.34023,12.65716 l -2.38205,1.2749 c 0,0 51.82232,-2.50565 46.69094,37.83905 0,0 41.46951,-15.82322 75.20664,-59.21213 0.28782,-0.56859 5.60814,-11.33459 -3.52451,-13.55419 z" />
      <path
         style="fill:#f7ae83"
         inkscape:connector-curvature="0"
         id="path1011"
         d="m 376.98567,925.32733 c -0.18187,0.0159 -0.36552,0.0565 -0.55269,0.10241 -0.88466,2.88353 -2.14543,5.98602 -3.58278,9.07085 l 0,0.007 c 0,0 -2.53567,6.28267 -1.34023,12.65716 l -2.38205,1.2749 c 0,0 3.26141,-0.15715 8.06611,0.24368 -3.23845,-9.3057 -0.20836,-23.35606 -0.20836,-23.35606 z" />
      <path
         style="fill:#fdd08f"
         inkscape:connector-curvature="0"
         id="path1013"
         d="m 404.38362,988.71378 c 0,0 8.42987,-0.62509 15.9998,-4.41976 7.56816,-3.79468 -3.63223,-32.08259 -3.63223,-32.08259 l -31.90247,-8.85012 -10.20978,4.31911 7.26268,25.91116 22.482,15.1222 z" />
      <path
         style="fill:#dff2fd"
         inkscape:connector-curvature="0"
         id="path1015"
         d="m 404.54431,1005.8048 6.11845,-0.9482 c 0,0 7.45339,-39.00446 -14.89794,-52.11367 -22.35134,-13.1092 -28.64283,-2.10835 -28.64283,-2.10835 l 37.42232,55.17022 z" />
      <path
         style="fill:#cfe1eb"
         inkscape:connector-curvature="0"
         id="path1017"
         d="m 159.90511,1029.6306 -1.58744,5.8183 c 0,0 14.97211,-10.4111 26.63337,-6.3268 l -3.30732,-3.6076 -21.68916,3.9431" />
      <path
         style="fill:#fdd08f"
         inkscape:connector-curvature="0"
         id="path1019"
         d="m 119.98244,1000.956 c 0,0 33.16678,-8.02905 41.55779,-37.9044 0,0 14.792,24.79165 46.46492,29.2379 -27.16663,35.0526 -88.02271,8.6665 -88.02271,8.6665 z" />
      <g
         transform="matrix(1.765787,0,0,1.765787,-37.684677,496.30995)"
         id="g1021">
        <path
           style="fill:none"
           inkscape:connector-curvature="0"
           id="path1023"
           d="m 112.875,291.135 c -12.442,-0.519 -23.585,-5.344 -23.585,-5.344 0,0 18.783,-4.547 23.535,-21.466 0,0 6.435,10.782 20.098,15.143 -2.238,3.812 -7.564,9.267 -20.048,11.667 z" />
        <path
           style="fill:#f7ae83"
           inkscape:connector-curvature="0"
           id="path1025"
           d="m 132.923,279.468 c 1.928,0.615 3.998,1.104 6.216,1.415 -6.637,8.564 -16.824,10.646 -26.264,10.252 12.484,-2.4 17.81,-7.855 20.048,-11.667 z" />
      </g>
      <path
         style="fill:#fdd08f"
         inkscape:connector-curvature="0"
         id="path1027"
         d="m 207.94688,873.9959 15.50008,-14.10511 c 0,0 4.72525,-3.11485 4.13194,8.14734 -0.5933,11.26219 1.0118,36.55356 -13.58596,33.95432 -14.59776,-2.601 -6.04606,-27.99655 -6.04606,-27.99655 z" />
      <g
         transform="matrix(1.765787,0,0,1.765787,-37.684677,496.30995)"
         id="g1029">
        <path
           style="fill:none"
           inkscape:connector-curvature="0"
           id="path1031"
           d="m 139.17,224.074 c 2.875,0.809 7.648,-13.978 8.977,-18.299 0.665,-0.251 2.347,-0.396 2.077,4.741 -0.336,6.378 0.573,20.701 -7.694,19.229 -3.357,-0.598 -4.552,-3.324 -4.787,-6.352 0.406,0.29 0.875,0.526 1.427,0.681 z" />
        <path
           style="fill:#f7ae83"
           inkscape:connector-curvature="0"
           id="path1033"
           d="m 139.17,224.074 c -0.552,-0.155 -1.021,-0.391 -1.428,-0.681 -0.345,-4.429 1.363,-9.502 1.363,-9.502 l 8.778,-7.988 c 0,0 0.102,-0.067 0.263,-0.127 -1.328,4.32 -6.102,19.107 -8.976,18.298 z" />
      </g>
      <path
         style="fill:#fdd08f"
         inkscape:connector-curvature="0"
         id="path1035"
         d="M 62.013422,892.73443 66.662739,874.93 c 15.614855,-55.56226 74.574481,-55.13317 103.047791,-49.26193 28.47332,5.87124 43.04812,40.58662 41.51365,70.29069 -1.52387,29.50453 24.07298,57.39161 24.41554,57.76065 0.5986,1.34377 0.94823,2.10306 0.94823,2.10306 0,0 -51.87176,9.47521 -61.44409,0.34433 -9.5741,-9.13089 -57.21503,25.85818 -57.21503,25.85818 0,0 -8.32921,-1.80817 -18.953954,-10.70773 -7.259151,5.66641 -18.570782,12.97147 -23.710988,9.78069 -7.804779,-4.84355 -4.926546,-7.57876 -1.024157,-21.46844 2.000637,-7.11965 -0.201299,-17.55545 -2.823493,-26.04182 -2.057142,-4.50982 -3.840587,-9.2439 -5.288532,-14.20929 -0.04415,-0.0989 -0.07416,-0.16775 -0.07416,-0.16775 0,0 0.01766,-0.0212 0.02119,-0.0247 -2.36792,-8.17383 -3.822929,-16.97275 -4.06131,-26.45149 z" />
      <g
         id="g6037">
        <g
           id="g6033">
          <ellipse
             style="fill:#2b4d5a"
             sodipodi:ry="7.9899998"
             sodipodi:rx="2.158"
             sodipodi:cy="225.58701"
             sodipodi:cx="101.033"
             id="ellipse1037"
             ry="7.9899998"
             rx="2.158"
             cy="225.58701"
             cx="101.033"
             transform="matrix(1.7656104,-0.02789943,0.02789943,1.7656104,-43.951985,499.17653)"
             d="m 103.191,225.58701 c 0,4.41275 -0.96617,7.99 -2.158,7.99 -1.191833,0 -2.158003,-3.57725 -2.158003,-7.99 0,-4.41276 0.96617,-7.99 2.158003,-7.99 1.19183,0 2.158,3.57724 2.158,7.99 z">
            <animate
               id="animate9364"
               repeatCount="indefinite"
               begin="0s"
               dur="1s"
               values="7.98;7.98;7.98;7.98;7.98;7.98;7.98;7.98;7.98;7.98;7.98;7.98;7.98;0.4;0.4;7.98;7.98;7.98;7.98;7.98;7.98;                   7.98;7.98;7.98;7.98;7.98;7.98;7.98;7.98;7.98;7.98;7.98;7.98;7.98;7.98;7.98;7.98;7.98;7.98;7.98;7.98;7.98;7.98;                   7.98;7.98;7.98;7.98;7.98;7.98;7.98;7.98;7.98;7.98;7.98;7.98;7.98;7.98;7.98;7.98;7.98;7.98;7.98;7.98;7.98;7.98;                   7.98;7.98;7.98;7.98;7.98;7.98;7.98;7.98;7.98;7.98;7.98;7.98;7.98;7.98;7.98;7.98;7.98;7.98;7.98;7.98;7.98;7.98;                   7.98;7.98;7.98;7.98;7.98;7.98;7.98;7.98;7.98;7.98;7.98;7.98;7.98;7.98;7.98;7.98;7.98;7.98;7.98;7.98;7.98;7.98;                   7.98;7.98;7.98;7.98;7.98;7.98;7.98;7.98;7.98;7.98;7.98;"
               attributeName="ry" />
          </ellipse>
          <ellipse
             style="fill:#2b4d5a"
             sodipodi:ry="10.036"
             sodipodi:rx="3.9649999"
             sodipodi:cy="223.612"
             sodipodi:cx="116.595"
             id="ellipse1039"
             ry="10.036"
             rx="3.9649999"
             cy="223.612"
             cx="116.595"
             transform="matrix(1.7260568,-0.37258106,0.37258106,1.7260568,-116.36726,548.64435)"
             d="m 120.56,223.612 c 0,5.54273 -1.77519,10.036 -3.965,10.036 -2.18981,0 -3.965,-4.49327 -3.965,-10.036 0,-5.54273 1.77519,-10.036 3.965,-10.036 2.18981,0 3.965,4.49327 3.965,10.036 z">
            <animate
               id="animate9367"
               repeatCount="indefinite"
               begin="0s"
               dur="1s"
               values="10;10;10;10;10;10;10;10;10;10;10;10;10;0.4;0.4;10;10;10;10;10;10;                   10;10;10;10;10;10;10;10;10;10;10;10;10;10;10;10;10;10;10;10;10;10;                   10;10;10;10;10;10;10;10;10;10;10;10;10;10;10;10;10;10;10;10;10;10;                   10;10;10;10;10;10;10;10;10;10;10;10;10;10;10;10;10;10;10;10;10;10;                   10;10;10;10;10;10;10;10;10;10;10;10;10;10;10;10;10;10;10;10;10;10;                   10;10;10;10;10;10;10;10;10;10;10;"
               attributeName="ry" />
          </ellipse>
        </g>
      </g>
      <path
         style="fill:#f7ae83"
         inkscape:connector-curvature="0"
         id="path1041"
         d="m 75.186193,855.35448 c 0,0 -5.099593,27.29024 -2.224891,33.69828 2.874701,6.40804 -6.132579,1.79934 -8.947243,-3.97655 -0.0018,0.002 3.916515,-20.25358 11.172134,-29.72173 z" />
      <path
         style="fill:#f7ae83"
         inkscape:connector-curvature="0"
         id="path1043"
         d="m 66.208932,925.13662 c 0,0 3.988913,-9.53172 7.954871,-6.7665 0,0 1.37025,0.82286 3.570421,2.46857 0.128902,0.20307 0.266634,0.42203 0.413194,0.65688 -0.423789,0.10948 -0.663936,0.18011 -0.663936,0.18011 0,0 14.795529,19.86157 7.047256,36.14742 -4.479802,9.41518 -3.656945,19.77152 -2.044781,26.85056 -1.811698,-0.83345 -3.415032,-1.79404 -4.666975,-2.81643 -9.533484,-7.78006 -6.907759,-14.02918 -6.907759,-14.02918 0,0 9.431068,-22.23479 -4.702291,-42.69143 z" />
      <path
         style="fill:#2b4d5a"
         inkscape:connector-curvature="0"
         id="path1045"
         d="M 66.498521,983.75369 C 48.416862,963.12929 54.777227,949.72697 54.777227,949.72697 l 0.0018,0.004 c 2.352028,-6.79121 8.472246,-11.94731 16.093383,-12.69424 9.242129,-0.90585 17.581941,4.97952 20.078764,13.58596 -2.057142,-6.16966 -8.214442,-10.32632 -15.028614,-9.65708 -7.898365,0.77341 -13.681317,7.73591 -12.916731,15.54952 0.462636,4.71994 3.213732,8.66295 7.056084,10.88077 1.347296,0.73281 2.638086,1.2184 3.821163,1.52741 0.28959,0.0706 0.579179,0.1395 0.875831,0.19071 l -0.0035,0.0106 c 3.356761,0.68159 5.671708,0.009 5.671708,0.009 4.614002,-0.75752 8.466949,-4.20787 12.791361,-8.08731 3.593377,-3.22256 5.458048,-5.70702 7.220304,-7.76769 3.37795,-3.9536 14.08039,-16.47479 28.88475,-18.48426 2.31141,-0.31431 11.18802,-1.38614 20.02402,3.8706 1.42323,0.84582 9.52465,5.86595 12.74721,14.89972 1.40733,-9.48758 8.38043,-15.98214 9.61295,-17.08929 7.64938,-6.87244 16.56484,-7.54168 18.89215,-7.68294 14.91384,-0.90232 27.84116,9.3057 31.92366,12.52826 2.12778,1.67926 4.43919,3.75406 8.59056,6.2191 4.99717,2.96652 9.44519,5.60284 14.11746,5.45098 0,0 2.40147,0.2119 5.56223,-1.10891 l -0.007,-0.0106 c 0.27899,-0.10772 0.55093,-0.23309 0.82109,-0.35669 1.10185,-0.53504 2.27257,-1.26078 3.45211,-2.24079 3.33911,-2.92237 5.27264,-7.32272 4.81001,-12.04266 -0.76635,-7.81361 -7.78889,-13.52064 -15.68902,-12.74722 -6.81417,0.66747 -12.04796,5.94011 -12.86905,12.39053 0.78047,-8.92782 7.81713,-16.31941 17.06103,-17.22526 7.62114,-0.74692 14.62601,3.12368 18.25117,9.32866 l 0,-0.004 c 0,0 8.836,11.90846 -4.88769,35.63887 -0.0212,0.0371 -0.0406,0.0724 -0.0618,0.10948 -0.24014,0.4132 -0.48382,0.82816 -0.7381,1.24841 -0.14126,0.23309 -0.28429,0.46088 -0.42732,0.69043 -0.004,0.005 -0.007,0.0106 -0.009,0.0159 -14.90324,23.96526 -39.04684,26.02064 -39.04684,26.02064 l 0.0176,-0.0159 c -1.27666,0.2119 -2.56215,0.39554 -3.86883,0.52444 -22.44316,2.19841 -43.12052,-8.88191 -54.25558,-26.8329 -7.43926,19.76976 -25.57212,34.65358 -48.01527,36.85198 -1.30668,0.1272 -2.60454,0.1978 -3.89709,0.2366 l 0.0194,0.012 c 0,0 -24.558567,2.7246 -43.920422,-18.55668 -0.333733,-0.36728 -0.656872,-0.73104 -0.974714,-1.09302 -0.01942,-0.023 -0.03885,-0.0459 -0.06004,-0.0706 z" />
      <path
         style="fill:#fdd08f"
         inkscape:connector-curvature="0"
         id="path1047"
         d="m 74.465752,889.75378 c 0,0 -33.781271,-15.93976 -36.87493,-12.21925 -3.091893,3.72052 -0.646278,17.87507 4.44272,30.50221 5.087233,12.62891 11.747781,21.74213 35.128567,14.89441 23.379021,-6.84772 -2.696357,-33.17737 -2.696357,-33.17737 z" />
      <path
         style="fill:#f7ae83"
         inkscape:connector-curvature="0"
         id="path1049"
         d="m 61.139358,894.33247 c 0,0 -17.248208,-14.24108 -17.340029,-5.51279 -0.09182,8.72828 3.217264,17.79383 10.824275,22.17475 0,0 2.537436,1.22193 -0.552692,-2.93297 -3.090127,-4.1549 -7.898365,-17.10871 -5.221432,-15.83205 2.673402,1.27667 18.58844,6.70117 12.289878,2.10306 z" />
      <path
         style="fill:#f7ae83"
         inkscape:connector-curvature="0"
         id="path1051"
         d="m 65.627988,905.84187 c 0,0 1.27843,3.67283 -2.597472,3.63928 -3.875903,-0.0335 -3.296725,4.22023 -0.399068,4.32618 2.897656,0.10595 7.97606,-5.89066 2.99654,-7.96546 z" />
      <path
         style="fill:#cfe1eb"
         inkscape:connector-curvature="0"
         id="path1053"
         d="m 121.82416,1013.5937 c 0,0 19.37068,18.117 31.41688,20.4831 l -4.17432,3.3603 c 0,0 -18.48073,-11.0255 -27.24256,-23.8434 z" />
      <path
         style="fill:#cfe1eb"
         inkscape:connector-curvature="0"
         id="path1055"
         d="m 188.21598,1029.5988 5.1508,4.1214 c 0,0 12.99796,-19.7186 12.45939,-28.6941 -0.002,0 -9.36926,23.5433 -17.61019,24.5727 z" />
      <path
         style="fill:#628ea0"
         inkscape:connector-curvature="0"
         id="path1057"
         d="m 235.51082,989.92335 c 0,0 81.38689,0.81579 133.14387,-44.57906 0,0 55.34506,5.58871 33.2427,72.30191 0,0 -67.08048,31.0567 -146.55502,14.7514 l -20.40543,-32.1444 -1.82936,-4.61577 2.40324,-5.71408 z" />
      <rect
         x="286.47583"
         y="1040.9198"
         transform="matrix(0.99636413,-0.08519693,0.08519693,0.99636413,0,0)"
         width="1.1619297"
         height="9.1577005"
         id="rect1061"
         style="fill:#34606f" />
      <rect
         x="293.16312"
         y="1039.6521"
         transform="matrix(0.99636413,-0.08519693,0.08519693,0.99636413,0,0)"
         width="1.1619297"
         height="9.1577005"
         id="rect1063"
         style="fill:#34606f" />
      <rect
         x="300.07526"
         y="1038.4885"
         transform="matrix(0.99636413,-0.08519693,0.08519693,0.99636413,0,0)"
         width="1.1619297"
         height="9.1577005"
         id="rect1065"
         style="fill:#34606f" />
      <rect
         x="307.1319"
         y="1037.2329"
         transform="matrix(0.99636413,-0.08519693,0.08519693,0.99636413,0,0)"
         width="1.1619297"
         height="9.1577005"
         id="rect1067"
         style="fill:#34606f" />
      <circle
         transform="matrix(1.765787,0,0,1.765787,-37.684677,496.30995)"
         style="fill:#84a8b2"
         sodipodi:ry="1.937"
         sodipodi:rx="1.937"
         sodipodi:cy="295.39801"
         sodipodi:cx="233.68201"
         d="m 235.61901,295.39801 c 0,1.06978 -0.86723,1.937 -1.937,1.937 -1.06978,0 -1.937,-0.86722 -1.937,-1.937 0,-1.06978 0.86722,-1.937 1.937,-1.937 1.06977,0 1.937,0.86722 1.937,1.937 z"
         id="circle1071"
         r="1.937"
         cy="295.39801"
         cx="233.68201" />
      <path
         style="fill:#34606f"
         inkscape:connector-curvature="0"
         id="path1073"
         d="m 375.21813,1021.0824 c -1.7446,0.1501 -3.28437,-1.1477 -3.43446,-2.8923 -0.14833,-1.7429 1.14776,-3.2844 2.89236,-3.4327 1.7446,-0.1484 3.28436,1.1477 3.43446,2.8923 0.15009,1.7446 -1.14777,3.2826 -2.89236,3.4327 z m -0.51738,-6.0584 c -1.59627,0.136 -2.78465,1.5468 -2.64868,3.1431 0.13597,1.5963 1.54683,2.7847 3.1431,2.6469 1.59627,-0.1359 2.78465,-1.5468 2.64868,-3.1431 -0.13596,-1.5962 -1.54683,-2.7846 -3.1431,-2.6469 z" />
      <circle
         transform="matrix(1.765787,0,0,1.765787,-37.684677,496.30995)"
         style="fill:#34606f"
         sodipodi:ry="0.329"
         sodipodi:rx="0.329"
         sodipodi:cy="295.797"
         sodipodi:cx="233.278"
         d="m 233.607,295.797 c 0,0.1817 -0.1473,0.329 -0.329,0.329 -0.1817,0 -0.329,-0.1473 -0.329,-0.329 0,-0.1817 0.1473,-0.329 0.329,-0.329 0.1817,0 0.329,0.1473 0.329,0.329 z"
         id="circle1075"
         r="0.329"
         cy="295.797"
         cx="233.278" />
      <circle
         transform="matrix(1.765787,0,0,1.765787,-37.684677,496.30995)"
         style="fill:#34606f"
         sodipodi:ry="0.329"
         sodipodi:rx="0.329"
         sodipodi:cy="295.03799"
         sodipodi:cx="233.321"
         d="m 233.65,295.03799 c 0,0.18171 -0.1473,0.329 -0.329,0.329 -0.1817,0 -0.329,-0.14729 -0.329,-0.329 0,-0.1817 0.1473,-0.329 0.329,-0.329 0.1817,0 0.329,0.1473 0.329,0.329 z"
         id="circle1077"
         r="0.329"
         cy="295.03799"
         cx="233.321" />
      <circle
         transform="matrix(1.765787,0,0,1.765787,-37.684677,496.30995)"
         style="fill:#34606f"
         sodipodi:ry="0.329"
         sodipodi:rx="0.329"
         sodipodi:cy="295.90399"
         sodipodi:cx="234.056"
         d="m 234.385,295.90399 c 0,0.1817 -0.1473,0.329 -0.329,0.329 -0.1817,0 -0.329,-0.1473 -0.329,-0.329 0,-0.1817 0.1473,-0.329 0.329,-0.329 0.1817,0 0.329,0.1473 0.329,0.329 z"
         id="circle1079"
         r="0.329"
         cy="295.90399"
         cx="234.056" />
      <circle
         transform="matrix(1.765787,0,0,1.765787,-37.684677,496.30995)"
         style="fill:#34606f"
         sodipodi:ry="0.329"
         sodipodi:rx="0.329"
         sodipodi:cy="295.14499"
         sodipodi:cx="234.09801"
         d="m 234.42701,295.14499 c 0,0.1817 -0.1473,0.329 -0.329,0.329 -0.1817,0 -0.329,-0.1473 -0.329,-0.329 0,-0.1817 0.1473,-0.329 0.329,-0.329 0.1817,0 0.329,0.1473 0.329,0.329 z"
         id="circle1081"
         r="0.329"
         cy="295.14499"
         cx="234.09801" />
      <circle
         transform="matrix(1.765787,0,0,1.765787,-37.684677,496.30995)"
         style="fill:#84a8b2"
         sodipodi:ry="1.937"
         sodipodi:rx="1.937"
         sodipodi:cy="294.52701"
         sodipodi:cx="237.51601"
         d="m 239.45301,294.52701 c 0,1.06977 -0.86723,1.937 -1.937,1.937 -1.06978,0 -1.937,-0.86723 -1.937,-1.937 0,-1.06978 0.86722,-1.937 1.937,-1.937 1.06977,0 1.937,0.86722 1.937,1.937 z"
         id="circle1085"
         r="1.937"
         cy="294.52701"
         cx="237.51601" />
      <path
         style="fill:#34606f"
         inkscape:connector-curvature="0"
         id="path1087"
         d="m 381.98815,1019.5444 c -1.74459,0.1501 -3.28436,-1.1477 -3.43445,-2.8923 -0.14833,-1.7429 1.14776,-3.2844 2.89236,-3.4327 1.74459,-0.1484 3.28436,1.1477 3.43445,2.8923 0.15009,1.7446 -1.14776,3.2844 -2.89236,3.4327 z m -0.51914,-6.0566 c -1.59627,0.1359 -2.78464,1.5468 -2.64868,3.1431 0.13597,1.5962 1.54683,2.7846 3.1431,2.6469 1.59627,-0.136 2.78465,-1.5468 2.64868,-3.1431 -0.13596,-1.5963 -1.54506,-2.7847 -3.1431,-2.6469 z" />
      <circle
         transform="matrix(1.765787,0,0,1.765787,-37.684677,496.30995)"
         style="fill:#34606f"
         sodipodi:ry="0.329"
         sodipodi:rx="0.329"
         sodipodi:cy="294.927"
         sodipodi:cx="237.112"
         d="m 237.441,294.927 c 0,0.1817 -0.1473,0.329 -0.329,0.329 -0.1817,0 -0.329,-0.1473 -0.329,-0.329 0,-0.1817 0.1473,-0.329 0.329,-0.329 0.1817,0 0.329,0.1473 0.329,0.329 z"
         id="circle1089"
         r="0.329"
         cy="294.927"
         cx="237.112" />
      <circle
         transform="matrix(1.765787,0,0,1.765787,-37.684677,496.30995)"
         style="fill:#34606f"
         sodipodi:ry="0.329"
         sodipodi:rx="0.329"
         sodipodi:cy="294.16699"
         sodipodi:cx="237.15401"
         d="m 237.48301,294.16699 c 0,0.1817 -0.1473,0.329 -0.329,0.329 -0.1817,0 -0.329,-0.1473 -0.329,-0.329 0,-0.1817 0.1473,-0.329 0.329,-0.329 0.1817,0 0.329,0.1473 0.329,0.329 z"
         id="circle1091"
         r="0.329"
         cy="294.16699"
         cx="237.15401" />
      <circle
         transform="matrix(1.765787,0,0,1.765787,-37.684677,496.30995)"
         style="fill:#34606f"
         sodipodi:ry="0.329"
         sodipodi:rx="0.329"
         sodipodi:cy="295.034"
         sodipodi:cx="237.88901"
         d="m 238.21801,295.034 c 0,0.1817 -0.1473,0.329 -0.329,0.329 -0.1817,0 -0.329,-0.1473 -0.329,-0.329 0,-0.18171 0.1473,-0.329 0.329,-0.329 0.1817,0 0.329,0.14729 0.329,0.329 z"
         id="circle1093"
         r="0.329"
         cy="295.034"
         cx="237.88901" />
      <circle
         transform="matrix(1.765787,0,0,1.765787,-37.684677,496.30995)"
         style="fill:#34606f"
         sodipodi:ry="0.329"
         sodipodi:rx="0.329"
         sodipodi:cy="294.27399"
         sodipodi:cx="237.93201"
         d="m 238.26101,294.27399 c 0,0.1817 -0.1473,0.329 -0.329,0.329 -0.1817,0 -0.329,-0.1473 -0.329,-0.329 0,-0.1817 0.1473,-0.329 0.329,-0.329 0.1817,0 0.329,0.1473 0.329,0.329 z"
         id="circle1095"
         r="0.329"
         cy="294.27399"
         cx="237.93201" />
      <circle
         transform="matrix(1.765787,0,0,1.765787,-37.684677,496.30995)"
         style="fill:#84a8b2"
         sodipodi:ry="1.937"
         sodipodi:rx="1.937"
         sodipodi:cy="293.64401"
         sodipodi:cx="241.43401"
         d="m 243.37101,293.64401 c 0,1.06978 -0.86723,1.937 -1.937,1.937 -1.06978,0 -1.937,-0.86722 -1.937,-1.937 0,-1.06977 0.86722,-1.937 1.937,-1.937 1.06977,0 1.937,0.86723 1.937,1.937 z"
         id="circle1099"
         r="1.937"
         cy="293.64401"
         cx="241.43401" />
      <path
         style="fill:#34606f"
         inkscape:connector-curvature="0"
         id="path1101"
         d="m 389.2526,1017.9376 c -1.71811,0.339 -3.39031,-0.7805 -3.73111,-2.4969 -0.34079,-1.7163 0.78048,-3.3903 2.49859,-3.7311 1.71811,-0.339 3.39031,0.7805 3.73111,2.4968 0.3408,1.7164 -0.78224,3.3904 -2.49859,3.7312 z m -1.18131,-5.9649 c -1.57155,0.3108 -2.59747,1.8435 -2.28669,3.4151 0.31077,1.5715 1.84348,2.5974 3.41503,2.2867 1.57155,-0.3108 2.59747,-1.8435 2.28669,-3.4151 -0.31078,-1.5715 -1.84171,-2.5975 -3.41503,-2.2867 z" />
      <circle
         transform="matrix(1.765787,0,0,1.765787,-37.684677,496.30995)"
         style="fill:#34606f"
         sodipodi:ry="0.329"
         sodipodi:rx="0.329"
         sodipodi:cy="294.086"
         sodipodi:cx="241.076"
         d="m 241.405,294.086 c 0,0.1817 -0.14729,0.329 -0.329,0.329 -0.1817,0 -0.329,-0.1473 -0.329,-0.329 0,-0.1817 0.1473,-0.329 0.329,-0.329 0.18171,0 0.329,0.1473 0.329,0.329 z"
         id="circle1103"
         r="0.329"
         cy="294.086"
         cx="241.076" />
      <circle
         transform="matrix(1.765787,0,0,1.765787,-37.684677,496.30995)"
         style="fill:#34606f"
         sodipodi:ry="0.329"
         sodipodi:rx="0.329"
         sodipodi:cy="293.32599"
         sodipodi:cx="241.035"
         d="m 241.364,293.32599 c 0,0.1817 -0.14729,0.329 -0.329,0.329 -0.1817,0 -0.329,-0.1473 -0.329,-0.329 0,-0.1817 0.1473,-0.329 0.329,-0.329 0.18171,0 0.329,0.1473 0.329,0.329 z"
         id="circle1105"
         r="0.329"
         cy="293.32599"
         cx="241.035" />
      <circle
         transform="matrix(1.765787,0,0,1.765787,-37.684677,496.30995)"
         style="fill:#34606f"
         sodipodi:ry="0.329"
         sodipodi:rx="0.329"
         sodipodi:cy="294.10699"
         sodipodi:cx="241.86099"
         d="m 242.18999,294.10699 c 0,0.18171 -0.1473,0.329 -0.329,0.329 -0.1817,0 -0.329,-0.14729 -0.329,-0.329 0,-0.1817 0.1473,-0.329 0.329,-0.329 0.1817,0 0.329,0.1473 0.329,0.329 z"
         id="circle1107"
         r="0.329"
         cy="294.10699"
         cx="241.86099" />
      <circle
         transform="matrix(1.765787,0,0,1.765787,-37.684677,496.30995)"
         style="fill:#34606f"
         sodipodi:ry="0.329"
         sodipodi:rx="0.329"
         sodipodi:cy="293.34698"
         sodipodi:cx="241.82001"
         d="m 242.14901,293.34698 c 0,0.18171 -0.1473,0.329 -0.329,0.329 -0.1817,0 -0.329,-0.14729 -0.329,-0.329 0,-0.1817 0.1473,-0.329 0.329,-0.329 0.1817,0 0.329,0.1473 0.329,0.329 z"
         id="circle1109"
         r="0.329"
         cy="293.34698"
         cx="241.82001" />
      <circle
         transform="matrix(1.765787,0,0,1.765787,-37.684677,496.30995)"
         style="fill:#84a8b2"
         sodipodi:ry="1.937"
         sodipodi:rx="1.937"
         sodipodi:cy="292.75101"
         sodipodi:cx="245.246"
         d="m 247.183,292.75101 c 0,1.06977 -0.86722,1.937 -1.937,1.937 -1.06977,0 -1.937,-0.86723 -1.937,-1.937 0,-1.06978 0.86723,-1.937 1.937,-1.937 1.06978,0 1.937,0.86722 1.937,1.937 z"
         id="circle1113"
         r="1.937"
         cy="292.75101"
         cx="245.246" />
      <path
         style="fill:#34606f"
         inkscape:connector-curvature="0"
         id="path1115"
         d="m 395.98378,1016.3607 c -1.71811,0.3408 -3.39031,-0.7805 -3.73111,-2.4968 -0.33903,-1.7164 0.78048,-3.3903 2.49859,-3.7311 1.71811,-0.3391 3.39031,0.7805 3.73111,2.4968 0.33903,1.7181 -0.78048,3.3903 -2.49859,3.7311 z m -1.17954,-5.9648 c -1.57155,0.3108 -2.59748,1.8435 -2.2867,3.415 0.31078,1.5716 1.84348,2.5975 3.41503,2.2867 1.57155,-0.3108 2.59748,-1.8435 2.2867,-3.415 -0.31078,-1.5716 -1.84348,-2.5975 -3.41503,-2.2867 z" />
      <circle
         transform="matrix(1.765787,0,0,1.765787,-37.684677,496.30995)"
         style="fill:#34606f"
         sodipodi:ry="0.329"
         sodipodi:rx="0.329"
         sodipodi:cy="293.19299"
         sodipodi:cx="244.88901"
         d="m 245.21801,293.19299 c 0,0.1817 -0.1473,0.329 -0.329,0.329 -0.1817,0 -0.329,-0.1473 -0.329,-0.329 0,-0.1817 0.1473,-0.329 0.329,-0.329 0.1817,0 0.329,0.1473 0.329,0.329 z"
         id="circle1117"
         r="0.329"
         cy="293.19299"
         cx="244.88901" />
      <circle
         transform="matrix(1.765787,0,0,1.765787,-37.684677,496.30995)"
         style="fill:#34606f"
         sodipodi:ry="0.329"
         sodipodi:rx="0.329"
         sodipodi:cy="292.43301"
         sodipodi:cx="244.84801"
         d="m 245.17701,292.43301 c 0,0.18171 -0.1473,0.329 -0.329,0.329 -0.1817,0 -0.329,-0.14729 -0.329,-0.329 0,-0.1817 0.1473,-0.329 0.329,-0.329 0.1817,0 0.329,0.1473 0.329,0.329 z"
         id="circle1119"
         r="0.329"
         cy="292.43301"
         cx="244.84801" />
      <circle
         transform="matrix(1.765787,0,0,1.765787,-37.684677,496.30995)"
         style="fill:#34606f"
         sodipodi:ry="0.329"
         sodipodi:rx="0.329"
         sodipodi:cy="293.21399"
         sodipodi:cx="245.673"
         d="m 246.002,293.21399 c 0,0.1817 -0.14729,0.329 -0.329,0.329 -0.1817,0 -0.329,-0.1473 -0.329,-0.329 0,-0.1817 0.1473,-0.329 0.329,-0.329 0.18171,0 0.329,0.1473 0.329,0.329 z"
         id="circle1121"
         r="0.329"
         cy="293.21399"
         cx="245.673" />
      <circle
         transform="matrix(1.765787,0,0,1.765787,-37.684677,496.30995)"
         style="fill:#34606f"
         sodipodi:ry="0.329"
         sodipodi:rx="0.329"
         sodipodi:cy="292.45401"
         sodipodi:cx="245.632"
         d="m 245.961,292.45401 c 0,0.1817 -0.14729,0.329 -0.329,0.329 -0.1817,0 -0.329,-0.1473 -0.329,-0.329 0,-0.1817 0.1473,-0.329 0.329,-0.329 0.18171,0 0.329,0.1473 0.329,0.329 z"
         id="circle1123"
         r="0.329"
         cy="292.45401"
         cx="245.632" />
      <path
         style="fill:#34606f"
         inkscape:connector-curvature="0"
         id="path1125"
         d="m 265.03831,1027.2079 4.09133,7.5647 c 28.0301,3.9748 54.01895,2.4067 75.45207,-1.0507 -1.89292,0.019 -66.82091,0.6481 -79.5434,-6.514 z" />
      <path
         style="fill:#f7ae83"
         inkscape:connector-curvature="0"
         id="path1127"
         d="m 492.15383,916.93454 c -6.74001,15.97861 -46.14354,42.12108 -65.45419,54.21143 l 0,0 -15.4683,8.86954 c 0,0 0.65511,5.27794 0.57918,7.51343 0,0 3.46801,-0.60037 9.80718,-3.81587 l 0.002,-0.004 c 12.56004,-5.99838 43.29356,-23.05765 69.40779,-56.64468 0.20836,-0.40966 3.02126,-6.14141 1.12657,-10.13032 z" />
      <path
         style="fill:#628ea0"
         inkscape:connector-curvature="0"
         id="path1211"
         d="m 218.15313,1052.5329 h 60.39521 c -0.19953,-0.385 -0.37787,-0.7717 -0.58271,-1.1566 -11.5041,-21.5056 -21.53907,-44.1165 -45.61204,-57.86134 -5.63639,1.41969 -12.6554,2.27433 -20.29596,2.27433 -0.86523,0 -1.69868,-0.0406 -2.5445,-0.0653 l 0.007,0.0265 c -0.002,-0.002 8.82187,17.21641 8.63293,56.78241 z" />
      <path
         style="fill:#628ea0"
         inkscape:connector-curvature="0"
         id="path1213"
         d="m 112.17767,1007.2457 c -4.77822,0.362 -9.96434,0.1642 -15.330568,-0.7187 -10.940816,-1.7993 -20.30655,-6.0072 -26.349073,-11.21094 -18.593737,9.87954 -47.964072,30.67174 -67.5696056,57.21684 H 134.83801 l -22.66034,-45.2872 z" />
      <polygon
         style="fill:#34606f"
         transform="matrix(1.765787,0,0,1.765787,-37.684677,496.30995)"
         id="polygon1215"
         points="67.168,315 74.958,305.555 63.708,294.805 74.114,285.944 73.026,285.595 61.625,294.43 72.5,305.325 65.216,315 " />
      <polygon
         style="fill:#34606f"
         transform="matrix(1.765787,0,0,1.765787,-37.684677,496.30995)"
         id="polygon1217"
         points="158.125,303.346 155.896,315 157.485,315 160.063,302.512 152.188,296.221 155.719,287.721 144.451,281.414 143.217,281.507 153.938,288.096 150.875,296.221 " />
      <path
         style="fill:#167c9c"
         inkscape:connector-curvature="0"
         id="path1219"
         d="m 169.52512,1052.5329 h 18.30768 c -3.19431,-6.2774 -6.32152,-11.4653 -8.98079,-14.1157 l 2.79171,-12.9027 c 0,0 -7.51872,-10.3757 -13.74312,-6.4151 -6.2244,3.9607 -7.99725,10.5294 -7.99725,10.5294 l 11.32752,12.0762 c 0.002,0 -0.87583,5.0237 -1.70575,10.8279 z" />
    </g>
    <g
       transform="matrix(1.3526774,0,0,1.3526774,-229.36521,581.25615)"
       id="Peon">
      <path
         style="fill:#628ea0"
         inkscape:connector-curvature="0"
         d="m 227.143,286.702 c 0,0 2.871,-1.612 3.773,-1.943 0.902,-0.331 22.875,5.98 22.875,5.98 l 1.154,1.705 1.117,1.624 0.596,1.231 -14.321,1.751 -13.93,-4.579 -1.642,-4.246 0.378,-1.523 z"
         id="path11320" />
      <polygon
         style="fill:#628ea0"
         points="341.605,286.083 342.217,282.943 338.295,282.312 323.035,285.329 324.091,287.004 331.984,290.47 "
         id="polygon11322" />
      <path
         style="fill:#fdd08f"
         inkscape:connector-curvature="0"
         d="m 517.947,229.656 c 0,0 0.103,-3.994 -3.744,-4.912 -0.301,-0.056 -0.603,-0.111 -0.926,-0.155 -0.206,-0.883 -0.9,-1.882 -2.78,-2.57 -4.116,-1.506 -9.84,0.96 -9.84,0.96 -5.46,-4.172 -20.353,6.489 -22.781,8.282 l -14.458,7.744 c -6.346,-1.581 -8.668,-5.1 -8.668,-5.1 0,0 -1.452,-11.725 -7.527,-14.112 -6.076,-2.388 -9.474,3.865 -6.284,10.742 1.341,2.89 -0.437,8.373 -2.944,13.758 l 0,0.005 c 0,0 -1.769,4.381 -0.934,8.826 l -1.661,0.89 c 0,0 36.139,-1.748 32.561,26.387 0,0 28.92,-11.035 52.446,-41.293 0.199,-0.396 3.909,-7.904 -2.46,-9.452 z"
         id="path11324" />
      <path
         style="fill:#f7ae83"
         inkscape:connector-curvature="0"
         d="m 440.877,237.895 c -0.126,0.011 -0.255,0.039 -0.385,0.072 -0.616,2.011 -1.497,4.175 -2.498,6.326 l 0,0.005 c 0,0 -1.769,4.381 -0.934,8.826 l -1.661,0.89 c 0,0 2.275,-0.109 5.625,0.17 -2.26,-6.49 -0.147,-16.289 -0.147,-16.289 z"
         id="path11326" />
      <path
         style="fill:#fdd08f"
         inkscape:connector-curvature="0"
         d="m 459.983,282.099 c 0,0 5.879,-0.436 11.157,-3.082 5.278,-2.647 -2.534,-22.374 -2.534,-22.374 l -22.248,-6.172 -7.12,3.012 5.065,18.07 15.68,10.546 z"
         id="path11328" />
      <path
         style="fill:#dff2fd"
         inkscape:connector-curvature="0"
         d="m 460.095,294.018 4.267,-0.662 c 0,0 5.198,-27.2 -10.39,-36.342 -15.587,-9.142 -19.974,-1.47 -19.974,-1.47 l 26.097,38.474 z"
         id="path11330" />
      <path
         style="fill:#ffffff"
         inkscape:connector-curvature="0"
         d="m 333.04,297.802 c -2.255,-1.403 -5.175,-4.699 -8.949,-10.798 -1.411,-2.28 -3.256,-4.155 -5.426,-5.683 -0.241,0.429 -0.576,1.025 -0.845,1.506 -0.218,-0.044 -0.43,-0.08 -0.651,-0.127 -4.801,-1.032 -8.852,-2.075 -11.578,-3.164 -11.22,0.708 -24.504,1.636 -34.363,2.605 -0.506,2.429 -3.156,6.74 -14.961,9.36 -0.494,0.11 -0.979,0.193 -1.463,0.275 0.338,2.065 1.406,3.247 1.406,3.247 0,0 -0.415,3.616 -3.786,7.294 0.028,0.236 0.047,0.377 0.047,0.377 l 9.313,46.573 h 69.634 c 0.965,-15.68 2.24,-39.748 1.709,-50.16 -0.024,-0.454 -0.058,-0.871 -0.087,-1.305 z"
         id="path11332" />
      <path
         style="fill:#cfe1eb"
         inkscape:connector-curvature="0"
         d="m 289.492,310.632 -1.107,4.058 c 0,0 10.441,-7.26 18.574,-4.413 l -2.306,-2.515 -15.125,2.75"
         id="path11334" />
      <path
         style="fill:#fdd08f"
         inkscape:connector-curvature="0"
         d="m 261.652,290.636 c 0,0 23.13,-5.599 28.981,-26.433 0,0 10.315,17.289 32.403,20.389 -18.946,24.445 -61.384,6.044 -61.384,6.044 z"
         id="path11336" />
      <g
         id="g11338">
        <path
           style="fill:none"
           inkscape:connector-curvature="0"
           d="m 290.694,297.216 c -15.32,-0.639 -29.043,-6.581 -29.043,-6.581 0,0 23.13,-5.599 28.981,-26.433 0,0 7.923,13.277 24.749,18.647 -2.756,4.695 -9.314,11.412 -24.687,14.367 z"
           id="path11340" />
        <path
           style="fill:#f7ae83"
           inkscape:connector-curvature="0"
           d="m 315.381,282.85 c 2.374,0.758 4.923,1.359 7.654,1.742 -8.173,10.546 -20.717,13.11 -32.341,12.625 15.373,-2.956 21.931,-9.673 24.687,-14.367 z"
           id="path11342" />
      </g>
      <path
         style="fill:#fdd08f"
         inkscape:connector-curvature="0"
         d="m 322.994,202.099 10.809,-9.837 c 0,0 3.295,-2.173 2.881,5.681 -0.414,7.854 0.705,25.491 -9.474,23.678 -10.179,-1.812 -4.216,-19.522 -4.216,-19.522 z"
         id="path11344" />
      <g
         id="g11346">
        <path
           style="fill:none"
           inkscape:connector-curvature="0"
           d="m 323.073,214.638 c 3.54,0.996 9.418,-17.213 11.054,-22.533 0.819,-0.309 2.891,-0.487 2.557,5.838 -0.413,7.854 0.705,25.491 -9.474,23.678 -4.134,-0.736 -5.605,-4.093 -5.895,-7.822 0.501,0.357 1.079,0.648 1.758,0.839 z"
           id="path11348" />
        <path
           style="fill:#f7ae83"
           inkscape:connector-curvature="0"
           d="m 323.073,214.638 c -0.68,-0.191 -1.257,-0.482 -1.758,-0.839 -0.424,-5.453 1.679,-11.701 1.679,-11.701 l 10.809,-9.837 c 0,0 0.126,-0.082 0.324,-0.157 -1.636,5.321 -7.514,23.53 -11.054,22.534 z"
           id="path11350" />
      </g>
      <path
         style="fill:#fdd08f"
         inkscape:connector-curvature="0"
         d="m 221.226,215.166 3.242,-12.416 c 10.889,-38.747 52.005,-38.448 71.862,-34.354 19.856,4.094 30.02,28.304 28.951,49.018 -1.063,20.576 16.788,40.023 17.026,40.281 0.417,0.937 0.662,1.467 0.662,1.467 0,0 -36.173,6.607 -42.849,0.24 -6.676,-6.367 -39.9,18.032 -39.9,18.032 0,0 -5.809,-1.261 -13.217,-7.468 -5.062,3.952 -12.95,9.046 -16.535,6.821 -5.442,-3.378 -3.436,-5.285 -0.714,-14.972 1.395,-4.965 -0.141,-12.243 -1.969,-18.161 -1.434,-3.145 -2.678,-6.446 -3.689,-9.909 -0.031,-0.069 -0.052,-0.116 -0.052,-0.116 0,0 0.013,-0.015 0.015,-0.017 -1.653,-5.7 -2.667,-11.835 -2.833,-18.446 z"
         id="path11352" />
      <ellipse
         style="fill:#2b4d5a"
         sodipodi:ry="9.8389997"
         sodipodi:rx="2.6570001"
         sodipodi:cy="216.50101"
         sodipodi:cx="276.112"
         d="m 278.769,216.50101 c 0,5.43393 -1.18958,9.839 -2.657,9.839 -1.46742,0 -2.657,-4.40507 -2.657,-9.839 0,-5.43393 1.18958,-9.839 2.657,-9.839 1.46742,0 2.657,4.40507 2.657,9.839 z"
         transform="matrix(0.9999,-0.0158,0.0158,0.9999,-3.384,4.3866)"
         cx="276.112"
         cy="216.50101"
         rx="2.6570001"
         ry="9.8389997"
         id="ellipse11354" />
      <ellipse
         style="fill:#2b4d5a"
         sodipodi:ry="12.359"
         sodipodi:rx="4.8829999"
         sodipodi:cy="214.06799"
         sodipodi:cx="295.27499"
         d="m 300.15799,214.06799 c 0,6.82569 -2.18619,12.359 -4.883,12.359 -2.6968,0 -4.883,-5.53331 -4.883,-12.359 0,-6.82568 2.1862,-12.359 4.883,-12.359 2.69681,0 4.883,5.53332 4.883,12.359 z"
         transform="matrix(0.9775,-0.211,0.211,0.9775,-38.5225,67.1267)"
         cx="295.27499"
         cy="214.06799"
         rx="4.8829999"
         ry="12.359"
         id="ellipse11356" />
      <path
         style="fill:#f7ae83"
         inkscape:connector-curvature="0"
         d="m 230.412,189.099 c 0,0 -3.556,19.032 -1.552,23.5 2.004,4.468 -4.276,1.255 -6.24,-2.773 0,0 2.733,-14.124 7.792,-20.727 z"
         id="path11358" />
      <path
         style="fill:#f7ae83"
         inkscape:connector-curvature="0"
         d="m 224.152,237.762 c 0,0 2.782,-6.647 5.547,-4.719 0,0 0.956,0.574 2.49,1.721 0.09,0.141 0.186,0.294 0.289,0.458 -0.295,0.076 -0.462,0.126 -0.462,0.126 0,0 10.318,13.851 4.914,25.208 -3.124,6.566 -2.55,13.788 -1.426,18.725 -1.263,-0.581 -2.381,-1.251 -3.255,-1.964 -6.648,-5.426 -4.817,-9.783 -4.817,-9.783 0,0 6.576,-15.506 -3.28,-29.772 z"
         id="path11360" />
      <path
         style="fill:#2b4d5a"
         inkscape:connector-curvature="0"
         d="m 224.354,278.64 c -12.61,-14.382 -8.175,-23.729 -8.175,-23.729 l 0.001,0.002 c 1.64,-4.735 5.909,-8.331 11.223,-8.852 6.446,-0.631 12.26,3.472 14.002,9.474 -1.434,-4.302 -5.729,-7.201 -10.48,-6.735 -5.509,0.54 -9.541,5.394 -9.007,10.844 0.322,3.291 2.241,6.041 4.921,7.588 0.94,0.511 1.839,0.849 2.665,1.066 0.202,0.049 0.404,0.097 0.61,0.133 l -0.003,0.008 c 2.341,0.475 3.955,0.006 3.955,0.006 3.218,-0.529 5.904,-2.934 8.921,-5.64 2.506,-2.248 3.807,-3.979 5.035,-5.417 2.356,-2.757 9.819,-11.489 20.143,-12.891 1.612,-0.219 7.802,-0.967 13.964,2.699 0.992,0.59 6.642,4.09 8.889,10.39 0.982,-6.616 5.845,-11.146 6.704,-11.917 5.334,-4.792 11.551,-5.26 13.175,-5.358 10.4,-0.629 19.416,6.489 22.262,8.736 1.484,1.172 3.096,2.618 5.991,4.337 3.484,2.069 6.586,3.907 9.846,3.801 0,0 1.674,0.147 3.879,-0.773 l -0.004,-0.007 c 0.195,-0.076 0.384,-0.162 0.573,-0.249 0.768,-0.373 1.585,-0.879 2.408,-1.563 2.329,-2.038 3.677,-5.107 3.355,-8.399 -0.534,-5.449 -5.432,-9.429 -10.941,-8.889 -4.751,0.465 -8.402,4.142 -8.974,8.641 0.544,-6.226 5.452,-11.38 11.897,-12.012 5.314,-0.521 10.199,2.179 12.727,6.505 l 10e-4,-0.002 c 0,0 6.162,8.305 -3.408,24.854 -0.015,0.025 -0.029,0.051 -0.043,0.076 -0.167,0.288 -0.338,0.578 -0.514,0.87 -0.098,0.163 -0.198,0.322 -0.298,0.482 -0.002,0.004 -0.004,0.007 -0.007,0.011 -10.393,16.713 -27.23,18.146 -27.23,18.146 l 0.012,-0.011 c -0.89,0.148 -1.787,0.276 -2.698,0.365 -15.651,1.533 -30.071,-6.194 -37.835,-18.712 -5.188,13.787 -17.834,24.166 -33.485,25.699 -0.911,0.089 -1.816,0.138 -2.718,0.165 l 0.014,0.008 c 0,0 -17.127,1.901 -30.629,-12.941 -0.233,-0.256 -0.458,-0.509 -0.68,-0.762 -0.015,-0.014 -0.03,-0.031 -0.044,-0.047 z"
         id="path11362" />
      <path
         style="fill:#fdd08f"
         inkscape:connector-curvature="0"
         d="m 229.91,213.087 c 0,0 -23.558,-11.115 -25.715,-8.521 -2.157,2.594 -0.45,12.465 3.098,21.271 3.548,8.807 8.193,15.162 24.497,10.386 16.304,-4.776 -1.88,-23.136 -1.88,-23.136 z"
         id="path11364" />
      <path
         style="fill:#f7ae83"
         inkscape:connector-curvature="0"
         d="m 220.616,216.281 c 0,0 -12.028,-9.931 -12.093,-3.845 -0.065,6.086 2.244,12.409 7.548,15.464 0,0 1.77,0.852 -0.385,-2.046 -2.155,-2.898 -5.508,-11.931 -3.641,-11.04 1.866,0.891 12.964,4.673 8.571,1.467 z"
         id="path11366" />
      <path
         style="fill:#f7ae83"
         inkscape:connector-curvature="0"
         d="m 223.746,224.307 c 0,0 0.891,2.561 -1.811,2.538 -2.702,-0.023 -2.299,2.943 -0.278,3.017 2.021,0.074 5.562,-4.109 2.089,-5.555 z"
         id="path11368" />
      <path
         style="fill:#167c9c"
         inkscape:connector-curvature="0"
         d="m 295.197,337.139 c 0.067,2.077 0.19,7.144 0.306,12.126 h 23.319 c -4.347,-11.162 -11.318,-27.724 -16.117,-32.505 l 1.948,-8.997 c 0,0 -5.243,-7.236 -9.584,-4.473 -4.341,2.763 -5.577,7.343 -5.577,7.343 l 7.9,8.421 c 0,-10e-4 -2.346,13.423 -2.195,18.085 z"
         id="path11370" />
      <path
         style="fill:#628ea0"
         inkscape:connector-curvature="0"
         d="m 376.928,349.265 4.354,-0.068 c -1.288,-3.954 -7.306,-19.374 -9.459,-23.4 -8.022,-14.998 -15.02,-30.765 -31.808,-40.351 -3.93,0.991 -8.826,1.585 -14.154,1.585 -0.604,0 -1.185,-0.028 -1.775,-0.045 l 0.005,0.018 c 0,0 9.477,18.463 4.664,62.261 h 48.173 z"
         id="path11372" />
      <path
         style="fill:#cfe1eb"
         inkscape:connector-curvature="0"
         d="m 262.936,299.449 c 0,0 13.508,12.634 21.909,14.284 l -2.912,2.344 c 0,0 -12.887,-7.689 -18.997,-16.628 z"
         id="path11374" />
      <path
         style="fill:#cfe1eb"
         inkscape:connector-curvature="0"
         d="m 309.236,310.611 3.592,2.874 c 0,0 9.064,-13.751 8.688,-20.01 -0.001,0 -6.534,16.417 -12.28,17.136 z"
         id="path11376" />
      <polygon
         style="fill:#34606f"
         points="341.258,293.475 337.487,303.48 346.415,312.254 339.334,349.265 340.95,349.265 348.801,311.227 339.103,303.48 343.452,293.013 329.577,285.246 328.058,285.36 "
         id="polygon11378" />
      <path
         style="fill:#34606f"
         inkscape:connector-curvature="0"
         d="m 362.013,329.698 -0.462,-1.334 c 0,0 -7.978,3.226 -17.041,2.726 l -0.13,0.656 -0.274,0.261 c 12.622,0.103 17.907,-2.309 17.907,-2.309 z"
         id="path11380" />
      <path
         style="fill:#34606f"
         inkscape:connector-curvature="0"
         d="m 364.065,336.907 c -0.262,-2.562 -0.966,-4.829 -1.563,-6.385 l -0.003,-0.011 -0.006,-0.011 c -0.511,-1.329 -0.942,-2.135 -0.942,-2.135 v 0.718 c 0.056,0.1 0.111,0.218 0.166,0.338 l -0.166,0.092 c 0,0 1.603,5.618 1.623,7.792 l 0.596,-0.218 -0.007,-0.079 0.302,-0.101 z"
         id="path11382" />
      <path
         style="fill:#34606f"
         inkscape:connector-curvature="0"
         d="m 364.028,336.575 c -0.097,0.11 -0.264,0.215 -0.489,0.315 l -0.013,-0.06 c 0,0 -6.311,1.898 -20.652,1.616 v 0.28 c -0.061,10e-4 -0.103,0.002 -0.103,0.002 v 0.513 c 8.876,0.077 21.256,-1.494 21.256,-1.494 0.202,-0.365 0.001,-1.172 0.001,-1.172 z"
         id="path11384" />
      <path
         style="fill:#628ea0"
         inkscape:connector-curvature="0"
         d="m 342.217,282.943 c 0,0 56.757,0.569 92.849,-31.088 0,0 38.595,3.897 23.183,50.421 0,0 -46.78,21.658 -102.202,10.287 l -14.23,-22.417 -1.276,-3.219 1.676,-3.984 z"
         id="path11386" />
      <g
         id="g11388">
        <rect
           style="fill:#34606f"
           x="439.14099"
           y="298.784"
           transform="matrix(0.9964,-0.0852,0.0852,0.9964,-24.133,38.5524)"
           width="0.81099999"
           height="6.3860002"
           id="rect11390" />
        <rect
           style="fill:#34606f"
           x="443.711"
           y="297.505"
           transform="matrix(0.9964,-0.0852,0.0852,0.9964,-24.0075,38.9372)"
           width="0.81099999"
           height="6.3860002"
           id="rect11392" />
        <rect
           style="fill:#34606f"
           x="448.44501"
           y="296.28601"
           transform="matrix(0.9964,-0.0852,0.0852,0.9964,-23.8864,39.3362)"
           width="0.81099999"
           height="6.3860002"
           id="rect11394" />
        <rect
           style="fill:#34606f"
           x="453.27301"
           y="294.99399"
           transform="matrix(0.9964,-0.0852,0.0852,0.9964,-23.7587,39.7429)"
           width="0.81099999"
           height="6.3860002"
           id="rect11396" />
        <g
           id="g11398">
          <circle
             style="fill:#84a8b2"
             sodipodi:ry="2.385"
             sodipodi:rx="2.385"
             sodipodi:cy="302.466"
             sodipodi:cx="439.45499"
             d="m 441.83999,302.466 c 0,1.3172 -1.0678,2.385 -2.385,2.385 -1.3172,0 -2.385,-1.0678 -2.385,-2.385 0,-1.3172 1.0678,-2.385 2.385,-2.385 1.3172,0 2.385,1.0678 2.385,2.385 z"
             cx="439.45499"
             cy="302.466"
             r="2.385"
             id="circle11400" />
          <path
             style="fill:#34606f"
             inkscape:connector-curvature="0"
             d="m 439.644,304.671 c -1.216,0.104 -2.291,-0.801 -2.395,-2.017 -0.104,-1.216 0.801,-2.29 2.017,-2.394 1.216,-0.104 2.291,0.801 2.395,2.017 0.104,1.216 -0.801,2.29 -2.017,2.394 z m -0.361,-4.225 c -1.114,0.095 -1.942,1.079 -1.847,2.192 0.095,1.113 1.078,1.942 2.192,1.846 1.114,-0.096 1.942,-1.079 1.847,-2.192 -0.095,-1.113 -1.079,-1.941 -2.192,-1.846 z"
             id="path11402" />
          <circle
             style="fill:#34606f"
             sodipodi:ry="0.405"
             sodipodi:rx="0.405"
             sodipodi:cy="302.95801"
             sodipodi:cx="438.95801"
             d="m 439.36301,302.95801 c 0,0.22367 -0.18133,0.405 -0.405,0.405 -0.22368,0 -0.405,-0.18133 -0.405,-0.405 0,-0.22368 0.18132,-0.405 0.405,-0.405 0.22367,0 0.405,0.18132 0.405,0.405 z"
             cx="438.95801"
             cy="302.95801"
             r="0.405"
             id="circle11404" />
          <circle
             style="fill:#34606f"
             sodipodi:ry="0.405"
             sodipodi:rx="0.405"
             sodipodi:cy="302.022"
             sodipodi:cx="439.01099"
             d="m 439.41599,302.022 c 0,0.22368 -0.18133,0.405 -0.405,0.405 -0.22368,0 -0.405,-0.18132 -0.405,-0.405 0,-0.22367 0.18132,-0.405 0.405,-0.405 0.22367,0 0.405,0.18133 0.405,0.405 z"
             cx="439.01099"
             cy="302.022"
             r="0.405"
             id="circle11406" />
          <circle
             style="fill:#34606f"
             sodipodi:ry="0.405"
             sodipodi:rx="0.405"
             sodipodi:cy="303.09"
             sodipodi:cx="439.91599"
             d="m 440.32099,303.09 c 0,0.22367 -0.18133,0.405 -0.405,0.405 -0.22368,0 -0.405,-0.18133 -0.405,-0.405 0,-0.22368 0.18132,-0.405 0.405,-0.405 0.22367,0 0.405,0.18132 0.405,0.405 z"
             cx="439.91599"
             cy="303.09"
             r="0.405"
             id="circle11408" />
          <circle
             style="fill:#34606f"
             sodipodi:ry="0.405"
             sodipodi:rx="0.405"
             sodipodi:cy="302.15399"
             sodipodi:cx="439.96799"
             d="m 440.37299,302.15399 c 0,0.22368 -0.18133,0.405 -0.405,0.405 -0.22368,0 -0.405,-0.18132 -0.405,-0.405 0,-0.22367 0.18132,-0.405 0.405,-0.405 0.22367,0 0.405,0.18133 0.405,0.405 z"
             cx="439.96799"
             cy="302.15399"
             r="0.405"
             id="circle11410" />
        </g>
        <g
           id="g11412">
          <circle
             style="fill:#84a8b2"
             sodipodi:ry="2.385"
             sodipodi:rx="2.385"
             sodipodi:cy="301.39401"
             sodipodi:cx="444.17599"
             d="m 446.56099,301.39401 c 0,1.3172 -1.0678,2.385 -2.385,2.385 -1.31719,0 -2.385,-1.0678 -2.385,-2.385 0,-1.3172 1.06781,-2.385 2.385,-2.385 1.3172,0 2.385,1.0678 2.385,2.385 z"
             cx="444.17599"
             cy="301.39401"
             r="2.385"
             id="circle11414" />
          <path
             style="fill:#34606f"
             inkscape:connector-curvature="0"
             d="m 444.365,303.6 c -1.216,0.104 -2.291,-0.801 -2.395,-2.017 -0.104,-1.216 0.801,-2.29 2.017,-2.394 1.216,-0.104 2.291,0.801 2.395,2.017 0.104,1.215 -0.801,2.29 -2.017,2.394 z m -0.362,-4.225 c -1.114,0.095 -1.942,1.079 -1.847,2.192 0.095,1.113 1.078,1.942 2.192,1.846 1.114,-0.096 1.942,-1.079 1.847,-2.192 -0.095,-1.113 -1.078,-1.941 -2.192,-1.846 z"
             id="path11416" />
          <circle
             style="fill:#34606f"
             sodipodi:ry="0.405"
             sodipodi:rx="0.405"
             sodipodi:cy="301.88599"
             sodipodi:cx="443.67899"
             d="m 444.08399,301.88599 c 0,0.22367 -0.18133,0.405 -0.405,0.405 -0.22368,0 -0.405,-0.18133 -0.405,-0.405 0,-0.22368 0.18132,-0.405 0.405,-0.405 0.22367,0 0.405,0.18132 0.405,0.405 z"
             cx="443.67899"
             cy="301.88599"
             r="0.405"
             id="circle11418" />
          <circle
             style="fill:#34606f"
             sodipodi:ry="0.405"
             sodipodi:rx="0.405"
             sodipodi:cy="300.95099"
             sodipodi:cx="443.73099"
             d="m 444.13599,300.95099 c 0,0.22367 -0.18133,0.405 -0.405,0.405 -0.22368,0 -0.405,-0.18133 -0.405,-0.405 0,-0.22368 0.18132,-0.405 0.405,-0.405 0.22367,0 0.405,0.18132 0.405,0.405 z"
             cx="443.73099"
             cy="300.95099"
             r="0.405"
             id="circle11420" />
          <circle
             style="fill:#34606f"
             sodipodi:ry="0.405"
             sodipodi:rx="0.405"
             sodipodi:cy="302.01801"
             sodipodi:cx="444.63599"
             d="m 445.04099,302.01801 c 0,0.22367 -0.18133,0.405 -0.405,0.405 -0.22368,0 -0.405,-0.18133 -0.405,-0.405 0,-0.22368 0.18132,-0.405 0.405,-0.405 0.22367,0 0.405,0.18132 0.405,0.405 z"
             cx="444.63599"
             cy="302.01801"
             r="0.405"
             id="circle11422" />
          <circle
             style="fill:#34606f"
             sodipodi:ry="0.405"
             sodipodi:rx="0.405"
             sodipodi:cy="301.082"
             sodipodi:cx="444.689"
             d="m 445.094,301.082 c 0,0.22368 -0.18133,0.405 -0.405,0.405 -0.22368,0 -0.405,-0.18132 -0.405,-0.405 0,-0.22367 0.18132,-0.405 0.405,-0.405 0.22367,0 0.405,0.18133 0.405,0.405 z"
             cx="444.689"
             cy="301.082"
             r="0.405"
             id="circle11424" />
        </g>
        <g
           id="g11426">
          <circle
             style="fill:#84a8b2"
             sodipodi:ry="2.385"
             sodipodi:rx="2.385"
             sodipodi:cy="300.30701"
             sodipodi:cx="449.00101"
             d="m 451.38601,300.30701 c 0,1.3172 -1.0678,2.385 -2.385,2.385 -1.3172,0 -2.385,-1.0678 -2.385,-2.385 0,-1.3172 1.0678,-2.385 2.385,-2.385 1.3172,0 2.385,1.0678 2.385,2.385 z"
             cx="449.00101"
             cy="300.30701"
             r="2.385"
             id="circle11428" />
          <path
             style="fill:#34606f"
             inkscape:connector-curvature="0"
             d="m 449.431,302.478 c -1.198,0.237 -2.365,-0.544 -2.602,-1.742 -0.237,-1.197 0.544,-2.364 1.742,-2.601 1.198,-0.237 2.365,0.544 2.602,1.742 0.237,1.197 -0.545,2.364 -1.742,2.601 z m -0.823,-4.159 c -1.097,0.217 -1.812,1.285 -1.595,2.382 0.217,1.096 1.285,1.811 2.382,1.594 1.096,-0.217 1.812,-1.285 1.595,-2.382 -0.218,-1.096 -1.286,-1.811 -2.382,-1.594 z"
             id="path11430" />
          <circle
             style="fill:#34606f"
             sodipodi:ry="0.405"
             sodipodi:rx="0.405"
             sodipodi:cy="300.85101"
             sodipodi:cx="448.561"
             d="m 448.966,300.85101 c 0,0.22368 -0.18132,0.405 -0.405,0.405 -0.22367,0 -0.405,-0.18132 -0.405,-0.405 0,-0.22367 0.18133,-0.405 0.405,-0.405 0.22368,0 0.405,0.18133 0.405,0.405 z"
             cx="448.561"
             cy="300.85101"
             r="0.405"
             id="circle11432" />
          <circle
             style="fill:#34606f"
             sodipodi:ry="0.405"
             sodipodi:rx="0.405"
             sodipodi:cy="299.91501"
             sodipodi:cx="448.51001"
             d="m 448.91501,299.91501 c 0,0.22367 -0.18132,0.405 -0.405,0.405 -0.22368,0 -0.405,-0.18133 -0.405,-0.405 0,-0.22368 0.18132,-0.405 0.405,-0.405 0.22368,0 0.405,0.18132 0.405,0.405 z"
             cx="448.51001"
             cy="299.91501"
             r="0.405"
             id="circle11434" />
          <circle
             style="fill:#34606f"
             sodipodi:ry="0.405"
             sodipodi:rx="0.405"
             sodipodi:cy="300.87601"
             sodipodi:cx="449.52701"
             d="m 449.93201,300.87601 c 0,0.22367 -0.18133,0.405 -0.405,0.405 -0.22368,0 -0.405,-0.18133 -0.405,-0.405 0,-0.22368 0.18132,-0.405 0.405,-0.405 0.22367,0 0.405,0.18132 0.405,0.405 z"
             cx="449.52701"
             cy="300.87601"
             r="0.405"
             id="circle11436" />
          <circle
             style="fill:#34606f"
             sodipodi:ry="0.405"
             sodipodi:rx="0.405"
             sodipodi:cy="299.94101"
             sodipodi:cx="449.47601"
             d="m 449.88101,299.94101 c 0,0.22367 -0.18132,0.405 -0.405,0.405 -0.22367,0 -0.405,-0.18133 -0.405,-0.405 0,-0.22368 0.18133,-0.405 0.405,-0.405 0.22368,0 0.405,0.18132 0.405,0.405 z"
             cx="449.47601"
             cy="299.94101"
             r="0.405"
             id="circle11438" />
        </g>
        <g
           id="g11440">
          <circle
             style="fill:#84a8b2"
             sodipodi:ry="2.385"
             sodipodi:rx="2.385"
             sodipodi:cy="299.207"
             sodipodi:cx="453.69601"
             d="m 456.08101,299.207 c 0,1.3172 -1.0678,2.385 -2.385,2.385 -1.31719,0 -2.385,-1.0678 -2.385,-2.385 0,-1.3172 1.06781,-2.385 2.385,-2.385 1.3172,0 2.385,1.0678 2.385,2.385 z"
             cx="453.69601"
             cy="299.207"
             r="2.385"
             id="circle11442" />
          <path
             style="fill:#34606f"
             inkscape:connector-curvature="0"
             d="m 454.125,301.379 c -1.198,0.237 -2.365,-0.544 -2.602,-1.742 -0.237,-1.197 0.544,-2.364 1.742,-2.601 1.198,-0.237 2.365,0.544 2.602,1.742 0.237,1.196 -0.544,2.364 -1.742,2.601 z m -0.823,-4.16 c -1.096,0.217 -1.812,1.285 -1.595,2.382 0.217,1.096 1.285,1.811 2.382,1.594 1.096,-0.217 1.812,-1.285 1.595,-2.382 -0.217,-1.096 -1.285,-1.811 -2.382,-1.594 z"
             id="path11444" />
          <circle
             style="fill:#34606f"
             sodipodi:ry="0.405"
             sodipodi:rx="0.405"
             sodipodi:cy="299.75101"
             sodipodi:cx="453.25601"
             d="m 453.66101,299.75101 c 0,0.22367 -0.18132,0.405 -0.405,0.405 -0.22367,0 -0.405,-0.18133 -0.405,-0.405 0,-0.22368 0.18133,-0.405 0.405,-0.405 0.22368,0 0.405,0.18132 0.405,0.405 z"
             cx="453.25601"
             cy="299.75101"
             r="0.405"
             id="circle11446" />
          <circle
             style="fill:#34606f"
             sodipodi:ry="0.405"
             sodipodi:rx="0.405"
             sodipodi:cy="298.815"
             sodipodi:cx="453.20499"
             d="m 453.60999,298.815 c 0,0.22368 -0.18133,0.405 -0.405,0.405 -0.22368,0 -0.405,-0.18132 -0.405,-0.405 0,-0.22367 0.18132,-0.405 0.405,-0.405 0.22367,0 0.405,0.18133 0.405,0.405 z"
             cx="453.20499"
             cy="298.815"
             r="0.405"
             id="circle11448" />
          <circle
             style="fill:#34606f"
             sodipodi:ry="0.405"
             sodipodi:rx="0.405"
             sodipodi:cy="299.77701"
             sodipodi:cx="454.22101"
             d="m 454.62601,299.77701 c 0,0.22367 -0.18133,0.405 -0.405,0.405 -0.22368,0 -0.405,-0.18133 -0.405,-0.405 0,-0.22368 0.18132,-0.405 0.405,-0.405 0.22367,0 0.405,0.18132 0.405,0.405 z"
             cx="454.22101"
             cy="299.77701"
             r="0.405"
             id="circle11450" />
          <circle
             style="fill:#34606f"
             sodipodi:ry="0.405"
             sodipodi:rx="0.405"
             sodipodi:cy="298.841"
             sodipodi:cx="454.17099"
             d="m 454.57599,298.841 c 0,0.22368 -0.18132,0.405 -0.405,0.405 -0.22368,0 -0.405,-0.18132 -0.405,-0.405 0,-0.22367 0.18132,-0.405 0.405,-0.405 0.22368,0 0.405,0.18133 0.405,0.405 z"
             cx="454.17099"
             cy="298.841"
             r="0.405"
             id="circle11452" />
        </g>
      </g>
      <path
         style="fill:#34606f"
         inkscape:connector-curvature="0"
         d="m 362.808,308.943 2.853,5.275 c 19.547,2.772 37.671,1.679 52.618,-0.733 -1.32,0.014 -46.598,0.453 -55.471,-4.542 z"
         id="path11454" />
      <path
         style="fill:#f7ae83"
         inkscape:connector-curvature="0"
         d="m 521.19,232.043 c -4.701,11.143 -32.178,29.373 -45.645,37.805 l 0,0 -10.787,6.185 c 0,0 0.457,3.681 0.404,5.24 0,0 2.418,-0.418 6.839,-2.661 l 0.001,-0.002 c 8.759,-4.183 30.192,-16.08 48.403,-39.502 0.146,-0.286 2.108,-4.284 0.785,-7.065 z"
         id="path11456" />
      <path
         style="fill:#628ea0"
         inkscape:connector-curvature="0"
         d="m 256.209,295.022 c -3.332,0.253 -6.948,0.114 -10.691,-0.501 -7.63,-1.254 -14.161,-4.19 -18.375,-7.819 -12.967,6.89 -33.449,21.37 -47.121,39.882 0,0 -5.824,6.78 -5.824,22.681 h 5.824 1.51 101.818 l -27.141,-54.243 z"
         id="path11458" />
      <polygon
         style="fill:#34606f"
         points="227.585,301.274 240.976,314.691 231.686,327.03 258.216,349.265 260.64,349.265 234.101,326.979 244.004,314.973 230.15,301.735 242.963,290.825 241.623,290.395 "
         id="polygon11460" />
    </g>
  </g>
</svg>
