<?xml version="1.0" encoding="UTF-8" standalone="no"?>
<!-- Created with Inkscape (http://www.inkscape.org/) -->

<svg
   xmlns:dc="http://purl.org/dc/elements/1.1/"
   xmlns:cc="http://creativecommons.org/ns#"
   xmlns:rdf="http://www.w3.org/1999/02/22-rdf-syntax-ns#"
   xmlns:svg="http://www.w3.org/2000/svg"
   xmlns="http://www.w3.org/2000/svg"
   xmlns:sodipodi="http://sodipodi.sourceforge.net/DTD/sodipodi-0.dtd"
   xmlns:inkscape="http://www.inkscape.org/namespaces/inkscape"
   width="500"
   height="250"
   id="svg5553"
   version="1.1"
   inkscape:version="0.48.4 r9939"
   sodipodi:docname="welcome.svg">
  <defs
     id="defs5555" />
  <sodipodi:namedview
     id="base"
     pagecolor="#ffffff"
     bordercolor="#666666"
     borderopacity="1.0"
     inkscape:pageopacity="0.0"
     inkscape:pageshadow="2"
     inkscape:zoom="0.49497475"
     inkscape:cx="179.40214"
     inkscape:cy="-31.256589"
     inkscape:document-units="px"
     inkscape:current-layer="layer1"
     showgrid="false"
     inkscape:window-width="1280"
     inkscape:window-height="748"
     inkscape:window-x="0"
     inkscape:window-y="0"
     inkscape:window-maximized="1" />
  <metadata
     id="metadata5558">
    <rdf:RDF>
      <cc:Work
         rdf:about="">
        <dc:format>image/svg+xml</dc:format>
        <dc:type
           rdf:resource="http://purl.org/dc/dcmitype/StillImage" />
        <dc:title />
      </cc:Work>
    </rdf:RDF>
  </metadata>
  <g
     inkscape:label="Layer 1"
     inkscape:groupmode="layer"
     id="layer1"
     transform="translate(0,-802.36215)">
    <polygon
       style="fill:#ffffff"
       points="768.508,360.329 688.623,364.442 723.333,434.973 775.597,434.973 786.037,411.554 "
       id="polygon15459"
       transform="matrix(1.2740908,0,0,1.2740908,-768.02498,501.81303)" />
    <path
       style="fill:#fdd08f"
       inkscape:connector-curvature="0"
       d="m 483.54244,892.87482 c 0,0 0.14143,-5.44674 -5.10655,-6.69917 -0.41026,-0.0765 -0.82307,-0.15162 -1.26263,-0.2115 -0.2803,-1.20529 -1.22695,-2.5673 -3.79169,-3.50503 -5.61365,-2.05383 -13.42127,1.30977 -13.42127,1.30977 -7.44579,-5.69009 -27.75862,8.85111 -31.06998,11.29609 l -19.71911,10.56221 c -8.65617,-2.15704 -11.82228,-6.95654 -11.82228,-6.95654 0,0 -1.97994,-15.99111 -10.26663,-19.24769 -8.28668,-3.25657 -12.92055,5.27219 -8.57081,14.65078 1.82832,3.94203 -0.595,11.41967 -4.01593,18.7648 l 0,0.006 c 0,0 -2.41185,5.97549 -1.27409,12.03761 l -2.26533,1.21294 c 0,0 49.28947,-2.38382 44.4097,35.98924 0,0 39.44331,-15.04956 71.53128,-56.31863 0.27266,-0.54022 5.33335,-10.78009 -3.35468,-12.89125 z"
       id="path15461" />
    <path
       style="fill:#f7ae83"
       inkscape:connector-curvature="0"
       d="m 378.42868,904.11102 c -0.172,0.0153 -0.34783,0.0535 -0.52493,0.0981 -0.8409,2.74184 -2.04109,5.69391 -3.40692,8.62687 l 0,0.006 c 0,0 -2.41185,5.97548 -1.27409,12.03761 l -2.26533,1.21293 c 0,0 3.10241,-0.14907 7.6713,0.23189 -3.08203,-8.84857 -0.20003,-22.21378 -0.20003,-22.21378 z"
       id="path15463" />
    <path
       style="fill:#fdd08f"
       inkscape:connector-curvature="0"
       d="m 404.48766,964.401 c 0,0 8.01785,-0.59373 15.21774,-4.2045 7.19988,-3.61077 -3.45534,-30.51575 -3.45534,-30.51575 l -30.34374,-8.41792 -9.71112,4.10767 6.90812,24.64474 21.38434,14.38576 z"
       id="path15465" />
    <path
       style="fill:#dff2fd"
       inkscape:connector-curvature="0"
       d="m 404.63927,980.65712 5.82005,-0.90205 c 0,0 7.08904,-37.0977 -14.17044,-49.56723 -21.25948,-12.46953 -27.24261,-2.00415 -27.24261,-2.00415 l 35.593,52.47343 z"
       id="path15467" />
    <path
       style="fill:#529eb2"
       inkscape:connector-curvature="0"
       d="m 232.00889,962.93707 c 0,0 89.26662,3.38908 138.49367,-39.78603 0,0 52.64033,5.3155 31.61911,68.76905 0,0 -63.80264,29.53851 -139.3919,14.03031 l -19.40823,-30.57438 -1.74041,-4.39052 -9.57224,-8.04843 z"
       id="path15469" />
    <rect
       id="rect15473"
       height="8.7099981"
       width="1.1059506"
       transform="matrix(0.99636413,-0.08519693,0.08519693,0.99636413,0,0)"
       y="1015.671"
       x="290.2514"
       style="fill:#34606f" />
    <rect
       id="rect15475"
       height="8.7099981"
       width="1.1059506"
       transform="matrix(0.99636413,-0.08519693,0.08519693,0.99636413,0,0)"
       y="1014.4643"
       x="296.61166"
       style="fill:#34606f" />
    <rect
       id="rect15477"
       height="8.7099981"
       width="1.1059506"
       transform="matrix(0.99636413,-0.08519693,0.08519693,0.99636413,0,0)"
       y="1013.3591"
       x="303.18588"
       style="fill:#34606f" />
    <rect
       id="rect15479"
       height="8.7099981"
       width="1.1059506"
       transform="matrix(0.99636413,-0.08519693,0.08519693,0.99636413,0,0)"
       y="1012.1644"
       x="309.89819"
       style="fill:#34606f" />
    <circle
       d="m 900.85201,384.875 c 0,1.40998 -1.14302,2.553 -2.553,2.553 -1.40998,0 -2.553,-1.14302 -2.553,-2.553 0,-1.40998 1.14302,-2.553 2.553,-2.553 1.40998,0 2.553,1.14302 2.553,2.553 z"
       style="fill:#84a8b2"
       sodipodi:ry="2.553"
       sodipodi:rx="2.553"
       sodipodi:cy="384.875"
       sodipodi:cx="898.29901"
       cx="898.29901"
       cy="384.875"
       r="2.553"
       id="circle15483"
       transform="matrix(1.2740908,0,0,1.2740908,-768.02498,501.81303)" />
    <path
       style="fill:#34606f"
       inkscape:connector-curvature="0"
       d="m 376.74688,995.18686 c -1.65887,0.14142 -3.12407,-1.0919 -3.2655,-2.75077 -0.14142,-1.65886 1.0919,-3.12407 2.75077,-3.26549 1.65886,-0.14143 3.12407,1.09189 3.26549,2.75076 0.14142,1.65887 -1.0919,3.12407 -2.75076,3.2655 z m -0.49308,-5.76272 c -1.51871,0.12996 -2.64883,1.47158 -2.51887,2.98902 0.12995,1.51744 1.47157,2.64883 2.99029,2.51888 1.51871,-0.12996 2.64883,-1.47158 2.51888,-2.98902 -0.12996,-1.51744 -1.47158,-2.64883 -2.9903,-2.51888 z"
       id="path15485" />
    <circle
       d="m 898.20103,385.40201 c 0,0.23969 -0.19431,0.434 -0.434,0.434 -0.23969,0 -0.434,-0.19431 -0.434,-0.434 0,-0.23969 0.19431,-0.434 0.434,-0.434 0.23969,0 0.434,0.19431 0.434,0.434 z"
       style="fill:#34606f"
       sodipodi:ry="0.43399999"
       sodipodi:rx="0.43399999"
       sodipodi:cy="385.40201"
       sodipodi:cx="897.76703"
       cx="897.76703"
       cy="385.40201"
       r="0.43399999"
       id="circle15487"
       transform="matrix(1.2740908,0,0,1.2740908,-768.02498,501.81303)" />
    <circle
       d="m 898.257,384.401 c 0,0.23969 -0.19431,0.434 -0.434,0.434 -0.23969,0 -0.434,-0.19431 -0.434,-0.434 0,-0.23969 0.19431,-0.434 0.434,-0.434 0.23969,0 0.434,0.19431 0.434,0.434 z"
       style="fill:#34606f"
       sodipodi:ry="0.43399999"
       sodipodi:rx="0.43399999"
       sodipodi:cy="384.401"
       sodipodi:cx="897.823"
       cx="897.823"
       cy="384.401"
       r="0.43399999"
       id="circle15489"
       transform="matrix(1.2740908,0,0,1.2740908,-768.02498,501.81303)" />
    <circle
       d="m 899.22599,385.543 c 0,0.23969 -0.19431,0.434 -0.434,0.434 -0.23969,0 -0.434,-0.19431 -0.434,-0.434 0,-0.23969 0.19431,-0.434 0.434,-0.434 0.23969,0 0.434,0.19431 0.434,0.434 z"
       style="fill:#34606f"
       sodipodi:ry="0.43399999"
       sodipodi:rx="0.43399999"
       sodipodi:cy="385.543"
       sodipodi:cx="898.79199"
       cx="898.79199"
       cy="385.543"
       r="0.43399999"
       id="circle15491"
       transform="matrix(1.2740908,0,0,1.2740908,-768.02498,501.81303)" />
    <circle
       d="m 899.28202,384.54099 c 0,0.23969 -0.19431,0.434 -0.434,0.434 -0.23969,0 -0.434,-0.19431 -0.434,-0.434 0,-0.2397 0.19431,-0.434 0.434,-0.434 0.23969,0 0.434,0.1943 0.434,0.434 z"
       style="fill:#34606f"
       sodipodi:ry="0.43399999"
       sodipodi:rx="0.43399999"
       sodipodi:cy="384.54099"
       sodipodi:cx="898.84802"
       cx="898.84802"
       cy="384.54099"
       r="0.43399999"
       id="circle15493"
       transform="matrix(1.2740908,0,0,1.2740908,-768.02498,501.81303)" />
    <circle
       d="m 905.90499,383.728 c 0,1.40998 -1.14302,2.553 -2.553,2.553 -1.40998,0 -2.553,-1.14302 -2.553,-2.553 0,-1.40999 1.14302,-2.553 2.553,-2.553 1.40998,0 2.553,1.14301 2.553,2.553 z"
       style="fill:#84a8b2"
       sodipodi:ry="2.553"
       sodipodi:rx="2.553"
       sodipodi:cy="383.728"
       sodipodi:cx="903.35199"
       cx="903.35199"
       cy="383.728"
       r="2.553"
       id="circle15497"
       transform="matrix(1.2740908,0,0,1.2740908,-768.02498,501.81303)" />
    <path
       style="fill:#34606f"
       inkscape:connector-curvature="0"
       d="m 383.18486,993.72547 c -1.65887,0.14143 -3.12407,-1.09189 -3.2655,-2.75076 -0.14142,-1.65887 1.0919,-3.12407 2.75077,-3.26549 1.65886,-0.14143 3.12407,1.09189 3.26549,2.75076 0.1427,1.65886 -1.09062,3.12279 -2.75076,3.26549 z m -0.4918,-5.76271 c -1.51872,0.12996 -2.64884,1.47158 -2.51888,2.98902 0.12996,1.51744 1.47158,2.64883 2.99029,2.51887 1.51872,-0.12995 2.64884,-1.47157 2.51888,-2.98901 -0.12996,-1.51744 -1.47157,-2.64884 -2.99029,-2.51888 z"
       id="path15499" />
    <circle
       d="m 903.25401,384.255 c 0,0.2397 -0.19431,0.434 -0.434,0.434 -0.23969,0 -0.434,-0.1943 -0.434,-0.434 0,-0.23969 0.19431,-0.434 0.434,-0.434 0.23969,0 0.434,0.19431 0.434,0.434 z"
       style="fill:#34606f"
       sodipodi:ry="0.43399999"
       sodipodi:rx="0.43399999"
       sodipodi:cy="384.255"
       sodipodi:cx="902.82001"
       cx="902.82001"
       cy="384.255"
       r="0.43399999"
       id="circle15501"
       transform="matrix(1.2740908,0,0,1.2740908,-768.02498,501.81303)" />
    <circle
       d="m 903.30998,383.25299 c 0,0.23969 -0.19431,0.434 -0.434,0.434 -0.2397,0 -0.434,-0.19431 -0.434,-0.434 0,-0.23969 0.1943,-0.434 0.434,-0.434 0.23969,0 0.434,0.19431 0.434,0.434 z"
       style="fill:#34606f"
       sodipodi:ry="0.43399999"
       sodipodi:rx="0.43399999"
       sodipodi:cy="383.25299"
       sodipodi:cx="902.87598"
       cx="902.87598"
       cy="383.25299"
       r="0.43399999"
       id="circle15503"
       transform="matrix(1.2740908,0,0,1.2740908,-768.02498,501.81303)" />
    <circle
       d="m 904.27897,384.396 c 0,0.23969 -0.19431,0.434 -0.434,0.434 -0.23969,0 -0.434,-0.19431 -0.434,-0.434 0,-0.2397 0.19431,-0.434 0.434,-0.434 0.23969,0 0.434,0.1943 0.434,0.434 z"
       style="fill:#34606f"
       sodipodi:ry="0.43399999"
       sodipodi:rx="0.43399999"
       sodipodi:cy="384.396"
       sodipodi:cx="903.84497"
       cx="903.84497"
       cy="384.396"
       r="0.43399999"
       id="circle15505"
       transform="matrix(1.2740908,0,0,1.2740908,-768.02498,501.81303)" />
    <circle
       d="m 904.335,383.39401 c 0,0.23969 -0.19431,0.434 -0.434,0.434 -0.23969,0 -0.434,-0.19431 -0.434,-0.434 0,-0.23969 0.19431,-0.434 0.434,-0.434 0.23969,0 0.434,0.19431 0.434,0.434 z"
       style="fill:#34606f"
       sodipodi:ry="0.43399999"
       sodipodi:rx="0.43399999"
       sodipodi:cy="383.39401"
       sodipodi:cx="903.901"
       cx="903.901"
       cy="383.39401"
       r="0.43399999"
       id="circle15507"
       transform="matrix(1.2740908,0,0,1.2740908,-768.02498,501.81303)" />
    <circle
       d="m 911.07003,382.564 c 0,1.40998 -1.14302,2.553 -2.553,2.553 -1.40998,0 -2.553,-1.14302 -2.553,-2.553 0,-1.40999 1.14302,-2.553 2.553,-2.553 1.40998,0 2.553,1.14301 2.553,2.553 z"
       style="fill:#84a8b2"
       sodipodi:ry="2.553"
       sodipodi:rx="2.553"
       sodipodi:cy="382.564"
       sodipodi:cx="908.51703"
       cx="908.51703"
       cy="382.564"
       r="2.553"
       id="circle15511"
       transform="matrix(1.2740908,0,0,1.2740908,-768.02498,501.81303)" />
    <path
       style="fill:#34606f"
       inkscape:connector-curvature="0"
       d="m 390.09425,992.19656 c -1.63338,0.32362 -3.22472,-0.74279 -3.54834,-2.3749 -0.32362,-1.63339 0.7428,-3.22473 2.37618,-3.54834 1.63338,-0.32362 3.22472,0.74279 3.54834,2.3749 0.32362,1.63211 -0.74279,3.22472 -2.37618,3.54834 z m -1.12247,-5.67352 c -1.49578,0.29559 -2.47174,1.75315 -2.17487,3.24766 0.29686,1.4945 1.75315,2.47046 3.24893,2.17487 1.49578,-0.29559 2.47173,-1.75315 2.17487,-3.24766 -0.29686,-1.49451 -1.75315,-2.47046 -3.24893,-2.17487 z"
       id="path15513" />
    <circle
       d="m 908.48002,383.146 c 0,0.23969 -0.19431,0.434 -0.434,0.434 -0.23969,0 -0.434,-0.19431 -0.434,-0.434 0,-0.2397 0.19431,-0.434 0.434,-0.434 0.23969,0 0.434,0.1943 0.434,0.434 z"
       style="fill:#34606f"
       sodipodi:ry="0.43399999"
       sodipodi:rx="0.43399999"
       sodipodi:cy="383.146"
       sodipodi:cx="908.04602"
       cx="908.04602"
       cy="383.146"
       r="0.43399999"
       id="circle15515"
       transform="matrix(1.2740908,0,0,1.2740908,-768.02498,501.81303)" />
    <circle
       d="m 908.426,382.14499 c 0,0.23969 -0.1943,0.434 -0.434,0.434 -0.23969,0 -0.434,-0.19431 -0.434,-0.434 0,-0.23969 0.19431,-0.434 0.434,-0.434 0.2397,0 0.434,0.19431 0.434,0.434 z"
       style="fill:#34606f"
       sodipodi:ry="0.43399999"
       sodipodi:rx="0.43399999"
       sodipodi:cy="382.14499"
       sodipodi:cx="907.992"
       cx="907.992"
       cy="382.14499"
       r="0.43399999"
       id="circle15517"
       transform="matrix(1.2740908,0,0,1.2740908,-768.02498,501.81303)" />
    <circle
       d="m 909.51402,383.17401 c 0,0.23969 -0.19431,0.434 -0.434,0.434 -0.23969,0 -0.434,-0.19431 -0.434,-0.434 0,-0.23969 0.19431,-0.434 0.434,-0.434 0.23969,0 0.434,0.19431 0.434,0.434 z"
       style="fill:#34606f"
       sodipodi:ry="0.43399999"
       sodipodi:rx="0.43399999"
       sodipodi:cy="383.17401"
       sodipodi:cx="909.08002"
       cx="909.08002"
       cy="383.17401"
       r="0.43399999"
       id="circle15519"
       transform="matrix(1.2740908,0,0,1.2740908,-768.02498,501.81303)" />
    <circle
       d="m 909.46,382.172 c 0,0.23969 -0.19431,0.434 -0.434,0.434 -0.23969,0 -0.434,-0.19431 -0.434,-0.434 0,-0.23969 0.19431,-0.434 0.434,-0.434 0.23969,0 0.434,0.19431 0.434,0.434 z"
       style="fill:#34606f"
       sodipodi:ry="0.43399999"
       sodipodi:rx="0.43399999"
       sodipodi:cy="382.172"
       sodipodi:cx="909.026"
       cx="909.026"
       cy="382.172"
       r="0.43399999"
       id="circle15521"
       transform="matrix(1.2740908,0,0,1.2740908,-768.02498,501.81303)" />
    <circle
       d="m 916.09603,381.38699 c 0,1.40999 -1.14302,2.553 -2.553,2.553 -1.40998,0 -2.553,-1.14301 -2.553,-2.553 0,-1.40998 1.14302,-2.553 2.553,-2.553 1.40998,0 2.553,1.14302 2.553,2.553 z"
       style="fill:#84a8b2"
       sodipodi:ry="2.553"
       sodipodi:rx="2.553"
       sodipodi:cy="381.38699"
       sodipodi:cx="913.54303"
       cx="913.54303"
       cy="381.38699"
       r="2.553"
       id="circle15525"
       transform="matrix(1.2740908,0,0,1.2740908,-768.02498,501.81303)" />
    <path
       style="fill:#34606f"
       inkscape:connector-curvature="0"
       d="m 396.49783,990.69568 c -1.63338,0.32362 -3.22472,-0.74279 -3.54834,-2.3749 -0.32362,-1.63338 0.7428,-3.22472 2.37618,-3.54834 1.63338,-0.32362 3.22472,0.74279 3.54834,2.3749 0.32362,1.63211 -0.74279,3.226 -2.37618,3.54834 z m -1.12247,-5.67225 c -1.49578,0.29559 -2.47174,1.75315 -2.17487,3.24766 0.29686,1.49451 1.75315,2.47046 3.24893,2.17487 1.49578,-0.29559 2.47173,-1.75315 2.17487,-3.24765 -0.29686,-1.49451 -1.75442,-2.47174 -3.24893,-2.17488 z"
       id="path15527" />
    <circle
       d="m 913.50602,381.96899 c 0,0.2397 -0.19431,0.434 -0.434,0.434 -0.23969,0 -0.434,-0.1943 -0.434,-0.434 0,-0.23969 0.19431,-0.434 0.434,-0.434 0.23969,0 0.434,0.19431 0.434,0.434 z"
       style="fill:#34606f"
       sodipodi:ry="0.43399999"
       sodipodi:rx="0.43399999"
       sodipodi:cy="381.96899"
       sodipodi:cx="913.07202"
       cx="913.07202"
       cy="381.96899"
       r="0.43399999"
       id="circle15529"
       transform="matrix(1.2740908,0,0,1.2740908,-768.02498,501.81303)" />
    <circle
       d="m 913.45201,380.96799 c 0,0.23969 -0.19431,0.434 -0.434,0.434 -0.2397,0 -0.434,-0.19431 -0.434,-0.434 0,-0.23969 0.1943,-0.434 0.434,-0.434 0.23969,0 0.434,0.19431 0.434,0.434 z"
       style="fill:#34606f"
       sodipodi:ry="0.43399999"
       sodipodi:rx="0.43399999"
       sodipodi:cy="380.96799"
       sodipodi:cx="913.01801"
       cx="913.01801"
       cy="380.96799"
       r="0.43399999"
       id="circle15531"
       transform="matrix(1.2740908,0,0,1.2740908,-768.02498,501.81303)" />
    <circle
       d="m 914.54002,381.996 c 0,0.23969 -0.19431,0.434 -0.434,0.434 -0.23969,0 -0.434,-0.19431 -0.434,-0.434 0,-0.23969 0.19431,-0.434 0.434,-0.434 0.23969,0 0.434,0.19431 0.434,0.434 z"
       style="fill:#34606f"
       sodipodi:ry="0.43399999"
       sodipodi:rx="0.43399999"
       sodipodi:cy="381.996"
       sodipodi:cx="914.10602"
       cx="914.10602"
       cy="381.996"
       r="0.43399999"
       id="circle15533"
       transform="matrix(1.2740908,0,0,1.2740908,-768.02498,501.81303)" />
    <circle
       d="m 914.48503,380.995 c 0,0.23969 -0.19431,0.434 -0.434,0.434 -0.2397,0 -0.434,-0.19431 -0.434,-0.434 0,-0.2397 0.1943,-0.434 0.434,-0.434 0.23969,0 0.434,0.1943 0.434,0.434 z"
       style="fill:#34606f"
       sodipodi:ry="0.43399999"
       sodipodi:rx="0.43399999"
       sodipodi:cy="380.995"
       sodipodi:cx="914.05103"
       cx="914.05103"
       cy="380.995"
       r="0.43399999"
       id="circle15535"
       transform="matrix(1.2740908,0,0,1.2740908,-768.02498,501.81303)" />
    <path
       style="fill:#34606f"
       inkscape:connector-curvature="0"
       d="m 271.95036,1001.0133 3.89107,7.1948 c 26.66035,3.7815 51.37899,2.2895 71.76444,-0.9989 -1.79901,0.018 -63.55292,0.6166 -75.65551,-6.1959 z"
       id="path15537" />
    <path
       style="fill:#f7ae83"
       inkscape:connector-curvature="0"
       d="m 487.96736,896.13012 c -6.41122,15.19735 -43.88733,40.06251 -62.25462,51.56118 l 0,0 -14.71193,8.43575 c 0,0 0.6243,5.01992 0.55168,7.14638 0,0 3.29862,-0.57079 9.32762,-3.62989 l 0.001,-0.003 c 11.94588,-5.70538 41.17862,-21.93093 66.01702,-53.87621 0.19621,-0.38987 2.8718,-5.8417 1.06896,-9.63467 z"
       id="path15539" />
    <path
       style="fill:#2e3335"
       inkscape:connector-curvature="0"
       d="m 175.97565,1056.0081 22.91962,-7.7885 c 0,0 0.44593,0.1236 0.26246,0.5466 l -22.05324,7.2419 h -1.12884 z"
       id="path15541" />
    <path
       style="fill:#1d1b34"
       inkscape:connector-curvature="0"
       d="m 201.21029,1049.0834 -9.29704,3.249 c 0,0 -0.78611,0.135 -0.51601,0.674 0.26884,0.5389 1.09955,0 1.09955,0 l 9.41425,-3.6834 -0.70075,-0.2396 z"
       id="path15543" />
    <path
       style="fill:#cfe1eb"
       inkscape:connector-curvature="0"
       d="m 165.33572,1003.3168 -1.5098,5.5347 c 0,0 14.24051,-9.90225 25.33275,-6.0176 l -3.14573,-3.4298 -20.62881,3.7509"
       id="path15545" />
    <path
       style="fill:#fdd08f"
       inkscape:connector-curvature="0"
       d="m 123.77233,974.83453 c 0,0 31.54649,-7.6369 39.52612,-36.05167 0,0 14.06851,23.57959 44.19438,27.8083 -25.83856,33.34041 -83.7205,8.24337 -83.7205,8.24337 z"
       id="path15547" />
    <g
       id="g15549"
       transform="matrix(1.2740908,0,0,1.2740908,-768.02498,501.81303)">
      <path
         style="fill:none"
         inkscape:connector-curvature="0"
         d="m 731.037,378.306 c -16.4,-0.685 -31.089,-7.045 -31.089,-7.045 0,0 24.76,-5.994 31.023,-28.296 0,0 8.482,14.212 26.493,19.961 -2.95,5.026 -9.97,12.217 -26.427,15.38 z"
         id="path15551" />
      <path
         style="fill:#f7ae83"
         inkscape:connector-curvature="0"
         d="m 757.464,362.927 c 2.541,0.811 5.27,1.455 8.194,1.865 -8.749,11.289 -22.177,14.034 -34.62,13.514 16.456,-3.163 23.476,-10.354 26.426,-15.379 z"
         id="path15553" />
    </g>
    <path
       style="fill:#fdd08f"
       inkscape:connector-curvature="0"
       d="m 207.43677,854.08002 14.74251,-13.41617 c 0,0 4.49372,-2.96354 3.92929,7.74902 -0.56442,10.71128 0.96194,34.76611 -12.92182,32.29438 -13.88377,-2.47174 -5.74998,-26.62723 -5.74998,-26.62723 z"
       id="path15555" />
    <g
       id="g15557"
       transform="matrix(1.2740908,0,0,1.2740908,-768.02498,501.81303)">
      <path
         style="fill:none"
         inkscape:connector-curvature="0"
         d="m 765.698,289.908 c 3.789,1.067 10.082,-18.426 11.833,-24.121 0.877,-0.331 3.094,-0.522 2.738,6.249 -0.443,8.407 0.755,27.287 -10.142,25.347 -4.425,-0.788 -6,-4.382 -6.311,-8.373 0.536,0.382 1.155,0.693 1.882,0.898 z"
         id="path15559" />
      <path
         style="fill:#f7ae83"
         inkscape:connector-curvature="0"
         d="m 765.698,289.908 c -0.727,-0.205 -1.346,-0.516 -1.882,-0.898 -0.454,-5.838 1.797,-12.525 1.797,-12.525 l 11.571,-10.53 c 0,0 0.135,-0.088 0.347,-0.168 -1.751,5.695 -8.043,25.187 -11.833,24.121 z"
         id="path15561" />
    </g>
    <path
       style="fill:#fdd08f"
       inkscape:connector-curvature="0"
       d="m 68.636048,871.90201 4.421095,-16.93394 c 14.852076,-52.84674 70.929907,-52.43903 98.010707,-46.85469 27.08208,5.58434 40.94418,38.60367 39.48535,66.85536 -1.44992,28.06313 22.89669,54.58588 23.22158,54.93752 0.56824,1.27792 0.90206,2.00033 0.90206,2.00033 0,0 -49.33662,9.01164 -58.44128,0.32616 -9.10592,-8.68547 -54.41896,24.59378 -54.41896,24.59378 0,0 -7.9223,-1.72002 -18.02711,-10.18508 -6.904301,5.39068 -17.662724,12.33702 -22.55141,9.30341 -7.422853,-4.60711 -4.686106,-7.20753 -0.973405,-20.41985 1.903491,-6.7718 -0.192388,-16.69824 -2.685784,-24.7696 -1.955729,-4.28987 -3.652818,-8.79123 -5.031384,-13.51556 -0.04205,-0.0943 -0.07135,-0.15926 -0.07135,-0.15926 0,0 0.01656,-0.0204 0.02039,-0.0242 -2.250044,-7.77068 -3.634981,-16.13891 -3.860495,-25.15437 z"
       id="path15563" />
    <g
       id="g17625">
      <ellipse
         id="ellipse15565"
         ry="10.533"
         rx="2.845"
         cy="291.90201"
         cx="715.42798"
         transform="matrix(1.2739634,-0.02013063,0.02013063,1.2739634,-773.78362,516.25166)"
         sodipodi:cx="715.42798"
         sodipodi:cy="291.90201"
         sodipodi:rx="2.845"
         sodipodi:ry="10.533"
         style="fill:#0d4759"
         d="m 718.27298,291.90201 c 0,5.81721 -1.27375,10.533 -2.845,10.533 -1.57125,0 -2.845,-4.71579 -2.845,-10.533 0,-5.81722 1.27375,-10.533 2.845,-10.533 1.57125,0 2.845,4.71578 2.845,10.533 z" />
      <ellipse
         id="ellipse15567"
         ry="13.23"
         rx="5.2270002"
         cy="289.298"
         cx="735.94098"
         transform="matrix(1.2454238,-0.26883316,0.26883316,1.2454238,-824.68966,707.9692)"
         sodipodi:cx="735.94098"
         sodipodi:cy="289.298"
         sodipodi:rx="5.2270002"
         sodipodi:ry="13.23"
         style="fill:#0d4759"
         d="m 741.16798,289.298 c 0,7.30673 -2.34021,13.23 -5.227,13.23 -2.88679,0 -5.227,-5.92327 -5.227,-13.23 0,-7.30672 2.34021,-13.23 5.227,-13.23 2.88679,0 5.227,5.92328 5.227,13.23 z">
            <animate 
         attributeName="ry"
         values="13;13;13;13;13;13;13;13;13;13;13;13;13;0.4;0.4;13;13;13;13;13;13;
                  13;13;13;13;13;13;13;13;13;13;13;13;13;13;13;13;13;13;13;13;13;13;
                  13;13;13;13;13;13;13;13;13;13;13;13;13;13;13;13;13;13;13;13;13;13;
                  13;13;13;13;13;13;13;13;13;13;13;13;13;13;13;13;13;13;13;13;13;13;
                  13;13;13;13;13;13;13;13;13;13;13;13;13;13;13;13;13;13;13;13;13;13;
                  13;13;13;13;13;13;13;13;13;13;13;13;13;13;13;13;13;
                  13;13;13;13;13;13;13;13;13;13;13;13;13;13;13;13;13;13;13;13;13;13;
                  13;13;13;13;13;13;13;13;13;13;13;13;13;13;13;13;13;13;13;13;13;13;
                  13;13;13;13;13;13;13;13;13;13;13;13;13;13;13;13;13;13;13;13;13;13;
                  13;13;13;13;13;13;13;13;13;13;13;13;13;13;13;13;13;13;13;13;13;13;
                  13;13;13;13;13;13;13;13;13;13;13;"
         dur="0.5s"
         begin="0s"
         repeatCount="indefinite"
         />
     </ellipse>
    </g>
    <path
       style="fill:#f7ae83"
       inkscape:connector-curvature="0"
       d="m 81.165457,836.34978 c 0,0 -4.850464,25.95705 -2.116265,32.05103 2.734199,6.09397 -5.832788,1.71237 -8.509652,-3.78151 -0.0013,0 3.724167,-19.26425 10.625917,-28.26952 z"
       id="path15569" />
    <path
       style="fill:#f7ae83"
       inkscape:connector-curvature="0"
       d="m 72.6265,902.72099 c 0,0 3.794243,-9.06516 7.565551,-6.43671 0,0 1.303395,0.78229 3.395452,2.34688 0.122313,0.19239 0.253545,0.40134 0.393695,0.62558 -0.402613,0.10447 -0.630675,0.172 -0.630675,0.172 0,0 14.073607,18.89094 6.702991,34.38134 -4.260559,8.95558 -3.476994,18.80558 -1.945536,25.53787 -1.722571,-0.79248 -3.247658,-1.706 -4.438933,-2.67813 -9.067704,-7.39992 -6.570486,-13.34356 -6.570486,-13.34356 0,0 8.970873,-21.14863 -4.472059,-40.60527 z"
       id="path15571" />
    <path
       style="fill:#fdd08f"
       inkscape:connector-curvature="0"
       d="m 80.479996,869.06715 c 0,0 -32.131296,-15.1604 -35.071897,-11.62225 -2.941876,3.53815 -0.614112,17.00019 4.224885,29.01232 4.838996,12.01085 11.173776,20.67849 33.411757,14.16534 22.236709,-6.51315 -2.564745,-31.55541 -2.564745,-31.55541 z"
       id="path15573" />
    <path
       style="fill:#f7ae83"
       inkscape:connector-curvature="0"
       d="m 67.804067,873.422 c 0,0 -16.405194,-13.54486 -16.493106,-5.24416 -0.08791,8.3007 3.060366,16.92375 10.294654,21.0913 0,0 2.413128,1.16197 -0.5262,-2.79026 -2.939327,-3.95223 -7.512039,-16.27269 -4.966406,-15.05721 2.545634,1.21549 17.681833,6.37428 11.691058,2.00033 z"
       id="path15575" />
    <path
       style="fill:#f7ae83"
       inkscape:connector-curvature="0"
       d="m 72.073545,884.36899 c 0,0 1.215483,3.49228 -2.470462,3.46043 -3.685945,-0.0319 -3.135538,4.01466 -0.378405,4.11404 2.757132,0.10065 7.584662,-5.60218 2.848867,-7.57447 z"
       id="path15577" />
    <path
       style="fill:#529eb2"
       inkscape:connector-curvature="0"
       d="m 290.52661,1055.9151 c -0.0204,-0.064 -0.0471,-0.1414 -0.0701,-0.2089 -0.36949,-11.8746 -2.91002,-24.6843 -7.85222,-37.4596 -10.93934,-28.27332 -30.66227,-48.82314 -50.36863,-55.23181 -0.0522,-0.0306 -0.1032,-0.0637 -0.15544,-0.093 -0.0217,0.005 -0.0484,0.0115 -0.0701,0.0178 -3.86431,-1.23587 -7.72608,-1.93662 -11.52033,-2.03218 v 4.68229 c -5.19446,1.14286 -10.02327,2.14939 -10.45773,2.13665 0,0 10.00161,18.54566 10.45773,56.98752 v 5.8379 c -0.1032,7.7503 -0.5899,16.2294 -1.60408,25.4589 h 1.60408 64.09824 5.88375 c -0.001,-0.031 -0.004,-0.062 -0.005,-0.093 l 0.0599,-0 z"
       id="path15579" />
    <path
       style="fill:#cfe1eb"
       inkscape:connector-curvature="0"
       d="m 129.11586,988.06469 c 0,0 18.42336,17.23211 29.88126,19.48081 l -3.97135,3.1967 c 0,0 -17.57608,-10.487 -25.90991,-22.67751 z"
       id="path15581" />
    <path
       style="fill:#cfe1eb"
       inkscape:connector-curvature="0"
       d="m 192.26363,1003.2888 4.89888,3.9191 c 0,0 12.3625,-18.75461 11.85031,-27.2923 -0.001,0 -8.91226,22.3921 -16.74919,23.3732 z"
       id="path15583" />
    <polygon
       style="fill:#195e72"
       points="783.948,385.961 793.504,395.353 785.925,434.973 787.655,434.973 796.058,394.254 785.678,385.961 790.332,374.756 773.325,365.189 772.07,365.457 787.984,375.25 "
       id="polygon15585"
       transform="matrix(1.2740908,0,0,1.2740908,-768.02498,501.81303)" />
    <path
       style="fill:#195e72"
       inkscape:connector-curvature="0"
       d="m 264.24466,1029.321 -0.6294,-1.8194 c 0,0 -10.88201,4.3995 -23.24196,3.7178 l -0.1771,0.8944 -0.37331,0.3555 c 17.21424,0.1402 24.42177,-3.1483 24.42177,-3.1483 z"
       id="path15587" />
    <path
       style="fill:#195e72"
       inkscape:connector-curvature="0"
       d="m 267.04384,1039.1532 c -0.35675,-3.4949 -1.31741,-6.5858 -2.13283,-8.7084 l -0.004,-0.015 -0.008,-0.015 c -0.69692,-1.813 -1.28428,-2.9126 -1.28428,-2.9126 v 0.9798 c 0.0764,0.1363 0.15162,0.2969 0.22679,0.4612 l -0.22679,0.1249 c 0,0 2.18634,7.6624 2.2131,10.6284 l 0.81287,-0.2968 -0.0102,-0.107 0.41281,-0.1389 z"
       id="path15589" />
    <path
       style="fill:#195e72"
       inkscape:connector-curvature="0"
       d="m 266.99415,1038.6996 c -0.13251,0.1503 -0.3593,0.293 -0.66635,0.4294 l -0.0178,-0.082 c 0,0 -8.60776,2.589 -28.16632,2.2042 v 0.3822 c -0.0828,0 -0.14015,0 -0.14015,0 v 0.6995 c 12.10641,0.1044 28.99066,-2.0386 28.99066,-2.0386 0.27393,-0.4969 0,-1.5977 0,-1.5977 z"
       id="path15591" />
    <path
       style="fill:#529eb2"
       inkscape:connector-curvature="0"
       d="m 156.9573,1056.0081 -39.14644,-80.64228 c -4.54341,0.34528 -7.96689,-2.6845 -13.0709,-3.52286 -5.850626,-0.96194 -7.041901,-3.52541 -11.650287,-5.69646 l -0.01274,0.7721 -0.267559,-0.7721 c -16.788695,7.67003 -77.107976,38.4941 -87.9938074,89.8056 H 91.672884 l -0.0013,0.057 h 65.28569 z"
       id="path15593" />
    <polygon
       style="fill:#195e72"
       points="680.635,397.962 670.689,411.171 699.089,434.973 701.685,434.973 673.275,411.116 683.875,398.264 669.046,384.093 683,372.261 681.414,371.878 666.299,383.599 "
       id="polygon15595"
       transform="matrix(1.2740908,0,0,1.2740908,-768.02498,501.81303)" />
    <path
       style="fill:#0d4759"
       inkscape:connector-curvature="0"
       d="M 72.901704,958.47393 C 55.704026,938.85803 61.752135,926.11075 61.752135,926.11075 l 0.0013,0.004 c 2.237304,-6.45837 8.058625,-11.36362 15.306927,-12.07328 8.791227,-0.86129 16.722442,4.73579 19.097347,12.92182 -1.955729,-5.86718 -7.813999,-9.82069 -14.294024,-9.18619 -7.513314,0.73642 -13.013564,7.35787 -12.284784,14.78965 0.439561,4.48862 3.056544,8.23827 6.71191,10.34944 1.281736,0.69692 2.508685,1.15814 3.634981,1.45373 0.275204,0.0663 0.551682,0.13251 0.831982,0.18092 l -0.0038,0.0102 c 3.192871,0.64851 5.3945,0.008 5.3945,0.008 4.389243,-0.72113 8.052254,-4.00192 12.167567,-7.69168 3.418387,-3.06547 5.191917,-5.42763 6.867347,-7.38718 3.21326,-3.75984 13.39197,-15.67005 27.47322,-17.58118 2.19908,-0.29814 10.64121,-1.31869 19.04639,3.68085 1.35308,0.80522 9.05878,5.57924 12.12297,14.17043 1.33907,-9.02311 7.97199,-15.20117 9.14288,-16.25357 7.27505,-6.53609 15.75413,-7.17313 17.96977,-7.30691 14.18445,-0.85874 26.48071,8.84983 30.36286,11.91529 2.02453,1.59771 4.22234,3.57128 8.17074,5.91433 4.75236,2.82211 8.98234,5.32825 13.42765,5.18428 0,0 2.28317,0.20131 5.29002,-1.05495 l -0.006,-0.0102 c 0.26629,-0.1032 0.52365,-0.22042 0.78102,-0.33891 1.0473,-0.50836 2.16086,-1.19892 3.28333,-2.13155 3.17631,-2.77879 5.0161,-6.96546 4.57526,-11.45408 -0.7275,-7.43177 -7.40884,-12.86067 -14.92215,-12.12425 -6.48003,0.6345 -11.45917,5.64932 -12.23892,11.78534 0.74152,-8.49181 7.4356,-15.52097 16.22682,-16.38226 7.24831,-0.70967 13.91053,2.97118 17.35822,8.87277 l 0.001,-0.003 c 0,0 8.4039,11.32667 -4.64788,33.89719 -0.0204,0.0344 -0.0395,0.0688 -0.0599,0.1032 -0.22807,0.39242 -0.46123,0.78739 -0.70203,1.18745 -0.13378,0.2217 -0.27011,0.43829 -0.40643,0.65743 -0.003,0.005 -0.006,0.0102 -0.009,0.0153 -14.17426,22.79349 -37.13975,24.74922 -37.13975,24.74922 l 0.0166,-0.0153 c -1.21293,0.20258 -2.43733,0.37585 -3.67957,0.49817 -21.34612,2.09078 -41.01298,-8.44722 -51.60323,-25.52132 -7.07502,18.80431 -24.32239,32.95946 -45.66978,35.05024 -1.24224,0.12232 -2.47683,0.18857 -3.70633,0.22552 l 0.0191,0.0115 c 0,0 -23.35918,2.59278 -41.773614,-17.64998 -0.317249,-0.3491 -0.625578,-0.69438 -0.927538,-1.03838 -0.01784,-0.0242 -0.03695,-0.0471 -0.05733,-0.0688 z"
       id="path15597" />
    <path
       style="fill:#167c9c"
       inkscape:connector-curvature="0"
       d="m 173.11659,1039.4692 c 0.0395,1.2027 0.67527,8.2777 1.4066,16.5389 h 30.77056 c -7.58976,-18.0436 -17.41045,-39.823 -21.93729,-44.3332 l 2.65648,-12.27208 c 0,0 -7.1502,-9.86911 -13.0709,-6.10162 -5.9207,3.76749 -7.60632,10.0144 -7.60632,10.0144 l 10.77498,11.4859 c -0.001,0 -3.20051,18.3099 -2.99411,24.6677 z"
       id="path15599" />
    <path
       style="fill:#005d7b"
       inkscape:connector-curvature="0"
       d="m 174.48242,1056.0081 h 2.54945 c -1.43845,-9.655 -2.78007,-20.1637 -3.06928,-27.3687 v 0 c -0.54659,4.2287 -0.96576,8.4013 -0.88677,10.8298 0.0395,1.2027 0.67527,8.279 1.4066,16.5389 z"
       id="path15601" />
  </g>
</svg>
