<?xml version="1.0" encoding="UTF-8" standalone="no"?>
<!-- Created with Inkscape (http://www.inkscape.org/) -->

<svg
   xmlns:dc="http://purl.org/dc/elements/1.1/"
   xmlns:cc="http://creativecommons.org/ns#"
   xmlns:rdf="http://www.w3.org/1999/02/22-rdf-syntax-ns#"
   xmlns:svg="http://www.w3.org/2000/svg"
   xmlns="http://www.w3.org/2000/svg"
   xmlns:sodipodi="http://sodipodi.sourceforge.net/DTD/sodipodi-0.dtd"
   xmlns:inkscape="http://www.inkscape.org/namespaces/inkscape"
   width="500"
   height="250"
   id="svg5553"
   version="1.1"
   inkscape:version="0.48.4 r9939"
   sodipodi:docname="welcome.svg">
  <defs
     id="defs5555" />
  <sodipodi:namedview
     id="base"
     pagecolor="#ffffff"
     bordercolor="#666666"
     borderopacity="1.0"
     inkscape:pageopacity="0.0"
     inkscape:pageshadow="2"
     inkscape:zoom="1.979899"
     inkscape:cx="101.47376"
     inkscape:cy="120.38735"
     inkscape:document-units="px"
     inkscape:current-layer="layer1"
     showgrid="false"
     inkscape:window-width="454"
     inkscape:window-height="435"
     inkscape:window-x="51"
     inkscape:window-y="52"
     inkscape:window-maximized="0" />
  <metadata
     id="metadata5558">
    <rdf:RDF>
      <cc:Work
         rdf:about="">
        <dc:format>image/svg+xml</dc:format>
        <dc:type
           rdf:resource="http://purl.org/dc/dcmitype/StillImage" />
        <dc:title />
      </cc:Work>
    </rdf:RDF>
  </metadata>
  <g
     inkscape:label="Layer 1"
     inkscape:groupmode="layer"
     id="layer1"
     transform="translate(0,-802.36215)">
    <path
       d="m 106.81497,1018.2448 6.85655,34.2881 h 108.11207 c 0.70455,-15.6167 1.13187,-30.7989 0.69042,-39.4318 -0.0335,-0.6481 -0.083,-1.2467 -0.1236,-1.8682 -3.23316,-2.0113 -7.42161,-6.7383 -12.83198,-15.48422 -2.02359,-3.27024 -4.66874,-5.95777 -7.78006,-8.14911 -0.34609,0.61626 -0.82638,1.46913 -1.21133,2.15956 -0.31254,-0.0636 -0.61625,-0.11478 -0.93233,-0.18188 -6.8848,-1.47973 -12.69248,-2.97535 -16.6037,-4.53631 -16.08808,1.01533 -35.13738,2.34674 -49.27604,3.73464 -0.72574,3.4839 -4.52571,9.66592 -21.45431,13.42172 -0.70808,0.1572 -1.4038,0.2773 -2.09776,0.3938 0.48559,2.9612 2.01653,4.6564 2.01653,4.6564 0,0 -0.59507,5.1843 -5.42979,10.4587 0.0388,0.3355 0.0653,0.5386 0.0653,0.5386 z"
       id="path997"
       inkscape:connector-curvature="0"
       style="fill:#ffffff" />
    <path
       d="m 70.498029,995.31429 c 0,0 4.116049,-2.31141 5.410371,-2.78641 1.294322,-0.475 32.80126,8.57462 32.80126,8.57462 l 1.65454,2.4457 1.60157,2.3273 0.85464,1.7658 -20.536101,2.5127 -19.974583,-6.567 -2.353794,-6.08843 0.542097,-2.18428 z"
       id="path1005"
       inkscape:connector-curvature="0"
       style="fill:#628ea0" />
    <polygon
       points="139.139,281.481 139.996,282.842 146.406,285.656 154.219,282.094 154.716,279.543 151.531,279.031 "
       id="polygon1007"
       transform="matrix(1.765787,0,0,1.765787,-37.684677,496.30995)"
       style="fill:#628ea0" />
    <path
       d="m 487.50275,913.51244 c 0,0 0.14832,-5.72644 -5.36976,-7.04372 -0.43262,-0.0795 -0.86524,-0.15892 -1.32787,-0.22249 -0.29489,-1.26607 -1.28903,-2.69989 -3.98715,-3.6852 -5.90126,-2.15955 -14.1104,1.37732 -14.1104,1.37732 -7.8295,-5.98249 -29.18493,9.3057 -32.66706,11.87668 l -20.73211,11.10504 c -9.10086,-2.26728 -12.42937,-7.31389 -12.42937,-7.31389 0,0 -2.08187,-16.81383 -10.79426,-20.23769 -8.71239,-3.42386 -13.5842,5.54281 -9.01081,15.40296 1.92294,4.1443 -0.62685,12.00559 -4.222,19.72914 l 0,0.007 c 0,0 -2.53567,6.28267 -1.34023,12.65716 l -2.38205,1.2749 c 0,0 51.82232,-2.50565 46.69094,37.83905 0,0 41.46951,-15.82322 75.20664,-59.21213 0.28782,-0.56859 5.60814,-11.33459 -3.52451,-13.55419 z"
       id="path1009"
       inkscape:connector-curvature="0"
       style="fill:#fdd08f" />
    <path
       d="m 376.98567,925.32733 c -0.18187,0.0159 -0.36552,0.0565 -0.55269,0.10241 -0.88466,2.88353 -2.14543,5.98602 -3.58278,9.07085 l 0,0.007 c 0,0 -2.53567,6.28267 -1.34023,12.65716 l -2.38205,1.2749 c 0,0 3.26141,-0.15715 8.06611,0.24368 -3.23845,-9.3057 -0.20836,-23.35606 -0.20836,-23.35606 z"
       id="path1011"
       inkscape:connector-curvature="0"
       style="fill:#f7ae83" />
    <path
       d="m 404.38362,988.71378 c 0,0 8.42987,-0.62509 15.9998,-4.41976 7.56816,-3.79468 -3.63223,-32.08259 -3.63223,-32.08259 l -31.90247,-8.85012 -10.20978,4.31911 7.26268,25.91116 22.482,15.1222 z"
       id="path1013"
       inkscape:connector-curvature="0"
       style="fill:#fdd08f" />
    <path
       d="m 404.54431,1005.8048 6.11845,-0.9482 c 0,0 7.45339,-39.00446 -14.89794,-52.11367 -22.35134,-13.1092 -28.64283,-2.10835 -28.64283,-2.10835 l 37.42232,55.17022 z"
       id="path1015"
       inkscape:connector-curvature="0"
       style="fill:#dff2fd" />
    <path
       d="m 159.90511,1029.6306 -1.58744,5.8183 c 0,0 14.97211,-10.4111 26.63337,-6.3268 l -3.30732,-3.6076 -21.68916,3.9431"
       id="path1017"
       inkscape:connector-curvature="0"
       style="fill:#cfe1eb" />
    <path
       d="m 119.98244,1000.956 c 0,0 33.16678,-8.02905 41.55779,-37.9044 0,0 14.792,24.79165 46.46492,29.2379 -27.16663,35.0526 -88.02271,8.6665 -88.02271,8.6665 z"
       id="path1019"
       inkscape:connector-curvature="0"
       style="fill:#fdd08f" />
    <g
       id="g1021"
       transform="matrix(1.765787,0,0,1.765787,-37.684677,496.30995)">
      <path
         d="m 112.875,291.135 c -12.442,-0.519 -23.585,-5.344 -23.585,-5.344 0,0 18.783,-4.547 23.535,-21.466 0,0 6.435,10.782 20.098,15.143 -2.238,3.812 -7.564,9.267 -20.048,11.667 z"
         id="path1023"
         inkscape:connector-curvature="0"
         style="fill:none" />
      <path
         d="m 132.923,279.468 c 1.928,0.615 3.998,1.104 6.216,1.415 -6.637,8.564 -16.824,10.646 -26.264,10.252 12.484,-2.4 17.81,-7.855 20.048,-11.667 z"
         id="path1025"
         inkscape:connector-curvature="0"
         style="fill:#f7ae83" />
    </g>
    <path
       d="m 207.94688,873.9959 15.50008,-14.10511 c 0,0 4.72525,-3.11485 4.13194,8.14734 -0.5933,11.26219 1.0118,36.55356 -13.58596,33.95432 -14.59776,-2.601 -6.04606,-27.99655 -6.04606,-27.99655 z"
       id="path1027"
       inkscape:connector-curvature="0"
       style="fill:#fdd08f" />
    <g
       id="g1029"
       transform="matrix(1.765787,0,0,1.765787,-37.684677,496.30995)">
      <path
         d="m 139.17,224.074 c 2.875,0.809 7.648,-13.978 8.977,-18.299 0.665,-0.251 2.347,-0.396 2.077,4.741 -0.336,6.378 0.573,20.701 -7.694,19.229 -3.357,-0.598 -4.552,-3.324 -4.787,-6.352 0.406,0.29 0.875,0.526 1.427,0.681 z"
         id="path1031"
         inkscape:connector-curvature="0"
         style="fill:none" />
      <path
         d="m 139.17,224.074 c -0.552,-0.155 -1.021,-0.391 -1.428,-0.681 -0.345,-4.429 1.363,-9.502 1.363,-9.502 l 8.778,-7.988 c 0,0 0.102,-0.067 0.263,-0.127 -1.328,4.32 -6.102,19.107 -8.976,18.298 z"
         id="path1033"
         inkscape:connector-curvature="0"
         style="fill:#f7ae83" />
    </g>
    <path
       d="M 62.013422,892.73443 66.662739,874.93 c 15.614855,-55.56226 74.574481,-55.13317 103.047791,-49.26193 28.47332,5.87124 43.04812,40.58662 41.51365,70.29069 -1.52387,29.50453 24.07298,57.39161 24.41554,57.76065 0.5986,1.34377 0.94823,2.10306 0.94823,2.10306 0,0 -51.87176,9.47521 -61.44409,0.34433 -9.5741,-9.13089 -57.21503,25.85818 -57.21503,25.85818 0,0 -8.32921,-1.80817 -18.953954,-10.70773 -7.259151,5.66641 -18.570782,12.97147 -23.710988,9.78069 -7.804779,-4.84355 -4.926546,-7.57876 -1.024157,-21.46844 2.000637,-7.11965 -0.201299,-17.55545 -2.823493,-26.04182 -2.057142,-4.50982 -3.840587,-9.2439 -5.288532,-14.20929 -0.04415,-0.0989 -0.07416,-0.16775 -0.07416,-0.16775 0,0 0.01766,-0.0212 0.02119,-0.0247 -2.36792,-8.17383 -3.822929,-16.97275 -4.06131,-26.45149 z"
       id="path1035"
       inkscape:connector-curvature="0"
       style="fill:#fdd08f" />
    <g
       id="g6037">
      <g
         id="g6033">
        <ellipse
           d="m 103.191,225.58701 c 0,4.41275 -0.96617,7.99 -2.158,7.99 -1.191833,0 -2.158003,-3.57725 -2.158003,-7.99 0,-4.41276 0.96617,-7.99 2.158003,-7.99 1.19183,0 2.158,3.57724 2.158,7.99 z"
           transform="matrix(1.7656104,-0.02789943,0.02789943,1.7656104,-43.951985,499.17653)"
           cx="101.033"
           cy="225.58701"
           rx="2.158"
           ry="7.9899998"
           id="ellipse1037"
           sodipodi:cx="101.033"
           sodipodi:cy="225.58701"
           sodipodi:rx="2.158"
           sodipodi:ry="7.9899998"
           style="fill:#2b4d5a">
              <animate 
         attributeName="ry"
         values="7.98;7.98;7.98;7.98;7.98;7.98;7.98;7.98;7.98;7.98;7.98;7.98;7.98;0.4;0.4;7.98;7.98;7.98;7.98;7.98;7.98;
                  7.98;7.98;7.98;7.98;7.98;7.98;7.98;7.98;7.98;7.98;7.98;7.98;7.98;7.98;7.98;7.98;7.98;7.98;7.98;7.98;7.98;7.98;
                  7.98;7.98;7.98;7.98;7.98;7.98;7.98;7.98;7.98;7.98;7.98;7.98;7.98;7.98;7.98;7.98;7.98;7.98;7.98;7.98;7.98;7.98;
                  7.98;7.98;7.98;7.98;7.98;7.98;7.98;7.98;7.98;7.98;7.98;7.98;7.98;7.98;7.98;7.98;7.98;7.98;7.98;7.98;7.98;7.98;
                  7.98;7.98;7.98;7.98;7.98;7.98;7.98;7.98;7.98;7.98;7.98;7.98;7.98;7.98;7.98;7.98;7.98;7.98;7.98;7.98;7.98;7.98;
                  7.98;7.98;7.98;7.98;7.98;7.98;7.98;7.98;7.98;7.98;7.98;"
         dur="1s"
         begin="0s"
         repeatCount="indefinite"
         /></ellipse>
        <ellipse
           d="m 120.56,223.612 c 0,5.54273 -1.77519,10.036 -3.965,10.036 -2.18981,0 -3.965,-4.49327 -3.965,-10.036 0,-5.54273 1.77519,-10.036 3.965,-10.036 2.18981,0 3.965,4.49327 3.965,10.036 z"
           transform="matrix(1.7260568,-0.37258106,0.37258106,1.7260568,-116.36726,548.64435)"
           cx="116.595"
           cy="223.612"
           rx="3.9649999"
           ry="10.036"
           id="ellipse1039"
           sodipodi:cx="116.595"
           sodipodi:cy="223.612"
           sodipodi:rx="3.9649999"
           sodipodi:ry="10.036"
           style="fill:#2b4d5a">
              <animate 
         attributeName="ry"
         values="10;10;10;10;10;10;10;10;10;10;10;10;10;0.4;0.4;10;10;10;10;10;10;
                  10;10;10;10;10;10;10;10;10;10;10;10;10;10;10;10;10;10;10;10;10;10;
                  10;10;10;10;10;10;10;10;10;10;10;10;10;10;10;10;10;10;10;10;10;10;
                  10;10;10;10;10;10;10;10;10;10;10;10;10;10;10;10;10;10;10;10;10;10;
                  10;10;10;10;10;10;10;10;10;10;10;10;10;10;10;10;10;10;10;10;10;10;
                  10;10;10;10;10;10;10;10;10;10;10;"
         dur="1s"
         begin="0s"
         repeatCount="indefinite"
         /></ellipse>
      </g>
    </g>
    <path
       d="m 75.186193,855.35448 c 0,0 -5.099593,27.29024 -2.224891,33.69828 2.874701,6.40804 -6.132579,1.79934 -8.947243,-3.97655 -0.0018,0.002 3.916515,-20.25358 11.172134,-29.72173 z"
       id="path1041"
       inkscape:connector-curvature="0"
       style="fill:#f7ae83" />
    <path
       d="m 66.208932,925.13662 c 0,0 3.988913,-9.53172 7.954871,-6.7665 0,0 1.37025,0.82286 3.570421,2.46857 0.128902,0.20307 0.266634,0.42203 0.413194,0.65688 -0.423789,0.10948 -0.663936,0.18011 -0.663936,0.18011 0,0 14.795529,19.86157 7.047256,36.14742 -4.479802,9.41518 -3.656945,19.77152 -2.044781,26.85056 -1.811698,-0.83345 -3.415032,-1.79404 -4.666975,-2.81643 -9.533484,-7.78006 -6.907759,-14.02918 -6.907759,-14.02918 0,0 9.431068,-22.23479 -4.702291,-42.69143 z"
       id="path1043"
       inkscape:connector-curvature="0"
       style="fill:#f7ae83" />
    <path
       d="M 66.498521,983.75369 C 48.416862,963.12929 54.777227,949.72697 54.777227,949.72697 l 0.0018,0.004 c 2.352028,-6.79121 8.472246,-11.94731 16.093383,-12.69424 9.242129,-0.90585 17.581941,4.97952 20.078764,13.58596 -2.057142,-6.16966 -8.214442,-10.32632 -15.028614,-9.65708 -7.898365,0.77341 -13.681317,7.73591 -12.916731,15.54952 0.462636,4.71994 3.213732,8.66295 7.056084,10.88077 1.347296,0.73281 2.638086,1.2184 3.821163,1.52741 0.28959,0.0706 0.579179,0.1395 0.875831,0.19071 l -0.0035,0.0106 c 3.356761,0.68159 5.671708,0.009 5.671708,0.009 4.614002,-0.75752 8.466949,-4.20787 12.791361,-8.08731 3.593377,-3.22256 5.458048,-5.70702 7.2203,-7.76769 3.37795,-3.9536 14.08039,-16.47479 28.88475,-18.48426 2.31141,-0.31431 11.18802,-1.38614 20.02402,3.8706 1.42323,0.84582 9.52465,5.86595 12.74721,14.89972 1.40733,-9.48758 8.38043,-15.98214 9.61295,-17.08929 7.64938,-6.87244 16.56484,-7.54168 18.89215,-7.68294 14.91384,-0.90232 27.84116,9.3057 31.92366,12.52826 2.12778,1.67926 4.43919,3.75406 8.59056,6.2191 4.99717,2.96652 9.44519,5.60284 14.11746,5.45098 0,0 2.40147,0.2119 5.56223,-1.10891 l -0.007,-0.0106 c 0.27899,-0.10772 0.55093,-0.23309 0.82109,-0.35669 1.10185,-0.53504 2.27257,-1.26078 3.45211,-2.24079 3.33911,-2.92237 5.27264,-7.32272 4.81001,-12.04266 -0.76635,-7.81361 -7.78889,-13.52064 -15.68902,-12.74722 -6.81417,0.66747 -12.04796,5.94011 -12.86905,12.39053 0.78047,-8.92782 7.81713,-16.31941 17.06103,-17.22526 7.62114,-0.74692 14.62601,3.12368 18.25117,9.32866 l 0,-0.004 c 0,0 8.836,11.90846 -4.88769,35.63887 -0.0212,0.0371 -0.0406,0.0724 -0.0618,0.10948 -0.24014,0.4132 -0.48382,0.82816 -0.7381,1.24841 -0.14126,0.23309 -0.28429,0.46088 -0.42732,0.69043 -0.004,0.005 -0.007,0.0106 -0.009,0.0159 -14.90324,23.96526 -39.04684,26.02064 -39.04684,26.02064 l 0.0176,-0.0159 c -1.27666,0.2119 -2.56215,0.39554 -3.86883,0.52444 -22.44316,2.19841 -43.12052,-8.88191 -54.25558,-26.8329 -7.43926,19.76976 -25.57212,34.65356 -48.01527,36.85196 -1.30668,0.1272 -2.60454,0.1978 -3.89709,0.2366 l 0.0194,0.012 c 0,0 -24.558563,2.7246 -43.920418,-18.55666 -0.333733,-0.36728 -0.656872,-0.73104 -0.974714,-1.09302 -0.01942,-0.023 -0.03885,-0.0459 -0.06004,-0.0706 z"
       id="path1045"
       inkscape:connector-curvature="0"
       style="fill:#2b4d5a" />
    <path
       d="m 74.465752,889.75378 c 0,0 -33.781271,-15.93976 -36.87493,-12.21925 -3.091893,3.72052 -0.646278,17.87507 4.44272,30.50221 5.087233,12.62891 11.747781,21.74213 35.128567,14.89441 23.379021,-6.84772 -2.696357,-33.17737 -2.696357,-33.17737 z"
       id="path1047"
       inkscape:connector-curvature="0"
       style="fill:#fdd08f" />
    <path
       d="m 61.139358,894.33247 c 0,0 -17.248208,-14.24108 -17.340029,-5.51279 -0.09182,8.72828 3.217264,17.79383 10.824275,22.17475 0,0 2.537436,1.22193 -0.552692,-2.93297 -3.090127,-4.1549 -7.898365,-17.10871 -5.221432,-15.83205 2.673402,1.27667 18.58844,6.70117 12.289878,2.10306 z"
       id="path1049"
       inkscape:connector-curvature="0"
       style="fill:#f7ae83" />
    <path
       d="m 65.627988,905.84187 c 0,0 1.27843,3.67283 -2.597472,3.63928 -3.875903,-0.0335 -3.296725,4.22023 -0.399068,4.32618 2.897656,0.10595 7.97606,-5.89066 2.99654,-7.96546 z"
       id="path1051"
       inkscape:connector-curvature="0"
       style="fill:#f7ae83" />
    <path
       d="m 121.82416,1013.5937 c 0,0 19.37068,18.117 31.41688,20.4831 l -4.17432,3.3603 c 0,0 -18.48073,-11.0255 -27.24256,-23.8434 z"
       id="path1053"
       inkscape:connector-curvature="0"
       style="fill:#cfe1eb" />
    <path
       d="m 188.21598,1029.5988 5.1508,4.1214 c 0,0 12.99796,-19.7186 12.45939,-28.6941 -0.002,0 -9.36926,23.5433 -17.61019,24.5727 z"
       id="path1055"
       inkscape:connector-curvature="0"
       style="fill:#cfe1eb" />
    <path
       d="m 235.51082,989.92335 c 0,0 81.38689,0.81579 133.14387,-44.57906 0,0 55.34506,5.58871 33.2427,72.30191 0,0 -67.08048,31.0567 -146.55502,14.7514 l -20.40543,-32.1444 -1.82936,-4.61577 2.40324,-5.71408 z"
       id="path1057"
       inkscape:connector-curvature="0"
       style="fill:#628ea0" />
    <rect
       style="fill:#34606f"
       id="rect1061"
       height="9.1577005"
       width="1.1619297"
       transform="matrix(0.99636413,-0.08519693,0.08519693,0.99636413,0,0)"
       y="1040.9198"
       x="286.47583" />
    <rect
       style="fill:#34606f"
       id="rect1063"
       height="9.1577005"
       width="1.1619297"
       transform="matrix(0.99636413,-0.08519693,0.08519693,0.99636413,0,0)"
       y="1039.6521"
       x="293.16312" />
    <rect
       style="fill:#34606f"
       id="rect1065"
       height="9.1577005"
       width="1.1619297"
       transform="matrix(0.99636413,-0.08519693,0.08519693,0.99636413,0,0)"
       y="1038.4885"
       x="300.07526" />
    <rect
       style="fill:#34606f"
       id="rect1067"
       height="9.1577005"
       width="1.1619297"
       transform="matrix(0.99636413,-0.08519693,0.08519693,0.99636413,0,0)"
       y="1037.2329"
       x="307.1319" />
    <circle
       cx="233.68201"
       cy="295.39801"
       r="1.937"
       id="circle1071"
       d="m 235.61901,295.39801 c 0,1.06978 -0.86723,1.937 -1.937,1.937 -1.06978,0 -1.937,-0.86722 -1.937,-1.937 0,-1.06978 0.86722,-1.937 1.937,-1.937 1.06977,0 1.937,0.86722 1.937,1.937 z"
       sodipodi:cx="233.68201"
       sodipodi:cy="295.39801"
       sodipodi:rx="1.937"
       sodipodi:ry="1.937"
       style="fill:#84a8b2"
       transform="matrix(1.765787,0,0,1.765787,-37.684677,496.30995)" />
    <path
       d="m 375.21813,1021.0824 c -1.7446,0.1501 -3.28437,-1.1477 -3.43446,-2.8923 -0.14833,-1.7429 1.14776,-3.2844 2.89236,-3.4327 1.7446,-0.1484 3.28436,1.1477 3.43446,2.8923 0.15009,1.7446 -1.14777,3.2826 -2.89236,3.4327 z m -0.51738,-6.0584 c -1.59627,0.136 -2.78465,1.5468 -2.64868,3.1431 0.13597,1.5963 1.54683,2.7847 3.1431,2.6469 1.59627,-0.1359 2.78465,-1.5468 2.64868,-3.1431 -0.13596,-1.5962 -1.54683,-2.7846 -3.1431,-2.6469 z"
       id="path1073"
       inkscape:connector-curvature="0"
       style="fill:#34606f" />
    <circle
       cx="233.278"
       cy="295.797"
       r="0.329"
       id="circle1075"
       d="m 233.607,295.797 c 0,0.1817 -0.1473,0.329 -0.329,0.329 -0.1817,0 -0.329,-0.1473 -0.329,-0.329 0,-0.1817 0.1473,-0.329 0.329,-0.329 0.1817,0 0.329,0.1473 0.329,0.329 z"
       sodipodi:cx="233.278"
       sodipodi:cy="295.797"
       sodipodi:rx="0.329"
       sodipodi:ry="0.329"
       style="fill:#34606f"
       transform="matrix(1.765787,0,0,1.765787,-37.684677,496.30995)" />
    <circle
       cx="233.321"
       cy="295.03799"
       r="0.329"
       id="circle1077"
       d="m 233.65,295.03799 c 0,0.18171 -0.1473,0.329 -0.329,0.329 -0.1817,0 -0.329,-0.14729 -0.329,-0.329 0,-0.1817 0.1473,-0.329 0.329,-0.329 0.1817,0 0.329,0.1473 0.329,0.329 z"
       sodipodi:cx="233.321"
       sodipodi:cy="295.03799"
       sodipodi:rx="0.329"
       sodipodi:ry="0.329"
       style="fill:#34606f"
       transform="matrix(1.765787,0,0,1.765787,-37.684677,496.30995)" />
    <circle
       cx="234.056"
       cy="295.90399"
       r="0.329"
       id="circle1079"
       d="m 234.385,295.90399 c 0,0.1817 -0.1473,0.329 -0.329,0.329 -0.1817,0 -0.329,-0.1473 -0.329,-0.329 0,-0.1817 0.1473,-0.329 0.329,-0.329 0.1817,0 0.329,0.1473 0.329,0.329 z"
       sodipodi:cx="234.056"
       sodipodi:cy="295.90399"
       sodipodi:rx="0.329"
       sodipodi:ry="0.329"
       style="fill:#34606f"
       transform="matrix(1.765787,0,0,1.765787,-37.684677,496.30995)" />
    <circle
       cx="234.09801"
       cy="295.14499"
       r="0.329"
       id="circle1081"
       d="m 234.42701,295.14499 c 0,0.1817 -0.1473,0.329 -0.329,0.329 -0.1817,0 -0.329,-0.1473 -0.329,-0.329 0,-0.1817 0.1473,-0.329 0.329,-0.329 0.1817,0 0.329,0.1473 0.329,0.329 z"
       sodipodi:cx="234.09801"
       sodipodi:cy="295.14499"
       sodipodi:rx="0.329"
       sodipodi:ry="0.329"
       style="fill:#34606f"
       transform="matrix(1.765787,0,0,1.765787,-37.684677,496.30995)" />
    <circle
       cx="237.51601"
       cy="294.52701"
       r="1.937"
       id="circle1085"
       d="m 239.45301,294.52701 c 0,1.06977 -0.86723,1.937 -1.937,1.937 -1.06978,0 -1.937,-0.86723 -1.937,-1.937 0,-1.06978 0.86722,-1.937 1.937,-1.937 1.06977,0 1.937,0.86722 1.937,1.937 z"
       sodipodi:cx="237.51601"
       sodipodi:cy="294.52701"
       sodipodi:rx="1.937"
       sodipodi:ry="1.937"
       style="fill:#84a8b2"
       transform="matrix(1.765787,0,0,1.765787,-37.684677,496.30995)" />
    <path
       d="m 381.98815,1019.5444 c -1.74459,0.1501 -3.28436,-1.1477 -3.43445,-2.8923 -0.14833,-1.7429 1.14776,-3.2844 2.89236,-3.4327 1.74459,-0.1484 3.28436,1.1477 3.43445,2.8923 0.15009,1.7446 -1.14776,3.2844 -2.89236,3.4327 z m -0.51914,-6.0566 c -1.59627,0.1359 -2.78464,1.5468 -2.64868,3.1431 0.13597,1.5962 1.54683,2.7846 3.1431,2.6469 1.59627,-0.136 2.78465,-1.5468 2.64868,-3.1431 -0.13596,-1.5963 -1.54506,-2.7847 -3.1431,-2.6469 z"
       id="path1087"
       inkscape:connector-curvature="0"
       style="fill:#34606f" />
    <circle
       cx="237.112"
       cy="294.927"
       r="0.329"
       id="circle1089"
       d="m 237.441,294.927 c 0,0.1817 -0.1473,0.329 -0.329,0.329 -0.1817,0 -0.329,-0.1473 -0.329,-0.329 0,-0.1817 0.1473,-0.329 0.329,-0.329 0.1817,0 0.329,0.1473 0.329,0.329 z"
       sodipodi:cx="237.112"
       sodipodi:cy="294.927"
       sodipodi:rx="0.329"
       sodipodi:ry="0.329"
       style="fill:#34606f"
       transform="matrix(1.765787,0,0,1.765787,-37.684677,496.30995)" />
    <circle
       cx="237.15401"
       cy="294.16699"
       r="0.329"
       id="circle1091"
       d="m 237.48301,294.16699 c 0,0.1817 -0.1473,0.329 -0.329,0.329 -0.1817,0 -0.329,-0.1473 -0.329,-0.329 0,-0.1817 0.1473,-0.329 0.329,-0.329 0.1817,0 0.329,0.1473 0.329,0.329 z"
       sodipodi:cx="237.15401"
       sodipodi:cy="294.16699"
       sodipodi:rx="0.329"
       sodipodi:ry="0.329"
       style="fill:#34606f"
       transform="matrix(1.765787,0,0,1.765787,-37.684677,496.30995)" />
    <circle
       cx="237.88901"
       cy="295.034"
       r="0.329"
       id="circle1093"
       d="m 238.21801,295.034 c 0,0.1817 -0.1473,0.329 -0.329,0.329 -0.1817,0 -0.329,-0.1473 -0.329,-0.329 0,-0.18171 0.1473,-0.329 0.329,-0.329 0.1817,0 0.329,0.14729 0.329,0.329 z"
       sodipodi:cx="237.88901"
       sodipodi:cy="295.034"
       sodipodi:rx="0.329"
       sodipodi:ry="0.329"
       style="fill:#34606f"
       transform="matrix(1.765787,0,0,1.765787,-37.684677,496.30995)" />
    <circle
       cx="237.93201"
       cy="294.27399"
       r="0.329"
       id="circle1095"
       d="m 238.26101,294.27399 c 0,0.1817 -0.1473,0.329 -0.329,0.329 -0.1817,0 -0.329,-0.1473 -0.329,-0.329 0,-0.1817 0.1473,-0.329 0.329,-0.329 0.1817,0 0.329,0.1473 0.329,0.329 z"
       sodipodi:cx="237.93201"
       sodipodi:cy="294.27399"
       sodipodi:rx="0.329"
       sodipodi:ry="0.329"
       style="fill:#34606f"
       transform="matrix(1.765787,0,0,1.765787,-37.684677,496.30995)" />
    <circle
       cx="241.43401"
       cy="293.64401"
       r="1.937"
       id="circle1099"
       d="m 243.37101,293.64401 c 0,1.06978 -0.86723,1.937 -1.937,1.937 -1.06978,0 -1.937,-0.86722 -1.937,-1.937 0,-1.06977 0.86722,-1.937 1.937,-1.937 1.06977,0 1.937,0.86723 1.937,1.937 z"
       sodipodi:cx="241.43401"
       sodipodi:cy="293.64401"
       sodipodi:rx="1.937"
       sodipodi:ry="1.937"
       style="fill:#84a8b2"
       transform="matrix(1.765787,0,0,1.765787,-37.684677,496.30995)" />
    <path
       d="m 389.2526,1017.9376 c -1.71811,0.339 -3.39031,-0.7805 -3.73111,-2.4969 -0.34079,-1.7163 0.78048,-3.3903 2.49859,-3.7311 1.71811,-0.339 3.39031,0.7805 3.73111,2.4968 0.3408,1.7164 -0.78224,3.3904 -2.49859,3.7312 z m -1.18131,-5.9649 c -1.57155,0.3108 -2.59747,1.8435 -2.28669,3.4151 0.31077,1.5715 1.84348,2.5974 3.41503,2.2867 1.57155,-0.3108 2.59747,-1.8435 2.28669,-3.4151 -0.31078,-1.5715 -1.84171,-2.5975 -3.41503,-2.2867 z"
       id="path1101"
       inkscape:connector-curvature="0"
       style="fill:#34606f" />
    <circle
       cx="241.076"
       cy="294.086"
       r="0.329"
       id="circle1103"
       d="m 241.405,294.086 c 0,0.1817 -0.14729,0.329 -0.329,0.329 -0.1817,0 -0.329,-0.1473 -0.329,-0.329 0,-0.1817 0.1473,-0.329 0.329,-0.329 0.18171,0 0.329,0.1473 0.329,0.329 z"
       sodipodi:cx="241.076"
       sodipodi:cy="294.086"
       sodipodi:rx="0.329"
       sodipodi:ry="0.329"
       style="fill:#34606f"
       transform="matrix(1.765787,0,0,1.765787,-37.684677,496.30995)" />
    <circle
       cx="241.035"
       cy="293.32599"
       r="0.329"
       id="circle1105"
       d="m 241.364,293.32599 c 0,0.1817 -0.14729,0.329 -0.329,0.329 -0.1817,0 -0.329,-0.1473 -0.329,-0.329 0,-0.1817 0.1473,-0.329 0.329,-0.329 0.18171,0 0.329,0.1473 0.329,0.329 z"
       sodipodi:cx="241.035"
       sodipodi:cy="293.32599"
       sodipodi:rx="0.329"
       sodipodi:ry="0.329"
       style="fill:#34606f"
       transform="matrix(1.765787,0,0,1.765787,-37.684677,496.30995)" />
    <circle
       cx="241.86099"
       cy="294.10699"
       r="0.329"
       id="circle1107"
       d="m 242.18999,294.10699 c 0,0.18171 -0.1473,0.329 -0.329,0.329 -0.1817,0 -0.329,-0.14729 -0.329,-0.329 0,-0.1817 0.1473,-0.329 0.329,-0.329 0.1817,0 0.329,0.1473 0.329,0.329 z"
       sodipodi:cx="241.86099"
       sodipodi:cy="294.10699"
       sodipodi:rx="0.329"
       sodipodi:ry="0.329"
       style="fill:#34606f"
       transform="matrix(1.765787,0,0,1.765787,-37.684677,496.30995)" />
    <circle
       cx="241.82001"
       cy="293.34698"
       r="0.329"
       id="circle1109"
       d="m 242.14901,293.34698 c 0,0.18171 -0.1473,0.329 -0.329,0.329 -0.1817,0 -0.329,-0.14729 -0.329,-0.329 0,-0.1817 0.1473,-0.329 0.329,-0.329 0.1817,0 0.329,0.1473 0.329,0.329 z"
       sodipodi:cx="241.82001"
       sodipodi:cy="293.34698"
       sodipodi:rx="0.329"
       sodipodi:ry="0.329"
       style="fill:#34606f"
       transform="matrix(1.765787,0,0,1.765787,-37.684677,496.30995)" />
    <circle
       cx="245.246"
       cy="292.75101"
       r="1.937"
       id="circle1113"
       d="m 247.183,292.75101 c 0,1.06977 -0.86722,1.937 -1.937,1.937 -1.06977,0 -1.937,-0.86723 -1.937,-1.937 0,-1.06978 0.86723,-1.937 1.937,-1.937 1.06978,0 1.937,0.86722 1.937,1.937 z"
       sodipodi:cx="245.246"
       sodipodi:cy="292.75101"
       sodipodi:rx="1.937"
       sodipodi:ry="1.937"
       style="fill:#84a8b2"
       transform="matrix(1.765787,0,0,1.765787,-37.684677,496.30995)" />
    <path
       d="m 395.98378,1016.3607 c -1.71811,0.3408 -3.39031,-0.7805 -3.73111,-2.4968 -0.33903,-1.7164 0.78048,-3.3903 2.49859,-3.7311 1.71811,-0.3391 3.39031,0.7805 3.73111,2.4968 0.33903,1.7181 -0.78048,3.3903 -2.49859,3.7311 z m -1.17954,-5.9648 c -1.57155,0.3108 -2.59748,1.8435 -2.2867,3.415 0.31078,1.5716 1.84348,2.5975 3.41503,2.2867 1.57155,-0.3108 2.59748,-1.8435 2.2867,-3.415 -0.31078,-1.5716 -1.84348,-2.5975 -3.41503,-2.2867 z"
       id="path1115"
       inkscape:connector-curvature="0"
       style="fill:#34606f" />
    <circle
       cx="244.88901"
       cy="293.19299"
       r="0.329"
       id="circle1117"
       d="m 245.21801,293.19299 c 0,0.1817 -0.1473,0.329 -0.329,0.329 -0.1817,0 -0.329,-0.1473 -0.329,-0.329 0,-0.1817 0.1473,-0.329 0.329,-0.329 0.1817,0 0.329,0.1473 0.329,0.329 z"
       sodipodi:cx="244.88901"
       sodipodi:cy="293.19299"
       sodipodi:rx="0.329"
       sodipodi:ry="0.329"
       style="fill:#34606f"
       transform="matrix(1.765787,0,0,1.765787,-37.684677,496.30995)" />
    <circle
       cx="244.84801"
       cy="292.43301"
       r="0.329"
       id="circle1119"
       d="m 245.17701,292.43301 c 0,0.18171 -0.1473,0.329 -0.329,0.329 -0.1817,0 -0.329,-0.14729 -0.329,-0.329 0,-0.1817 0.1473,-0.329 0.329,-0.329 0.1817,0 0.329,0.1473 0.329,0.329 z"
       sodipodi:cx="244.84801"
       sodipodi:cy="292.43301"
       sodipodi:rx="0.329"
       sodipodi:ry="0.329"
       style="fill:#34606f"
       transform="matrix(1.765787,0,0,1.765787,-37.684677,496.30995)" />
    <circle
       cx="245.673"
       cy="293.21399"
       r="0.329"
       id="circle1121"
       d="m 246.002,293.21399 c 0,0.1817 -0.14729,0.329 -0.329,0.329 -0.1817,0 -0.329,-0.1473 -0.329,-0.329 0,-0.1817 0.1473,-0.329 0.329,-0.329 0.18171,0 0.329,0.1473 0.329,0.329 z"
       sodipodi:cx="245.673"
       sodipodi:cy="293.21399"
       sodipodi:rx="0.329"
       sodipodi:ry="0.329"
       style="fill:#34606f"
       transform="matrix(1.765787,0,0,1.765787,-37.684677,496.30995)" />
    <circle
       cx="245.632"
       cy="292.45401"
       r="0.329"
       id="circle1123"
       d="m 245.961,292.45401 c 0,0.1817 -0.14729,0.329 -0.329,0.329 -0.1817,0 -0.329,-0.1473 -0.329,-0.329 0,-0.1817 0.1473,-0.329 0.329,-0.329 0.18171,0 0.329,0.1473 0.329,0.329 z"
       sodipodi:cx="245.632"
       sodipodi:cy="292.45401"
       sodipodi:rx="0.329"
       sodipodi:ry="0.329"
       style="fill:#34606f"
       transform="matrix(1.765787,0,0,1.765787,-37.684677,496.30995)" />
    <path
       d="m 265.03831,1027.2079 4.09133,7.5647 c 28.0301,3.9748 54.01895,2.4067 75.45207,-1.0507 -1.89292,0.019 -66.82091,0.6481 -79.5434,-6.514 z"
       id="path1125"
       inkscape:connector-curvature="0"
       style="fill:#34606f" />
    <path
       d="m 492.15383,916.93454 c -6.74001,15.97861 -46.14354,42.12108 -65.45419,54.21143 l 0,0 -15.4683,8.86954 c 0,0 0.65511,5.27794 0.57918,7.51343 0,0 3.46801,-0.60037 9.80718,-3.81587 l 0.002,-0.004 c 12.56004,-5.99838 43.29356,-23.05765 69.40779,-56.64468 0.20836,-0.40966 3.02126,-6.14141 1.12657,-10.13032 z"
       id="path1127"
       inkscape:connector-curvature="0"
       style="fill:#f7ae83" />
    <path
       d="m 218.15313,1052.5329 h 60.39521 c -0.19953,-0.385 -0.37787,-0.7717 -0.58271,-1.1566 -11.5041,-21.5056 -21.53907,-44.1165 -45.61204,-57.86134 -5.63639,1.41969 -12.6554,2.27433 -20.29596,2.27433 -0.86523,0 -1.69868,-0.0406 -2.5445,-0.0653 l 0.007,0.0265 c -0.002,-0.002 8.82187,17.21646 8.63293,56.78246 z"
       id="path1211"
       inkscape:connector-curvature="0"
       style="fill:#628ea0" />
    <path
       d="m 112.17767,1007.2457 c -4.77822,0.362 -9.96434,0.1642 -15.330568,-0.7187 -10.940816,-1.7993 -20.30655,-6.0072 -26.349073,-11.21094 -18.593737,9.87954 -47.964072,30.67174 -67.5696056,57.21684 H 134.83801 l -22.66034,-45.2872 z"
       id="path1213"
       inkscape:connector-curvature="0"
       style="fill:#628ea0" />
    <polygon
       points="65.216,315 67.168,315 74.958,305.555 63.708,294.805 74.114,285.944 73.026,285.595 61.625,294.43 72.5,305.325 "
       id="polygon1215"
       transform="matrix(1.765787,0,0,1.765787,-37.684677,496.30995)"
       style="fill:#34606f" />
    <polygon
       points="150.875,296.221 158.125,303.346 155.896,315 157.485,315 160.063,302.512 152.188,296.221 155.719,287.721 144.451,281.414 143.217,281.507 153.938,288.096 "
       id="polygon1217"
       transform="matrix(1.765787,0,0,1.765787,-37.684677,496.30995)"
       style="fill:#34606f" />
    <path
       d="m 169.52512,1052.5329 h 18.30768 c -3.19431,-6.2774 -6.32152,-11.4653 -8.98079,-14.1157 l 2.79171,-12.9027 c 0,0 -7.51872,-10.3757 -13.74312,-6.4151 -6.2244,3.9607 -7.99725,10.5294 -7.99725,10.5294 l 11.32752,12.0762 c 0.002,0 -0.87583,5.0237 -1.70575,10.8279 z"
       id="path1219"
       inkscape:connector-curvature="0"
       style="fill:#167c9c" />
  </g>
</svg>
