<svg id="svg2" xmlns:rdf="http://www.w3.org/1999/02/22-rdf-syntax-ns#" xmlns="http://www.w3.org/2000/svg" version="1.1" xmlns:cc="http://creativecommons.org/ns#" xmlns:dc="http://purl.org/dc/elements/1.1/" viewBox="0 0 64 64">
 <g id="g4287">
  <g id="g4256" fill-rule="evenodd">
   <path id="path4254" d="m27.119 49.22-2.0339 4.6102-0.94915-0.13559-14.102-13.153 0.27119-1.6271 4.4746-1.6271-1.4915-2.0339 8.678-9.8983-1.8983-2.0339-3.1186 2.5763-4.0678-3.661 2.5763-3.5254-1.4915-1.2203-2.7119 2.8475l-4.2032-4.338 2.4407-3.39-1.2203-1.356-3.2543 2.712-4.0678-4.2033 2.8475-3.1186 5.8305-5.9661 4.7459 4.3389-2.8475 2.4407 0.94915 1.8983 3.661-2.5763 3.661 4.0678-2.5763 3.2542 1.0847 1.3559 3.661-2.5763 4.339 3.9322-2.5763 3.5254 1.6271 1.7627 8-7.5932 13.153-1.8983 4.8814 5.1525-1.7627 12.339-7.8644 8.4068 2.3051 2.1695 2.8475-3.1186 4.0678 4.339-2.7119 3.1186 1.6271 1.8983 2.9831-3.3898 4.6102 4.6102-3.2542 3.1186 1.6271 1.2203 3.1186-2.4407 4.0678 4.2034-9.0847 9.2203-4.339-4.338 2.983-3.119-1.627-1.898-3.254 3.118-3.797-4.339 2.712-3.254-1.627-1.627-2.9831 3.1186-4.4746-4.2034 3.2542-3.1186-2.1695-2.1695-9.0847 8.9492-1.2203-0.13559z" fill="#fff"/>
   <path id="Fill-358" d="m26.671 48.869-1.5 3.9c-0.182 0.474-0.62 0.642-0.939 0.642-0.186 0-0.459-0.051-0.701-0.294l-12.648-12.648c-0.244-0.243-0.343-0.577-0.271-0.914 0.071-0.338 0.297-0.602 0.619-0.726l3.884-1.494-0.865-0.739-3.378 1.3c-1.351 0.519-1.72 2.257-0.696 3.281l12.647 12.647c0.399 0.399 0.907 0.587 1.409 0.587 0.785 0 1.555-0.459 1.872-1.283l1.337-3.476-0.77-0.783z" fill="rgb(209, 38, 49)"/>
   <path id="Fill-334" d="m6.1465 3.8535 0.707-0.707-1-1c-0.195-0.195-0.512-0.195-0.707 0s-0.195 0.512 0 0.707l1 1z" fill="rgb(209, 38, 49)"/>
   <g fill="rgb(22, 0, 102)">
    <path id="Fill-335" d="m10 0-10 10 5 5 10-10-5-5zm0 1.414 3.586 3.586-8.586 8.586-3.586-3.586 8.586-8.586z"/>
    <path id="Fill-336" d="m16 6-10 10 5 5 10-10-5-5zm0 1.414 3.586 3.586-8.586 8.586-3.586-3.586 8.586-8.586z"/>
    <path id="Fill-337" d="m22 12-10 10 5 5 10-10-5-5zm0 1.414 3.586 3.586-8.586 8.586-3.586-3.586 8.586-8.586z"/>
   </g>
   <g fill="rgb(209, 38, 49)">
    <path id="Fill-338" d="m12.854 9.1465-1-1-0.707 0.707 1 1 0.707-0.707z"/>
    <path id="Fill-339" d="m18.854 15.146-1-1-0.707 0.707 1 1 0.707-0.707z"/>
    <path id="Fill-340" d="m26 22.293-2.146-2.146-0.708 0.707 2.147 2.146 0.707-0.707z"/>
    <path id="Fill-341" d="m23 25.293-2.146-2.146-0.708 0.707 2.147 2.146 0.707-0.707z"/>
    <path id="Fill-342" d="m14.146 17.854 1 1 0.707-0.707-1-1-0.707 0.707z"/>
    <path id="Fill-343" d="m3.1465 6.8535 0.707-0.707-1-1c-0.195-0.195-0.512-0.195-0.707 0s-0.195 0.512 0 0.707l1 1z"/>
    <path id="Fill-344" d="m8.1465 11.854 1 1 0.707-0.707-1-1-0.707 0.707z"/>
    <path id="Fill-345" d="m57.854 60.146-0.707 0.707 1 1c0.195 0.195 0.512 0.195 0.707 0s0.195-0.512 0-0.707l-1-1z"/>
    <path id="Fill-361" d="m34 14.293 15.708 15.708-0.061 1.353-17-17 1.353-0.061z"/>
   </g>
   <g fill="rgb(22, 0, 102)">
    <path id="Fill-346" d="m59 49-10 10 5 5 10-10-5-5zm0 1.414 3.586 3.586-8.586 8.586-3.586-3.586 8.586-8.586z"/>
    <path id="Fill-347" d="m53 43-10 10 5 5 10-10-5-5zm0 1.414 3.586 3.586-8.586 8.586-3.586-3.586 8.586-8.586z"/>
    <path id="Fill-348" d="m47 37-10 10 5 5 10-10-5-5zm0 1.414 3.586 3.586-8.586 8.586-3.586-3.586 8.586-8.586z"/>
   </g>
   <g fill="rgb(209, 38, 49)">
    <path id="Fill-349" d="m51.146 54.854 1 1 0.707-0.707-1-1-0.707 0.707z"/>
    <path id="Fill-350" d="m45.146 48.854 1 1 0.707-0.707-1-1-0.707 0.707z"/>
    <path id="Fill-351" d="m38 41.707 2.146 2.146 0.708-0.707l-2.147-2.146-0.707 0.707z"/>
    <path id="Fill-352" d="m41 38.707 2.146 2.146 0.708-0.707l-2.147-2.146-0.707 0.707z"/>
    <path id="Fill-353" d="m49.854 46.146-1-1-0.707 0.707 1 1 0.707-0.707z"/>
    <path id="Fill-354" d="m60.854 57.146-0.707 0.707 1 1c0.195 0.195 0.512 0.195 0.707 0s0.195-0.512 0-0.707l-1-1z"/>
    <path id="Fill-355" d="m55.854 52.146-1-1-0.707 0.707 1 1 0.707-0.707z"/>
   </g>
   <g fill="rgb(22, 0, 102)">
    <path id="Fill-356" d="m28.293 49.879-14.172-14.172c-0.39-0.39-0.39-1.023 0-1.414l0.586-0.586-0.707-0.707-0.586 0.586c-0.781 0.781-0.781 2.048 0 2.829l14.172 14.171c0.781 0.781 2.047 0.781 2.828 0l0.586-0.586-0.707-0.707-0.586 0.586c-0.39 0.391-1.023 0.391-1.414 0"/>
    <path id="Fill-357" d="m47 12-14 2-19 19 17 17 19-19 2-14-5-5zm-0.354 1.061 4.293 4.293l-1.882 13.175-18.057 18.057-15.586-15.586 18.057-18.057 13.175-1.882z"/>
    <path id="Fill-359" d="m32 25c-3.866 0-7 3.134-7 7s3.134 7 7 7 7-3.134 7-7-3.134-7-7-7m0 1c3.308 0 6 2.692 6 6s-2.692 6-6 6-6-2.692-6-6 2.692-6 6-6"/>
   </g>
   <path id="Fill-360" d="m36.5 32c-0.276 0-0.5-0.224-0.5-0.5 0-1.701-1.799-3.5-3.5-3.5-0.276 0-0.5-0.224-0.5-0.5s0.224-0.5 0.5-0.5c2.271 0 4.5 2.229 4.5 4.5 0 0.276-0.224 0.5-0.5 0.5" fill="rgb(209, 38, 49)"/>
  </g>
 </g>
</svg>
