<?xml version="1.0" encoding="utf-8"?>
<!-- Generator: Adobe Illustrator 17.0.0, SVG Export Plug-In . SVG Version: 6.00 Build 0)  -->
<!DOCTYPE svg PUBLIC "-//W3C//DTD SVG 1.1//EN" "http://www.w3.org/Graphics/SVG/1.1/DTD/svg11.dtd">
<svg version="1.1" xmlns="http://www.w3.org/2000/svg" xmlns:xlink="http://www.w3.org/1999/xlink" x="0px" y="0px" width="1920px"
	 height="1080px" viewBox="0 0 1920 1080" enable-background="new 0 0 1920 1080" xml:space="preserve">
<g id="Lune">
	<path fill="#002834" stroke="#FFFFFF" stroke-miterlimit="10" d="M1920,946.483c-159.629-120.857-529.36-205.517-960-205.517
		S159.629,825.625,0,946.483V1080h1920V946.483z"/>
</g>
<g id="Calque_2">
	<g>
		<circle fill="#80B39B" cx="479.216" cy="592.905" r="31.272"/>
		<polygon opacity="0.5" fill="#FFFFFF" points="466.531,564.418 509.655,593.515 510.463,588.545 471.782,562.927 		"/>
		<polygon opacity="0.5" fill="#FFFFFF" points="464.292,566.047 509.512,597.64 510.634,595.752 466.246,565.059 		"/>
		<path fill="#006658" d="M435.364,660.78c0,0-36.845,21.693-41.749,86.455c-4.904,64.762,7.138,78.405,13.219,65.75
			c6.081-12.655,9.256-79.817,60.967-64.095L435.364,660.78z"/>
		<path fill="#008573" d="M404.322,764.675c3.989-52.684,29.115-76.863,38.348-84.05l-7.306-19.845c0,0-36.845,21.693-41.749,86.455
			c-4.355,57.509,4.651,74.687,10.981,68.957C403.001,804.967,402.539,788.211,404.322,764.675z"/>
		<path fill="#008573" d="M539.685,645.956c0,0,41.43,10.57,64.18,71.403c22.75,60.833,14.985,77.29,5.62,66.83
			c-9.365-10.461-31.124-74.079-76.409-44.575L539.685,645.956z"/>
		<path fill="#006658" d="M603.865,717.359c-22.75-60.833-64.18-71.403-64.18-71.403l-1.107,15.679
			c13.227,5.417,29.987,16.161,44.81,37.524c30.179,43.496,26.085,58.244,16.094,51.932c-9.087-5.74-34.535-44.237-65.366-26.219
			l-1.04,14.741c45.285-29.504,67.043,34.114,76.409,44.575C618.85,794.65,626.615,778.192,603.865,717.359z"/>
		<g>
			<circle fill="none" cx="479.216" cy="592.905" r="31.272"/>
			<path fill="#EE7246" d="M424.303,558.855c-0.003,0.038-0.007,0.071-0.01,0.109c-1.4,19.638,1.405,58.31,3.146,79.052
				c-0.102,0.025-0.202,0.056-0.305,0.078c0.46,4.517,0.973,9.118,1.542,13.803c0.002,0.025,0.004,0.042,0.004,0.042l0.001-0.001
				c0.586,4.828,1.232,9.746,1.945,14.764c4.987,35.097,13.719,62.649,23.641,84.117l92.31-13.117
				c3.549-23.382,4.26-52.275-0.727-87.372c-24.367-171.489-89.696-217.608-89.696-217.608S427.882,468.164,424.303,558.855z
				 M510.052,598.112c-2.875,17.03-19.012,28.505-36.042,25.629c-17.03-2.875-28.505-19.012-25.629-36.042
				c2.875-17.03,19.012-28.505,36.042-25.629C501.453,564.945,512.927,581.081,510.052,598.112z"/>
		</g>
		<path fill="#EA542D" d="M455.891,433.162c9.694,32.41,19.62,77.514,27.945,128.823c0.196,0.029,0.391,0.051,0.587,0.084
			c17.03,2.875,28.505,19.012,25.629,36.042c-1.784,10.566-8.675,18.99-17.715,23.179c5.861,47.044,9.035,89.69,9.49,122.918
			l44.704-6.352c3.549-23.382,4.26-52.276-0.727-87.373c-24.367-171.489-89.696-217.607-89.696-217.607
			S456.029,432.978,455.891,433.162z"/>
		<path fill="#003C50" d="M477.984,761.795l-1.664,23.359c0,0,14.645,10.477,25.205-3.581l-7.324-22.082L477.984,761.795z"/>
		<path fill="#003C50" d="M511.358,756.612l-1.664,23.359c0,0,14.645,10.477,25.205-3.581l-7.324-22.082L511.358,756.612z"/>
		<polygon fill="#EA542D" points="529.008,716.906 497.177,721.429 465.346,725.952 466.362,770.33 503.378,765.07 540.394,759.81 
					"/>
		<path fill="#003C50" d="M432.777,680.109c5.148,28.8,12.868,52.056,21.489,70.71l92.31-13.117
			c3.084-20.317,4.02-44.803,0.942-73.897L432.777,680.109z"/>
		<path fill="#003C50" d="M546.754,657.137l-115.1,16.355c0.182,1.134,0.376,2.242,0.565,3.36l114.928-16.33
			C547.018,659.396,546.895,658.277,546.754,657.137z"/>
		<path fill="#003C50" d="M546.035,651.716l-115.201,16.369c0.165,1.132,0.335,2.253,0.508,3.368l115.144-16.361
			C546.341,653.973,546.192,652.849,546.035,651.716z"/>
		<path fill="#003C50" d="M456.154,432.723c0,0-8.128,10.187-16.22,33.603l41.158-5.848
			C466.798,440.243,456.154,432.723,456.154,432.723z"/>
		<path fill="#002838" d="M501.913,744.049l44.663-6.346c3.084-20.317,4.02-44.803,0.942-73.897
			C547.518,663.805,535.473,723.599,501.913,744.049z"/>
		
			<ellipse transform="matrix(0.9901 -0.1407 0.1407 0.9901 -98.8225 77.6061)" fill="#008573" cx="499.5" cy="737.779" rx="13.32" ry="81.387"/>
		<path fill="#006658" d="M496.724,668.324c3.623,13.318,7.039,30.11,9.651,48.494c6.323,44.502,5.545,81.417-1.738,82.452
			c-2.552,0.363-5.565-3.741-8.673-11.123c5.147,18.921,10.712,30.817,14.986,30.21c7.284-1.035,8.062-37.95,1.738-82.452
			C508.581,706.997,502.487,682.01,496.724,668.324z"/>
		<path fill="#003C50" d="M511.409,598.341c-2.997,17.751-19.877,29.755-37.629,26.757c-17.752-2.997-29.755-19.877-26.757-37.629
			c2.997-17.751,19.877-29.754,37.629-26.757S514.406,580.59,511.409,598.341z M449.737,587.928
			c-2.745,16.255,8.247,31.712,24.502,34.456s31.712-8.247,34.457-24.502c2.745-16.255-8.247-31.711-24.502-34.456
			S452.481,571.673,449.737,587.928z"/>
	</g>
	<g>
		<rect x="1398.261" y="368.359" fill="#ADD5EB" width="4.841" height="447.96"/>
		<circle fill="#D1E3EF" cx="1203.76" cy="535.534" r="81.175"/>
		<g>
			<path fill="#628EA0" d="M1161.514,577.028c0,0,2.267-1.54,2.992-1.878s19.396,3.348,19.396,3.348l1.077,1.333l1.041,1.268
				l0.582,0.979l-11.756,2.462l-11.877-2.816l-1.661-3.406L1161.514,577.028z"/>
			<polygon fill="#628EA0" points="1252.416,564.916 1253.402,565.55 1240.957,569.128 1241.951,570.443 1248.742,572.762 
				1255.049,568.029 			"/>
			<path fill="#FFFFFF" d="M1250.135,578.769c-1.969-1.005-4.624-3.533-8.184-8.326c-1.331-1.792-2.994-3.217-4.901-4.332
				c-0.17,0.373-0.405,0.891-0.595,1.309c-0.184-0.021-0.362-0.036-0.549-0.06c-4.055-0.518-7.488-1.097-9.827-1.808
				c-9.256,1.378-20.21,3.085-28.32,4.583c-0.249,2.051-2.143,5.813-11.75,8.818c-0.402,0.126-0.798,0.229-1.195,0.331
				c0.426,1.689,1.395,2.594,1.395,2.594s-0.089,3.029-2.626,6.317c0.04,0.193,0.065,0.31,0.065,0.31l14.864,59.78l57.435-6.235
				c-0.305-13.074-4.474-53.608-5.649-62.207C1250.247,579.471,1250.189,579.127,1250.135,578.769z"/>
			<path fill="#CFE1EB" d="M1214.918,592.481l-0.632,3.444c0,0,8.149-6.758,15.095-4.969l-2.09-1.924l-12.352,3.348"/>
			<path fill="#FDD08F" d="M1190.415,577.858c0,0,18.791-6.275,22.175-23.968c0,0,9.775,13.613,28.315,14.628
				C1226.914,590.129,1190.415,577.858,1190.415,577.858z"/>
			<g>
				<path fill="none" d="M1214.969,581.269c-12.753,0.55-24.554-3.411-24.554-3.411s18.791-6.275,22.175-23.968
					c0,0,7.508,10.454,21.843,13.722C1232.478,571.699,1227.512,577.734,1214.969,581.269z"/>
				<path fill="#F7AE83" d="M1234.433,567.611c2.022,0.461,4.18,0.78,6.472,0.906c-6.036,9.324-16.26,12.335-25.936,12.752
					C1227.512,577.734,1232.478,571.699,1234.433,567.611z"/>
			</g>
			<path fill="#FDD08F" d="M1151.563,518.107l1.813-10.527c6.301-32.907,40.427-35.558,57.185-33.562s26.896,21.361,27.469,38.618
				c0.569,17.142,16.747,32.014,16.962,32.211c0.412,0.748,0.652,1.17,0.652,1.17s-29.539,8.031-35.525,3.22
				c-5.986-4.811-31.825,17.77-31.825,17.77s-4.907-0.637-11.49-5.262c-3.92,3.635-10.104,8.416-13.234,6.823
				c-4.752-2.418-3.223-4.141-1.648-12.368c0.807-4.217-0.98-10.145-2.914-14.925c-1.411-2.508-2.676-5.158-3.758-7.959
				c-0.03-0.055-0.052-0.093-0.052-0.093s0.009-0.013,0.011-0.015C1153.441,528.597,1152.166,523.579,1151.563,518.107z"/>
			
				<ellipse transform="matrix(0.9949 -0.1004 0.1004 0.9949 -45.695 122.8122)" fill="#2B4D5A" cx="1197.183" cy="515.346" rx="2.212" ry="8.191"/>
			
				<ellipse transform="matrix(0.9561 -0.293 0.293 0.9561 -96.7825 377.8979)" fill="#2B4D5A" cx="1212.907" cy="511.977" rx="4.065" ry="10.288"/>
			<path fill="#F7AE83" d="M1155.583,536.644c0,0,1.839-5.71,4.268-4.306c0,0,0.833,0.408,2.186,1.252
				c0.084,0.111,0.175,0.231,0.272,0.36c-0.24,0.084-0.375,0.137-0.375,0.137s9.535,10.761,5.854,20.563
				c-2.129,5.667-1.143,11.616,0.137,15.632c-1.089-0.393-2.063-0.87-2.838-1.399c-5.897-4.032-4.685-7.775-4.685-7.775
				S1164.764,547.783,1155.583,536.644z"/>
			<path fill="#FDD08F" d="M1158.619,515.771c0,0-20.325-7.559-21.93-5.255c-1.606,2.304,0.505,10.371,4.069,17.426
				s7.865,11.999,21.052,6.888C1174.997,529.719,1158.619,515.771,1158.619,515.771z"/>
			<path fill="#F7AE83" d="M1151.135,519.075c0,0-10.677-7.389-10.302-2.337c0.375,5.052,2.736,10.134,7.351,12.295
				c0,0,1.528,0.582-0.464-1.67c-1.992-2.252-5.41-9.508-3.799-8.901C1145.533,519.07,1155.005,521.425,1151.135,519.075z"/>
			<path fill="#F7AE83" d="M1154.298,525.512c0,0,0.92,2.061-1.323,2.233c-2.243,0.171-1.7,2.604-0.018,2.522
				C1154.638,530.185,1157.28,526.467,1154.298,525.512z"/>
			<path fill="#529EB2" d="M1177.307,582.218c-6.417-0.503-12.041-2.477-15.792-5.19c-10.27,6.629-26.238,20.084-36.274,36.403
				l1.599,18.814l95.277,9.046l-35.907-59.411C1183.464,582.324,1180.454,582.464,1177.307,582.218z"/>
			<path fill="#167C9C" d="M1221.519,614.066c0.202,1.718,2.622,23.711,3.07,27.835l26.519-1.553
				c-4.393-8.952-20.48-40.088-24.798-43.715l0.981-7.6c0,0-4.859-5.632-8.265-3.035c-3.406,2.597-4.108,6.484-4.108,6.484
				l7.146,6.428C1222.064,598.91,1221.065,610.21,1221.519,614.066z"/>
			<path fill="#529EB2" d="M1295.534,637.82l-6.171-28.92c-1.347-3.189-3.015-6.456-5.085-9.643
				c-7.711-11.875-14.628-24.46-29.229-31.227c-3.19,1.099-7.209,1.937-11.628,2.313c-0.501,0.043-0.985,0.06-1.476,0.087
				l0.006,0.015c0,0,14.045,28.691,8.2,65.151L1295.534,637.82z"/>
			<path fill="#CFE1EB" d="M1192.102,585.078c0,0,12.095,9.527,19.18,10.303l-2.25,2.149
				C1209.032,597.53,1197.8,592.061,1192.102,585.078z"/>
			<path fill="#CFE1EB" d="M1231.293,591.072l3.182,2.13c0,0,6.549-12.045,5.796-17.21
				C1240.271,575.992,1236.009,590.071,1231.293,591.072z"/>
			<polygon fill="#195E72" points="1173.786,579.07 1162.908,589.083 1174.962,599.268 1168.125,610.158 1210.801,640.216 
				1214.348,641.15 1170.125,609.945 1177.492,599.289 1165.068,589.285 1174.927,579.332 			"/>
			<polygon fill="#195E72" points="1245.125,568.8 1256.647,574.6 1254.224,583.165 1262.248,589.813 1257.364,636.447 
				1258.823,636.019 1264.154,588.793 1255.565,583.051 1258.434,574.063 1246.377,568.598 			"/>
			<path fill="#195E72" d="M1276.415,603.183l-0.477-1.074c0,0-6.39,3.238-13.943,3.462l-0.062,0.553l-0.209,0.236
				C1272.202,605.556,1276.415,603.183,1276.415,603.183z"/>
			<path fill="#34606F" d="M1278.626,609.018c-0.398-2.107-1.142-3.937-1.747-5.186l-0.003-0.009l-0.006-0.009
				c-0.518-1.066-0.932-1.705-0.932-1.705l0.051,0.596c0.054,0.079,0.108,0.173,0.161,0.269l-0.131,0.088
				c0,0,1.726,4.547,1.895,6.349l0.479-0.223l-0.011-0.065L1278.626,609.018z"/>
			<path fill="#34606F" d="M1278.572,608.745c-0.073,0.098-0.204,0.197-0.383,0.296l-0.015-0.049c0,0-5.101,2.02-17.016,2.797
				l0.02,0.232c-0.05,0.005-0.085,0.009-0.085,0.009l0.036,0.426c7.368-0.562,17.526-2.738,17.526-2.738
				C1278.795,609.4,1278.572,608.745,1278.572,608.745z"/>
			<path fill="#FDD08F" d="M1235.055,500.094l8.272-8.921c0,0,2.58-2.034,2.79,4.509c0.211,6.544,2.382,21.094-6.189,20.308
				C1231.358,515.205,1235.055,500.094,1235.055,500.094z"/>
			<g>
				<path fill="none" d="M1236.005,510.49c3.006,0.577,6.598-14.942,7.58-19.47c0.658-0.314,2.363-0.608,2.533,4.662
					c0.211,6.544,2.382,21.094-6.189,20.308c-3.481-0.319-4.938-3-5.442-6.073C1234.928,510.178,1235.428,510.379,1236.005,510.49z"
					/>
				<path fill="#F7AE83" d="M1236.005,510.49c-0.577-0.111-1.077-0.311-1.517-0.572c-0.736-4.494,0.568-9.824,0.568-9.824
					l8.272-8.921c0,0,0.099-0.077,0.257-0.153C1242.603,495.548,1239.011,511.066,1236.005,510.49z"/>
			</g>
			<path fill="#0D4759" d="M1158.632,570.537c-11.473-11.041-8.453-19.106-8.453-19.106l0.001,0.002
				c1.027-4.044,4.314-7.327,8.685-8.134c5.302-0.978,10.415,2.016,12.282,6.872c-1.493-3.467-5.259-5.569-9.168-4.848
				c-4.531,0.836-7.534,5.147-6.707,9.629c0.5,2.707,2.285,4.853,4.617,5.947c0.815,0.357,1.585,0.575,2.286,0.696
				c0.171,0.026,0.342,0.052,0.516,0.067l-0.002,0.007c1.975,0.229,3.281-0.274,3.281-0.274c2.632-0.666,4.69-2.85,7.002-5.307
				c1.92-2.041,2.877-3.569,3.794-4.848c1.76-2.453,7.334-10.222,15.8-12.112c1.322-0.295,6.403-1.352,11.773,1.254
				c0.865,0.42,5.798,2.924,8.106,7.992c0.348-5.557,4.062-9.657,4.72-10.358c4.087-4.351,9.211-5.177,10.551-5.373
				c8.582-1.255,16.562,4.014,19.082,5.677c1.313,0.867,2.753,1.953,5.275,3.175c3.036,1.47,5.739,2.776,8.435,2.459
				c0,0,1.399,0.004,3.163-0.915l-0.004-0.006c0.156-0.076,0.307-0.161,0.458-0.247c0.611-0.363,1.253-0.841,1.887-1.466
				c1.788-1.854,2.69-4.495,2.191-7.203c-0.827-4.482-5.17-7.438-9.702-6.602c-3.908,0.721-6.677,4.028-6.834,7.8
				c0.012-5.203,3.72-9.824,9.022-10.802c4.371-0.807,8.614,1.088,11.016,4.499l0-0.002c0,0,5.696,6.454-1.075,20.856
				c-0.01,0.022-0.02,0.044-0.031,0.066c-0.118,0.251-0.24,0.503-0.365,0.758c-0.07,0.142-0.142,0.281-0.213,0.42
				c-0.002,0.003-0.003,0.006-0.003,0.006c-7.444,14.598-21.309,16.975-21.309,16.975l0.009-0.01
				c-0.728,0.186-1.463,0.355-2.212,0.493c-12.874,2.375-25.38-3.018-32.703-12.854c-3.331,11.802-13.089,21.302-25.963,23.677
				c-0.749,0.138-1.497,0.242-2.243,0.329l0.012,0.006c0,0-14.072,2.784-26.318-8.575c-0.211-0.196-0.416-0.39-0.618-0.584
				C1158.658,570.562,1158.645,570.549,1158.632,570.537z"/>
		</g>
		<path fill="#ADD5EB" d="M1117.962,706.052c43.811,85.294,239.439,39.844,161.638-140.349
			c-13.446,21.026-41.297,35.478-73.496,35.478c-31.428,0-62.435-11.769-76.227-31.98
			C1129.877,569.2,1074.15,620.757,1117.962,706.052z"/>
		<path fill="#ADD5EB" d="M1131.218,572.554c0,0-41.943-6.682-99.317,48.081c0,0,24.339-8.445,43.223,37.478
			c0,0,44.666-62.885,74.935-45.614L1131.218,572.554z"/>
		<path fill="#ADD5EB" d="M1271.854,603.083c0,0,34.389,29.803,117.573,12.416c0,0-26.926-6.08-18.137-58.551
			c0,0-74.786,40.826-92.563,7.989L1271.854,603.083z"/>
		<polygon fill="#ADD5EB" points="1214.586,721.359 1275.76,798.359 1336.935,759.359 1245.013,700.998 		"/>
		<polygon fill="#ADD5EB" points="1146.189,672.827 1075.684,741.385 1120.598,798.359 1169.487,701.069 		"/>
		<path fill="#ADD5EB" d="M1275.76,798.359l73.825-58l30,29l-90,46C1289.586,815.359,1273.935,811.359,1275.76,798.359z"/>
		<path fill="#ADD5EB" d="M1077.12,735.879l53.742,76.98l-30.646,28.316l-40.849-92.452
			C1059.367,748.723,1064.243,733.323,1077.12,735.879z"/>
		
			<ellipse transform="matrix(0.9884 0.152 -0.152 0.9884 101.452 -203.233)" fill="#D1E3EF" cx="1380.223" cy="562.056" rx="22.891" ry="22.25"/>
		
			<ellipse transform="matrix(0.9884 0.152 -0.152 0.9884 104.328 -206.8332)" fill="#D1E3EF" cx="1405.213" cy="579.07" rx="42.311" ry="44.826"/>
		
			<ellipse transform="matrix(0.8903 -0.4554 0.4554 0.8903 -179.8642 561.2979)" fill="#D1E3EF" cx="1074.919" cy="653.918" rx="21.364" ry="20.766"/>
		
			<ellipse transform="matrix(0.8903 -0.4554 0.4554 0.8903 -182.1423 545.6487)" fill="#D1E3EF" cx="1041.304" cy="650.821" rx="39.489" ry="41.837"/>
		<polygon fill="#ADD5EB" points="1630.001,473.52 1403.629,460.852 1403.102,376.495 1629.298,361 		"/>
		<g>
			<path fill="#FFFFFF" d="M1467.197,409.177c0,4.65-1.453,8.206-4.359,10.669c-2.906,2.463-7.039,3.694-12.398,3.694h-3.931v15.368
				h-9.162v-43.207h13.802c5.241,0,9.226,1.128,11.954,3.384S1467.197,404.705,1467.197,409.177z M1446.51,416.033h3.014
				c2.818,0,4.926-0.557,6.324-1.67c1.399-1.113,2.098-2.734,2.098-4.862c0-2.148-0.586-3.734-1.758-4.758
				c-1.172-1.025-3.01-1.537-5.512-1.537h-4.167V416.033z"/>
			<path fill="#FFFFFF" d="M1500.238,438.908h-24.884v-43.207h24.884v7.507h-15.722v9.487h14.629v7.507h-14.629v11.142h15.722
				V438.908z"/>
			<path fill="#FFFFFF" d="M1548.469,417.245c0,7.152-1.773,12.649-5.32,16.491s-8.63,5.763-15.25,5.763
				c-6.62,0-11.703-1.921-15.25-5.763s-5.32-9.359-5.32-16.55c0-7.191,1.778-12.683,5.334-16.476
				c3.556-3.793,8.654-5.689,15.294-5.689c6.64,0,11.718,1.911,15.235,5.733S1548.469,410.073,1548.469,417.245z M1516.936,417.245
				c0,4.827,0.916,8.462,2.748,10.905s4.571,3.665,8.216,3.665c7.31,0,10.964-4.857,10.964-14.57
				c0-9.733-3.635-14.599-10.905-14.599c-3.645,0-6.393,1.226-8.245,3.679C1517.862,408.778,1516.936,412.418,1516.936,417.245z"/>
			<path fill="#FFFFFF" d="M1595.755,438.908h-11.644l-18.796-32.686h-0.266c0.374,5.773,0.562,9.891,0.562,12.353v20.333h-8.186
				v-43.207h11.555l18.766,32.361h0.207c-0.296-5.615-0.443-9.585-0.443-11.91v-20.451h8.245V438.908z"/>
		</g>
	</g>
</g>
</svg>
