<svg id="Calque_1" xmlns:rdf="http://www.w3.org/1999/02/22-rdf-syntax-ns#" xmlns="http://www.w3.org/2000/svg" enable-background="new 0 0 141.732 141.732" xml:space="preserve" height="141.73px" viewBox="0 0 141.732 141.732" width="141.73px" version="1.1" y="0px" x="0px" xmlns:cc="http://creativecommons.org/ns#" xmlns:dc="http://purl.org/dc/elements/1.1/"><path id="path3" fill="#009fe3" d="m70.865 0c-39.139 0-70.865 31.728-70.865 70.865s31.727 70.867 70.865 70.867c1.649 0 3.2804-0.0765 4.9004-0.1875-0.051-0.612-0.09375-1.2285-0.09375-1.8535 0-11.89 6.6344-4.7109 18.523-4.7109 7.034 0-7.1574 8.1922 20.191-8.2109 16.636-12.967 27.346-33.179 27.346-55.904 0-39.137-31.73-70.865-70.865-70.865z"/><path id="path5" d="m70.866 98.678c-15.738 0-29.083 14.454-33.796 34.492 10.045 5.46 21.559 8.563 33.796 8.563s23.751-3.103 33.796-8.563c-4.711-20.04-18.056-34.492-33.794-34.492z"/><g id="g7"><path id="path9" d="m78.154 84.463h-14.576v8.953s0 10 7.288 10 7.288-10 7.288-10v-8.957z" fill="#fff"/><path id="path11" d="m70.866 38.316v55.623c13.229 0 23.955-12.452 23.955-27.812s-10.725-27.811-23.955-27.811z" fill="#fff"/><path id="path13" d="m46.911 66.128c0 15.359 10.726 27.812 23.955 27.812v-55.624c-13.229 0-23.955 12.453-23.955 27.812z" fill="#F6F6F6"/><circle id="circle15" cy="66.128" cx="60.889" r="2.096"/><circle id="circle17" cy="66.128" cx="80.844" r="2.096"/></g><polygon id="polygon19" points="70.866 11.907 36.911 28.316 46.911 66.128 70.866 46.128 94.821 66.128 104.82 28.316" fill="#00405B"/><polygon id="polygon21" points="36.911 28.316 70.866 46.128 46.911 66.128" fill="#7DC9CA"/><polygon id="polygon23" points="70.866 46.128 104.82 28.316 94.821 66.128" fill="#3363AC"/></svg>
