<?xml version="1.0" encoding="utf-8"?>
<!-- Generator: Adobe Illustrator 16.0.0, SVG Export Plug-In . SVG Version: 6.00 Build 0)  -->
<!DOCTYPE svg PUBLIC "-//W3C//DTD SVG 1.1//EN" "http://www.w3.org/Graphics/SVG/1.1/DTD/svg11.dtd">
<svg version="1.1" xmlns="http://www.w3.org/2000/svg" xmlns:xlink="http://www.w3.org/1999/xlink" x="0px" y="0px" width="1280px"
	 height="800px" viewBox="0 0 1280 800" enable-background="new 0 0 1280 800" xml:space="preserve">
<g id="_x31_">
	<g id="Hot-air-balloons">
		<g>

				<rect x="-2393.135" y="395.889" transform="matrix(0.9173 0.3982 -0.3982 0.9173 -27.751 988.114)" fill="#00405B" width="0.25" height="62.7"/>

				<rect x="-2474.664" y="427.114" transform="matrix(0.3852 0.9228 -0.9228 0.3852 -1108.0331 2517.6401)" fill="#7DC9CA" width="62.308" height="0.25"/>
			<rect x="-2418.385" y="398.488" fill="#3363AC" width="0.25" height="57.502"/>
			<path fill="#7DC9CA" d="M-2418.041,325.989c-55,0-54.25,35-37.5,72.5s16.5,37.5,37.5,37.5V325.989z"/>
			<path fill="#00405B" d="M-2418.041,325.989c55,0,54.25,35,37.5,72.5s-16.5,37.5-37.5,37.5V325.989z"/>
			<path fill="#3363AC" d="M-2418.041,325.989c0,0,63-4.333,0,110V325.989z"/>
			<path fill="#F6F6F6" d="M-2418.041,325.989c0,0-63-4.333,0,110V325.989z"/>
			<path fill="#7DC9CA" d="M-2431.51,456c0,0,0,18,5,18c2.5,0,5.469,0,8.469,0v-18H-2431.51z"/>
			<path fill="#3363AC" d="M-2405.51,456h-12.531v18c2,0,5.031,0,7.531,0C-2405.51,474-2405.51,456-2405.51,456z"/>
			<path opacity="0.25" fill="#FFFFFF" d="M-2420.363,326.013c-52.376,0.998-51.653,35.522-35.146,72.476
				c3.052,6.833,5.548,12.416,7.716,16.986l12.708-14.714C-2462.716,333.139-2429.751,326.558-2420.363,326.013z"/>
			<path opacity="0.25" fill="#FFFFFF" d="M-2390.659,349.32l10.856-12.57c-7.068-6.462-18.568-10.411-35.855-10.736
				C-2409.609,326.364-2393.762,329.223-2390.659,349.32z"/>
			<path opacity="0.25" fill="#FFFFFF" d="M-2390.674,349.32c-3.103-20.097-18.958-22.956-25.007-23.307
				c-0.773-0.015-1.359-0.024-2.359-0.024v55L-2390.674,349.32z"/>
			<path opacity="0.25" fill="#FFFFFF" d="M-2435.102,400.762l17.061-19.772v-55c-1,0-1.572,0.009-2.346,0.024
				C-2429.775,326.558-2462.731,333.139-2435.102,400.762z"/>
		</g>
		<g>

				<rect x="-1858.588" y="397.937" transform="matrix(0.9179 0.3967 -0.3967 0.9179 11.5715 771.2839)" fill="#00405B" width="0.126" height="31.35"/>

				<rect x="-1899.352" y="413.549" transform="matrix(0.3852 0.9228 -0.9228 0.3852 -776.476 1992.7168)" fill="#7DC9CA" width="31.154" height="0.125"/>
			<rect x="-1871.213" y="398.999" fill="#3363AC" width="0.125" height="29.001"/>
			<path fill="#7DC9CA" d="M-1871.041,362.986c-27.5,0-27.125,17.5-18.75,36.25s8.25,18.75,18.75,18.75V362.986z"/>
			<path fill="#00405B" d="M-1871.041,362.986c27.5,0,27.125,17.5,18.75,36.25s-8.25,18.75-18.75,18.75V362.986z"/>
			<path fill="#3363AC" d="M-1871.041,362.986c0,0,31.5-2.167,0,55V362.986z"/>
			<path fill="#F6F6F6" d="M-1871.041,362.986c0,0-31.5-2.167,0,55V362.986z"/>
			<path fill="#7DC9CA" d="M-1877.775,428c0,0,0,9,2.5,9c1.25,0,2.734,0,4.234,0v-9H-1877.775z"/>
			<path fill="#3363AC" d="M-1864.775,428h-6.266v9c1,0,2.516,0,3.766,0C-1864.775,437-1864.775,428-1864.775,428z"/>
			<path opacity="0.25" fill="#FFFFFF" d="M-1872.202,362.999c-26.188,0.499-25.826,17.761-17.573,36.238
				c1.526,3.417,2.773,6.208,3.858,8.493l6.354-7.356C-1893.379,366.562-1876.896,363.271-1872.202,362.999z"/>
			<path opacity="0.25" fill="#FFFFFF" d="M-1857.35,374.652l5.428-6.285c-3.534-3.231-9.284-5.206-17.928-5.368
				C-1866.825,363.174-1858.901,364.603-1857.35,374.652z"/>
			<path opacity="0.25" fill="#FFFFFF" d="M-1857.357,374.652c-1.552-10.049-9.479-11.478-12.504-11.653
				c-0.387-0.007-0.68-0.012-1.18-0.012v27.5L-1857.357,374.652z"/>
			<path opacity="0.25" fill="#FFFFFF" d="M-1879.571,400.373l8.53-9.887v-27.5c-0.5,0-0.786,0.005-1.173,0.012
				C-1876.908,363.271-1893.387,366.562-1879.571,400.373z"/>
		</g>
	</g>
	<g id="Trees_2">
		<g>
			<rect x="-2701.997" y="730.186" fill="#00405B" width="6.021" height="39.814"/>
			<ellipse fill="#7DC9CA" cx="-2699.249" cy="457.27" rx="27.308" ry="85.418"/>
			<ellipse fill="#00405B" cx="-2679.343" cy="585.049" rx="30.903" ry="65.508"/>
			<ellipse fill="#7DC9CA" cx="-2719.157" cy="595.928" rx="29.85" ry="75.23"/>
			<path fill="#00405B" d="M-2729.632,657.039c0-40.4,13.603-73.15,30.382-73.15s30.382,32.75,30.382,73.15
				c0,40.396-13.603,73.146-30.382,73.146S-2729.632,697.436-2729.632,657.039z"/>
			<ellipse fill="#009FE3" cx="-2688.949" cy="532.965" rx="25.347" ry="71.297"/>
			<ellipse fill="#3363AC" cx="-2674.134" cy="635.744" rx="17.824" ry="64.453"/>
		</g>
	</g>
	<g id="Sky">
		<rect x="-2755.041" y="-5" opacity="0.5" fill="#7DC9CA" width="1290" height="810"/>
		<rect x="-2755.041" y="-5" opacity="0.5" fill="#009FE3" width="1290" height="202"/>
		<rect x="-2755.041" y="197" fill="#7DC9CA" width="1290" height="101"/>
	</g>
	<g id="Floor">
		<rect x="-2755.041" y="770" fill="#00405B" width="1290" height="35"/>
		<rect x="-2755.041" y="770" fill="#7DC9CA" width="1290" height="18"/>
		<rect x="-2755.041" y="770" fill="#3363AC" width="1290" height="9"/>
	</g>
	<g id="Mountains">
		<polygon opacity="0.25" fill="#7DC9CA" points="-2750.462,770 -2110.252,370 -1470.041,770 		"/>
		<circle fill="#009FE3" cx="-618.173" cy="-286.796" r="70.866"/>
		<path fill="#3363AC" d="M-584.525-258.984c9.248,0,17.666,4.995,23.996,13.177c-9.711,13.666-24.135,23.737-40.91,27.838
			c-5.958-1.459-11.623-3.664-16.882-6.522C-613.608-244.53-600.264-258.984-584.525-258.984z"/>
		<g>
			<path fill="#FFFFFF" d="M-591.814-273.199h14.576v8.953c0,0,0,10-7.287,10c-7.289,0-7.289-10-7.289-10V-273.199z"/>
			<path fill="#FFFFFF" d="M-584.525-319.346v55.623c-13.23,0-23.955-12.452-23.955-27.812S-597.756-319.346-584.525-319.346z"/>
			<path fill="#F6F6F6" d="M-560.57-291.534c0,15.359-10.726,27.812-23.955,27.812v-55.623
				C-571.296-319.346-560.57-306.894-560.57-291.534z"/>
			<circle cx="-574.548" cy="-291.534" r="2.095"/>
			<circle cx="-594.503" cy="-291.534" r="2.095"/>
		</g>
		<path fill="#7DC9CA" d="M-560.57-291.534c0,0,4.559-22.349-9.698-22.349L-560.57-291.534z"/>
		<path fill="#7DC9CA" d="M-608.48-291.534c0,0-4.561-22.349,9.697-22.349L-608.48-291.534z"/>
		<path fill="#3363AC" d="M-652.117-263.723c41.084,0,23.955-27.812,23.955-27.812h-47.91
			C-676.072-291.534-693.2-263.723-652.117-263.723"/>
		<path fill="#7DC9CA" d="M-652.117-258.984c-9.248,0-17.666,4.995-23.996,13.177c9.711,13.666,24.135,23.737,40.91,27.838
			c5.958-1.459,11.623-3.664,16.882-6.522C-623.034-244.53-636.379-258.984-652.117-258.984z"/>
		<g>
			<path fill="#FFFFFF" d="M-644.828-273.199h-14.576v8.953c0,0,0,10,7.287,10c7.289,0,7.289-10,7.289-10V-273.199z"/>
			<path fill="#FFFFFF" d="M-652.117-319.346v55.623c13.23,0,23.955-12.452,23.955-27.812S-638.887-319.346-652.117-319.346z"/>
			<path fill="#F6F6F6" d="M-676.072-291.534c0,15.359,10.726,27.812,23.955,27.812v-55.623
				C-665.347-319.346-676.072-306.894-676.072-291.534z"/>
			<circle cx="-662.094" cy="-291.534" r="2.095"/>
			<circle cx="-642.139" cy="-291.534" r="2.095"/>
		</g>
		<path fill="#00405B" d="M-652.117-329.346c-33.795,0-23.955,37.812-23.955,37.812l10.053-15.791h27.979l9.878,15.791
			C-628.162-291.534-618.321-329.346-652.117-329.346"/>
		<path d="M-618.321-258.984c-15.738,0-29.083,14.454-33.796,34.492c10.045,5.46,21.559,8.563,33.796,8.563
			s23.751-3.103,33.796-8.563C-589.238-244.53-602.584-258.984-618.321-258.984z"/>
		<polygon fill="#3363AC" points="-666.02,-307.325 -652.117,-320.44 -638.037,-307.325 		"/>
		<polygon fill="#00405B" points="-594.366,-349.346 -642.276,-329.346 -642.276,-291.534 -594.366,-291.534 -594.366,-329.346
			"/>
		<polygon fill="#7DC9CA" points="-642.276,-329.346 -618.174,-310.44 -642.276,-291.534 		"/>
		<g>
			<path fill="#FFFFFF" d="M-611.033-273.199h-14.576v8.953c0,0,0,10,7.288,10s7.288-10,7.288-10V-273.199z"/>
			<path fill="#FFFFFF" d="M-618.321-319.346v55.623c13.229,0,23.955-12.452,23.955-27.812S-605.092-319.346-618.321-319.346z"/>
			<path fill="#F6F6F6" d="M-642.276-291.534c0,15.359,10.726,27.812,23.955,27.812v-55.623
				C-631.551-319.346-642.276-306.894-642.276-291.534z"/>
			<circle cx="-628.299" cy="-291.534" r="2.096"/>
			<circle cx="-608.344" cy="-291.534" r="2.096"/>
		</g>
		<polygon fill="#3363AC" points="-642.276,-329.346 -618.174,-310.44 -594.366,-349.346 		"/>
		<polygon opacity="0.5" fill="#7DC9CA" points="-2755.041,770 -1874.041,770 -2514.252,410 -2755.041,545.399 		"/>
		<polygon opacity="0.75" fill="#7DC9CA" points="-1465.041,497.324 -1576.252,440 -2216.462,770 -1465.041,770 		"/>
	</g>
	<g id="Town_2">
		<polygon opacity="0.5" fill="#009FE3" points="-2553.041,770 -2553.041,538 -2482.041,538 -2482.041,511 -2418.041,511
			-2418.041,474 -2270.041,474 -2270.041,427 -2164.041,427 -2164.041,511 -2066.041,511 -2066.041,456 -1990.041,456
			-1990.041,410 -1911.041,410 -1911.041,471 -1829.041,471 -1829.041,440 -1752.041,440 -1752.041,503 -1684.041,503
			-1684.041,459 -1615.041,459 -1615.041,770 		"/>
	</g>
	<g id="Town">
		<rect x="-2229.937" y="523.082" fill="#009FE3" width="131.949" height="246.918"/>
		<rect x="-2097.988" y="570" fill="#009FE3" width="63.872" height="200"/>
		<rect x="-2513.988" y="570" opacity="0.5" fill="#009FE3" width="63.872" height="200"/>
		<rect x="-1945.91" y="587.579" opacity="0.75" fill="#009FE3" width="77.449" height="182.421"/>
		<rect x="-1653.91" y="587.579" opacity="0.25" fill="#009FE3" width="77.449" height="182.421"/>
		<rect x="-1868.461" y="629.577" opacity="0.75" fill="#009FE3" width="77.449" height="140.423"/>
		<rect x="-2591.461" y="629.577" opacity="0.25" fill="#009FE3" width="77.449" height="140.423"/>
		<rect x="-1791.012" y="587.579" opacity="0.5" fill="#009FE3" width="77.449" height="182.421"/>
		<rect x="-1713.563" y="640.925" opacity="0.5" fill="#009FE3" width="59.591" height="129.075"/>
		<rect x="-2034.116" y="511.85" fill="#009FE3" width="88.206" height="258.15"/>
		<rect x="-2310.897" y="511.85" opacity="0.75" fill="#009FE3" width="80.96" height="258.15"/>
		<rect x="-2385.935" y="570" opacity="0.75" fill="#009FE3" width="75.038" height="200"/>
		<rect x="-2450.432" y="539.582" opacity="0.5" fill="#009FE3" width="64.497" height="230.418"/>
	</g>
	<g id="Shadows">
		<polygon opacity="0.25" fill="#010202" points="-2591.041,630 -2514.012,630 -2591.041,770 		"/>
		<polygon opacity="0.25" fill="#010202" points="-2514.041,570 -2450.087,570 -2514.041,770 		"/>
		<polygon opacity="0.25" fill="#010202" points="-2450.041,540 -2386.087,540 -2450.041,770 		"/>
		<polygon opacity="0.25" fill="#010202" points="-2386.041,570 -2310.897,570 -2386.041,770 		"/>
		<polygon opacity="0.25" fill="#010202" points="-2312.041,512 -2230.293,512 -2312.041,770 		"/>
		<polygon opacity="0.25" fill="#010202" points="-2098.041,570 -2034.67,570 -2098.041,770 		"/>
		<polygon opacity="0.25" fill="#010202" points="-1946.041,588 -1868.461,588 -1946.041,770 		"/>
		<polygon opacity="0.25" fill="#010202" points="-1868.041,630 -1790.461,630 -1868.041,770 		"/>
		<polygon opacity="0.25" fill="#010202" points="-1790.041,588 -1713.563,588 -1790.041,770 		"/>
		<polygon opacity="0.25" fill="#010202" points="-1714.041,641 -1653.972,641 -1714.041,770 		"/>
		<polygon opacity="0.25" fill="#010202" points="-1654.041,588 -1576.461,588 -1654.041,770 		"/>
		<polygon opacity="0.25" fill="#010202" points="-2035.041,512 -1945.91,512 -2035.041,770 		"/>
		<polygon opacity="0.25" fill="#010202" points="-2230.041,523 -2097.988,523 -2230.041,770 		"/>
	</g>
	<g id="Windows">
		<rect x="-2440.041" y="550" fill="#00405B" width="18" height="38"/>
		<rect x="-2414.041" y="550" fill="#00405B" width="18" height="38"/>
		<rect x="-2440.041" y="598" fill="#00405B" width="18" height="38"/>
		<rect x="-2414.041" y="598" fill="#00405B" width="18" height="38"/>
		<rect x="-2440.041" y="646" fill="#00405B" width="18" height="38"/>
		<rect x="-2414.041" y="646" fill="#00405B" width="18" height="38"/>
		<rect x="-2440.041" y="694" fill="#00405B" width="18" height="38"/>
		<rect x="-2414.041" y="694" fill="#00405B" width="18" height="38"/>
		<rect x="-2370.041" y="598" fill="#00405B" width="18" height="38"/>
		<rect x="-2344.041" y="598" fill="#00405B" width="18" height="38"/>
		<rect x="-2370.041" y="646" fill="#00405B" width="18" height="38"/>
		<rect x="-2344.041" y="646" fill="#00405B" width="18" height="38"/>
		<rect x="-2370.041" y="694" fill="#00405B" width="18" height="38"/>
		<rect x="-2344.041" y="694" fill="#00405B" width="18" height="38"/>
		<rect x="-2292.041" y="598" fill="#00405B" width="18" height="38"/>
		<rect x="-2266.041" y="598" fill="#00405B" width="18" height="38"/>
		<rect x="-2292.041" y="550" fill="#00405B" width="18" height="38"/>
		<rect x="-2266.041" y="550" fill="#00405B" width="18" height="38"/>
		<rect x="-2292.041" y="646" fill="#00405B" width="18" height="38"/>
		<rect x="-2266.041" y="646" fill="#00405B" width="18" height="38"/>
		<rect x="-2292.041" y="694" fill="#00405B" width="18" height="38"/>
		<rect x="-2266.041" y="694" fill="#00405B" width="18" height="38"/>
		<rect x="-2213.041" y="598" fill="#00405B" width="18" height="38"/>
		<rect x="-2187.041" y="598" fill="#00405B" width="18" height="38"/>
		<rect x="-2213.041" y="550" fill="#00405B" width="18" height="38"/>
		<rect x="-2187.041" y="550" fill="#00405B" width="18" height="38"/>
		<rect x="-2213.041" y="646" fill="#00405B" width="18" height="38"/>
		<rect x="-2187.041" y="646" fill="#00405B" width="18" height="38"/>
		<rect x="-2213.041" y="694" fill="#00405B" width="18" height="38"/>
		<rect x="-2187.041" y="694" fill="#00405B" width="18" height="38"/>
		<rect x="-2159.041" y="598" fill="#00405B" width="18" height="38"/>
		<rect x="-2133.041" y="598" fill="#00405B" width="18" height="38"/>
		<rect x="-2159.041" y="550" fill="#00405B" width="18" height="38"/>
		<rect x="-2133.041" y="550" fill="#00405B" width="18" height="38"/>
		<rect x="-2159.041" y="646" fill="#00405B" width="18" height="38"/>
		<rect x="-2133.041" y="646" fill="#00405B" width="18" height="38"/>
		<rect x="-2159.041" y="694" fill="#00405B" width="18" height="38"/>
		<rect x="-2133.041" y="694" fill="#00405B" width="18" height="38"/>
		<rect x="-2012.041" y="598" fill="#00405B" width="18" height="38"/>
		<rect x="-1986.041" y="598" fill="#00405B" width="18" height="38"/>
		<rect x="-2012.041" y="550" fill="#00405B" width="18" height="38"/>
		<rect x="-1986.041" y="550" fill="#00405B" width="18" height="38"/>
		<rect x="-2012.041" y="646" fill="#00405B" width="18" height="38"/>
		<rect x="-1986.041" y="646" fill="#00405B" width="18" height="38"/>
		<rect x="-2012.041" y="694" fill="#00405B" width="18" height="38"/>
		<rect x="-1986.041" y="694" fill="#00405B" width="18" height="38"/>
		<rect x="-1774.041" y="646" fill="#00405B" width="18" height="38"/>
		<rect x="-1748.041" y="646" fill="#00405B" width="18" height="38"/>
		<rect x="-1774.041" y="598" fill="#00405B" width="18" height="38"/>
		<rect x="-1748.041" y="598" fill="#00405B" width="18" height="38"/>
		<rect x="-1774.041" y="694" fill="#00405B" width="18" height="38"/>
		<rect x="-1748.041" y="694" fill="#00405B" width="18" height="38"/>
		<rect x="-1706.041" y="694" fill="#00405B" width="18" height="38"/>
		<rect x="-1680.041" y="694" fill="#00405B" width="18" height="38"/>
		<rect x="-2088.041" y="598" fill="#00405B" width="18" height="38"/>
		<rect x="-2062.041" y="598" fill="#00405B" width="18" height="38"/>
		<rect x="-2088.041" y="646" fill="#00405B" width="18" height="38"/>
		<rect x="-2062.041" y="646" fill="#00405B" width="18" height="38"/>
		<rect x="-2088.041" y="694" fill="#00405B" width="18" height="38"/>
		<rect x="-2062.041" y="694" fill="#00405B" width="18" height="38"/>
		<rect x="-2504.041" y="598" fill="#00405B" width="18" height="38"/>
		<rect x="-2478.041" y="598" fill="#00405B" width="18" height="38"/>
		<rect x="-2504.041" y="646" fill="#00405B" width="18" height="38"/>
		<rect x="-2478.041" y="646" fill="#00405B" width="18" height="38"/>
		<rect x="-2504.041" y="694" fill="#00405B" width="18" height="38"/>
		<rect x="-2478.041" y="694" fill="#00405B" width="18" height="38"/>
		<rect x="-1929.041" y="646" fill="#00405B" width="18" height="38"/>
		<rect x="-1903.041" y="646" fill="#00405B" width="18" height="38"/>
		<rect x="-1929.041" y="598" fill="#00405B" width="18" height="38"/>
		<rect x="-1903.041" y="598" fill="#00405B" width="18" height="38"/>
		<rect x="-1852.041" y="646" fill="#00405B" width="18" height="38"/>
		<rect x="-1826.041" y="646" fill="#00405B" width="18" height="38"/>
		<rect x="-1706.041" y="646" fill="#00405B" width="18" height="38"/>
		<rect x="-1680.041" y="646" fill="#00405B" width="18" height="38"/>
		<rect x="-1929.041" y="694" fill="#00405B" width="18" height="38"/>
		<rect x="-1903.041" y="694" fill="#00405B" width="18" height="38"/>
		<rect x="-1637.041" y="646" fill="#00405B" width="18" height="38"/>
		<rect x="-1611.041" y="646" fill="#00405B" width="18" height="38"/>
		<rect x="-1637.041" y="598" fill="#00405B" width="18" height="38"/>
		<rect x="-1611.041" y="598" fill="#00405B" width="18" height="38"/>
		<rect x="-1637.041" y="694" fill="#00405B" width="18" height="38"/>
		<rect x="-1611.041" y="694" fill="#00405B" width="18" height="38"/>
		<rect x="-1852.041" y="694" fill="#00405B" width="18" height="38"/>
		<rect x="-1826.041" y="694" fill="#00405B" width="18" height="38"/>
		<rect x="-2575.041" y="646" fill="#00405B" width="18" height="38"/>
		<rect x="-2549.041" y="646" fill="#00405B" width="18" height="38"/>
		<rect x="-2575.041" y="694" fill="#00405B" width="18" height="38"/>
		<rect x="-2549.041" y="694" fill="#00405B" width="18" height="38"/>
	</g>
	<g id="Windows_ligh">
		<polygon opacity="0.5" fill="#FFFFFF" points="-2575.041,646 -2575.041,684 -2557.041,646 		"/>
		<polygon opacity="0.5" fill="#FFFFFF" points="-2549.041,646 -2549.041,684 -2531.041,646 		"/>
		<polygon opacity="0.5" fill="#FFFFFF" points="-2575.041,694 -2575.041,732 -2557.041,694 		"/>
		<polygon opacity="0.5" fill="#FFFFFF" points="-2549.041,694 -2549.041,732 -2531.041,694 		"/>
		<polygon opacity="0.5" fill="#FFFFFF" points="-2504.041,694 -2504.041,732 -2486.041,694 		"/>
		<polygon opacity="0.5" fill="#FFFFFF" points="-2478.041,694 -2478.041,732 -2460.041,694 		"/>
		<polygon opacity="0.5" fill="#FFFFFF" points="-2504.041,646 -2504.041,684 -2486.041,646 		"/>
		<polygon opacity="0.5" fill="#FFFFFF" points="-2478.041,646 -2478.041,684 -2460.041,646 		"/>
		<polygon opacity="0.5" fill="#FFFFFF" points="-2504.041,598 -2504.041,636 -2486.041,598 		"/>
		<polygon opacity="0.5" fill="#FFFFFF" points="-2478.041,598 -2478.041,636 -2460.041,598 		"/>
		<polygon opacity="0.5" fill="#FFFFFF" points="-2440.041,694 -2440.041,732 -2422.041,694 		"/>
		<polygon opacity="0.5" fill="#FFFFFF" points="-2414.041,694 -2414.041,732 -2396.041,694 		"/>
		<polygon opacity="0.5" fill="#FFFFFF" points="-2440.041,646 -2440.041,684 -2422.041,646 		"/>
		<polygon opacity="0.5" fill="#FFFFFF" points="-2414.041,646 -2414.041,684 -2396.041,646 		"/>
		<polygon opacity="0.5" fill="#FFFFFF" points="-2440.041,598 -2440.041,636 -2422.041,598 		"/>
		<polygon opacity="0.5" fill="#FFFFFF" points="-2414.041,598 -2414.041,636 -2396.041,598 		"/>
		<polygon opacity="0.5" fill="#FFFFFF" points="-2370.041,694 -2370.041,732 -2352.041,694 		"/>
		<polygon opacity="0.5" fill="#FFFFFF" points="-2344.041,694 -2344.041,732 -2326.041,694 		"/>
		<polygon opacity="0.5" fill="#FFFFFF" points="-2370.041,646 -2370.041,684 -2352.041,646 		"/>
		<polygon opacity="0.5" fill="#FFFFFF" points="-2344.041,646 -2344.041,684 -2326.041,646 		"/>
		<polygon opacity="0.5" fill="#FFFFFF" points="-2370.041,598 -2370.041,636 -2352.041,598 		"/>
		<polygon opacity="0.5" fill="#FFFFFF" points="-2344.041,598 -2344.041,636 -2326.041,598 		"/>
		<polygon opacity="0.5" fill="#FFFFFF" points="-2440.041,550 -2440.041,588 -2422.041,550 		"/>
		<polygon opacity="0.5" fill="#FFFFFF" points="-2414.041,550 -2414.041,588 -2396.041,550 		"/>
		<polygon opacity="0.5" fill="#FFFFFF" points="-2292.041,694 -2292.041,732 -2274.041,694 		"/>
		<polygon opacity="0.5" fill="#FFFFFF" points="-2266.041,694 -2266.041,732 -2248.041,694 		"/>
		<polygon opacity="0.5" fill="#FFFFFF" points="-2292.041,646 -2292.041,684 -2274.041,646 		"/>
		<polygon opacity="0.5" fill="#FFFFFF" points="-2266.041,646 -2266.041,684 -2248.041,646 		"/>
		<polygon opacity="0.5" fill="#FFFFFF" points="-2292.041,598 -2292.041,636 -2274.041,598 		"/>
		<polygon opacity="0.5" fill="#FFFFFF" points="-2266.041,598 -2266.041,636 -2248.041,598 		"/>
		<polygon opacity="0.5" fill="#FFFFFF" points="-2292.041,550 -2292.041,588 -2274.041,550 		"/>
		<polygon opacity="0.5" fill="#FFFFFF" points="-2266.041,550 -2266.041,588 -2248.041,550 		"/>
		<polygon opacity="0.5" fill="#FFFFFF" points="-2213.041,694 -2213.041,732 -2195.041,694 		"/>
		<polygon opacity="0.5" fill="#FFFFFF" points="-2187.041,694 -2187.041,732 -2169.041,694 		"/>
		<polygon opacity="0.5" fill="#FFFFFF" points="-2213.041,646 -2213.041,684 -2195.041,646 		"/>
		<polygon opacity="0.5" fill="#FFFFFF" points="-2187.041,646 -2187.041,684 -2169.041,646 		"/>
		<polygon opacity="0.5" fill="#FFFFFF" points="-2213.041,598 -2213.041,636 -2195.041,598 		"/>
		<polygon opacity="0.5" fill="#FFFFFF" points="-2187.041,598 -2187.041,636 -2169.041,598 		"/>
		<polygon opacity="0.5" fill="#FFFFFF" points="-2213.041,550 -2213.041,588 -2195.041,550 		"/>
		<polygon opacity="0.5" fill="#FFFFFF" points="-2187.041,550 -2187.041,588 -2169.041,550 		"/>
		<polygon opacity="0.5" fill="#FFFFFF" points="-2159.041,694 -2159.041,732 -2141.041,694 		"/>
		<polygon opacity="0.5" fill="#FFFFFF" points="-2133.041,694 -2133.041,732 -2115.041,694 		"/>
		<polygon opacity="0.5" fill="#FFFFFF" points="-2159.041,646 -2159.041,684 -2141.041,646 		"/>
		<polygon opacity="0.5" fill="#FFFFFF" points="-2133.041,646 -2133.041,684 -2115.041,646 		"/>
		<polygon opacity="0.5" fill="#FFFFFF" points="-2159.041,598 -2159.041,636 -2141.041,598 		"/>
		<polygon opacity="0.5" fill="#FFFFFF" points="-2133.041,598 -2133.041,636 -2115.041,598 		"/>
		<polygon opacity="0.5" fill="#FFFFFF" points="-2088.041,694 -2088.041,732 -2070.041,694 		"/>
		<polygon opacity="0.5" fill="#FFFFFF" points="-2062.041,694 -2062.041,732 -2044.041,694 		"/>
		<polygon opacity="0.5" fill="#FFFFFF" points="-2088.041,646 -2088.041,684 -2070.041,646 		"/>
		<polygon opacity="0.5" fill="#FFFFFF" points="-2062.041,646 -2062.041,684 -2044.041,646 		"/>
		<polygon opacity="0.5" fill="#FFFFFF" points="-2088.041,598 -2088.041,636 -2070.041,598 		"/>
		<polygon opacity="0.5" fill="#FFFFFF" points="-2062.041,598 -2062.041,636 -2044.041,598 		"/>
		<polygon opacity="0.5" fill="#FFFFFF" points="-1929.041,694 -1929.041,732 -1911.041,694 		"/>
		<polygon opacity="0.5" fill="#FFFFFF" points="-1903.041,694 -1903.041,732 -1885.041,694 		"/>
		<polygon opacity="0.5" fill="#FFFFFF" points="-1929.041,646 -1929.041,684 -1911.041,646 		"/>
		<polygon opacity="0.5" fill="#FFFFFF" points="-1903.041,646 -1903.041,684 -1885.041,646 		"/>
		<polygon opacity="0.5" fill="#FFFFFF" points="-1852.041,694 -1852.041,732 -1834.041,694 		"/>
		<polygon opacity="0.5" fill="#FFFFFF" points="-1826.041,694 -1826.041,732 -1808.041,694 		"/>
		<polygon opacity="0.5" fill="#FFFFFF" points="-1852.041,646 -1852.041,684 -1834.041,646 		"/>
		<polygon opacity="0.5" fill="#FFFFFF" points="-1826.041,646 -1826.041,684 -1808.041,646 		"/>
		<polygon opacity="0.5" fill="#FFFFFF" points="-1706.041,694 -1706.041,732 -1688.041,694 		"/>
		<polygon opacity="0.5" fill="#FFFFFF" points="-1680.041,694 -1680.041,732 -1662.041,694 		"/>
		<polygon opacity="0.5" fill="#FFFFFF" points="-1706.041,646 -1706.041,684 -1688.041,646 		"/>
		<polygon opacity="0.5" fill="#FFFFFF" points="-1680.041,646 -1680.041,684 -1662.041,646 		"/>
		<polygon opacity="0.5" fill="#FFFFFF" points="-1929.041,598 -1929.041,636 -1911.041,598 		"/>
		<polygon opacity="0.5" fill="#FFFFFF" points="-1903.041,598 -1903.041,636 -1885.041,598 		"/>
		<polygon opacity="0.5" fill="#FFFFFF" points="-1774.041,694 -1774.041,732 -1756.041,694 		"/>
		<polygon opacity="0.5" fill="#FFFFFF" points="-1748.041,694 -1748.041,732 -1730.041,694 		"/>
		<polygon opacity="0.5" fill="#FFFFFF" points="-1774.041,646 -1774.041,684 -1756.041,646 		"/>
		<polygon opacity="0.5" fill="#FFFFFF" points="-1748.041,646 -1748.041,684 -1730.041,646 		"/>
		<polygon opacity="0.5" fill="#FFFFFF" points="-1774.041,598 -1774.041,636 -1756.041,598 		"/>
		<polygon opacity="0.5" fill="#FFFFFF" points="-1748.041,598 -1748.041,636 -1730.041,598 		"/>
		<polygon opacity="0.5" fill="#FFFFFF" points="-1637.041,694 -1637.041,732 -1619.041,694 		"/>
		<polygon opacity="0.5" fill="#FFFFFF" points="-1611.041,694 -1611.041,732 -1593.041,694 		"/>
		<polygon opacity="0.5" fill="#FFFFFF" points="-1637.041,646 -1637.041,684 -1619.041,646 		"/>
		<polygon opacity="0.5" fill="#FFFFFF" points="-1611.041,646 -1611.041,684 -1593.041,646 		"/>
		<polygon opacity="0.5" fill="#FFFFFF" points="-1637.041,598 -1637.041,636 -1619.041,598 		"/>
		<polygon opacity="0.5" fill="#FFFFFF" points="-1611.041,598 -1611.041,636 -1593.041,598 		"/>
		<polygon opacity="0.5" fill="#FFFFFF" points="-2159.041,550 -2159.041,588 -2141.041,550 		"/>
		<polygon opacity="0.5" fill="#FFFFFF" points="-2133.041,550 -2133.041,588 -2115.041,550 		"/>
		<polygon opacity="0.5" fill="#FFFFFF" points="-2012.041,694 -2012.041,732 -1994.041,694 		"/>
		<polygon opacity="0.5" fill="#FFFFFF" points="-1986.041,694 -1986.041,732 -1968.041,694 		"/>
		<polygon opacity="0.5" fill="#FFFFFF" points="-2012.041,646 -2012.041,684 -1994.041,646 		"/>
		<polygon opacity="0.5" fill="#FFFFFF" points="-1986.041,646 -1986.041,684 -1968.041,646 		"/>
		<polygon opacity="0.5" fill="#FFFFFF" points="-2012.041,598 -2012.041,636 -1994.041,598 		"/>
		<polygon opacity="0.5" fill="#FFFFFF" points="-1986.041,598 -1986.041,636 -1968.041,598 		"/>
		<polygon opacity="0.5" fill="#FFFFFF" points="-2012.041,550 -2012.041,588 -1994.041,550 		"/>
		<polygon opacity="0.5" fill="#FFFFFF" points="-1986.041,550 -1986.041,588 -1968.041,550 		"/>
	</g>
	<g id="Clouds">
		<rect x="-2755.041" y="55" opacity="0.9" fill="#FFFFFF" width="645" height="60"/>
		<rect x="-1790.041" y="115" opacity="0.75" fill="#FFFFFF" width="323" height="60"/>
		<rect x="-2213.041" y="-5" fill="#FFFFFF" width="748" height="35"/>
		<rect x="-2272.041" y="247" opacity="0.35" fill="#FFFFFF" width="323" height="30"/>
		<rect x="-2107.041" y="298" opacity="0.25" fill="#FFFFFF" width="323" height="15"/>
		<rect x="-2675.041" y="182" opacity="0.5" fill="#FFFFFF" width="484" height="30"/>
	</g>
	<g id="Trees">
		<g>
			<ellipse fill="#009FE3" cx="-2662.092" cy="670.501" rx="36.631" ry="23.166"/>
			<ellipse fill="#00405B" cx="-2628.962" cy="675.334" rx="35.667" ry="28"/>
			<ellipse fill="#7DC9CA" cx="-2672.391" cy="695.835" rx="26.333" ry="19.167"/>
			<ellipse fill="#009FE3" cx="-2622.961" cy="699.334" rx="31.5" ry="24"/>
			<path fill="#00405B" d="M-2650.821,770h9.526v-33.588c-3.007,0.61-6.203,0.982-9.526,1.071V770z"/>
			<path fill="#00405B" d="M-2652.392,697.549c-18.777,0-34,8.944-34,19.979s15.223,19.979,34,19.979c0.526,0,1.05-0.01,1.57-0.023
				c3.323-0.089,6.52-0.461,9.526-1.071c13.327-2.704,22.903-10.135,22.903-18.885
				C-2618.392,706.493-2633.615,697.549-2652.392,697.549z"/>
		</g>
		<g>
			<ellipse fill="#009FE3" cx="-1566.183" cy="516.261" rx="93.415" ry="59.077"/>
			<ellipse fill="#00405B" cx="-1481.696" cy="528.586" rx="90.957" ry="71.405"/>
			<ellipse fill="#7DC9CA" cx="-1592.444" cy="580.866" rx="67.153" ry="48.879"/>
			<path fill="#009FE3" d="M-1546.723,589.79c0-33.803,35.966-61.204,80.33-61.204c44.369,0,80.33,27.401,80.33,61.204
				c0,33.802-35.961,61.204-80.33,61.204C-1510.757,650.994-1546.723,623.592-1546.723,589.79z"/>
			<path fill="#00405B" d="M-1537.438,770h24.291v-85.654c-7.665,1.556-15.819,2.505-24.291,2.731V770z"/>
			<path fill="#00405B" d="M-1541.443,585.237c-47.885,0-86.706,22.81-86.706,50.948c0,28.14,38.821,50.951,86.706,50.951
				c1.34,0,2.675-0.024,4.005-0.06c8.472-0.227,16.626-1.176,24.291-2.731c33.989-6.896,58.41-25.846,58.41-48.16
				C-1454.737,608.047-1493.563,585.237-1541.443,585.237z"/>
		</g>
		<g>
			<rect x="-2235.006" y="712.669" fill="#00405B" width="8.669" height="57.331"/>
			<ellipse fill="#7DC9CA" cx="-2230.671" cy="547.836" rx="19.662" ry="61.501"/>
			<ellipse fill="#00405B" cx="-2216.339" cy="639.836" rx="22.25" ry="47.166"/>
			<ellipse fill="#7DC9CA" cx="-2245.005" cy="647.669" rx="21.492" ry="54.166"/>
			<ellipse fill="#00405B" cx="-2230.672" cy="691.669" rx="21.875" ry="52.667"/>
			<ellipse fill="#009FE3" cx="-2223.255" cy="602.336" rx="18.25" ry="51.334"/>
			<ellipse fill="#3363AC" cx="-2212.588" cy="676.337" rx="12.833" ry="46.406"/>
		</g>
		<g>
			<rect x="-1950.254" y="712.669" fill="#00405B" width="8.669" height="57.331"/>
			<ellipse fill="#7DC9CA" cx="-1946.298" cy="319.67" rx="39.323" ry="123.002"/>
			<ellipse fill="#00405B" cx="-1917.633" cy="503.67" rx="44.5" ry="94.332"/>
			<ellipse fill="#7DC9CA" cx="-1974.965" cy="519.336" rx="42.984" ry="108.332"/>
			<ellipse fill="#00405B" cx="-1946.299" cy="607.336" rx="43.75" ry="105.334"/>
			<ellipse fill="#009FE3" cx="-1931.465" cy="428.67" rx="36.5" ry="102.668"/>
			<ellipse fill="#3363AC" cx="-1910.132" cy="576.672" rx="25.667" ry="92.813"/>
		</g>
	</g>
	<g id="Hot-air-balloon">
		<g>

				<rect x="-1604.291" y="212.8" transform="matrix(0.9173 0.3982 -0.3982 0.9173 -22.9335 661.436)" fill="#00405B" width="0.5" height="125.399"/>

				<rect x="-1767.349" y="275.25" transform="matrix(0.3852 0.9228 -0.9228 0.3852 -794.0424 1742.8605)" fill="#7DC9CA" width="124.615" height="0.499"/>
			<rect x="-1654.791" y="217.998" fill="#3363AC" width="0.5" height="115.004"/>
			<path fill="#7DC9CA" d="M-1654.041,73c-109.5,0-108.5,70-75,145s33.578,75,75,75V73z"/>
			<path fill="#00405B" d="M-1654.041,73c110,0,108.5,70,75,145s-33,75-75,75V73z"/>
			<path fill="#3363AC" d="M-1654.041,73c0,0,125.48-8.667,0,220V73z"/>
			<path fill="#F6F6F6" d="M-1654.041,73c0,0-125.48-8.667,0,220V73z"/>
			<path fill="#7DC9CA" d="M-1681.041,333c0,0,0,36,10,36c5,0,10.5,0,16,0v-36H-1681.041z"/>
			<path fill="#3363AC" d="M-1629.041,333h-26v36c5.5,0,11,0,16,0C-1629.041,369-1629.041,333-1629.041,333z"/>
			<path opacity="0.25" fill="#FFFFFF" d="M-1658.748,73.047c-104.752,1.995-103.306,71.044-70.293,144.953
				c6.104,13.667,11.096,24.833,15.433,33.972l25.415-29.427C-1743.453,87.299-1677.524,74.138-1658.748,73.047z"/>
			<path opacity="0.25" fill="#FFFFFF" d="M-1599.339,119.661l21.712-25.141c-14.137-12.925-37.136-20.821-71.711-21.473
				C-1637.239,73.749-1605.545,79.467-1599.339,119.661z"/>
			<path opacity="0.25" fill="#FFFFFF" d="M-1599.339,119.661c-6.206-40.194-37.9-45.912-49.999-46.613
				c-1.546-0.029-3.11-0.047-4.703-0.047v110L-1599.339,119.661z"/>
			<path opacity="0.25" fill="#FFFFFF" d="M-1688.193,222.545l34.152-39.545V73c-1.594,0-3.16,0.018-4.707,0.047
				C-1677.524,74.138-1743.453,87.299-1688.193,222.545z"/>
		</g>
	</g>
	<g id="Light">
		<polygon opacity="0.25" fill="#FFFFFF" points="-2755.041,-5 -1465.041,805 -1565.041,805 -2755.041,95 		"/>
	</g>
	<g id="Cars">
		<g>
			<polygon fill="#010202" points="-2062.041,785 -2152.041,785 -2142.041,780 -2072.041,780 			"/>
			<polygon fill="#7DC9CA" points="-2108.041,744 -2162.041,762 -2052.041,762 -2066.041,744 			"/>
			<path fill="#00405B" d="M-2162.041,762l10,17h6.5c0-4.143,3.358-7.5,7.5-7.5s7.5,3.357,7.5,7.5h51c0-4.143,3.357-7.5,7.5-7.5
				s7.5,3.357,7.5,7.5h2.5l10-17H-2162.041z"/>
			<circle fill="#009FE3" cx="-2138.041" cy="779" r="6.5"/>
			<circle fill="#009FE3" cx="-2072.041" cy="779" r="6.5"/>
			<polygon opacity="0.25" fill="#3363AC" points="-2108.041,744 -2108.041,779 -2066.041,744 			"/>
		</g>
		<g>
			<polygon fill="#010202" points="-2292.041,787 -2393.041,787 -2383.041,782 -2302.041,782 			"/>
			<polygon fill="#7DC9CA" points="-2399.041,746 -2403.041,764 -2283.041,764 -2307.041,746 			"/>
			<path fill="#00405B" d="M-2403.041,764l10,17h6.5c0-4.143,3.358-7.5,7.5-7.5s7.5,3.357,7.5,7.5h51c0-4.143,3.357-7.5,7.5-7.5
				s7.5,3.357,7.5,7.5h12.5l10-17H-2403.041z"/>
			<circle fill="#009FE3" cx="-2379.041" cy="781" r="6.5"/>
			<circle fill="#009FE3" cx="-2313.041" cy="781" r="6.5"/>
			<polygon opacity="0.25" fill="#3363AC" points="-2349.041,746 -2349.041,781 -2399.041,746 			"/>
		</g>
		<g>
			<polygon fill="#010202" points="-1636.041,787 -1757.041,787 -1747.041,782 -1646.041,782 			"/>
			<polygon fill="#7DC9CA" points="-1762.041,726 -1767.041,764 -1627.041,764 -1651.041,726 			"/>
			<path fill="#00405B" d="M-1767.041,764l10,17h16.5c0-4.143,3.357-7.5,7.5-7.5s7.5,3.357,7.5,7.5h61c0-4.143,3.357-7.5,7.5-7.5
				s7.5,3.357,7.5,7.5h12.5l10-17H-1767.041z"/>
			<circle fill="#009FE3" cx="-1733.041" cy="781" r="6.5"/>
			<circle fill="#009FE3" cx="-1657.041" cy="781" r="6.5"/>
			<polygon opacity="0.25" fill="#3363AC" points="-1697.041,726 -1627.041,764 -1767.041,764 			"/>
		</g>
	</g>
	<g id="Birds">
		<g>
			<polygon fill="#00405B" points="-1911.188,88.782 -1949.041,140.345 -1986.895,88.782 -1949.041,107.563 			"/>
			<polygon fill="#009FE3" points="-1911.188,88.782 -1949.041,140.345 -1986.895,88.782 -1949.041,121.563 			"/>
			<polygon fill="#3363AC" points="-1949.041,107.782 -1949.041,121.782 -1911.188,88.782 			"/>
		</g>
		<g>
			<polygon fill="#00405B" points="-2495.114,284.672 -2514.041,310.454 -2532.968,284.672 -2514.041,294.063 			"/>
			<polygon fill="#009FE3" points="-2495.114,284.672 -2514.041,310.454 -2532.968,284.672 -2514.041,301.063 			"/>
			<polygon fill="#3363AC" points="-2514.041,294.172 -2514.041,301.172 -2495.114,284.672 			"/>
		</g>
		<g>
			<polygon fill="#00405B" points="-1501.455,136.672 -1513.041,152.454 -1524.627,136.672 -1513.041,142.421 			"/>
			<polygon fill="#009FE3" points="-1501.455,136.672 -1513.041,152.454 -1524.627,136.672 -1513.041,146.706 			"/>
			<polygon fill="#3363AC" points="-1513.041,142.487 -1513.041,146.772 -1501.455,136.672 			"/>
		</g>
	</g>
</g>
<g id="_x32_">
	<g>
		<polygon fill="none" stroke="#7DC9CA" stroke-miterlimit="10" points="-955.015,331.5 -843.677,215.17 -792.363,331.5 		"/>
	</g>
	<polygon fill="#7DC9CA" points="-970.063,506 -780.229,463.441 -590.396,506 	"/>
	<polygon fill="#7DC9CA" points="-1117.534,299.764 -1017.556,249.046 -1068.273,349.025 	"/>
	<polygon fill="#7DC9CA" points="-693.041,251.887 -645.203,333.213 -693.041,414.539 	"/>
	<polygon fill="#7DC9CA" points="-728.665,99.658 -693.209,250.125 -843.677,214.67 	"/>
	<polygon fill="#7DC9CA" points="-792.363,331 -873.688,394.478 -955.015,331 	"/>
	<polygon fill="#7DC9CA" points="-895.742,147.805 -1155.997,293.047 -1010.752,32.79 	"/>
	<polygon fill="#7DC9CA" points="-445.041,311.998 -507.773,217.671 -445.041,123.346 	"/>
	<polygon fill="#7DC9CA" points="-1237.041,732 -1228.031,540.328 -1036.361,531.32 	"/>
	<polygon fill="#7DC9CA" points="-312.719,232 -259.399,175.268 -206.081,232 	"/>
	<polygon fill="#7DC9CA" points="-514.348,361.178 -445.341,367.576 -438.944,436.582 	"/>
	<polygon fill="#7DC9CA" points="-874.041,524.581 -784.041,651.064 -874.041,777.547 	"/>
	<polygon fill="#7DC9CA" points="-1157.521,-60.827 -1143.198,214.908 -1418.932,200.584 	"/>
	<polygon fill="#7DC9CA" points="-396.52,19 -532.647,56.944 -668.774,19 	"/>
	<polygon fill="none" stroke="#7DC9CA" stroke-miterlimit="10" points="-1237.041,732 -874.041,777.547 -1036.361,531.32 	"/>
	<polygon fill="none" stroke="#7DC9CA" stroke-miterlimit="10" points="-1117.534,299.764 -1228.031,540.328 -1036.361,531.32 	"/>
	<polygon fill="none" stroke="#7DC9CA" stroke-miterlimit="10" points="-955.015,331 -895.742,147.805 -843.677,214.67 	"/>
	<polygon fill="#00405B" points="-1017.556,249.046 -1068.273,349.025 -955.015,331 	"/>
	<polygon fill="#009FE3" points="-792.363,331 -693.209,250.125 -843.677,214.67 	"/>
	<polygon fill="#3363AC" points="-874.041,524.581 -590.396,506 -784.041,651.064 	"/>
	<polygon fill="none" stroke="#7DC9CA" stroke-miterlimit="10" points="-645.203,333.213 -507.773,217.671 -693.209,250.125 	"/>
	<polygon fill="none" stroke="#7DC9CA" stroke-miterlimit="10" points="-532.647,56.944 -693.209,250.125 -728.665,99.658 	"/>
	<polygon fill="none" stroke="#7DC9CA" stroke-miterlimit="10" points="-445.041,123.346 -259.399,175.268 -312.719,232 	"/>
	<polygon fill="none" stroke="#7DC9CA" stroke-miterlimit="10" points="-514.348,361.178 -590.396,506 -438.944,436.582 	"/>
	<polygon fill="#009FE3" points="-1010.752,32.79 -668.774,19 -895.742,147.805 	"/>
	<polygon fill="#00405B" points="-1418.932,200.584 -1155.997,293.047 -1143.198,214.908 	"/>
	<polygon fill="none" stroke="#7DC9CA" stroke-miterlimit="10" points="-1068.273,349.025 -970.063,506 -873.688,394.478 	"/>
	<polygon fill="#3363AC" points="-955.015,331 -873.688,394.478 -1068.273,349.025 	"/>
	<polygon fill="#009FE3" points="-1017.556,249.046 -1155.997,293.047 -1117.534,299.764 	"/>
	<polygon fill="#00405B" points="-895.742,147.805 -1155.997,293.047 -1017.556,249.046 	"/>
	<polygon fill="#009FE3" points="-955.015,331 -1017.556,249.046 -895.742,147.805 	"/>
	<polygon fill="#3363AC" points="-1237.041,732 -1418.932,200.584 -1228.031,540.328 	"/>
	<polygon fill="none" stroke="#7DC9CA" stroke-miterlimit="10" points="-1036.361,531.32 -970.063,506 -1068.273,349.025 	"/>
	<polygon fill="#00405B" points="-1117.534,299.764 -1068.273,349.025 -1036.361,531.32 	"/>
	<polygon fill="#3363AC" points="-1237.041,732 -1380.021,805 -874.041,777.547 	"/>
	<polygon fill="none" stroke="#7DC9CA" stroke-miterlimit="10" points="-780.229,463.441 -693.209,250.125 -693.041,414.539 	"/>
	<polygon fill="none" stroke="#7DC9CA" stroke-miterlimit="10" points="-970.063,506 -873.688,394.478 -780.229,463.441 	"/>
	<polygon fill="#00405B" points="-693.209,250.125 -873.688,394.478 -780.229,463.441 	"/>
	<polygon fill="#3363AC" points="-728.665,99.658 -895.742,147.805 -843.677,214.67 	"/>
	<polygon fill="none" stroke="#7DC9CA" stroke-miterlimit="10" points="-668.774,19 -532.647,56.944 -728.665,99.658 	"/>
	<polygon fill="#00405B" points="-895.742,147.805 -668.774,19 -728.665,99.658 	"/>
	<polygon fill="none" stroke="#7DC9CA" stroke-miterlimit="10" points="-693.041,414.539 -590.396,506 -780.229,463.441 	"/>
	<polygon fill="none" stroke="#7DC9CA" stroke-miterlimit="10" points="-645.203,333.213 -445.041,311.998 -507.773,217.671 	"/>
	<polygon fill="#00405B" points="-532.647,56.944 -507.773,217.671 -693.209,250.125 	"/>
	<polygon fill="none" stroke="#7DC9CA" stroke-miterlimit="10" points="-445.041,123.346 -532.647,56.944 -396.52,19 	"/>
	<polygon fill="#009FE3" points="-507.773,217.671 -532.647,56.944 -445.041,123.346 	"/>
	<polygon fill="#3363AC" points="-645.203,333.213 -590.396,506 -693.041,414.539 	"/>
	<polygon fill="#3363AC" points="-1010.752,32.79 -1155.997,293.047 -1143.198,214.908 	"/>
	<polygon fill="#009FE3" points="-1157.521,-60.827 -1380.021,-5 -1418.932,200.584 	"/>
	<polygon fill="#00405B" points="-1010.752,32.79 -1157.521,-60.827 -1143.198,214.908 	"/>
	<polygon fill="#7DC9CA" points="-1237.061,732 -1380.041,466.292 -1380.041,805 	"/>
	<polygon fill="#009FE3" points="-1418.932,200.584 -1379.541,466.292 -1236.561,732 	"/>
	<polygon fill="#00405B" points="-875.041,524.581 -1037.361,531.32 -875.041,777.547 	"/>
	<polygon fill="#3363AC" points="-970.063,506 -1036.861,531.32 -874.541,524.581 	"/>
	<polygon fill="none" stroke="#7DC9CA" stroke-miterlimit="10" points="-590.041,506.5 -970.041,506.5 -874.541,524.581 	"/>
	<polygon fill="#009FE3" points="-514.348,361.178 -645.203,333.213 -590.041,506.5 	"/>
	<polygon fill="none" stroke="#7DC9CA" stroke-miterlimit="10" points="-445.041,311.998 -514.348,361.178 -645.203,333.213 	"/>
	<polygon fill="#3363AC" points="-1157.521,-60.827 -1010.752,32.79 -668.774,19 	"/>
	<polygon fill="#3363AC" points="-446.041,311.998 -313.719,232 -446.041,123.346 	"/>
	<polygon fill="#00405B" points="-445.341,367.576 -445.541,311.998 -514.348,361.178 	"/>
	<polygon fill="none" stroke="#7DC9CA" stroke-miterlimit="10" points="-206.041,232.5 -313.041,232.5 -445.541,311.998 	"/>
	<polygon fill="#009FE3" points="-784.041,651.064 -590.396,805 -874.541,777.547 	"/>
	<polygon fill="#00405B" points="-396.52,19 -259.399,175.268 -445.541,123.346 	"/>
	<polygon fill="#00405B" points="-438.944,436.582 -590.041,506.5 -590.396,805 	"/>
	<polygon fill="none" stroke="#7DC9CA" stroke-miterlimit="10" points="-669.041,19.5 -396.041,19.5 -1157.521,-60.827 	"/>
	<polygon fill="#00405B" points="-874.791,778.547 -590.396,806 -1380.041,806 	"/>
	<polygon fill="none" stroke="#7DC9CA" stroke-miterlimit="10" points="-438.944,436.582 -445.341,367.576 -313.719,388.091 	"/>
	<polygon fill="none" stroke="#7DC9CA" stroke-miterlimit="10" points="-206.041,232.5 -313.719,388.091 -445.541,311.998 	"/>
	<polygon fill="none" stroke="#7DC9CA" stroke-miterlimit="10" points="-445.341,367.576 -445.541,311.998 -313.719,388.091 	"/>
	<polygon fill="none" stroke="#7DC9CA" stroke-miterlimit="10" points="-438.541,437 -438.541,728 -590.396,805.5 	"/>
	<polygon fill="none" stroke="#7DC9CA" stroke-miterlimit="10" points="-396.041,19.5 -285.007,59.329 -259.399,175.268 	"/>
	<polygon fill="none" stroke="#7DC9CA" stroke-miterlimit="10" points="-313.719,388.091 -142.515,578.532 -438.541,437 	"/>
	<polygon fill="none" stroke="#7DC9CA" stroke-miterlimit="10" points="-438.363,728 -312.719,805.5 -590.041,805.5 	"/>
	<polygon fill="none" stroke="#7DC9CA" stroke-miterlimit="10" points="-438.541,437 -438.363,728 -313.719,654.434 	"/>
	<polygon fill="none" stroke="#7DC9CA" stroke-miterlimit="10" points="-142.515,578.532 -312.719,563.582 -438.541,437 	"/>
	<polygon fill="none" stroke="#7DC9CA" stroke-miterlimit="10" points="-313.719,654.434 -312.719,563.582 -438.541,437 	"/>
	<polygon fill="none" stroke="#7DC9CA" stroke-miterlimit="10" points="-438.363,728 -312.719,805.5 -313.719,654.434 	"/>
	<polygon fill="none" stroke="#7DC9CA" stroke-miterlimit="10" points="-312.719,563.582 -142.515,578.532 -313.719,654.434 	"/>
	<polygon fill="none" stroke="#7DC9CA" stroke-miterlimit="10" points="-313.719,388.091 -206.041,232.5 -90.021,367.576 	"/>
	<polygon fill="none" stroke="#7DC9CA" stroke-miterlimit="10" points="-142.515,578.532 -313.719,388.091 -90.021,367.576 	"/>
	<polygon fill="none" stroke="#7DC9CA" stroke-miterlimit="10" points="-285.007,59.329 -90.021,-5 -259.399,175.268 	"/>
	<polygon fill="none" stroke="#7DC9CA" stroke-miterlimit="10" points="-206.041,232.5 -90.021,174.892 -259.399,175.268 	"/>
	<polygon fill="none" stroke="#7DC9CA" stroke-miterlimit="10" points="-89.541,-5 -258.92,175.268 -89.541,174.892 	"/>
	<polygon fill="none" stroke="#7DC9CA" stroke-miterlimit="10" points="-206.041,232.5 -90.021,367.576 -89.541,174.892 	"/>
	<polygon fill="none" stroke="#7DC9CA" stroke-miterlimit="10" points="-142.041,578.5 -90.041,578.5 -90.021,367.576 	"/>
	<polygon fill="none" stroke="#7DC9CA" stroke-miterlimit="10" points="-313.719,654.434 -90.021,805.5 -142.041,578.5 	"/>
	<polygon fill="none" stroke="#7DC9CA" stroke-miterlimit="10" points="-312.719,805.5 -313.719,654.434 -90.021,805.5 	"/>
	<polygon fill="none" stroke="#7DC9CA" stroke-miterlimit="10" points="-142.041,578.5 -90.041,578.5 -90.021,805.5 	"/>
	<polygon fill="#7DC9CA" points="-1418.932,200.584 -1155.997,293.047 -1228.031,540.328 	"/>
	<polygon fill="#00405B" points="-1117.534,299.764 -1155.997,293.047 -1228.031,540.328 	"/>
	<polygon fill="#7DC9CA" points="-285.007,59.329 -89.541,-5 -396.041,19.5 	"/>
	<polygon fill="#009FE3" points="-1157.521,-60.827 -89.541,-5 -396.041,19.5 	"/>
</g>
<g id="_x33_">
	<rect x="-5.041" y="-5" fill="#F2F2F2" width="1290" height="810"/>
	<polygon fill="none" points="-6.041,806 -6.041,-5 1284,400.5 	"/>
	<polygon fill="#CDCCCC" points="-4.541,-5 244.959,-4.5 254.992,76.894 	"/>
	<polygon points="-5.541,806 254.992,635 46.959,563.582 	"/>
	<polygon points="-5,232 254.992,76.894 30.959,85.134 	"/>
	<polygon fill="#FFFFFF" points="244.959,-4.5 363.008,110.846 254.992,76.894 	"/>
	<polygon fill="#7DC9CA" points="-5.041,232 418.918,367.576 -5.041,350.045 	"/>
	<polygon fill="#FFFFFF" points="-5.541,808 408.486,677.858 254.992,808 	"/>
	<polygon fill="#7DC9CA" points="254.992,635 207.438,739.054 -5.541,806.5 	"/>
	<polygon fill="#00405B" points="-4.541,350.045 254.992,635 419.418,367.576 	"/>
	<polygon fill="#009FE3" points="46.959,563.582 -4.541,350.045 254.992,635 	"/>
	<polygon fill="#00405B" points="-4.541,350.045 46.959,563.582 -5.541,806.5 	"/>
	<polygon fill="#009FE3" points="-4.541,232 332.959,271.234 419.418,367.576 	"/>
	<polygon fill="#3363AC" points="244.959,-4.5 380.959,70 363.008,110.846 	"/>
	<polygon fill="#7DC9CA" points="254.992,76.894 303.983,186 363.008,110.846 	"/>
	<polygon fill="#3363AC" points="-4.541,232 303.983,186 254.992,76.894 	"/>
	<polygon fill="#FFFFFF" points="331.5,271.446 417.959,181 417.959,368 	"/>
	<polygon fill="#00405B" points="303.983,186 363.008,110.846 419.459,181 	"/>
	<polygon fill="none" stroke="#00405B" stroke-miterlimit="10" points="408.486,676.358 545.959,731 619.211,609.621 	"/>
	<polygon fill="#3363AC" points="254.992,635 408.486,603 207.438,739.054 	"/>
	<polygon fill="#7DC9CA" points="419.459,368 442.959,516 254.992,635 	"/>
	<polygon fill="#00405B" points="407.959,603 618.684,609.621 407.959,676.358 	"/>
	<polygon fill="#009FE3" points="206.938,738.875 407.959,603 407.959,676 	"/>
	<polygon fill="#009FE3" points="442.959,516 570.959,541 619.184,609.621 	"/>
	<polygon points="419.459,181 531.071,163.674 594.959,340 	"/>
	<polygon fill="#7DC9CA" points="380.959,70 496.959,36.197 507.209,96 	"/>
	<polygon fill="#7DC9CA" points="363.008,110.846 573.959,113.75 531.071,163.674 	"/>
	<polygon points="380.959,70 363.008,110.846 507.209,96 	"/>
	<polygon fill="#CDCCCC" points="442.959,516 619.211,392 724.959,492.522 	"/>
	<polygon fill="#FFFFFF" points="570.959,541 751.959,551 619.184,609.621 	"/>
	<polygon fill="#7DC9CA" points="724.959,492.522 619.211,392 801.959,318 	"/>
	<polygon fill="#3363AC" points="594.459,340 418.959,368 418.959,181 	"/>
	<polygon fill="#FFFFFF" points="442.959,516 419.459,368 594.959,340 	"/>
	<polygon points="531.071,163.674 573.959,113.75 640,197.914 	"/>
	<polygon fill="#FFFFFF" points="496.959,36.197 507.209,96 573.959,113.75 	"/>
	<polygon fill="#009FE3" points="363.008,110.846 507.209,96 573.959,113.75 	"/>
	<polygon fill="#009FE3" points="594.959,340 640,197.914 531.071,163.674 	"/>
	<polygon fill="#00405B" points="619.211,392 594.959,340 442.959,516 	"/>
	<polygon fill="#7DC9CA" points="254.992,806.5 419.418,761 408.459,676 	"/>
	<polygon fill="#7DC9CA" points="545.959,731 408.459,676 436.959,720.75 	"/>
	<polygon fill="#CDCCCC" points="801.959,318 757.338,234.796 837.01,259.84 	"/>
	<polygon fill="#7DC9CA" points="640,197.914 701.959,104.875 735.959,169 	"/>
	<polygon points="619.184,609.621 668.959,644 545.959,731 	"/>
	<polygon fill="#7DC9CA" points="751.959,551 858.461,534.417 619.184,609.621 	"/>
	<polygon points="724.959,492.522 900.959,443 823.959,516 	"/>
	<polygon points="801.959,318 963.959,340 882.959,381 	"/>
	<polygon fill="#3363AC" points="757.338,234.796 785.959,186 837.01,259.84 	"/>
	<polygon fill="#FFFFFF" points="735.959,169 757.338,234.796 640,197.914 	"/>
	<polygon fill="#CDCCCC" points="858.461,534.417 735.959,655.078 619.184,609.621 	"/>
	<polygon fill="#3363AC" points="419.418,761 436.959,720.75 408.459,676 	"/>
	<polygon fill="#009FE3" points="668.959,644 735.959,655.078 619.184,609.621 	"/>
	<polygon fill="#FFFFFF" points="837.01,259.84 895.434,186 910.434,222.92 	"/>
	<polygon fill="#7DC9CA" points="784.959,186 828.438,155.832 784.959,125.605 	"/>
	<polygon fill="#CDCCCC" points="573.959,113.75 601.449,36.197 687.979,25.11 	"/>
	<polygon points="545.959,731 668.959,761 535.459,805 	"/>
	<polygon fill="#3363AC" points="900.959,443 963.959,340 1072.425,415.09 	"/>
	<polygon fill="#009FE3" points="882.959,381 900.959,443 963.959,340 	"/>
	<polygon fill="#CDCCCC" points="801.959,318 882.959,381 900.959,443 	"/>
	<polygon fill="#FFFFFF" points="724.959,492.522 801.959,318 900.959,443 	"/>
	<polygon fill="#CDCCCC" points="1072.425,415.09 1108.424,368 1171.42,405.262 	"/>
	<polygon fill="#FFFFFF" points="900.959,443 940.432,479.5 823.959,516 	"/>
	<polygon fill="#009FE3" points="895.434,186 851.459,169 858.461,191.601 	"/>
	<polygon fill="#009FE3" points="837.01,259.84 974.929,274.5 1036.732,322.619 	"/>
	<polygon fill="#00405B" points="857.988,534.667 939.959,655.078 939.959,480 	"/>
	<polygon fill="#7DC9CA" points="735.959,655.078 797.174,710.577 724.959,676.358 	"/>
	<polygon points="974.929,274.5 963.959,232 1022.927,253.25 	"/>
	<polygon fill="#7DC9CA" points="303.983,186 333,271.446 419.459,181 	"/>
	<polygon fill="#3363AC" points="668.959,761 738.822,806.5 535.459,805 	"/>
	<polygon fill="#00405B" points="496.959,36.197 244.959,-4.5 380.959,70 	"/>
	<polygon fill="#FFFFFF" points="940.459,655.078 882.195,609.621 858.488,534.667 	"/>
	<polygon fill="#3363AC" points="751.959,551 724.959,492.522 823.959,516 	"/>
	<polygon fill="#7DC9CA" points="1072.425,415.09 940.459,480 900.959,443 	"/>
	<polygon fill="#009FE3" points="1171.42,405.262 1237.584,415.09 1284,400.5 	"/>
	<polygon fill="#00405B" points="701.959,104.875 661.459,90.423 619.184,131.447 	"/>
	<polygon fill="#3363AC" points="495.959,37 555.959,37 495.959,-5 	"/>
	<polygon fill="#FFFFFF" points="784.459,125.44 723.959,90.423 723.959,59 	"/>
	<polygon fill="#FFFFFF" points="668.959,644 661.459,720.75 545.959,731 	"/>
	<polygon fill="#FFFFFF" points="1036.732,322.619 974.929,274.5 1022.927,253.25 	"/>
	<polygon fill="#FFFFFF" points="1108.424,368 1187.92,322.619 963.959,340 	"/>
	<polygon fill="#7DC9CA" points="1022.927,253.25 1121.922,291.229 1036.732,322.619 	"/>
	<polygon fill="#00405B" points="757.338,234.796 687.979,318 594.959,340 	"/>
	<polygon fill="#00405B" points="-4.541,-5 30.959,85.134 254.992,76.894 	"/>
	<polygon fill="#7DC9CA" points="-5.041,232 30.459,85.134 -5.041,-5 	"/>
	<polygon points="724.959,676.358 661.459,720.75 710.585,703.5 	"/>
	<polygon fill="#00405B" points="1072.425,415.09 1133.922,428 1064.146,469.606 	"/>
	<polygon fill="#00405B" points="797.174,710.577 668.959,761 710.585,703.5 	"/>
	<polygon fill="#00405B" points="687.979,25.11 601.449,36.197 495.959,-5 	"/>
	<polygon fill="#00405B" points="1187.959,322.619 1252.455,271.446 1187.959,291.229 	"/>
	<polygon fill="#00405B" points="1022.927,253.25 1005.83,163.674 1046.926,234.796 	"/>
	<polygon fill="#00405B" points="784.459,125.44 851.459,110.846 837.01,137.26 	"/>
	<polygon fill="#00405B" points="1237.584,415.09 1285,454 1261.292,479.5 	"/>
</g>
</svg>
