<?xml version="1.0" encoding="utf-8"?>
<!-- Generator: Adobe Illustrator 16.0.0, SVG Export Plug-In . SVG Version: 6.00 Build 0)  -->
<!DOCTYPE svg PUBLIC "-//W3C//DTD SVG 1.1//EN" "http://www.w3.org/Graphics/SVG/1.1/DTD/svg11.dtd">
<svg version="1.1" id="Calque_1" xmlns="http://www.w3.org/2000/svg" xmlns:xlink="http://www.w3.org/1999/xlink" x="0px" y="0px"
	 width="141.73px" height="141.732px" viewBox="0 0 141.73 141.732" enable-background="new 0 0 141.73 141.732"
	 xml:space="preserve">
<path fill="#009FE3" d="M141.73,70.866C141.73,31.729,110.002,0,70.864,0S-0.002,31.729-0.002,70.866
	c0,0.026,0.002,0.052,0.002,0.077v-0.077H141.73z"/>
<path fill="#002D41" d="M70.864,141.732c39.138,0,70.866-31.729,70.866-70.866H0v0.077C0.042,110.046,31.752,141.732,70.864,141.732
	z"/>
<circle fill="none" cx="70.864" cy="70.866" r="70.866"/>
<circle fill="#3363AC" cx="70.865" cy="96.533" r="17.667"/>
<circle fill="#FFFFFF" cx="70.865" cy="91.533" r="17.667"/>
<path fill="none" d="M81.199,37.083c0,9.207,2.171,34.268,0,39.38c-1.481,3.486-6.144-11.34-10.333-11.34
	c-3.85,0-3.038,25.667-10.334,25.667s0-48.667,0-53.707c0-15.486,4.627-28.04,10.334-28.04S81.199,21.597,81.199,37.083z"/>
<rect x="60.531" y="1.169" fill="#FFFFFF" width="20.668" height="35.914"/>
<path fill="#002D41" d="M83.745,34.79H57.986V1.169c0,0,4.455-1.169,12.879-1.169s12.88,1.169,12.88,1.169V34.79z"/>
<path fill="none" d="M81.199,37.083c0,0,7.333,11.862,7.333,28.04c0,11.923-2.611,25.366-7.333,25.667
	c-1.685,0.107-9.195-11.322-9.195-11.322h-2.277c0,0-16.528,1.833-16.528-14.345s7.333-28.04,7.333-28.04H81.199z"/>
<path fill="#3363AC" d="M81.199,37.083c0,0,11.965,13.772,11.965,33.783S60.484,37.083,81.199,37.083z"/>
<path fill="#7DC9CA" d="M81.199,37.083H60.531c0,0-7.333,11.862-7.333,28.04s16.528,14.345,16.528,14.345h2.277h9.195
	c0,0,0,1.401,0,11.322c4.722-0.301,7.333-13.744,7.333-25.667C88.532,48.945,81.199,37.083,81.199,37.083z"/>
<path fill="#3363AC" d="M72.004,79.468c0,0,7.511,11.43,9.195,11.322c0-9.921,0-11.322,0-11.322H72.004z"/>
</svg>
