<svg xmlns="http://www.w3.org/2000/svg" width="150" height="150"><g transform="translate(-45.367 -267.164) scale(.9663)"><circle r="75" cy="354.352" cx="124.043" fill="#ee7246"/><path d="M163.425 407.887c2.932-.314 5.216-2.582 5.216-5.365v-88.75c0-2.785-2.283-5.052-5.215-5.366v-.063H101.08c-3.256 0-5.896 2.43-5.896 5.428v88.752c0 2.998 2.64 5.428 5.896 5.428h62.345v-.063z" fill="#ea542d"/><path d="M153.986 404.187c2.786-.314 4.956-2.582 4.956-5.365v-88.75c0-2.785-2.17-5.052-4.956-5.366v-.063h-59.24c-3.094 0-5.602 2.43-5.602 5.428v88.752c0 2.998 2.508 5.428 5.602 5.428h59.24v-.063z" fill="#fff"/><path fill="#006d7a" d="M95.793 311h56.5v27.21h-56.5z"/><path fill="#b5daef" d="M100.5 319.25H148v10.497h-47.5zM95.793 341.778h9v8.617h-9zM107.773 341.778h9v8.617h-9zM119.542 341.778h9v8.617h-9zM131.522 341.778h9v8.617h-9zM95.985 353.646h8.617v9h-8.617zM95.985 365.626h8.617v9h-8.617zM95.985 377.395h8.617v9h-8.617zM95.985 389.375h8.617v9h-8.617z"/><path fill="#006d7a" d="M107.97 353.48h8.618v9h-8.617zM107.97 365.46h8.618v9h-8.617zM107.97 377.23h8.618v9h-8.617zM107.97 389.208h8.618v9h-8.617zM119.932 353.48h8.617v9h-8.618zM119.932 365.46h8.617v9h-8.618zM119.932 377.23h8.617v9h-8.618zM119.927 389.208h8.617v9h-8.617zM131.912 353.48h8.617v9h-8.618zM131.912 365.46h8.617v9h-8.618zM131.912 377.23h8.617v9h-8.618zM131.906 389.375h8.617v9h-8.617z"/><path fill="#b5daef" d="M143.484 353.646h8.617v9h-8.616zM143.484 365.626h8.617v9h-8.616z"/><path fill="#006d7a" d="M143.484 377.395h8.617v20.98h-8.616z"/><path fill="#b5daef" d="M143.292 341.778h9v8.617h-9z"/><g fill="#034354"><path d="M124.25 324.04l.463.537.463-.537v-2.14l-.463-.54-.463.54M128.012 324.04l.463.537.463-.537v-2.14l-.463-.54-.463.54M125.58 324.22l-.538.462.538.463h2.14l.538-.463-.537-.463M125.58 320.653l-.538.463.538.464h2.14l.538-.464-.537-.463M124.25 327.437l.463.537.463-.537v-2.14l-.463-.54-.463.54M130.075 324.04l.464.537.462-.537v-2.14l-.463-.54-.465.54M131.406 324.22l-.538.462.538.463h2.14l.538-.463-.538-.463M131.406 327.692l-.538.463.538.463h2.14l.538-.463-.538-.463M131.406 320.653l-.538.463.538.464h2.14l.538-.464-.538-.463M130.075 327.437l.464.537.462-.537v-2.14l-.463-.54-.465.54M135.13 324.04l.462.537.463-.537v-2.14l-.463-.54-.463.54M138.89 324.04l.464.537.463-.537v-2.14l-.463-.54-.463.54M136.46 327.692l-.54.463.54.463h2.14l.537-.463-.537-.463M136.46 320.653l-.54.463.54.464h2.14l.537-.464-.537-.463M135.13 327.437l.462.537.463-.537v-2.14l-.463-.54-.463.54M138.89 327.437l.464.537.463-.537v-2.14l-.463-.54-.463.54M141.352 324.04l.463.537.464-.537v-2.14l-.465-.54-.463.54M145.114 324.04l.463.537.464-.537v-2.14l-.463-.54-.463.54M142.682 320.653l-.538.463.538.464h2.14l.54-.464-.54-.463M141.352 327.437l.463.537.464-.537v-2.14l-.465-.54-.463.54M145.114 327.437l.463.537.464-.537v-2.14l-.463-.54-.463.54"/></g></g></svg>