<?xml version="1.0" encoding="UTF-8" standalone="no"?>
<!-- Created with Inkscape (http://www.inkscape.org/) -->

<svg
   xmlns:dc="http://purl.org/dc/elements/1.1/"
   xmlns:cc="http://creativecommons.org/ns#"
   xmlns:rdf="http://www.w3.org/1999/02/22-rdf-syntax-ns#"
   xmlns:svg="http://www.w3.org/2000/svg"
   xmlns="http://www.w3.org/2000/svg"
   xmlns:sodipodi="http://sodipodi.sourceforge.net/DTD/sodipodi-0.dtd"
   xmlns:inkscape="http://www.inkscape.org/namespaces/inkscape"
   width="250"
   height="250"
   id="svg2"
   version="1.1"
   inkscape:version="0.48.4 r9939"
   sodipodi:docname="paperasse.svg">
  <defs
     id="defs4">
    <mask
       maskUnits="userSpaceOnUse"
       id="mask19546">
      <path
         transform="matrix(1.6575819,0,0,1.6575819,-537.05498,-3055.0104)"
         d="m 1304.1667,1602.5 a 153.33333,153.33333 0 1 1 -306.66665,0 153.33333,153.33333 0 1 1 306.66665,0 z"
         sodipodi:ry="153.33333"
         sodipodi:rx="153.33333"
         sodipodi:cy="1602.5"
         sodipodi:cx="1150.8334"
         id="path19548"
         style="fill:#c5d8e3;fill-opacity:1;stroke:none"
         sodipodi:type="arc" />
    </mask>
    <mask
       maskUnits="userSpaceOnUse"
       id="mask19546-4">
      <path
         transform="matrix(1.6575819,0,0,1.6575819,-537.05498,-3055.0104)"
         d="m 1304.1667,1602.5 a 153.33333,153.33333 0 1 1 -306.66665,0 153.33333,153.33333 0 1 1 306.66665,0 z"
         sodipodi:ry="153.33333"
         sodipodi:rx="153.33333"
         sodipodi:cy="1602.5"
         sodipodi:cx="1150.8334"
         id="path19548-5"
         style="fill:#c5d8e3;fill-opacity:1;stroke:none"
         sodipodi:type="arc" />
    </mask>
  </defs>
  <sodipodi:namedview
     id="base"
     pagecolor="#ffffff"
     bordercolor="#666666"
     borderopacity="1.0"
     inkscape:pageopacity="0.0"
     inkscape:pageshadow="2"
     inkscape:zoom="0.7"
     inkscape:cx="119.5187"
     inkscape:cy="46.778555"
     inkscape:document-units="px"
     inkscape:current-layer="g21310"
     showgrid="false"
     inkscape:window-width="1280"
     inkscape:window-height="748"
     inkscape:window-x="0"
     inkscape:window-y="0"
     inkscape:window-maximized="1" />
  <metadata
     id="metadata7">
    <rdf:RDF>
      <cc:Work
         rdf:about="">
        <dc:format>image/svg+xml</dc:format>
        <dc:type
           rdf:resource="http://purl.org/dc/dcmitype/StillImage" />
        <dc:title></dc:title>
      </cc:Work>
    </rdf:RDF>
  </metadata>
  <g
     inkscape:label="Layer 1"
     inkscape:groupmode="layer"
     id="layer1"
     transform="translate(0,-802.36218)">
    <g
       transform="translate(-955.18793,1505.6622)"
       id="g21310">
      <path
         sodipodi:type="arc"
         style="fill:#c5d8e3;fill-opacity:1;stroke:none"
         id="path18488-7"
         sodipodi:cx="1150.8334"
         sodipodi:cy="1602.5"
         sodipodi:rx="153.33333"
         sodipodi:ry="153.33333"
         d="m 1304.1667,1602.5 a 153.33333,153.33333 0 1 1 -306.66665,0 153.33333,153.33333 0 1 1 306.66665,0 z"
         transform="matrix(0.7785934,0,0,0.7785934,181.20084,-1822.2142)" />
      <g
         transform="matrix(1.6017383,0,0,1.6017383,685.75761,-982.0199)"
         id="g589-4-7">
        <g
           id="g591-4-1">
          <path
             id="path593-6-4"
             d="m 253.442,222.716 c 0,0 -1.635,-3.856 -8.138,-3.443 -6.503,0.413 -7.948,-0.516 -7.948,-0.516 l -6.297,0.516 v 1.032 l 5.987,-0.723 c 0,0 4.663,1.256 8.103,0.568 0,0 5.999,0.138 6.767,2.83 l 3.933,22.715 1.526,-0.264 -3.933,-22.715 z"
             inkscape:connector-curvature="0"
             style="fill:#454444" />
          <path
             id="path595-7-4"
             d="m 248.695,300.896 4.016,3.018 c 0,0 4.291,3.959 11.586,1.825 7.294,-2.133 58.736,-19.165 58.736,-19.165 0,0 1.242,-0.896 0,-1.857 -1.242,-0.96 -74.338,16.179 -74.338,16.179 z"
             inkscape:connector-curvature="0"
             style="fill:#cbc7ca" />
          <path
             id="path597-8-4"
             d="m 223.036,282.027 0.237,-0.235 29.669,22.296 c 0,0 2.044,1.974 8.798,0.436 4.903,-1.116 41.562,-13.242 61.292,-19.806 -8.954,-6.988 -26.747,-19.499 -48.74,-27.837 l -9.376,-15.69 -17.066,-1.927 -48.179,6.606 v 13.488 l -3.57,7.432 c 0,0 7.18,14.038 26.849,15.139 0,0 0.03,0.035 0.086,0.098 z"
             inkscape:connector-curvature="0"
             style="fill:#dcd9da" />
          <path
             id="path599-5-2"
             d="m 236.931,240.761 c 0,0 -4.84,-6.61 -5.356,-13.533 H 200.41 c 0,0 3.392,11.308 9.691,17.211 l 26.83,-3.678 z"
             inkscape:connector-curvature="0"
             style="fill:#ffffff" />
          <path
             id="path601-4-6"
             d="m 232,230.002 c -0.205,-0.909 -0.356,-1.838 -0.426,-2.774 H 200.41 c 0,0 2.404,8.011 6.921,14.068 l 24.669,-11.29 0,-0.004 z"
             inkscape:connector-curvature="0"
             style="fill:#c0bbc3" />
          <polygon
             id="polygon603-5-9"
             points="220.117,250.343 224.659,268.717 274.292,256.88 264.916,241.191 "
             style="fill:#1d1b34" />
          <polygon
             id="polygon605-6-6"
             points="227.153,252.881 229.644,263.968 268.831,254.068 264.129,245.31 "
             style="fill:#c2c0c1" />
          <polygon
             id="polygon607-5-3"
             points="229.69,253.813 231.436,261.409 265.96,252.869 263.602,247.561 "
             style="fill:#b2b1b4" />
          <path
             id="path609-1-9"
             d="m 240.476,221.212 c -0.207,-4.576 -3.454,-8.146 -7.259,-7.996 l 0,-0.002 -0.021,0.002 c -0.005,0 -0.009,0 -0.014,0 -0.022,0.001 -0.043,0.006 -0.065,0.007 l -27.058,2.304 1.411,16.569 27.157,-2.312 -0.002,-0.02 c 3.477,-0.578 6.046,-4.243 5.851,-8.552 z"
             inkscape:connector-curvature="0"
             style="fill:#ffffff" />
          <ellipse
             d="m 213.599,223.80299 c 0,4.59446 -3.09998,8.319 -6.924,8.319 -3.82402,0 -6.924,-3.72454 -6.924,-8.319 0,-4.59445 3.09998,-8.319 6.924,-8.319 3.82402,0 6.924,3.72455 6.924,8.319 z"
             id="ellipse611-6-2"
             ry="8.3190002"
             rx="6.9239998"
             cy="223.80299"
             cx="206.675"
             transform="matrix(0.999,-0.0452,0.0452,0.999,-9.9097,9.5756)"
             sodipodi:cx="206.675"
             sodipodi:cy="223.80299"
             sodipodi:rx="6.9239998"
             sodipodi:ry="8.3190002"
             style="fill:#c0bbc3" />
          <ellipse
             d="m 209.32,223.814 c 0,1.88605 -1.29166,3.415 -2.885,3.415 -1.59334,0 -2.885,-1.52895 -2.885,-3.415 0,-1.88606 1.29166,-3.415 2.885,-3.415 1.59334,0 2.885,1.52894 2.885,3.415 z"
             id="ellipse613-9-9"
             ry="3.415"
             rx="2.885"
             cy="223.814"
             cx="206.435"
             transform="matrix(0.999,-0.0452,0.0452,0.999,-9.9105,9.5647)"
             sodipodi:cx="206.435"
             sodipodi:cy="223.814"
             sodipodi:rx="2.885"
             sodipodi:ry="3.415"
             style="fill:#120e0f" />
          <polygon
             id="polygon615-0-5"
             points="233.054,242.98 216.206,243.603 217.227,239.264 238.353,237.543 244.899,239.668 "
             style="fill:#dcd9da" />
          <polygon
             id="polygon617-9-3"
             points="228.168,245.414 217.227,239.264 216.206,243.603 "
             style="fill:#cbc7ca" />
          <polygon
             id="polygon619-2-8"
             points="220.633,240.573 225.003,243.014 247.058,240.915 240.001,238.834 "
             style="fill:#62739f" />
          <path
             id="path621-9-1"
             d="m 223.644,241.971 c 0,0 -0.228,-6.054 -4.974,-7.894 l 20.426,-0.962 c 0,0 5.77,3.176 5.239,7.121 l -20.691,1.735 z"
             inkscape:connector-curvature="0"
             style="fill:#ffffff" />
          <path
             id="path623-3-8"
             d="m 223.036,282.027 0.237,-0.235 29.669,22.296 c 0,0 2.044,1.974 8.798,0.436 l 0,0 C 251.498,300.042 237.944,291.7 225.072,276.286 l -25.402,-16.929 -3.57,7.432 c 0,0 7.18,14.038 26.849,15.139 10e-4,10e-4 0.031,0.036 0.087,0.099 z"
             inkscape:connector-curvature="0"
             style="fill:#cbc7ca" />
          <polygon
             id="polygon625-7-0"
             points="224.659,268.717 199.67,259.358 199.67,245.87 220.117,250.343 "
             style="fill:#cbc7ca" />
          <path
             id="path627-8-8"
             d="m 239.189,278.152 c -0.606,0.093 -0.609,0.747 -0.582,1.027 l 4.621,3.164 7.717,-1.66 -5.803,-3.733 c -1.729,0.359 -5.367,1.112 -5.953,1.202 z"
             inkscape:connector-curvature="0"
             style="fill:#4b4748" />
          <path
             id="path629-7-2"
             d="m 254.053,275.143 c -1.861,0.37 -4.737,0.935 -5.213,0.988 -0.621,0.069 -0.494,1.058 -0.451,1.312 l 4.394,2.845 7.33,-1.577 -6.06,-3.568 z"
             inkscape:connector-curvature="0"
             style="fill:#4b4748" />
          <path
             id="path631-1-1"
             d="m 232.908,274.318 c -0.364,0.056 -0.507,0.317 -0.56,0.576 l 4.036,2.763 7.387,-1.589 -4.667,-3.002 c -1.604,0.334 -5.581,1.158 -6.196,1.252 z"
             inkscape:connector-curvature="0"
             style="fill:#4b4748" />
          <path
             id="path633-6-8"
             d="m 247.709,271.409 c -1.838,0.364 -4.278,0.84 -4.713,0.888 -0.702,0.078 -0.449,1.33 -0.441,1.368 l 2.98,1.93 6.8,-1.463 -4.626,-2.723 z"
             inkscape:connector-curvature="0"
             style="fill:#4b4748" />
          <path
             id="path635-5-2"
             d="m 229.309,271.292 c -0.713,0.11 -0.592,0.994 -0.569,1.132 l 1.883,1.289 7.109,-1.53 -3.062,-1.97 c -1.859,0.385 -4.837,0.998 -5.361,1.079 z"
             inkscape:connector-curvature="0"
             style="fill:#4b4748" />
          <path
             id="path637-2-3"
             d="m 242.846,268.546 c -1.854,0.368 -4.441,0.873 -4.89,0.923 -0.424,0.047 -0.499,0.522 -0.49,0.9 l 2.168,1.404 6.368,-1.37 -3.156,-1.857 z"
             inkscape:connector-curvature="0"
             style="fill:#4b4748" />
          <path
             id="path639-4-8"
             d="m 252.585,287.259 c -0.662,0.102 -0.604,0.875 -0.574,1.096 l 5.247,3.592 8.195,-1.934 -6.338,-4.077 c -1.285,0.269 -5.867,1.221 -6.53,1.323 z"
             inkscape:connector-curvature="0"
             style="fill:#9f1a1c" />
          <path
             id="path641-9-3"
             d="m 257.739,285.052 -5.419,-3.486 c -1.561,0.325 -5.636,1.17 -6.258,1.265 -0.628,0.097 -0.608,0.793 -0.579,1.054 l 4.227,2.894 8.029,-1.727 z"
             inkscape:connector-curvature="0"
             style="fill:#4b4748" />
          <g
             id="g643-8-0">
            <path
               id="path645-9-6"
               d="m 255.708,282.182 3.957,2.562 7.834,-1.686 -5.659,-3.331 c -1.798,0.358 -5.173,1.025 -5.692,1.083 -0.713,0.079 -0.44,1.372 -0.44,1.372 l 0,0 z"
               inkscape:connector-curvature="0"
               style="fill:#4b4748" />
            <path
               id="path647-5-8"
               d="m 269.24,284.083 c -1.388,0.278 -5.8,1.158 -6.4,1.224 -0.546,0.061 -0.514,0.831 -0.469,1.189 l 5.112,3.31 8.195,-1.934 -6.438,-3.789 z"
               inkscape:connector-curvature="0"
               style="fill:#4b4748" />
          </g>
          <path
             id="path649-3-8"
             d="m 276.204,269.034 c -0.53,0.104 -0.509,0.68 -0.475,0.926 l 4.184,2.618 6.735,-1.742 -5.246,-3.076 c -1.51,0.379 -4.686,1.173 -5.198,1.274 z"
             inkscape:connector-curvature="0"
             style="fill:#4b4748" />
          <path
             id="path651-3-4"
             d="m 289.183,265.845 c -1.626,0.393 -4.138,0.995 -4.555,1.059 -0.545,0.083 -0.397,0.949 -0.35,1.172 l 3.973,2.346 6.398,-1.655 -5.466,-2.922 z"
             inkscape:connector-curvature="0"
             style="fill:#4b4748" />
          <path
             id="path653-0-9"
             d="m 270.534,265.886 c -0.318,0.063 -0.435,0.297 -0.472,0.528 l 3.654,2.286 6.447,-1.668 -4.219,-2.474 c -1.4,0.352 -4.872,1.222 -5.41,1.328 z"
             inkscape:connector-curvature="0"
             style="fill:#4b4748" />
          <path
             id="path655-9-3"
             d="m 283.461,262.786 c -1.605,0.387 -3.737,0.895 -4.118,0.953 -0.616,0.094 -0.347,1.187 -0.338,1.221 l 2.694,1.591 5.935,-1.535 -4.173,-2.23 z"
             inkscape:connector-curvature="0"
             style="fill:#4b4748" />
          <path
             id="path657-3-0"
             d="m 267.254,263.351 c -0.624,0.123 -0.486,0.897 -0.46,1.017 l 1.705,1.067 6.205,-1.605 -2.768,-1.623 c -1.623,0.406 -4.223,1.054 -4.682,1.144 z"
             inkscape:connector-curvature="0"
             style="fill:#4b4748" />
          <path
             id="path659-0-4"
             d="m 279.075,260.442 c -1.619,0.391 -3.879,0.93 -4.273,0.991 -0.372,0.057 -0.42,0.478 -0.399,0.811 l 1.96,1.158 5.558,-1.438 -2.846,-1.522 z"
             inkscape:connector-curvature="0"
             style="fill:#4b4748" />
          <g
             id="g661-4-7">
            <path
               id="path663-7-9"
               d="m 290.897,271.983 3.577,2.112 6.838,-1.769 -5.104,-2.728 c -1.57,0.381 -4.518,1.09 -4.973,1.16 -0.626,0.097 -0.338,1.225 -0.338,1.225 l 0,0 z"
               inkscape:connector-curvature="0"
               style="fill:#4b4748" />
            <path
               id="path665-7-3"
               d="m 302.882,273.166 c -1.212,0.295 -5.065,1.23 -5.591,1.31 -0.479,0.073 -0.422,0.75 -0.37,1.064 l 4.622,2.729 7.146,-2 -5.807,-3.103 z"
               inkscape:connector-curvature="0"
               style="fill:#4b4748" />
          </g>
          <path
             id="path667-3-6"
             d="m 300.786,279.168 -6.753,-4.002 -1.244,-0.729 -4.899,-2.873 c -1.363,0.343 -4.92,1.235 -5.465,1.341 -0.549,0.108 -0.507,0.72 -0.471,0.949 l 3.827,2.395 h 0 l 8.373,4.601 6.632,-1.682 z"
             inkscape:connector-curvature="0"
             style="fill:#4b4748" />
          <path
             id="path669-4-2"
             d="m 276.288,268.757 c -0.53,0.104 -0.509,0.68 -0.475,0.926 l 4.184,2.618 6.735,-1.742 -5.246,-3.076 c -1.509,0.379 -4.685,1.174 -5.198,1.274 z"
             inkscape:connector-curvature="0"
             style="fill:#706f6e" />
          <path
             id="path671-9-2"
             d="m 289.268,265.568 c -1.626,0.393 -4.138,0.995 -4.555,1.059 -0.545,0.083 -0.397,0.949 -0.35,1.172 l 3.973,2.346 6.398,-1.655 -5.466,-2.922 z"
             inkscape:connector-curvature="0"
             style="fill:#706f6e" />
          <path
             id="path673-9-8"
             d="m 270.618,265.609 c -0.318,0.063 -0.435,0.297 -0.472,0.528 l 3.654,2.286 6.447,-1.668 -4.219,-2.474 c -1.399,0.353 -4.872,1.223 -5.41,1.328 z"
             inkscape:connector-curvature="0"
             style="fill:#706f6e" />
          <path
             id="path675-3-3"
             d="m 283.546,262.51 c -1.605,0.387 -3.737,0.895 -4.118,0.953 -0.616,0.094 -0.347,1.187 -0.338,1.221 l 2.694,1.591 5.935,-1.535 -4.173,-2.23 z"
             inkscape:connector-curvature="0"
             style="fill:#706f6e" />
          <path
             id="path677-1-9"
             d="m 267.338,263.075 c -0.624,0.123 -0.486,0.897 -0.46,1.017 l 1.705,1.067 6.205,-1.605 -2.768,-1.623 c -1.622,0.406 -4.222,1.054 -4.682,1.144 z"
             inkscape:connector-curvature="0"
             style="fill:#706f6e" />
          <path
             id="path679-0-3"
             d="m 279.159,260.165 c -1.619,0.391 -3.879,0.93 -4.273,0.991 -0.372,0.057 -0.42,0.478 -0.399,0.811 l 1.96,1.158 5.558,-1.438 -2.846,-1.522 z"
             inkscape:connector-curvature="0"
             style="fill:#706f6e" />
          <g
             id="g681-7-3">
            <path
               id="path683-0-2"
               d="m 290.981,271.707 3.577,2.113 6.838,-1.769 -5.104,-2.728 c -1.57,0.381 -4.518,1.091 -4.973,1.16 -0.626,0.095 -0.338,1.224 -0.338,1.224 l 0,0 z"
               inkscape:connector-curvature="0"
               style="fill:#706f6e" />
            <path
               id="path685-3-2"
               d="m 302.967,272.89 c -1.212,0.295 -5.065,1.23 -5.591,1.31 -0.479,0.073 -0.422,0.75 -0.37,1.064 l 4.622,2.729 7.146,-2 -5.807,-3.103 z"
               inkscape:connector-curvature="0"
               style="fill:#706f6e" />
          </g>
          <path
             id="path687-7-3"
             d="m 300.87,278.892 -6.753,-4.002 -1.244,-0.729 -4.899,-2.873 c -1.363,0.343 -4.92,1.235 -5.465,1.341 -0.549,0.108 -0.507,0.72 -0.471,0.949 l 3.827,2.395 h 0 l 8.373,4.601 6.632,-1.682 z"
             inkscape:connector-curvature="0"
             style="fill:#706f6e" />
          <path
             id="path689-0-3"
             d="m 247.294,267.391 c -0.579,0.082 -0.489,0.8 -0.472,0.911 l 1.513,1.061 5.772,-1.173 -2.462,-1.623 c -1.508,0.295 -3.925,0.764 -4.351,0.824 z"
             inkscape:connector-curvature="0"
             style="fill:#1d1b34" />
          <path
             id="path691-2-6"
             d="m 258.283,265.292 c -1.505,0.281 -3.605,0.666 -3.969,0.703 -0.344,0.034 -0.409,0.418 -0.405,0.725 l 1.743,1.157 5.17,-1.051 -2.539,-1.534 z"
             inkscape:connector-curvature="0"
             style="fill:#1d1b34" />
          <path
             id="path693-8-6"
             d="m 264.69,264.151 c -1.505,0.281 -3.605,0.666 -3.969,0.703 -0.344,0.034 -0.409,0.418 -0.405,0.725 l 1.743,1.157 5.17,-1.051 -2.539,-1.534 z"
             inkscape:connector-curvature="0"
             style="fill:#1d1b34" />
          <g
             id="g695-6-1">
            <path
               id="path697-7-8"
               d="m 266.71,276.256 0.004,-0.484 -0.556,0.131 -4.083,-2.627 c -1.383,0.287 -4.292,0.889 -4.76,0.961 -0.484,0.075 -0.487,0.597 -0.465,0.821 l 3.695,2.529 6.17,-1.328 -0.011,-0.007 0.006,0.004 z"
               inkscape:connector-curvature="0"
               style="fill:#b5b1b4" />
            <path
               id="path699-2-9"
               d="m 257.319,273.753 c -0.484,0.075 -0.487,0.597 -0.465,0.821 l 3.695,2.529 6.17,-1.328 -4.64,-2.984 c -1.383,0.289 -4.292,0.89 -4.76,0.962 z"
               inkscape:connector-curvature="0"
               style="fill:#dfdbdc" />
          </g>
          <g
             id="g701-2-9">
            <path
               id="path703-7-4"
               d="m 273.191,274.222 -0.617,0.146 -4.237,-2.494 c -1.489,0.296 -3.791,0.748 -4.172,0.79 -0.497,0.055 -0.396,0.846 -0.361,1.05 l 3.516,2.277 5.866,-1.262 -0.077,-0.045 0.077,0.024 0.005,-0.486 z"
               inkscape:connector-curvature="0"
               style="fill:#b5b1b4" />
            <path
               id="path705-0-2"
               d="m 268.342,271.389 c -1.489,0.296 -3.791,0.748 -4.172,0.79 -0.497,0.055 -0.396,0.846 -0.361,1.05 l 3.516,2.277 5.866,-1.262 -4.849,-2.855 z"
               inkscape:connector-curvature="0"
               style="fill:#dfdbdc" />
          </g>
          <g
             id="g707-1-6">
            <path
               id="path709-4-2"
               d="m 258.997,271.54 -0.55,0.13 -3.02,-1.943 c -1.222,0.254 -4.251,0.882 -4.719,0.954 -0.062,0.009 -0.112,0.029 -0.158,0.052 l -0.264,-0.072 0.003,0.434 c -0.002,0.008 -0.006,0.016 -0.007,0.024 l 3.074,2.104 5.627,-1.211 -0.048,-0.031 0.06,0.018 0.002,-0.459 z"
               inkscape:connector-curvature="0"
               style="fill:#b5b1b4" />
            <path
               id="path711-5-2"
               d="m 250.711,270.22 c -0.277,0.043 -0.386,0.241 -0.426,0.439 l 3.074,2.104 5.627,-1.211 -3.555,-2.287 c -1.222,0.255 -4.251,0.883 -4.72,0.955 z"
               inkscape:connector-curvature="0"
               style="fill:#dfdbdc" />
          </g>
          <g
             id="g713-7-2">
            <path
               id="path715-6-2"
               d="m 265.414,270.041 -0.583,0.138 -2.935,-1.728 c -1.396,0.276 -3.25,0.638 -3.581,0.675 -0.534,0.059 -0.341,1.01 -0.335,1.039 l 2.264,1.466 5.166,-1.111 -0.066,-0.039 0.066,0.02 0.004,-0.46 z"
               inkscape:connector-curvature="0"
               style="fill:#b5b1b4" />
            <path
               id="path717-5-5"
               d="m 261.9,267.991 c -1.396,0.276 -3.25,0.638 -3.581,0.675 -0.534,0.059 -0.341,1.01 -0.335,1.039 l 2.264,1.466 5.166,-1.111 -3.514,-2.069 z"
               inkscape:connector-curvature="0"
               style="fill:#dfdbdc" />
          </g>
          <g
             id="g719-0-4">
            <path
               id="path721-6-8"
               d="m 280.655,284.896 -4.125,-2.419 c -0.906,0.228 -4.136,1.039 -4.605,1.131 -0.468,0.092 -0.404,0.64 -0.376,0.797 l 3.837,2.401 5.771,-1.615 -0.014,-0.431 -0.488,0.136 z"
               inkscape:connector-curvature="0"
               style="fill:#b5b1b4" />
            <path
               id="path723-1-5"
               d="m 271.911,283.177 c -0.468,0.092 -0.404,0.64 -0.376,0.797 l 3.837,2.401 5.771,-1.615 -4.627,-2.714 c -0.906,0.228 -4.136,1.039 -4.605,1.131 z"
               inkscape:connector-curvature="0"
               style="fill:#dfdbdc" />
          </g>
          <g
             id="g725-9-3">
            <path
               id="path727-6-1"
               d="m 273.372,280.284 -0.53,0.129 -3.61,-2.289 c -1.185,0.255 -4.281,0.918 -4.754,0.993 -0.477,0.077 -0.459,0.606 -0.435,0.805 l 3.229,2.18 6.098,-1.354 -0.012,-0.007 0.012,0.003 0.002,-0.46 z"
               inkscape:connector-curvature="0"
               style="fill:#b5b1b4" />
            <path
               id="path729-4-1"
               d="m 273.372,280.288 -4.139,-2.624 c -1.185,0.255 -4.281,0.918 -4.754,0.993 -0.477,0.077 -0.459,0.606 -0.435,0.805 l 3.229,2.18 6.099,-1.354 z"
               inkscape:connector-curvature="0"
               style="fill:#dfdbdc" />
          </g>
          <g
             id="g731-3-7">
            <path
               id="path733-5-6"
               d="m 280.227,278.775 -0.615,0.107 -3.717,-2.156 c -1.366,0.282 -3.929,0.805 -4.324,0.852 -0.542,0.064 -0.328,1.046 -0.328,1.046 l 0,0 3.022,1.929 5.95,-1.321 -0.019,-0.011 0.031,-0.446 z"
               inkscape:connector-curvature="0"
               style="fill:#b5b1b4" />
            <path
               id="path735-5-1"
               d="m 271.244,278.164 3.022,1.929 5.95,-1.321 -4.32,-2.505 c -1.366,0.282 -3.929,0.805 -4.324,0.852 -0.542,0.063 -0.328,1.045 -0.328,1.045 l 0,0 z"
               inkscape:connector-curvature="0"
               style="fill:#dfdbdc" />
          </g>
          <g
             id="g737-6-2">
            <path
               id="path739-8-7"
               d="m 287.506,283.134 -0.014,-0.43 -0.519,0.145 -4.143,-2.214 c -0.977,0.238 -4.082,0.991 -4.506,1.056 -0.386,0.059 -0.34,0.604 -0.298,0.858 l 3.725,2.2 5.759,-1.612 -0.004,-0.003 0,0 z"
               inkscape:connector-curvature="0"
               style="fill:#b5b1b4" />
            <path
               id="path741-6-4"
               d="m 282.816,280.205 c -0.977,0.238 -4.082,0.991 -4.506,1.056 -0.386,0.059 -0.34,0.604 -0.298,0.858 l 3.725,2.2 5.759,-1.612 -4.68,-2.502 z"
               inkscape:connector-curvature="0"
               style="fill:#dfdbdc" />
          </g>
          <g
             id="g743-6-5">
            <path
               id="path745-0-0"
               d="m 279.524,272.907 -0.609,0.126 -3.762,-2.215 c -1.341,0.267 -3.414,0.674 -3.757,0.712 -0.448,0.05 -0.356,0.762 -0.325,0.945 l 3.167,2.05 5.282,-1.136 0.001,0 0.003,-0.482 z"
               inkscape:connector-curvature="0"
               style="fill:#b5b1b4" />
            <path
               id="path747-1-8"
               d="m 275.157,270.337 c -1.341,0.267 -3.414,0.674 -3.757,0.712 -0.448,0.05 -0.356,0.762 -0.325,0.946 l 3.167,2.05 5.283,-1.137 -4.368,-2.571 z"
               inkscape:connector-curvature="0"
               style="fill:#dfdbdc" />
          </g>
          <g
             id="g749-3-0">
            <path
               id="path751-0-3"
               d="m 271.515,268.66 -0.71,0.08 -2.672,-1.573 c -1.342,0.266 -3.124,0.613 -3.442,0.649 -0.513,0.057 -0.328,0.971 -0.322,0.999 l 2.176,1.409 4.966,-1.069 -0.032,-0.019 0.032,0.012 0.004,-0.488 z"
               inkscape:connector-curvature="0"
               style="fill:#b5b1b4" />
            <path
               id="path753-4-5"
               d="m 268.137,266.678 c -1.342,0.266 -3.124,0.613 -3.442,0.649 -0.513,0.057 -0.328,0.971 -0.322,0.999 l 2.176,1.409 4.966,-1.069 -3.378,-1.988 z"
               inkscape:connector-curvature="0"
               style="fill:#dfdbdc" />
          </g>
          <g
             id="g755-3-6">
            <path
               id="path757-8-6"
               d="m 286.137,277.674 10e-4,-0.459 -0.571,0.128 -3.336,-1.935 c -1.236,0.255 -3.555,0.729 -3.912,0.771 -0.491,0.058 -0.297,0.946 -0.297,0.946 h 0 l 2.734,1.745 5.38,-1.194 10e-4,0 v 0 l 0.002,0 -0.002,-0.002 z"
               inkscape:connector-curvature="0"
               style="fill:#b5b1b4" />
            <path
               id="path759-1-5"
               d="m 278.023,276.665 2.734,1.745 5.383,-1.195 -3.908,-2.267 c -1.236,0.255 -3.555,0.729 -3.912,0.771 -0.491,0.058 -0.297,0.946 -0.297,0.946 l 0,0 z"
               inkscape:connector-curvature="0"
               style="fill:#dfdbdc" />
          </g>
          <g
             id="g761-6-8">
            <path
               id="path763-3-7"
               d="m 293.283,281.25 -0.014,-0.422 -0.509,0.143 -3.706,-1.981 c -0.884,0.215 -3.693,0.896 -4.076,0.955 -0.349,0.053 -0.308,0.547 -0.27,0.776 l 3.369,1.99 5.197,-1.455 0.009,0.002 0,-0.005 0.004,-10e-4 -0.004,-0.002 z"
               inkscape:connector-curvature="0"
               style="fill:#b5b1b4" />
            <path
               id="path765-0-1"
               d="m 289.039,278.56 c -0.884,0.215 -3.693,0.897 -4.076,0.955 -0.349,0.053 -0.308,0.547 -0.27,0.776 l 3.369,1.99 5.21,-1.458 -4.233,-2.263 z"
               inkscape:connector-curvature="0"
               style="fill:#dfdbdc" />
          </g>
          <g
             id="g767-8-0">
            <path
               id="path769-6-3"
               d="m 239.392,277.747 c -0.606,0.093 -0.609,0.747 -0.582,1.027 l 4.621,3.164 7.717,-1.66 -5.803,-3.733 c -1.729,0.36 -5.367,1.112 -5.953,1.202 z"
               inkscape:connector-curvature="0"
               style="fill:#706f6e" />
            <path
               id="path771-5-4"
               d="m 254.256,274.738 c -1.861,0.37 -4.737,0.935 -5.213,0.987 -0.621,0.069 -0.494,1.058 -0.451,1.312 l 4.394,2.845 7.33,-1.577 -6.06,-3.567 z"
               inkscape:connector-curvature="0"
               style="fill:#706f6e" />
            <path
               id="path773-4-2"
               d="m 233.112,273.914 c -0.364,0.056 -0.507,0.317 -0.56,0.576 l 4.036,2.763 7.387,-1.589 -4.667,-3.002 c -1.604,0.333 -5.582,1.157 -6.196,1.252 z"
               inkscape:connector-curvature="0"
               style="fill:#706f6e" />
            <path
               id="path775-5-7"
               d="m 247.912,271.004 c -1.838,0.364 -4.278,0.84 -4.713,0.888 -0.702,0.078 -0.449,1.33 -0.441,1.368 l 2.98,1.93 6.8,-1.463 -4.626,-2.723 z"
               inkscape:connector-curvature="0"
               style="fill:#706f6e" />
            <path
               id="path777-1-8"
               d="m 229.512,270.887 c -0.713,0.11 -0.592,0.994 -0.569,1.132 l 1.883,1.289 7.109,-1.53 -3.062,-1.97 c -1.859,0.386 -4.836,0.999 -5.361,1.079 z"
               inkscape:connector-curvature="0"
               style="fill:#706f6e" />
            <path
               id="path779-9-0"
               d="m 243.049,268.141 c -1.854,0.368 -4.441,0.873 -4.89,0.923 -0.424,0.047 -0.499,0.522 -0.49,0.9 l 2.168,1.404 6.368,-1.37 -3.156,-1.857 z"
               inkscape:connector-curvature="0"
               style="fill:#706f6e" />
            <path
               id="path781-5-2"
               d="m 252.788,286.854 c -0.662,0.102 -0.604,0.875 -0.574,1.096 l 5.247,3.592 8.195,-1.934 -6.338,-4.077 c -1.285,0.269 -5.867,1.221 -6.53,1.323 z"
               inkscape:connector-curvature="0"
               style="fill:#c81b2c" />
            <path
               id="path783-0-6"
               d="m 257.942,284.647 -5.419,-3.486 c -1.561,0.325 -5.636,1.17 -6.258,1.265 -0.628,0.097 -0.608,0.793 -0.579,1.054 l 4.227,2.894 8.029,-1.727 z"
               inkscape:connector-curvature="0"
               style="fill:#706f6e" />
            <g
               id="g785-0-7">
              <path
                 id="path787-6-7"
                 d="m 255.911,281.777 3.957,2.562 7.834,-1.686 -5.659,-3.331 c -1.798,0.358 -5.173,1.025 -5.692,1.083 -0.713,0.08 -0.44,1.372 -0.44,1.372 l 0,0 z"
                 inkscape:connector-curvature="0"
                 style="fill:#706f6e" />
              <path
                 id="path789-6-9"
                 d="m 269.443,283.679 c -1.388,0.278 -5.8,1.158 -6.4,1.224 -0.546,0.061 -0.514,0.831 -0.469,1.189 l 5.112,3.31 8.195,-1.934 -6.438,-3.789 z"
                 inkscape:connector-curvature="0"
                 style="fill:#706f6e" />
            </g>
          </g>
          <polygon
             id="polygon791-7-8"
             points="231.452,255.815 234.521,255.189 234.764,254.801 234.109,254.644 231.155,255.25 230.871,255.658 "
             style="fill:#1d1b34" />
          <polygon
             id="polygon793-9-7"
             points="237.226,254.451 240.029,253.883 240.251,253.514 239.652,253.358 236.955,253.908 236.696,254.295 "
             style="fill:#1d1b34" />
          <polygon
             id="polygon795-3-7"
             points="238.225,256.616 240.985,256.003 241.203,255.633 240.613,255.488 237.958,256.082 237.703,256.47 "
             style="fill:#1d1b34" />
          <polygon
             id="polygon797-2-9"
             points="239.187,258.804 241.905,258.147 242.12,257.776 241.539,257.642 238.924,258.279 238.672,258.669 "
             style="fill:#1d1b34" />
          <polygon
             id="polygon799-8-9"
             points="232.461,258.021 235.484,257.346 235.723,256.957 235.078,256.812 232.169,257.464 231.888,257.875 "
             style="fill:#1d1b34" />
          <polygon
             id="polygon801-1-5"
             points="233.756,260.316 236.72,259.594 236.955,259.204 236.322,259.072 233.469,259.77 233.194,260.182 "
             style="fill:#1d1b34" />
          <polyline
             id="polyline803-0-3"
             points="234.853,254.843 234.639,255.293 235.326,256.685 235.894,256.908 236.041,256.501     235.353,255.048 234.879,254.84   "
             style="fill:#1d1b34" />
          <polyline
             id="polyline805-6-5"
             points="236.645,254.347 236.437,254.79 237.106,256.165 237.657,256.387 237.8,255.986 237.13,254.551     236.67,254.345   "
             style="fill:#1d1b34" />
          <polyline
             id="polyline807-3-7"
             points="241.26,255.752 241.068,256.181 241.689,257.499 242.201,257.707 242.333,257.319     241.711,255.944 241.283,255.75   "
             style="fill:#1d1b34" />
          <polygon
             id="polygon809-2-2"
             points="254.491,250.703 256.57,250.287 256.734,249.975 256.288,249.825 254.289,250.23 254.099,250.556 "
             style="fill:#1d1b34" />
          <polyline
             id="polyline811-9-5"
             points="256.81,249.998 256.666,250.363 257.14,251.533 257.528,251.736 257.627,251.404     257.152,250.183 256.828,249.997   "
             style="fill:#1d1b34" />
          <polyline
             id="polyline813-5-0"
             points="257.565,251.931 257.422,252.296 257.89,253.449 258.272,253.644 258.37,253.313     257.901,252.108 257.582,251.929   "
             style="fill:#1d1b34" />
          <polygon
             id="polygon815-6-9"
             points="246.608,252.338 249.005,251.857 249.194,251.519 248.681,251.366 246.376,251.833 246.155,252.186 "
             style="fill:#1d1b34" />
          <polygon
             id="polygon817-2-2"
             points="247.465,254.354 249.827,253.834 250.014,253.495 249.508,253.351 247.236,253.856 247.019,254.211 "
             style="fill:#1d1b34" />
          <polygon
             id="polygon819-5-6"
             points="248.292,256.393 250.621,255.834 250.805,255.494 250.306,255.361 248.066,255.903 247.852,256.259 "
             style="fill:#1d1b34" />
          <polyline
             id="polyline821-9-4"
             points="246.112,252.233 245.935,252.639 246.508,253.918 246.979,254.133 247.101,253.765     246.527,252.429 246.133,252.231   "
             style="fill:#1d1b34" />
          <polyline
             id="polyline823-0-0"
             points="250.063,253.606 249.899,254 250.434,255.231 250.874,255.432 250.987,255.075 250.45,253.791     250.083,253.604   "
             style="fill:#1d1b34" />
          <polyline
             id="polyline825-8-3"
             points="249.278,251.585 249.111,251.978 249.654,253.226 250.1,253.437 250.214,253.08 249.67,251.778     249.298,251.583   "
             style="fill:#1d1b34" />
          <polyline
             id="polyline827-2-8"
             points="246.859,254.29 246.684,254.696 247.25,255.959 247.715,256.164 247.835,255.796     247.268,254.478 246.88,254.288   "
             style="fill:#1d1b34" />
          <polyline
             id="polyline829-9-2"
             points="235.926,257.062 235.715,257.513 236.392,258.882 236.95,259.093 237.094,258.686     236.417,257.257 235.951,257.059   "
             style="fill:#1d1b34" />
          <polygon
             id="polygon831-7-9"
             points="241.719,253.403 244.324,252.878 244.529,252.525 243.972,252.369 241.467,252.878 241.226,253.249 "
             style="fill:#1d1b34" />
          <polygon
             id="polygon833-7-2"
             points="242.579,255.45 245.147,254.884 245.35,254.529 244.801,254.384 242.33,254.933 242.093,255.305 "
             style="fill:#1d1b34" />
          <polygon
             id="polygon835-5-6"
             points="243.682,257.588 246.205,256.981 246.404,256.625 245.864,256.491 243.438,257.08 243.205,257.453 "
             style="fill:#1d1b34" />
          <polyline
             id="polyline837-4-8"
             points="244.606,252.565 244.424,252.977 245.012,254.272 245.495,254.487 245.62,254.114     245.031,252.762 244.627,252.563   "
             style="fill:#1d1b34" />
          <polyline
             id="polyline839-0-2"
             points="245.523,254.629 245.344,255.042 245.923,256.317 246.4,256.523 246.522,256.15 245.942,254.818     245.545,254.627   "
             style="fill:#1d1b34" />
          <polygon
             id="polygon841-6-6"
             points="257.999,249.892 259.944,249.505 260.097,249.204 259.679,249.056 257.81,249.433 257.632,249.747 "
             style="fill:#1d1b34" />
          <polyline
             id="polyline843-0-2"
             points="260.154,249.241 260.019,249.592 260.464,250.728 260.827,250.927 260.92,250.607     260.474,249.422 260.17,249.24   "
             style="fill:#1d1b34" />
          <polyline
             id="polyline845-2-0"
             points="260.849,251.051 260.716,251.403 261.155,252.524 261.514,252.716 261.605,252.396     261.164,251.226 260.865,251.05   "
             style="fill:#1d1b34" />
          <polygon
             id="polygon847-8-3"
             points="261.431,249.137 263.249,248.776 263.392,248.487 263.001,248.341 261.254,248.692 261.088,248.994 "
             style="fill:#1d1b34" />
          <polygon
             id="polygon849-8-2"
             points="262.037,250.87 263.834,250.479 263.975,250.189 263.589,250.05 261.862,250.431 261.698,250.734 "
             style="fill:#1d1b34" />
          <polygon
             id="polygon851-8-1"
             points="262.816,252.691 264.585,252.271 264.724,251.979 264.343,251.849 262.643,252.258 262.482,252.562 "
             style="fill:#1d1b34" />
          <polyline
             id="polyline853-5-3"
             points="263.445,248.522 263.319,248.862 263.736,249.963 264.077,250.158 264.163,249.85 263.745,248.7     263.461,248.522   "
             style="fill:#1d1b34" />
          <polyline
             id="polyline855-0-9"
             points="264.097,250.278 263.973,250.618 264.385,251.705 264.721,251.893 264.806,251.585     264.393,250.45 264.112,250.277   "
             style="fill:#1d1b34" />
          <polygon
             id="polygon857-3-9"
             points="250.631,251.532 252.862,251.083 253.038,250.759 252.56,250.607 250.414,251.043 250.209,251.382 "
             style="fill:#1d1b34" />
          <polygon
             id="polygon859-0-4"
             points="251.37,253.438 253.573,252.954 253.747,252.628 253.275,252.485 251.156,252.955 250.954,253.296 "
             style="fill:#1d1b34" />
          <polygon
             id="polygon861-0-8"
             points="252.32,255.434 254.486,254.914 254.657,254.587 254.192,254.454 252.11,254.959 251.911,255.301 "
             style="fill:#1d1b34" />
          <polyline
             id="polyline863-6-6"
             points="253.104,250.797 252.949,251.176 253.456,252.384 253.872,252.591 253.978,252.247     253.47,250.986 253.123,250.796   "
             style="fill:#1d1b34" />
          <polyline
             id="polyline865-0-8"
             points="253.896,252.723 253.743,253.103 254.243,254.294 254.653,254.492 254.758,254.149     254.257,252.905 253.914,252.722   "
             style="fill:#1d1b34" />
        </g>
        <path
           id="path867-6-3"
           d="m 206.911,220.4 -11.578,0.124 c 0,0 -0.291,0.142 -0.291,0.489 0,0.347 0.291,0.612 0.291,0.612 l 12.883,-0.464 c -0.001,0 -0.336,-0.517 -1.305,-0.761 z"
           inkscape:connector-curvature="0"
           style="fill:#454444" />
      </g>
    </g>
  </g>
</svg>
