<svg xmlns="http://www.w3.org/2000/svg" width="250" height="250"><path d="M241.428 128.782a119.384 119.384 0 1 1-238.768 0 119.384 119.384 0 1 1 238.768 0z" fill="#c5d8e3"/><g transform="matrix(1.602 0 0 1.602 -269.43 -278.72)"><path d="M253.442 222.716s-1.635-3.856-8.138-3.443c-6.503.413-7.948-.516-7.948-.516l-6.297.516v1.032l5.986-.723s4.663 1.256 8.103.568c0 0 5.998.138 6.766 2.83l3.933 22.715 1.525-.264-3.933-22.714z" fill="#454444"/><path d="M248.695 300.896l4.016 3.018s4.292 3.96 11.587 1.825c7.294-2.134 58.736-19.166 58.736-19.166s1.242-.896 0-1.857c-1.242-.96-74.338 16.18-74.338 16.18z" fill="#cbc7ca"/><path d="M223.036 282.027l.237-.235 29.67 22.296s2.043 1.974 8.797.436c4.903-1.116 41.562-13.242 61.292-19.806-8.954-6.988-26.747-19.5-48.74-27.837l-9.376-15.69-17.066-1.926-48.18 6.606v13.488l-3.57 7.432s7.18 14.038 26.85 15.14l.086.097z" fill="#dcd9da"/><path d="M236.93 240.76s-4.84-6.61-5.355-13.532H200.41s3.392 11.308 9.69 17.21l26.83-3.677z" fill="#fff"/><path d="M232 230.002c-.205-.91-.356-1.838-.426-2.774H200.41s2.404 8.01 6.92 14.068l24.67-11.29v-.004z" fill="#c0bbc3"/><path fill="#1d1b34" d="M220.117 250.343l4.542 18.374 49.632-11.837-9.376-15.69"/><path fill="#c2c0c1" d="M227.153 252.88l2.49 11.088 39.188-9.9-4.7-8.758"/><path fill="#b2b1b4" d="M229.69 253.813l1.746 7.596 34.524-8.54-2.358-5.31"/><path d="M240.476 221.212c-.207-4.576-3.454-8.146-7.26-7.996v-.002l-.02.002h-.014c-.022 0-.043.006-.065.007l-27.058 2.304 1.41 16.57 27.157-2.313-.002-.02c3.477-.578 6.046-4.243 5.85-8.552z" fill="#fff"/><ellipse ry="8.319" rx="6.924" cy="223.803" cx="206.675" transform="rotate(-2.563 206.898 223.82)" fill="#c0bbc3"/><ellipse ry="3.415" rx="2.885" cy="223.814" cx="206.435" transform="rotate(-2.563 206.656 223.83)" fill="#120e0f"/><path fill="#dcd9da" d="M233.054 242.98l-16.848.623 1.02-4.34 21.127-1.72 6.546 2.125"/><path fill="#cbc7ca" d="M228.168 245.414l-10.94-6.15-1.022 4.34"/><path fill="#62739f" d="M220.633 240.573l4.37 2.44 22.055-2.098-7.057-2.08"/><path d="M223.644 241.97s-.228-6.053-4.974-7.893l20.426-.962s5.77 3.176 5.24 7.12l-20.692 1.736z" fill="#fff"/><path d="M223.036 282.027l.237-.235 29.67 22.296s2.043 1.974 8.797.436c-10.242-4.482-23.796-12.824-36.668-28.238l-25.402-16.93-3.57 7.433s7.18 14.037 26.85 15.138l.086.1z" fill="#cbc7ca"/><path fill="#cbc7ca" d="M224.66 268.717l-24.99-9.36V245.87l20.447 4.473"/><path d="M239.19 278.152c-.607.093-.61.747-.583 1.027l4.62 3.163 7.718-1.66-5.803-3.733c-1.73.36-5.367 1.112-5.953 1.202zM254.053 275.143c-1.86.37-4.737.935-5.213.988-.62.07-.494 1.06-.45 1.313l4.393 2.845 7.33-1.577-6.06-3.567zM232.908 274.318c-.364.056-.507.317-.56.576l4.036 2.763 7.387-1.59-4.666-3c-1.604.333-5.58 1.157-6.196 1.25zM247.71 271.41c-1.84.363-4.28.84-4.714.887-.702.078-.45 1.33-.44 1.368l2.98 1.93 6.8-1.463-4.627-2.723zM229.31 271.292c-.714.11-.593.994-.57 1.132l1.883 1.29 7.11-1.53-3.063-1.97c-1.86.384-4.837.997-5.36 1.078zM242.846 268.546c-1.854.368-4.44.873-4.89.923-.424.046-.5.52-.49.9l2.168 1.403 6.368-1.37-3.156-1.857z" fill="#4b4748"/><path d="M252.585 287.26c-.662.1-.604.874-.574 1.095l5.248 3.592 8.195-1.934-6.338-4.077c-1.285.27-5.867 1.22-6.53 1.323z" fill="#9f1a1c"/><path d="M257.74 285.052l-5.42-3.486c-1.56.325-5.636 1.17-6.258 1.265-.628.098-.608.794-.58 1.055l4.228 2.894 8.03-1.728z" fill="#4b4748"/><g fill="#4b4748"><path d="M255.708 282.182l3.957 2.562 7.834-1.686-5.66-3.33c-1.798.357-5.173 1.024-5.692 1.082-.713.08-.44 1.372-.44 1.372zM269.24 284.083c-1.388.278-5.8 1.158-6.4 1.224-.546.06-.514.83-.47 1.19l5.113 3.31 8.195-1.935-6.438-3.79z"/></g><path d="M276.204 269.034c-.53.104-.51.68-.475.926l4.183 2.618 6.735-1.742-5.246-3.076c-1.51.38-4.686 1.173-5.198 1.274zM289.183 265.845c-1.626.393-4.138.995-4.555 1.06-.545.082-.397.948-.35 1.17l3.973 2.347 6.4-1.655-5.467-2.922zM270.534 265.886c-.318.063-.435.297-.472.528l3.654 2.286 6.447-1.668-4.22-2.474c-1.4.352-4.87 1.222-5.41 1.328zM283.46 262.786c-1.604.387-3.736.895-4.117.953-.616.093-.347 1.186-.338 1.22l2.694 1.59 5.934-1.534-4.173-2.23zM267.254 263.35c-.624.124-.486.898-.46 1.018l1.705 1.067 6.204-1.605-2.768-1.623c-1.623.406-4.223 1.054-4.682 1.144zM279.075 260.442c-1.62.39-3.88.93-4.273.99-.372.058-.42.48-.4.812l1.96 1.158 5.56-1.438-2.847-1.522z" fill="#4b4748"/><g fill="#4b4748"><path d="M290.897 271.983l3.577 2.112 6.838-1.77-5.104-2.727c-1.57.38-4.518 1.09-4.973 1.16-.626.097-.338 1.225-.338 1.225zM302.882 273.166c-1.212.295-5.065 1.23-5.59 1.31-.48.073-.423.75-.37 1.064l4.62 2.73 7.147-2-5.808-3.104z"/></g><path d="M300.786 279.168l-6.753-4.002-1.244-.73-4.9-2.872c-1.363.343-4.92 1.235-5.465 1.34-.55.11-.507.72-.47.95l3.826 2.395 8.374 4.6 6.632-1.682z" fill="#4b4748"/><path d="M276.288 268.757c-.53.104-.51.68-.475.926l4.184 2.618 6.735-1.74-5.246-3.077c-1.51.38-4.685 1.174-5.198 1.274zM289.268 265.568c-1.626.393-4.138.995-4.555 1.06-.545.082-.397.948-.35 1.17l3.973 2.347 6.398-1.655-5.466-2.922zM270.618 265.61c-.318.062-.435.296-.472.527l3.654 2.286 6.447-1.668-4.22-2.474c-1.398.354-4.87 1.224-5.41 1.33zM283.546 262.51c-1.605.387-3.737.895-4.118.953-.616.094-.347 1.187-.338 1.22l2.694 1.592 5.935-1.535-4.174-2.23zM267.338 263.075c-.624.123-.486.897-.46 1.017l1.705 1.067 6.205-1.606-2.768-1.623c-1.622.407-4.222 1.055-4.682 1.145zM279.16 260.165c-1.62.39-3.88.93-4.274.99-.372.058-.42.48-.4.812l1.96 1.158 5.56-1.438-2.847-1.522z" fill="#706f6e"/><g fill="#706f6e"><path d="M290.98 271.707l3.578 2.113 6.838-1.77-5.104-2.727c-1.57.38-4.518 1.09-4.973 1.16-.627.095-.34 1.224-.34 1.224zM302.967 272.89c-1.212.295-5.065 1.23-5.59 1.31-.48.073-.423.75-.37 1.064l4.62 2.73 7.147-2-5.807-3.104z"/></g><path d="M300.87 278.892l-6.753-4.002-1.244-.73-4.9-2.872c-1.362.343-4.92 1.235-5.464 1.34-.55.11-.508.72-.472.95l3.827 2.395 8.373 4.6 6.632-1.68z" fill="#706f6e"/><path d="M247.294 267.39c-.58.083-.49.8-.472.912l1.513 1.06 5.772-1.172-2.462-1.623c-1.508.295-3.925.764-4.35.824zM258.283 265.292c-1.505.28-3.605.666-3.97.703-.343.034-.408.418-.404.725l1.742 1.157 5.17-1.05-2.54-1.535zM264.69 264.15c-1.505.282-3.605.667-3.97.704-.343.034-.408.418-.404.725l1.743 1.156 5.17-1.05-2.54-1.535z" fill="#1d1b34"/><path d="M266.71 276.256l.004-.484-.556.13-4.083-2.626c-1.383.287-4.292.89-4.76.96-.484.076-.487.598-.465.822l3.695 2.53 6.17-1.33-.01-.006.005.004z" fill="#b5b1b4"/><path d="M257.32 273.753c-.485.075-.488.597-.466.82l3.695 2.53 6.17-1.328-4.64-2.984c-1.384.29-4.293.89-4.76.963z" fill="#dfdbdc"/><path d="M273.19 274.222l-.616.146-4.237-2.494c-1.49.296-3.79.748-4.172.79-.497.055-.396.846-.36 1.05l3.515 2.277 5.866-1.26-.077-.046.076.024.005-.486z" fill="#b5b1b4"/><path d="M268.342 271.39c-1.49.295-3.79.747-4.172.79-.497.054-.396.845-.36 1.05l3.515 2.276 5.866-1.262-4.848-2.855z" fill="#dfdbdc"/><path d="M258.997 271.54l-.55.13-3.02-1.943c-1.222.254-4.25.882-4.72.954-.06.01-.11.03-.157.053l-.264-.072.003.435c-.003.008-.007.016-.008.024l3.074 2.103 5.627-1.21-.048-.032.06.02.002-.46z" fill="#b5b1b4"/><path d="M250.71 270.22c-.276.043-.385.24-.425.44l3.074 2.103 5.626-1.21-3.555-2.288c-1.22.255-4.25.883-4.72.955z" fill="#dfdbdc"/><path d="M265.414 270.04l-.583.14-2.934-1.73c-1.396.277-3.25.64-3.58.676-.535.06-.342 1.01-.336 1.04l2.264 1.465 5.166-1.11-.066-.04.066.02.004-.46z" fill="#b5b1b4"/><path d="M261.9 267.99c-1.396.277-3.25.64-3.58.676-.535.06-.342 1.01-.336 1.04l2.264 1.465 5.166-1.11-3.514-2.07z" fill="#dfdbdc"/><path d="M280.655 284.896l-4.125-2.42c-.906.23-4.136 1.04-4.605 1.132-.468.092-.404.64-.376.797l3.836 2.4 5.77-1.614-.013-.43-.488.136z" fill="#b5b1b4"/><path d="M271.91 283.177c-.467.092-.403.64-.375.797l3.837 2.4 5.77-1.614-4.626-2.714c-.906.228-4.136 1.04-4.605 1.13z" fill="#dfdbdc"/><path d="M273.372 280.284l-.53.13-3.61-2.29c-1.185.255-4.28.918-4.754.993-.477.077-.46.606-.435.805l3.23 2.18 6.097-1.354-.012-.007.012.004.002-.46z" fill="#b5b1b4"/><path d="M273.372 280.288l-4.14-2.624c-1.184.255-4.28.918-4.753.993-.478.077-.46.606-.436.805l3.23 2.18 6.098-1.354z" fill="#dfdbdc"/><path d="M280.227 278.775l-.615.107-3.717-2.156c-1.366.282-3.93.805-4.324.852-.54.064-.327 1.046-.327 1.046l3.022 1.93 5.95-1.322-.02-.01.032-.447z" fill="#b5b1b4"/><path d="M271.244 278.164l3.022 1.93 5.95-1.322-4.32-2.505c-1.366.282-3.93.805-4.324.852-.542.062-.328 1.044-.328 1.044z" fill="#dfdbdc"/><path d="M287.506 283.134l-.014-.43-.52.145-4.142-2.215c-.977.238-4.082.99-4.506 1.056-.386.06-.34.605-.298.86l3.725 2.2 5.76-1.613-.004-.003z" fill="#b5b1b4"/><path d="M282.816 280.205c-.977.238-4.082.99-4.506 1.056-.386.06-.34.605-.298.86l3.725 2.2 5.76-1.613-4.68-2.502z" fill="#dfdbdc"/><path d="M279.524 272.907l-.61.126-3.76-2.215c-1.342.267-3.415.674-3.758.712-.448.05-.356.762-.325.945l3.168 2.05 5.282-1.136.004-.483z" fill="#b5b1b4"/><path d="M275.157 270.337c-1.34.267-3.414.674-3.757.712-.448.05-.356.76-.325.945l3.167 2.05 5.283-1.137-4.368-2.57z" fill="#dfdbdc"/><path d="M271.515 268.66l-.71.08-2.672-1.573c-1.342.266-3.124.613-3.442.65-.512.056-.327.97-.32.998l2.175 1.41 4.966-1.07-.03-.02.03.013.005-.488z" fill="#b5b1b4"/><path d="M268.137 266.678c-1.342.266-3.124.613-3.442.65-.513.056-.328.97-.322.998l2.176 1.41 4.965-1.07-3.378-1.988z" fill="#dfdbdc"/><path d="M286.137 277.674v-.46l-.57.13-3.336-1.936c-1.235.255-3.554.73-3.91.77-.492.06-.298.947-.298.947l2.734 1.745 5.38-1.194h.003l-.003-.002z" fill="#b5b1b4"/><path d="M278.023 276.665l2.734 1.745 5.383-1.195-3.908-2.267c-1.236.255-3.555.73-3.912.77-.49.06-.297.947-.297.947z" fill="#dfdbdc"/><path d="M293.283 281.25l-.014-.422-.51.143-3.706-1.98c-.884.215-3.693.896-4.076.955-.35.053-.308.547-.27.776l3.37 1.99 5.196-1.454.01.002v-.005h.003l-.004-.003z" fill="#b5b1b4"/><path d="M289.04 278.56c-.885.215-3.694.897-4.077.955-.35.053-.308.547-.27.776l3.37 1.99 5.21-1.457-4.234-2.263z" fill="#dfdbdc"/><path d="M239.392 277.747c-.606.093-.61.747-.582 1.027l4.62 3.164 7.718-1.66-5.803-3.733c-1.73.36-5.367 1.112-5.953 1.202zM254.256 274.738c-1.86.37-4.737.935-5.213.987-.62.07-.494 1.058-.45 1.312l4.393 2.845 7.33-1.577-6.06-3.567zM233.112 273.914c-.364.056-.507.317-.56.576l4.036 2.763 7.387-1.59-4.667-3c-1.604.332-5.582 1.156-6.196 1.25zM247.912 271.004c-1.838.364-4.278.84-4.713.888-.703.078-.45 1.33-.442 1.368l2.98 1.93 6.8-1.463-4.626-2.723zM229.512 270.887c-.713.11-.592.994-.57 1.132l1.884 1.288 7.11-1.53-3.063-1.97c-1.86.386-4.836 1-5.36 1.08zM243.05 268.14c-1.855.37-4.442.874-4.89.924-.425.047-.5.522-.49.9l2.167 1.404 6.368-1.37-3.156-1.857z" fill="#706f6e"/><path d="M252.788 286.854c-.662.102-.604.875-.574 1.096l5.247 3.592 8.196-1.934-6.338-4.077c-1.285.27-5.867 1.222-6.53 1.324z" fill="#c81b2c"/><path d="M257.942 284.647l-5.42-3.486c-1.56.326-5.635 1.17-6.257 1.266-.628.097-.608.793-.58 1.054l4.228 2.894 8.03-1.727z" fill="#706f6e"/><g fill="#706f6e"><path d="M255.91 281.777l3.958 2.562 7.834-1.687-5.66-3.33c-1.797.357-5.172 1.024-5.69 1.082-.714.08-.44 1.372-.44 1.372zM269.443 283.68c-1.388.277-5.8 1.157-6.4 1.223-.546.06-.514.83-.47 1.19l5.113 3.31 8.195-1.935-6.437-3.79z"/></g><path fill="#1d1b34" d="M231.452 255.815l3.07-.626.242-.39-.655-.156-2.955.606-.284.408M237.226 254.45l2.803-.567.22-.37-.598-.155-2.697.55-.26.387M238.225 256.616l2.76-.613.218-.37-.59-.145-2.655.594-.255.388M239.187 258.804l2.718-.657.215-.37-.58-.135-2.616.637-.252.39M232.46 258.02l3.024-.674.24-.39-.646-.144-2.91.652-.28.41M233.756 260.316l2.964-.722.235-.39-.633-.132-2.853.698-.276.412M234.853 254.843l-.214.45.686 1.392.568.223.147-.407-.687-1.452-.474-.208M236.645 254.347l-.208.443.67 1.375.55.222.143-.4-.67-1.436-.46-.205M241.26 255.752l-.192.43.62 1.317.513.207.133-.388-.622-1.376-.427-.194M254.49 250.703l2.08-.416.164-.312-.446-.15-2 .405-.19.326M256.81 249.998l-.144.365.474 1.17.388.203.1-.332-.476-1.22-.324-.187M257.565 251.93l-.143.366.468 1.153.382.194.098-.33-.47-1.206-.318-.18M246.608 252.338l2.397-.48.19-.34-.514-.152-2.304.467-.22.353M247.465 254.354l2.362-.52.187-.34-.506-.143-2.272.506-.217.355M248.292 256.393l2.33-.56.183-.34-.5-.132-2.24.543-.213.356M246.112 252.233l-.177.406.573 1.278.47.215.123-.368-.573-1.336-.394-.2M250.063 253.606l-.164.394.534 1.23.44.202.113-.357-.537-1.284-.367-.186M249.278 251.585l-.167.393.544 1.248.446.21.114-.356-.544-1.302-.372-.195M246.86 254.29l-.176.406.566 1.263.465.204.12-.368-.567-1.318-.388-.19M235.926 257.062l-.21.45.676 1.37.558.21.144-.406-.677-1.43-.466-.197M241.72 253.403l2.604-.525.205-.353-.558-.156-2.505.508-.24.37M242.58 255.45l2.567-.566.203-.355-.55-.146-2.47.55-.237.37M243.682 257.588l2.523-.607.2-.355-.54-.134-2.427.59-.233.373M244.606 252.565l-.182.412.588 1.295.483.215.125-.373-.59-1.352-.403-.2M245.523 254.63l-.18.412.58 1.275.477.206.122-.373-.58-1.332-.397-.19M258 249.892l1.944-.387.153-.3-.418-.15-1.87.378-.178.314M260.154 249.24l-.135.352.444 1.136.363.2.093-.32-.446-1.186-.304-.182M260.85 251.05l-.134.353.44 1.12.358.193.09-.32-.44-1.17-.3-.176M261.43 249.137l1.82-.36.142-.29-.39-.146-1.748.352-.166.302M262.037 250.87l1.797-.39.14-.29-.385-.14-1.728.38-.164.304M262.816 252.69l1.77-.42.138-.29-.38-.13-1.7.408-.162.304M263.445 248.522l-.126.34.416 1.1.34.196.087-.308-.418-1.15-.284-.178M264.097 250.278l-.124.34.412 1.087.336.188.086-.308-.413-1.135-.28-.173M250.63 251.532l2.232-.45.176-.323-.478-.153-2.146.436-.205.34M251.37 253.438l2.203-.484.174-.326-.472-.143-2.12.47-.2.34M252.32 255.434l2.166-.52.17-.327-.464-.133-2.082.505-.2.34M253.104 250.797l-.155.38.506 1.207.416.207.106-.343-.508-1.26-.347-.19M253.896 252.723l-.153.38.5 1.19.41.2.105-.344-.5-1.245-.344-.183"/></g><path d="M62.04 74.36l-18.547.2s-.466.227-.466.783.466.98.466.98l20.64-.743c-.003 0-.54-.828-2.092-1.22z" fill="#454444"/></svg>