<?xml version="1.0" encoding="utf-8"?>
<!-- Generator: Adobe Illustrator 16.0.0, SVG Export Plug-In . SVG Version: 6.00 Build 0)  -->
<!DOCTYPE svg PUBLIC "-//W3C//DTD SVG 1.1//EN" "http://www.w3.org/Graphics/SVG/1.1/DTD/svg11.dtd">
<svg version="1.1" id="Calque_1" xmlns="http://www.w3.org/2000/svg" xmlns:xlink="http://www.w3.org/1999/xlink" x="0px" y="0px"
	 width="141.732px" height="189.701px" viewBox="0 0 141.732 189.701" enable-background="new 0 0 141.732 189.701"
	 xml:space="preserve">
<circle fill="#009FE3" cx="70.866" cy="94.852" r="70.866"/>
<g>
	<polygon fill="#7DC9CA" points="36.284,96.701 79.707,100.31 79.707,173.242 36.207,150.592 	"/>
	<polygon fill="#002D41" points="79.71,100.31 45.008,97.426 45.008,151.098 79.71,168.098 	"/>
	<polygon fill="#7DC9CA" points="55.496,107.135 66.361,108.713 66.361,156.16 55.496,151.221 	"/>
	<polygon fill="#002D41" points="79.707,47.957 79.707,0 93.057,51.041 	"/>
	<polygon fill="#7DC9CA" points="79.707,47.957 79.707,0 66.357,51.041 	"/>
	<polygon fill="#002D41" points="33.893,151.389 77.094,174.602 79.707,173.242 36.319,150.646 	"/>
	<polygon fill="#7DC9CA" points="33.896,153.188 77.097,177.047 77.097,174.604 33.896,151.389 	"/>
	<polygon fill="#002D41" points="31.81,153.992 74.646,178.354 77.094,177.045 34.064,153.283 	"/>
	<polygon fill="#7DC9CA" points="31.813,156.076 74.649,181.189 74.649,178.355 31.813,153.994 	"/>
	<polygon fill="#002D41" points="30.073,156.77 72.595,182.32 74.646,181.189 31.953,156.16 	"/>
	<polygon fill="#7DC9CA" points="30.075,158.682 72.598,184.926 72.598,182.32 30.075,156.77 	"/>
	<polygon fill="#002D41" points="125.521,151.389 82.32,174.602 79.707,173.242 123.095,150.646 	"/>
	<polygon fill="#7DC9CA" points="125.525,153.189 82.323,177.045 82.323,174.604 125.525,151.389 	"/>
	<polygon fill="#002D41" points="127.604,153.992 84.768,178.354 82.32,177.045 125.349,153.283 	"/>
	<polygon fill="#7DC9CA" points="127.608,156.076 84.771,181.189 84.771,178.355 127.608,153.994 	"/>
	<polygon fill="#002D41" points="129.341,156.77 86.818,182.32 84.768,181.189 127.462,156.16 	"/>
	<polygon fill="#7DC9CA" points="129.346,158.682 86.822,184.926 86.822,182.322 129.346,156.77 	"/>
	<polygon fill="#7DC9CA" points="66.361,51.041 79.71,47.957 79.71,100.31 66.361,99.201 	"/>
	<polygon fill="#002D41" points="93.059,51.041 79.71,47.957 79.71,71.342 93.059,72.553 	"/>
	<polygon fill="#002D41" points="123.129,96.701 79.707,100.31 79.707,173.242 123.302,150.543 	"/>
	<polygon fill="#7DC9CA" points="40.162,97.023 36.211,96.695 36.211,150.594 40.162,152.65 	"/>
	<polygon fill="#3363AC" points="45.004,96.701 40.16,97.023 40.16,152.65 45.004,151.096 	"/>
	<polygon fill="#002D41" points="119.258,97.023 123.21,96.695 123.21,150.594 119.258,152.65 	"/>
	<polygon fill="#3363AC" points="114.41,96.701 119.254,97.023 119.254,152.65 114.41,151.096 	"/>
	<polygon fill="#7DC9CA" points="79.71,100.31 114.413,97.426 114.413,151.096 79.71,168.098 	"/>
	<polygon fill="#002D41" points="101.461,71.342 79.71,100.31 123.21,96.693 	"/>
	<polygon fill="#7DC9CA" points="101.456,71.342 79.707,71.342 79.707,100.31 	"/>
	<polygon fill="#7DC9CA" points="72.674,99.733 79.707,100.31 79.707,173.242 72.674,169.58 	"/>
	<polygon fill="#002D41" points="86.64,99.733 79.707,100.31 79.707,173.242 86.64,169.633 	"/>
	<polygon fill="#7DC9CA" points="73.035,39.119 73.035,39.119 79.71,47.957 66.361,51.041 	"/>
	<polygon fill="#7DC9CA" points="86.385,39.119 86.385,39.119 79.71,47.957 93.059,51.041 	"/>
	<polygon fill="#002D41" points="73.032,39.119 79.707,43.539 79.707,47.957 	"/>
	<polygon fill="#3363AC" points="86.382,39.119 79.707,43.539 79.707,47.957 	"/>
	<polygon fill="#3363AC" points="43.962,102.257 12.388,98.445 40.16,97.023 74.473,99.875 	"/>
	<polygon fill="#3363AC" points="74.473,102.662 43.962,105.537 43.962,102.256 74.473,99.875 	"/>
	<polygon fill="#7DC9CA" points="37.368,185.426 43.965,189.701 43.965,105.525 37.368,104.564 	"/>
	<polygon fill="#7DC9CA" points="16.033,171.602 12.392,169.24 12.392,100.926 16.033,101.457 	"/>
	<polygon fill="#3363AC" points="18.97,99.24 16.03,99.406 16.03,171.602 18.97,170.75 	"/>
	<polygon fill="#7DC9CA" points="12.392,100.926 43.965,105.525 43.965,102.257 12.392,98.445 	"/>
	<polygon fill="#3363AC" points="49.518,104.564 43.962,105.074 43.962,189.701 49.518,187.373 	"/>
	<polygon fill="#7DC9CA" points="43.962,102.257 57.958,71.342 12.388,98.445 	"/>
	<polygon fill="#3363AC" points="74.473,99.875 43.962,102.257 57.958,71.342 66.357,72.016 	"/>
	<polygon fill="#002D41" points="86.818,182.32 84.768,181.189 84.768,178.354 82.32,177.045 82.32,174.602 79.707,173.242 
		79.707,173.242 79.707,173.242 79.707,181.189 86.818,184.924 	"/>
	<polygon fill="#3363AC" points="79.707,173.242 77.094,174.602 77.094,177.045 74.646,178.354 74.646,181.189 72.595,182.32 
		72.595,184.924 79.707,181.189 79.707,173.242 	"/>
	<path fill="#3363AC" d="M78.441,58.637c0-4.701-2.632-7.936-5.765-7.246c-3.015,0.662-5.377,4.735-5.377,9.121
		c0,4.384,2.362,7.662,5.377,7.31C75.81,67.456,78.441,63.338,78.441,58.637z"/>
	<path fill="#002D41" d="M77.311,58.826c0-3.615-2.018-6.126-4.439-5.623c-2.35,0.489-4.204,3.652-4.204,7.077
		s1.854,5.964,4.204,5.661C75.293,65.631,77.311,62.441,77.311,58.826z"/>
	<path fill="#3363AC" d="M80.98,58.636c0-4.7,2.632-7.935,5.764-7.245c3.015,0.662,5.376,4.735,5.376,9.119
		c0,4.386-2.361,7.664-5.376,7.313C83.612,67.455,80.98,63.338,80.98,58.636z"/>
	<path fill="#7DC9CA" d="M82.111,58.826c0-3.615,2.018-6.127,4.438-5.623c2.349,0.489,4.205,3.652,4.205,7.077
		s-1.856,5.964-4.205,5.661C84.129,65.631,82.111,62.441,82.111,58.826z"/>
	<polygon fill="#002D41" points="109.934,148.844 93.057,156.559 93.057,108.711 109.934,106.262 	"/>
	<polygon fill="#7DC9CA" points="103.921,151.592 99.277,153.715 99.277,107.809 103.921,107.135 	"/>
</g>
</svg>
