<svg xmlns="http://www.w3.org/2000/svg" width="150" height="150"><g transform="matrix(.963 0 0 .963 -228.673 -32.7)"><path d="M388.84 124.51c.644-3.955.994-8.01.994-12.147 0-41.42-33.58-75-75-75s-75 33.58-75 75c0 4.137.35 8.19.994 12.147H388.84z" fill="none"/><path d="M314.833 187.363c37.284 0 68.2-27.21 74.006-62.853H240.826c5.807 35.642 36.722 62.853 74.006 62.853z" fill="#1c6e72"/><path d="M240.81 124.42c5.77 35.687 36.708 62.943 74.023 62.943s68.253-27.256 74.022-62.943H240.81z" fill="none"/><path d="M389.833 112.363c0-41.42-33.58-75-75-75s-75 33.58-75 75c0 4.106.343 8.13.978 12.057h148.046c.635-3.926.977-7.95.977-12.057z" fill="#fabe74"/><ellipse ry="9.071" rx="45.313" cy="146.866" cx="316.241" fill="#074749"/><path d="M314.833 63.063c-11.436 0-20.74 9.304-20.74 20.74v20.016h5.78V83.8c0-8.25 6.712-14.96 14.96-14.96 8.25 0 14.96 6.71 14.96 14.96v20.017h5.78V83.8c0-11.435-9.304-20.74-20.74-20.74z" fill="#2b4d5a"/><path fill="#ee7246" d="M286.512 96.643h56.643v48.55h-56.643z"/><path fill="#ea542d" d="M311.325 145.194l-19.76-48.55h-5.053v48.55"/><path d="M332.863 128.598c.068-.368.11-.745.11-1.133 0-3.42-2.773-6.192-6.193-6.192-.365 0-.72.038-1.07.098-1.174-1.802-3.205-2.996-5.517-2.996-.18 0-.36.013-.538.027-1.157-3.017-4.073-5.164-7.498-5.164-3.736 0-6.868 2.554-7.768 6.008-2.83.915-4.88 3.57-4.88 6.704 0 .937.185 1.83.518 2.647h32.835z" fill="#fff"/><path fill="#ea542d" d="M286.512 96.643l28.32 4.3 28.323-4.3"/></g></svg>