<?xml version="1.0" encoding="UTF-8" standalone="no"?>
<!-- Created with Inkscape (http://www.inkscape.org/) -->

<svg
   xmlns:dc="http://purl.org/dc/elements/1.1/"
   xmlns:cc="http://creativecommons.org/ns#"
   xmlns:rdf="http://www.w3.org/1999/02/22-rdf-syntax-ns#"
   xmlns:svg="http://www.w3.org/2000/svg"
   xmlns="http://www.w3.org/2000/svg"
   xmlns:sodipodi="http://sodipodi.sourceforge.net/DTD/sodipodi-0.dtd"
   xmlns:inkscape="http://www.inkscape.org/namespaces/inkscape"
   width="150"
   height="150"
   id="svg2"
   version="1.1"
   inkscape:version="0.48.4 r9939"
   sodipodi:docname="responsive.svg">
  <defs
     id="defs4" />
  <sodipodi:namedview
     id="base"
     pagecolor="#ffffff"
     bordercolor="#666666"
     borderopacity="1.0"
     inkscape:pageopacity="0.0"
     inkscape:pageshadow="2"
     inkscape:zoom="2.8"
     inkscape:cx="106.68196"
     inkscape:cy="74.924408"
     inkscape:document-units="px"
     inkscape:current-layer="layer1"
     showgrid="false"
     inkscape:window-width="1280"
     inkscape:window-height="748"
     inkscape:window-x="0"
     inkscape:window-y="0"
     inkscape:window-maximized="1" />
  <metadata
     id="metadata7">
    <rdf:RDF>
      <cc:Work
         rdf:about="">
        <dc:format>image/svg+xml</dc:format>
        <dc:type
           rdf:resource="http://purl.org/dc/dcmitype/StillImage" />
        <dc:title></dc:title>
      </cc:Work>
    </rdf:RDF>
  </metadata>
  <g
     inkscape:label="Layer 1"
     inkscape:groupmode="layer"
     id="layer1"
     transform="translate(0,-902.36218)">
    <g
       id="g70368"
       transform="matrix(0.97142876,0,0,0.97142876,-231.19546,868.92381)">
      <path
         style="fill:#2d82a1"
         inkscape:connector-curvature="0"
         d="m 388.84,124.51 c 0.644,-3.955 0.994,-8.009 0.994,-12.147 0,-41.421 -33.579,-75 -75,-75 -41.421,0 -75,33.579 -75,75 0,4.137 0.349,8.191 0.994,12.147 H 388.84 z"
         id="path70370" />
      <path
         style="fill:#2d82a1"
         inkscape:connector-curvature="0"
         d="m 314.833,187.363 c 37.284,0 68.2,-27.211 74.006,-62.853 H 240.827 c 5.807,35.642 36.722,62.853 74.006,62.853 z"
         id="path70372" />
    </g>
    <path
       style="fill:#b5daef"
       inkscape:connector-curvature="0"
       d="m 147.49952,978.07646 c 0,-40.23755 -32.6196,-72.85716 -72.857154,-72.85716 -40.23755,0 -72.8571567,32.61961 -72.8571567,72.85716 0,3.98867 0.3332001,7.8977 0.9500574,11.7125 H 146.55044 c 0.61685,-3.81383 0.94908,-7.72383 0.94908,-11.7125 z"
       id="path70374" />
    <ellipse
       d="m 361.554,146.866 c 0,5.00977 -20.28732,9.071 -45.313,9.071 -25.02568,0 -45.313,-4.06123 -45.313,-9.071 0,-5.00978 20.28732,-9.071 45.313,-9.071 25.02568,0 45.313,4.06122 45.313,9.071 z"
       style="fill:#004b65"
       sodipodi:ry="9.0710001"
       sodipodi:rx="45.313"
       sodipodi:cy="146.866"
       sodipodi:cx="316.241"
       cx="316.241"
       cy="146.866"
       rx="45.313"
       ry="9.0710001"
       id="ellipse70376"
       transform="matrix(0.97142876,0,0,0.97142876,-231.19546,868.92381)" />
    <path
       style="fill:#004a5f"
       inkscape:connector-curvature="0"
       d="m 74.642366,930.18502 c -11.109259,0 -20.146461,9.03818 -20.146461,20.14646 v 19.44509 h 5.614859 v -19.44509 c 0,-8.01331 6.519258,-14.53257 14.532574,-14.53257 8.012344,0 14.531603,6.51926 14.531603,14.53257 h 9.71e-4 v 19.44509 H 94.79077 V 950.33148 C 94.789799,939.2232 85.751626,930.18502 74.642366,930.18502 z"
       id="path70400" />
    <rect
       style="fill:#ed6e1c"
       x="47.130505"
       y="962.80548"
       width="55.024639"
       height="47.163837"
       id="rect70402" />
    <polygon
       style="fill:#e8491b"
       points="286.512,145.194 311.325,145.194 291.565,96.643 286.512,96.643 "
       id="polygon70404"
       transform="matrix(0.97142876,0,0,0.97142876,-231.19546,868.92381)" />
    <path
       style="fill:#ffffff"
       inkscape:connector-curvature="0"
       d="m 92.157227,993.84759 c 0.06606,-0.35749 0.105886,-0.72372 0.105886,-1.10063 0,-3.32229 -2.692801,-6.01509 -6.015087,-6.01509 -0.354572,0 -0.7004,0.0369 -1.038458,0.0952 -1.141428,-1.75149 -3.1144,-2.91137 -5.360343,-2.91137 -0.175829,0 -0.349715,0.0126 -0.522629,0.0262 -1.123943,-2.93177 -3.956629,-5.01741 -7.283773,-5.01741 -3.629258,0 -6.671773,2.48101 -7.546059,5.83632 -2.749143,0.88886 -4.739601,3.46703 -4.739601,6.51246 0,0.91023 0.179715,1.77771 0.503201,2.57137 h 31.896863 z"
       id="path70406" />
    <polygon
       style="fill:#e8491b"
       points="286.512,96.643 314.833,100.944 343.155,96.643 "
       id="polygon70408"
       transform="matrix(0.97142876,0,0,0.97142876,-231.19546,868.92381)" />
  </g>
</svg>
