<?xml version="1.0" encoding="UTF-8" standalone="no"?>
<!-- Created with Inkscape (http://www.inkscape.org/) -->

<svg
   xmlns:dc="http://purl.org/dc/elements/1.1/"
   xmlns:cc="http://creativecommons.org/ns#"
   xmlns:rdf="http://www.w3.org/1999/02/22-rdf-syntax-ns#"
   xmlns:svg="http://www.w3.org/2000/svg"
   xmlns="http://www.w3.org/2000/svg"
   version="1.1"
   width="150"
   height="150"
   id="svg2">
  <defs
     id="defs4" />
  <metadata
     id="metadata7">
    <rdf:RDF>
      <cc:Work
         rdf:about="">
        <dc:format>image/svg+xml</dc:format>
        <dc:type
           rdf:resource="http://purl.org/dc/dcmitype/StillImage" />
        <dc:title></dc:title>
      </cc:Work>
    </rdf:RDF>
  </metadata>
  <g
     transform="translate(0,-902.36218)"
     id="layer1">
    <g
       transform="matrix(0.99253731,0,0,0.99253731,-42.814268,396.15817)"
       id="g5025">
      <circle
         cx="119.264"
         cy="585.57397"
         r="75"
         id="circle4213"
         style="fill:#88afc3" />
      <rect
         width="6.75"
         height="5.8270001"
         x="87.055"
         y="539.245"
         id="rect4215"
         style="fill:#ffffff" />
      <path
         d="m 152.821,551.642 v -2.353 c 0,-1.334 -1.359,-2.415 -3.036,-2.415 H 97.902 95.455 85.361 v 88.45 h 10.094 2.447 51.883 c 1.677,0 3.036,-1.081 3.036,-2.415 v -1.64 l 4.42,-3.479 v -1.411 -8.37 -1.411 l -4.42,-3.48 v -2.241 l 4.42,-3.48 v -1.411 -8.37 -1.411 l -4.42,-3.48 v -2.54 l 4.42,-3.48 v -1.411 -8.37 -1.411 l -4.42,-3.48 v -2.242 l 4.42,-3.48 v -1.411 -8.37 -1.411 l -4.42,-3.477 z"
         id="path4229"
         style="fill:#4b7f95" />
      <polygon
         points="151.148,544.013 81.288,544.013 81.288,632.464 147.5,632.464 151.148,629.892 "
         id="polygon4231"
         style="fill:#ffffff" />
      <rect
         width="7.717"
         height="88.449997"
         x="81.288002"
         y="539.245"
         id="rect4233"
         style="fill:#ee7246" />
      <path
         d="m 145.029,539.245 h -54.33 v 88.45 h 54.33 c 1.677,0 3.036,-1.081 3.036,-2.415 v -83.62 c 0,-1.334 -1.359,-2.415 -3.036,-2.415 z"
         id="path4235"
         style="fill:#2b7c8e" />
      <circle
         cx="118.642"
         cy="584.883"
         r="19.973"
         id="circle4237"
         style="fill:#88afc3" />
      <circle
         cx="118.068"
         cy="583.73602"
         r="18.757999"
         id="circle4239"
         style="fill:#ffffff" />
      <circle
         cx="118.642"
         cy="576.224"
         r="5.2329998"
         id="circle4241"
         style="fill:#195562" />
      <path
         d="m 131.1,590.704 c -0.597,-2.611 -2.996,-8.568 -12.457,-8.568 -9.461,0 -11.86,5.957 -12.457,8.568 -0.127,0.39 -0.193,0.792 -0.193,1.201 0,1.746 1.2,3.339 3.176,4.551 0.322,-2.498 1.016,-6.256 2.357,-7.299 0,0 -1.072,4.992 -0.977,8.026 2.194,0.993 5.016,1.591 8.095,1.591 3.079,0 5.901,-0.597 8.095,-1.591 0.094,-3.034 -0.977,-8.026 -0.977,-8.026 1.341,1.043 2.035,4.801 2.357,7.299 1.976,-1.212 3.176,-2.806 3.176,-4.551 -0.002,-0.409 -0.068,-0.811 -0.195,-1.201 z"
         id="path4243"
         style="fill:#195562" />
      <polygon
         points="151.148,562.164 155.568,558.685 155.568,557.274 155.568,548.904 155.568,547.493 151.148,544.013 151.148,548.904 151.148,557.274 "
         id="polygon4245"
         style="fill:#ee7246" />
      <polygon
         points="150.4,563.267 152.559,564.967 152.559,561.568 "
         id="polygon4247"
         style="fill:#004b53" />
      <polygon
         points="152.559,585.476 152.559,581.996 150.349,583.736 "
         id="polygon4249"
         style="fill:#004b53" />
      <path
         d="m 150.349,624.802 v -2.358 -2.532 -2.358 -6.012 -2.358 -2.532 -2.358 l 2.21,1.74 v -3.528 l -2.21,1.74 v -2.358 -2.532 -2.358 -6.012 -2.358 -2.532 -2.358 -2.358 -2.532 -2.358 -6.012 -2.358 -2.532 -2.277 -0.081 -2.277 -2.532 -2.358 -6.012 -2.358 -2.532 -1.051 c -0.263,-0.059 -0.539,-0.093 -0.826,-0.093 h -0.426 v 84.988 H 96.811 95.193 81.288 v 3.462 h 13.905 1.618 52.712 c 1.677,0 3.036,-1.081 3.036,-2.415 v -6.987 l -2.21,1.737 z"
         id="path4251"
         style="fill:#195562" />
      <polygon
         points="151.148,582.557 155.568,579.077 155.568,577.666 155.568,569.296 155.568,567.885 151.148,564.406 151.148,569.296 151.148,577.666 "
         id="polygon4253"
         style="fill:#ee7246" />
      <polygon
         points="151.148,603.248 155.568,599.768 155.568,598.357 155.568,589.988 155.568,588.576 151.148,585.097 151.148,589.988 151.148,598.357 "
         id="polygon4255"
         style="fill:#fabe74" />
      <polygon
         points="151.148,623.64 155.568,620.16 155.568,618.75 155.568,610.38 155.568,608.969 151.148,605.489 151.148,610.38 151.148,618.75 "
         id="polygon4257"
         style="fill:#ee7246" />
      <rect
         width="7.717"
         height="3.4619999"
         x="81.288002"
         y="629.00201"
         id="rect4259"
         style="fill:#ee7246" />
      <rect
         width="2.789"
         height="7.5500002"
         x="81.288002"
         y="624.914"
         id="rect4261"
         style="fill:#ee7246" />
    </g>
  </g>
</svg>
