<?xml version="1.0" encoding="utf-8"?>
<!-- Generator: Adobe Illustrator 16.0.0, SVG Export Plug-In . SVG Version: 6.00 Build 0)  -->
<!DOCTYPE svg PUBLIC "-//W3C//DTD SVG 1.1//EN" "http://www.w3.org/Graphics/SVG/1.1/DTD/svg11.dtd">
<svg version="1.1" id="Calque_1" xmlns="http://www.w3.org/2000/svg" xmlns:xlink="http://www.w3.org/1999/xlink" x="0px" y="0px"
	 width="141.732px" height="141.732px" viewBox="0 0 141.732 141.732" enable-background="new 0 0 141.732 141.732"
	 xml:space="preserve">
<circle fill="#009FE3" cx="70.866" cy="70.866" r="70.866"/>
<rect x="30.04" y="12.938" fill="#F6F6F6" width="81.652" height="115.855"/>
<rect x="40.04" y="22.938" fill="#009FE3" width="12.627" height="17.916"/>
<rect x="55.897" y="22.938" fill="#009FE3" width="45.866" height="1.916"/>
<rect x="55.897" y="30.938" fill="#009FE3" width="45.866" height="1.916"/>
<rect x="55.897" y="38.938" fill="#009FE3" width="45.866" height="1.916"/>
<rect x="40.04" y="100.878" fill="#009FE3" width="28.696" height="1.916"/>
<rect x="40.04" y="108.878" fill="#009FE3" width="28.696" height="1.916"/>
<rect x="40.04" y="116.878" fill="#009FE3" width="28.696" height="1.916"/>
<rect x="73.067" y="100.878" fill="#009FE3" width="28.696" height="1.916"/>
<rect x="73.067" y="108.878" fill="#009FE3" width="28.696" height="1.916"/>
<rect x="73.067" y="116.878" fill="#009FE3" width="28.696" height="1.916"/>
<rect x="40.04" y="61.908" fill="#009FE3" width="61.724" height="1.916"/>
<rect x="40.04" y="69.908" fill="#009FE3" width="61.724" height="1.916"/>
<rect x="40.04" y="77.908" fill="#009FE3" width="61.724" height="1.916"/>
<polygon opacity="0.25" fill="#DADADA" points="30.04,12.938 111.692,128.794 30.04,128.794 "/>
<path fill="#7DC9CA" d="M103.621,55.08c21.221-21.222,19.332-5.197,28.051,3.521s10.295,21.277,3.521,28.051
	s-19.332,5.197-28.051-3.521S82.399,76.302,103.621,55.08z"/>
<polygon points="91.599,79.824 80.476,88.866 89.502,77.728 130.442,36.788 132.538,38.885 "/>
<circle fill="#7DC9CA" cx="93.865" cy="73.364" r="2.499"/>
</svg>
