<?xml version="1.0" encoding="utf-8"?>
<!-- Generator: Adobe Illustrator 16.0.0, SVG Export Plug-In . SVG Version: 6.00 Build 0)  -->
<!DOCTYPE svg PUBLIC "-//W3C//DTD SVG 1.1//EN" "http://www.w3.org/Graphics/SVG/1.1/DTD/svg11.dtd">
<svg version="1.1" id="Calque_1" xmlns="http://www.w3.org/2000/svg" xmlns:xlink="http://www.w3.org/1999/xlink" x="0px" y="0px"
	 width="141.732px" height="141.474px" viewBox="0 0 141.732 141.474" enable-background="new 0 0 141.732 141.474"
	 xml:space="preserve">
<path fill="#009FE3" d="M130.752,33.094c0,12.524,0,25.05,0,37.574C91.768-2.271,52.783,137.092,13.799,76.784v36.114
	c12.93,17.203,33.504,28.332,56.682,28.332c39.139,0,70.867-31.729,70.867-70.866C141.348,56.688,137.463,43.923,130.752,33.094z"/>
<path fill="#009FE3" d="M10.213,33.09C3.5,43.92-0.385,56.687-0.385,70.364S3.5,96.809,10.213,107.639V70.668
	C10.213,58.142,10.213,45.616,10.213,33.09z"/>
<path fill="#F6F6F6" d="M10.213,70.668v36.971c1.12,1.808,2.313,3.565,3.586,5.26V76.784C12.604,74.936,11.408,72.904,10.213,70.668
	z"/>
<path fill="#009FE3" d="M66.01-0.347C51.158,0.578,37.555,6.078,26.574,14.76C39.72,22.043,52.864,11.747,66.01-0.347z"/>
<path fill="#002D41" d="M130.752,70.668c0-12.524,0-25.05,0-37.574C118.258,12.934,95.942-0.502,70.48-0.502
	c-1.503,0-2.991,0.063-4.471,0.155C52.864,11.747,39.72,22.043,26.574,14.76c-6.457,5.106-12.008,11.306-16.361,18.33
	c0,12.526,0,25.052,0,37.578C50.393,145.844,90.572-4.508,130.752,70.668z M85.944,17.867c0.667-0.283,1.333-0.551,1.999-0.801
	c0.412-0.855,0.824-1.704,1.236-2.545c0,0.701,0,1.401,0,2.103c0.666-0.228,1.332-0.435,1.999-0.621
	c-0.667,0.619-1.333,1.26-1.999,1.92c0,0.7,0,1.401,0,2.103c-0.412-0.293-0.824-0.579-1.235-0.857c-0.667,0.683-1.333,1.385-2,2.102
	c0.411-0.876,0.823-1.747,1.235-2.61C86.768,18.389,86.355,18.125,85.944,17.867z M81.758,7.734c0.496,0.08,0.99,0.168,1.486,0.262
	c0.625-0.823,1.248-1.636,1.873-2.435c-0.318,0.87-0.637,1.743-0.955,2.619c0.495,0.103,0.991,0.214,1.487,0.334
	c-0.692,0.415-1.385,0.847-2.077,1.293c-0.318,0.88-0.637,1.764-0.954,2.649c-0.109-0.603-0.22-1.204-0.329-1.806
	c-0.692,0.463-1.384,0.939-2.076,1.427c0.625-0.856,1.248-1.704,1.873-2.541C81.977,8.937,81.867,8.335,81.758,7.734z
	 M82.289,34.267c0.109-0.782,0.22-1.564,0.329-2.347c0.317,0.363,0.636,0.729,0.953,1.099c0.692-0.666,1.385-1.317,2.077-1.951
	c-0.496,0.871-0.99,1.751-1.486,2.639c0.318,0.372,0.636,0.748,0.954,1.127c-0.624,0.163-1.249,0.339-1.873,0.526
	c-0.495,0.896-0.991,1.801-1.486,2.712c0.11-0.784,0.22-1.568,0.329-2.353c-0.625,0.202-1.25,0.414-1.874,0.635
	C80.904,35.646,81.597,34.95,82.289,34.267z M69.832,14.99c0.217-0.869,0.434-1.737,0.649-2.606
	c0.216,0.464,0.433,0.928,0.649,1.392c0.701-0.655,1.401-1.311,2.103-1.962c-0.567,0.939-1.134,1.881-1.701,2.823
	c0.216,0.463,0.433,0.927,0.65,1.392c-0.567,0.117-1.134,0.235-1.701,0.354c-0.566,0.942-1.134,1.885-1.701,2.825
	c0.217-0.868,0.434-1.737,0.65-2.606c-0.567,0.118-1.134,0.235-1.701,0.351C68.43,16.3,69.131,15.646,69.832,14.99z M69.43,51.527
	c-0.217-0.464-0.434-0.928-0.65-1.392c0.567-0.117,1.135-0.236,1.702-0.355c0.566-0.942,1.134-1.884,1.7-2.825
	c-0.217,0.869-0.434,1.738-0.65,2.607c0.567-0.118,1.134-0.236,1.701-0.352c-0.701,0.652-1.401,1.307-2.103,1.963
	c-0.216,0.868-0.433,1.736-0.648,2.604c-0.217-0.464-0.434-0.927-0.65-1.391c-0.7,0.655-1.401,1.311-2.103,1.963
	C68.295,53.411,68.863,52.47,69.43,51.527z M55.846,31.331c0.625-0.163,1.249-0.34,1.874-0.528c0.495-0.896,0.99-1.8,1.485-2.71
	c-0.109,0.783-0.219,1.566-0.328,2.35c0.625-0.201,1.248-0.412,1.873-0.633c-0.692,0.707-1.385,1.403-2.077,2.087
	c-0.109,0.782-0.219,1.563-0.328,2.346c-0.317-0.363-0.636-0.729-0.954-1.098c-0.691,0.666-1.385,1.316-2.076,1.95
	c0.495-0.871,0.991-1.751,1.486-2.639C56.482,32.084,56.164,31.71,55.846,31.331z M57.39,56.354c0.317-0.88,0.636-1.763,0.954-2.647
	c0.109,0.602,0.221,1.203,0.33,1.805c0.691-0.464,1.383-0.939,2.075-1.427c-0.624,0.856-1.249,1.704-1.873,2.541
	c0.11,0.601,0.22,1.201,0.329,1.802c-0.495-0.08-0.991-0.167-1.487-0.262c-0.624,0.823-1.247,1.636-1.871,2.434
	c0.317-0.869,0.636-1.741,0.953-2.617c-0.496-0.104-0.991-0.214-1.487-0.334C56.005,57.233,56.697,56.802,57.39,56.354z
	 M51.782,46.138c0.412,0.293,0.824,0.578,1.236,0.856c0.666-0.683,1.333-1.384,1.999-2.101c-0.412,0.877-0.824,1.747-1.235,2.611
	c0.411,0.27,0.823,0.533,1.235,0.79c-0.666,0.284-1.332,0.552-1.999,0.802c-0.411,0.854-0.823,1.702-1.235,2.544
	c0-0.701,0-1.401-0.001-2.103c-0.666,0.228-1.332,0.436-1.998,0.622c0.667-0.619,1.333-1.261,1.999-1.921
	C51.783,47.538,51.783,46.838,51.782,46.138z"/>
<path fill="#7DC9CA" d="M68.78,19.208c0.567-0.94,1.135-1.883,1.701-2.825c0.567-0.119,1.134-0.237,1.701-0.354
	c-0.218-0.465-0.435-0.929-0.65-1.392c0.567-0.942,1.134-1.884,1.701-2.823c-0.701,0.651-1.401,1.307-2.103,1.962
	c-0.217-0.464-0.434-0.928-0.649-1.392c-0.216,0.869-0.433,1.737-0.649,2.606c-0.701,0.655-1.402,1.31-2.103,1.962
	c0.567-0.115,1.134-0.232,1.701-0.351C69.214,17.471,68.997,18.34,68.78,19.208z"/>
<path fill="#7DC9CA" d="M82.289,10.651c0.109,0.602,0.22,1.203,0.329,1.806c0.317-0.886,0.636-1.77,0.954-2.649
	c0.692-0.446,1.385-0.878,2.077-1.293c-0.496-0.12-0.992-0.231-1.487-0.334c0.318-0.876,0.637-1.749,0.955-2.619
	c-0.625,0.799-1.248,1.611-1.873,2.435c-0.496-0.094-0.99-0.182-1.486-0.262c0.109,0.601,0.219,1.202,0.328,1.803
	c-0.625,0.837-1.248,1.685-1.873,2.541C80.905,11.591,81.597,11.114,82.289,10.651z"/>
<path fill="#7DC9CA" d="M87.944,19.168c0.411,0.278,0.823,0.564,1.235,0.857c0-0.701,0-1.402,0-2.103
	c0.666-0.66,1.332-1.301,1.999-1.92c-0.667,0.187-1.333,0.394-1.999,0.621c0-0.701,0-1.401,0-2.103
	c-0.412,0.841-0.824,1.689-1.236,2.545c-0.666,0.25-1.332,0.518-1.999,0.801c0.411,0.258,0.823,0.521,1.235,0.792
	c-0.412,0.863-0.824,1.734-1.235,2.61C86.611,20.553,87.277,19.851,87.944,19.168z"/>
<path fill="#7DC9CA" d="M81.757,38.071c0.495-0.911,0.991-1.815,1.486-2.712c0.624-0.188,1.249-0.363,1.873-0.526
	c-0.318-0.379-0.636-0.755-0.954-1.127c0.496-0.888,0.99-1.768,1.486-2.639c-0.692,0.634-1.385,1.285-2.077,1.951
	c-0.317-0.369-0.636-0.735-0.953-1.099c-0.109,0.782-0.22,1.564-0.329,2.347c-0.692,0.684-1.385,1.379-2.077,2.087
	c0.624-0.221,1.249-0.433,1.874-0.635C81.977,36.503,81.867,37.287,81.757,38.071z"/>
<path fill="#7DC9CA" d="M70.481,53.778c0.216-0.868,0.433-1.736,0.648-2.604c0.701-0.656,1.401-1.311,2.103-1.963
	c-0.567,0.115-1.134,0.233-1.701,0.352c0.217-0.869,0.434-1.738,0.65-2.607c-0.566,0.941-1.134,1.883-1.7,2.825
	c-0.567,0.119-1.135,0.238-1.702,0.355c0.217,0.464,0.434,0.928,0.65,1.392c-0.566,0.942-1.135,1.884-1.701,2.823
	c0.701-0.652,1.402-1.308,2.103-1.963C70.048,52.852,70.265,53.314,70.481,53.778z"/>
<path fill="#7DC9CA" d="M55.847,60.6c0.624-0.798,1.247-1.61,1.871-2.434c0.496,0.095,0.992,0.182,1.487,0.262
	c-0.109-0.601-0.219-1.201-0.329-1.802c0.624-0.837,1.249-1.685,1.873-2.541c-0.692,0.487-1.384,0.963-2.075,1.427
	c-0.109-0.602-0.221-1.203-0.33-1.805c-0.318,0.885-0.637,1.768-0.954,2.647c-0.692,0.447-1.385,0.879-2.077,1.294
	c0.496,0.12,0.991,0.23,1.487,0.334C56.482,58.858,56.164,59.73,55.847,60.6z"/>
<path fill="#7DC9CA" d="M51.782,49.538c0.001,0.701,0.001,1.401,0.001,2.103c0.412-0.842,0.824-1.689,1.235-2.544
	c0.667-0.25,1.333-0.518,1.999-0.802c-0.412-0.257-0.824-0.521-1.235-0.79c0.411-0.864,0.823-1.734,1.235-2.611
	c-0.666,0.717-1.333,1.418-1.999,2.101c-0.412-0.278-0.824-0.563-1.236-0.856c0.001,0.7,0.001,1.4,0.001,2.102
	c-0.666,0.66-1.332,1.302-1.999,1.921C50.45,49.974,51.116,49.766,51.782,49.538z"/>
<path fill="#7DC9CA" d="M57.391,33.145c0.318,0.369,0.637,0.734,0.954,1.098c0.109-0.782,0.219-1.563,0.328-2.346
	c0.692-0.684,1.385-1.38,2.077-2.087c-0.625,0.221-1.248,0.432-1.873,0.633c0.109-0.783,0.219-1.566,0.328-2.35
	c-0.495,0.91-0.99,1.813-1.485,2.71c-0.625,0.188-1.249,0.365-1.874,0.528c0.318,0.379,0.637,0.753,0.955,1.125
	c-0.495,0.888-0.991,1.768-1.486,2.639C56.006,34.461,56.699,33.811,57.391,33.145z"/>
<path d="M70.481,98.176c-15.738,0-29.082,14.454-33.795,34.492c10.045,5.46,21.558,8.563,33.795,8.563
	c12.238,0,23.751-3.103,33.796-8.563C99.564,112.63,86.22,98.176,70.481,98.176z"/>
<g>
	<path fill="#FFFFFF" d="M77.771,83.961H63.194v8.953c0,0,0,10,7.287,10c7.289,0,7.289-10,7.289-10V83.961z"/>
	<path fill="#FFFFFF" d="M70.481,37.814v55.623c13.23,0,23.955-12.452,23.955-27.812S83.712,37.814,70.481,37.814z"/>
	<path fill="#F6F6F6" d="M46.526,65.626c0,15.359,10.726,27.812,23.955,27.812V37.814C57.252,37.814,46.526,50.267,46.526,65.626z"
		/>
	<circle cx="60.504" cy="65.626" r="2.095"/>
	<circle cx="80.459" cy="65.626" r="2.095"/>
</g>
</svg>
