<?xml version="1.0" encoding="utf-8"?>
<!-- Generator: Adobe Illustrator 16.0.0, SVG Export Plug-In . SVG Version: 6.00 Build 0)  -->
<!DOCTYPE svg PUBLIC "-//W3C//DTD SVG 1.1//EN" "http://www.w3.org/Graphics/SVG/1.1/DTD/svg11.dtd">
<svg version="1.1" id="Calque_1" xmlns="http://www.w3.org/2000/svg" xmlns:xlink="http://www.w3.org/1999/xlink" x="0px" y="0px"
	 width="141.732px" height="141.732px" viewBox="0 0 141.732 141.732" enable-background="new 0 0 141.732 141.732"
	 xml:space="preserve">
<circle fill="#009FE3" cx="70.866" cy="70.848" r="70.866"/>
<path d="M70.718,98.696c-15.738,0-29.083,14.453-33.796,34.492c10.045,5.459,21.559,8.563,33.796,8.563s23.751-3.104,33.796-8.563
	C99.801,113.149,86.455,98.696,70.718,98.696z"/>
<path fill="#FFFFFF" d="M78.006,84.481H63.43v8.953c0,0,0,10,7.288,10s7.288-10,7.288-10V84.481z"/>
<path fill="#FFFFFF" d="M70.718,38.334v55.624c13.229,0,23.955-12.453,23.955-27.812C94.673,50.787,83.947,38.334,70.718,38.334z"/>
<path fill="#F6F6F6" d="M46.763,66.146c0,15.359,10.726,27.812,23.955,27.812V38.334C57.488,38.334,46.763,50.787,46.763,66.146z"/>
<rect x="53.598" y="62.493" fill="#00405B" width="14.285" height="7.308"/>
<rect x="46.763" y="65.651" fill="#00405B" width="47.91" height="0.992"/>
<rect x="73.553" y="62.493" fill="#00405B" width="14.285" height="7.308"/>
<polygon fill="#7DC9CA" points="47.563,59.003 47.563,38.334 53.598,38.334 53.598,12.92 67.883,12.92 94.673,35.961 94.673,66.146 
	71.117,39.534 "/>
<polygon fill="#3363AC" points="71.117,39.534 94.673,35.961 94.673,66.146 "/>
<polygon fill="#00405B" points="53.598,38.334 71.117,39.534 53.598,12.92 "/>
<polygon fill="#EDEDED" points="71.117,39.534 67.883,12.92 53.598,12.92 "/>
</svg>
