<?xml version="1.0" encoding="utf-8"?>
<!-- Generator: Adobe Illustrator 16.0.0, SVG Export Plug-In . SVG Version: 6.00 Build 0)  -->
<!DOCTYPE svg PUBLIC "-//W3C//DTD SVG 1.1//EN" "http://www.w3.org/Graphics/SVG/1.1/DTD/svg11.dtd">
<svg version="1.1" id="Calque_1" xmlns="http://www.w3.org/2000/svg" xmlns:xlink="http://www.w3.org/1999/xlink" x="0px" y="0px"
	 width="141.732px" height="141.732px" viewBox="0 0 141.732 141.732" enable-background="new 0 0 141.732 141.732"
	 xml:space="preserve">
<path fill="#009FE3" d="M70.866,0C31.728,0,0,31.729,0,70.866c0,15.278,4.851,29.415,13.074,40.988
	c6.33-8.182,14.748-13.177,23.996-13.177c15.738,0,29.083,14.454,33.796,34.492c-5.259,2.858-10.924,5.063-16.882,6.522
	c5.412,1.323,11.063,2.04,16.882,2.04c39.139,0,70.866-31.729,70.866-70.866S110.005,0,70.866,0z"/>
<path fill="#3363AC" d="M37.07,98.678c-9.248,0-17.666,4.995-23.996,13.177c9.711,13.666,24.135,23.737,40.91,27.838
	c5.958-1.459,11.623-3.664,16.882-6.522C66.153,113.132,52.809,98.678,37.07,98.678z"/>
<g>
	<path fill="#FFFFFF" d="M44.359,84.463H29.783v8.953c0,0,0,10,7.287,10c7.289,0,7.289-10,7.289-10V84.463z"/>
	<path fill="#FFFFFF" d="M37.07,38.316v55.623c13.23,0,23.955-12.452,23.955-27.812S50.301,38.316,37.07,38.316z"/>
	<path fill="#F6F6F6" d="M13.115,66.128c0,15.359,10.726,27.812,23.955,27.812V38.316C23.841,38.316,13.115,50.769,13.115,66.128z"
		/>
	<circle cx="27.093" cy="66.128" r="2.095"/>
	<circle cx="47.048" cy="66.128" r="2.095"/>
</g>
<path fill="#7DC9CA" d="M37.07,28.316c-33.795,0-23.955,37.812-23.955,37.812l10.053-15.791h27.979l9.878,15.791
	C61.025,66.128,70.866,28.316,37.07,28.316"/>
<path d="M70.866,98.678c-15.738,0-29.083,14.454-33.796,34.492c10.045,5.46,21.559,8.563,33.796,8.563s23.751-3.103,33.796-8.563
	C99.949,113.132,86.604,98.678,70.866,98.678z"/>
<polygon fill="#00405B" points="70.866,31.907 46.911,28.316 46.911,66.128 94.821,66.128 94.821,28.316 "/>
<g>
	<path fill="#FFFFFF" d="M78.154,84.463H63.578v8.953c0,0,0,10,7.288,10s7.288-10,7.288-10V84.463z"/>
	<path fill="#FFFFFF" d="M70.866,38.316v55.623c13.229,0,23.955-12.452,23.955-27.812S84.096,38.316,70.866,38.316z"/>
	<path fill="#F6F6F6" d="M46.911,66.128c0,15.359,10.726,27.812,23.955,27.812V38.316C57.637,38.316,46.911,50.769,46.911,66.128z"
		/>
	<circle cx="60.889" cy="66.128" r="2.096"/>
	<circle cx="80.844" cy="66.128" r="2.096"/>
</g>
</svg>
