<?xml version="1.0" encoding="utf-8"?>
<!-- Generator: Adobe Illustrator 16.0.0, SVG Export Plug-In . SVG Version: 6.00 Build 0)  -->
<!DOCTYPE svg PUBLIC "-//W3C//DTD SVG 1.1//EN" "http://www.w3.org/Graphics/SVG/1.1/DTD/svg11.dtd">
<svg version="1.1" id="Calque_1" xmlns="http://www.w3.org/2000/svg" xmlns:xlink="http://www.w3.org/1999/xlink" x="0px" y="0px"
	 width="141.732px" height="157.818px" viewBox="0 0 141.732 157.818" enable-background="new 0 0 141.732 157.818"
	 xml:space="preserve">
<circle fill="#009FE3" cx="70.866" cy="78.909" r="70.866"/>
<g>
	<polygon fill="#7DC9CA" points="83.887,142.193 25.9,125.223 25.9,61.637 83.887,44.667 	"/>
	<polygon opacity="0.25" fill="#002D41" points="25.9,61.637 25.9,125.223 83.887,44.667 	"/>
	<polygon fill="#002D41" points="131.457,110.943 83.887,142.193 83.887,44.667 131.457,56.429 	"/>
	<polygon fill="#002D41" points="119.564,107.449 95.779,120.105 95.779,56.429 119.564,62.31 	"/>
	<polygon fill="#3363AC" points="25.9,61.637 54.894,15.977 83.887,44.667 	"/>
	<polygon fill="#7DC9CA" points="10.275,56.429 39.269,10.769 68.262,40.804 	"/>
	<polygon fill="#002D41" points="15.108,52.624 39.269,14.573 63.431,39.603 	"/>
	<polygon fill="#3363AC" points="54.894,15.977 112.881,36.811 131.457,56.429 83.887,44.667 	"/>
	<polygon fill="#3363AC" points="39.269,10.769 54.894,15.977 83.887,44.667 68.262,40.804 	"/>
	<polygon fill="#002D41" points="10.275,56.429 25.9,61.637 83.887,44.667 68.262,40.804 	"/>
	<polygon fill="#3363AC" points="10.275,85.813 25.9,85.813 83.887,85.813 68.262,84.142 	"/>
	<polygon fill="#7DC9CA" points="17.523,133.846 10.275,130.199 10.275,56.429 17.523,54.476 	"/>
	<polygon fill="#7DC9CA" points="68.262,157.818 57.396,152.543 57.396,43.731 68.262,40.804 	"/>
	<polygon fill="#3363AC" points="17.523,133.846 20.99,132.664 20.99,55.631 17.523,54.476 	"/>
	<polygon fill="#002D41" points="68.262,40.804 73.021,42.391 73.021,153.059 68.262,157.818 	"/>
	<polygon fill="#3363AC" points="15.108,52.624 20.316,51.22 41.667,17.058 39.269,14.573 	"/>
	<polygon fill="#7DC9CA" points="38.357,128.869 38.357,105.156 57.396,105.233 57.396,134.441 	"/>
	<polygon opacity="0.25" fill="#002D41" points="83.887,31.23 131.457,56.429 112.881,36.811 	"/>
	<polygon fill="#002D41" points="38.357,105.156 38.357,128.869 41.309,127.694 41.309,105.168 	"/>
	<polygon fill="#3363AC" points="41.309,127.694 38.357,128.869 57.396,134.441 57.396,131.837 	"/>
	<rect x="115.138" y="62.31" fill="#7DC9CA" width="4.427" height="44.986"/>
	<polygon fill="#3363AC" points="115.138,107.296 119.564,107.296 95.779,120.105 95.779,117.013 	"/>
	<polygon fill="#3363AC" points="115.138,62.31 119.564,62.31 95.779,56.429 95.779,58.163 	"/>
	<polygon fill="#002D41" points="83.887,85.813 83.887,72.052 73.021,70.489 73.021,84.651 	"/>
	<polygon fill="#7DC9CA" points="57.396,70.489 17.523,74.656 17.523,85.813 57.396,84.455 	"/>
	<polygon opacity="0.25" fill="#002D41" points="41.309,105.168 57.396,105.233 41.309,127.694 	"/>
	<polygon fill="#002D41" points="83.887,31.23 83.887,0 112.881,23.527 112.881,36.811 	"/>
	<polygon fill="#7DC9CA" points="54.894,15.977 83.887,0 83.887,31.23 	"/>
</g>
</svg>
