<svg xmlns="http://www.w3.org/2000/svg" width="40" height="40"><g transform="matrix(.337 0 0 .337 3.013 -326.565)"><path d="M83.492 1020.353c0-7.722 2.89-14.766 7.642-20.12-1.51-1.945-3.17-3.764-4.938-5.473-2.044.944-4.312 1.485-6.71 1.485-8.272 0-15.077-6.26-15.947-14.3-4.242-1.125-8.688-1.744-13.283-1.744-4.595 0-9.042.62-13.282 1.745-.87 8.04-7.675 14.3-15.946 14.3-2.4 0-4.668-.54-6.71-1.485-1.747 1.688-3.388 3.484-4.884 5.402 4.788 5.363 7.703 12.436 7.703 20.19 0 11.7-6.63 21.847-16.33 26.908 6.526 21.11 26.195 36.445 49.448 36.445 23.272 0 42.953-15.362 49.464-36.497-9.65-5.078-16.23-15.195-16.23-26.855z" fill="#bad2e1"/><path d="M19.776 996.252s-16.455-10.304-18.28-8.574c-1.825 1.73-1.433 9.185.416 16.016 1.85 6.83 4.726 11.944 17.214 9.848 12.49-2.097.65-17.29.65-17.29zM80.888 996.252s16.455-10.304 18.28-8.574c1.825 1.73 1.432 9.185-.416 16.016-1.85 6.83-4.726 11.944-17.214 9.848s-.65-17.29-.65-17.29z" fill="#bad2e1"/><circle r="34.277" cy="65.609" cx="294.788" transform="translate(-244.53 941.957)" fill="#bad2e1"/><path d="M101.865 1050.11c8.41-11.73 4.393-18.42 4.393-18.42-1.58-3.436-5.05-5.822-9.08-5.822-4.887 0-8.95 3.51-9.818 8.145.76-3.336 3.772-5.828 7.374-5.828 4.176 0 7.56 3.35 7.56 7.48 0 2.495-1.238 4.7-3.136 6.06-.668.453-1.32.773-1.923.996-.148.052-.296.103-.448.146l.003.01c-1.723.53-2.97.295-2.97.295-2.455-.16-4.65-1.768-7.114-3.578-2.047-1.503-3.15-2.708-4.18-3.697-1.97-1.897-8.217-7.905-16.073-8.198-1.227-.046-5.93-.152-10.288 3.054-.702.517-4.687 3.56-5.91 8.457-1.224-4.896-5.21-7.94-5.91-8.456-4.358-3.205-9.06-3.1-10.288-3.053-7.856.293-14.102 6.3-16.074 8.198-1.028.99-2.132 2.194-4.18 3.697-2.463 1.81-4.657 3.418-7.113 3.58 0 0-1.246.233-2.97-.296l.003-.01c-.152-.042-.3-.093-.448-.145-.604-.222-1.255-.543-1.923-.995-1.898-1.36-3.137-3.564-3.137-6.06 0-4.13 3.385-7.48 7.56-7.48 3.603 0 6.615 2.492 7.375 5.828-.866-4.635-4.93-8.145-9.818-8.145-4.03 0-7.498 2.386-9.08 5.82 0 0-4.016 6.69 4.388 18.413l.038.055c.147.204.296.41.45.616.086.116.173.228.26.34 0 0 .003.01.005.01 9.034 11.786 21.783 11.624 21.783 11.624l-.01-.01c.68.046 1.362.076 2.053.076 11.864 0 22.124-6.863 27.034-16.834 4.91 9.97 15.17 16.834 27.035 16.834.69 0 1.373-.03 2.052-.076l-.01.01s13 .167 22.047-11.97c.155-.21.306-.417.454-.623.012-.012.022-.026.03-.04z" fill="#5792a7"/></g></svg>