<svg xmlns="http://www.w3.org/2000/svg" width="31" height="31"><path d="M15.594.53c-3.972 0-7.35 2.5-8.688 6-.942-.575-4.137-2.496-4.562-2.093-.496.47-.378 2.52.125 4.375.462 1.712 1.168 2.973 3.936 2.72.015.065.05.12.063.187.003.02-.005.04 0 .06.093.5.124 1.037.124 1.564 0 3.178-1.802 5.906-4.438 7.28 1.773 5.735 7.12 9.907 13.438 9.907 6.32 0 11.67-4.164 13.437-9.905-2.62-1.38-4.405-4.114-4.405-7.28 0-.617.06-1.237.188-1.814 2.768.255 3.505-1.006 3.968-2.717.503-1.856.59-3.906.095-4.376-.425-.403-3.62 1.518-4.563 2.094-1.337-3.502-4.745-6-8.718-6z" fill="#bad2e1"/><path d="M29.613 21.41c2.285-3.184 1.194-5.002 1.194-5.002-.43-.933-1.373-1.58-2.467-1.58-1.327 0-2.43.952-2.667 2.21.207-.905 1.025-1.582 2.003-1.582 1.135 0 2.054.91 2.054 2.032 0 .678-.337 1.277-.852 1.646-.182.123-.358.21-.522.27-.04.014-.08.028-.122.04-.467.143-.806.08-.806.08-.667-.044-1.263-.48-1.932-.973-.557-.407-.856-.734-1.136-1.003-.535-.515-2.232-2.147-4.366-2.227-.333-.013-1.61-.04-2.794.83-.19.14-1.274.967-1.606 2.297-.332-1.33-1.415-2.157-1.605-2.297-1.185-.87-2.462-.842-2.796-.83-2.134.08-3.83 1.712-4.366 2.227-.28.27-.58.596-1.135 1.004-.67.493-1.265.93-1.933.973 0 0-.338.064-.806-.08-.04-.01-.08-.025-.12-.04-.165-.06-.342-.146-.523-.27-.515-.368-.852-.967-.852-1.645 0-1.122.92-2.032 2.054-2.032.98 0 1.797.677 2.003 1.583-.235-1.26-1.34-2.213-2.667-2.213-1.094 0-2.036.648-2.466 1.58 0 0-1.09 1.818 1.192 5.002.003 0 .007.01.01.014l.122.167.07.093h.002c2.454 3.202 5.917 3.158 5.917 3.158h-.002c.184.014.37.022.557.022 3.223 0 6.01-1.865 7.344-4.573 1.334 2.707 4.12 4.572 7.344 4.572.187 0 .373-.01.557-.02h-.002s3.53.044 5.988-3.253c.044-.058.085-.114.125-.17.003 0 .006-.01.008-.01z" fill="#5792a7"/></svg>