<svg xmlns="http://www.w3.org/2000/svg" width="2000" height="600"><path d="M2.76 255.642l1994.28 336.693 6.728-575.363L2.26 128.497z" fill="#cadbe5" fill-opacity=".098"/><path fill="#9f1a1c" d="M1051.487 1200.1h127.398v16.343h-127.398z"/><path fill="#f8b15d" d="M1065.253 1239.636l103.6-.03 5.6-23.163h-113.4"/><path d="M1142.797 963.333s23.645-45.066 36.088-43.774c0 0-50.4 102.097-38.578 122.774l2.49-79zM1093.565 1093.654s1.245-84.16-36.712-98.64c0 0 57.245 2.696 67.2 53.235 9.954 50.537-30.488 45.404-30.488 45.404z" fill="#458584"/><path d="M1092.94 1200.1s-14.932-144.915-69.686-118.973c-54.754 25.942 34.845-63.223 63.466-15.41 28.62 47.813 36.087-176.962-44.8-139.532-80.887 37.43 58.488-66.792 93.332-3.695 34.845 63.096 8.09 148.706 8.09 148.706s3.17-68.02 55.998-71.906c0 0-79.332 142.57-56.933 200.78l-49.466.03z" fill="#4eb5ce"/><g><g transform="matrix(1.8666 0 0 1.9386 -1478.797 -412.007)"><path fill="#f08356" d="M999.583 818.908h150v5.89h-150z"/><path fill="#ed674f" d="M1009 824.798h131.5v27.194H1009z"/><path fill="#f3975b" d="M1018.5 830h113v21.992h-113z"/><circle r="3.845" cy="842.24" cx="1075" fill="#9f1a1c"/></g><g fill="#09566d"><path d="M557.273 1174.99H442.166l19.91-30.9 87.11-3.866"/><path d="M495.6 1147.112l15.865-19.87 22.866-2.91 8.867 25.688-47.598-1.454"/></g></g><g><path fill="#93b2c2" d="M-1.608 391.986v-33.95l131.697 4.725-28.128 29.475"/><path fill="#849097" d="M175.256-5.42l-28 347.048-13.066-1.014L161.02-5.17"/><path fill="#eaf1f5" d="M-1.608 346.52V-5.17h163.56l-24.044 346.798"/><path fill="#b2c1cb" d="M1.468 93.05l.657-98.47h138.832l-7.934 102.614M2.125 314.444V97.194l132.065 9.324-11.978 205.444"/><path fill="#fabd64" d="M4.546 311.76L6.48 102.493l123.61 6.992-10.99 198.496"/><path fill="#f6a55a" d="M4.546 311.76L6.48 102.493 100.7 308.59"/><path fill="#fabd64" d="M6.92 87.487l.337-92.673L136.99-5.42l-6.9 98.47"/><path fill="#f6a55a" d="M6.92 87.487l.337-92.673 64.697-.235 58.135 98.47"/><path fill="#eaf1f5" d="M2.125 312.955L4.545-5.42h-6.153v322.77"/><path fill="#9f1a1c" d="M152.39 367.124L-1.608 364.93v-24.316l156.33-7.27"/><path fill="#849097" d="M101.057-5.42h2.727v202.904h-2.727z"/><path fill="#d6e1e8" d="M-1.608 52.46v18.206L151.137 65.4l-.58-18.187M-1.608 24.315v18.2l152.333 2.983.33-18.194M-1.608-1.757v18.2l154.436 3.023.33-18.193"/><path fill="#d6e7f1" d="M106.19 210.488l-6.533-1.212v-11.792h6.533"/><path fill="#d6e1e8" d="M-1.608 88.148v18.37l152.63-21.948-2.405-18.025"/></g><g><path fill="#bac6cd" d="M1615.587 871.995h238.053v150.983h-238.053z"/><path fill="#eaf1f5" d="M1621.49 880.97h224.644v129.83H1621.49z"/><path fill="#cde1ed" d="M1767.027 1011.187l-145.536-.387V880.97"/></g></svg>