<?xml version="1.0" encoding="utf-8"?>
<!-- Generator: Adobe Illustrator 16.0.0, SVG Export Plug-In . SVG Version: 6.00 Build 0)  -->
<!DOCTYPE svg PUBLIC "-//W3C//DTD SVG 1.1//EN" "http://www.w3.org/Graphics/SVG/1.1/DTD/svg11.dtd">
<svg version="1.1" id="Calque_1" xmlns="http://www.w3.org/2000/svg" xmlns:xlink="http://www.w3.org/1999/xlink" x="0px" y="0px"
	 width="141.732px" height="141.732px" viewBox="0 0 141.732 141.732" enable-background="new 0 0 141.732 141.732"
	 xml:space="preserve">
<circle fill="#009FE3" cx="70.866" cy="70.866" r="70.866"/>
<g>
	<polygon fill="#00405B" points="34.172,44.174 46.636,41.731 95.992,41.731 108.359,44.174 	"/>
	<rect x="34.172" y="44.174" fill="#00405B" width="74.188" height="74.187"/>
	<polygon fill="#009FE3" points="34.172,118.36 71.266,81.267 34.172,44.174 	"/>
	<polygon fill="#3363AC" points="108.359,44.174 71.266,81.267 108.359,118.36 	"/>
	<polygon fill="#7DC9CA" points="34.172,44.174 71.266,81.267 108.359,44.174 	"/>
	<path fill="#0056A4" d="M71.29,27.988c-11.29,0-12.315,13.743-12.315,13.743h24.679C83.653,41.731,82.579,27.988,71.29,27.988z
		 M65.145,41.731c0,0,0.513-6.872,6.157-6.872s6.182,6.872,6.182,6.872H65.145z"/>
	<path fill="#7DC9CA" d="M71.288,29.209c12.29,0,13.461,14.96,13.462,14.965h13.436c0,0-2.339-29.929-26.925-29.929
		c-24.585,0-26.818,29.929-26.818,29.929h13.436C57.879,44.169,58.997,29.209,71.288,29.209z"/>
	<path fill="#00405B" d="M57.878,44.174l7.267-2.442c0,0,0.656-6.872,6.157-6.872v-6.871C71.302,27.988,57.878,27.973,57.878,44.174
		z"/>
	<path fill="#3363AC" d="M84.726,44.174l-7.267-2.442c0,0-0.656-6.872-6.157-6.872v-6.871
		C71.302,27.988,84.726,27.973,84.726,44.174z"/>
	<rect x="44.442" y="54.444" fill="#7DC9CA" width="53.646" height="53.646"/>
	<path fill="#009FE3" d="M87.226,97.228L75.438,80.89c2.497-1.444,4.181-4.137,4.181-7.229c0-4.613-3.74-8.354-8.354-8.354
		c-4.614,0-8.353,3.74-8.353,8.354c0,3.093,1.683,5.785,4.18,7.229L55.306,97.228H87.226z"/>
	<path fill="#00405B" d="M83.226,95.728L72.297,79.998c2.342-0.462,4.108-2.526,4.108-5.004c0-2.818-2.283-5.103-5.102-5.103
		s-5.102,2.284-5.102,5.103c0,2.481,1.771,4.547,4.119,5.005L59.306,95.728H83.226z"/>
</g>
</svg>
