<svg xmlns="http://www.w3.org/2000/svg" width="250" height="250"><path d="M246.275 124.083c0 66.668-54.044 120.712-120.712 120.712-66.667 0-120.71-54.044-120.71-120.712C4.852 57.416 58.895 3.37 125.562 3.37c66.668 0 120.712 54.046 120.712 120.713z" fill="#c5d8e3"/><path fill="#007681" d="M64.162 38.178L78.8 244.292h79.304l5.49-209.577"/><path fill="#002225" d="M68.92 51.723l19.295 192.57h64.57l5.26-197.86"/><path fill="#003c40" d="M158.044 107.55V37.47l-88.1 4.595 3.86 63.644"/><path fill="#0093a1" d="M156.823 107.55V37.47l-88.5 4.595 3.88 63.644"/><path fill="#004549" d="M121.096 68.605l1.157-15.28-23.24 1.724v13.555"/><path fill="#eaf1f5" d="M119.593 67.11V55.566l-18.21 1.264-.75 10.28"/><path fill="#e8f1f7" d="M124.515 82.083l-33.453-.69v-5.82l33.453-.727"/><path fill="#bac6cd" d="M131.375 81.164l-6.86.92v-7.238l7.014 2.45"/><path fill="#004549" d="M133.99 125.567l21.917 1.077-1.215 45.97-25.365-.81"/><path fill="#002225" d="M131.54 169.935l23.21.43.038-1.383-23.102-1.1"/><path fill="#003336" d="M131.8 167.212l21.807.546.096-1.392-21.757-.524"/><path fill="#fffbf5" d="M155.245 126.585l-20.56-1.018.628-8.86 20.276 1.757"/><path fill="#e94c2d" d="M135.432 115.017l-.082 1.167.72-.21-.153-.957"/><path fill="#cb3925" d="M135.71 115.884l.248-.61 6.02.302-.55 10.334h-.954l.578-8.69-4.524-.39"/><path fill="#e94c2d" d="M138.88 125.78l-4.195-.213.707-9.99 3.916.302"/><path fill="#4eb5ce" d="M147.267 117.742l-4.182-1.745.23-1.496 8.133-.23-.503 12.122-1.193-.06.386-8.27"/><path fill="#f8b15d" d="M141.955 115.997h3.057l-.404 10.068-.81-.035.077-8.562-1.988-.193"/><path fill="#e94c2d" d="M145.57 126.12l-.962-.055.404-9.88h1.31"/><path fill="#cb3925" d="M146.296 116.535l-.726 9.585.655.033 1.1-9.447"/><path fill="#007e96" d="M151.95 115.814l.26-.663h3.44l-.06 3.314-3.435-.298"/><path fill="#f8b15d" d="M153.77 118.306l-2.48-.215.097-2.332 2.383.24"/><path fill="#007e96" d="M155.245 126.585l.344-8.12-.534-.04-.32 8.16"/><path fill="#e94c2d" d="M151.334 117.032l1.916.187v9.277l-.653-.043-.067-8.256-1.24-.107"/><path fill="#cb3925" d="M138.956 114.434l.52 1.142-3.18-.223.435-.92"/><path fill="#4eb5ce" d="M147.902 114.71l-.578-1.3h-1.946l-.366 1.3 2.89.078"/><path fill="#f8b15d" d="M142.6 116.272v-.088l-.363-1.033-1.055-.133-.13.513.925.046-.022.42"/><path fill="#003c40" d="M50.436 113.14l-1.422 53.78 82.394 4.885 4.146-58.512"/><path fill="#0093a1" d="M133.473 111.284l-90.452-.154 3.254 56.598 83.053 2.068"/><path fill="#004549" d="M96.102 146.38l.682-16.162-22.11.69-1.13 14.59"/><path fill="#eaf1f5" d="M94.56 144.617v-12.713l-18.267.555-1.13 11.544"/><path fill="#e8f1f7" d="M101.463 160.796l-33.957-.65v-6.894l33.966.306"/><path fill="#bac6cd" d="M107.4 160.008l-5.937.788.01-7.238 5.92 1.245"/><path fill="#002225" d="M134.446 128.937l-.19 2.686 18.994.837-.55 37.145 2.088-.623 1.027-39.096"/><path fill="#007681" d="M131.762 168.446l22.794.546.1-1.392-22.742-.523"/><path fill="#fffbf5" d="M126.832 179.42l24.046 1.862-.613 20.527-25.032 1.556"/><path fill="#f8b15d" d="M133.112 176.445l.886-1.927h4.436l.575 2.235"/><path fill="#f5a159" d="M149.626 181.204l-.713-2.967-7.724-.2-.25 2.57"/><path fill="#4eb5ce" d="M143.028 191.37l1.483-11.697h-8.21v.565l6.958.556-.792 10.55"/><path fill="#f8b15d" d="M138.067 180.515l-10.05-.453-14.87-1.035 1.043-2.748h27.17l-1.465 15.09-2.463-.512"/><path fill="#e94c2d" d="M134.153 190.55l.944-11.696h-8.213l-.17 1.242 7.093.368-.755 10.06"/><path fill="#fffbf5" d="M126.858 180.096l5.868-.144v.81M137.467 181.204l1.542.964-1.543 4.817"/><path fill="#e94c2d" d="M144.436 180.262l3.292.095-.506 10.812-.75-.035.765-10.1-2.862-.215"/><path fill="#cb3925" d="M119.565 179.202l-1.275-2.1-4.042-.238-.858 2.433"/><path fill="#e94c2d" d="M123.94 178.595l-.22-1.848-7.015-.468-.59 2.52-8.63.224-2.616 37.165 19.403 1.105 2.674-38.78"/><path fill="#004549" d="M101.824 244.005h48.157l1.392-52.647-45.694-2.08"/><path fill="#002225" d="M150.026 240.652l-46.782-1.39-.12 1.696 46.902 1.367"/><path fill="#003336" d="M150.026 237.163l-46.507-1.06-.185 1.863 46.69.87"/><path fill="#f5a159" d="M146.37 178.282l-.29-1.53h-4.176l-.163 1.68"/><path fill="#cb3925" d="M94.716 174.873l1.128-1.193h5.23l.75 1.374"/><path fill="#f5a159" d="M113.808 177.285h-3.13l-.613-1.225h-2.37l-.21 2.964 5.72-.15"/><path fill="#cb3925" d="M109.718 178.966l-.867-2.102h-1.212l-.152 2.16M123.88 178.08l1.353-.135v.616l-1.293.035"/><path fill="#4eb5ce" d="M141.904 180.053l-.347-1.055h-.462l-.102 1.055"/><path fill="#cb3925" d="M107.333 181.204l8.575.656-1.104 7.834-8.044-.366"/><path fill="#f8b15d" d="M146.485 191.148l.867-10.502h-2.958l-.06.424 2.363.385-.56 9.664"/><path fill="#007e96" d="M135.017 179.837l-.827 10.74.676-.028 1.194-10.598"/><path fill="#002225" d="M145.843 240.548l.528-42.906-40.05-2.072.132-1.86 44.812 1.74-1.238 45.202"/><path fill="#003c40" d="M13.877 172.763l7.13 71.242h81.904l4.85-68.853"/><path fill="#0093a1" d="M11.796 172.763l7.13 71.242h81.903l4.848-68.853"/><path fill="#004549" d="M45.606 193.112l.72 15.377 21.402 1.04 1.838-16.418"/><path fill="#eaf1f5" d="M47.945 194.962v12.024l18.434.925.527-12.544"/><path fill="#e8f1f7" d="M38.86 216.145h33.1l-.008 7.284-32.86-.488"/><path fill="#bac6cd" d="M71.96 216.145l6.424 1.478-.068 4.956-6.364.85"/><path fill="#007681" d="M149.73 238.844l-46.382-1.018-.104 1.435 46.446 1.435"/><path d="M161.62 238.972l-3.525 1.306 5.13-205.184z" fill="#004549"/><path d="M163.446 34.696l-2.123 204.448c11.375-3.568 21.997-8.802 31.644-15.37l2.477-82.943V52.11l-31.998-17.414z" fill="#004549"/></svg>