<?xml version="1.0" encoding="UTF-8" standalone="no"?>
<!-- Created with Inkscape (http://www.inkscape.org/) -->

<svg
   xmlns:dc="http://purl.org/dc/elements/1.1/"
   xmlns:cc="http://creativecommons.org/ns#"
   xmlns:rdf="http://www.w3.org/1999/02/22-rdf-syntax-ns#"
   xmlns:svg="http://www.w3.org/2000/svg"
   xmlns="http://www.w3.org/2000/svg"
   xmlns:sodipodi="http://sodipodi.sourceforge.net/DTD/sodipodi-0.dtd"
   xmlns:inkscape="http://www.inkscape.org/namespaces/inkscape"
   width="150"
   height="150"
   id="svg2"
   version="1.1"
   inkscape:version="0.48.4 r9939"
   sodipodi:docname="unlimited.svg">
  <defs
     id="defs4" />
  <sodipodi:namedview
     id="base"
     pagecolor="#ffffff"
     bordercolor="#666666"
     borderopacity="1.0"
     inkscape:pageopacity="0.0"
     inkscape:pageshadow="2"
     inkscape:zoom="1.4"
     inkscape:cx="-6.4779208"
     inkscape:cy="137.71474"
     inkscape:document-units="px"
     inkscape:current-layer="layer1"
     showgrid="false"
     inkscape:window-width="1280"
     inkscape:window-height="748"
     inkscape:window-x="0"
     inkscape:window-y="0"
     inkscape:window-maximized="1" />
  <metadata
     id="metadata7">
    <rdf:RDF>
      <cc:Work
         rdf:about="">
        <dc:format>image/svg+xml</dc:format>
        <dc:type
           rdf:resource="http://purl.org/dc/dcmitype/StillImage" />
        <dc:title></dc:title>
      </cc:Work>
    </rdf:RDF>
  </metadata>
  <g
     inkscape:label="Layer 1"
     inkscape:groupmode="layer"
     id="layer1"
     transform="translate(0,-902.36218)">
    <circle
       d="m 582.56201,114.053 c 0,41.42136 -33.57864,75 -75,75 -41.42135,0 -75,-33.57864 -75,-75 0,-41.421355 33.57865,-74.999999 75,-74.999999 41.42136,0 75,33.578644 75,74.999999 z"
       style="fill:#b5daef"
       sodipodi:ry="75"
       sodipodi:rx="75"
       sodipodi:cy="114.053"
       sodipodi:cx="507.56201"
       cx="507.56201"
       cy="114.053"
       r="75"
       id="circle70378"
       transform="matrix(0.97642977,0,0,0.97642977,-420.08976,865.80764)" />
    <path
       style="fill:#ed6e1c"
       inkscape:connector-curvature="0"
       d="m 75.526455,1050.59 c 36.405205,0 66.592515,-26.5696 72.261665,-61.3714 H 3.2647937 c 5.669151,34.8018 35.8564543,61.3714 72.2616613,61.3714 z"
       id="path70380" />
    <rect
       style="fill:#2d82a1"
       x="13.831666"
       y="976.65088"
       width="3.7426553"
       height="35.263763"
       id="rect70382" />
    <path
       style="fill:#2d82a1"
       inkscape:connector-curvature="0"
       d="m 21.643155,983.82188 v 41.15152 c 13.37904,15.8572 32.552215,25.8031 53.866701,25.8031 21.314481,0 40.487664,-9.9459 53.866704,-25.8031 V 983.82188 H 21.643155 z"
       id="path70384" />
    <rect
       style="fill:#004a5f"
       x="36.094315"
       y="990.57178"
       width="78.830109"
       height="11.875339"
       id="rect70540" />
    <rect
       style="fill:#ffffff"
       x="43.431187"
       y="924.19897"
       width="64.156319"
       height="72.311462"
       id="rect70542" />
    <rect
       style="fill:#b5daef"
       x="49.918568"
       y="942.26294"
       width="52.605156"
       height="2.9292893"
       id="rect70544" />
    <rect
       style="fill:#b5daef"
       x="89.341911"
       y="945.19226"
       width="1.0984834"
       height="51.318218"
       id="rect70546" />
    <rect
       style="fill:#b5daef"
       x="81.652527"
       y="945.19226"
       width="1.0984834"
       height="51.318218"
       id="rect70548" />
    <rect
       style="fill:#b5daef"
       x="74.410355"
       y="945.19226"
       width="1.0984834"
       height="51.318218"
       id="rect70550" />
    <rect
       style="fill:#b5daef"
       x="101.42522"
       y="945.19226"
       width="1.0984834"
       height="51.318218"
       id="rect70552" />
    <rect
       style="fill:#b5daef"
       x="49.918568"
       y="945.19226"
       width="1.0984834"
       height="51.318218"
       id="rect70554" />
    <rect
       style="fill:#b5daef"
       x="62.001888"
       y="945.19226"
       width="1.0984834"
       height="51.318218"
       id="rect70556" />
    <rect
       style="fill:#69a5c1"
       x="64.442955"
       y="947.51123"
       width="7.8114381"
       height="1.3425909"
       id="rect70558" />
    <rect
       style="fill:#69a5c1"
       x="79.211449"
       y="932.49866"
       width="13.365371"
       height="1.3425909"
       id="rect70560" />
    <rect
       style="fill:#b5daef"
       x="87.938766"
       y="926.82269"
       width="14.036178"
       height="3.2954504"
       id="rect70562" />
    <rect
       style="fill:#b5daef"
       x="58.21822"
       y="930.1181"
       width="5.8995886"
       height="3.7231266"
       id="rect70564" />
    <rect
       style="fill:#69a5c1"
       x="79.211449"
       y="935.00024"
       width="10.680188"
       height="1.3425909"
       id="rect70566" />
    <rect
       style="fill:#69a5c1"
       x="79.211449"
       y="937.50287"
       width="10.680188"
       height="1.3425909"
       id="rect70568" />
    <rect
       style="fill:#69a5c1"
       x="64.442955"
       y="958.37402"
       width="8.7068243"
       height="1.3425909"
       id="rect70570" />
    <rect
       style="fill:#69a5c1"
       x="64.442955"
       y="961.11975"
       width="8.7068243"
       height="1.3425909"
       id="rect70572" />
    <rect
       style="fill:#69a5c1"
       x="64.442955"
       y="963.64191"
       width="4.3529243"
       height="1.3425909"
       id="rect70574" />
    <rect
       style="fill:#69a5c1"
       x="64.442955"
       y="950.13495"
       width="4.9436641"
       height="1.3425909"
       id="rect70576" />
    <rect
       style="fill:#69a5c1"
       x="52.145809"
       y="947.51123"
       width="4.9436641"
       height="1.3425909"
       id="rect70578" />
    <rect
       style="fill:#69a5c1"
       x="51.901703"
       y="958.37402"
       width="3.8754499"
       height="1.3425909"
       id="rect70580" />
    <rect
       style="fill:#69a5c1"
       x="76.495995"
       y="958.37402"
       width="3.0816123"
       height="1.3425909"
       id="rect70582" />
    <rect
       style="fill:#69a5c1"
       x="84.856194"
       y="958.37402"
       width="3.0816123"
       height="1.3425909"
       id="rect70584" />
    <rect
       style="fill:#69a5c1"
       x="84.856194"
       y="947.51123"
       width="3.0816123"
       height="1.3425909"
       id="rect70586" />
    <rect
       style="fill:#69a5c1"
       x="64.442955"
       y="970.91437"
       width="7.8114381"
       height="1.3425909"
       id="rect70588" />
    <rect
       style="fill:#69a5c1"
       x="64.442955"
       y="973.539"
       width="4.9436641"
       height="1.3425909"
       id="rect70590" />
    <rect
       style="fill:#69a5c1"
       x="96.665138"
       y="950.13495"
       width="4.2113419"
       height="1.3425909"
       id="rect70592" />
    <rect
       style="fill:#69a5c1"
       x="97.397461"
       y="952.88159"
       width="3.4790192"
       height="1.3425909"
       id="rect70594" />
    <rect
       style="fill:#69a5c1"
       x="97.947174"
       y="947.51123"
       width="2.9292893"
       height="1.3425909"
       id="rect70596" />
    <rect
       style="fill:#69a5c1"
       x="96.665138"
       y="958.37402"
       width="4.2113419"
       height="1.3425909"
       id="rect70598" />
    <rect
       style="fill:#69a5c1"
       x="97.397461"
       y="961.11975"
       width="3.4790192"
       height="1.3425909"
       id="rect70600" />
    <rect
       style="fill:#69a5c1"
       x="97.947174"
       y="955.74939"
       width="2.9292893"
       height="1.3425909"
       id="rect70602" />
    <rect
       style="fill:#69a5c1"
       x="96.665138"
       y="966.61218"
       width="4.2113419"
       height="1.3425909"
       id="rect70604" />
    <rect
       style="fill:#69a5c1"
       x="97.397461"
       y="969.35889"
       width="3.4790192"
       height="1.3425909"
       id="rect70606" />
    <rect
       style="fill:#69a5c1"
       x="97.947174"
       y="963.98853"
       width="2.9292893"
       height="1.3425909"
       id="rect70608" />
    <rect
       style="fill:#69a5c1"
       x="96.665138"
       y="974.85132"
       width="4.2113419"
       height="1.3425909"
       id="rect70610" />
    <rect
       style="fill:#69a5c1"
       x="97.397461"
       y="977.59705"
       width="3.4790192"
       height="1.3425909"
       id="rect70612" />
    <rect
       style="fill:#69a5c1"
       x="97.947174"
       y="972.22668"
       width="2.9292893"
       height="1.3425909"
       id="rect70614" />
    <rect
       style="fill:#ed6e1c"
       x="49.918568"
       y="929.20319"
       width="6.4688473"
       height="6.4688473"
       id="rect70616" />
    <path
       style="fill:#4ea4c8"
       inkscape:connector-curvature="0"
       d="m 21.643155,1015.7393 v 11.3862 c 13.37904,14.5351 32.552215,23.651 53.866701,23.651 21.314481,0 40.487664,-9.1169 53.866704,-23.651 v -11.3862 H 21.643155 z"
       id="path70618" />
    <rect
       style="fill:#006b89"
       x="10.780323"
       y="977.42419"
       width="3.051343"
       height="1.9938697"
       id="rect70620" />
    <path
       style="fill:#004d61"
       inkscape:connector-curvature="0"
       d="M 10.780373,975.8171 H 2.3117982 c -0.00781,0.45209 -0.034175,0.90027 -0.034175,1.35529 0,1.29279 0.035151,2.5768 0.1015487,3.85299 h 8.4012011 v -5.20828 z"
       id="path70622" />
    <path
       style="fill:#88beda"
       inkscape:connector-curvature="0"
       d="M 21.643155,1005.7426 H 9.7629336 v 0.01 c -0.00684,0 -0.01367,-0.01 -0.020505,-0.01 -0.2860939,0 -0.5448478,0.8017 -0.7332987,2.0974 1.9997282,4.3285 4.4076042,8.4276 7.1777352,12.2503 h 5.455313 v -14.3477 z"
       id="path70624" />
  </g>
</svg>
