<svg xmlns="http://www.w3.org/2000/svg" width="150" height="150"><g transform="translate(-407.297 -32.228) scale(.9496)"><circle r="75" cy="114.053" cx="507.562" fill="#fabe74"/><path d="M507.58 189.243c37.284 0 68.2-27.21 74.006-62.853H433.574c5.806 35.642 36.722 62.853 74.006 62.853z" fill="#ee7246"/><path fill="#b5daef" d="M444.396 113.52h3.833v36.114h-3.834z"/><path d="M452.396 120.863v42.145c13.702 16.24 33.338 26.426 55.167 26.426 21.83 0 41.465-10.186 55.167-26.426v-42.145H452.396z" fill="#2b7c8e"/><path fill="#013e40" d="M467.196 127.776h80.733v12.162h-80.734z"/><path fill="#fff" d="M474.71 59.8h65.705v74.058H474.71z"/><path fill="#b5daef" d="M481.354 78.3h53.875v3h-53.876zM521.73 81.3h1.124v52.558h-1.125zM513.854 81.3h1.125v52.558h-1.126zM506.437 81.3h1.125v52.558h-1.125zM534.104 81.3h1.125v52.558h-1.126zM481.354 81.3h1.125v52.558h-1.126zM493.73 81.3h1.124v52.558h-1.125z"/><path fill="#69a5c1" d="M496.23 83.676h8v1.375h-8zM511.354 68.3h13.688v1.376h-13.688z"/><path fill="#b5daef" d="M520.292 62.488h14.375v3.375h-14.375zM489.854 65.863h6.042v3.813h-6.042z"/><path fill="#69a5c1" d="M511.354 70.863h10.938v1.375h-10.938zM511.354 73.426h10.938V74.8h-10.938zM496.23 94.8h8.916v1.376h-8.917zM496.23 97.613h8.916v1.375h-8.917zM496.23 100.196h4.457v1.375h-4.458zM496.23 86.363h5.062v1.375h-5.063zM483.635 83.676h5.063v1.375h-5.063zM483.385 94.8h3.97v1.376h-3.97zM508.573 94.8h3.156v1.376h-3.157zM517.135 94.8h3.156v1.376h-3.155zM517.135 83.676h3.156v1.375h-3.155zM496.23 107.644h8v1.375h-8zM496.23 110.332h5.062v1.375h-5.063zM529.23 86.363h4.312v1.375h-4.313zM529.98 89.176h3.562v1.375h-3.563zM530.542 83.676h3v1.375h-3zM529.23 94.8h4.312v1.376h-4.313zM529.98 97.613h3.562v1.375h-3.563zM530.542 92.113h3v1.375h-3zM529.23 103.238h4.312v1.375h-4.313zM529.98 106.05h3.562v1.376h-3.563zM530.542 100.55h3v1.376h-3zM529.23 111.676h4.312v1.375h-4.313zM529.98 114.488h3.562v1.375h-3.563zM530.542 108.988h3v1.375h-3z"/><path fill="#fabe74" d="M481.354 64.926h6.625v6.625h-6.626z"/><path d="M452.396 153.55v11.662c13.702 14.886 33.338 24.222 55.167 24.222 21.83 0 41.465-9.337 55.167-24.222v-11.66H452.396z" fill="#58a3b6"/><path fill="#88beda" d="M441.27 114.31h3.126v2.043h-3.125z"/><g><path d="M507.562 39.053c-40.956 0-74.222 32.834-74.965 73.612h8.673v5.333h-8.604c2.052 39.587 34.798 71.054 74.896 71.054 41.42 0 75-33.58 75-75s-33.578-75-75-75z" fill="none"/><path d="M441.27 112.665H432.6c-.008.463-.035.922-.035 1.388 0 1.324.036 2.64.104 3.946h8.604v-5.335z" fill="#004d61"/></g><g><path d="M507.562 39.053c-41.42 0-75 33.58-75 75 0 11.218 2.48 21.852 6.895 31.408.192-1.326.458-2.147.75-2.147.008 0 .015.006.022.007v-.007h12.166v14.693h-5.587c13.627 18.804 35.754 31.046 60.753 31.046 41.42 0 75-33.58 75-75s-33.58-75-75-75z" fill="none"/><path d="M452.396 143.313H440.23v.007c-.008 0-.015-.007-.022-.007-.293 0-.558.82-.75 2.148 2.047 4.434 4.513 8.632 7.35 12.547h5.587v-14.694z" fill="#88beda"/></g></g></svg>