<svg xmlns="http://www.w3.org/2000/svg" width="250" height="250"><path fill="#007681" d="M158.104 244.292l5.49-209.577-99.432 3.463L78.8 244.292"/><path fill="#002225" d="M152.786 244.292l5.258-197.86-89.123 5.29 19.295 192.57"/><path fill="#003c40" d="M69.943 42.067l3.86 63.644 84.24 1.84V37.47"/><path fill="#0093a1" d="M68.324 42.067l3.878 63.644 84.62 1.84V37.47"/><path fill="#004549" d="M99.013 55.05v13.555h22.083l1.157-15.28"/><path fill="#eaf1f5" d="M101.384 56.83l-.752 10.28h18.96V55.566"/><path fill="#e8f1f7" d="M91.062 75.574l33.453-.728v7.237l-33.453-.69"/><path fill="#bac6cd" d="M124.515 74.846l7.014 2.45-.155 3.868-6.86.92"/><path fill="#004549" d="M154.692 172.615l-25.365-.81 4.662-46.238 21.917 1.077"/><path fill="#002225" d="M154.788 168.982l-23.102-1.1-.146 2.053 23.21.43"/><path fill="#003336" d="M153.703 166.366l-21.757-.524-.146 1.37 21.807.546"/><path fill="#fffbf5" d="M135.313 116.706l20.276 1.758-.345 8.12-20.56-1.017"/><path fill="#e94c2d" d="M136.07 115.975l-.153-.958h-.485l-.082 1.167"/><path fill="#cb3925" d="M141.977 115.576l-.55 10.334h-.953l.578-8.69-4.524-.39-.817-.946.248-.61"/><path fill="#e94c2d" d="M135.392 115.576l3.916.303-.427 9.9-4.195-.213"/><path fill="#4eb5ce" d="M143.316 114.5l8.132-.23-.503 12.122-1.193-.06.386-8.27-2.87-.32-4.183-1.745"/><path fill="#f8b15d" d="M144.608 126.065l-.81-.035.077-8.562-1.988-.193.068-1.278h3.057"/><path fill="#e94c2d" d="M145.012 116.184h1.31l-.752 9.936-.962-.055"/><path fill="#cb3925" d="M146.225 126.153l1.1-9.447-1.03-.17-.725 9.584"/><path fill="#007e96" d="M155.65 115.15l-.06 3.314-3.435-.298-.205-2.352.26-.663"/><path fill="#f8b15d" d="M151.387 115.758l2.383.24v2.308l-2.48-.215"/><path fill="#007e96" d="M155.056 118.426l-.32 8.16h.51l.343-8.122"/><path fill="#e94c2d" d="M153.25 126.497l-.653-.043-.067-8.256-1.24-.107.044-1.058 1.916.187"/><path fill="#cb3925" d="M136.297 115.353l.434-.92h2.226l.52 1.143"/><path fill="#4eb5ce" d="M147.902 114.71l-.578-1.3h-1.946l-.366 1.3 2.89.078"/><path fill="#f8b15d" d="M142.237 115.15l-1.055-.133-.13.513.925.046-.022.42.644.276v-.088"/><path fill="#003c40" d="M131.408 171.805l4.146-58.512-85.118-.153-1.422 53.78"/><path fill="#0093a1" d="M46.274 167.728l83.053 2.068 4.146-58.512-90.452-.154"/><path fill="#004549" d="M74.674 130.908l-1.13 14.59 22.558.88.682-16.16"/><path fill="#eaf1f5" d="M76.293 132.46l-1.13 11.544 19.398.613v-12.713"/><path fill="#e8f1f7" d="M67.506 153.252l33.966.306-.01 7.238-33.956-.65"/><path fill="#bac6cd" d="M101.472 153.558l5.922 1.245.005 5.205-5.937.788"/><path fill="#002225" d="M153.25 132.46l-.55 37.145 2.088-.623 1.027-39.096-21.37-.95-.19 2.687"/><path fill="#007681" d="M154.656 167.6l-22.742-.523-.152 1.37 22.794.545"/><path fill="#fffbf5" d="M150.265 201.81l-25.032 1.556 1.6-23.947 24.045 1.862"/><path fill="#f8b15d" d="M138.434 174.518l.575 2.236-5.898-.31.886-1.926"/><path fill="#f5a159" d="M141.19 178.037l-.25 2.57 8.686.597-.713-2.967"/><path fill="#4eb5ce" d="M136.3 179.673v.565l6.958.556-.792 10.55.562.025 1.483-11.697"/><path fill="#f8b15d" d="M113.148 179.027l1.042-2.748h27.17l-1.465 15.09-2.463-.512.635-10.343-10.05-.453"/><path fill="#e94c2d" d="M126.884 178.854l-.17 1.242 7.093.368-.755 10.06 1.1.025.945-11.696"/><path fill="#fffbf5" d="M132.726 180.76l-5.868-.664 5.868-.144M137.467 186.985v-5.78l1.542.963"/><path fill="#e94c2d" d="M147.222 191.17l-.75-.035.765-10.1-2.862-.215.06-.558 3.293.095"/><path fill="#cb3925" d="M114.248 176.865l-.858 2.432 6.175-.095-1.275-2.1"/><path fill="#e94c2d" d="M116.705 176.28l-.59 2.52-8.63.224-2.616 37.165 19.403 1.105 2.674-38.78-3.007.08-.22-1.848"/><path fill="#004549" d="M151.372 191.358l-45.694-2.08-3.854 54.727h48.157"/><path fill="#002225" d="M103.125 240.958l46.9 1.367v-1.673l-46.78-1.39"/><path fill="#003336" d="M103.335 237.966l46.69.87v-1.673l-46.506-1.06"/><path fill="#f5a159" d="M141.904 176.754l-.163 1.678 4.63-.15-.29-1.528"/><path fill="#cb3925" d="M101.075 173.68l.75 1.374-7.11-.18 1.13-1.194"/><path fill="#f5a159" d="M110.065 176.06h-2.37l-.21 2.964 5.72-.15.603-1.59h-3.13"/><path fill="#cb3925" d="M107.638 176.865l-.152 2.16 2.232-.06-.867-2.1M125.233 178.56l-1.293.035-.06-.514 1.353-.135"/><path fill="#4eb5ce" d="M141.095 178.998l-.102 1.055h.91l-.346-1.055"/><path fill="#cb3925" d="M114.804 189.694l-8.044-.366.573-8.124 8.575.656"/><path fill="#f8b15d" d="M144.394 180.646l-.06.424 2.363.385-.56 9.664.348.028.867-10.502"/><path fill="#007e96" d="M134.866 190.55l1.194-10.598-1.043-.115-.827 10.74"/><path fill="#002225" d="M106.32 195.57l.132-1.86 44.812 1.74-1.238 45.202-4.183-.104.528-42.906"/><path fill="#003c40" d="M102.91 244.005l4.85-68.853-93.883-2.39 7.13 71.243"/><path fill="#0093a1" d="M100.83 244.005l4.848-68.853-93.882-2.39 7.13 71.243"/><path fill="#004549" d="M67.728 209.53l1.838-16.418h-23.96l.72 15.377"/><path fill="#eaf1f5" d="M66.38 207.91l.527-12.544-18.962-.404v12.024"/><path fill="#e8f1f7" d="M71.952 223.43l-32.86-.488-.23-6.797h33.1"/><path fill="#bac6cd" d="M78.316 222.58l-6.364.85.01-7.285 6.422 1.478"/><path fill="#007681" d="M103.244 239.26l46.446 1.435.04-1.85-46.382-1.02"/><path d="M161.62 238.972l-3.525 1.306 5.13-205.184z" fill="#004549"/><path d="M163.446 34.696l-2.123 204.448c11.375-3.568 21.997-8.802 31.644-15.37l2.477-82.943V52.11l-31.998-17.414z" fill="#004549"/></svg>