<svg xmlns="http://www.w3.org/2000/svg" width="150" height="150"><defs><clipPath id="a"><path d="M-846.204-809.847a45.828 45.828 0 1 1-91.656 0 45.828 45.828 0 1 1 91.656 0z" fill="#00000f" fill-opacity=".039"/></clipPath></defs><g clip-path="url(#a)" transform="matrix(1.6 0 0 1.6 1489.5 1359.6)"><path fill="#f9f9f9" d="M-945.943-858.13h104.57v97.618h-104.57z"/><path d="M-886.56-725.31l-1.916 4.944.254 5.198h24.417c-1.153-5.73-2.08-10.14-2.08-10.14h-20.674z" opacity=".889" fill="#69a5ba"/><path d="M-887.33-723.142l19.797.49 3.838-53.108-13.47-20.43s-6.937 6.96-19.65.08l-7.267 25.49 13.514 43.4z" opacity=".889" fill="#628ea0"/><path d="M-908.088-797.843s-29.868 11.985-29.868 34.257v41.88s2.86 3.627 8.57 3.627c5.71 0 11.41-3.995 11.41-3.995l-1.454 7.46h35.343v-26.125c-.003-.002-4.586-46.634-24-57.103zM-875.725-798.975l-1.71 2.656s5.706 11.99 5.706 20.745v60.407h18.666v-7.115l-3.81-1.132v-20.744s4.572 6.862 8.57 6.862c3.996 0 15.424-3.045 19.61-9.517 0 0-8.765-9.145-8.384-21.137 0 0-.766-1.707-13.33 5.336 0 0 .568-8.77-3.81-16.955-4.38-8.187-7.992-16.93-21.507-19.405z" opacity=".889" fill="#dff2fd"/><path d="M-884.094-736.214l-16.655-45.684s2.478-2.22 2.143-4.71l-5.425-1.286-6.996-8.994s2.57-3.426 5.425-3.712c2.855-.285 7.138 2.142 9.136 6.28 2 4.14 11.612 22.843 12.373 36.548.76 13.706 0 21.558 0 21.558zM-871.722-730.93s5.807-4.425 5.807-9.78v-42.044l-3.998-4.854s4.426-1.714 3.998-2.856c-.43-1.142-.6-5.44-2.89-6.375-2.29-.933-10.435-3.737-8.626.522 1.808 4.26 3.44 5.542 4.564 12.767 1.125 7.224 1.144 42.91 1.144 52.62zM-919.404-723.793s-1.427-8.09 0-12.754c1.427-4.663 7.805-20.843 10.85-22.65 3.045-1.808 1.046 1.998 0 3.425-1.047 1.427-7.995 14.086-7.9 22.65.096 8.566.572 10.09.572 10.09h16.085l-.76 2.664h-19.482l.636-3.425zM-896.954-722.653s.894 1.092 1.34 7.762h2.61c-.087-1.964-.2-3.68-.23-4.62-.096-2.95-3.72-3.143-3.72-3.143zM-860.386-723.138c-3.57.146-3.05 2.772-3.05 2.772-.108 1.167-.17 2.83-.208 4.643h2.54l.048-4.643 7.992.37s0-2.265-5.52-3.026c-.69-.095-1.292-.137-1.802-.116z" opacity=".889" fill="#8cbcd5"/><g transform="matrix(1.2 0 0 1.2 -988 -921.8)" opacity=".889"><path d="M93.052 75.115l3.59-3.268s1.096-.722.958 1.887c-.137 2.61.234 8.47-3.148 7.867-3.38-.6-1.4-6.485-1.4-6.485z" fill="#fdd08f"/><path d="M93.078 79.28c1.176.332 3.13-5.718 3.672-7.485.272-.103.96-.162.85 1.94-.137 2.61.234 8.47-3.148 7.867-1.373-.244-1.862-1.36-1.96-2.6.17.12.36.216.586.28z" fill="none"/><path d="M93.078 79.28c-.226-.063-.418-.16-.584-.278-.14-1.812.558-3.887.558-3.887l3.59-3.268s.043-.027.11-.052c-.545 1.768-2.498 7.817-3.674 7.486z" fill="#f7ae83"/><path d="M59.242 79.457l1.077-4.125C63.936 62.46 77.596 62.558 84.192 63.92c6.597 1.36 9.974 9.402 9.618 16.284-.352 6.836 5.58 13.297 5.657 13.382l.22.487s-12.018 2.195-14.236.08c-2.217-2.115-13.255 5.99-13.255 5.99s-1.93-.418-4.39-2.48c-1.683 1.313-4.303 3.005-5.494 2.266-1.807-1.123-1.14-1.757-.236-4.975.464-1.65-.047-4.067-.654-6.034-.476-1.044-.89-2.14-1.225-3.29l-.017-.04.005-.006c-.55-1.893-.886-3.93-.94-6.127z" fill="#fdd08f"/><ellipse ry="3.269" rx=".883" cy="79.312" cx="84.125" transform="rotate(166.5 84.1 79.3)" fill="#2b4d5a"/><ellipse ry="3.67" rx="1.622" cy="79.552" cx="77.613" transform="rotate(-177.6 77.6 79.6)" fill="#2b4d5a"/><path d="M74.83 103.412s6.132-1.484 7.683-7.007c0 0 2.734 4.583 8.59 5.405-5.022 6.48-16.272 1.602-16.272 1.602z" fill="#fdd08f"/><path d="M62.294 70.797s-1.182 6.323-.516 7.807c.666 1.484-1.42.417-2.073-.92 0 0 .908-4.694 2.59-6.887z" fill="#f7ae83"/><path d="M82.53 105.157c-4.06-.17-7.7-1.744-7.7-1.744s6.132-1.484 7.683-7.007c0 0 2.1 3.52 6.56 4.943-.73 1.243-2.468 3.023-6.543 3.807z" fill="none"/><path d="M89.074 101.348c.63.2 1.305.36 2.03.462-2.168 2.796-5.493 3.475-8.574 3.347 4.075-.784 5.813-2.564 6.544-3.81zM60.214 86.964s.924-2.208 1.843-1.568c0 0 .318.19.827.572l.096.152c-.098.025-.154.042-.154.042s3.428 4.602 1.633 8.375c-1.04 2.18-.848 4.58-.475 6.22-.42-.192-.79-.415-1.08-.65-2.21-1.804-1.6-3.25-1.6-3.25s2.183-5.154-1.09-9.893z" fill="#f7ae83"/><path d="M60.28 100.545c-4.188-4.778-2.715-7.883-2.715-7.883.545-1.572 1.963-2.767 3.73-2.94 2.14-.21 4.072 1.154 4.65 3.148-.475-1.43-1.902-2.392-3.48-2.238-1.83.18-3.17 1.792-2.994 3.603.108 1.094.746 2.007 1.636 2.52.312.17.61.283.885.355.068.016.135.032.204.044v.003c.777.158 1.313.002 1.313.002 1.07-.177 1.96-.976 2.964-1.875.834-.747 1.266-1.322 1.674-1.8.783-.916 3.262-3.817 6.692-4.283.536-.073 2.592-.32 4.64.897.33.195 2.206 1.358 2.952 3.45.326-2.197 1.942-3.702 2.227-3.958 1.772-1.592 3.838-1.747 4.377-1.78 3.455-.21 6.45 2.156 7.396 2.902.493.39 1.03.87 1.99 1.44 1.158.688 2.188 1.3 3.27 1.264 0 0 .557.05 1.29-.257.064-.026.127-.055.19-.084.254-.124.526-.292.8-.52.773-.676 1.22-1.696 1.114-2.79-.177-1.81-1.805-3.132-3.635-2.952-1.58.155-2.79 1.376-2.98 2.87.18-2.068 1.81-3.78 3.952-3.99 1.765-.173 3.387.724 4.227 2.16 0 0 2.047 2.76-1.132 8.257l-.014.026c-.054.096-.11.192-.17.29l-.1.16v.003c-3.454 5.55-9.048 6.028-9.048 6.028l.004-.004c-.296.05-.594.092-.896.12-5.2.51-9.99-2.057-12.57-6.216-1.723 4.58-5.925 8.028-11.125 8.538-.303.03-.603.046-.903.055l.005.004s-5.69.63-10.176-4.3l-.225-.252-.014-.017z" fill="#2b4d5a"/><path d="M62.127 78.766s-7.827-3.693-8.543-2.83c-.716.86-.15 4.14 1.03 7.066 1.178 2.926 2.72 5.037 8.138 3.45 5.416-1.586-.625-7.686-.625-7.686z" fill="#fdd08f"/><path d="M59.04 79.827s-3.997-3.3-4.02-1.277c-.02 2.022.746 4.123 2.51 5.138 0 0 .587.283-.13-.68-.715-.963-1.83-3.964-1.21-3.668.62.296 4.308 1.552 2.85.487zM60.08 82.494s.295.85-.603.843c-.898-.008-.764.978-.092 1.002.672.023 1.848-1.366.694-1.846z" fill="#f7ae83"/></g></g></svg>