<svg xmlns="http://www.w3.org/2000/svg" width="150" height="150"><g transform="matrix(.962 0 0 .962 -222.057 -265.417)"><circle r="75" cy="354.352" cx="308.69" fill="#2b7c8e"/><path d="M234.668 366.41c5.77 35.687 36.707 62.943 74.022 62.943 37.315 0 68.253-27.256 74.022-62.943H234.668z" fill="none"/><path d="M383.69 354.352c0-41.42-33.58-75-75-75s-75 33.58-75 75c0 4.106.343 8.13.978 12.057h148.045c.635-3.927.977-7.952.977-12.058z" fill="#fabe74"/><ellipse ry="11.083" rx="42.865" cy="393.083" cx="310.468" fill="#195562"/><path d="M311.783 320.823c-10.052 0-19.183 3.403-25.97 8.947-1.365 6.136-10.85 16.715-11.08 16.973-.565 2.262-.87 4.608-.87 7.017 0 18.19 16.977 32.937 37.92 32.937 20.945 0 37.923-14.746 37.923-32.937 0-18.19-16.98-32.937-37.923-32.937z" fill="#ee7246"/><path d="M286.613 335.143s-10.363-30.44 1.665-22.94c12.027 7.496 22.835 21.108 22.835 21.108l-24.5 1.833zM331.323 329.644s17.75-4.283 18.315 4.338c.566 8.62-2.643 12.775-2.643 12.775l-15.672-17.113z" fill="#ee7246"/><path fill="#fff" d="M312.564 343.584l-2.11-2.578 3.11-.856-4.68-1.8 2.97-1.35-1.572-1.044 5.25-1.92-4.994-4.135 2.377-2.176-.75-.808 1.672-2.834-1.54-3.078.675-.338 1.723 3.445-1.592 2.706.883.953-2.298 2.103 5.34 4.422-5.084 1.858 1.462.97-2.57 1.17 5.14 1.975-4.203 1.158 1.804 2.204-3.775 3.838 5.303 4.01-7.333 3.67 6.376 3.576-2.567.64.663 2.358-2.635.92 3.732 3.117-2.55 2.185 2.122 1.06-1.923 3.205 2.602 1.952-4.756 4.512 4.83 1.398-3.336 2.802 1.954 1.56-.728 1.145.552.924-.65.387-.788-1.324.613-.965-2.144-1.71 2.957-2.486-4.736-1.37 5.064-4.804-2.434-1.824 1.854-3.09-2.41-1.204 2.737-2.346-4.07-3.4 3.224-1.123-.68-2.425 1.474-.367-5.96-3.342 7.52-3.76-5.017-3.796"/><path fill="#1c6e72" d="M305.262 342.49l20.733 18.954-7.006 7.665-20.735-18.953z"/><path fill="#24858a" d="M326.78 354.41l-25.132 14.692-5.24-8.966 25.13-14.69z"/><path d="M294.453 376.84s-9.567 13.973-3.273 17.75c6.294 3.775 14.98-14.98 14.98-14.98l-11.707-2.77zM317.684 379.933s7.815 18.7 14.47 15.608c6.657-3.092-4-20.802-4-20.802l-10.47 5.195zM276.06 363.298l-6.923-3.074v-13.75l6.642-.035" fill="#ee7246"/><ellipse ry="6.892" rx="1.534" cy="353.332" cx="269.137" fill="#ee7246"/><path d="M319.084 321.433l-1.198 1.645s7.674 1.562 8.893 2.422l.62-1.763s-3.416-1.503-8.316-2.304z" fill="#d9523b"/></g></svg>