<?xml version="1.0" encoding="UTF-8" standalone="no"?>
<!-- Created with Inkscape (http://www.inkscape.org/) -->

<svg
   xmlns:dc="http://purl.org/dc/elements/1.1/"
   xmlns:cc="http://creativecommons.org/ns#"
   xmlns:rdf="http://www.w3.org/1999/02/22-rdf-syntax-ns#"
   xmlns:svg="http://www.w3.org/2000/svg"
   xmlns="http://www.w3.org/2000/svg"
   xmlns:sodipodi="http://sodipodi.sourceforge.net/DTD/sodipodi-0.dtd"
   xmlns:inkscape="http://www.inkscape.org/namespaces/inkscape"
   width="150"
   height="150"
   id="svg2"
   version="1.1"
   inkscape:version="0.48.4 r9939"
   sodipodi:docname="calculator.svg">
  <defs
     id="defs4" />
  <sodipodi:namedview
     id="base"
     pagecolor="#ffffff"
     bordercolor="#666666"
     borderopacity="1.0"
     inkscape:pageopacity="0.0"
     inkscape:pageshadow="2"
     inkscape:zoom="2.8"
     inkscape:cx="166.39085"
     inkscape:cy="68.180314"
     inkscape:document-units="px"
     inkscape:current-layer="layer1"
     showgrid="false"
     inkscape:window-width="1280"
     inkscape:window-height="748"
     inkscape:window-x="0"
     inkscape:window-y="0"
     inkscape:window-maximized="1" />
  <metadata
     id="metadata7">
    <rdf:RDF>
      <cc:Work
         rdf:about="">
        <dc:format>image/svg+xml</dc:format>
        <dc:type
           rdf:resource="http://purl.org/dc/dcmitype/StillImage" />
        <dc:title></dc:title>
      </cc:Work>
    </rdf:RDF>
  </metadata>
  <g
     inkscape:label="Layer 1"
     inkscape:groupmode="layer"
     id="layer1"
     transform="translate(0,-902.36218)">
    <circle
       d="m 383.69,354.35199 c 0,41.42136 -33.57864,75 -75,75 -41.42135,0 -75,-33.57864 -75,-75 0,-41.42136 33.57865,-75 75,-75 41.42136,0 75,33.57864 75,75 z"
       style="fill:#2d82a1"
       sodipodi:ry="75"
       sodipodi:rx="75"
       sodipodi:cy="354.35199"
       sodipodi:cx="308.69"
       cx="308.69"
       cy="354.35199"
       r="75"
       id="circle70354"
       transform="matrix(0.97142857,0,0,0.97142857,-225.119,633.01269)" />
    <path
       style="fill:#b5daef"
       inkscape:connector-curvature="0"
       d="m 147.60842,977.24028 c 0,-40.23754 -32.6196,-72.85714 -72.857138,-72.85714 -40.237548,0 -72.8571476,32.6196 -72.8571476,72.85714 0,3.98869 0.3332,7.89869 0.9500571,11.71252 H 146.65934 c 0.61685,-3.81383 0.94908,-7.72383 0.94908,-11.71252 z"
       id="path70356" />
    <ellipse
       d="m 353.33299,393.08301 c 0,6.12097 -19.19132,11.083 -42.865,11.083 -23.67369,0 -42.865,-4.96203 -42.865,-11.083 0,-6.12097 19.19131,-11.083 42.865,-11.083 23.67368,0 42.865,4.96203 42.865,11.083 z"
       style="fill:#004b65"
       sodipodi:ry="11.083"
       sodipodi:rx="42.865002"
       sodipodi:cy="393.08301"
       sodipodi:cx="310.46799"
       cx="310.46799"
       cy="393.08301"
       rx="42.865002"
       ry="11.083"
       id="ellipse70358"
       transform="matrix(0.97142857,0,0,0.97142857,-225.119,633.01269)" />
    <path
       style="fill:#ed6e1c"
       inkscape:connector-curvature="0"
       d="m 114.59442,976.66617 c 0,-3.11926 -0.5236,-6.12972 -1.48143,-8.97989 0.82378,-1.99823 1.73498,-5.38366 1.41635,-10.234 -0.35457,-5.39337 -7.62669,-5.58668 -12.76263,-5.04171 -6.449314,-4.82023 -14.834685,-7.74132 -24.009828,-7.74132 -3.698228,0 -7.268229,0.476 -10.6352,1.35806 -3.567091,-3.40486 -7.798633,-6.9904 -12.199205,-9.73371 -9.018743,-5.62166 -5.0796,10.70611 -2.812286,18.45034 -2.009885,5.4672 -8.684571,13.22017 -10.086342,14.81234 l -5.551715,0.0282 c -0.04663,-0.0204 -0.09423,-0.032 -0.1428,-0.032 -0.8228,0 -1.490171,2.99782 -1.490171,6.69508 0,3.69726 0.667371,6.69509 1.490171,6.69509 l 6.068515,2.69474 c 2.551942,7.59657 8.2552,14.02152 15.804171,18.13749 -2.150743,4.2879 -4.221829,10.2923 -0.459486,12.5499 3.718629,2.2313 8.294062,-3.6332 11.310348,-8.5719 2.791886,0.5877 5.704229,0.9063 8.704,0.9063 2.939543,0 5.795543,-0.3079 8.535943,-0.8733 2.795771,5.0407 7.241029,11.3288 11.254,9.4637 3.739025,-1.7379 1.853484,-8.2212 -0.402171,-13.3824 10.471996,-5.63915 17.449766,-15.71088 17.449766,-27.20093 z"
       id="path70360" />
    <polygon
       style="fill:#ffffff"
       points="310.453,341.006 313.563,340.15 308.884,338.349 311.854,337 310.282,335.956 315.533,334.037 310.538,329.901 312.915,327.724 312.166,326.916 313.837,324.082 312.297,321.004 312.972,320.666 314.695,324.111 313.103,326.816 313.986,327.769 311.688,329.873 317.028,334.295 311.944,336.153 313.406,337.124 310.837,338.292 315.977,340.268 311.773,341.426 313.577,343.63 309.802,347.468 315.105,351.478 307.772,355.147 314.148,358.724 311.581,359.363 312.243,361.722 309.608,362.641 313.34,365.759 310.79,367.945 312.912,369.006 310.989,372.21 313.592,374.162 308.836,378.674 313.666,380.072 310.33,382.874 312.284,384.435 311.556,385.579 312.108,386.504 311.459,386.891 310.67,385.566 311.283,384.601 309.139,382.889 312.097,380.404 307.361,379.033 312.424,374.23 309.99,372.406 311.844,369.317 309.434,368.112 312.171,365.766 308.1,362.367 311.324,361.243 310.645,358.818 312.118,358.451 306.159,355.108 313.679,351.347 308.661,347.552 312.564,343.584 "
       id="polygon70526"
       transform="matrix(0.97142857,0,0,0.97142857,-225.119,633.01269)" />
    <rect
       style="fill:#004a5f"
       x="704.28235"
       y="664.60504"
       transform="matrix(0.73809568,0.67469605,-0.67469605,0.73809568,0,0)"
       width="27.287588"
       height="10.088346"
       id="rect70534" />
    <rect
       style="fill:#00617b"
       x="413.53668"
       y="-890.29187"
       transform="matrix(-0.86329612,0.50469773,-0.50469773,-0.86329612,0,0)"
       width="28.278414"
       height="10.088331"
       id="rect70536" />
    <path
       style="fill:#004b65"
       inkscape:connector-curvature="0"
       d="m 84.848311,945.26182 -1.163772,1.598 c 0,0 7.454743,1.51738 8.638915,2.3528 L 92.925739,947.5 c 0,0 -3.317428,-1.46006 -8.077428,-2.23818 z"
       id="path70538" />
  </g>
</svg>
