<?xml version="1.0" encoding="utf-8"?>
<!-- Generator: Adobe Illustrator 16.0.0, SVG Export Plug-In . SVG Version: 6.00 Build 0)  -->
<!DOCTYPE svg PUBLIC "-//W3C//DTD SVG 1.1//EN" "http://www.w3.org/Graphics/SVG/1.1/DTD/svg11.dtd">
<svg version="1.1" id="Calque_1" xmlns="http://www.w3.org/2000/svg" xmlns:xlink="http://www.w3.org/1999/xlink" x="0px" y="0px"
	 width="141.732px" height="141.732px" viewBox="0 0 141.732 141.732" enable-background="new 0 0 141.732 141.732"
	 xml:space="preserve">
<path fill="#009FE3" d="M93.673,3.772c-3.097,11.195-12.135,19.301-22.808,19.301c-10.672,0-19.71-8.105-22.808-19.301
	C20.113,13.271,0,39.711,0,70.866c0,39.138,31.727,70.866,70.865,70.866s70.867-31.729,70.867-70.866
	C141.732,39.711,121.617,13.271,93.673,3.772z"/>
<path d="M70.865,23.073C11.816,23.073,0,70.866,37.07,133.17c10.045,5.46,21.558,8.563,33.795,8.563
	c12.238,0,23.751-3.103,33.796-8.563C141.732,70.866,129.914,23.073,70.865,23.073z"/>
<path fill="#00405B" d="M108.706,57.799c-5.384-12.217-18.018-19.482-37.841-19.482s-32.457,7.267-37.84,19.482
	c-6.531,14.825-2.374,36.947,12.728,62.328c7.464,4.057,16.019,6.362,25.112,6.362c9.095,0,17.648-2.306,25.113-6.362
	C111.081,94.746,115.238,72.623,108.706,57.799z"/>
<path fill="#FFFFFF" d="M78.154,13.597H63.578v8.953c0,0,0,10,7.287,10c7.289,0,7.289-10,7.289-10V13.597z"/>
<path fill="#FFFFFF" d="M70.865,23.073c10.673,0,19.711-8.105,22.808-19.301C86.514,1.34,78.848,0,70.865,0V23.073z"/>
<path fill="#F2F2F2" d="M70.865,23.073V0c-7.982,0-15.648,1.34-22.808,3.772C51.155,14.968,60.193,23.073,70.865,23.073z"/>
<g>
	<path fill="#FFFFFF" d="M74.51,66.854h-7.288v4.477c0,0,0,5,3.644,5c3.645,0,3.645-5,3.645-5V66.854z"/>
	<path fill="#FFFFFF" d="M70.865,43.779v27.813c6.615,0,11.979-6.227,11.979-13.906S77.48,43.779,70.865,43.779z"/>
	<path fill="#F6F6F6" d="M58.888,57.686c0,7.68,5.362,13.906,11.978,13.906V43.779C64.25,43.779,58.888,50.006,58.888,57.686z"/>
	<circle cx="65.876" cy="57.686" r="1.047"/>
	<circle cx="75.854" cy="57.686" r="1.048"/>
</g>
<path fill="#FFFFFF" d="M70.865,116.489c26.699,0,0.676-40.834,9.483-32.026s14.635,19.983,9.483,6.536
	c-6.989-18.246-18.967-18.246-18.967-18.246s-11.978,0-18.967,18.246c-5.151,13.447,0.676,2.271,9.483-6.536
	S44.166,116.489,70.865,116.489z"/>
<ellipse fill="#3363AC" cx="65.876" cy="104.343" rx="2.86" ry="9.722"/>
<ellipse fill="#3363AC" cx="75.854" cy="104.343" rx="2.86" ry="9.722"/>
<path fill="none" stroke="#009FE3" stroke-width="2" stroke-linecap="round" stroke-miterlimit="10" d="M70.865,94.621
	c0,0-30.898,7.423-30.898-28.911s61.797-30.138,61.797,7.043s-30.898,3.577-30.898,53.736"/>
<path opacity="0.5" fill="#7DC9CA" d="M108.706,57.799c0.116,1.046-0.224,9.055-37.84,9.055c-37.611,0-37.956-8.007-37.841-9.055
	c-6.531,14.825-2.374,36.947,12.728,62.328c7.464,4.057,16.019,6.362,25.112,6.362c9.095,0,17.648-2.306,25.113-6.362
	C111.081,94.746,115.238,72.623,108.706,57.799z"/>
</svg>
