<svg xmlns="http://www.w3.org/2000/svg" width="150" height="150"><g transform="matrix(1.512 0 0 1.512 -.777 -1440.044)"><circle r="75" cy="114.243" cx="124.043" transform="matrix(.645 0 0 .645 -30.102 928.574)" fill="#fabe74"/><path d="M49.876 1050.59c24.04 0 43.973-17.544 47.717-40.525H2.16c3.743 22.98 23.677 40.526 47.716 40.526z" fill="#ee7246"/><ellipse ry="8.309" rx="55.917" cy="148.177" cx="127.233" transform="matrix(.645 0 0 .645 -30.102 928.574)" fill="#ea542d"/><path fill="#e4eef3" d="M49.027 1022.138h4.167l-2.336-9.87h-3.662l-2.337 9.87"/><path fill="#b1bbc1" d="M49.027 1023.21h5.977l-1.81-1.072H44.86l-1.81 1.073"/><path d="M78.105 979.6c-.19-1.626-1.554-2.892-3.23-2.892H21.463c-1.675 0-3.04 1.266-3.23 2.89h-.037v34.548c0 1.804 1.463 3.267 3.267 3.267h53.414c1.804 0 3.267-1.462 3.267-3.267V979.6h-.038z" fill="#fff"/><path fill="#406c7f" d="M21.517 980.116h53.795v31.907H21.517z"/><circle r="2.259" cy="133.542" cx="122.726" transform="matrix(.645 0 0 .645 -30.102 928.574)" fill="#406c7f"/><path fill="#88afc3" d="M55.004 980.116h20.308v31.906h-5.886"/><path d="M78.143 1017.413v-15.425H54.84c-.75 0-1.362.568-1.447 1.296h-.016v14.13h24.766z" opacity=".3" fill="#002f40"/><path d="M83.2 1006.847c-.086-.728-.697-1.296-1.448-1.296H57.815c-.75 0-1.363.57-1.447 1.297h-.017v15.482c0 .808.657 1.464 1.465 1.464h23.938c.808 0 1.464-.656 1.464-1.465v-15.483H83.2z" fill="#fff"/><circle r=".95" cy="133.536" cx="173.886" transform="matrix(.645 0 0 .645 -30.102 928.574)" fill="#406c7f"/><path fill="#406c7f" d="M58.004 1007.435h22.623v14.467H58.004z"/><path fill="#88afc3" d="M80.627 1019.827v-12.392h-7l7 14.467"/></g></svg>