<?xml version="1.0" encoding="UTF-8" standalone="no"?>
<!-- Created with Inkscape (http://www.inkscape.org/) -->

<svg
   xmlns:dc="http://purl.org/dc/elements/1.1/"
   xmlns:cc="http://creativecommons.org/ns#"
   xmlns:rdf="http://www.w3.org/1999/02/22-rdf-syntax-ns#"
   xmlns:svg="http://www.w3.org/2000/svg"
   xmlns="http://www.w3.org/2000/svg"
   xmlns:sodipodi="http://sodipodi.sourceforge.net/DTD/sodipodi-0.dtd"
   xmlns:inkscape="http://www.inkscape.org/namespaces/inkscape"
   width="150"
   height="150"
   id="svg2"
   version="1.1"
   inkscape:version="0.48.4 r9939"
   sodipodi:docname="responsive.svg">
  <defs
     id="defs4" />
  <sodipodi:namedview
     id="base"
     pagecolor="#ffffff"
     bordercolor="#666666"
     borderopacity="1.0"
     inkscape:pageopacity="0.0"
     inkscape:pageshadow="2"
     inkscape:zoom="1.979899"
     inkscape:cx="41.972693"
     inkscape:cy="129.77529"
     inkscape:document-units="px"
     inkscape:current-layer="layer1"
     showgrid="false"
     inkscape:window-width="639"
     inkscape:window-height="748"
     inkscape:window-x="0"
     inkscape:window-y="0"
     inkscape:window-maximized="0" />
  <metadata
     id="metadata7">
    <rdf:RDF>
      <cc:Work
         rdf:about="">
        <dc:format>image/svg+xml</dc:format>
        <dc:type
           rdf:resource="http://purl.org/dc/dcmitype/StillImage" />
        <dc:title></dc:title>
      </cc:Work>
    </rdf:RDF>
  </metadata>
  <g
     inkscape:label="Layer 1"
     inkscape:groupmode="layer"
     id="layer1"
     transform="translate(0,-902.36218)">
    <g
       id="g3049"
       transform="matrix(1.5117898,0,0,1.5117898,-0.77743947,-537.68151)">
      <circle
         id="circle47"
         r="75"
         cy="114.243"
         cx="124.043"
         transform="matrix(0.64476312,0,0,0.64476312,-30.102057,928.57368)"
         sodipodi:cx="124.043"
         sodipodi:cy="114.243"
         sodipodi:rx="75"
         sodipodi:ry="75"
         style="fill:#fabe74"
         d="m 199.043,114.243 c 0,41.42135 -33.57864,75 -75,75 -41.421357,0 -75.000001,-33.57865 -75.000001,-75 0,-41.42136 33.578644,-75.000004 75.000001,-75.000004 41.42136,0 75,33.578644 75,75.000004 z" />
      <path
         id="path49"
         d="m 49.876292,1050.5906 c 24.039348,0 43.972845,-17.5446 47.716339,-40.5252 H 2.159952 c 3.7434947,22.9806 23.676992,40.5252 47.71634,40.5252 z"
         inkscape:connector-curvature="0"
         style="fill:#ee7246" />
      <ellipse
         id="ellipse51"
         ry="8.309"
         rx="55.917"
         cy="148.177"
         cx="127.233"
         transform="matrix(0.64476312,0,0,0.64476312,-30.102057,928.57368)"
         sodipodi:cx="127.233"
         sodipodi:cy="148.177"
         sodipodi:rx="55.917"
         sodipodi:ry="8.309"
         style="fill:#ea542d"
         d="m 183.15,148.177 c 0,4.58894 -25.03489,8.309 -55.917,8.309 -30.882105,0 -55.916998,-3.72006 -55.916998,-8.309 0,-4.58893 25.034893,-8.309 55.916998,-8.309 30.88211,0 55.917,3.72007 55.917,8.309 z" />
      <polygon
         id="polygon53"
         points="122.726,145.114 129.189,145.114 125.565,129.805 122.726,129.805 119.886,129.805 116.262,145.114 "
         transform="matrix(0.64476312,0,0,0.64476312,-30.102057,928.57368)"
         style="fill:#e4eef3" />
      <polygon
         id="polygon55"
         points="122.726,146.779 131.996,146.779 129.189,145.114 122.726,145.114 116.262,145.114 113.455,146.779 "
         transform="matrix(0.64476312,0,0,0.64476312,-30.102057,928.57368)"
         style="fill:#b1bbc1" />
      <path
         id="path67"
         d="m 78.104667,979.59897 c -0.188916,-1.6248 -1.553879,-2.89047 -3.228975,-2.89047 H 21.462226 c -1.675095,0 -3.040058,1.26567 -3.228974,2.89047 h -0.03805 v 34.54713 c 0,1.804 1.462322,3.267 3.267015,3.267 h 53.413466 c 1.804048,0 3.267015,-1.4623 3.267015,-3.267 v -34.54713 h -0.03804 z"
         inkscape:connector-curvature="0"
         style="fill:#ffffff" />
      <rect
         id="rect71"
         height="31.906746"
         width="53.794518"
         y="980.11603"
         x="21.517029"
         style="fill:#406c7f" />
      <circle
         id="circle73"
         r="2.2590001"
         cy="133.54201"
         cx="122.726"
         transform="matrix(0.64476312,0,0,0.64476312,-30.102057,928.57368)"
         sodipodi:cx="122.726"
         sodipodi:cy="133.54201"
         sodipodi:rx="2.2590001"
         sodipodi:ry="2.2590001"
         style="fill:#406c7f"
         d="m 124.985,133.54201 c 0,1.24761 -1.01139,2.259 -2.259,2.259 -1.24761,0 -2.259,-1.01139 -2.259,-2.259 0,-1.24761 1.01139,-2.259 2.259,-2.259 1.24761,0 2.259,1.01139 2.259,2.259 z" />
      <polygon
         id="polygon75"
         points="131.996,79.94 163.492,79.94 163.492,129.425 154.364,129.425 "
         transform="matrix(0.64476312,0,0,0.64476312,-30.102057,928.57368)"
         style="fill:#88afc3" />
      <path
         id="path77"
         d="m 78.142707,1017.4131 v -15.4247 H 54.840323 c -0.750504,0 -1.362384,0.5674 -1.446848,1.2953 h -0.01676 v 14.13 h 24.765997 z"
         inkscape:connector-curvature="0"
         style="opacity:0.3;fill:#002f40" />
      <path
         id="path79"
         d="m 83.19894,1006.8467 c -0.08447,-0.7279 -0.696345,-1.2953 -1.446849,-1.2953 H 57.814615 c -0.750504,0 -1.362384,0.5674 -1.446848,1.2953 h -0.01676 v 15.4827 c 0,0.8085 0.655725,1.4642 1.464257,1.4642 h 23.937477 c 0.808533,0 1.464257,-0.6557 1.464257,-1.4642 v -15.4827 h -0.01805 z"
         inkscape:connector-curvature="0"
         style="fill:#ffffff" />
      <circle
         id="circle81"
         r="0.94999999"
         cy="133.536"
         cx="173.886"
         transform="matrix(0.64476312,0,0,0.64476312,-30.102057,928.57368)"
         sodipodi:cx="173.886"
         sodipodi:cy="133.536"
         sodipodi:rx="0.94999999"
         sodipodi:ry="0.94999999"
         style="fill:#406c7f"
         d="m 174.836,133.536 c 0,0.52467 -0.42533,0.95 -0.95,0.95 -0.52467,0 -0.95,-0.42533 -0.95,-0.95 0,-0.52468 0.42533,-0.95 0.95,-0.95 0.52467,0 0.95,0.42532 0.95,0.95 z" />
      <rect
         id="rect83"
         height="14.467195"
         width="22.623447"
         y="1007.4346"
         x="58.003529"
         style="fill:#406c7f" />
      <polygon
         id="polygon85"
         points="171.736,141.53 171.736,122.31 160.879,122.31 171.736,144.748 "
         transform="matrix(0.64476312,0,0,0.64476312,-30.102057,928.57368)"
         style="fill:#88afc3" />
    </g>
  </g>
</svg>
