<?xml version="1.0" encoding="UTF-8" standalone="no"?>
<!-- Created with Inkscape (http://www.inkscape.org/) -->

<svg
   xmlns:dc="http://purl.org/dc/elements/1.1/"
   xmlns:cc="http://creativecommons.org/ns#"
   xmlns:rdf="http://www.w3.org/1999/02/22-rdf-syntax-ns#"
   xmlns:svg="http://www.w3.org/2000/svg"
   xmlns="http://www.w3.org/2000/svg"
   xmlns:sodipodi="http://sodipodi.sourceforge.net/DTD/sodipodi-0.dtd"
   xmlns:inkscape="http://www.inkscape.org/namespaces/inkscape"
   width="150"
   height="150"
   id="svg2"
   version="1.1"
   inkscape:version="0.48.4 r9939"
   sodipodi:docname="pig.svg">
  <defs
     id="defs4" />
  <sodipodi:namedview
     id="base"
     pagecolor="#ffffff"
     bordercolor="#666666"
     borderopacity="1.0"
     inkscape:pageopacity="0.0"
     inkscape:pageshadow="2"
     inkscape:zoom="2.8"
     inkscape:cx="111.43153"
     inkscape:cy="69.347019"
     inkscape:document-units="px"
     inkscape:current-layer="layer1"
     showgrid="false"
     inkscape:window-width="1280"
     inkscape:window-height="748"
     inkscape:window-x="0"
     inkscape:window-y="0"
     inkscape:window-maximized="1" />
  <metadata
     id="metadata7">
    <rdf:RDF>
      <cc:Work
         rdf:about="">
        <dc:format>image/svg+xml</dc:format>
        <dc:type
           rdf:resource="http://purl.org/dc/dcmitype/StillImage" />
        <dc:title></dc:title>
      </cc:Work>
    </rdf:RDF>
  </metadata>
  <g
     inkscape:label="Layer 1"
     inkscape:groupmode="layer"
     id="layer1"
     transform="translate(0,-902.36218)">
    <circle
       d="m 199.043,114.243 c 0,41.42135 -33.57864,75 -75,75 -41.421357,0 -75.000001,-33.57865 -75.000001,-75 0,-41.42136 33.578644,-75.000004 75.000001,-75.000004 41.42136,0 75,33.578644 75,75.000004 z"
       style="fill:#b5daef"
       sodipodi:ry="75"
       sodipodi:rx="75"
       sodipodi:cy="114.243"
       sodipodi:cx="124.043"
       cx="124.043"
       cy="114.243"
       r="75"
       id="circle70390-7"
       transform="matrix(0.97142857,0,0,0.97142857,-45.929649,866.17332)" />
    <path
       style="fill:#ed6e1c"
       inkscape:connector-curvature="0"
       d="m 74.569265,1050.0093 c 36.218725,0 66.251425,-26.4335 71.891535,-61.05713 H 2.6777213 c 5.6401143,34.62363 35.6728007,61.05713 71.8915437,61.05713 z"
       id="path70392-0" />
    <ellipse
       d="m 183.15,148.177 c 0,4.58894 -25.03489,8.309 -55.917,8.309 -30.882105,0 -55.916998,-3.72006 -55.916998,-8.309 0,-4.58893 25.034893,-8.309 55.916998,-8.309 30.88211,0 55.917,3.72007 55.917,8.309 z"
       style="fill:#e8491b"
       sodipodi:ry="8.309"
       sodipodi:rx="55.917"
       sodipodi:cy="148.177"
       sodipodi:cx="127.233"
       cx="127.233"
       cy="148.177"
       rx="55.917"
       ry="8.309"
       id="ellipse70394-3"
       transform="matrix(0.97142857,0,0,0.97142857,-45.929649,866.17332)" />
    <polygon
       style="fill:#e4eef3"
       points="125.565,129.805 122.726,129.805 119.886,129.805 116.262,145.114 122.726,145.114 129.189,145.114 "
       id="polygon70396-0"
       transform="matrix(0.97142857,0,0,0.97142857,-45.929649,866.17332)" />
    <polygon
       style="fill:#b1bbc1"
       points="129.189,145.114 122.726,145.114 116.262,145.114 113.455,146.779 122.726,146.779 131.996,146.779 "
       id="polygon70398-8"
       transform="matrix(0.97142857,0,0,0.97142857,-45.929649,866.17332)" />
    <path
       style="fill:#ffffff"
       inkscape:connector-curvature="0"
       d="m 117.09936,943.05023 c -0.28462,-2.448 -2.34114,-4.35491 -4.86491,-4.35491 H 31.759379 c -2.523771,0 -4.580285,1.90691 -4.864914,4.35491 h -0.05731 v 52.05011 c 0,2.71808 2.2032,4.92216 4.922228,4.92216 h 80.475071 c 2.71806,0 4.92223,-2.20311 4.92223,-4.92216 v -52.05011 h -0.0573 z"
       id="path70410-6" />
    <rect
       style="fill:#00617b"
       x="31.841944"
       y="943.82928"
       width="81.049202"
       height="48.072113"
       id="rect70414-3" />
    <circle
       d="m 124.985,133.54201 c 0,1.24761 -1.01139,2.259 -2.259,2.259 -1.24761,0 -2.259,-1.01139 -2.259,-2.259 0,-1.24761 1.01139,-2.259 2.259,-2.259 1.24761,0 2.259,1.01139 2.259,2.259 z"
       style="fill:#004a5f"
       sodipodi:ry="2.2590001"
       sodipodi:rx="2.2590001"
       sodipodi:cy="133.54201"
       sodipodi:cx="122.726"
       cx="122.726"
       cy="133.54201"
       r="2.2590001"
       id="circle70416-7"
       transform="matrix(0.97142857,0,0,0.97142857,-45.929649,866.17332)" />
    <polygon
       style="fill:#004a5f"
       points="131.996,79.94 163.492,79.94 163.492,129.425 154.364,129.425 "
       id="polygon70418-9"
       transform="matrix(0.97142857,0,0,0.97142857,-45.929649,866.17332)" />
    <path
       style="opacity:0.3;fill:#002f40"
       inkscape:connector-curvature="0"
       d="M 117.15668,1000.0225 V 976.78309 H 82.048294 c -1.130743,0 -2.052629,0.85485 -2.179886,1.9516 h -0.02526 v 21.28881 h 37.313529 z"
       id="path70420-0" />
    <path
       style="fill:#ffffff"
       inkscape:connector-curvature="0"
       d="m 124.77462,984.1028 c -0.12726,-1.09674 -1.04914,-1.9516 -2.17988,-1.9516 H 86.529494 c -1.130743,0 -2.052629,0.85486 -2.179886,1.9516 h -0.02526 v 23.3268 c 0,1.2182 0.987943,2.2062 2.206114,2.2062 h 36.065245 c 1.21817,0 2.20611,-0.988 2.20611,-2.2062 v -23.3268 h -0.0272 z"
       id="path70422-6" />
    <circle
       d="m 174.836,133.536 c 0,0.52467 -0.42533,0.95 -0.95,0.95 -0.52467,0 -0.95,-0.42533 -0.95,-0.95 0,-0.52468 0.42533,-0.95 0.95,-0.95 0.52467,0 0.95,0.42532 0.95,0.95 z"
       style="fill:#406c7f"
       sodipodi:ry="0.94999999"
       sodipodi:rx="0.94999999"
       sodipodi:cy="133.536"
       sodipodi:cx="173.886"
       cx="173.886"
       cy="133.536"
       r="0.94999999"
       id="circle70424-6"
       transform="matrix(0.97142857,0,0,0.97142857,-45.929649,866.17332)" />
    <rect
       style="fill:#00617b"
       x="86.814102"
       y="984.98871"
       width="34.085487"
       height="21.796913"
       id="rect70426-0" />
    <polygon
       style="fill:#004a5f"
       points="171.736,141.53 171.736,122.31 160.879,122.31 171.736,144.748 "
       id="polygon70428-4"
       transform="matrix(0.97142857,0,0,0.97142857,-45.929649,866.17332)" />
  </g>
</svg>
