<?xml version="1.0" encoding="utf-8"?>
<!-- Generator: Adobe Illustrator 16.0.0, SVG Export Plug-In . SVG Version: 6.00 Build 0)  -->
<!DOCTYPE svg PUBLIC "-//W3C//DTD SVG 1.1//EN" "http://www.w3.org/Graphics/SVG/1.1/DTD/svg11.dtd">
<svg version="1.1" id="Calque_1" xmlns="http://www.w3.org/2000/svg" xmlns:xlink="http://www.w3.org/1999/xlink" x="0px" y="0px"
	 width="297.638px" height="297.638px" viewBox="0 0 297.638 297.638" enable-background="new 0 0 297.638 297.638"
	 xml:space="preserve">
<g>
	<path fill="#3363AC" d="M167.445,103.944C101.704,167.462,73.107,223.96,73.107,223.96L173.86,122.674l37.276-57.052
		C195.067,78.415,180.514,91.317,167.445,103.944z"/>
	<path fill="#3363AC" d="M235.44,47.247l-61.58,75.428L274.613,21.388C260.769,29.772,247.727,38.437,235.44,47.247z"/>
</g>
<polygon fill="#3363AC" points="274.613,21.388 72.574,223.427 22.888,273.114 25.456,275.683 "/>
<polygon fill="#00405B" points="31.442,274.835 25.456,275.683 274.613,21.388 "/>
<polygon fill="#3363AC" points="73.107,223.96 173.86,122.674 173.86,122.674 "/>
<path opacity="0.25" fill="#FFFFFF" d="M167.445,103.944C101.704,167.462,73.107,223.96,73.107,223.96L173.86,122.674
	L167.445,103.944z"/>
<path fill="#00405B" d="M173.86,122.674l70.275-24.064l0.169,0.137c4.609-6.544,8.504-12.831,11.818-18.811l-25.68,10.802
	l33.041-25.602c11.62-26.424,11.129-43.748,11.129-43.748L173.86,122.674z"/>
<path fill="#00405B" d="M173.86,122.674L73.107,223.96c45.161-19.682,80.183-40.533,107.372-61.082l-15.913-15.914l24.534,9.216
	c24.991-20.051,42.683-39.658,55.204-57.434l-0.169-0.137L173.86,122.674z"/>
<path opacity="0.25" fill="#FFFFFF" d="M173.86,122.674L73.107,223.96c45.161-19.682,80.183-40.533,107.372-61.082l-15.913-15.914
	l24.534,9.216c24.991-20.051,42.683-39.658,55.204-57.434l-0.169-0.137L173.86,122.674z"/>
</svg>
