<?xml version="1.0" encoding="UTF-8" standalone="no"?>
<!-- Generator: Adobe Illustrator 17.0.0, SVG Export Plug-In . SVG Version: 6.00 Build 0)  -->

<svg
   xmlns:dc="http://purl.org/dc/elements/1.1/"
   xmlns:cc="http://creativecommons.org/ns#"
   xmlns:rdf="http://www.w3.org/1999/02/22-rdf-syntax-ns#"
   xmlns:svg="http://www.w3.org/2000/svg"
   xmlns="http://www.w3.org/2000/svg"
   xmlns:sodipodi="http://sodipodi.sourceforge.net/DTD/sodipodi-0.dtd"
   xmlns:inkscape="http://www.inkscape.org/namespaces/inkscape"
   version="1.1"
   x="0px"
   y="0px"
   width="350px"
   height="240px"
   viewBox="0 0 350 240"
   enable-background="new 0 0 350 240"
   xml:space="preserve"
   id="svg69338"
   inkscape:version="0.48.4 r9939"
   sodipodi:docname="tab_peon.svg"><metadata
     id="metadata69507"><rdf:RDF><cc:Work
         rdf:about=""><dc:format>image/svg+xml</dc:format><dc:type
           rdf:resource="http://purl.org/dc/dcmitype/StillImage" /></cc:Work></rdf:RDF></metadata><defs
     id="defs69505" /><sodipodi:namedview
     pagecolor="#ffffff"
     bordercolor="#666666"
     borderopacity="1"
     objecttolerance="10"
     gridtolerance="10"
     guidetolerance="10"
     inkscape:pageopacity="0"
     inkscape:pageshadow="2"
     inkscape:window-width="1280"
     inkscape:window-height="748"
     id="namedview69503"
     showgrid="false"
     inkscape:zoom="0.96"
     inkscape:cx="585.48065"
     inkscape:cy="2.4555081"
     inkscape:window-x="0"
     inkscape:window-y="0"
     inkscape:window-maximized="1"
     inkscape:current-layer="svg69338" /><g
     id="g69830"
     transform="matrix(1.1495811,0,0,1.1495811,-33.50211,6.0129536)"><path
       id="path69510"
       d="m 629.537,111.184 c 0,0 -6.611,44.426 10.658,64.36 0,0 41.043,-52.513 37.807,-63.687 -3.236,-11.174 -48.465,-0.673 -48.465,-0.673 z"
       inkscape:connector-curvature="0"
       style="fill:#ffffff" /><path
       id="path69512"
       d="m 643.652,124.336 c 0,0 -1.613,1.416 -2.569,3.48 l 3.224,-1.394 -0.655,-2.086 z"
       inkscape:connector-curvature="0"
       style="fill:#cfe1eb" /><path
       id="path69514"
       d="m 651.753,125.492 -3.12,-1.474 1.434,3.754 2.982,2.373 c 0.063,-1.821 -0.505,-3.384 -1.291,-4.662 l -0.005,0.009 z"
       inkscape:connector-curvature="0"
       style="fill:#cfe1eb" /><path
       id="path69516"
       d="m 652.36,126.724 c 0,0 -0.815,-2.571 -3.636,-4.024 -2.821,-1.452 -6.196,2.807 -6.196,2.807 l 1.29,5.064 c -4.797,4.419 -12.894,25.1 -12.894,25.1 l 0.478,5.158 -0.141,4.49 5.459,7.751 0.054,-0.079 0.88,2.849 4.512,-1.68 6.285,-11.213 0.042,-9.461 h 0 c 0.069,-3.447 0.195,-9.645 0.254,-11.529 0.083,-2.656 -1.479,-10.227 -1.479,-10.227 l 5.092,-5.006 z"
       inkscape:connector-curvature="0"
       style="fill:#167c9c" /><path
       id="path69518"
       d="m 647.308,131.926 c 0,0 1.079,17.878 -3.172,28.077 -4.251,10.198 -5.528,14.209 -5.528,14.209 l 2.186,1.468 7.542,-13.853 c 0,0 4.939,-19.402 2.349,-24.25 -2.59,-4.848 -3.417,-5.847 -3.417,-5.847"
       inkscape:connector-curvature="0"
       style="fill:#005d7b" /><path
       id="path69520"
       d="m 657.006,130.368 c 0,0 12.894,-6.062 15.657,-9.832 l -3.106,4.646 c 0,0 -6.277,3.335 -12.551,5.186 z"
       inkscape:connector-curvature="0"
       style="fill:#cfe1eb" /><path
       id="path69522"
       d="m 632.074,116.04 c 0.224,3.778 0.78,10.599 1.932,12.16 l 1.16,-0.135 c 0,0 -2.362,-6.371 -3.039,-12.015 l -0.053,-0.01 z"
       inkscape:connector-curvature="0"
       style="fill:#cfe1eb" /><path
       id="path69526"
       d="m 718.27,189.253 -0.728,-11.173 0.063,-1.933 -10.892,-6.842 -11.564,6.987 -4.08,10.127 c 0,0 1.277,2.032 3.095,4.13 l -0.375,0.234 c 0,0 0.907,2.21 3.287,4.023 2.38,1.813 3.513,1.077 3.513,1.077 0,0 15.301,-3.23 16.819,-3.967 1.519,-0.736 0.862,-2.663 0.862,-2.663 z"
       inkscape:connector-curvature="0"
       style="fill:#fdd08f" /><path
       id="path69528"
       d="m 730.542,131.73 c -4.923,-4.381 -31.851,-17.713 -42.511,-22.912 -1.757,-0.905 -3.276,-1.65 -4.348,-2.108 -0.006,-0.003 -4.03,7.326 -5.095,7.257 -4.037,5.2 -29.383,38.888 -38.578,59.035 0,0 -11.867,-9.976 -10.298,-59.836 0,0 -2.693,-0.453 -5.596,-2.422 0,0 -14.422,12.845 -18.398,32.127 0.064,-0.026 -0.216,1.702 -0.746,4.711 -0.083,0.782 -0.214,1.529 -0.378,2.248 -2.048,12.713 -4.843,39.7 4.71,55.957 H 688 c 0.097,-0.695 5.807,-10.389 8.792,-24.335 3.364,-15.722 2.208,-35.86 2.208,-35.86 l -16.597,-5.775 h 0 l 28.954,5.689 -9.419,23.606 c 2.438,10.061 15.979,9.608 15.979,9.608 14.538,-16.666 18.791,-41.503 12.625,-46.99 z"
       inkscape:connector-curvature="0"
       style="fill:#529eb2" /><polygon
       id="polygon69564"
       points="605.908,142.793 605.908,142.792 605.902,142.794 "
       style="fill:none" /><rect
       id="rect69566"
       height="1.423"
       width="7.4619999"
       transform="matrix(1,0.006,-0.006,1,1.0985,-3.8166)"
       y="181.87801"
       x="637.86298"
       style="fill:#195e72" /><path
       id="path69568"
       d="m 643.482,182.126 c 0.156,1.523 -0.875,2.893 -2.301,3.059 -1.427,0.166 -2.709,-0.934 -2.865,-2.457 -0.156,-1.523 0.875,-2.893 2.301,-3.059 1.426,-0.166 2.709,0.934 2.865,2.457 z"
       inkscape:connector-curvature="0"
       style="fill:#95afc1" /><path
       id="path69570"
       d="m 641.16,184.986 c -1.322,0.154 -2.515,-0.869 -2.659,-2.28 -0.144,-1.411 0.814,-2.685 2.136,-2.839 1.322,-0.154 2.515,0.869 2.659,2.28 0.145,1.412 -0.813,2.685 -2.136,2.839 z m -0.501,-4.902 c -1.21,0.141 -2.088,1.307 -1.956,2.599 0.132,1.292 1.224,2.228 2.434,2.087 1.21,-0.141 2.088,-1.307 1.956,-2.599 -0.132,-1.292 -1.223,-2.228 -2.434,-2.087 z"
       inkscape:connector-curvature="0"
       style="fill:#195e72" /><path
       id="path69572"
       d="m 640.809,182.962 c 0.026,0.259 -0.149,0.492 -0.391,0.52 -0.242,0.028 -0.46,-0.159 -0.487,-0.418 -0.026,-0.259 0.149,-0.492 0.391,-0.52 0.242,-0.028 0.461,0.159 0.487,0.418 z"
       inkscape:connector-curvature="0"
       style="fill:#195e72" /><path
       id="path69574"
       d="m 640.842,181.873 c 0.026,0.259 -0.149,0.492 -0.391,0.52 -0.242,0.028 -0.46,-0.159 -0.487,-0.418 -0.026,-0.259 0.149,-0.492 0.391,-0.52 0.242,-0.028 0.461,0.159 0.487,0.418 z"
       inkscape:connector-curvature="0"
       style="fill:#195e72" /><path
       id="path69576"
       d="m 641.855,183.089 c 0.026,0.259 -0.149,0.492 -0.391,0.52 -0.242,0.028 -0.46,-0.159 -0.487,-0.418 -0.026,-0.259 0.149,-0.492 0.391,-0.52 0.242,-0.028 0.46,0.159 0.487,0.418 z"
       inkscape:connector-curvature="0"
       style="fill:#195e72" /><path
       id="path69578"
       d="m 641.888,182 c 0.026,0.259 -0.149,0.492 -0.391,0.52 -0.242,0.028 -0.46,-0.159 -0.487,-0.418 -0.026,-0.259 0.149,-0.492 0.391,-0.52 0.242,-0.028 0.461,0.159 0.487,0.418 z"
       inkscape:connector-curvature="0"
       style="fill:#195e72" /><path
       id="path69580"
       d="m 636.985,182.072 c 0,0 37.963,-37.02 43.68,-48.504 l 2.044,1.493 c 0,0 -37.204,43.567 -46.367,47.327 0,-0.001 0.041,-0.702 0.643,-0.316 z"
       inkscape:connector-curvature="0"
       style="fill:#195e72" /><path
       id="path69582"
       d="m 686.134,107.858 -0.639,0.291 c 0,0 2.065,-0.667 4.487,12.145 l -11.395,6.159 1.308,8.5 2.814,0.106 -2.204,-8.349 10.564,-5.444 c -10e-4,0.002 -2.381,-12.127 -4.935,-13.408 z"
       inkscape:connector-curvature="0"
       style="fill:#195e72" /><polygon
       id="polygon69584"
       points="669.504,150.105 670.384,149.122 680.87,148.785 680.996,150.021 "
       style="fill:#195e72" /><path
       id="path69586"
       d="m 663.709,156.5 c 0,0 15.255,0.417 17.363,-0.442 0,0 0.541,0.334 0.087,0.855 0,0 -10.44,1.288 -18.113,-0.09 l 0.663,-0.323 z"
       inkscape:connector-curvature="0"
       style="fill:#195e72" /><path
       id="path69588"
       d="m 681.16,156.913 c 0,0 0.322,-0.236 0.3,-0.864 -0.022,-0.628 -0.464,-6.028 -0.464,-6.028 l -0.145,0.001 0.221,6.036 0.088,0.855 z"
       inkscape:connector-curvature="0"
       style="fill:#195e72" /><path
       id="path69590"
       d="m 676.141,199.519 c 0.087,0.555 0.289,1.842 0.525,3.309 2.434,-1.321 4.797,-2.758 7.085,-4.306 -3.647,0.692 -6.547,0.929 -7.61,0.997 z"
       inkscape:connector-curvature="0"
       style="fill:none" /><path
       id="path69592"
       d="m 638.3,205.788 c -0.921,-9.874 -1.315,-23.716 -1.315,-23.716 l 3.023,-9.07 -0.54,-0.46 -3.482,9.454 c -0.21,0.576 -0.336,1.491 -0.395,2.654 l 0,-0.003 0,0.004 c -0.14,2.737 0.091,6.862 0.48,11.276 l 0.27,9.86 h 1.959 z"
       inkscape:connector-curvature="0"
       style="fill:#195e72" /><path
       id="path69594"
       d="m 634.933,72.336 -5.389,-4.904 c 0,0 -1.643,-1.083 -1.436,2.832 0.206,3.915 -0.352,12.708 4.723,11.804 5.075,-0.903 2.102,-9.732 2.102,-9.732 z"
       inkscape:connector-curvature="0"
       style="fill:#fdd08f" /><g
       id="g69596"><path
         id="path69598"
         d="m 634.894,78.587 c -1.765,0.497 -4.695,-8.581 -5.511,-11.233 -0.408,-0.154 -1.441,-0.243 -1.275,2.91 0.206,3.915 -0.352,12.708 4.723,11.804 2.061,-0.367 2.794,-2.041 2.939,-3.9 -0.25,0.179 -0.538,0.323 -0.876,0.419 z"
         inkscape:connector-curvature="0"
         style="fill:none" /><path
         id="path69600"
         d="m 634.894,78.587 c 0.339,-0.095 0.627,-0.24 0.876,-0.418 0.212,-2.719 -0.837,-5.833 -0.837,-5.833 l -5.389,-4.904 c 0,0 -0.063,-0.041 -0.161,-0.078 0.815,2.652 3.746,11.73 5.511,11.233 z"
         inkscape:connector-curvature="0"
         style="fill:#f7ae83" /></g><path
       id="path69602"
       d="m 685.667,78.85 -1.616,-6.19 c -5.429,-19.316 -25.926,-19.168 -35.825,-17.127 -9.899,2.041 -14.966,14.111 -14.433,24.437 0.53,10.258 -8.369,19.952 -8.488,20.081 -0.208,0.467 -0.33,0.731 -0.33,0.731 0,0 18.033,3.294 21.362,0.119 3.328,-3.175 19.891,8.99 19.891,8.99 0,0 2.896,-0.629 6.589,-3.723 2.524,1.97 6.456,4.51 8.243,3.4 2.713,-1.684 1.713,-2.635 0.356,-7.464 -0.696,-2.475 0.07,-6.104 0.982,-9.054 0.715,-1.568 1.335,-3.213 1.839,-4.94 0.015,-0.034 0.026,-0.058 0.026,-0.058 0,0 -0.006,-0.007 -0.007,-0.009 0.823,-2.839 1.329,-5.897 1.411,-9.193 z"
       inkscape:connector-curvature="0"
       style="fill:#fdd08f" /><ellipse
       id="ellipse69604"
       ry="4.9050002"
       rx="1.325"
       cy="78.764"
       cx="648.25598"
       transform="matrix(0.9928,0.1198,-0.1198,0.9928,14.1,-77.0749)"
       sodipodi:cx="648.25598"
       sodipodi:cy="78.764"
       sodipodi:rx="1.325"
       sodipodi:ry="4.9050002"
       style="fill:#2b4d5a"
       d="m 649.58098,78.764 c 0,2.708957 -0.59322,4.905 -1.325,4.905 -0.73178,0 -1.325,-2.196043 -1.325,-4.905 0,-2.708957 0.59322,-4.905 1.325,-4.905 0.73178,0 1.325,2.196043 1.325,4.905 z" /><ellipse
       id="ellipse69606"
       ry="6.1609998"
       rx="2.434"
       cy="78.856003"
       cx="657.88599"
       transform="matrix(0.9971,-0.0767,0.0767,0.9971,-4.1099,50.6832)"
       sodipodi:cx="657.88599"
       sodipodi:cy="78.856003"
       sodipodi:rx="2.434"
       sodipodi:ry="6.1609998"
       style="fill:#2b4d5a"
       d="m 660.31999,78.856003 c 0,3.402626 -1.08974,6.161 -2.434,6.161 -1.34426,0 -2.434,-2.758374 -2.434,-6.161 0,-3.402626 1.08974,-6.161 2.434,-6.161 1.34426,0 2.434,2.758374 2.434,6.161 z" /><path
       id="path69608"
       d="m 665.127,116.965 c 0,0 -11.403,-2.862 -14.149,-14.183 0,0 -5.126,9.474 -15.923,11.28 9.119,13.219 30.072,2.903 30.072,2.903 z"
       inkscape:connector-curvature="0"
       style="fill:#fdd08f" /><path
       id="path69610"
       d="m 681.088,65.855 c 0,0 1.773,9.488 0.774,11.715 -0.999,2.228 2.132,0.626 3.111,-1.382 -10e-4,0 -1.363,-7.041 -3.885,-10.333 z"
       inkscape:connector-curvature="0"
       style="fill:#f7ae83" /><g
       id="g69612"><path
         id="path69614"
         d="m 650.774,120.77 c 7.481,-0.429 14.21,-3.739 14.21,-3.739 0,0 -11.26,-2.929 -14.005,-14.249 0,0 -3.937,7.275 -12.178,10.29 1.32,2.543 4.486,6.168 11.973,7.698 z"
         inkscape:connector-curvature="0"
         style="fill:none" /><path
         id="path69616"
         d="m 638.801,113.072 c -1.163,0.425 -2.51,0.323 -3.845,0.546 1.228,6.041 10.427,7.44 16.104,7.115 -7.488,-1.529 -10.939,-5.118 -12.259,-7.661 z"
         inkscape:connector-curvature="0"
         style="fill:#f7ae83" /></g><path
       id="path69618"
       d="m 684.209,90.115 c 0,0 -1.387,-3.314 -2.765,-2.353 0,0 -0.477,0.286 -1.241,0.858 -0.045,0.07 -0.093,0.147 -0.144,0.228 0.147,0.038 0.231,0.063 0.231,0.063 0,0 -5.144,6.905 -2.45,12.567 1.557,3.273 1.271,6.874 0.711,9.335 0.63,-0.29 1.187,-0.624 1.623,-0.979 3.314,-2.705 2.401,-4.877 2.401,-4.877 0,0 -3.28,-7.73 1.634,-14.842 z"
       inkscape:connector-curvature="0"
       style="fill:#f7ae83" /><path
       id="path69620"
       d="m 681.338,77.814 c 0,0 11.745,-5.541 12.82,-4.248 1.075,1.293 0.224,6.214 -1.544,10.604 -1.768,4.39 -4.084,7.559 -12.213,5.178 -8.128,-2.381 0.937,-11.534 0.937,-11.534 z"
       inkscape:connector-curvature="0"
       style="fill:#fdd08f" /><path
       id="path69622"
       d="m 685.972,79.406 c 0,0 5.996,-4.951 6.029,-1.917 0.032,3.034 -1.119,6.186 -3.763,7.709 0,0 -0.882,0.425 0.192,-1.02 1.074,-1.445 2.746,-5.948 1.815,-5.504 -0.931,0.445 -6.463,2.33 -4.273,0.732 z"
       inkscape:connector-curvature="0"
       style="fill:#f7ae83" /><path
       id="path69624"
       d="m 684.411,83.407 c 0,0 -0.444,1.277 0.903,1.265 1.347,-0.012 1.146,1.467 0.138,1.504 -1.008,0.037 -2.772,-2.048 -1.041,-2.769 z"
       inkscape:connector-curvature="0"
       style="fill:#f7ae83" /><path
       id="path69628"
       d="m 519.782,83.889 c 0,0 -0.06,-2.318 2.173,-2.85 0.175,-0.032 0.35,-0.064 0.537,-0.09 0.119,-0.513 0.522,-1.092 1.613,-1.492 2.388,-0.874 5.711,0.557 5.711,0.557 3.168,-2.421 11.812,3.766 13.221,4.807 l 8.391,4.494 c 3.683,-0.918 5.031,-2.96 5.031,-2.96 0,0 0.842,-6.805 4.368,-8.19 3.526,-1.386 5.498,2.243 3.647,6.234 -0.778,1.677 0.253,4.859 1.709,7.985 l 0,0.003 c 0,0 1.026,2.543 0.542,5.122 l 0.964,0.516 c 0,0 -20.974,-1.014 -18.897,15.314 0,0 -16.784,-6.404 -30.438,-23.965 -0.115,-0.23 -2.268,-4.587 1.428,-5.485 z"
       inkscape:connector-curvature="0"
       style="fill:#fdd08f" /><path
       id="path69630"
       d="m 564.511,88.67 c 0.073,0.006 0.148,0.023 0.223,0.042 0.358,1.167 0.869,2.423 1.45,3.671 l 0,0.003 c 0,0 1.026,2.543 0.542,5.122 l 0.964,0.516 c 0,0 -1.32,-0.064 -3.264,0.099 1.311,-3.766 0.085,-9.453 0.085,-9.453 z"
       inkscape:connector-curvature="0"
       style="fill:#f7ae83" /><path
       id="path69632"
       d="m 552.387,111.752 c 0,0 -3.412,-0.253 -6.475,-1.789 -3.063,-1.536 1.47,-12.985 1.47,-12.985 l 12.912,-3.582 4.132,1.748 -2.94,10.487 -9.099,6.121 z"
       inkscape:connector-curvature="0"
       style="fill:#fdd08f" /><path
       id="path69634"
       d="m 553.357,121.242 -2.477,-0.384 c 0,0 -3.017,-15.786 6.03,-21.092 9.047,-5.306 11.592,-0.853 11.592,-0.853 l -15.145,22.329 z"
       inkscape:connector-curvature="0"
       style="fill:#dff2fd" /><path
       id="path69636"
       d="m 627.104,110.196 c 0,0 -38.275,4.948 -59.221,-13.424 0,0 -22.399,2.262 -13.454,29.262 0,0 27.149,12.569 59.314,5.97 l 8.258,-13.01 0.74,-1.868 4.363,-6.93 z"
       inkscape:connector-curvature="0"
       style="fill:#529eb2" /><g
       id="g69638"><rect
         id="rect69640"
         height="3.7060001"
         width="0.47099999"
         transform="matrix(-0.9964,-0.0852,0.0852,-0.9964,1117.7853,299.4316)"
         y="124.007"
         x="565.04797"
         style="fill:#34606f" /><rect
         id="rect69642"
         height="3.7060001"
         width="0.47099999"
         transform="matrix(-0.9964,-0.0852,0.0852,-0.9964,1112.553,297.7239)"
         y="123.265"
         x="562.39502"
         style="fill:#34606f" /><rect
         id="rect69644"
         height="3.7060001"
         width="0.47099999"
         transform="matrix(-0.9964,-0.0852,0.0852,-0.9964,1107.1284,296.0779)"
         y="122.558"
         x="559.64801"
         style="fill:#34606f" /><rect
         id="rect69646"
         height="3.7060001"
         width="0.47099999"
         transform="matrix(-0.9964,-0.0852,0.0852,-0.9964,1101.5985,294.3423)"
         y="121.808"
         x="556.84601"
         style="fill:#34606f" /><g
         id="g69648"><circle
           id="circle69650"
           r="1.3839999"
           cy="126.144"
           cx="565.336"
           sodipodi:cx="565.336"
           sodipodi:cy="126.144"
           sodipodi:rx="1.3839999"
           sodipodi:ry="1.3839999"
           style="fill:#84a8b2"
           d="m 566.72,126.144 c 0,0.76436 -0.61964,1.384 -1.384,1.384 -0.76436,0 -1.384,-0.61964 -1.384,-1.384 0,-0.76436 0.61964,-1.384 1.384,-1.384 0.76436,0 1.384,0.61964 1.384,1.384 z" /><path
           id="path69652"
           d="m 564.055,126.035 c 0.06,-0.706 0.684,-1.231 1.39,-1.171 0.706,0.06 1.231,0.684 1.171,1.39 -0.06,0.706 -0.684,1.231 -1.39,1.171 -0.706,-0.06 -1.231,-0.684 -1.171,-1.39 z m 0.109,0.009 c -0.055,0.646 0.425,1.217 1.072,1.272 0.646,0.055 1.217,-0.425 1.272,-1.072 0.055,-0.646 -0.426,-1.217 -1.072,-1.272 -0.647,-0.055 -1.217,0.426 -1.272,1.072 z"
           inkscape:connector-curvature="0"
           style="fill:#34606f" /><circle
           id="circle69654"
           r="0.235"
           cy="126.43"
           cx="565.62402"
           sodipodi:cx="565.62402"
           sodipodi:cy="126.43"
           sodipodi:rx="0.235"
           sodipodi:ry="0.235"
           style="fill:#34606f"
           d="m 565.85902,126.43 c 0,0.12979 -0.10521,0.235 -0.235,0.235 -0.12978,0 -0.235,-0.10521 -0.235,-0.235 0,-0.12979 0.10522,-0.235 0.235,-0.235 0.12979,0 0.235,0.10521 0.235,0.235 z" /><circle
           id="circle69656"
           r="0.235"
           cy="125.887"
           cx="565.59399"
           sodipodi:cx="565.59399"
           sodipodi:cy="125.887"
           sodipodi:rx="0.235"
           sodipodi:ry="0.235"
           style="fill:#34606f"
           d="m 565.82899,125.887 c 0,0.12979 -0.10521,0.235 -0.235,0.235 -0.12978,0 -0.235,-0.10521 -0.235,-0.235 0,-0.12979 0.10522,-0.235 0.235,-0.235 0.12979,0 0.235,0.10521 0.235,0.235 z" /><circle
           id="circle69658"
           r="0.235"
           cy="126.506"
           cx="565.06799"
           sodipodi:cx="565.06799"
           sodipodi:cy="126.506"
           sodipodi:rx="0.235"
           sodipodi:ry="0.235"
           style="fill:#34606f"
           d="m 565.30299,126.506 c 0,0.12978 -0.10521,0.235 -0.235,0.235 -0.12978,0 -0.235,-0.10522 -0.235,-0.235 0,-0.12979 0.10522,-0.235 0.235,-0.235 0.12979,0 0.235,0.10521 0.235,0.235 z" /><circle
           id="circle69660"
           r="0.235"
           cy="125.963"
           cx="565.03802"
           sodipodi:cx="565.03802"
           sodipodi:cy="125.963"
           sodipodi:rx="0.235"
           sodipodi:ry="0.235"
           style="fill:#34606f"
           d="m 565.27302,125.963 c 0,0.12978 -0.10521,0.235 -0.235,0.235 -0.12978,0 -0.235,-0.10522 -0.235,-0.235 0,-0.12979 0.10522,-0.235 0.235,-0.235 0.12979,0 0.235,0.10521 0.235,0.235 z" /></g><g
         id="g69662"><circle
           id="circle69664"
           r="1.3839999"
           cy="125.522"
           cx="562.59601"
           sodipodi:cx="562.59601"
           sodipodi:cy="125.522"
           sodipodi:rx="1.3839999"
           sodipodi:ry="1.3839999"
           style="fill:#84a8b2"
           d="m 563.98001,125.522 c 0,0.76437 -0.61964,1.384 -1.384,1.384 -0.76436,0 -1.384,-0.61963 -1.384,-1.384 0,-0.76436 0.61964,-1.384 1.384,-1.384 0.76436,0 1.384,0.61964 1.384,1.384 z" /><path
           id="path69666"
           d="m 561.316,125.413 c 0.06,-0.706 0.684,-1.231 1.39,-1.171 0.706,0.06 1.231,0.684 1.171,1.39 -0.06,0.706 -0.684,1.231 -1.39,1.171 -0.706,-0.06 -1.232,-0.684 -1.171,-1.39 z m 0.108,0.009 c -0.055,0.646 0.425,1.217 1.072,1.272 0.646,0.055 1.217,-0.425 1.272,-1.072 0.055,-0.646 -0.425,-1.217 -1.072,-1.272 -0.646,-0.055 -1.217,0.426 -1.272,1.072 z"
           inkscape:connector-curvature="0"
           style="fill:#34606f" /><circle
           id="circle69668"
           r="0.235"
           cy="125.808"
           cx="562.88397"
           sodipodi:cx="562.88397"
           sodipodi:cy="125.808"
           sodipodi:rx="0.235"
           sodipodi:ry="0.235"
           style="fill:#34606f"
           d="m 563.11897,125.808 c 0,0.12979 -0.10521,0.235 -0.235,0.235 -0.12978,0 -0.235,-0.10521 -0.235,-0.235 0,-0.12979 0.10522,-0.235 0.235,-0.235 0.12979,0 0.235,0.10521 0.235,0.235 z" /><circle
           id="circle69670"
           r="0.235"
           cy="125.265"
           cx="562.854"
           sodipodi:cx="562.854"
           sodipodi:cy="125.265"
           sodipodi:rx="0.235"
           sodipodi:ry="0.235"
           style="fill:#34606f"
           d="m 563.089,125.265 c 0,0.12979 -0.10521,0.235 -0.235,0.235 -0.12978,0 -0.235,-0.10521 -0.235,-0.235 0,-0.12979 0.10522,-0.235 0.235,-0.235 0.12979,0 0.235,0.10521 0.235,0.235 z" /><circle
           id="circle69672"
           r="0.235"
           cy="125.884"
           cx="562.32898"
           sodipodi:cx="562.32898"
           sodipodi:cy="125.884"
           sodipodi:rx="0.235"
           sodipodi:ry="0.235"
           style="fill:#34606f"
           d="m 562.56398,125.884 c 0,0.12979 -0.10521,0.235 -0.235,0.235 -0.12979,0 -0.235,-0.10521 -0.235,-0.235 0,-0.12978 0.10521,-0.235 0.235,-0.235 0.12979,0 0.235,0.10522 0.235,0.235 z" /><circle
           id="circle69674"
           r="0.235"
           cy="125.342"
           cx="562.29797"
           sodipodi:cx="562.29797"
           sodipodi:cy="125.342"
           sodipodi:rx="0.235"
           sodipodi:ry="0.235"
           style="fill:#34606f"
           d="m 562.53297,125.342 c 0,0.12979 -0.10521,0.235 -0.235,0.235 -0.12978,0 -0.235,-0.10521 -0.235,-0.235 0,-0.12978 0.10522,-0.235 0.235,-0.235 0.12979,0 0.235,0.10522 0.235,0.235 z" /></g><g
         id="g69676"><circle
           id="circle69678"
           r="1.3839999"
           cy="124.891"
           cx="559.79602"
           sodipodi:cx="559.79602"
           sodipodi:cy="124.891"
           sodipodi:rx="1.3839999"
           sodipodi:ry="1.3839999"
           style="fill:#84a8b2"
           d="m 561.18002,124.891 c 0,0.76436 -0.61964,1.384 -1.384,1.384 -0.76436,0 -1.384,-0.61964 -1.384,-1.384 0,-0.76436 0.61964,-1.384 1.384,-1.384 0.76436,0 1.384,0.61964 1.384,1.384 z" /><path
           id="path69680"
           d="m 558.535,124.642 c 0.138,-0.695 0.815,-1.148 1.51,-1.011 0.695,0.138 1.149,0.815 1.011,1.51 -0.138,0.695 -0.815,1.148 -1.51,1.011 -0.695,-0.138 -1.148,-0.815 -1.011,-1.51 z m 0.107,0.021 c -0.126,0.636 0.289,1.256 0.926,1.382 0.636,0.126 1.256,-0.289 1.382,-0.925 0.126,-0.636 -0.289,-1.256 -0.926,-1.382 -0.636,-0.126 -1.256,0.289 -1.382,0.925 z"
           inkscape:connector-curvature="0"
           style="fill:#34606f" /><circle
           id="circle69682"
           r="0.235"
           cy="125.207"
           cx="560.05103"
           sodipodi:cx="560.05103"
           sodipodi:cy="125.207"
           sodipodi:rx="0.235"
           sodipodi:ry="0.235"
           style="fill:#34606f"
           d="m 560.28603,125.207 c 0,0.12979 -0.10522,0.235 -0.235,0.235 -0.12979,0 -0.235,-0.10521 -0.235,-0.235 0,-0.12979 0.10521,-0.235 0.235,-0.235 0.12978,0 0.235,0.10521 0.235,0.235 z" /><circle
           id="circle69684"
           r="0.235"
           cy="124.664"
           cx="560.08099"
           sodipodi:cx="560.08099"
           sodipodi:cy="124.664"
           sodipodi:rx="0.235"
           sodipodi:ry="0.235"
           style="fill:#34606f"
           d="m 560.31599,124.664 c 0,0.12979 -0.10521,0.235 -0.235,0.235 -0.12978,0 -0.235,-0.10521 -0.235,-0.235 0,-0.12979 0.10522,-0.235 0.235,-0.235 0.12979,0 0.235,0.10521 0.235,0.235 z" /><circle
           id="circle69686"
           r="0.235"
           cy="125.222"
           cx="559.48999"
           sodipodi:cx="559.48999"
           sodipodi:cy="125.222"
           sodipodi:rx="0.235"
           sodipodi:ry="0.235"
           style="fill:#34606f"
           d="m 559.72499,125.222 c 0,0.12979 -0.10521,0.235 -0.235,0.235 -0.12979,0 -0.235,-0.10521 -0.235,-0.235 0,-0.12979 0.10521,-0.235 0.235,-0.235 0.12979,0 0.235,0.10521 0.235,0.235 z" /><circle
           id="circle69688"
           r="0.235"
           cy="124.679"
           cx="559.52002"
           sodipodi:cx="559.52002"
           sodipodi:cy="124.679"
           sodipodi:rx="0.235"
           sodipodi:ry="0.235"
           style="fill:#34606f"
           d="m 559.75502,124.679 c 0,0.12979 -0.10521,0.235 -0.235,0.235 -0.12979,0 -0.235,-0.10521 -0.235,-0.235 0,-0.12979 0.10521,-0.235 0.235,-0.235 0.12979,0 0.235,0.10521 0.235,0.235 z" /></g><g
         id="g69690"><circle
           id="circle69692"
           r="1.3839999"
           cy="124.253"
           cx="557.07098"
           sodipodi:cx="557.07098"
           sodipodi:cy="124.253"
           sodipodi:rx="1.3839999"
           sodipodi:ry="1.3839999"
           style="fill:#84a8b2"
           d="m 558.45498,124.253 c 0,0.76436 -0.61963,1.384 -1.384,1.384 -0.76436,0 -1.384,-0.61964 -1.384,-1.384 0,-0.76436 0.61964,-1.384 1.384,-1.384 0.76437,0 1.384,0.61964 1.384,1.384 z" /><path
           id="path69694"
           d="m 555.811,124.004 c 0.138,-0.695 0.815,-1.148 1.51,-1.011 0.695,0.138 1.149,0.815 1.011,1.51 -0.138,0.695 -0.815,1.148 -1.51,1.011 -0.695,-0.138 -1.149,-0.815 -1.011,-1.51 z m 0.106,0.021 c -0.126,0.636 0.289,1.256 0.926,1.382 0.636,0.126 1.256,-0.289 1.382,-0.925 0.126,-0.636 -0.289,-1.256 -0.926,-1.382 -0.637,-0.126 -1.256,0.289 -1.382,0.925 z"
           inkscape:connector-curvature="0"
           style="fill:#34606f" /><circle
           id="circle69696"
           r="0.235"
           cy="124.569"
           cx="557.32703"
           sodipodi:cx="557.32703"
           sodipodi:cy="124.569"
           sodipodi:rx="0.235"
           sodipodi:ry="0.235"
           style="fill:#34606f"
           d="m 557.56203,124.569 c 0,0.12979 -0.10522,0.235 -0.235,0.235 -0.12979,0 -0.235,-0.10521 -0.235,-0.235 0,-0.12979 0.10521,-0.235 0.235,-0.235 0.12978,0 0.235,0.10521 0.235,0.235 z" /><circle
           id="circle69698"
           r="0.235"
           cy="124.026"
           cx="557.35602"
           sodipodi:cx="557.35602"
           sodipodi:cy="124.026"
           sodipodi:rx="0.235"
           sodipodi:ry="0.235"
           style="fill:#34606f"
           d="m 557.59102,124.026 c 0,0.12979 -0.10522,0.235 -0.235,0.235 -0.12979,0 -0.235,-0.10521 -0.235,-0.235 0,-0.12979 0.10521,-0.235 0.235,-0.235 0.12978,0 0.235,0.10521 0.235,0.235 z" /><circle
           id="circle69700"
           r="0.235"
           cy="124.584"
           cx="556.76599"
           sodipodi:cx="556.76599"
           sodipodi:cy="124.584"
           sodipodi:rx="0.235"
           sodipodi:ry="0.235"
           style="fill:#34606f"
           d="m 557.00099,124.584 c 0,0.12979 -0.10521,0.235 -0.235,0.235 -0.12979,0 -0.235,-0.10521 -0.235,-0.235 0,-0.12979 0.10521,-0.235 0.235,-0.235 0.12979,0 0.235,0.10521 0.235,0.235 z" /><circle
           id="circle69702"
           r="0.235"
           cy="124.041"
           cx="556.79498"
           sodipodi:cx="556.79498"
           sodipodi:cy="124.041"
           sodipodi:rx="0.235"
           sodipodi:ry="0.235"
           style="fill:#34606f"
           d="m 557.02998,124.041 c 0,0.12979 -0.10521,0.235 -0.235,0.235 -0.12978,0 -0.235,-0.10521 -0.235,-0.235 0,-0.12979 0.10522,-0.235 0.235,-0.235 0.12979,0 0.235,0.10521 0.235,0.235 z" /></g></g><path
       id="path69704"
       d="m 610.375,129.613 -1.537,3.259 c -11.344,1.609 -22.538,1.067 -31.213,-0.333 0.767,0.009 27.6,-0.027 32.75,-2.926 z"
       inkscape:connector-curvature="0"
       style="fill:#34606f" /><path
       id="path69706"
       d="m 517.9,85.274 c 2.728,6.467 18.675,17.047 26.49,21.94 l 0,0 6.26,3.589 c 0,0 -0.266,2.136 -0.235,3.041 0,0 -1.404,-0.243 -3.969,-1.545 l 0,-0.001 c -5.083,-2.428 -17.522,-9.332 -28.091,-22.925 -0.084,-0.165 -1.222,-2.485 -0.455,-4.099 z"
       inkscape:connector-curvature="0"
       style="fill:#f7ae83" /><path
       id="path69770"
       d="m 619.928,141.963 c -0.015,-0.064 -2.126,-9.159 -1.914,-11.843 l 4.692,-4.039 -3.081,-9.432 5.35,-6.495 h -0.871 l -5.194,6.327 3.589,9.558 c 0,0 -4.899,3.648 -4.895,4.008 0.004,0.36 0.122,5.543 0.961,8.761 0.007,0.028 0.014,0.051 0.021,0.079 3.684,24.821 19.865,36.418 19.865,36.418 l 0.73,-1.981 c -10.192,-4.38 -16.408,-21.388 -19.253,-31.361 z"
       inkscape:connector-curvature="0"
       style="fill:#195e72" /><g
       id="g70056"><path
         style="fill:#69a5ba"
         inkscape:connector-curvature="0"
         d="m 140.422,205.788 c -0.671,-3.229 -1.111,-5.273 -1.111,-5.273 h -25.357 l -2.028,5.273 h 28.496 z"
         id="path69524" /><path
         style="fill:#628ea0"
         inkscape:connector-curvature="0"
         d="m 128.031,115.499 c -2.499,2.999 -7.77,5.073 -13.889,5.073 -5.997,0 -11.184,-1.991 -13.741,-4.894 l -7.918,29.295 16.57,53.21 3.967,4.999 24.271,0.602 4.706,-65.112 -13.966,-23.173 z"
         id="path69530" /><rect
         style="fill:#40879e"
         x="116.987"
         y="200.515"
         width="15.169"
         height="3.1400001"
         id="rect69532" /><path
         style="fill:#dff2fd"
         inkscape:connector-curvature="0"
         d="m 42.577,191.825 c 0.021,0.088 0.043,0.164 0.065,0.244 0.401,1.64 1.186,3.342 2.508,5.075 0.516,0.761 1.162,1.529 1.943,2.186 7.191,7.049 16.109,1.963 22.131,-3.284 -0.205,3.177 -0.316,6.462 -0.279,9.743 h 48.041 v -18.634 c 0,0 -16.071,-71.84 -22.821,-75.555 -1.948,-1.072 -2.023,-4.81 -4.75,1.473 l -0.5,-2.259 c 0,0 -32.75,4.933 -41.5,42.502 -5.953,25.562 -5.657,34.996 -4.859,38.42 0.008,0.029 0.015,0.059 0.021,0.089 z"
         id="path69534" /><ellipse
         d="m 187.19501,161.70399 c 0,7.7215 -3.38115,13.981 -7.552,13.981 -4.17086,0 -7.552,-6.2595 -7.552,-13.981 0,-7.72149 3.38114,-13.981 7.552,-13.981 4.17085,0 7.552,6.25951 7.552,13.981 z"
         style="fill:#8cbcd5"
         sodipodi:ry="13.981"
         sodipodi:rx="7.552"
         sodipodi:cy="161.70399"
         sodipodi:cx="179.64301"
         transform="matrix(0.9762,-0.2168,0.2168,0.9762,-30.783,42.7893)"
         cx="179.64301"
         cy="161.70399"
         rx="7.552"
         ry="13.981"
         id="ellipse69536" /><path
         style="fill:#40879e"
         inkscape:connector-curvature="0"
         d="m 103.859,120.103 c 0,0 7.037,3.579 13.129,2.391 6.092,-1.188 9.758,-2.391 9.758,-2.391 0,0 4.051,8.757 4.22,10.768 0,0 -0.194,-11.041 -3.486,-14.565 0,0 -4.474,3.934 -10.909,4.154 -6.435,0.22 -10.748,-0.749 -15.219,-3.844 l 0.188,3.408 2.319,0.079 z"
         id="path69538" /><path
         style="fill:#fdd08f"
         inkscape:connector-curvature="0"
         d="m 129.285,72.336 5.389,-4.904 c 0,0 1.643,-1.083 1.436,2.832 -0.207,3.915 0.352,12.708 -4.723,11.804 -5.075,-0.904 -2.102,-9.732 -2.102,-9.732 z"
         id="path69540" /><g
         id="g69542"><path
           style="fill:none"
           inkscape:connector-curvature="0"
           d="m 129.324,78.587 c 1.765,0.497 4.695,-8.581 5.511,-11.233 0.408,-0.154 1.441,-0.243 1.275,2.91 -0.206,3.915 0.352,12.708 -4.723,11.804 -2.061,-0.367 -2.794,-2.041 -2.939,-3.9 0.249,0.179 0.538,0.323 0.876,0.419 z"
           id="path69544" /><path
           style="fill:#f7ae83"
           inkscape:connector-curvature="0"
           d="m 129.324,78.587 c -0.339,-0.095 -0.627,-0.24 -0.876,-0.418 -0.212,-2.719 0.837,-5.833 0.837,-5.833 l 5.389,-4.904 c 0,0 0.063,-0.041 0.161,-0.078 -0.816,2.652 -3.746,11.73 -5.511,11.233 z"
           id="path69546" /></g><path
         style="fill:#fdd08f"
         inkscape:connector-curvature="0"
         d="m 78.551,78.85 1.616,-6.19 c 5.429,-19.316 25.926,-19.168 35.825,-17.127 9.899,2.041 14.966,14.111 14.433,24.437 -0.53,10.258 8.369,19.952 8.488,20.081 0.208,0.467 0.33,0.731 0.33,0.731 0,0 -18.033,3.294 -21.362,0.119 -3.328,-3.175 -19.891,8.99 -19.891,8.99 0,0 -2.896,-0.629 -6.589,-3.723 -2.524,1.97 -6.456,4.51 -8.243,3.4 -2.713,-1.684 -1.713,-2.635 -0.356,-7.464 0.696,-2.475 -0.07,-6.104 -0.982,-9.054 -0.715,-1.568 -1.335,-3.213 -1.839,-4.94 -0.015,-0.034 -0.026,-0.058 -0.026,-0.058 0,0 0.006,-0.007 0.007,-0.009 -0.823,-2.839 -1.329,-5.897 -1.411,-9.193 z"
         id="path69548" /><ellipse
         d="m 107.238,79.515999 c 0,2.708957 -0.59322,4.905 -1.325,4.905 -0.73178,0 -1.325,-2.196043 -1.325,-4.905 0,-2.708957 0.59322,-4.905 1.325,-4.905 0.73178,0 1.325,2.196043 1.325,4.905 z"
         style="fill:#2b4d5a"
         sodipodi:ry="4.9050002"
         sodipodi:rx="1.325"
         sodipodi:cy="79.515999"
         sodipodi:cx="105.913"
         transform="matrix(0.9999,-0.0158,0.0158,0.9999,-1.2423,1.6822)"
         cx="105.913"
         cy="79.515999"
         rx="1.325"
         ry="4.9050002"
         id="ellipse69550" /><ellipse
         d="m 117.9,78.303001 c 0,3.402627 -1.08974,6.161 -2.434,6.161 -1.34426,0 -2.434,-2.758373 -2.434,-6.161 0,-3.402626 1.08974,-6.160999 2.434,-6.160999 1.34426,0 2.434,2.758373 2.434,6.160999 z"
         style="fill:#2b4d5a"
         sodipodi:ry="6.1609998"
         sodipodi:rx="2.434"
         sodipodi:cy="78.303001"
         sodipodi:cx="115.466"
         transform="matrix(0.9775,-0.211,0.211,0.9775,-13.923,26.1279)"
         cx="115.466"
         cy="78.303001"
         rx="2.434"
         ry="6.1609998"
         id="ellipse69552" /><path
         style="fill:#f7ae83"
         inkscape:connector-curvature="0"
         d="m 83.13,65.855 c 0,0 -1.773,9.488 -0.774,11.715 0.999,2.228 -2.132,0.626 -3.111,-1.382 10e-4,0 1.363,-7.041 3.885,-10.333 z"
         id="path69554" /><path
         style="fill:#f7ae83"
         inkscape:connector-curvature="0"
         d="m 80.009,90.115 c 0,0 1.387,-3.314 2.765,-2.353 0,0 0.477,0.286 1.241,0.858 0.045,0.07 0.093,0.147 0.144,0.228 -0.147,0.038 -0.231,0.063 -0.231,0.063 0,0 5.144,6.905 2.45,12.567 -1.557,3.273 -1.271,6.874 -0.711,9.335 -0.63,-0.29 -1.187,-0.624 -1.622,-0.979 -3.314,-2.705 -2.401,-4.877 -2.401,-4.877 0,0 3.279,-7.73 -1.635,-14.842 z"
         id="path69556" /><path
         style="fill:#fdd08f"
         inkscape:connector-curvature="0"
         d="m 82.88,77.814 c 0,0 -11.745,-5.541 -12.82,-4.248 -1.075,1.293 -0.224,6.214 1.544,10.604 1.768,4.39 4.084,7.559 12.213,5.178 C 91.945,86.967 82.88,77.814 82.88,77.814 z"
         id="path69558" /><path
         style="fill:#f7ae83"
         inkscape:connector-curvature="0"
         d="m 78.246,79.406 c 0,0 -5.996,-4.951 -6.029,-1.917 -0.033,3.034 1.119,6.186 3.763,7.709 0,0 0.882,0.425 -0.192,-1.02 -1.074,-1.445 -2.746,-5.948 -1.815,-5.504 0.931,0.444 6.463,2.33 4.273,0.732 z"
         id="path69560" /><path
         style="fill:#f7ae83"
         inkscape:connector-curvature="0"
         d="m 79.807,83.407 c 0,0 0.444,1.277 -0.903,1.265 -1.347,-0.012 -1.146,1.467 -0.138,1.504 1.007,0.037 2.772,-2.048 1.041,-2.769 z"
         id="path69562" /><path
         style="fill:#dff2fd"
         inkscape:connector-curvature="0"
         d="m 132.157,205.788 h 22.871 v -1.539 l -4.668,-1.4 v -25.438 c 0,0 5.601,8.401 10.502,8.401 4.901,0 18.903,-3.734 24.038,-11.669 0,0 -10.735,-11.202 -10.269,-25.905 0,0 -0.933,-2.1 -16.336,6.534 0,0 0.7,-10.735 -4.667,-20.77 -5.042,-9.425 -9.263,-19.466 -23.486,-23.166 -0.063,0.611 -0.126,1.185 -0.184,1.673 -0.229,1.922 -1.84,3.333 -2.692,3.956 l -0.145,1.581 h -0.002 c 2.071,5.198 5.039,13.863 5.039,20.857 -10e-4,6.356 -10e-4,40.266 -10e-4,66.885 z"
         id="path69772" /><path
         style="fill:#8cbcd5"
         inkscape:connector-curvature="0"
         d="m 154.419,205.788 c -0.747,-0.869 -2.416,-1.956 -6.16,-2.472 -4.863,-0.671 -5.805,1.304 -5.953,2.472 h 12.113 z"
         id="path69774" /><path
         style="fill:#8cbcd5"
         inkscape:connector-curvature="0"
         d="m 105.221,205.788 c -1.217,-1.852 -3.986,-2.005 -3.986,-2.005 0,0 0.315,0.374 0.692,2.005 h 3.294 z"
         id="path69776" /><path
         style="fill:#8cbcd5"
         inkscape:connector-curvature="0"
         d="m 116.987,187.154 -20.42,-56.01 c 0,0 3.037,-2.722 2.625,-5.776 l -6.651,-1.575 -8.577,-11.027 c 0,0 3.151,-4.201 6.651,-4.551 3.501,-0.35 8.752,2.625 11.202,7.701 2.45,5.076 14.236,28.005 15.169,44.808 0.933,16.803 10e-4,26.43 10e-4,26.43 z"
         id="path69778" /><path
         style="fill:#8cbcd5"
         inkscape:connector-curvature="0"
         d="m 139.275,120.642 c -0.525,-1.4 -0.733,-6.67 -3.541,-7.816 -1.131,-0.462 -3.424,-1.288 -5.617,-1.777 -0.056,0.53 -0.11,1.03 -0.161,1.46 -0.002,0.019 -0.011,0.036 -0.013,0.055 -0.676,0.002 -1.25,0.208 -1.25,0.933 0,1.782 -1.945,3.319 -1.945,3.319 l -0.423,0.571 v 0.485 c 1.472,2.878 3.681,6.901 4.666,13.228 1.378,8.857 1.168,44.151 1.168,56.053 0,0 7.118,-5.83 7.118,-12.396 0,-6.566 0,-44.665 0,-44.665 l -4.901,-5.951 c -0.002,0.002 5.424,-2.098 4.899,-3.499 z"
         id="path69780" /><path
         style="fill:#fdd08f"
         inkscape:connector-curvature="0"
         d="m 99.091,116.965 c 0,0 11.403,-2.862 14.149,-14.183 0,0 5.126,9.474 15.923,11.28 -9.119,13.219 -30.072,2.903 -30.072,2.903 z"
         id="path69782" /><g
         id="g69784"><path
           style="fill:none"
           inkscape:connector-curvature="0"
           d="m 113.444,120.77 c -7.481,-0.429 -14.21,-3.739 -14.21,-3.739 0,0 11.26,-2.929 14.006,-14.249 0,0 3.937,7.275 12.178,10.29 -1.321,2.543 -4.487,6.168 -11.974,7.698 z"
           id="path69786" /><path
           style="fill:#f7ae83"
           inkscape:connector-curvature="0"
           d="m 125.417,113.072 c 1.163,0.425 2.51,0.323 3.845,0.546 -1.228,6.041 -10.427,7.44 -16.104,7.115 7.488,-1.529 10.939,-5.118 12.259,-7.661 z"
           id="path69788" /></g><path
         style="fill:#2b4d5a"
         inkscape:connector-curvature="0"
         d="m 80.11,110.494 c -6.286,-7.17 -4.075,-11.83 -4.075,-11.83 l 0.001,0.001 c 0.818,-2.361 2.946,-4.153 5.595,-4.413 3.213,-0.315 6.112,1.731 6.981,4.723 -0.715,-2.145 -2.856,-3.59 -5.225,-3.358 -2.746,0.269 -4.757,2.689 -4.49,5.406 0.161,1.641 1.117,3.011 2.453,3.783 0.468,0.255 0.917,0.423 1.329,0.531 0.101,0.024 0.201,0.048 0.304,0.066 l -0.001,0.004 c 1.167,0.237 1.972,0.003 1.972,0.003 1.604,-0.264 2.943,-1.463 4.447,-2.812 1.249,-1.121 1.898,-1.984 2.51,-2.7 1.175,-1.375 4.895,-5.728 10.042,-6.426 0.804,-0.109 3.889,-0.482 6.962,1.346 0.495,0.294 3.311,2.039 4.431,5.18 0.489,-3.298 2.914,-5.556 3.342,-5.941 2.659,-2.389 5.759,-2.622 6.568,-2.671 5.185,-0.314 9.679,3.235 11.098,4.355 0.74,0.584 1.543,1.305 2.986,2.162 1.737,1.031 3.283,1.948 4.908,1.895 0,0 0.835,0.073 1.934,-0.385 l -0.002,-0.004 c 0.097,-0.038 0.191,-0.081 0.286,-0.124 0.383,-0.186 0.79,-0.438 1.2,-0.779 1.161,-1.016 1.833,-2.546 1.673,-4.187 -0.266,-2.717 -2.708,-4.701 -5.454,-4.432 -2.369,0.232 -4.189,2.065 -4.474,4.308 0.271,-3.104 2.718,-5.673 5.931,-5.988 2.649,-0.26 5.085,1.086 6.345,3.243 l 0,-0.001 c 0,0 3.072,4.14 -1.699,12.39 -0.007,0.013 -0.014,0.025 -0.022,0.038 -0.083,0.143 -0.168,0.288 -0.256,0.434 -0.049,0.081 -0.099,0.16 -0.148,0.24 -0.001,0.002 -0.002,0.004 -0.003,0.005 -5.181,8.332 -13.575,9.046 -13.575,9.046 l 0.006,-0.005 c -0.444,0.074 -0.891,0.138 -1.345,0.182 -7.803,0.764 -14.991,-3.088 -18.862,-9.329 -2.586,6.873 -8.891,12.047 -16.693,12.812 -0.454,0.044 -0.905,0.069 -1.355,0.082 l 0.007,0.004 c 0,0 -8.538,0.948 -15.269,-6.451 -0.116,-0.127 -0.229,-0.254 -0.339,-0.38 -0.01,-0.007 -0.017,-0.015 -0.024,-0.023 z"
         id="path69790" /><path
         style="fill:#bae3fa"
         inkscape:connector-curvature="0"
         d="m 88.711,174.072 c 5.706,-12.063 -6.773,2.375 -7.982,3.625 -1.209,1.25 3.097,2.188 -1.17,7.75 -4.267,5.563 -10.334,10.599 -10.334,10.599 -0.205,3.177 -0.316,6.462 -0.279,9.743 h 19.345 c 0.001,-10e-4 -5.286,-19.655 0.42,-31.717 z"
         id="path69792" /><path
         style="fill:#ef774e"
         inkscape:connector-curvature="0"
         d="m 223.873,79.393 -42.708,84.249 c 0,0 -2.582,5.878 0.459,6.323 3.042,0.445 7.942,-5.389 7.942,-5.389 L 227.14,84.762 c 0.001,-0.001 2.568,-3.735 -3.267,-5.369 z"
         id="path69794" /><path
         style="fill:#fdd08f"
         inkscape:connector-curvature="0"
         d="m 206.254,129.13 c -5.484,-1.256 -11.026,6.772 -11.026,6.772 -0.524,-4.519 -4.027,-7.383 -9.161,-7.266 -5.134,0.117 -9.802,8.051 -11.202,17.62 -1.4,9.568 3.374,17.865 3.374,17.865 0.571,0.22 2.289,-0.089 2.801,-0.172 0.075,-0.19 0.126,-0.307 0.126,-0.307 l 6.349,-12.524 0.669,-1.109 c 0.076,-0.389 0.06,-0.329 0.06,-0.329 2.06,1.791 3.891,1.01 3.891,1.01 -0.117,2.334 0.933,2.684 2.7,2.698 1.766,0.014 -1.114,2.366 -1.114,2.366 -0.093,0.003 -0.178,0.028 -0.269,0.037 l 0.178,0.157 -4.062,8.629 c 0,0 -0.488,0.58 -1.249,1.36 0.181,0.293 0.392,0.555 0.666,0.741 2.917,1.984 7.468,0.7 12.836,-1.4 5.368,-2.1 3.501,-14.703 3.501,-14.703 0,0 0,-1.284 1.517,-1.75 1.517,-0.467 1.634,-4.201 1.634,-4.201 0,0 4.318,0.35 5.834,-5.018 1.515,-5.37 -2.569,-9.22 -8.053,-10.476 z"
         id="path69796" /><path
         style="fill:#f7ae83"
         inkscape:connector-curvature="0"
         d="m 187.117,148.147 c 0,0 -5.601,-4.109 -4.901,-8.193 0.7,-4.084 1.284,-0.583 3.267,3.151 1.984,3.734 1.634,5.042 1.634,5.042 z"
         id="path69798" /><path
         style="fill:#f7ae83"
         inkscape:connector-curvature="0"
         d="m 196.569,138.904 c 0,0 7.818,0 9.335,3.617 1.517,3.617 2.334,-0.117 0,-2.334 -2.334,-2.217 -4.551,-5.074 -9.335,-1.283 z"
         id="path69800" /><path
         style="fill:#f7ae83"
         inkscape:connector-curvature="0"
         d="m 192.05,150.248 c 0,0 -0.65,6.506 2.599,6.117 3.249,-0.389 1.819,-1.56 0,-3.638 -1.819,-2.079 -1.429,-1.19 -2.599,-2.479 z"
         id="path69802" /><ellipse
         d="m 83.088004,176.119 c 0,2.45325 -5.066794,4.442 -11.317,4.442 -6.250207,0 -11.317001,-1.98875 -11.317001,-4.442 0,-2.45325 5.066794,-4.442 11.317001,-4.442 6.250206,0 11.317,1.98875 11.317,4.442 z"
         style="fill:#8cbcd5"
         sodipodi:ry="4.4419999"
         sodipodi:rx="11.317"
         sodipodi:cy="176.119"
         sodipodi:cx="71.771004"
         transform="matrix(0.8668,0.4987,-0.4987,0.8668,97.3952,-12.3281)"
         cx="71.771004"
         cy="176.119"
         rx="11.317"
         ry="4.4419999"
         id="ellipse69804" /><path
         style="fill:#fdd08f"
         inkscape:connector-curvature="0"
         d="m 64.72,154.231 c 3.463,2.336 5.005,5.445 5.694,7.61 0.728,-0.157 1.39,-0.214 1.915,-0.101 3.098,0.671 19.739,-18.326 27.597,-13.576 2.707,1.636 5.468,2.544 7.585,3.295 0.001,0.001 3.354,1.799 -0.343,4.827 -3.042,2.491 -7.747,5.792 -9.922,9.674 0,0 -0.005,0.001 -0.005,0.001 0,0 -6.56,9.251 -18.578,13.242 -11.922,3.959 -17.071,-9.91 -17.153,-10.133 -0.221,-0.828 -0.316,-1.554 -0.256,-2.1 0.409,-3.724 -3.242,-6.11 -6.88,-11.457 -3.636,-5.346 4.475,-5.242 10.346,-1.282 z"
         id="path69806" /><path
         style="fill:#8cbcd5"
         inkscape:connector-curvature="0"
         d="m 142.292,142.384 h 9.042 c 0,0 0.358,12.204 -2.821,15.269 l 0.987,-12.582 h -6.646 l -0.562,-2.687 z"
         id="path69808" /><rect
         style="fill:#ef774e"
         x="144.476"
         y="136.946"
         width="2.191"
         height="4.6960001"
         id="rect69810" /><rect
         style="fill:#40879e"
         x="144.88"
         y="141.642"
         width="1.4579999"
         height="0.741"
         id="rect69812" /><rect
         style="fill:#2b4d5a"
         x="145.91701"
         y="138.134"
         width="0.59399998"
         height="5.7810001"
         id="rect69814" /><rect
         style="fill:#2c7968"
         x="146.976"
         y="136.946"
         width="2.191"
         height="4.6960001"
         id="rect69816" /><rect
         style="fill:#40879e"
         x="147.38"
         y="141.642"
         width="1.4579999"
         height="0.741"
         id="rect69818" /><rect
         style="fill:#2b4d5a"
         x="148.41701"
         y="138.134"
         width="0.59399998"
         height="5.7810001"
         id="rect69820" /></g><path
       id="path69822"
       d="m 684.108,110.494 c 6.286,-7.17 4.075,-11.83 4.075,-11.83 l 0,0.001 c -0.818,-2.361 -2.946,-4.153 -5.595,-4.413 -3.213,-0.315 -6.112,1.731 -6.981,4.723 0.715,-2.145 2.856,-3.59 5.225,-3.358 2.746,0.269 4.757,2.689 4.49,5.406 -0.161,1.641 -1.117,3.011 -2.453,3.783 -0.468,0.255 -0.917,0.423 -1.329,0.531 -0.101,0.024 -0.201,0.048 -0.304,0.066 l 10e-4,0.004 c -1.167,0.237 -1.972,0.003 -1.972,0.003 -1.604,-0.264 -2.943,-1.463 -4.447,-2.812 -1.249,-1.121 -1.898,-1.984 -2.51,-2.7 -1.175,-1.375 -4.895,-5.728 -10.042,-6.426 -0.804,-0.109 -3.889,-0.482 -6.962,1.346 -0.495,0.294 -3.311,2.039 -4.431,5.18 -0.489,-3.298 -2.914,-5.556 -3.342,-5.941 -2.659,-2.389 -5.759,-2.622 -6.568,-2.671 -5.185,-0.314 -9.679,3.235 -11.098,4.355 -0.74,0.584 -1.543,1.305 -2.987,2.162 -1.737,1.031 -3.283,1.948 -4.908,1.895 0,0 -0.835,0.073 -1.934,-0.385 l 0.002,-0.004 c -0.097,-0.038 -0.192,-0.081 -0.286,-0.124 -0.383,-0.186 -0.79,-0.438 -1.2,-0.779 -1.161,-1.016 -1.833,-2.546 -1.673,-4.187 0.266,-2.717 2.708,-4.701 5.454,-4.432 2.369,0.232 4.189,2.065 4.474,4.308 -0.271,-3.104 -2.718,-5.673 -5.931,-5.988 -2.649,-0.26 -5.085,1.086 -6.345,3.243 l 0,-0.001 c 0,0 -3.072,4.14 1.699,12.39 0.007,0.013 0.014,0.025 0.022,0.038 0.083,0.143 0.168,0.288 0.256,0.434 0.049,0.081 0.099,0.16 0.148,0.24 0.001,0.002 0.002,0.004 0.003,0.005 5.181,8.332 13.575,9.046 13.575,9.046 l -0.006,-0.005 c 0.444,0.074 0.891,0.138 1.345,0.182 7.803,0.764 14.991,-3.088 18.862,-9.329 2.586,6.873 8.891,12.047 16.693,12.812 0.454,0.044 0.906,0.069 1.355,0.082 l -0.007,0.004 c 0,0 8.538,0.948 15.269,-6.451 0.116,-0.127 0.229,-0.254 0.339,-0.38 0.01,-0.007 0.017,-0.015 0.024,-0.023 z"
       inkscape:connector-curvature="0"
       style="fill:#2b4d5a" /></g></svg>