<?xml version="1.0" encoding="utf-8"?>
<!-- Generator: Adobe Illustrator 16.0.0, SVG Export Plug-In . SVG Version: 6.00 Build 0)  -->
<!DOCTYPE svg PUBLIC "-//W3C//DTD SVG 1.1//EN" "http://www.w3.org/Graphics/SVG/1.1/DTD/svg11.dtd">
<svg version="1.1" id="Calque_1" xmlns="http://www.w3.org/2000/svg" xmlns:xlink="http://www.w3.org/1999/xlink" x="0px" y="0px"
	 width="141.732px" height="141.474px" viewBox="0 0 141.732 141.474" enable-background="new 0 0 141.732 141.474"
	 xml:space="preserve">
<circle fill="#009FE3" cx="70.214" cy="70.838" r="70.866"/>
<path fill="#F2F2F2" d="M97.283,82.469l1.414,10.386l-0.049-14.969c0.066-0.769,0.059-1.533-0.007-2.285v-0.002
	c-0.515-5.86-4.523-10.957-4.523-10.957l-0.684,8.563c0,0,2.276,3.52,3.835,9.215c0.002-0.003,0.004-0.006,0.006-0.01L97.283,82.469
	z"/>
<path fill="#CCCCCC" d="M37.199,96.846v10.608c0,10.152,53.117,8.563,53.117,8.563v-8.563c-16.24,0-32.342-2.313-42.486-5.096
	c-0.002,0-0.003,0-0.004,0.001l0.001-0.001l-0.003-0.001c0.002,0,0.004,0.001,0.006,0.001
	C47.83,102.358,37.199,100.407,37.199,96.846z"/>
<path fill="#FFFFFF" d="M74.279,38.954c-1.322-0.263-2.68-0.407-4.066-0.407v0.407H74.279z"/>
<path fill="#F2F2F2" d="M70.213,38.547c-1.387,0-2.744,0.145-4.066,0.407h4.066V38.547z"/>
<path fill="#F2F2F2" d="M104.008,133.142H36.419c10.045,5.46,21.558,8.563,33.795,8.563S93.963,138.602,104.008,133.142
	L104.008,133.142z"/>
<path fill="#F2F2F2" d="M104.008,133.134c-0.703-2.986-1.602-5.846-2.667-8.555H39.088c-1.066,2.711-1.966,5.573-2.669,8.563h67.589
	V133.134z"/>
<path fill="#F2F2F2" d="M43.33,116.017c-1.613,2.629-3.037,5.498-4.242,8.563h62.253c-1.206-3.064-2.629-5.934-4.243-8.563H43.33z"
	/>
<path fill="#F2F2F2" d="M90.316,107.454H50.111c-2.511,2.438-4.789,5.317-6.781,8.563h53.768
	C95.106,112.771,92.828,109.892,90.316,107.454z"/>
<path fill="#DADADA" d="M76.289,99.387c-0.992,2.23-2.793,4.26-6.076,4.26c-3.282,0-5.083-2.029-6.074-4.259
	c-5.137,1.25-9.896,4.057-14.027,8.066h40.205C86.185,103.444,81.426,100.638,76.289,99.387z"/>
<path fill="#F2F2F2" d="M63.932,98.892c0.064,0.166,0.134,0.331,0.207,0.496c0.867-0.212,1.745-0.375,2.633-0.496H63.932z"/>
<path fill="#F2F2F2" d="M76.289,99.387c0.073-0.164,0.143-0.329,0.207-0.495h-2.84C74.544,99.013,75.422,99.176,76.289,99.387z"/>
<path fill="#F2F2F2" d="M70.213,103.646c3.283,0,5.084-2.029,6.076-4.26c-0.867-0.211-1.745-0.374-2.633-0.495h-6.885
	c-0.888,0.121-1.766,0.284-2.633,0.496C65.13,101.617,66.931,103.646,70.213,103.646z"/>
<path fill="#F2F2F2" d="M70.214,98.649c1.162,0,2.31,0.088,3.442,0.242h2.84c1.003-2.579,1.006-5.245,1.006-5.245v-0.792
	c-2.299,0.852-4.747,1.315-7.289,1.315c-2.541,0-4.988-0.463-7.287-1.314v0.791c0,0,0.003,2.666,1.006,5.245h2.84
	C67.904,98.737,69.052,98.649,70.214,98.649z"/>
<path fill="#F2F2F2" d="M66.771,98.892h6.885c-1.133-0.154-2.28-0.242-3.442-0.242S67.904,98.737,66.771,98.892z"/>
<path fill="#F2F2F2" d="M77.502,90.329h-7.289v3.841c2.542,0,4.99-0.464,7.289-1.315c1.71-0.634,3.336-1.485,4.854-2.525H77.502z"/>
<path fill="#F2F2F2" d="M62.926,90.329H58.07c1.52,1.04,3.145,1.893,4.855,2.526c2.299,0.852,4.746,1.314,7.287,1.314v-3.841H62.926
	z"/>
<path fill="#F2F2F2" d="M70.213,81.767v2.927v5.636h7.289h4.854c3.123-2.137,5.792-5.069,7.799-8.563H70.213z"/>
<path fill="#F2F2F2" d="M50.271,81.767c2.006,3.493,4.676,6.426,7.799,8.563h4.855h7.287v-5.636v-2.927H50.271z"/>
<path fill="#F2F2F2" d="M70.213,81.767h19.942c1.483-2.583,2.604-5.469,3.279-8.563H70.213V81.767z"/>
<path fill="#F2F2F2" d="M70.213,73.204H46.991c0.675,3.094,1.796,5.979,3.28,8.563h19.941V73.204z"/>
<path fill="#DADADA" d="M82.286,66.358c0,1.157-0.938,2.096-2.095,2.096c-1.158,0-2.096-0.938-2.096-2.096
	c0-0.711,0.356-1.338,0.898-1.717h-8.781v8.563h23.222c0.478-2.19,0.733-4.483,0.733-6.846c0-0.577-0.02-1.148-0.05-1.717h-12.73
	C81.93,65.021,82.286,65.647,82.286,66.358z"/>
<path fill="#C6C6C6" d="M70.213,64.642h-8.78c0.542,0.379,0.898,1.006,0.898,1.717c0,1.157-0.938,2.096-2.095,2.096
	c-1.158,0-2.096-0.938-2.096-2.096c0-0.711,0.356-1.338,0.898-1.717H46.308c-0.03,0.568-0.05,1.14-0.05,1.717
	c0,2.362,0.256,4.655,0.733,6.846h23.222V64.642z"/>
<path d="M58.141,66.358c0,1.157,0.938,2.096,2.096,2.096c1.156,0,2.095-0.938,2.095-2.096c0-0.711-0.356-1.338-0.898-1.717h-2.394
	C58.497,65.021,58.141,65.647,58.141,66.358z"/>
<path d="M78.096,66.358c0,1.157,0.938,2.096,2.096,2.096c1.156,0,2.095-0.938,2.095-2.096c0-0.711-0.356-1.338-0.898-1.717h-2.394
	C78.452,65.021,78.096,65.647,78.096,66.358z"/>
<path fill="#F2F2F2" d="M70.213,64.642h8.781c0.34-0.237,0.751-0.379,1.197-0.379c0.445,0,0.856,0.142,1.196,0.379h12.73
	c-0.158-3.009-0.729-5.887-1.647-8.563H70.213V64.642z"/>
<path fill="#F2F2F2" d="M60.236,64.263c0.445,0,0.856,0.142,1.196,0.379h8.78v-8.563H47.955c-0.918,2.676-1.489,5.554-1.647,8.563
	h12.731C59.379,64.404,59.79,64.263,60.236,64.263z"/>
<path fill="#F2F2F2" d="M59.039,64.642h2.394c-0.34-0.237-0.751-0.379-1.196-0.379C59.79,64.263,59.379,64.404,59.039,64.642z"/>
<path fill="#F2F2F2" d="M80.191,64.263c-0.446,0-0.857,0.142-1.197,0.379h2.394C81.048,64.404,80.637,64.263,80.191,64.263z"/>
<path fill="#F2F2F2" d="M92.471,56.079c-1.092-3.186-2.674-6.083-4.643-8.563H70.213v8.563H92.471z"/>
<path fill="#F2F2F2" d="M70.213,47.517H52.598c-1.969,2.479-3.55,5.377-4.643,8.563h22.258V47.517z"/>
<path fill="#F2F2F2" d="M70.213,47.517h17.615c-3.506-4.416-8.228-7.506-13.549-8.563h-4.066V47.517z"/>
<path fill="#F2F2F2" d="M52.598,47.517h17.615v-8.563h-4.066C60.826,40.011,56.104,43.101,52.598,47.517z"/>
<path fill="none" d="M97.275,82.409c-0.002,0.004-0.004,0.007-0.006,0.01c0.005,0.017,0.01,0.033,0.014,0.05L97.275,82.409z"/>
<polygon fill="none" points="47.827,102.358 47.826,102.359 47.83,102.358 47.824,102.357 "/>
<path fill="#CCCCCC" d="M37.219,96.689c0.003-0.021,0.007-0.046,0.012-0.07C37.225,96.643,37.223,96.666,37.219,96.689z"/>
<path fill="#CCCCCC" d="M70.213,92.658c-0.13,0.007-0.264,0.014-0.395,0.021c0.255,0.109,0.395,0.176,0.395,0.176V92.658z"/>
<path fill="#B3B3B3" d="M37.199,96.846c0.001-0.053,0.01-0.104,0.02-0.156C37.203,96.789,37.199,96.846,37.199,96.846z"/>
<path fill="#B3B3B3" d="M97.27,82.419c-0.092,0.164-0.19,0.327-0.293,0.49c-3.001,4.762-10.506,8.827-26.764,9.749
	c0,0-4.83,0.197-7.287,0.197c-17.743,0-25.176,1.611-25.695,3.764c-0.005,0.024-0.03,0.174-0.031,0.227
	c0,3.562,10.631,5.513,10.631,5.513c4.307-0.426,22.383-1.813,22.383-1.813c14.583-0.916,28.484-2.191,28.484-7.69
	C98.697,92.854,97.274,82.436,97.27,82.419z"/>
</svg>
