<?xml version="1.0" encoding="utf-8"?>
<!-- Generator: Adobe Illustrator 16.0.0, SVG Export Plug-In . SVG Version: 6.00 Build 0)  -->
<!DOCTYPE svg PUBLIC "-//W3C//DTD SVG 1.1//EN" "http://www.w3.org/Graphics/SVG/1.1/DTD/svg11.dtd">
<svg version="1.1" id="Calque_1" xmlns="http://www.w3.org/2000/svg" xmlns:xlink="http://www.w3.org/1999/xlink" x="0px" y="0px"
	 width="141.732px" height="141.38px" viewBox="0 0 141.732 141.38" enable-background="new 0 0 141.732 141.38"
	 xml:space="preserve">
<path fill="#009FE3" d="M70.865-0.176C31.727-0.176,0,31.552,0,70.689c0,15.279,4.851,29.416,13.074,40.988
	c9.71,13.666,24.134,23.738,40.91,27.838c5.412,1.324,11.062,2.041,16.881,2.041c39.139,0,70.867-31.729,70.867-70.867
	C141.732,31.552,110.004-0.176,70.865-0.176z"/>
<rect x="14.173" y="13.997" fill="#3363AC" width="113.387" height="113.386"/>
<path fill="#7DC9CA" d="M122.56,18.997v103.386H19.173V18.997H122.56 M127.56,13.997H14.173v113.386H127.56V13.997L127.56,13.997z"
	/>
<polygon fill="#7DC9CA" points="109.636,31.92 32.097,31.92 19.173,18.997 122.56,18.997 "/>
<polygon fill="#009FE3" points="87.694,28.264 54.038,28.264 48.429,22.653 93.304,22.653 "/>
<polygon fill="#00405B" points="109.636,31.92 109.636,109.459 122.56,122.383 122.56,18.997 "/>
<polygon fill="#7DC9CA" points="32.097,109.459 109.636,109.459 122.56,122.383 19.173,122.383 "/>
<polygon fill="#00405B" points="32.097,109.459 32.097,31.92 19.173,18.997 19.173,122.383 "/>
<polygon fill="#009FE3" points="27.788,111.613 27.788,85.768 23.479,81.461 23.479,115.922 "/>
<polygon fill="#009FE3" points="32.097,107.459 32.097,85.768 23.479,81.461 23.479,115.922 "/>
<rect x="54.038" y="25.963" fill="#00405B" width="33.91" height="2.301"/>
<polygon fill="#3363AC" points="54.038,25.963 54.038,28.264 48.429,22.653 51.429,22.653 "/>
<polygon fill="#3363AC" points="87.948,25.963 87.948,28.264 93.558,22.653 90.558,22.653 "/>
<polygon fill="#7DC9CA" points="32.097,109.459 32.097,31.92 87.948,31.92 "/>
<polygon fill="#3363AC" points="32.097,85.768 29.948,85.768 23.479,83.213 23.479,81.461 "/>
<polygon fill="#3363AC" points="32.097,107.459 30.323,107.459 23.479,113.922 23.479,115.922 "/>
</svg>
