<?xml version="1.0" encoding="UTF-8" standalone="no"?>
<!-- Created with Inkscape (http://www.inkscape.org/) -->

<svg
   xmlns:dc="http://purl.org/dc/elements/1.1/"
   xmlns:cc="http://creativecommons.org/ns#"
   xmlns:rdf="http://www.w3.org/1999/02/22-rdf-syntax-ns#"
   xmlns:svg="http://www.w3.org/2000/svg"
   xmlns="http://www.w3.org/2000/svg"
   xmlns:sodipodi="http://sodipodi.sourceforge.net/DTD/sodipodi-0.dtd"
   xmlns:inkscape="http://www.inkscape.org/namespaces/inkscape"
   width="150"
   height="150"
   id="svg2"
   version="1.1"
   inkscape:version="0.48.4 r9939"
   sodipodi:docname="cloudsafe.svg">
  <defs
     id="defs4" />
  <sodipodi:namedview
     id="base"
     pagecolor="#ffffff"
     bordercolor="#666666"
     borderopacity="1.0"
     inkscape:pageopacity="0.0"
     inkscape:pageshadow="2"
     inkscape:zoom="2.8"
     inkscape:cx="185.22633"
     inkscape:cy="67.070782"
     inkscape:document-units="px"
     inkscape:current-layer="layer1"
     showgrid="false"
     inkscape:window-width="1280"
     inkscape:window-height="748"
     inkscape:window-x="0"
     inkscape:window-y="0"
     inkscape:window-maximized="1" />
  <metadata
     id="metadata7">
    <rdf:RDF>
      <cc:Work
         rdf:about="">
        <dc:format>image/svg+xml</dc:format>
        <dc:type
           rdf:resource="http://purl.org/dc/dcmitype/StillImage" />
        <dc:title></dc:title>
      </cc:Work>
    </rdf:RDF>
  </metadata>
  <g
     inkscape:label="Layer 1"
     inkscape:groupmode="layer"
     id="layer1"
     transform="translate(0,-902.36218)">
    <circle
       d="m 577.83301,360.85199 c 0,41.42136 -33.57865,75 -75,75 -41.42136,0 -75,-33.57864 -75,-75 0,-41.42136 33.57864,-75 75,-75 41.42135,0 75,33.57864 75,75 z"
       style="fill:#ed6e1c"
       sodipodi:ry="75"
       sodipodi:rx="75"
       sodipodi:cy="360.85199"
       sodipodi:cx="502.83301"
       cx="502.83301"
       cy="360.85199"
       r="75"
       id="circle70362"
       transform="matrix(0.96666667,0,0,0.96666667,-411.42905,628.53859)" />
    <rect
       style="fill:#2d82a1"
       x="41.4678"
       y="927.18439"
       width="66.350067"
       height="99.244766"
       id="rect70364" />
    <rect
       style="fill:#004b65"
       x="49.897106"
       y="941.10254"
       width="55.532097"
       height="79.530571"
       id="rect70366" />
    <rect
       style="fill:#e8491b"
       x="47.017403"
       y="938.13867"
       width="55.532097"
       height="17.287867"
       id="rect70626" />
    <rect
       style="fill:#ffffff"
       x="47.017403"
       y="955.42749"
       width="55.532097"
       height="62.392532"
       id="rect70628" />
    <g
       id="g70630"
       transform="matrix(0.96666667,0,0,0.96666667,-411.42905,628.53859)">
      <g
         id="g70632">
        <path
           style="fill:#004b65"
           inkscape:connector-curvature="0"
           d="m 509.354,358.338 c -3.332,0 -5.537,2.724 -7.483,5.129 -1.662,2.054 -3.232,3.993 -5.144,3.993 -1.987,0 -3.207,-2.042 -3.207,-3.506 0,-1.357 1.338,-3.33 3.436,-3.33 2.035,0 3.096,1.629 3.149,1.713 0.33,0.534 1.03,0.702 1.566,0.374 0.539,-0.328 0.71,-1.031 0.381,-1.57 -0.07,-0.114 -1.746,-2.802 -5.097,-2.802 -3.372,0 -5.721,2.96 -5.721,5.616 0,2.74 2.256,5.792 5.492,5.792 3.002,0 4.994,-2.461 6.92,-4.841 1.782,-2.201 3.465,-4.281 5.707,-4.281 1.334,0 2.21,0.452 2.679,1.382 0.406,0.807 0.406,1.72 0.405,2.036 0,0.181 -0.096,1.091 -0.54,1.91 -0.506,0.933 -1.224,1.367 -2.262,1.367 -2.09,0 -3.22,-1.359 -3.645,-1.87 -0.111,-0.133 -0.19,-0.229 -0.296,-0.32 -0.479,-0.41 -1.2,-0.355 -1.611,0.124 -0.396,0.462 -0.358,1.15 0.075,1.566 0.021,0.023 0.046,0.054 0.075,0.09 0.554,0.667 2.24,2.696 5.402,2.696 3.844,0 5.087,-3.748 5.087,-5.578 0,-1.166 -0.218,-2.191 -0.65,-3.048 -0.605,-1.206 -1.916,-2.642 -4.718,-2.642 z"
           id="path70634" />
      </g>
    </g>
    <path
       style="fill:#b4e1fa"
       inkscape:connector-curvature="0"
       d="m 47.017442,1003.0348 c 0,0 7.2326,3.9692 11.0287,2.1857 0,0 -2.933834,7.4839 6.384833,12.5995 h -15.8746 l -1.538933,-9.3216 v -5.4636 z"
       id="path70636" />
    <path
       style="fill:#d9effd"
       inkscape:connector-curvature="0"
       d="m 47.017442,1003.0348 c 0,0 7.520666,14.7852 17.413533,14.7852 H 47.017442 v -14.7852 z"
       id="path70638" />
    <circle
       d="m 492.81001,326.552 c 0,1.47239 -1.19361,2.666 -2.666,2.666 -1.47239,0 -2.666,-1.19361 -2.666,-2.666 0,-1.47239 1.19361,-2.666 2.666,-2.666 1.47239,0 2.666,1.19361 2.666,2.666 z"
       style="fill:#034354"
       sodipodi:ry="2.6659999"
       sodipodi:rx="2.6659999"
       sodipodi:cy="326.552"
       sodipodi:cx="490.14401"
       cx="490.14401"
       cy="326.552"
       r="2.6659999"
       id="circle70640"
       transform="matrix(0.96666667,0,0,0.96666667,-411.42905,628.53859)" />
    <circle
       d="m 517.38902,326.552 c 0,1.47239 -1.19361,2.666 -2.666,2.666 -1.47239,0 -2.666,-1.19361 -2.666,-2.666 0,-1.47239 1.19361,-2.666 2.666,-2.666 1.47239,0 2.666,1.19361 2.666,2.666 z"
       style="fill:#034354"
       sodipodi:ry="2.6659999"
       sodipodi:rx="2.6659999"
       sodipodi:cy="326.552"
       sodipodi:cx="514.72302"
       cx="514.72302"
       cy="326.552"
       r="2.6659999"
       id="circle70642"
       transform="matrix(0.96666667,0,0,0.96666667,-411.42905,628.53859)" />
    <rect
       style="fill:#b4e1fa"
       x="61.323112"
       y="931.44458"
       width="2.1083"
       height="13.389299"
       id="rect70644" />
    <rect
       style="fill:#b4e1fa"
       x="85.081848"
       y="931.44458"
       width="2.1083"
       height="13.389299"
       id="rect70646" />
  </g>
</svg>
