<svg xmlns="http://www.w3.org/2000/svg" width="150" height="150"><g transform="translate(-411.235 -274.053) scale(.9677)"><circle r="75" cy="360.852" cx="502.833" fill="#ee7246"/><path fill="#58a3b6" d="M468.514 308.944h68.638V411.61h-68.638z"/><path fill="#45818f" d="M477.234 323.342h57.447v82.273h-57.446z"/><path fill="#e7393b" d="M474.255 320.276h57.447v17.884h-57.447z"/><path fill="#fff" d="M474.255 338.16h57.447v64.545h-57.447z"/><path d="M509.354 358.338c-3.332 0-5.537 2.724-7.483 5.13-1.66 2.053-3.23 3.992-5.143 3.992-1.987 0-3.207-2.042-3.207-3.506 0-1.357 1.338-3.33 3.436-3.33 2.035 0 3.096 1.63 3.15 1.713.33.534 1.03.702 1.565.374.54-.327.71-1.03.382-1.57-.07-.113-1.746-2.8-5.097-2.8-3.372 0-5.72 2.96-5.72 5.615 0 2.74 2.255 5.792 5.49 5.792 3.003 0 4.995-2.46 6.92-4.84 1.783-2.202 3.466-4.282 5.708-4.282 1.334 0 2.21.452 2.68 1.382.405.807.405 1.72.404 2.036 0 .18-.096 1.09-.54 1.91-.506.933-1.224 1.367-2.262 1.367-2.09 0-3.22-1.36-3.645-1.87-.11-.133-.19-.23-.296-.32-.48-.41-1.2-.355-1.61.124-.397.462-.36 1.15.074 1.566l.075.09c.554.667 2.24 2.696 5.402 2.696 3.844 0 5.087-3.748 5.087-5.578 0-1.166-.218-2.19-.65-3.048-.605-1.206-1.916-2.642-4.718-2.642z" fill="#034354"/><path d="M474.255 387.41s7.482 4.106 11.41 2.26c0 0-3.036 7.743 6.604 13.035h-16.423l-1.592-9.643v-5.652z" fill="#b4e1fa"/><path d="M474.255 387.41s7.78 15.295 18.014 15.295h-18.015V387.41z" fill="#d9effd"/><circle r="2.666" cy="326.552" cx="490.144" fill="#034354"/><circle r="2.666" cy="326.552" cx="514.723" fill="#034354"/><path fill="#b4e1fa" d="M489.054 313.35h2.18v13.852h-2.18zM513.632 313.35h2.18v13.852h-2.18z"/></g></svg>