<svg xmlns="http://www.w3.org/2000/svg" width="500" height="250"><g transform="translate(-11.43 -465.22)"><path d="M106.815 1018.245l6.857 34.288h108.112c.704-15.617 1.13-30.8.69-39.432-.033-.647-.083-1.246-.124-1.867-3.233-2.01-7.42-6.738-12.832-15.484-2.023-3.272-4.668-5.96-7.78-8.15-.346.616-.826 1.47-1.21 2.16-.313-.064-.617-.116-.933-.183-6.885-1.48-12.693-2.975-16.604-4.536-16.087 1.016-35.136 2.348-49.275 3.736-.726 3.483-4.526 9.666-21.454 13.42-.707.16-1.403.28-2.097.395.485 2.962 2.016 4.658 2.016 4.658s-.596 5.184-5.43 10.458c.038.336.065.54.065.54z" fill="#fff"/><path d="M70.498 995.314s4.116-2.31 5.41-2.786c1.295-.475 32.802 8.574 32.802 8.574l1.654 2.446 1.602 2.327.854 1.766-20.536 2.514-19.974-6.567-2.354-6.088.542-2.186zM209.518 995.75l11.32 4.968 13.795-6.29.878-4.505-5.623-.904-21.882 4.325" fill="#628ea0"/><path d="M487.503 913.512s.148-5.726-5.37-7.043c-.433-.08-.865-.16-1.328-.224-.295-1.266-1.29-2.7-3.987-3.685-5.9-2.16-14.11 1.378-14.11 1.378-7.83-5.982-29.185 9.306-32.667 11.877L409.31 926.92c-9.1-2.267-12.43-7.314-12.43-7.314s-2.08-16.814-10.793-20.238c-8.713-3.423-13.584 5.543-9.01 15.403 1.922 4.146-.628 12.007-4.223 19.73v.008s-2.536 6.282-1.34 12.657l-2.382 1.275s51.822-2.506 46.69 37.84c0 0 41.47-15.825 75.207-59.213.288-.57 5.608-11.335-3.524-13.555z" fill="#fdd08f"/><path d="M376.986 925.327c-.182.016-.366.057-.553.103-.885 2.883-2.145 5.986-3.583 9.07v.008s-2.535 6.282-1.34 12.657l-2.382 1.275s3.26-.158 8.066.243c-3.238-9.305-.208-23.356-.208-23.356z" fill="#f7ae83"/><path d="M404.384 988.714s8.43-.625 16-4.42c7.568-3.795-3.633-32.083-3.633-32.083l-31.9-8.85-10.21 4.32 7.262 25.912 22.482 15.122z" fill="#fdd08f"/><path d="M404.544 1005.805l6.12-.948s7.452-39.005-14.9-52.114c-22.35-13.11-28.642-2.108-28.642-2.108l37.422 55.17z" fill="#dff2fd"/><path d="M159.905 1029.63l-1.587 5.82s14.972-10.412 26.633-6.328l-3.306-3.608-21.69 3.944" fill="#cfe1eb"/><path d="M119.982 1000.956s33.167-8.03 41.558-37.904c0 0 14.792 24.79 46.465 29.237-27.166 35.052-88.023 8.666-88.023 8.666z" fill="#fdd08f"/><path d="M161.63 1010.392c-21.97-.916-41.648-9.436-41.648-9.436s33.167-8.03 41.558-37.904c0 0 11.363 19.038 35.49 26.74-3.953 6.73-13.357 16.362-35.4 20.6z" fill="none"/><path d="M197.03 989.79c3.403 1.087 7.06 1.95 10.975 2.5-11.72 15.122-29.707 18.798-46.376 18.102 22.043-4.238 31.447-13.87 35.4-20.6z" fill="#f7ae83"/><path d="M207.947 873.996l15.5-14.105s4.725-3.114 4.132 8.148c-.594 11.262 1.01 36.554-13.587 33.954-14.598-2.6-6.046-27.996-6.046-27.996z" fill="#fdd08f"/><path d="M208.06 891.977c5.077 1.428 13.505-24.682 15.85-32.312 1.176-.443 4.146-.7 3.67 8.37-.594 11.264 1.01 36.555-13.587 33.956-5.928-1.055-8.038-5.87-8.453-11.216.717.512 1.545.93 2.52 1.203z" fill="none"/><path d="M208.06 891.977c-.975-.274-1.803-.69-2.522-1.203-.61-7.82 2.407-16.778 2.407-16.778l15.5-14.105s.18-.118.465-.223c-2.345 7.628-10.775 33.738-15.85 32.31z" fill="#f7ae83"/><path d="M62.013 892.734l4.65-17.804c15.615-55.562 74.574-55.133 103.048-49.262 28.474 5.87 43.05 40.587 41.514 70.29-1.524 29.505 24.073 57.392 24.416 57.76.598 1.345.948 2.104.948 2.104s-51.872 9.476-61.444.345c-9.574-9.13-57.215 25.858-57.215 25.858s-8.33-1.808-18.955-10.708c-7.26 5.667-18.57 12.972-23.71 9.78-7.806-4.843-4.928-7.578-1.025-21.467 2-7.12-.202-17.556-2.824-26.042-2.057-4.51-3.84-9.244-5.288-14.21l-.074-.167.02-.024c-2.367-8.174-3.822-16.973-4.06-26.452z" fill="#fdd08f"/><g fill="#2b4d5a"><ellipse ry="7.99" rx="2.158" cy="225.587" cx="101.033" transform="rotate(-1.204 31552.264 3222.717) scale(1.766)"><animate repeatCount="indefinite" begin="0s" dur="1s" values="7.98;7.98;7.98;7.98;7.98;7.98;7.98;7.98;7.98;7.98;7.98;7.98;7.98;0.4;0.4;7.98;7.98;7.98;7.98;7.98;7.98; 7.98;7.98;7.98;7.98;7.98;7.98;7.98;7.98;7.98;7.98;7.98;7.98;7.98;7.98;7.98;7.98;7.98;7.98;7.98;7.98;7.98;7.98; 7.98;7.98;7.98;7.98;7.98;7.98;7.98;7.98;7.98;7.98;7.98;7.98;7.98;7.98;7.98;7.98;7.98;7.98;7.98;7.98;7.98;7.98; 7.98;7.98;7.98;7.98;7.98;7.98;7.98;7.98;7.98;7.98;7.98;7.98;7.98;7.98;7.98;7.98;7.98;7.98;7.98;7.98;7.98;7.98; 7.98;7.98;7.98;7.98;7.98;7.98;7.98;7.98;7.98;7.98;7.98;7.98;7.98;7.98;7.98;7.98;7.98;7.98;7.98;7.98;7.98;7.98; 7.98;7.98;7.98;7.98;7.98;7.98;7.98;7.98;7.98;7.98;7.98;" attributeName="ry"/></ellipse><ellipse ry="10.036" rx="3.965" cy="223.612" cx="116.595" transform="rotate(-12.21 2512.515 820.93) scale(1.766)"><animate repeatCount="indefinite" begin="0s" dur="1s" values="10;10;10;10;10;10;10;10;10;10;10;10;10;0.4;0.4;10;10;10;10;10;10; 10;10;10;10;10;10;10;10;10;10;10;10;10;10;10;10;10;10;10;10;10;10; 10;10;10;10;10;10;10;10;10;10;10;10;10;10;10;10;10;10;10;10;10;10; 10;10;10;10;10;10;10;10;10;10;10;10;10;10;10;10;10;10;10;10;10;10; 10;10;10;10;10;10;10;10;10;10;10;10;10;10;10;10;10;10;10;10;10;10; 10;10;10;10;10;10;10;10;10;10;10;" attributeName="ry"/></ellipse></g><path d="M75.186 855.354s-5.1 27.29-2.225 33.7c2.876 6.407-6.13 1.798-8.946-3.978-.002.002 3.917-20.253 11.172-29.722zM66.21 925.137s3.988-9.532 7.954-6.767c0 0 1.37.823 3.57 2.47.13.202.267.42.413.656-.423.11-.664.18-.664.18s14.796 19.86 7.048 36.147c-4.48 9.415-3.656 19.772-2.044 26.85-1.812-.833-3.415-1.793-4.667-2.816-9.535-7.78-6.91-14.03-6.91-14.03s9.432-22.234-4.7-42.69z" fill="#f7ae83"/><path d="M66.5 983.754c-18.083-20.625-11.723-34.027-11.723-34.027l.002.004c2.35-6.79 8.47-11.946 16.092-12.693 9.243-.906 17.582 4.98 20.08 13.586-2.058-6.17-8.215-10.327-15.03-9.657-7.898.773-13.68 7.736-12.916 15.55.462 4.72 3.214 8.662 7.056 10.88 1.347.733 2.638 1.218 3.82 1.527.29.07.58.14.877.19l-.005.012c3.357.68 5.672.01 5.672.01 4.614-.76 8.467-4.21 12.79-8.09 3.595-3.22 5.46-5.706 7.222-7.766 3.377-3.955 14.08-16.476 28.884-18.486 2.31-.314 11.188-1.386 20.024 3.87 1.423.847 9.524 5.867 12.747 14.9 1.407-9.487 8.38-15.98 9.613-17.09 7.65-6.87 16.565-7.54 18.892-7.682 14.914-.902 27.84 9.306 31.924 12.53 2.127 1.678 4.44 3.753 8.59 6.218 4.997 2.966 9.445 5.603 14.118 5.45 0 0 2.4.213 5.562-1.108l-.007-.01c.28-.108.55-.234.82-.357 1.103-.535 2.273-1.26 3.453-2.24 3.34-2.924 5.273-7.324 4.81-12.044-.766-7.812-7.79-13.52-15.69-12.746-6.813.667-12.047 5.94-12.868 12.39.78-8.927 7.817-16.32 17.06-17.225 7.622-.748 14.627 3.123 18.252 9.328v-.004s8.836 11.908-4.888 35.64l-.06.108c-.242.413-.485.828-.74 1.25-.14.232-.284.46-.427.69-.005.004-.008.01-.01.015-14.903 23.965-39.047 26.02-39.047 26.02l.018-.015c-1.276.212-2.56.395-3.868.524-22.443 2.2-43.12-8.882-54.255-26.833-7.44 19.77-25.573 34.654-48.016 36.852-1.305.127-2.603.198-3.896.237l.02.012s-24.56 2.724-43.92-18.557c-.335-.367-.658-.73-.976-1.093-.02-.023-.038-.046-.06-.07z" fill="#2b4d5a"/><path d="M74.466 889.754s-33.782-15.94-36.875-12.22c-3.09 3.72-.645 17.876 4.444 30.503 5.087 12.63 11.747 21.742 35.128 14.894 23.38-6.847-2.696-33.176-2.696-33.176z" fill="#fdd08f"/><path d="M61.14 894.332s-17.25-14.24-17.34-5.512c-.092 8.728 3.217 17.794 10.824 22.174 0 0 2.537 1.222-.553-2.933-3.09-4.153-7.897-17.107-5.22-15.83 2.673 1.276 18.588 6.7 12.29 2.102zM65.628 905.842s1.278 3.673-2.597 3.64c-3.875-.034-3.296 4.22-.4 4.325 2.9.106 7.978-5.89 2.998-7.965z" fill="#f7ae83"/><path d="M121.824 1013.594s19.37 18.117 31.417 20.483l-4.173 3.36s-18.48-11.025-27.243-23.843zM188.216 1029.6l5.15 4.12s13-19.718 12.46-28.694c-.002 0-9.37 23.543-17.61 24.573z" fill="#cfe1eb"/><path d="M235.51 989.923s81.388.816 133.145-44.58c0 0 55.345 5.59 33.242 72.303 0 0-67.08 31.057-146.555 14.752l-20.405-32.145-1.83-4.616 2.404-5.714z" fill="#628ea0"/><path fill="#34606f" d="M374.118 1012.728l1.157-.1.78 9.126-1.157.1zM380.672 1010.895l1.158-.1.78 9.126-1.158.1zM387.46 1009.147l1.158-.1.78 9.125-1.158.1zM394.384 1007.295l1.158-.1.78 9.126-1.157.1z"/><circle transform="matrix(1.766 0 0 1.766 -37.685 496.31)" r="1.937" cy="295.398" cx="233.682" fill="#84a8b2"/><path d="M375.218 1021.082c-1.744.15-3.284-1.147-3.434-2.892-.15-1.743 1.147-3.284 2.892-3.433 1.745-.148 3.284 1.148 3.434 2.893.15 1.744-1.147 3.282-2.892 3.432zm-.517-6.058c-1.596.136-2.784 1.547-2.648 3.143.136 1.596 1.547 2.785 3.143 2.647 1.596-.136 2.785-1.547 2.65-3.143-.137-1.595-1.548-2.784-3.144-2.646z" fill="#34606f"/><circle transform="matrix(1.766 0 0 1.766 -37.685 496.31)" r=".329" cy="295.797" cx="233.278" fill="#34606f"/><circle transform="matrix(1.766 0 0 1.766 -37.685 496.31)" r=".329" cy="295.038" cx="233.321" fill="#34606f"/><circle transform="matrix(1.766 0 0 1.766 -37.685 496.31)" r=".329" cy="295.904" cx="234.056" fill="#34606f"/><circle transform="matrix(1.766 0 0 1.766 -37.685 496.31)" r=".329" cy="295.145" cx="234.098" fill="#34606f"/><circle transform="matrix(1.766 0 0 1.766 -37.685 496.31)" r="1.937" cy="294.527" cx="237.516" fill="#84a8b2"/><path d="M381.988 1019.544c-1.744.15-3.284-1.147-3.434-2.892-.15-1.743 1.147-3.284 2.892-3.433 1.745-.15 3.284 1.147 3.435 2.892.15 1.744-1.147 3.284-2.892 3.432zm-.52-6.056c-1.595.136-2.784 1.547-2.648 3.143.136 1.597 1.547 2.786 3.143 2.648 1.597-.136 2.785-1.547 2.65-3.143-.137-1.597-1.546-2.785-3.144-2.647z" fill="#34606f"/><circle transform="matrix(1.766 0 0 1.766 -37.685 496.31)" r=".329" cy="294.927" cx="237.112" fill="#34606f"/><circle transform="matrix(1.766 0 0 1.766 -37.685 496.31)" r=".329" cy="294.167" cx="237.154" fill="#34606f"/><circle transform="matrix(1.766 0 0 1.766 -37.685 496.31)" r=".329" cy="295.034" cx="237.889" fill="#34606f"/><circle transform="matrix(1.766 0 0 1.766 -37.685 496.31)" r=".329" cy="294.274" cx="237.932" fill="#34606f"/><circle transform="matrix(1.766 0 0 1.766 -37.685 496.31)" r="1.937" cy="293.644" cx="241.434" fill="#84a8b2"/><path d="M389.253 1017.938c-1.72.34-3.39-.78-3.732-2.497-.34-1.716.782-3.39 2.5-3.73 1.718-.34 3.39.78 3.73 2.496.342 1.717-.78 3.39-2.497 3.732zm-1.182-5.965c-1.57.31-2.596 1.843-2.285 3.415.31 1.57 1.843 2.597 3.415 2.287 1.57-.31 2.597-1.844 2.286-3.416-.31-1.572-1.84-2.598-3.415-2.287z" fill="#34606f"/><circle transform="matrix(1.766 0 0 1.766 -37.685 496.31)" r=".329" cy="294.086" cx="241.076" fill="#34606f"/><circle transform="matrix(1.766 0 0 1.766 -37.685 496.31)" r=".329" cy="293.326" cx="241.035" fill="#34606f"/><circle transform="matrix(1.766 0 0 1.766 -37.685 496.31)" r=".329" cy="294.107" cx="241.861" fill="#34606f"/><circle transform="matrix(1.766 0 0 1.766 -37.685 496.31)" r=".329" cy="293.347" cx="241.82" fill="#34606f"/><circle transform="matrix(1.766 0 0 1.766 -37.685 496.31)" r="1.937" cy="292.751" cx="245.246" fill="#84a8b2"/><path d="M395.984 1016.36c-1.718.34-3.39-.78-3.73-2.496-.34-1.717.78-3.39 2.497-3.73 1.72-.34 3.392.78 3.732 2.496.34 1.718-.78 3.39-2.498 3.73zm-1.18-5.964c-1.57.31-2.597 1.843-2.286 3.415.31 1.573 1.843 2.598 3.415 2.288 1.57-.31 2.597-1.844 2.286-3.415-.312-1.572-1.844-2.598-3.416-2.287z" fill="#34606f"/><circle transform="matrix(1.766 0 0 1.766 -37.685 496.31)" r=".329" cy="293.193" cx="244.889" fill="#34606f"/><circle transform="matrix(1.766 0 0 1.766 -37.685 496.31)" r=".329" cy="292.433" cx="244.848" fill="#34606f"/><circle transform="matrix(1.766 0 0 1.766 -37.685 496.31)" r=".329" cy="293.214" cx="245.673" fill="#34606f"/><circle transform="matrix(1.766 0 0 1.766 -37.685 496.31)" r=".329" cy="292.454" cx="245.632" fill="#34606f"/><path d="M265.038 1027.208l4.092 7.565c28.03 3.974 54.02 2.406 75.452-1.05-1.893.018-66.82.647-79.544-6.515z" fill="#34606f"/><path d="M492.154 916.935c-6.74 15.978-46.144 42.12-65.454 54.21l-15.47 8.87s.656 5.278.58 7.514c0 0 3.47-.6 9.808-3.817l.002-.004c12.56-6 43.293-23.06 69.407-56.646.21-.41 3.022-6.14 1.127-10.13z" fill="#f7ae83"/><path d="M218.153 1052.533h60.395c-.2-.385-.378-.772-.582-1.157-11.504-21.505-21.54-44.116-45.612-57.86-5.637 1.42-12.656 2.273-20.296 2.273-.866 0-1.7-.04-2.545-.066l.007.026c-.002-.002 8.822 17.217 8.633 56.783zM112.178 1007.246c-4.78.362-9.965.164-15.33-.72-10.942-1.798-20.307-6.006-26.35-11.21-18.594 9.88-47.964 30.672-67.57 57.217h131.91l-22.66-45.287z" fill="#628ea0"/><path fill="#34606f" d="M80.92 1052.533l13.755-16.678-19.865-18.982 18.375-15.647-1.92-.616-20.133 15.6 19.203 19.24-12.862 17.083M241.53 1031.954l-3.936 20.58h2.806l4.552-22.052-13.905-11.11 6.235-15.008-19.897-11.137-2.18.164 18.932 11.636-5.41 14.347"/><path d="M169.525 1052.533h18.308c-3.195-6.277-6.322-11.465-8.98-14.116l2.79-12.903s-7.518-10.375-13.742-6.415c-6.224 3.96-7.997 10.53-7.997 10.53l11.328 12.075c.003 0-.875 5.024-1.705 10.828z" fill="#167c9c"/></g><g transform="matrix(1.353 0 0 1.353 -229.365 -221.106)"><path d="M227.143 286.702s2.87-1.612 3.773-1.943c.902-.332 22.875 5.98 22.875 5.98l1.155 1.704 1.117 1.624.596 1.23-14.32 1.752-13.93-4.58-1.643-4.245.378-1.523zM341.605 286.083l.612-3.14-3.922-.63-15.26 3.016 1.056 1.674 7.894 3.466" fill="#628ea0"/><path d="M517.947 229.656s.103-3.994-3.744-4.912c-.3-.056-.603-.11-.926-.155-.206-.884-.9-1.883-2.78-2.57-4.116-1.507-9.84.96-9.84.96-5.46-4.173-20.353 6.488-22.78 8.28l-14.46 7.745c-6.345-1.58-8.667-5.1-8.667-5.1s-1.452-11.725-7.527-14.112c-6.076-2.388-9.474 3.865-6.284 10.742 1.34 2.89-.438 8.373-2.945 13.758v.005s-1.77 4.38-.934 8.826l-1.66.89s36.14-1.748 32.56 26.387c0 0 28.92-11.034 52.447-41.292.2-.396 3.91-7.904-2.46-9.452z" fill="#fdd08f"/><path d="M440.877 237.895c-.126.01-.255.04-.385.072-.616 2.01-1.497 4.175-2.498 6.326v.005s-1.77 4.38-.934 8.826l-1.66.89s2.274-.11 5.624.17c-2.26-6.49-.147-16.29-.147-16.29z" fill="#f7ae83"/><path d="M459.983 282.1s5.88-.437 11.157-3.083c5.278-2.647-2.534-22.374-2.534-22.374l-22.248-6.172-7.12 3.013 5.065 18.07 15.68 10.546z" fill="#fdd08f"/><path d="M460.095 294.018l4.267-.662s5.198-27.2-10.39-36.342c-15.587-9.142-19.974-1.47-19.974-1.47l26.097 38.474z" fill="#dff2fd"/><path d="M333.04 297.802c-2.255-1.403-5.175-4.7-8.95-10.798-1.41-2.28-3.255-4.155-5.425-5.683l-.845 1.507c-.218-.044-.43-.08-.65-.127-4.802-1.032-8.853-2.075-11.58-3.164-11.22.708-24.503 1.636-34.362 2.605-.506 2.43-3.156 6.74-14.96 9.36-.495.11-.98.194-1.464.276.338 2.065 1.406 3.247 1.406 3.247s-.415 3.616-3.786 7.294c.028.236.047.377.047.377l9.314 46.573h69.634c.965-15.68 2.24-39.748 1.71-50.16-.025-.454-.06-.87-.088-1.305z" fill="#fff"/><path d="M289.492 310.632l-1.107 4.058s10.44-7.26 18.574-4.413l-2.307-2.515-15.125 2.75" fill="#cfe1eb"/><path d="M261.652 290.636s23.13-5.6 28.98-26.433c0 0 10.316 17.29 32.404 20.39-18.946 24.444-61.384 6.043-61.384 6.043z" fill="#fdd08f"/><path d="M290.694 297.216c-15.32-.64-29.043-6.58-29.043-6.58s23.13-5.6 28.982-26.434c0 0 7.923 13.277 24.75 18.647-2.757 4.694-9.315 11.41-24.688 14.366z" fill="none"/><path d="M315.38 282.85c2.375.758 4.924 1.36 7.655 1.742-8.173 10.546-20.717 13.11-32.34 12.625 15.372-2.956 21.93-9.673 24.686-14.367z" fill="#f7ae83"/><path d="M322.994 202.1l10.81-9.838s3.294-2.173 2.88 5.68c-.414 7.855.705 25.492-9.474 23.68-10.18-1.813-4.216-19.523-4.216-19.523z" fill="#fdd08f"/><path d="M323.073 214.638c3.54.996 9.418-17.213 11.054-22.533.82-.31 2.89-.487 2.557 5.838-.413 7.854.705 25.49-9.474 23.678-4.134-.735-5.605-4.092-5.895-7.82.5.356 1.08.647 1.758.838z" fill="none"/><path d="M323.073 214.638c-.68-.19-1.257-.482-1.758-.84-.424-5.452 1.68-11.7 1.68-11.7l10.808-9.837s.126-.08.324-.156c-1.636 5.32-7.514 23.53-11.054 22.534z" fill="#f7ae83"/><path d="M221.226 215.166l3.242-12.416c10.89-38.747 52.005-38.448 71.862-34.354 19.856 4.094 30.02 28.304 28.95 49.018-1.062 20.576 16.79 40.023 17.027 40.28.417.938.662 1.468.662 1.468s-36.174 6.607-42.85.24c-6.676-6.367-39.9 18.032-39.9 18.032s-5.81-1.26-13.217-7.468c-5.062 3.952-12.95 9.046-16.535 6.82-5.442-3.377-3.436-5.284-.714-14.97 1.395-4.966-.14-12.244-1.97-18.162-1.433-3.145-2.677-6.446-3.688-9.91l-.052-.115.015-.018c-1.654-5.7-2.668-11.835-2.834-18.446z" fill="#fdd08f"/><ellipse transform="rotate(-.81 276.266 215.926)" cx="276.112" cy="216.501" rx="2.657" ry="9.839" fill="#2b4d5a"/><ellipse transform="rotate(-12.177 295.31 214.06)" cx="295.275" cy="214.068" rx="4.883" ry="12.359" fill="#2b4d5a"/><path d="M230.412 189.1s-3.556 19.03-1.552 23.5c2.004 4.467-4.276 1.254-6.24-2.774 0 0 2.733-14.124 7.792-20.727zM224.152 237.762s2.782-6.647 5.547-4.72c0 0 .955.575 2.49 1.722.09.14.185.294.288.458-.295.076-.462.126-.462.126s10.318 13.85 4.914 25.208c-3.124 6.566-2.55 13.788-1.426 18.725-1.263-.58-2.38-1.25-3.255-1.963-6.65-5.426-4.818-9.783-4.818-9.783s6.576-15.506-3.28-29.772z" fill="#f7ae83"/><path d="M224.354 278.64c-12.61-14.382-8.175-23.73-8.175-23.73v.003c1.64-4.735 5.91-8.33 11.223-8.852 6.446-.63 12.26 3.473 14.002 9.475-1.434-4.302-5.73-7.2-10.48-6.735-5.51.54-9.54 5.394-9.007 10.844.322 3.29 2.24 6.04 4.92 7.588.94.51 1.84.85 2.666 1.066.202.05.404.097.61.133l-.003.01c2.342.474 3.956.005 3.956.005 3.218-.53 5.904-2.934 8.92-5.64 2.507-2.248 3.808-3.98 5.036-5.417 2.356-2.757 9.82-11.49 20.143-12.89 1.612-.22 7.802-.968 13.964 2.698.99.59 6.64 4.09 8.888 10.39.982-6.616 5.845-11.146 6.704-11.917 5.334-4.793 11.55-5.26 13.175-5.36 10.4-.628 19.416 6.49 22.262 8.737 1.483 1.172 3.095 2.618 5.99 4.337 3.484 2.07 6.586 3.907 9.846 3.8 0 0 1.674.148 3.88-.772l-.005-.007c.196-.076.385-.162.574-.25.768-.372 1.585-.878 2.408-1.562 2.33-2.038 3.677-5.107 3.355-8.4-.534-5.448-5.432-9.428-10.94-8.888-4.752.465-8.403 4.142-8.975 8.64.544-6.225 5.452-11.38 11.897-12.01 5.313-.522 10.198 2.178 12.726 6.504v-.003s6.163 8.305-3.407 24.854l-.044.077c-.167.288-.338.578-.514.87-.098.163-.198.322-.298.482l-.007.01c-10.393 16.713-27.23 18.146-27.23 18.146l.012-.01c-.89.147-1.788.275-2.7.364-15.65 1.533-30.07-6.194-37.834-18.712-5.188 13.787-17.834 24.166-33.485 25.7-.91.088-1.815.137-2.717.164l.014.008s-17.127 1.9-30.63-12.94c-.232-.257-.457-.51-.68-.763-.014-.014-.03-.03-.043-.047z" fill="#2b4d5a"/><path d="M229.91 213.087s-23.558-11.115-25.715-8.52c-2.157 2.593-.45 12.464 3.098 21.27 3.548 8.807 8.193 15.162 24.497 10.386 16.304-4.776-1.88-23.136-1.88-23.136z" fill="#fdd08f"/><path d="M220.616 216.28s-12.028-9.93-12.093-3.844c-.065 6.086 2.244 12.41 7.548 15.464 0 0 1.77.852-.384-2.046-2.155-2.898-5.508-11.93-3.64-11.04 1.865.89 12.963 4.673 8.57 1.467zM223.746 224.307s.89 2.56-1.81 2.538c-2.703-.023-2.3 2.943-.28 3.017 2.022.074 5.563-4.11 2.09-5.555z" fill="#f7ae83"/><path d="M295.197 337.14c.067 2.076.19 7.143.306 12.125h23.32c-4.348-11.162-11.32-27.724-16.118-32.505l1.948-8.997s-5.243-7.236-9.584-4.473c-4.342 2.763-5.578 7.343-5.578 7.343l7.9 8.42s-2.346 13.424-2.195 18.086z" fill="#167c9c"/><path d="M376.928 349.265l4.354-.068c-1.288-3.954-7.306-19.374-9.46-23.4-8.02-14.998-15.02-30.765-31.807-40.35-3.93.99-8.826 1.584-14.154 1.584-.603 0-1.184-.027-1.774-.044l.005.018s9.478 18.463 4.665 62.26h48.173z" fill="#628ea0"/><path d="M262.936 299.45s13.508 12.633 21.91 14.283l-2.913 2.344s-12.887-7.69-18.997-16.628zM309.236 310.61l3.592 2.875s9.064-13.75 8.688-20.01c0 0-6.534 16.417-12.28 17.136z" fill="#cfe1eb"/><path fill="#34606f" d="M341.258 293.475l-3.77 10.005 8.927 8.774-7.08 37.01h1.615l7.85-38.037-9.697-7.747 4.35-10.467-13.876-7.767-1.52.114"/><path d="M362.013 329.698l-.462-1.334s-7.977 3.226-17.04 2.726l-.13.656-.274.26c12.622.104 17.907-2.308 17.907-2.308z" fill="#34606f"/><path d="M364.065 336.907c-.262-2.562-.966-4.83-1.563-6.385l-.003-.01-.007-.012c-.51-1.33-.942-2.135-.942-2.135v.718c.057.1.112.218.167.338l-.166.093s1.604 5.618 1.624 7.792l.596-.218-.007-.08.302-.1z" fill="#34606f"/><path d="M364.028 336.575c-.097.11-.264.215-.49.315l-.012-.06s-6.31 1.898-20.652 1.616v.28c-.06 0-.103.002-.103.002v.513c8.877.078 21.257-1.493 21.257-1.493.202-.365 0-1.172 0-1.172z" fill="#34606f"/><path d="M342.217 282.943s56.757.57 92.85-31.088c0 0 38.594 3.897 23.182 50.42 0 0-46.78 21.66-102.203 10.288l-14.23-22.417-1.276-3.22 1.677-3.983z" fill="#628ea0"/><path fill="#34606f" d="M438.883 298.846l.81-.07.543 6.364-.808.07zM443.454 297.567l.808-.07.544 6.364-.808.07zM448.188 296.348l.808-.07.544 6.364-.808.07zM453.016 295.056l.808-.07.544 6.364-.808.07z"/><circle cx="439.455" cy="302.466" r="2.385" fill="#84a8b2"/><path d="M439.644 304.67c-1.216.105-2.29-.8-2.395-2.016-.105-1.216.8-2.29 2.016-2.394 1.216-.104 2.29.8 2.395 2.017.105 1.216-.8 2.29-2.016 2.394zm-.36-4.224c-1.115.095-1.943 1.08-1.848 2.192.095 1.113 1.078 1.942 2.192 1.846 1.114-.096 1.942-1.08 1.847-2.192-.095-1.113-1.08-1.94-2.192-1.846z" fill="#34606f"/><circle cx="438.958" cy="302.958" r=".405" fill="#34606f"/><circle cx="439.011" cy="302.022" r=".405" fill="#34606f"/><circle cx="439.916" cy="303.09" r=".405" fill="#34606f"/><circle cx="439.968" cy="302.154" r=".405" fill="#34606f"/><g><circle cx="444.176" cy="301.394" r="2.385" fill="#84a8b2"/><path d="M444.365 303.6c-1.216.104-2.29-.8-2.395-2.017-.104-1.216.8-2.29 2.017-2.394 1.216-.105 2.29.8 2.395 2.016.104 1.215-.8 2.29-2.017 2.394zm-.362-4.225c-1.114.095-1.942 1.08-1.847 2.192.095 1.113 1.078 1.942 2.192 1.846 1.114-.096 1.942-1.08 1.847-2.192-.095-1.112-1.078-1.94-2.192-1.845z" fill="#34606f"/><circle cx="443.679" cy="301.886" r=".405" fill="#34606f"/><circle cx="443.731" cy="300.951" r=".405" fill="#34606f"/><circle cx="444.636" cy="302.018" r=".405" fill="#34606f"/><circle cx="444.689" cy="301.082" r=".405" fill="#34606f"/></g><g><circle cx="449.001" cy="300.307" r="2.385" fill="#84a8b2"/><path d="M449.43 302.478c-1.197.237-2.364-.544-2.6-1.742-.238-1.197.543-2.364 1.74-2.6 1.2-.238 2.366.543 2.603 1.74.237 1.198-.545 2.365-1.742 2.602zm-.822-4.16c-1.097.218-1.812 1.286-1.595 2.383.217 1.097 1.285 1.812 2.382 1.595 1.096-.217 1.812-1.285 1.595-2.382-.218-1.096-1.286-1.81-2.382-1.594z" fill="#34606f"/><circle cx="448.561" cy="300.851" r=".405" fill="#34606f"/><circle cx="448.51" cy="299.915" r=".405" fill="#34606f"/><circle cx="449.527" cy="300.876" r=".405" fill="#34606f"/><circle cx="449.476" cy="299.941" r=".405" fill="#34606f"/></g><g><circle cx="453.696" cy="299.207" r="2.385" fill="#84a8b2"/><path d="M454.125 301.38c-1.198.236-2.365-.545-2.602-1.743-.237-1.197.544-2.364 1.742-2.6 1.198-.238 2.365.543 2.602 1.74.237 1.197-.544 2.365-1.742 2.602zm-.823-4.16c-1.096.216-1.812 1.284-1.595 2.38.217 1.097 1.285 1.812 2.382 1.595 1.095-.217 1.81-1.285 1.594-2.382-.217-1.096-1.285-1.81-2.382-1.594z" fill="#34606f"/><circle cx="453.256" cy="299.751" r=".405" fill="#34606f"/><circle cx="453.205" cy="298.815" r=".405" fill="#34606f"/><circle cx="454.221" cy="299.777" r=".405" fill="#34606f"/><circle cx="454.171" cy="298.841" r=".405" fill="#34606f"/></g><path d="M362.808 308.943l2.853 5.275c19.548 2.772 37.672 1.68 52.62-.733-1.32.014-46.6.453-55.472-4.542z" fill="#34606f"/><path d="M521.19 232.043c-4.7 11.143-32.178 29.373-45.645 37.805l-10.787 6.185s.457 3.68.404 5.24c0 0 2.418-.418 6.84-2.66v-.003c8.76-4.183 30.192-16.08 48.403-39.502.146-.286 2.108-4.284.785-7.065z" fill="#f7ae83"/><path d="M256.21 295.022c-3.333.253-6.95.114-10.692-.5-7.63-1.255-14.16-4.19-18.375-7.82-12.967 6.89-33.45 21.37-47.12 39.882 0 0-5.825 6.78-5.825 22.68H283.35l-27.14-54.242z" fill="#628ea0"/><path fill="#34606f" d="M227.585 301.274l13.39 13.417-9.29 12.34 26.53 22.235h2.425L234.1 326.98l9.904-12.007-13.854-13.238 12.813-10.91-1.34-.43"/></g></svg>