<svg id="svg4820" xmlns:rdf="http://www.w3.org/1999/02/22-rdf-syntax-ns#" xmlns="http://www.w3.org/2000/svg" version="1.1" xmlns:cc="http://creativecommons.org/ns#" xmlns:dc="http://purl.org/dc/elements/1.1/" viewBox="0 0 16 16">
 <g id="layer1" transform="translate(0 -1036.4)">
  <path id="path5455" d="m15.134 1045.3c0.34693-0.4002 0.54412-1.0608 0.54412-1.6901 0-0.4159-0.09004-0.7799-0.26081-1.0529-0.22215-0.3552-0.57789-0.551-1.0007-0.551h-2.0498c1.1156-2.0287 1.3975-3.5569 0.83772-4.5463-0.39048-0.69-1.1064-0.9341-1.6011-0.9341-0.19573 0-0.36161 0.1448-0.38754 0.3392-0.13994 1.0324-0.9302 2.265-2.1672 3.3806-1.1851 1.0687-2.6413 1.9231-4.1387 2.4349-0.18888-0.3979-0.59354-0.6734-1.0618-0.6734h-2.3487c-0.64737 0-1.1744 0.5269-1.1744 1.1744v7.0462c0 0.6475 0.527 1.1744 1.1744 1.1744h2.3487c0.49617 0 0.9209-0.3092 1.0931-0.7453 1.5355 0.1928 2.1129 0.5011 2.6727 0.8001 0.70071 0.3744 1.3613 0.7281 3.5255 0.7281 0.5637 0 1.0946-0.1473 1.4954-0.4139 0.39146-0.2608 0.64199-0.6274 0.72517-1.0517 0.31219-0.1271 0.58963-0.4197 0.8015-0.8548 0.20649-0.4236 0.34057-0.9644 0.34057-1.3789 0-0.078-0.0049-0.1486-0.01321-0.2143 0.19817-0.1458 0.3758-0.3704 0.5221-0.6665 0.21139-0.4266 0.33812-0.9615 0.33812-1.4297 0-0.3318-0.06166-0.6083-0.18301-0.823-0.01028-0.017-0.02055-0.035-0.03034-0.051zm-11.287 5.3175h-2.3487c-0.21628 0-0.39146-0.1752-0.39146-0.3914v-7.0463c0-0.2163 0.17518-0.3915 0.39146-0.3915h2.3487c0.21628 0 0.39146 0.1752 0.39146 0.3915v7.0453c0 0.2162-0.17518 0.3915-0.39146 0.3915zm10.834-6c-0.11842 0.2377-0.23781 0.3238-0.28968 0.3238-0.21628 0-0.39146 0.1752-0.39146 0.3915s0.17518 0.3914 0.39146 0.3914c0.03278 0 0.05627 0 0.0915 0.061 0.05187 0.092 0.08123 0.2507 0.08123 0.4371 0 0.3484-0.09884 0.7623-0.25689 1.0818-0.15511 0.3122-0.31219 0.4258-0.38118 0.4258-0.21628 0-0.39146 0.1752-0.39146 0.3914 0 0.1385 0.07193 0.2608 0.18105 0.3303 0.02447 0.2481-0.0915 0.9122-0.39244 1.3451-0.11352 0.1635-0.2334 0.2574-0.32736 0.2574-0.21628 0-0.39146 0.1753-0.39146 0.3915 0 0.6889-0.76089 1.0031-1.468 1.0031-1.9676 0-2.5185-0.2947-3.1566-0.6356-0.59648-0.3187-1.2668-0.6772-2.9604-0.8876v-6.4097c1.6451-0.5392 3.2506-1.4694 4.5502-2.6407 1.2473-1.1245 2.0659-2.3396 2.3438-3.4654 0.21285 0.069 0.45311 0.2123 0.60774 0.4839 0.2613 0.4619 0.45702 1.6411-1.169 4.3505-0.07291 0.1207-0.07438 0.2715-0.0049 0.3944 0.06948 0.1232 0.19964 0.1986 0.34057 0.1986h2.727c0.1556 0 0.25592 0.055 0.33665 0.1831 0.0915 0.1462 0.1419 0.3734 0.1419 0.6381 0 0.3317-0.07976 0.6903-0.21285 0.9591z"/>
 </g>
</svg>
