<svg id="svg4146" xmlns:rdf="http://www.w3.org/1999/02/22-rdf-syntax-ns#" xmlns="http://www.w3.org/2000/svg" version="1.1" xmlns:cc="http://creativecommons.org/ns#" xmlns:dc="http://purl.org/dc/elements/1.1/" viewBox="0 0 16 16">
 <g id="layer1" transform="translate(0 -1036.4)">
  <path id="path4815" d="m7.9996 1051.6c-0.068989 0-0.13746-0.018-0.20027-0.051-0.077226-0.043-1.9162-1.0719-3.7825-2.757-1.1048-0.9967-1.9863-2.0166-2.6221-3.0313-0.81036-1.2944-1.2207-2.5855-1.2207-3.8387 0-2.3848 1.9399-4.3247 4.3247-4.3247 0.80727 0 1.665 0.3023 2.4146 0.8516 0.43813 0.3212 0.81139 0.7084 1.0863 1.1192 0.27492-0.4108 0.64818-0.798 1.0863-1.1192 0.74961-0.5493 1.6073-0.8516 2.4146-0.8516 2.3847 0 4.3247 1.9399 4.3247 4.3247 0 1.2532-0.41084 2.5443-1.2207 3.8387-0.63531 1.0147-1.5172 2.0346-2.621 3.0313-1.8668 1.6856-3.7053 2.7143-3.7825 2.757-0.062811 0.035-0.13077 0.051-0.20027 0.051zm-3.5009-13.18c-1.9301 0-3.5009 1.5707-3.5009 3.5008 0 2.5042 1.9358 4.7793 3.5596 6.2481 1.4498 1.3113 2.9191 2.2308 3.4422 2.5427 0.52308-0.3119 1.9924-1.2314 3.4422-2.5427 1.6238-1.4678 3.5596-3.7439 3.5596-6.2481 0-1.9301-1.5708-3.5008-3.5009-3.5008-1.4029 0-2.7652 1.1542-3.1107 2.1895-0.056117 0.1679-0.21314 0.2817-0.39025 0.2817-0.1771 0-0.33465-0.1138-0.39025-0.2817-0.34494-1.0353-1.7077-2.1895-3.1107-2.1895z"/>
 </g>
</svg>
