<svg xmlns:rdf="http://www.w3.org/1999/02/22-rdf-syntax-ns#" xmlns="http://www.w3.org/2000/svg" version="1.1" xmlns:cc="http://creativecommons.org/ns#" xmlns:dc="http://purl.org/dc/elements/1.1/" viewBox="0 0 16 16"><g transform="translate(0 -1036.4)"><path d="m12.8 1051.8c-0.07193 0-0.14386-0.017-0.20975-0.053l-4.6223-2.5205-4.6223 2.5205c-0.14771 0.081-0.32781 0.069-0.46454-0.028s-0.20646-0.2647-0.17846-0.4305l0.84177-5.0484-3.3544-3.3544c-0.11586-0.1158-0.15814-0.2883-0.10817-0.4448 0.049968-0.1565 0.1834-0.2723 0.34593-0.2998l5.0506-0.8417 2.0965-4.1925c0.074677-0.1482 0.22678-0.2427 0.3926-0.2427 0.16583 0 0.31903 0.094 0.3926 0.2427l2.0965 4.1925 5.0506 0.8417c0.16253 0.027 0.29596 0.1423 0.34593 0.2998 0.04997 0.1576 0.0087 0.3284-0.10817 0.4448l-3.3544 3.3544 0.84177 5.0484c0.02745 0.1658-0.04228 0.3328-0.17846 0.4305-0.07578 0.053-0.16528 0.082-0.25478 0.082zm-4.8321-3.5142c0.071933 0 0.14496 0.017 0.20976 0.053l4.0403 2.2036-0.7303-4.3812c-0.02361-0.1395 0.02196-0.2828 0.123-0.3833l2.9108-2.9108-4.4296-0.7379c-0.13892-0.023-0.25753-0.1115-0.32067-0.2372l-1.8038-3.6077-1.8038 3.6077c-0.063147 0.1257-0.18175 0.2135-0.32067 0.2372l-4.4296 0.7379 2.9108 2.9108c0.099936 0.1 0.14606 0.2427 0.123 0.3833l-0.7303 4.3812 4.0403-2.2036c0.065892-0.037 0.13782-0.053 0.20976-0.053z"/></g></svg>
