<svg xmlns="http://www.w3.org/2000/svg" viewBox="0 0 248.8 654.1"><path opacity="0.3" fill-rule="evenodd" clip-rule="evenodd" d="M246.8 650.8v0.6c0 1.5-9 2.7-20 2.7H20c-11 0-20-1.2-20-2.7v-0.6 c0-1.5 9-2.7 20-2.7h206.8C237.8 648.1 246.8 649.3 246.8 650.8z"></path><path fill="#424A55" d="M19.9 620.5c0 25.7 12.2 30.4 32.5 30.4h164.8c26.1 0 31.7-26.6 31.7-45.9V53.5c0-40.9-10.8-42.6-39.9-52.1 L46.7 46.5c-18.8 5.2-26.8 26.2-26.8 45.1V620.5z"></path><path fill="#4D5562" d="M0 612.8C0 638.5 10.5 651 30.7 651h166.6c19.9 0 31.6-17.8 31.6-37V29.5c0-16.7-12-33.8-39-28.5L26.8 38.7 C8 44-0.4 61.3 0 83.8V612.8z"></path><path fill="#424A55" d="M4.9 615.8c0.3 22 13.3 30.3 25.7 30.3h159.4c16.4 0 29.7-14.5 29.7-30.9V34.5c0-16.4-10.8-33.1-29.7-29.7 L27.2 43C9.9 48.1 3 65.3 3.1 81.2L4.9 615.8z"></path><path opacity="3.000000e-02" fill="#FFFFFF" d="M6.4 614.1c0.3 22 13.3 30.3 25.7 30.3L191.6 6.1L28.7 44.2 C11.4 49.3 4.5 66.6 4.6 82.5L6.4 614.1z"></path><ellipse fill="#3F4651" cx="108.2" cy="607.2" rx="19.6" ry="26.1"></ellipse><path fill="#4D5562" d="M104.3 617.9c-2.5 0-4.5-2-4.5-4.5v-12.3c0-2.5 2-4.5 4.5-4.5h7.3c2.5 0 4.5 2 4.5 4.5v12.3 c0 2.5-2 4.5-4.5 4.5H104.3L104.3 617.9z M111.6 598.7h-7.3c-1.4 0-2.5 1.1-2.5 2.5v12.3c0 1.4 1.1 2.5 2.5 2.5h7.3 c1.4 0 2.5-1.1 2.5-2.5v-12.3C114.1 599.8 113 598.7 111.6 598.7L111.6 598.7z"></path><path fill="#4D5562" d="M107.3 54c2.6 0.1 4.9-2.4 5-5.7c0.2-3.3-1.8-6-4.5-6.1c-2.6-0.1-4.9 2.4-5.1 5.7 C102.6 51.1 104.6 53.9 107.3 54z M104.8 47.9c0.1-2.4 1.7-4.2 3.6-4.1c1.9 0.1 3.3 2.1 3.2 4.4c-0.1 2.4-1.7 4.2-3.6 4.1 C106.1 52.3 104.7 50.3 104.8 47.9z"></path><path fill="#4D5562" d="M83.1 76.5c0.1 3.5 2.7 5.3 6.5 4.8l31.9-6.2c3.6-0.7 6.5-4.1 6.4-7.6c-0.1-3.5-3.1-5.8-6.7-5.1l-31.8 6.7 C82.8 70.4 83.1 76.5 83.1 76.5z M94.2 71l26.5-5.7c3-0.6 5.5 0.3 5.6 3c0.1 2.6-2.3 4.5-5.4 5.1l-26.5 5.2c-3 0.6-5.2-0.4-5.3-2.6 C89 73.6 90.1 71.9 94.2 71z"></path></svg>