<svg xmlns="http://www.w3.org/2000/svg" viewBox="0 0 2287.8 1186.6"><path opacity="0.3" fill-rule="evenodd" clip-rule="evenodd" d="M2058.6 1162.5c0 0 34.3 6.6 34.2 13.6 c-0.1 7-28.1 10.4-169.9 10.4H125.4c-42.2 0-96.5-3-87.8-4.8c10.5-2.2 28.7-4.6 28.7-4.6c0-1.7 22.5-2.2 36.7-2.2 C103 1174.9 2054.5 1159 2058.6 1162.5z"></path><path fill="#D7D7D8" d="M881.5 1115.2c-3.1 22.8 17.8 29.9 40 29.9l1124.6 19.7c44.2-2.4 55.2-36.7 58.9-59.9L2281.5 45.4 c5.5-38.2-16.1-47.4-39-44.7l-1133.7 155c-23.3 3.2-39.4 21.7-44.2 45L881.5 1115.2z"></path><path fill="#EBEBEB" d="M881 1115.2c-3.1 22.8 17.8 29.9 40 29.9l1122.1 19.7c44.2-2.4 55.2-36.7 58.9-59.9L2278.5 45.4 c5.5-38.2-16.1-47.4-39-44.7l-1131.2 155c-23.3 3.2-39.4 21.7-44.2 45L881 1115.2z"></path><path fill="#464D59" d="M881.5 1115.2c-3.1 22.8 17.8 29.9 40 29.9l1117.1 15.2c44.2-2.4 55.2-36.7 58.9-59.9L2274 45.4 c5.5-38.2-16.1-47.4-39-44.7l-1126.2 155c-23.3 3.2-39.4 21.7-44.2 45L881.5 1115.2z"></path><path opacity="3.000000e-02" fill="#FFFFFF" d="M887 1119.8c-3.1 22.8 17.8 29.9 40 29.9L2236.4 6.9L1114.3 160.3 c-23.3 3.2-39.4 21.7-44.2 45L887 1119.8z"></path><path fill="#D7D7D8" d="M2041 1149.8l30 9.1c0 0-16.6 22.4-173.9 22.4s-1638.8-0.3-1706.6-0.3c-67.8 0-140 2.8-190.5-22.1 l86.4-16.6L2041 1149.8z"></path><rect x="0" y="1125.7" fill="#EBEBEB" width="2071" height="33.1"></rect><path fill="#D1D2D3" d="M618.1 1125.7c0 0 1 21.5-14.2 21.3c-15.2-0.2-128.5 0-135.4 0c-6.9 0-18.3-2-18.1-21.3H618.1z"></path><path fill="#4E5663" d="M1591.2 140.9c3.7 0.2 6.8-3.4 7-7.9c0.2-4.6-2.6-8.4-6.2-8.6c-3.7-0.2-6.8 3.4-7 7.9 C1584.7 136.9 1587.5 140.7 1591.2 140.9z M1587.7 132.4c0.2-3.3 2.4-5.8 5.1-5.7c2.6 0.1 4.7 2.9 4.5 6.2 c-0.2 3.3-2.4 5.8-5.1 5.7C1589.6 138.5 1587.6 135.7 1587.7 132.4z"></path><path fill="#D7D7D8" d="M1998.4 1150.9c0 1.9 1.5 3.4 3.4 3.4h46.1c1.9 0 3.4-1.5 3.4-3.4v-16.2c0-1.9-1.5-3.4-3.4-3.4h-46.1 c-1.9 0-3.4 1.5-3.4 3.4V1150.9z"></path></svg>