<svg xmlns="http://www.w3.org/2000/svg" width="500" height="250"><g transform="translate(0 -802.362)"><path d="M106.815 1018.245l6.857 34.288h108.112c.704-15.617 1.13-30.8.69-39.432-.033-.647-.083-1.246-.124-1.867-3.233-2.01-7.42-6.738-12.832-15.484-2.023-3.272-4.668-5.96-7.78-8.15-.346.616-.826 1.47-1.21 2.16-.313-.064-.617-.116-.933-.183-6.885-1.48-12.693-2.975-16.604-4.536-16.087 1.016-35.136 2.348-49.275 3.736-.726 3.483-4.526 9.666-21.454 13.42-.707.16-1.403.28-2.097.395.485 2.962 2.016 4.658 2.016 4.658s-.596 5.184-5.43 10.458c.038.336.065.54.065.54z" fill="#fff"/><path d="M70.498 995.314s4.116-2.31 5.41-2.786c1.295-.475 32.802 8.574 32.802 8.574l1.654 2.446 1.602 2.327.854 1.766-20.536 2.514-19.974-6.567-2.354-6.088.542-2.186zM208.005 993.345l1.513 2.404 11.32 4.968 13.795-6.29.878-4.505-5.623-.904" fill="#628ea0"/><path d="M487.503 913.512s.148-5.726-5.37-7.043c-.433-.08-.865-.16-1.328-.224-.295-1.266-1.29-2.7-3.987-3.685-5.9-2.16-14.11 1.378-14.11 1.378-7.83-5.982-29.185 9.306-32.667 11.877L409.31 926.92c-9.1-2.267-12.43-7.314-12.43-7.314s-2.08-16.814-10.793-20.238c-8.713-3.423-13.584 5.543-9.01 15.403 1.922 4.146-.628 12.007-4.223 19.73v.008s-2.536 6.282-1.34 12.657l-2.382 1.275s51.822-2.506 46.69 37.84c0 0 41.47-15.825 75.207-59.213.288-.57 5.608-11.335-3.524-13.555z" fill="#fdd08f"/><path d="M376.986 925.327c-.182.016-.366.057-.553.103-.885 2.883-2.145 5.986-3.583 9.07v.008s-2.535 6.282-1.34 12.657l-2.382 1.275s3.26-.158 8.066.243c-3.238-9.305-.208-23.356-.208-23.356z" fill="#f7ae83"/><path d="M404.384 988.714s8.43-.625 16-4.42c7.568-3.795-3.633-32.083-3.633-32.083l-31.9-8.85-10.21 4.32 7.262 25.912 22.482 15.122z" fill="#fdd08f"/><path d="M404.544 1005.805l6.12-.948s7.452-39.005-14.9-52.114c-22.35-13.11-28.642-2.108-28.642-2.108l37.422 55.17z" fill="#dff2fd"/><path d="M159.905 1029.63l-1.587 5.82s14.972-10.412 26.633-6.328l-3.306-3.608-21.69 3.944" fill="#cfe1eb"/><path d="M119.982 1000.956s33.167-8.03 41.558-37.904c0 0 14.792 24.79 46.465 29.237-27.166 35.052-88.023 8.666-88.023 8.666z" fill="#fdd08f"/><path d="M161.63 1010.392c-21.97-.916-41.648-9.436-41.648-9.436s33.167-8.03 41.558-37.904c0 0 11.363 19.038 35.49 26.74-3.953 6.73-13.357 16.362-35.4 20.6z" fill="none"/><path d="M197.03 989.79c3.403 1.087 7.06 1.95 10.975 2.5-11.72 15.122-29.707 18.798-46.376 18.102 22.043-4.238 31.447-13.87 35.4-20.6z" fill="#f7ae83"/><path d="M207.947 873.996l15.5-14.105s4.725-3.114 4.132 8.148c-.594 11.262 1.01 36.554-13.587 33.954-14.598-2.6-6.046-27.996-6.046-27.996z" fill="#fdd08f"/><path d="M208.06 891.977c5.077 1.428 13.505-24.682 15.85-32.312 1.176-.443 4.146-.7 3.67 8.37-.594 11.264 1.01 36.555-13.587 33.956-5.928-1.055-8.038-5.87-8.453-11.216.717.512 1.545.93 2.52 1.203z" fill="none"/><path d="M208.06 891.977c-.975-.274-1.803-.69-2.522-1.203-.61-7.82 2.407-16.778 2.407-16.778l15.5-14.105s.18-.118.465-.223c-2.345 7.628-10.775 33.738-15.85 32.31z" fill="#f7ae83"/><path d="M62.013 892.734l4.65-17.804c15.615-55.562 74.574-55.133 103.048-49.262 28.474 5.87 43.05 40.587 41.514 70.29-1.524 29.505 24.073 57.392 24.416 57.76.598 1.345.948 2.104.948 2.104s-51.872 9.476-61.444.345c-9.574-9.13-57.215 25.858-57.215 25.858s-8.33-1.808-18.955-10.708c-7.26 5.667-18.57 12.972-23.71 9.78-7.806-4.843-4.928-7.578-1.025-21.467 2-7.12-.202-17.556-2.824-26.042-2.057-4.51-3.84-9.244-5.288-14.21l-.074-.167.02-.024c-2.367-8.174-3.822-16.973-4.06-26.452z" fill="#fdd08f"/><g fill="#2b4d5a"><ellipse transform="matrix(1.7656 -.028 .028 1.7656 -43.952 499.177)" cx="101.033" cy="225.587" rx="2.158" ry="7.99"><animate attributeName="ry" values="7.98;7.98;7.98;7.98;7.98;7.98;7.98;7.98;7.98;7.98;7.98;7.98;7.98;0.4;0.4;7.98;7.98;7.98;7.98;7.98;7.98; 7.98;7.98;7.98;7.98;7.98;7.98;7.98;7.98;7.98;7.98;7.98;7.98;7.98;7.98;7.98;7.98;7.98;7.98;7.98;7.98;7.98;7.98; 7.98;7.98;7.98;7.98;7.98;7.98;7.98;7.98;7.98;7.98;7.98;7.98;7.98;7.98;7.98;7.98;7.98;7.98;7.98;7.98;7.98;7.98; 7.98;7.98;7.98;7.98;7.98;7.98;7.98;7.98;7.98;7.98;7.98;7.98;7.98;7.98;7.98;7.98;7.98;7.98;7.98;7.98;7.98;7.98; 7.98;7.98;7.98;7.98;7.98;7.98;7.98;7.98;7.98;7.98;7.98;7.98;7.98;7.98;7.98;7.98;7.98;7.98;7.98;7.98;7.98;7.98; 7.98;7.98;7.98;7.98;7.98;7.98;7.98;7.98;7.98;7.98;7.98;" dur="1s" begin="0s" repeatCount="indefinite"/></ellipse><ellipse transform="rotate(-12.18 2512.808 819.55) scale(1.7658)" cx="116.595" cy="223.612" rx="3.965" ry="10.036"><animate attributeName="ry" values="10;10;10;10;10;10;10;10;10;10;10;10;10;0.4;0.4;10;10;10;10;10;10; 10;10;10;10;10;10;10;10;10;10;10;10;10;10;10;10;10;10;10;10;10;10; 10;10;10;10;10;10;10;10;10;10;10;10;10;10;10;10;10;10;10;10;10;10; 10;10;10;10;10;10;10;10;10;10;10;10;10;10;10;10;10;10;10;10;10;10; 10;10;10;10;10;10;10;10;10;10;10;10;10;10;10;10;10;10;10;10;10;10; 10;10;10;10;10;10;10;10;10;10;10;" dur="1s" begin="0s" repeatCount="indefinite"/></ellipse></g><path d="M75.186 855.354s-5.1 27.29-2.225 33.7c2.876 6.407-6.13 1.798-8.946-3.978-.002.002 3.917-20.253 11.172-29.722zM66.21 925.137s3.988-9.532 7.954-6.767c0 0 1.37.823 3.57 2.47.13.202.267.42.413.656-.423.11-.664.18-.664.18s14.796 19.86 7.048 36.147c-4.48 9.415-3.656 19.772-2.044 26.85-1.812-.833-3.415-1.793-4.667-2.816-9.535-7.78-6.91-14.03-6.91-14.03s9.432-22.234-4.7-42.69z" fill="#f7ae83"/><path d="M66.5 983.754c-18.083-20.625-11.723-34.027-11.723-34.027l.002.004c2.35-6.79 8.47-11.946 16.092-12.693 9.243-.906 17.582 4.98 20.08 13.586-2.058-6.17-8.215-10.327-15.03-9.657-7.898.773-13.68 7.736-12.916 15.55.462 4.72 3.214 8.662 7.056 10.88 1.347.733 2.638 1.218 3.82 1.527.29.07.58.14.877.19l-.005.012c3.357.68 5.672.01 5.672.01 4.614-.76 8.467-4.21 12.79-8.09 3.595-3.22 5.46-5.706 7.222-7.766 3.377-3.955 14.08-16.476 28.884-18.486 2.31-.314 11.188-1.386 20.024 3.87 1.423.847 9.524 5.867 12.747 14.9 1.407-9.487 8.38-15.98 9.613-17.09 7.65-6.87 16.565-7.54 18.892-7.682 14.914-.902 27.84 9.306 31.924 12.53 2.127 1.678 4.44 3.753 8.59 6.218 4.997 2.966 9.445 5.603 14.118 5.45 0 0 2.4.213 5.562-1.108l-.007-.01c.28-.108.55-.234.82-.357 1.103-.535 2.273-1.26 3.453-2.24 3.34-2.924 5.273-7.324 4.81-12.044-.766-7.812-7.79-13.52-15.69-12.746-6.813.667-12.047 5.94-12.868 12.39.78-8.927 7.817-16.32 17.06-17.225 7.622-.748 14.627 3.123 18.252 9.328v-.004s8.836 11.908-4.888 35.64l-.06.108c-.242.413-.485.828-.74 1.25-.14.232-.284.46-.427.69-.005.004-.008.01-.01.015-14.903 23.965-39.047 26.02-39.047 26.02l.018-.015c-1.276.212-2.56.395-3.868.524-22.443 2.2-43.12-8.882-54.255-26.833-7.44 19.77-25.573 34.654-48.016 36.852-1.305.127-2.603.198-3.896.237l.02.012s-24.56 2.724-43.92-18.557c-.335-.367-.658-.73-.976-1.093-.02-.023-.038-.046-.06-.07z" fill="#2b4d5a"/><path d="M74.466 889.754s-33.782-15.94-36.875-12.22c-3.09 3.72-.645 17.876 4.444 30.503 5.087 12.63 11.747 21.742 35.128 14.894 23.38-6.847-2.696-33.176-2.696-33.176z" fill="#fdd08f"/><path d="M61.14 894.332s-17.25-14.24-17.34-5.512c-.092 8.728 3.217 17.794 10.824 22.174 0 0 2.537 1.222-.553-2.933-3.09-4.153-7.897-17.107-5.22-15.83 2.673 1.276 18.588 6.7 12.29 2.102zM65.628 905.842s1.278 3.673-2.597 3.64c-3.875-.034-3.296 4.22-.4 4.325 2.9.106 7.978-5.89 2.998-7.965z" fill="#f7ae83"/><path d="M121.824 1013.594s19.37 18.117 31.417 20.483l-4.173 3.36s-18.48-11.025-27.243-23.843zM188.216 1029.6l5.15 4.12s13-19.718 12.46-28.694c-.002 0-9.37 23.543-17.61 24.573z" fill="#cfe1eb"/><path d="M235.51 989.923s81.388.816 133.145-44.58c0 0 55.345 5.59 33.242 72.303 0 0-67.08 31.057-146.555 14.752l-20.405-32.145-1.83-4.616 2.404-5.714z" fill="#628ea0"/><path fill="#34606f" d="M374.118 1012.728l1.157-.1.78 9.126-1.157.1zM380.672 1010.895l1.158-.1.78 9.126-1.158.1zM387.46 1009.147l1.158-.1.78 9.125-1.158.1zM394.384 1007.295l1.158-.1.78 9.126-1.157.1z"/><circle cx="233.682" cy="295.398" r="1.937" transform="matrix(1.7658 0 0 1.7658 -37.685 496.31)" fill="#84a8b2"/><path d="M375.218 1021.082c-1.744.15-3.284-1.147-3.434-2.892-.15-1.743 1.147-3.284 2.892-3.433 1.745-.148 3.284 1.148 3.434 2.893.15 1.744-1.147 3.282-2.892 3.432zm-.517-6.058c-1.596.136-2.784 1.547-2.648 3.143.136 1.596 1.547 2.785 3.143 2.647 1.596-.136 2.785-1.547 2.65-3.143-.137-1.595-1.548-2.784-3.144-2.646z" fill="#34606f"/><circle cx="233.278" cy="295.797" r=".329" transform="matrix(1.7658 0 0 1.7658 -37.685 496.31)" fill="#34606f"/><circle cx="233.321" cy="295.038" r=".329" transform="matrix(1.7658 0 0 1.7658 -37.685 496.31)" fill="#34606f"/><circle cx="234.056" cy="295.904" r=".329" transform="matrix(1.7658 0 0 1.7658 -37.685 496.31)" fill="#34606f"/><circle cx="234.098" cy="295.145" r=".329" transform="matrix(1.7658 0 0 1.7658 -37.685 496.31)" fill="#34606f"/><circle cx="237.516" cy="294.527" r="1.937" transform="matrix(1.7658 0 0 1.7658 -37.685 496.31)" fill="#84a8b2"/><path d="M381.988 1019.544c-1.744.15-3.284-1.147-3.434-2.892-.15-1.743 1.147-3.284 2.892-3.433 1.745-.15 3.284 1.147 3.435 2.892.15 1.744-1.147 3.284-2.892 3.432zm-.52-6.056c-1.595.136-2.784 1.547-2.648 3.143.136 1.597 1.547 2.786 3.143 2.648 1.597-.136 2.785-1.547 2.65-3.143-.137-1.597-1.546-2.785-3.144-2.647z" fill="#34606f"/><circle cx="237.112" cy="294.927" r=".329" transform="matrix(1.7658 0 0 1.7658 -37.685 496.31)" fill="#34606f"/><circle cx="237.154" cy="294.167" r=".329" transform="matrix(1.7658 0 0 1.7658 -37.685 496.31)" fill="#34606f"/><circle cx="237.889" cy="295.034" r=".329" transform="matrix(1.7658 0 0 1.7658 -37.685 496.31)" fill="#34606f"/><circle cx="237.932" cy="294.274" r=".329" transform="matrix(1.7658 0 0 1.7658 -37.685 496.31)" fill="#34606f"/><circle cx="241.434" cy="293.644" r="1.937" transform="matrix(1.7658 0 0 1.7658 -37.685 496.31)" fill="#84a8b2"/><path d="M389.253 1017.938c-1.72.34-3.39-.78-3.732-2.497-.34-1.716.782-3.39 2.5-3.73 1.718-.34 3.39.78 3.73 2.496.342 1.717-.78 3.39-2.497 3.732zm-1.182-5.965c-1.57.31-2.596 1.843-2.285 3.415.31 1.57 1.843 2.597 3.415 2.287 1.57-.31 2.597-1.844 2.286-3.416-.31-1.572-1.84-2.598-3.415-2.287z" fill="#34606f"/><circle cx="241.076" cy="294.086" r=".329" transform="matrix(1.7658 0 0 1.7658 -37.685 496.31)" fill="#34606f"/><circle cx="241.035" cy="293.326" r=".329" transform="matrix(1.7658 0 0 1.7658 -37.685 496.31)" fill="#34606f"/><circle cx="241.861" cy="294.107" r=".329" transform="matrix(1.7658 0 0 1.7658 -37.685 496.31)" fill="#34606f"/><circle cx="241.82" cy="293.347" r=".329" transform="matrix(1.7658 0 0 1.7658 -37.685 496.31)" fill="#34606f"/><circle cx="245.246" cy="292.751" r="1.937" transform="matrix(1.7658 0 0 1.7658 -37.685 496.31)" fill="#84a8b2"/><path d="M395.984 1016.36c-1.718.34-3.39-.78-3.73-2.496-.34-1.717.78-3.39 2.497-3.73 1.72-.34 3.392.78 3.732 2.496.34 1.718-.78 3.39-2.498 3.73zm-1.18-5.964c-1.57.31-2.597 1.843-2.286 3.415.31 1.573 1.843 2.598 3.415 2.288 1.57-.31 2.597-1.844 2.286-3.415-.312-1.572-1.844-2.598-3.416-2.287z" fill="#34606f"/><circle cx="244.889" cy="293.193" r=".329" transform="matrix(1.7658 0 0 1.7658 -37.685 496.31)" fill="#34606f"/><circle cx="244.848" cy="292.433" r=".329" transform="matrix(1.7658 0 0 1.7658 -37.685 496.31)" fill="#34606f"/><circle cx="245.673" cy="293.214" r=".329" transform="matrix(1.7658 0 0 1.7658 -37.685 496.31)" fill="#34606f"/><circle cx="245.632" cy="292.454" r=".329" transform="matrix(1.7658 0 0 1.7658 -37.685 496.31)" fill="#34606f"/><path d="M265.038 1027.208l4.092 7.565c28.03 3.974 54.02 2.406 75.452-1.05-1.893.018-66.82.647-79.544-6.515z" fill="#34606f"/><path d="M492.154 916.935c-6.74 15.978-46.144 42.12-65.454 54.21l-15.47 8.87s.656 5.278.58 7.514c0 0 3.47-.6 9.808-3.817l.002-.004c12.56-6 43.293-23.06 69.407-56.646.21-.41 3.022-6.14 1.127-10.13z" fill="#f7ae83"/><path d="M218.153 1052.533h60.395c-.2-.385-.378-.772-.582-1.157-11.504-21.505-21.54-44.116-45.612-57.86-5.637 1.42-12.656 2.273-20.296 2.273-.866 0-1.7-.04-2.545-.066l.007.026c-.002-.002 8.822 17.217 8.633 56.783zM112.178 1007.246c-4.78.362-9.965.164-15.33-.72-10.942-1.798-20.307-6.006-26.35-11.21-18.594 9.88-47.964 30.672-67.57 57.217h131.91l-22.66-45.287z" fill="#628ea0"/><path fill="#34606f" d="M77.473 1052.533h3.447l13.755-16.678-19.865-18.982 18.375-15.647-1.92-.616-20.133 15.6 19.203 19.24M228.728 1019.373l12.802 12.58-3.936 20.58h2.806l4.552-22.05-13.905-11.11 6.235-15.01-19.897-11.136-2.18.164 18.932 11.636"/><path d="M169.525 1052.533h18.308c-3.195-6.277-6.322-11.465-8.98-14.116l2.79-12.903s-7.518-10.375-13.742-6.415c-6.224 3.96-7.997 10.53-7.997 10.53l11.328 12.075c.003 0-.875 5.024-1.705 10.828z" fill="#167c9c"/></g></svg>