<svg xmlns="http://www.w3.org/2000/svg" xmlns:xlink="http://www.w3.org/1999/xlink" version="1.1" x="0px" y="0px" viewBox="0 0 32 40" enable-background="new 0 0 32 32" xml:space="preserve"><g><g><path fill="#000000" d="M1.2,31.3V5.9l10.1-4.8l9.4,4.5l10.1-4.8v25.3l-10.1,4.8l-9.4-4.5L1.2,31.3z M11.3,24.8l9.4,4.5l8.7-4.1    V3.1l-8.7,4.1l-9.4-4.5L2.6,6.8v22.1L11.3,24.8z"/></g><g><rect x="20.2" y="12.4" transform="matrix(0.7071 0.7072 -0.7072 0.7071 16.4256 -13.2996)" fill="#000000" width="8.1" height="1.5"/></g><g><rect x="23.5" y="9.1" transform="matrix(0.7071 0.7071 -0.7071 0.7071 16.4237 -13.2993)" fill="#000000" width="1.5" height="8.1"/></g><g><g><path fill="#000000" d="M4.2,21.8c0-0.4,0-0.7,0.1-1.2l1.4,0.3c-0.1,0.3-0.1,0.5,0,0.8L4.2,21.8z"/></g><g><path fill="#000000" d="M19.7,21.8c-0.2,0-0.3,0-0.5-0.1c-0.6-0.1-1.1-0.4-1.6-0.7l0.9-1.2c0.3,0.2,0.6,0.4,1,0.4     c0.1,0,0.2,0,0.3,0L19.7,21.8z M21.9,21.4l-0.6-1.3c0.5-0.2,0.9-0.5,1.3-0.9l1.1,1C23.1,20.7,22.5,21.1,21.9,21.4z M16.3,19.4     c-0.2-0.4-0.5-0.9-0.7-1.4l-0.2-0.3l1.3-0.6l0.2,0.3c0.2,0.4,0.4,0.9,0.6,1.3L16.3,19.4z M6.1,19.2l-1.4-0.5L5,18.1     c0.1-0.4,0.3-0.7,0.4-1l0-0.1l1.4,0.5c-0.1,0.4-0.3,0.8-0.4,1.1L6.1,19.2z M14.6,16.1c-0.1-0.2-0.2-0.3-0.4-0.4     c-0.2-0.2-0.5-0.4-0.8-0.6l0.7-1.3c0.4,0.2,0.8,0.5,1.1,0.8c0.2,0.2,0.4,0.4,0.5,0.6L14.6,16.1z M7.6,16.1l-1.1-0.9     c0.4-0.5,1-0.9,1.6-1.2l0.2-0.1l0.6,1.3l-0.1,0.1C8.2,15.4,7.9,15.7,7.6,16.1z M10.4,14.7l-0.2-1.4c0.7-0.1,1.4-0.1,2,0L12,14.7     C11.5,14.6,10.9,14.6,10.4,14.7z"/></g><g><path fill="#000000" d="M24.7,18.3l-1.4-0.5c0.1-0.3,0.2-0.5,0.2-0.8l1.4,0.2C24.9,17.6,24.9,17.9,24.7,18.3z"/></g></g></g><text x="0" y="47" fill="#000000" font-size="5px" font-weight="bold" font-family="'Helvetica Neue', Helvetica, Arial-Unicode, Arial, Sans-serif">Created by Creative Stall</text><text x="0" y="52" fill="#000000" font-size="5px" font-weight="bold" font-family="'Helvetica Neue', Helvetica, Arial-Unicode, Arial, Sans-serif">from the Noun Project</text></svg>