<?xml version="1.0" encoding="UTF-8" standalone="no"?>
<svg
   xmlns:dc="http://purl.org/dc/elements/1.1/"
   xmlns:cc="http://creativecommons.org/ns#"
   xmlns:rdf="http://www.w3.org/1999/02/22-rdf-syntax-ns#"
   xmlns:svg="http://www.w3.org/2000/svg"
   xmlns="http://www.w3.org/2000/svg"
   xmlns:sodipodi="http://sodipodi.sourceforge.net/DTD/sodipodi-0.dtd"
   xmlns:inkscape="http://www.inkscape.org/namespaces/inkscape"
   version="1.1"
   x="0px"
   y="0px"
   viewBox="0 0 60 60"
   enable-background="new 0 0 60 60"
   xml:space="preserve"
   id="svg2"
   inkscape:version="0.48.4 r9939"
   width="100%"
   height="100%"
   sodipodi:docname="webmobile.svg"><metadata
     id="metadata94"><rdf:RDF><cc:Work
         rdf:about=""><dc:format>image/svg+xml</dc:format><dc:type
           rdf:resource="http://purl.org/dc/dcmitype/StillImage" /></cc:Work></rdf:RDF></metadata><defs
     id="defs92" /><sodipodi:namedview
     pagecolor="#ffffff"
     bordercolor="#666666"
     borderopacity="1"
     objecttolerance="10"
     gridtolerance="10"
     guidetolerance="10"
     inkscape:pageopacity="0"
     inkscape:pageshadow="2"
     inkscape:window-width="640"
     inkscape:window-height="480"
     id="namedview90"
     showgrid="false"
     inkscape:zoom="3.1466667"
     inkscape:cx="30"
     inkscape:cy="33.136494"
     inkscape:window-x="0"
     inkscape:window-y="0"
     inkscape:window-maximized="0"
     inkscape:current-layer="svg2" /><g
     id="g4"
     transform="translate(0,-0.69915254)"><g
       id="g6"><g
         id="g8"><g
           id="g10"><path
             d="M 45.853664,49.067387 H 32.238243 c -0.417725,0 -0.805679,-0.188218 -1.063997,-0.516633 -0.258797,-0.328418 -0.350985,-0.749984 -0.252556,-1.156185 l 1.305029,-5.409294 h 13.63895 l 1.305027,5.409294 c 0.09843,0.406201 0.0062,0.827767 -0.252552,1.156185 -0.25832,0.328416 -0.646274,0.516633 -1.06448,0.516633 z m -12.852955,-6.098778 -1.123533,4.656429 c -0.03649,0.152683 0.02785,0.264076 0.06962,0.317852 0.04129,0.05282 0.134922,0.141163 0.291447,0.141163 h 13.615421 c 0.15701,0 0.250637,-0.08834 0.291928,-0.14212 0.04177,-0.05282 0.106113,-0.164212 0.06962,-0.316895 L 45.091678,42.968609 H 33.000709 z"
             id="path12"
             inkscape:connector-curvature="0" /></g><g
           id="g14"><path
             d="m 32.613716,42.968609 h -4.123951 c -0.271761,0 -0.491667,-0.219906 -0.491667,-0.491669 0,-0.271759 0.219906,-0.491665 0.491667,-0.491665 h 4.123951 c 0.271759,0 0.491665,0.219906 0.491665,0.491665 0,0.271763 -0.219906,0.491669 -0.491665,0.491669 z"
             id="path16"
             inkscape:connector-curvature="0" /></g><g
           id="g18"><path
             d="M 57.674793,42.968609 H 45.478672 c -0.271759,0 -0.491665,-0.219906 -0.491665,-0.491669 0,-0.271759 0.219906,-0.491665 0.491665,-0.491665 h 12.196121 c 0.464298,0 0.84169,-0.377392 0.84169,-0.84217 V 38.314098 H 28.509451 c -0.271761,0 -0.491667,-0.219906 -0.491667,-0.491665 0,-0.271762 0.219906,-0.491668 0.491667,-0.491668 h 30.990366 v 3.81234 c 0,1.006378 -0.818646,1.825504 -1.825024,1.825504 z"
             id="path20"
             inkscape:connector-curvature="0" /></g><g
           id="g22"><path
             d="m 59.008148,38.314098 c -0.271759,0 -0.491665,-0.219906 -0.491665,-0.491665 V 12.757035 c 0,-0.463818 -0.377392,-0.841211 -0.84169,-0.841211 H 20.417597 c -0.464298,0 -0.84169,0.377393 -0.84169,0.841211 v 6.271631 c 0,0.27176 -0.219906,0.491666 -0.491667,0.491666 -0.271761,0 -0.491667,-0.219906 -0.491667,-0.491666 v -6.271631 c 0,-1.00638 0.818644,-1.824544 1.825024,-1.824544 h 37.257194 c 1.006378,0 1.825024,0.818164 1.825024,1.824544 v 25.065399 c 2e-6,0.271758 -0.219904,0.491664 -0.491667,0.491664 z"
             id="path24"
             inkscape:connector-curvature="0" /></g><g
           id="g26"><path
             d="M 45.47855,42.476517"
             id="path28"
             inkscape:connector-curvature="0" /></g><g
           id="g30"><path
             d="M 32.613769,42.476517"
             id="path32"
             inkscape:connector-curvature="0" /></g></g><g
         id="g34"><g
           id="g36"><g
             id="g38"><path
               d="M 11.034159,49.067387 H 2.2542593 c -0.9674886,0 -1.7544434,-0.787434 -1.7544434,-1.754445 V 30.898767 c 0,-0.967008 0.7869548,-1.754444 1.7544434,-1.754444 h 8.7798997 c 0.967488,0 1.754443,0.787436 1.754443,1.754444 v 16.414175 c 0,0.967011 -0.786955,1.754445 -1.754443,1.754445 z M 2.2542593,30.127657 c -0.4254069,0 -0.7711101,0.345703 -0.7711101,0.77111 v 16.414175 c 0,0.425408 0.3457031,0.771111 0.7711101,0.771111 h 8.7798997 c 0.425406,0 0.77111,-0.345703 0.77111,-0.771111 V 30.898767 c 0,-0.425407 -0.345704,-0.77111 -0.77111,-0.77111 H 2.2542593 z"
               id="path40"
               inkscape:connector-curvature="0" /></g></g><g
           id="g42"><path
             d="M 12.215311,32.763645 H 1.167215 c -0.2717611,0 -0.4916666,-0.219906 -0.4916666,-0.491669 0,-0.271759 0.2199056,-0.491666 0.4916666,-0.491666 h 11.048096 c 0.271761,0 0.491667,0.219907 0.491667,0.491666 0,0.271763 -0.219906,0.491669 -0.491667,0.491669 z"
             id="path44"
             inkscape:connector-curvature="0" /></g><g
           id="g46"><path
             d="M 12.215311,45.166702 H 1.167215 c -0.2717611,0 -0.4916666,-0.219906 -0.4916666,-0.491665 0,-0.271762 0.2199056,-0.491668 0.4916666,-0.491668 h 11.048096 c 0.271761,0 0.491667,0.219906 0.491667,0.491668 0,0.271759 -0.219906,0.491665 -0.491667,0.491665 z"
             id="path48"
             inkscape:connector-curvature="0" /></g><g
           id="g50"><path
             d="M 7.4806185,31.446131 H 6.2178416 c -0.2717609,0 -0.4916668,-0.219906 -0.4916668,-0.491667 0,-0.271761 0.2199059,-0.491667 0.4916668,-0.491667 h 1.2627769 c 0.2717609,0 0.4916663,0.219906 0.4916663,0.491667 0,0.271761 -0.2199054,0.491667 -0.4916663,0.491667 z"
             id="path52"
             inkscape:connector-curvature="0" /></g><g
           id="g54"><path
             d="m 6.6442089,47.932327 c -0.6947675,0 -1.260376,-0.565609 -1.260376,-1.260856 0,-0.694287 0.5656085,-1.259896 1.260376,-1.259896 0.6947675,0 1.260376,0.565609 1.260376,1.259896 0,0.695247 -0.565609,1.260856 -1.260376,1.260856 z m 0,-1.537418 c -0.1526856,0 -0.2770429,0.123878 -0.2770429,0.276562 0,0.152687 0.1243572,0.277523 0.2770429,0.277523 0.1526857,0 0.2770424,-0.124836 0.2770424,-0.277523 0,-0.152684 -0.1243567,-0.276562 -0.2770424,-0.276562 z"
             id="path56"
             inkscape:connector-curvature="0" /></g></g><g
         id="g58"><g
           id="g60"><g
             id="g62"><path
               d="m 24.298595,49.067387 h -9.648478 c -0.271761,0 -0.491667,-0.219906 -0.491667,-0.491665 0,-0.271763 0.219906,-0.491669 0.491667,-0.491669 h 9.648478 c 0.725497,0 1.315592,-0.590576 1.315592,-1.315594 V 23.277933 c 0,-0.725016 -0.590095,-1.315592 -1.315592,-1.315592 H 11.733247 c -0.725017,0 -1.315112,0.590576 -1.315112,1.315592 v 4.283838 c 0,0.271761 -0.219906,0.491667 -0.4916671,0.491667 -0.2717609,0 -0.4916668,-0.219906 -0.4916668,-0.491667 v -4.283838 c 0,-1.267578 1.0308679,-2.298925 2.2984459,-2.298925 h 12.565348 c 1.267578,0 2.298926,1.031347 2.298926,2.298925 v 23.490526 c 0,1.267578 -1.031347,2.298928 -2.298926,2.298928 z"
               id="path64"
               inkscape:connector-curvature="0" /></g></g><g
           id="g66"><path
             d="M 25.988699,25.299337 H 10.177583 c -0.2717612,0 -0.4916671,-0.219906 -0.4916671,-0.491666 0,-0.271761 0.2199059,-0.491667 0.4916671,-0.491667 h 15.811116 c 0.271761,0 0.491667,0.219906 0.491667,0.491667 0,0.27176 -0.219906,0.491666 -0.491667,0.491666 z"
             id="path68"
             inkscape:connector-curvature="0" /></g><g
           id="g70"><path
             d="M 25.988699,44.340859 H 14.713016 c -0.271761,0 -0.491667,-0.219906 -0.491667,-0.491669 0,-0.271759 0.219906,-0.491665 0.491667,-0.491665 h 11.275683 c 0.271761,0 0.491667,0.219906 0.491667,0.491665 0,0.271763 -0.219906,0.491669 -0.491667,0.491669 z"
             id="path72"
             inkscape:connector-curvature="0" /></g><g
           id="g74"><path
             d="m 19.212439,23.851225 h -1.80678 c -0.271761,0 -0.491667,-0.219906 -0.491667,-0.491667 0,-0.271761 0.219906,-0.491667 0.491667,-0.491667 h 1.80678 c 0.27176,0 0.491666,0.219906 0.491666,0.491667 0,0.271761 -0.219906,0.491667 -0.491666,0.491667 z"
             id="path76"
             inkscape:connector-curvature="0" /></g><g
           id="g78"><path
             d="m 18.015921,47.804611 c -0.877701,0 -1.591675,-0.714455 -1.591675,-1.592155 0,-0.877701 0.713974,-1.592156 1.591675,-1.592156 0.877702,0 1.591674,0.714455 1.591674,1.592156 0,0.8777 -0.713972,1.592155 -1.591674,1.592155 z m 0,-2.200977 c -0.335619,0 -0.608342,0.27272 -0.608342,0.608822 0,0.336101 0.272723,0.608822 0.608342,0.608822 0.33562,0 0.608341,-0.272721 0.608341,-0.608822 0,-0.336102 -0.272721,-0.608822 -0.608341,-0.608822 z"
             id="path80"
             inkscape:connector-curvature="0" /></g></g><g
         id="g82"><path
           d="m 40.660435,14.010209 h -3.228482 c -0.271762,0 -0.491668,-0.219906 -0.491668,-0.491667 0,-0.271761 0.219906,-0.491667 0.491668,-0.491667 h 3.228482 c 0.271762,0 0.491668,0.219906 0.491668,0.491667 0,0.271761 -0.219905,0.491667 -0.491668,0.491667 z"
           id="path84"
           inkscape:connector-curvature="0" /></g></g></g></svg>